<?xml version="1.0" encoding="ISO-8859-1"?>
<!DOCTYPE svg PUBLIC "-//W3C//DTD SVG 1.0//EN" "http://www.w3.org/TR/2001/REC-SVG-20010904/DTD/svg10.dtd">
<!-- generated by Grace-5.1.25 -->
<svg xml:space="preserve" width="11.0000in" height="8.5000in" viewBox="0.0000 0.0000 792.0000 612.0000">
 <g transform="translate(0,612.0000) scale(1,-1)">
  <g style="fill:#FFFFFF; fill-rule:nonzero">
   <path  d="M0.0000,0.0000L0.0000,612.0000L792.0000,612.0000L792.0000,0.0000z"/>
  </g>
  <g style="fill:#000000; fill-rule:nonzero">
   <path  d="M120.9877,91.8000L120.9877,358.0200L133.2277,358.0200L133.2277,91.8000z"/>
   <path  d="M156.2954,91.8000L156.2954,251.3484L168.5354,251.3484L168.5354,91.8000z"/>
   <path  d="M191.6031,91.8000L191.6031,198.5634L203.8431,198.5634L203.8431,91.8000z"/>
   <path  d="M226.9108,91.8000L226.9108,284.5800L239.1508,284.5800L239.1508,91.8000z"/>
   <path  d="M262.2185,91.8000L262.2185,161.8434L274.4585,161.8434L274.4585,91.8000z"/>
   <path  d="M297.5262,91.8000L297.5262,214.6284L309.7662,214.6284L309.7662,91.8000z"/>
   <path  d="M332.8338,91.8000L332.8338,312.1200L345.0738,312.1200L345.0738,91.8000z"/>
   <path  d="M368.1415,91.8000L368.1415,238.6800L380.3815,238.6800L380.3815,91.8000z"/>
   <path  d="M403.4492,91.8000L403.4492,165.2400L415.6892,165.2400L415.6892,91.8000z"/>
   <path  d="M438.7569,91.8000L438.7569,330.4800L450.9969,330.4800L450.9969,91.8000z"/>
   <path  d="M474.0646,91.8000L474.0646,174.4200L486.3046,174.4200L486.3046,91.8000z"/>
   <path  d="M509.3723,91.8000L509.3723,247.8600L521.6123,247.8600L521.6123,91.8000z"/>
  </g>
  <g style="fill:none; stroke:#000000; stroke-width:  0.9180; stroke-linecap:butt; stroke-linejoin:miter; stroke-dasharray:none">
   <path d="M120.9877,91.8000L120.9877,358.0200L133.2277,358.0200L133.2277,91.8000z"/>
   <path d="M156.2954,91.8000L156.2954,251.3484L168.5354,251.3484L168.5354,91.8000z"/>
   <path d="M191.6031,91.8000L191.6031,198.5634L203.8431,198.5634L203.8431,91.8000z"/>
   <path d="M226.9108,91.8000L226.9108,284.5800L239.1508,284.5800L239.1508,91.8000z"/>
   <path d="M262.2185,91.8000L262.2185,161.8434L274.4585,161.8434L274.4585,91.8000z"/>
   <path d="M297.5262,91.8000L297.5262,214.6284L309.7662,214.6284L309.7662,91.8000z"/>
   <path d="M332.8338,91.8000L332.8338,312.1200L345.0738,312.1200L345.0738,91.8000z"/>
   <path d="M368.1415,91.8000L368.1415,238.6800L380.3815,238.6800L380.3815,91.8000z"/>
   <path d="M403.4492,91.8000L403.4492,165.2400L415.6892,165.2400L415.6892,91.8000z"/>
   <path d="M438.7569,91.8000L438.7569,330.4800L450.9969,330.4800L450.9969,91.8000z"/>
   <path d="M474.0646,91.8000L474.0646,174.4200L486.3046,174.4200L486.3046,91.8000z"/>
   <path d="M509.3723,91.8000L509.3723,247.8600L521.6123,247.8600L521.6123,91.8000z"/>
   <path d="M127.1077,358.0200L127.1077,509.4900"/>
   <path d="M120.9877,509.4900L133.2277,509.4900"/>
   <path d="M127.1077,358.0200L127.1077,206.5500"/>
   <path d="M133.2277,206.5500L120.9877,206.5500"/>
   <path d="M162.4154,251.3484L162.4154,402.8184"/>
   <path d="M156.2954,402.8184L168.5354,402.8184"/>
   <path d="M162.4154,251.3484L162.4154,99.8784"/>
   <path d="M168.5354,99.8784L156.2954,99.8784"/>
   <path d="M197.7231,198.5634L197.7231,350.0334"/>
   <path d="M191.6031,350.0334L203.8431,350.0334"/>
   <path d="M197.7231,198.5634L197.7231,91.7388"/>
   <path d="M233.0308,284.5800L233.0308,436.0500"/>
   <path d="M226.9108,436.0500L239.1508,436.0500"/>
   <path d="M233.0308,284.5800L233.0308,133.1100"/>
   <path d="M239.1508,133.1100L226.9108,133.1100"/>
   <path d="M268.3385,161.8434L268.3385,313.3134"/>
   <path d="M262.2185,313.3134L274.4585,313.3134"/>
   <path d="M268.3385,161.8434L268.3385,91.7388"/>
   <path d="M303.6462,214.6284L303.6462,366.0984"/>
   <path d="M297.5262,366.0984L309.7662,366.0984"/>
   <path d="M303.6462,214.6284L303.6462,91.7388"/>
   <path d="M338.9538,312.1200L338.9538,463.5900"/>
   <path d="M332.8338,463.5900L345.0738,463.5900"/>
   <path d="M338.9538,312.1200L338.9538,160.6500"/>
   <path d="M345.0738,160.6500L332.8338,160.6500"/>
   <path d="M374.2615,238.6800L374.2615,390.1500"/>
   <path d="M368.1415,390.1500L380.3815,390.1500"/>
   <path d="M374.2615,238.6800L374.2615,91.7388"/>
   <path d="M409.5692,165.2400L409.5692,316.7100"/>
   <path d="M403.4492,316.7100L415.6892,316.7100"/>
   <path d="M409.5692,165.2400L409.5692,91.7388"/>
   <path d="M444.8769,330.4800L444.8769,481.9500"/>
   <path d="M438.7569,481.9500L450.9969,481.9500"/>
   <path d="M444.8769,330.4800L444.8769,179.0100"/>
   <path d="M450.9969,179.0100L438.7569,179.0100"/>
   <path d="M480.1846,174.4200L480.1846,325.8900"/>
   <path d="M474.0646,325.8900L486.3046,325.8900"/>
   <path d="M480.1846,174.4200L480.1846,91.7388"/>
   <path d="M515.4923,247.8600L515.4923,399.3300"/>
   <path d="M509.3723,399.3300L521.6123,399.3300"/>
   <path d="M515.4923,247.8600L515.4923,96.3900"/>
   <path d="M521.6123,96.3900L509.3723,96.3900"/>
   <path d="M91.8000,91.8000L104.0400,91.8000"/>
   <path d="M550.8000,91.8000L538.5600,91.8000"/>
   <path d="M91.8000,137.7000L104.0400,137.7000"/>
   <path d="M550.8000,137.7000L538.5600,137.7000"/>
   <path d="M91.8000,183.6000L104.0400,183.6000"/>
   <path d="M550.8000,183.6000L538.5600,183.6000"/>
   <path d="M91.8000,229.5000L104.0400,229.5000"/>
   <path d="M550.8000,229.5000L538.5600,229.5000"/>
   <path d="M91.8000,275.4000L104.0400,275.4000"/>
   <path d="M550.8000,275.4000L538.5600,275.4000"/>
   <path d="M91.8000,321.3000L104.0400,321.3000"/>
   <path d="M550.8000,321.3000L538.5600,321.3000"/>
   <path d="M91.8000,367.2000L104.0400,367.2000"/>
   <path d="M550.8000,367.2000L538.5600,367.2000"/>
   <path d="M91.8000,413.1000L104.0400,413.1000"/>
   <path d="M550.8000,413.1000L538.5600,413.1000"/>
   <path d="M91.8000,459.0000L104.0400,459.0000"/>
   <path d="M550.8000,459.0000L538.5600,459.0000"/>
   <path d="M91.8000,504.9000L104.0400,504.9000"/>
   <path d="M550.8000,504.9000L538.5600,504.9000"/>
   <path d="M91.8000,550.8000L104.0400,550.8000"/>
   <path d="M550.8000,550.8000L538.5600,550.8000"/>
   <path d="M91.8000,91.8000L91.8000,550.8000L550.8000,550.8000L550.8000,91.8000z"/>
  </g>
 </g>
</svg>
