<?xml version="1.0" encoding="ISO-8859-1"?>
<!DOCTYPE svg PUBLIC "-//W3C//DTD SVG 1.0//EN" "http://www.w3.org/TR/2001/REC-SVG-20010904/DTD/svg10.dtd">
<!-- generated by Grace-5.1.25 -->
<svg xml:space="preserve" width="11.0000in" height="8.5000in" viewBox="0.0000 0.0000 792.0000 612.0000">
 <g transform="translate(0,612.0000) scale(1,-1)">
  <g style="fill:#FFFFFF; fill-rule:nonzero">
   <path  d="M0.0000,0.0000L0.0000,612.0000L792.0000,612.0000L792.0000,0.0000z"/>
  </g>
  <g style="fill:#000000; fill-rule:nonzero">
   <path  d="M120.9877,91.8000L120.9877,358.0200L133.2277,358.0200L133.2277,91.8000z"/>
   <path  d="M156.2954,91.8000L156.2954,353.6136L168.5354,353.6136L168.5354,91.8000z"/>
   <path  d="M191.6031,91.8000L191.6031,96.2064L203.8431,96.2064L203.8431,91.8000z"/>
   <path  d="M226.9108,91.8000L226.9108,284.5800L239.1508,284.5800L239.1508,91.8000z"/>
   <path  d="M262.2185,91.8000L262.2185,252.2664L274.4585,252.2664L274.4585,91.8000z"/>
   <path  d="M297.5262,91.8000L297.5262,124.1136L309.7662,124.1136L309.7662,91.8000z"/>
   <path  d="M332.8338,91.8000L332.8338,312.1200L345.0738,312.1200L345.0738,91.8000z"/>
   <path  d="M368.1415,91.8000L368.1415,126.3168L380.3815,126.3168L380.3815,91.8000z"/>
   <path  d="M403.4492,91.8000L403.4492,277.6032L415.6892,277.6032L415.6892,91.8000z"/>
   <path  d="M438.7569,91.8000L438.7569,330.4800L450.9969,330.4800L450.9969,91.8000z"/>
   <path  d="M474.0646,91.8000L474.0646,94.0032L486.3046,94.0032L486.3046,91.8000z"/>
   <path  d="M509.3723,91.8000L509.3723,328.2768L521.6123,328.2768L521.6123,91.8000z"/>
  </g>
  <g style="fill:none; stroke:#000000; stroke-width:  0.9180; stroke-linecap:butt; stroke-linejoin:miter; stroke-dasharray:none">
   <path d="M127.1077,358.0200L127.1077,509.4900"/>
  </g>
  <g style="fill:none; stroke:#000000; stroke-width:  0.4590; stroke-linecap:butt; stroke-linejoin:miter; stroke-dasharray:none">
   <path d="M120.9877,509.4900L133.2277,509.4900"/>
  </g>
  <g style="fill:none; stroke:#000000; stroke-width:  0.9180; stroke-linecap:butt; stroke-linejoin:miter; stroke-dasharray:none">
   <path d="M127.1077,358.0200L127.1077,206.5500"/>
  </g>
  <g style="fill:none; stroke:#000000; stroke-width:  0.4590; stroke-linecap:butt; stroke-linejoin:miter; stroke-dasharray:none">
   <path d="M133.2277,206.5500L120.9877,206.5500"/>
  </g>
  <g style="fill:none; stroke:#000000; stroke-width:  0.9180; stroke-linecap:butt; stroke-linejoin:miter; stroke-dasharray:none">
   <path d="M162.4154,353.6136L162.4154,505.0836"/>
  </g>
  <g style="fill:none; stroke:#000000; stroke-width:  0.4590; stroke-linecap:butt; stroke-linejoin:miter; stroke-dasharray:none">
   <path d="M156.2954,505.0836L168.5354,505.0836"/>
  </g>
  <g style="fill:none; stroke:#000000; stroke-width:  0.9180; stroke-linecap:butt; stroke-linejoin:miter; stroke-dasharray:none">
   <path d="M162.4154,353.6136L162.4154,202.1436"/>
  </g>
  <g style="fill:none; stroke:#000000; stroke-width:  0.4590; stroke-linecap:butt; stroke-linejoin:miter; stroke-dasharray:none">
   <path d="M168.5354,202.1436L156.2954,202.1436"/>
  </g>
  <g style="fill:none; stroke:#000000; stroke-width:  0.9180; stroke-linecap:butt; stroke-linejoin:miter; stroke-dasharray:none">
   <path d="M197.7231,96.2064L197.7231,247.6764"/>
  </g>
  <g style="fill:none; stroke:#000000; stroke-width:  0.4590; stroke-linecap:butt; stroke-linejoin:miter; stroke-dasharray:none">
   <path d="M191.6031,247.6764L203.8431,247.6764"/>
  </g>
  <g style="fill:none; stroke:#000000; stroke-width:  0.9180; stroke-linecap:butt; stroke-linejoin:miter; stroke-dasharray:none">
   <path d="M197.7231,96.2064L197.7231,91.7388"/>
   <path d="M233.0308,284.5800L233.0308,436.0500"/>
  </g>
  <g style="fill:none; stroke:#000000; stroke-width:  0.4590; stroke-linecap:butt; stroke-linejoin:miter; stroke-dasharray:none">
   <path d="M226.9108,436.0500L239.1508,436.0500"/>
  </g>
  <g style="fill:none; stroke:#000000; stroke-width:  0.9180; stroke-linecap:butt; stroke-linejoin:miter; stroke-dasharray:none">
   <path d="M233.0308,284.5800L233.0308,133.1100"/>
  </g>
  <g style="fill:none; stroke:#000000; stroke-width:  0.4590; stroke-linecap:butt; stroke-linejoin:miter; stroke-dasharray:none">
   <path d="M239.1508,133.1100L226.9108,133.1100"/>
  </g>
  <g style="fill:none; stroke:#000000; stroke-width:  0.9180; stroke-linecap:butt; stroke-linejoin:miter; stroke-dasharray:none">
   <path d="M268.3385,252.2664L268.3385,403.7364"/>
  </g>
  <g style="fill:none; stroke:#000000; stroke-width:  0.4590; stroke-linecap:butt; stroke-linejoin:miter; stroke-dasharray:none">
   <path d="M262.2185,403.7364L274.4585,403.7364"/>
  </g>
  <g style="fill:none; stroke:#000000; stroke-width:  0.9180; stroke-linecap:butt; stroke-linejoin:miter; stroke-dasharray:none">
   <path d="M268.3385,252.2664L268.3385,100.7964"/>
  </g>
  <g style="fill:none; stroke:#000000; stroke-width:  0.4590; stroke-linecap:butt; stroke-linejoin:miter; stroke-dasharray:none">
   <path d="M274.4585,100.7964L262.2185,100.7964"/>
  </g>
  <g style="fill:none; stroke:#000000; stroke-width:  0.9180; stroke-linecap:butt; stroke-linejoin:miter; stroke-dasharray:none">
   <path d="M303.6462,124.1136L303.6462,275.5836"/>
  </g>
  <g style="fill:none; stroke:#000000; stroke-width:  0.4590; stroke-linecap:butt; stroke-linejoin:miter; stroke-dasharray:none">
   <path d="M297.5262,275.5836L309.7662,275.5836"/>
  </g>
  <g style="fill:none; stroke:#000000; stroke-width:  0.9180; stroke-linecap:butt; stroke-linejoin:miter; stroke-dasharray:none">
   <path d="M303.6462,124.1136L303.6462,91.7388"/>
   <path d="M338.9538,312.1200L338.9538,463.5900"/>
  </g>
  <g style="fill:none; stroke:#000000; stroke-width:  0.4590; stroke-linecap:butt; stroke-linejoin:miter; stroke-dasharray:none">
   <path d="M332.8338,463.5900L345.0738,463.5900"/>
  </g>
  <g style="fill:none; stroke:#000000; stroke-width:  0.9180; stroke-linecap:butt; stroke-linejoin:miter; stroke-dasharray:none">
   <path d="M338.9538,312.1200L338.9538,160.6500"/>
  </g>
  <g style="fill:none; stroke:#000000; stroke-width:  0.4590; stroke-linecap:butt; stroke-linejoin:miter; stroke-dasharray:none">
   <path d="M345.0738,160.6500L332.8338,160.6500"/>
  </g>
  <g style="fill:none; stroke:#000000; stroke-width:  0.9180; stroke-linecap:butt; stroke-linejoin:miter; stroke-dasharray:none">
   <path d="M374.2615,126.3168L374.2615,277.7868"/>
  </g>
  <g style="fill:none; stroke:#000000; stroke-width:  0.4590; stroke-linecap:butt; stroke-linejoin:miter; stroke-dasharray:none">
   <path d="M368.1415,277.7868L380.3815,277.7868"/>
  </g>
  <g style="fill:none; stroke:#000000; stroke-width:  0.9180; stroke-linecap:butt; stroke-linejoin:miter; stroke-dasharray:none">
   <path d="M374.2615,126.3168L374.2615,91.7388"/>
   <path d="M409.5692,277.6032L409.5692,429.0732"/>
  </g>
  <g style="fill:none; stroke:#000000; stroke-width:  0.4590; stroke-linecap:butt; stroke-linejoin:miter; stroke-dasharray:none">
   <path d="M403.4492,429.0732L415.6892,429.0732"/>
  </g>
  <g style="fill:none; stroke:#000000; stroke-width:  0.9180; stroke-linecap:butt; stroke-linejoin:miter; stroke-dasharray:none">
   <path d="M409.5692,277.6032L409.5692,126.1332"/>
  </g>
  <g style="fill:none; stroke:#000000; stroke-width:  0.4590; stroke-linecap:butt; stroke-linejoin:miter; stroke-dasharray:none">
   <path d="M415.6892,126.1332L403.4492,126.1332"/>
  </g>
  <g style="fill:none; stroke:#000000; stroke-width:  0.9180; stroke-linecap:butt; stroke-linejoin:miter; stroke-dasharray:none">
   <path d="M444.8769,330.4800L444.8769,481.9500"/>
  </g>
  <g style="fill:none; stroke:#000000; stroke-width:  0.4590; stroke-linecap:butt; stroke-linejoin:miter; stroke-dasharray:none">
   <path d="M438.7569,481.9500L450.9969,481.9500"/>
  </g>
  <g style="fill:none; stroke:#000000; stroke-width:  0.9180; stroke-linecap:butt; stroke-linejoin:miter; stroke-dasharray:none">
   <path d="M444.8769,330.4800L444.8769,179.0100"/>
  </g>
  <g style="fill:none; stroke:#000000; stroke-width:  0.4590; stroke-linecap:butt; stroke-linejoin:miter; stroke-dasharray:none">
   <path d="M450.9969,179.0100L438.7569,179.0100"/>
  </g>
  <g style="fill:none; stroke:#000000; stroke-width:  0.9180; stroke-linecap:butt; stroke-linejoin:miter; stroke-dasharray:none">
   <path d="M480.1846,94.0032L480.1846,245.4732"/>
  </g>
  <g style="fill:none; stroke:#000000; stroke-width:  0.4590; stroke-linecap:butt; stroke-linejoin:miter; stroke-dasharray:none">
   <path d="M474.0646,245.4732L486.3046,245.4732"/>
  </g>
  <g style="fill:none; stroke:#000000; stroke-width:  0.9180; stroke-linecap:butt; stroke-linejoin:miter; stroke-dasharray:none">
   <path d="M480.1846,94.0032L480.1846,91.7388"/>
   <path d="M515.4923,328.2768L515.4923,479.7468"/>
  </g>
  <g style="fill:none; stroke:#000000; stroke-width:  0.4590; stroke-linecap:butt; stroke-linejoin:miter; stroke-dasharray:none">
   <path d="M509.3723,479.7468L521.6123,479.7468"/>
  </g>
  <g style="fill:none; stroke:#000000; stroke-width:  0.9180; stroke-linecap:butt; stroke-linejoin:miter; stroke-dasharray:none">
   <path d="M515.4923,328.2768L515.4923,176.8068"/>
  </g>
  <g style="fill:none; stroke:#000000; stroke-width:  0.4590; stroke-linecap:butt; stroke-linejoin:miter; stroke-dasharray:none">
   <path d="M521.6123,176.8068L509.3723,176.8068"/>
  </g>
  <g style="fill:none; stroke:#000000; stroke-width:  0.9180; stroke-linecap:butt; stroke-linejoin:miter; stroke-dasharray:none">
   <path d="M91.8000,91.8000L104.0400,91.8000"/>
   <path d="M550.8000,91.8000L538.5600,91.8000"/>
   <path d="M91.8000,137.7000L104.0400,137.7000"/>
   <path d="M550.8000,137.7000L538.5600,137.7000"/>
   <path d="M91.8000,183.6000L104.0400,183.6000"/>
   <path d="M550.8000,183.6000L538.5600,183.6000"/>
   <path d="M91.8000,229.5000L104.0400,229.5000"/>
   <path d="M550.8000,229.5000L538.5600,229.5000"/>
   <path d="M91.8000,275.4000L104.0400,275.4000"/>
   <path d="M550.8000,275.4000L538.5600,275.4000"/>
   <path d="M91.8000,321.3000L104.0400,321.3000"/>
   <path d="M550.8000,321.3000L538.5600,321.3000"/>
   <path d="M91.8000,367.2000L104.0400,367.2000"/>
   <path d="M550.8000,367.2000L538.5600,367.2000"/>
   <path d="M91.8000,413.1000L104.0400,413.1000"/>
   <path d="M550.8000,413.1000L538.5600,413.1000"/>
   <path d="M91.8000,459.0000L104.0400,459.0000"/>
   <path d="M550.8000,459.0000L538.5600,459.0000"/>
   <path d="M91.8000,504.9000L104.0400,504.9000"/>
   <path d="M550.8000,504.9000L538.5600,504.9000"/>
   <path d="M91.8000,550.8000L104.0400,550.8000"/>
   <path d="M550.8000,550.8000L538.5600,550.8000"/>
   <path d="M91.8000,91.8000L91.8000,550.8000L550.8000,550.8000L550.8000,91.8000z"/>
  </g>
 </g>
</svg>
