<?xml version="1.0" encoding="ISO-8859-1"?>
<!DOCTYPE svg PUBLIC "-//W3C//DTD SVG 1.0//EN" "http://www.w3.org/TR/2001/REC-SVG-20010904/DTD/svg10.dtd">
<!-- generated by Grace-5.1.25 -->
<svg xml:space="preserve" width="11.0000in" height="8.5000in" viewBox="0.0000 0.0000 792.0000 612.0000">
 <g transform="translate(0,612.0000) scale(1,-1)">
  <g style="fill:#FFFFFF; fill-rule:nonzero">
   <path  d="M0.0000,0.0000L0.0000,612.0000L792.0000,612.0000L792.0000,0.0000z"/>
  </g>
  <g style="fill:#000000; fill-rule:nonzero">
   <path  d="M120.9877,91.8000L120.9877,321.3000L133.2277,321.3000L133.2277,91.8000z"/>
   <path  d="M156.2954,91.8000L156.2954,319.8312L168.5354,319.8312L168.5354,91.8000z"/>
   <path  d="M191.6031,91.8000L191.6031,93.2688L203.8431,93.2688L203.8431,91.8000z"/>
   <path  d="M226.9108,91.8000L226.9108,321.3000L239.1508,321.3000L239.1508,91.8000z"/>
   <path  d="M262.2185,91.8000L262.2185,286.0488L274.4585,286.0488L274.4585,91.8000z"/>
   <path  d="M297.5262,91.8000L297.5262,127.0512L309.7662,127.0512L309.7662,91.8000z"/>
   <path  d="M332.8338,91.8000L332.8338,321.3000L345.0738,321.3000L345.0738,91.8000z"/>
   <path  d="M368.1415,91.8000L368.1415,110.1600L380.3815,110.1600L380.3815,91.8000z"/>
   <path  d="M403.4492,91.8000L403.4492,302.9400L415.6892,302.9400L415.6892,91.8000z"/>
   <path  d="M438.7569,91.8000L438.7569,321.3000L450.9969,321.3000L450.9969,91.8000z"/>
   <path  d="M474.0646,91.8000L474.0646,110.1600L486.3046,110.1600L486.3046,91.8000z"/>
   <path  d="M509.3723,91.8000L509.3723,302.9400L521.6123,302.9400L521.6123,91.8000z"/>
  </g>
  <g style="fill:none; stroke:#000000; stroke-width:  0.9180; stroke-linecap:butt; stroke-linejoin:miter; stroke-dasharray:none">
   <path d="M120.9877,91.8000L120.9877,321.3000L133.2277,321.3000L133.2277,91.8000z"/>
   <path d="M156.2954,91.8000L156.2954,319.8312L168.5354,319.8312L168.5354,91.8000z"/>
   <path d="M191.6031,91.8000L191.6031,93.2688L203.8431,93.2688L203.8431,91.8000z"/>
   <path d="M226.9108,91.8000L226.9108,321.3000L239.1508,321.3000L239.1508,91.8000z"/>
   <path d="M262.2185,91.8000L262.2185,286.0488L274.4585,286.0488L274.4585,91.8000z"/>
   <path d="M297.5262,91.8000L297.5262,127.0512L309.7662,127.0512L309.7662,91.8000z"/>
   <path d="M332.8338,91.8000L332.8338,321.3000L345.0738,321.3000L345.0738,91.8000z"/>
   <path d="M368.1415,91.8000L368.1415,110.1600L380.3815,110.1600L380.3815,91.8000z"/>
   <path d="M403.4492,91.8000L403.4492,302.9400L415.6892,302.9400L415.6892,91.8000z"/>
   <path d="M438.7569,91.8000L438.7569,321.3000L450.9969,321.3000L450.9969,91.8000z"/>
   <path d="M474.0646,91.8000L474.0646,110.1600L486.3046,110.1600L486.3046,91.8000z"/>
   <path d="M509.3723,91.8000L509.3723,302.9400L521.6123,302.9400L521.6123,91.8000z"/>
   <path d="M127.1077,321.3000L127.1077,472.7700"/>
   <path d="M120.9877,472.7700L133.2277,472.7700"/>
   <path d="M127.1077,321.3000L127.1077,169.8300"/>
   <path d="M133.2277,169.8300L120.9877,169.8300"/>
   <path d="M162.4154,319.8312L162.4154,471.3012"/>
   <path d="M156.2954,471.3012L168.5354,471.3012"/>
   <path d="M162.4154,319.8312L162.4154,168.3612"/>
   <path d="M168.5354,168.3612L156.2954,168.3612"/>
   <path d="M197.7231,93.2688L197.7231,244.7388"/>
   <path d="M191.6031,244.7388L203.8431,244.7388"/>
   <path d="M197.7231,93.2688L197.7231,91.7388"/>
   <path d="M233.0308,321.3000L233.0308,472.7700"/>
   <path d="M226.9108,472.7700L239.1508,472.7700"/>
   <path d="M233.0308,321.3000L233.0308,169.8300"/>
   <path d="M239.1508,169.8300L226.9108,169.8300"/>
   <path d="M268.3385,286.0488L268.3385,437.5188"/>
   <path d="M262.2185,437.5188L274.4585,437.5188"/>
   <path d="M268.3385,286.0488L268.3385,134.5788"/>
   <path d="M274.4585,134.5788L262.2185,134.5788"/>
   <path d="M303.6462,127.0512L303.6462,278.5212"/>
   <path d="M297.5262,278.5212L309.7662,278.5212"/>
   <path d="M303.6462,127.0512L303.6462,91.7388"/>
   <path d="M338.9538,321.3000L338.9538,472.7700"/>
   <path d="M332.8338,472.7700L345.0738,472.7700"/>
   <path d="M338.9538,321.3000L338.9538,169.8300"/>
   <path d="M345.0738,169.8300L332.8338,169.8300"/>
   <path d="M374.2615,110.1600L374.2615,261.6300"/>
   <path d="M368.1415,261.6300L380.3815,261.6300"/>
   <path d="M374.2615,110.1600L374.2615,91.7388"/>
   <path d="M409.5692,302.9400L409.5692,454.4100"/>
   <path d="M403.4492,454.4100L415.6892,454.4100"/>
   <path d="M409.5692,302.9400L409.5692,151.4700"/>
   <path d="M415.6892,151.4700L403.4492,151.4700"/>
   <path d="M444.8769,321.3000L444.8769,472.7700"/>
   <path d="M438.7569,472.7700L450.9969,472.7700"/>
   <path d="M444.8769,321.3000L444.8769,169.8300"/>
   <path d="M450.9969,169.8300L438.7569,169.8300"/>
   <path d="M480.1846,110.1600L480.1846,261.6300"/>
   <path d="M474.0646,261.6300L486.3046,261.6300"/>
   <path d="M480.1846,110.1600L480.1846,91.7388"/>
   <path d="M515.4923,302.9400L515.4923,454.4100"/>
   <path d="M509.3723,454.4100L521.6123,454.4100"/>
   <path d="M515.4923,302.9400L515.4923,151.4700"/>
   <path d="M521.6123,151.4700L509.3723,151.4700"/>
   <path d="M91.8000,91.8000L104.0400,91.8000"/>
   <path d="M550.8000,91.8000L538.5600,91.8000"/>
   <path d="M91.8000,137.7000L104.0400,137.7000"/>
   <path d="M550.8000,137.7000L538.5600,137.7000"/>
   <path d="M91.8000,183.6000L104.0400,183.6000"/>
   <path d="M550.8000,183.6000L538.5600,183.6000"/>
   <path d="M91.8000,229.5000L104.0400,229.5000"/>
   <path d="M550.8000,229.5000L538.5600,229.5000"/>
   <path d="M91.8000,275.4000L104.0400,275.4000"/>
   <path d="M550.8000,275.4000L538.5600,275.4000"/>
   <path d="M91.8000,321.3000L104.0400,321.3000"/>
   <path d="M550.8000,321.3000L538.5600,321.3000"/>
   <path d="M91.8000,367.2000L104.0400,367.2000"/>
   <path d="M550.8000,367.2000L538.5600,367.2000"/>
   <path d="M91.8000,413.1000L104.0400,413.1000"/>
   <path d="M550.8000,413.1000L538.5600,413.1000"/>
   <path d="M91.8000,459.0000L104.0400,459.0000"/>
   <path d="M550.8000,459.0000L538.5600,459.0000"/>
   <path d="M91.8000,504.9000L104.0400,504.9000"/>
   <path d="M550.8000,504.9000L538.5600,504.9000"/>
   <path d="M91.8000,550.8000L104.0400,550.8000"/>
   <path d="M550.8000,550.8000L538.5600,550.8000"/>
   <path d="M91.8000,91.8000L91.8000,550.8000L550.8000,550.8000L550.8000,91.8000z"/>
  </g>
 </g>
</svg>
