<?xml version="1.0" encoding="ISO-8859-1"?>
<!DOCTYPE svg PUBLIC "-//W3C//DTD SVG 1.0//EN" "http://www.w3.org/TR/2001/REC-SVG-20010904/DTD/svg10.dtd">
<!-- generated by Grace-5.1.25 -->
<svg xml:space="preserve" width="11.0000in" height="8.5000in" viewBox="0.0000 0.0000 792.0000 612.0000">
 <g transform="translate(0,612.0000) scale(1,-1)">
  <g style="fill:#FFFFFF; fill-rule:nonzero">
   <path  d="M0.0000,0.0000L0.0000,612.0000L792.0000,612.0000L792.0000,0.0000z"/>
  </g>
  <g style="fill:none; stroke:#000000; stroke-width:  0.9180; stroke-linecap:butt; stroke-linejoin:miter; stroke-dasharray:none">
   <path d="M123.9300,91.8000L123.9300,91.8000L136.1700,91.8000L136.1700,91.8000z"/>
   <path d="M162.1800,91.8000L162.1800,128.5200L174.4200,128.5200L174.4200,91.8000z"/>
   <path d="M200.4300,91.8000L200.4300,446.7600L212.6700,446.7600L212.6700,91.8000z"/>
   <path d="M238.6800,91.8000L238.6800,183.6000L250.9200,183.6000L250.9200,91.8000z"/>
   <path d="M276.9300,91.8000L276.9300,134.6400L289.1700,134.6400L289.1700,91.8000z"/>
   <path d="M315.1800,91.8000L315.1800,97.9200L327.4200,97.9200L327.4200,91.8000z"/>
   <path d="M353.4300,91.8000L353.4300,110.1600L365.6700,110.1600L365.6700,91.8000z"/>
   <path d="M391.6800,91.8000L391.6800,122.4000L403.9200,122.4000L403.9200,91.8000z"/>
   <path d="M429.9300,91.8000L429.9300,110.1600L442.1700,110.1600L442.1700,91.8000z"/>
   <path d="M468.1800,91.8000L468.1800,91.8000L480.4200,91.8000L480.4200,91.8000z"/>
   <path d="M506.4300,91.8000L506.4300,97.9200L518.6700,97.9200L518.6700,91.8000z"/>
   <path d="M544.6800,91.8000L544.6800,91.8000L556.9200,91.8000L556.9200,91.8000z"/>
   <path d="M582.9300,91.8000L582.9300,91.8000L595.1700,91.8000L595.1700,91.8000z"/>
   <path d="M621.1800,91.8000L621.1800,97.9200L633.4200,97.9200L633.4200,91.8000z"/>
   <path d="M659.4300,91.8000L659.4300,97.9200L671.6700,97.9200L671.6700,91.8000z"/>
   <path d="M697.6800,91.8000L697.6800,91.8000L703.8612,91.8000"/>
   <path d="M703.8612,91.8000L697.6800,91.8000"/>
   <path d="M91.8000,91.8000L703.8000,91.8000"/>
   <path d="M91.8000,520.2000L703.8000,520.2000"/>
   <path d="M91.8000,91.8000L91.8000,104.0400"/>
   <path d="M91.8000,520.2000L91.8000,507.9600"/>
   <path d="M214.2000,91.8000L214.2000,104.0400"/>
   <path d="M214.2000,520.2000L214.2000,507.9600"/>
   <path d="M336.6000,91.8000L336.6000,104.0400"/>
   <path d="M336.6000,520.2000L336.6000,507.9600"/>
   <path d="M459.0000,91.8000L459.0000,104.0400"/>
   <path d="M459.0000,520.2000L459.0000,507.9600"/>
   <path d="M581.4000,91.8000L581.4000,104.0400"/>
   <path d="M581.4000,520.2000L581.4000,507.9600"/>
   <path d="M703.8000,91.8000L703.8000,104.0400"/>
   <path d="M703.8000,520.2000L703.8000,507.9600"/>
  </g>
  <g style="fill:#000000; fill-rule:nonzero">
   <text   style="font-family:'Times','Nimbus Roman'; font-style:normal; font-weight:normal; font-size:612.0000" transform="matrix(0.0280,0.0000,-0.0000,-0.0280,87.8000,73.6800)">0</text>
   <text   style="font-family:'Times','Nimbus Roman'; font-style:normal; font-weight:normal; font-size:612.0000" transform="matrix(0.0280,0.0000,-0.0000,-0.0280,210.7000,73.6800)">1</text>
   <text   style="font-family:'Times','Nimbus Roman'; font-style:normal; font-weight:normal; font-size:612.0000" transform="matrix(0.0280,0.0000,-0.0000,-0.0280,332.1000,73.6800)">2</text>
   <text   style="font-family:'Times','Nimbus Roman'; font-style:normal; font-weight:normal; font-size:612.0000" transform="matrix(0.0280,0.0000,-0.0000,-0.0280,455.0000,73.6800)">3</text>
   <text   style="font-family:'Times','Nimbus Roman'; font-style:normal; font-weight:normal; font-size:612.0000" transform="matrix(0.0280,0.0000,-0.0000,-0.0280,577.4000,73.6800)">4</text>
   <text   style="font-family:'Times','Nimbus Roman'; font-style:normal; font-weight:normal; font-size:612.0000" transform="matrix(0.0280,0.0000,-0.0000,-0.0280,699.8000,73.6800)">5</text>
  </g>
  <g style="fill:none; stroke:#000000; stroke-width:  0.9180; stroke-linecap:butt; stroke-linejoin:miter; stroke-dasharray:none">
   <path d="M91.8000,91.8000L91.8000,520.2000"/>
   <path d="M703.8000,91.8000L703.8000,520.2000"/>
   <path d="M91.8000,91.8000L104.0400,91.8000"/>
   <path d="M703.8000,91.8000L691.5600,91.8000"/>
   <path d="M91.8000,306.0000L104.0400,306.0000"/>
   <path d="M703.8000,306.0000L691.5600,306.0000"/>
   <path d="M91.8000,520.2000L104.0400,520.2000"/>
   <path d="M703.8000,520.2000L691.5600,520.2000"/>
  </g>
  <g style="fill:#000000; fill-rule:nonzero">
   <text   style="font-family:'Times','Nimbus Roman'; font-style:normal; font-weight:normal; font-size:612.0000" transform="matrix(0.0280,0.0000,-0.0000,-0.0280,77.6800,85.8000)">0</text>
   <text   style="font-family:'Times','Nimbus Roman'; font-style:normal; font-weight:normal; font-size:612.0000" transform="matrix(0.0280,0.0000,-0.0000,-0.0280,69.6800,300.0000)">35</text>
   <text   style="font-family:'Times','Nimbus Roman'; font-style:normal; font-weight:normal; font-size:612.0000" transform="matrix(0.0280,0.0000,-0.0000,-0.0280,68.6800,514.2000)">70</text>
  </g>
  <g style="fill:none; stroke:#000000; stroke-width:  0.9180; stroke-linecap:butt; stroke-linejoin:miter; stroke-dasharray:none">
   <path d="M91.8000,91.8000L91.8000,520.2000L703.8000,520.2000L703.8000,91.8000z"/>
  </g>
 </g>
</svg>
