<?xml version="1.0" encoding="ISO-8859-1"?>
<!DOCTYPE svg PUBLIC "-//W3C//DTD SVG 1.0//EN" "http://www.w3.org/TR/2001/REC-SVG-20010904/DTD/svg10.dtd">
<!-- generated by Grace-5.1.25 -->
<svg xml:space="preserve" width="11.0000in" height="8.5000in" viewBox="0.0000 0.0000 792.0000 612.0000">
 <g transform="translate(0,612.0000) scale(1,-1)">
  <g style="fill:#FFFFFF; fill-rule:nonzero">
   <path  d="M0.0000,0.0000L0.0000,612.0000L792.0000,612.0000L792.0000,0.0000z"/>
  </g>
  <g style="fill:none; stroke:#000000; stroke-width:  0.9180; stroke-linecap:butt; stroke-linejoin:miter; stroke-dasharray:none">
   <path d="M116.2800,91.8000L116.2800,391.6800L128.5200,391.6800L128.5200,91.8000z"/>
   <path d="M146.8800,91.8000L146.8800,298.8600L159.1200,298.8600L159.1200,91.8000z"/>
   <path d="M177.4800,91.8000L177.4800,163.2000L189.7200,163.2000L189.7200,91.8000z"/>
   <path d="M208.0800,91.8000L208.0800,106.0800L220.3200,106.0800L220.3200,91.8000z"/>
   <path d="M238.6800,91.8000L238.6800,98.9400L250.9200,98.9400L250.9200,91.8000z"/>
   <path d="M269.2800,91.8000L269.2800,98.9400L281.5200,98.9400L281.5200,91.8000z"/>
   <path d="M299.8800,91.8000L299.8800,91.8000L312.1200,91.8000L312.1200,91.8000z"/>
   <path d="M330.4800,91.8000L330.4800,91.8000L342.7200,91.8000L342.7200,91.8000z"/>
   <path d="M361.0800,91.8000L361.0800,113.2200L373.3200,113.2200L373.3200,91.8000z"/>
   <path d="M391.6800,91.8000L391.6800,127.5000L403.9200,127.5000L403.9200,91.8000z"/>
   <path d="M422.2800,91.8000L422.2800,141.7800L434.5200,141.7800L434.5200,91.8000z"/>
   <path d="M452.8800,91.8000L452.8800,120.3600L465.1200,120.3600L465.1200,91.8000z"/>
   <path d="M483.4800,91.8000L483.4800,127.5000L495.7200,127.5000L495.7200,91.8000z"/>
   <path d="M514.0800,91.8000L514.0800,98.9400L526.3200,98.9400L526.3200,91.8000z"/>
   <path d="M544.6800,91.8000L544.6800,98.9400L556.9200,98.9400L556.9200,91.8000z"/>
   <path d="M575.2800,91.8000L575.2800,98.9400L587.5200,98.9400L587.5200,91.8000z"/>
   <path d="M91.8000,91.8000L703.8000,91.8000"/>
   <path d="M91.8000,520.2000L703.8000,520.2000"/>
   <path d="M115.3385,91.8000L115.3385,104.0400"/>
   <path d="M115.3385,520.2000L115.3385,507.9600"/>
   <path d="M409.5692,91.8000L409.5692,104.0400"/>
   <path d="M409.5692,520.2000L409.5692,507.9600"/>
   <path d="M703.8000,91.8000L703.8000,104.0400"/>
   <path d="M703.8000,520.2000L703.8000,507.9600"/>
  </g>
  <g style="fill:#000000; fill-rule:nonzero">
   <text   style="font-family:'Times','Nimbus Roman'; font-style:normal; font-weight:normal; font-size:612.0000" transform="matrix(0.0280,0.0000,-0.0000,-0.0280,111.3385,73.6800)">0</text>
   <text   style="font-family:'Times','Nimbus Roman'; font-style:normal; font-weight:normal; font-size:612.0000" transform="matrix(0.0280,0.0000,-0.0000,-0.0280,401.5692,73.6800)">25</text>
   <text   style="font-family:'Times','Nimbus Roman'; font-style:normal; font-weight:normal; font-size:612.0000" transform="matrix(0.0280,0.0000,-0.0000,-0.0280,695.3000,73.6800)">50</text>
  </g>
  <g style="fill:none; stroke:#000000; stroke-width:  0.9180; stroke-linecap:butt; stroke-linejoin:miter; stroke-dasharray:none">
   <path d="M91.8000,91.8000L91.8000,520.2000"/>
   <path d="M703.8000,91.8000L703.8000,520.2000"/>
   <path d="M91.8000,91.8000L104.0400,91.8000"/>
   <path d="M703.8000,91.8000L691.5600,91.8000"/>
   <path d="M91.8000,306.0000L104.0400,306.0000"/>
   <path d="M703.8000,306.0000L691.5600,306.0000"/>
   <path d="M91.8000,520.2000L104.0400,520.2000"/>
   <path d="M703.8000,520.2000L691.5600,520.2000"/>
  </g>
  <g style="fill:#000000; fill-rule:nonzero">
   <text   style="font-family:'Times','Nimbus Roman'; font-style:normal; font-weight:normal; font-size:612.0000" transform="matrix(0.0280,0.0000,-0.0000,-0.0280,77.6800,85.8000)">0</text>
   <text   style="font-family:'Times','Nimbus Roman'; font-style:normal; font-weight:normal; font-size:612.0000" transform="matrix(0.0280,0.0000,-0.0000,-0.0280,68.6800,300.0000)">30</text>
   <text   style="font-family:'Times','Nimbus Roman'; font-style:normal; font-weight:normal; font-size:612.0000" transform="matrix(0.0280,0.0000,-0.0000,-0.0280,68.6800,514.2000)">60</text>
  </g>
  <g style="fill:none; stroke:#000000; stroke-width:  0.9180; stroke-linecap:butt; stroke-linejoin:miter; stroke-dasharray:none">
   <path d="M91.8000,91.8000L91.8000,520.2000L703.8000,520.2000L703.8000,91.8000z"/>
  </g>
 </g>
</svg>
