<?xml version="1.0" encoding="ISO-8859-1"?>
<!DOCTYPE svg PUBLIC "-//W3C//DTD SVG 1.0//EN" "http://www.w3.org/TR/2001/REC-SVG-20010904/DTD/svg10.dtd">
<!-- generated by Grace-5.1.25 -->
<svg xml:space="preserve" width="11.0000in" height="8.5000in" viewBox="0.0000 0.0000 792.0000 612.0000">
 <g transform="translate(0,612.0000) scale(1,-1)">
  <g style="fill:#FFFFFF; fill-rule:nonzero">
   <path  d="M0.0000,0.0000L0.0000,612.0000L792.0000,612.0000L792.0000,0.0000z"/>
  </g>
  <g style="fill:none; stroke:#000000; stroke-width:  0.9180; stroke-linecap:butt; stroke-linejoin:miter; stroke-dasharray:none">
   <path d="M114.1841,91.8000L114.1841,408.8160L126.4241,408.8160L126.4241,91.8000z"/>
   <path d="M151.0718,91.8000L151.0718,314.5680L163.3118,314.5680L163.3118,91.8000z"/>
   <path d="M187.9595,91.8000L187.9595,117.5040L200.1995,117.5040L200.1995,91.8000z"/>
   <path d="M224.8471,91.8000L224.8471,100.3680L237.0871,100.3680L237.0871,91.8000z"/>
   <path d="M261.7348,91.8000L261.7348,100.3680L273.9748,100.3680L273.9748,91.8000z"/>
   <path d="M298.6225,91.8000L298.6225,151.7760L310.8625,151.7760L310.8625,91.8000z"/>
   <path d="M335.5101,91.8000L335.5101,237.4560L347.7501,237.4560L347.7501,91.8000z"/>
   <path d="M372.3978,91.8000L372.3978,186.0480L384.6378,186.0480L384.6378,91.8000z"/>
   <path d="M409.2855,91.8000L409.2855,134.6400L421.5255,134.6400L421.5255,91.8000z"/>
   <path d="M446.1732,91.8000L446.1732,100.3680L458.4132,100.3680L458.4132,91.8000z"/>
   <path d="M483.0608,91.8000L483.0608,100.3680L495.3008,100.3680L495.3008,91.8000z"/>
   <path d="M519.9485,91.8000L519.9485,91.8000L532.1885,91.8000L532.1885,91.8000z"/>
   <path d="M556.8362,91.8000L556.8362,100.3680L569.0762,100.3680L569.0762,91.8000z"/>
   <path d="M593.7238,91.8000L593.7238,91.8000L605.9638,91.8000L605.9638,91.8000z"/>
   <path d="M630.6115,91.8000L630.6115,91.8000L642.8515,91.8000L642.8515,91.8000z"/>
   <path d="M667.4992,91.8000L667.4992,100.3680L679.7392,100.3680L679.7392,91.8000z"/>
   <path d="M91.8000,91.8000L703.8000,91.8000"/>
   <path d="M91.8000,520.2000L703.8000,520.2000"/>
   <path d="M116.9507,91.8000L116.9507,104.0400"/>
   <path d="M116.9507,520.2000L116.9507,507.9600"/>
   <path d="M200.7863,91.8000L200.7863,104.0400"/>
   <path d="M200.7863,520.2000L200.7863,507.9600"/>
   <path d="M284.6219,91.8000L284.6219,104.0400"/>
   <path d="M284.6219,520.2000L284.6219,507.9600"/>
   <path d="M368.4575,91.8000L368.4575,104.0400"/>
   <path d="M368.4575,520.2000L368.4575,507.9600"/>
   <path d="M452.2932,91.8000L452.2932,104.0400"/>
   <path d="M452.2932,520.2000L452.2932,507.9600"/>
   <path d="M536.1288,91.8000L536.1288,104.0400"/>
   <path d="M536.1288,520.2000L536.1288,507.9600"/>
   <path d="M619.9644,91.8000L619.9644,104.0400"/>
   <path d="M619.9644,520.2000L619.9644,507.9600"/>
   <path d="M703.8000,91.8000L703.8000,104.0400"/>
   <path d="M703.8000,520.2000L703.8000,507.9600"/>
  </g>
  <g style="fill:#000000; fill-rule:nonzero">
   <text   style="font-family:'Times','Nimbus Roman'; font-style:normal; font-weight:normal; font-size:612.0000" transform="matrix(0.0280,0.0000,-0.0000,-0.0280,112.9507,73.6800)">0</text>
   <text   style="font-family:'Times','Nimbus Roman'; font-style:normal; font-weight:normal; font-size:612.0000" transform="matrix(0.0280,0.0000,-0.0000,-0.0280,192.2863,73.6800)">10</text>
   <text   style="font-family:'Times','Nimbus Roman'; font-style:normal; font-weight:normal; font-size:612.0000" transform="matrix(0.0280,0.0000,-0.0000,-0.0280,276.1219,73.6800)">20</text>
   <text   style="font-family:'Times','Nimbus Roman'; font-style:normal; font-weight:normal; font-size:612.0000" transform="matrix(0.0280,0.0000,-0.0000,-0.0280,359.9575,73.6800)">30</text>
   <text   style="font-family:'Times','Nimbus Roman'; font-style:normal; font-weight:normal; font-size:612.0000" transform="matrix(0.0280,0.0000,-0.0000,-0.0280,443.7932,73.6800)">40</text>
   <text   style="font-family:'Times','Nimbus Roman'; font-style:normal; font-weight:normal; font-size:612.0000" transform="matrix(0.0280,0.0000,-0.0000,-0.0280,527.6288,73.6800)">50</text>
   <text   style="font-family:'Times','Nimbus Roman'; font-style:normal; font-weight:normal; font-size:612.0000" transform="matrix(0.0280,0.0000,-0.0000,-0.0280,611.4644,73.6800)">60</text>
   <text   style="font-family:'Times','Nimbus Roman'; font-style:normal; font-weight:normal; font-size:612.0000" transform="matrix(0.0280,0.0000,-0.0000,-0.0280,695.3000,73.6800)">70</text>
  </g>
  <g style="fill:none; stroke:#000000; stroke-width:  0.9180; stroke-linecap:butt; stroke-linejoin:miter; stroke-dasharray:none">
   <path d="M91.8000,91.8000L91.8000,520.2000"/>
   <path d="M703.8000,91.8000L703.8000,520.2000"/>
   <path d="M91.8000,91.8000L104.0400,91.8000"/>
   <path d="M703.8000,91.8000L691.5600,91.8000"/>
   <path d="M91.8000,306.0000L104.0400,306.0000"/>
   <path d="M703.8000,306.0000L691.5600,306.0000"/>
   <path d="M91.8000,520.2000L104.0400,520.2000"/>
   <path d="M703.8000,520.2000L691.5600,520.2000"/>
  </g>
  <g style="fill:#000000; fill-rule:nonzero">
   <text   style="font-family:'Times','Nimbus Roman'; font-style:normal; font-weight:normal; font-size:612.0000" transform="matrix(0.0280,0.0000,-0.0000,-0.0280,77.6800,85.8000)">0</text>
   <text   style="font-family:'Times','Nimbus Roman'; font-style:normal; font-weight:normal; font-size:612.0000" transform="matrix(0.0280,0.0000,-0.0000,-0.0280,69.6800,300.0000)">25</text>
   <text   style="font-family:'Times','Nimbus Roman'; font-style:normal; font-weight:normal; font-size:612.0000" transform="matrix(0.0280,0.0000,-0.0000,-0.0280,68.6800,514.2000)">50</text>
  </g>
  <g style="fill:none; stroke:#000000; stroke-width:  0.9180; stroke-linecap:butt; stroke-linejoin:miter; stroke-dasharray:none">
   <path d="M91.8000,91.8000L91.8000,520.2000L703.8000,520.2000L703.8000,91.8000z"/>
  </g>
 </g>
</svg>
