<?xml version="1.0" encoding="ISO-8859-1"?>
<!DOCTYPE svg PUBLIC "-//W3C//DTD SVG 1.0//EN" "http://www.w3.org/TR/2001/REC-SVG-20010904/DTD/svg10.dtd">
<!-- generated by Grace-5.1.25 -->
<svg xml:space="preserve" width="11.0000in" height="8.5000in" viewBox="0.0000 0.0000 792.0000 612.0000">
 <g transform="translate(0,612.0000) scale(1,-1)">
  <g style="fill:#FFFFFF; fill-rule:nonzero">
   <path  d="M0.0000,0.0000L0.0000,612.0000L792.0000,612.0000L792.0000,0.0000z"/>
  </g>
  <g style="fill:none; stroke:#000000; stroke-width:  0.9180; stroke-linecap:butt; stroke-linejoin:miter; stroke-dasharray:none">
   <path d="M120.3600,91.8000L120.3600,477.3600L132.6000,477.3600L132.6000,91.8000z"/>
   <path d="M155.0400,91.8000L155.0400,183.6000L167.2800,183.6000L167.2800,91.8000z"/>
   <path d="M189.7200,91.8000L189.7200,189.7200L201.9600,189.7200L201.9600,91.8000z"/>
   <path d="M224.4000,91.8000L224.4000,134.6400L236.6400,134.6400L236.6400,91.8000z"/>
   <path d="M259.0800,91.8000L259.0800,122.4000L271.3200,122.4000L271.3200,91.8000z"/>
   <path d="M293.7600,91.8000L293.7600,110.1600L306.0000,110.1600L306.0000,91.8000z"/>
   <path d="M328.4400,91.8000L328.4400,91.8000L340.6800,91.8000L340.6800,91.8000z"/>
   <path d="M363.1200,91.8000L363.1200,97.9200L375.3600,97.9200L375.3600,91.8000z"/>
   <path d="M397.8000,91.8000L397.8000,91.8000L410.0400,91.8000L410.0400,91.8000z"/>
   <path d="M432.4800,91.8000L432.4800,91.8000L444.7200,91.8000L444.7200,91.8000z"/>
   <path d="M467.1600,91.8000L467.1600,97.9200L479.4000,97.9200L479.4000,91.8000z"/>
   <path d="M501.8400,91.8000L501.8400,91.8000L514.0800,91.8000L514.0800,91.8000z"/>
   <path d="M536.5200,91.8000L536.5200,91.8000L548.7600,91.8000L548.7600,91.8000z"/>
   <path d="M571.2000,91.8000L571.2000,91.8000L583.4400,91.8000L583.4400,91.8000z"/>
   <path d="M605.8800,91.8000L605.8800,91.8000L618.1200,91.8000L618.1200,91.8000z"/>
   <path d="M640.5600,91.8000L640.5600,97.9200L652.8000,97.9200L652.8000,91.8000z"/>
   <path d="M91.8000,91.8000L703.8000,91.8000"/>
   <path d="M91.8000,520.2000L703.8000,520.2000"/>
   <path d="M91.8000,91.8000L91.8000,104.0400"/>
   <path d="M91.8000,520.2000L91.8000,507.9600"/>
   <path d="M193.8000,91.8000L193.8000,104.0400"/>
   <path d="M193.8000,520.2000L193.8000,507.9600"/>
   <path d="M295.8000,91.8000L295.8000,104.0400"/>
   <path d="M295.8000,520.2000L295.8000,507.9600"/>
   <path d="M397.8000,91.8000L397.8000,104.0400"/>
   <path d="M397.8000,520.2000L397.8000,507.9600"/>
   <path d="M499.8000,91.8000L499.8000,104.0400"/>
   <path d="M499.8000,520.2000L499.8000,507.9600"/>
   <path d="M601.8000,91.8000L601.8000,104.0400"/>
   <path d="M601.8000,520.2000L601.8000,507.9600"/>
   <path d="M703.8000,91.8000L703.8000,104.0400"/>
   <path d="M703.8000,520.2000L703.8000,507.9600"/>
  </g>
  <g style="fill:#000000; fill-rule:nonzero">
   <text   style="font-family:'Times','Nimbus Roman'; font-style:normal; font-weight:normal; font-size:612.0000" transform="matrix(0.0280,0.0000,-0.0000,-0.0280,87.8000,73.6800)">0</text>
   <text   style="font-family:'Times','Nimbus Roman'; font-style:normal; font-weight:normal; font-size:612.0000" transform="matrix(0.0280,0.0000,-0.0000,-0.0280,179.3000,73.6800)">0.01</text>
   <text   style="font-family:'Times','Nimbus Roman'; font-style:normal; font-weight:normal; font-size:612.0000" transform="matrix(0.0280,0.0000,-0.0000,-0.0280,280.8000,73.6800)">0.02</text>
   <text   style="font-family:'Times','Nimbus Roman'; font-style:normal; font-weight:normal; font-size:612.0000" transform="matrix(0.0280,0.0000,-0.0000,-0.0280,383.3000,73.6800)">0.03</text>
   <text   style="font-family:'Times','Nimbus Roman'; font-style:normal; font-weight:normal; font-size:612.0000" transform="matrix(0.0280,0.0000,-0.0000,-0.0280,484.8000,73.6800)">0.04</text>
   <text   style="font-family:'Times','Nimbus Roman'; font-style:normal; font-weight:normal; font-size:612.0000" transform="matrix(0.0280,0.0000,-0.0000,-0.0280,587.3000,73.6800)">0.05</text>
   <text   style="font-family:'Times','Nimbus Roman'; font-style:normal; font-weight:normal; font-size:612.0000" transform="matrix(0.0280,0.0000,-0.0000,-0.0280,688.8000,73.6800)">0.06</text>
  </g>
  <g style="fill:none; stroke:#000000; stroke-width:  0.9180; stroke-linecap:butt; stroke-linejoin:miter; stroke-dasharray:none">
   <path d="M91.8000,91.8000L91.8000,520.2000"/>
   <path d="M703.8000,91.8000L703.8000,520.2000"/>
   <path d="M91.8000,91.8000L104.0400,91.8000"/>
   <path d="M703.8000,91.8000L691.5600,91.8000"/>
   <path d="M91.8000,153.0000L104.0400,153.0000"/>
   <path d="M703.8000,153.0000L691.5600,153.0000"/>
   <path d="M91.8000,214.2000L104.0400,214.2000"/>
   <path d="M703.8000,214.2000L691.5600,214.2000"/>
   <path d="M91.8000,275.4000L104.0400,275.4000"/>
   <path d="M703.8000,275.4000L691.5600,275.4000"/>
   <path d="M91.8000,336.6000L104.0400,336.6000"/>
   <path d="M703.8000,336.6000L691.5600,336.6000"/>
   <path d="M91.8000,397.8000L104.0400,397.8000"/>
   <path d="M703.8000,397.8000L691.5600,397.8000"/>
   <path d="M91.8000,459.0000L104.0400,459.0000"/>
   <path d="M703.8000,459.0000L691.5600,459.0000"/>
   <path d="M91.8000,520.2000L104.0400,520.2000"/>
   <path d="M703.8000,520.2000L691.5600,520.2000"/>
  </g>
  <g style="fill:#000000; fill-rule:nonzero">
   <text   style="font-family:'Times','Nimbus Roman'; font-style:normal; font-weight:normal; font-size:612.0000" transform="matrix(0.0280,0.0000,-0.0000,-0.0280,77.6800,85.8000)">0</text>
   <text   style="font-family:'Times','Nimbus Roman'; font-style:normal; font-weight:normal; font-size:612.0000" transform="matrix(0.0280,0.0000,-0.0000,-0.0280,68.6800,147.0000)">10</text>
   <text   style="font-family:'Times','Nimbus Roman'; font-style:normal; font-weight:normal; font-size:612.0000" transform="matrix(0.0280,0.0000,-0.0000,-0.0280,68.6800,208.2000)">20</text>
   <text   style="font-family:'Times','Nimbus Roman'; font-style:normal; font-weight:normal; font-size:612.0000" transform="matrix(0.0280,0.0000,-0.0000,-0.0280,68.6800,269.4000)">30</text>
   <text   style="font-family:'Times','Nimbus Roman'; font-style:normal; font-weight:normal; font-size:612.0000" transform="matrix(0.0280,0.0000,-0.0000,-0.0280,68.6800,330.6000)">40</text>
   <text   style="font-family:'Times','Nimbus Roman'; font-style:normal; font-weight:normal; font-size:612.0000" transform="matrix(0.0280,0.0000,-0.0000,-0.0280,68.6800,391.8000)">50</text>
   <text   style="font-family:'Times','Nimbus Roman'; font-style:normal; font-weight:normal; font-size:612.0000" transform="matrix(0.0280,0.0000,-0.0000,-0.0280,68.6800,453.0000)">60</text>
   <text   style="font-family:'Times','Nimbus Roman'; font-style:normal; font-weight:normal; font-size:612.0000" transform="matrix(0.0280,0.0000,-0.0000,-0.0280,68.6800,514.2000)">70</text>
  </g>
  <g style="fill:none; stroke:#000000; stroke-width:  0.9180; stroke-linecap:butt; stroke-linejoin:miter; stroke-dasharray:none">
   <path d="M91.8000,91.8000L91.8000,520.2000L703.8000,520.2000L703.8000,91.8000z"/>
  </g>
 </g>
</svg>
