<?xml version="1.0" encoding="ISO-8859-1"?>
<!DOCTYPE svg PUBLIC "-//W3C//DTD SVG 1.0//EN" "http://www.w3.org/TR/2001/REC-SVG-20010904/DTD/svg10.dtd">
<!-- generated by Grace-5.1.25 -->
<svg xml:space="preserve" width="11.0000in" height="8.5000in" viewBox="0.0000 0.0000 792.0000 612.0000">
 <g transform="translate(0,612.0000) scale(1,-1)">
  <g style="fill:#FFFFFF; fill-rule:nonzero">
   <path  d="M0.0000,0.0000L0.0000,612.0000L792.0000,612.0000L792.0000,0.0000z"/>
  </g>
  <g style="fill:none; stroke:#000000; stroke-width:  0.9180; stroke-linecap:butt; stroke-linejoin:miter; stroke-dasharray:none">
   <path d="M119.7771,91.8000L119.7771,493.4250L132.0171,493.4250L132.0171,91.8000z"/>
   <path d="M153.8743,91.8000L153.8743,150.7050L166.1143,150.7050L166.1143,91.8000z"/>
   <path d="M187.9714,91.8000L187.9714,150.7050L200.2114,150.7050L200.2114,91.8000z"/>
   <path d="M222.0686,91.8000L222.0686,134.6400L234.3086,134.6400L234.3086,91.8000z"/>
   <path d="M256.1657,91.8000L256.1657,102.5100L268.4057,102.5100L268.4057,91.8000z"/>
   <path d="M290.2629,91.8000L290.2629,102.5100L302.5029,102.5100L302.5029,91.8000z"/>
   <path d="M324.3600,91.8000L324.3600,91.8000L336.6000,91.8000L336.6000,91.8000z"/>
   <path d="M358.4571,91.8000L358.4571,97.1550L370.6971,97.1550L370.6971,91.8000z"/>
   <path d="M392.5543,91.8000L392.5543,91.8000L404.7943,91.8000L404.7943,91.8000z"/>
   <path d="M426.6514,91.8000L426.6514,91.8000L438.8914,91.8000L438.8914,91.8000z"/>
   <path d="M460.7486,91.8000L460.7486,97.1550L472.9886,97.1550L472.9886,91.8000z"/>
   <path d="M494.8457,91.8000L494.8457,91.8000L507.0857,91.8000L507.0857,91.8000z"/>
   <path d="M528.9429,91.8000L528.9429,91.8000L541.1829,91.8000L541.1829,91.8000z"/>
   <path d="M563.0400,91.8000L563.0400,91.8000L575.2800,91.8000L575.2800,91.8000z"/>
   <path d="M597.1371,91.8000L597.1371,91.8000L609.3771,91.8000L609.3771,91.8000z"/>
   <path d="M631.2343,91.8000L631.2343,97.1550L643.4743,97.1550L643.4743,91.8000z"/>
   <path d="M91.8000,91.8000L703.8000,91.8000"/>
   <path d="M91.8000,520.2000L703.8000,520.2000"/>
   <path d="M91.8000,91.8000L91.8000,104.0400"/>
   <path d="M91.8000,520.2000L91.8000,507.9600"/>
   <path d="M179.2286,91.8000L179.2286,104.0400"/>
   <path d="M179.2286,520.2000L179.2286,507.9600"/>
   <path d="M266.6571,91.8000L266.6571,104.0400"/>
   <path d="M266.6571,520.2000L266.6571,507.9600"/>
   <path d="M354.0857,91.8000L354.0857,104.0400"/>
   <path d="M354.0857,520.2000L354.0857,507.9600"/>
   <path d="M441.5143,91.8000L441.5143,104.0400"/>
   <path d="M441.5143,520.2000L441.5143,507.9600"/>
   <path d="M528.9429,91.8000L528.9429,104.0400"/>
   <path d="M528.9429,520.2000L528.9429,507.9600"/>
   <path d="M616.3714,91.8000L616.3714,104.0400"/>
   <path d="M616.3714,520.2000L616.3714,507.9600"/>
   <path d="M703.8000,91.8000L703.8000,104.0400"/>
   <path d="M703.8000,520.2000L703.8000,507.9600"/>
  </g>
  <g style="fill:#000000; fill-rule:nonzero">
   <text   style="font-family:'Times','Nimbus Roman'; font-style:normal; font-weight:normal; font-size:612.0000" transform="matrix(0.0280,0.0000,-0.0000,-0.0280,87.8000,73.6800)">0</text>
   <text   style="font-family:'Times','Nimbus Roman'; font-style:normal; font-weight:normal; font-size:612.0000" transform="matrix(0.0280,0.0000,-0.0000,-0.0280,164.7286,73.6800)">0.01</text>
   <text   style="font-family:'Times','Nimbus Roman'; font-style:normal; font-weight:normal; font-size:612.0000" transform="matrix(0.0280,0.0000,-0.0000,-0.0280,251.6571,73.6800)">0.02</text>
   <text   style="font-family:'Times','Nimbus Roman'; font-style:normal; font-weight:normal; font-size:612.0000" transform="matrix(0.0280,0.0000,-0.0000,-0.0280,339.5857,73.6800)">0.03</text>
   <text   style="font-family:'Times','Nimbus Roman'; font-style:normal; font-weight:normal; font-size:612.0000" transform="matrix(0.0280,0.0000,-0.0000,-0.0280,426.5143,73.6800)">0.04</text>
   <text   style="font-family:'Times','Nimbus Roman'; font-style:normal; font-weight:normal; font-size:612.0000" transform="matrix(0.0280,0.0000,-0.0000,-0.0280,514.4429,73.6800)">0.05</text>
   <text   style="font-family:'Times','Nimbus Roman'; font-style:normal; font-weight:normal; font-size:612.0000" transform="matrix(0.0280,0.0000,-0.0000,-0.0280,601.3714,73.6800)">0.06</text>
   <text   style="font-family:'Times','Nimbus Roman'; font-style:normal; font-weight:normal; font-size:612.0000" transform="matrix(0.0280,0.0000,-0.0000,-0.0280,689.3000,73.6800)">0.07</text>
  </g>
  <g style="fill:none; stroke:#000000; stroke-width:  0.9180; stroke-linecap:butt; stroke-linejoin:miter; stroke-dasharray:none">
   <path d="M91.8000,91.8000L91.8000,520.2000"/>
   <path d="M703.8000,91.8000L703.8000,520.2000"/>
   <path d="M91.8000,91.8000L104.0400,91.8000"/>
   <path d="M703.8000,91.8000L691.5600,91.8000"/>
   <path d="M91.8000,198.9000L104.0400,198.9000"/>
   <path d="M703.8000,198.9000L691.5600,198.9000"/>
   <path d="M91.8000,306.0000L104.0400,306.0000"/>
   <path d="M703.8000,306.0000L691.5600,306.0000"/>
   <path d="M91.8000,413.1000L104.0400,413.1000"/>
   <path d="M703.8000,413.1000L691.5600,413.1000"/>
   <path d="M91.8000,520.2000L104.0400,520.2000"/>
   <path d="M703.8000,520.2000L691.5600,520.2000"/>
  </g>
  <g style="fill:#000000; fill-rule:nonzero">
   <text   style="font-family:'Times','Nimbus Roman'; font-style:normal; font-weight:normal; font-size:612.0000" transform="matrix(0.0280,0.0000,-0.0000,-0.0280,77.6800,85.8000)">0</text>
   <text   style="font-family:'Times','Nimbus Roman'; font-style:normal; font-weight:normal; font-size:612.0000" transform="matrix(0.0280,0.0000,-0.0000,-0.0280,68.6800,192.9000)">20</text>
   <text   style="font-family:'Times','Nimbus Roman'; font-style:normal; font-weight:normal; font-size:612.0000" transform="matrix(0.0280,0.0000,-0.0000,-0.0280,68.6800,300.0000)">40</text>
   <text   style="font-family:'Times','Nimbus Roman'; font-style:normal; font-weight:normal; font-size:612.0000" transform="matrix(0.0280,0.0000,-0.0000,-0.0280,68.6800,407.1000)">60</text>
   <text   style="font-family:'Times','Nimbus Roman'; font-style:normal; font-weight:normal; font-size:612.0000" transform="matrix(0.0280,0.0000,-0.0000,-0.0280,68.6800,514.2000)">80</text>
  </g>
  <g style="fill:none; stroke:#000000; stroke-width:  0.9180; stroke-linecap:butt; stroke-linejoin:miter; stroke-dasharray:none">
   <path d="M91.8000,91.8000L91.8000,520.2000L703.8000,520.2000L703.8000,91.8000z"/>
  </g>
 </g>
</svg>
