<?xml version="1.0" encoding="ISO-8859-1"?>
<!DOCTYPE svg PUBLIC "-//W3C//DTD SVG 1.0//EN" "http://www.w3.org/TR/2001/REC-SVG-20010904/DTD/svg10.dtd">
<!-- generated by Grace-5.1.25 -->
<svg xml:space="preserve" width="11.0000in" height="8.5000in" viewBox="0.0000 0.0000 792.0000 612.0000">
 <g transform="translate(0,612.0000) scale(1,-1)">
  <g style="fill:#FFFFFF; fill-rule:nonzero">
   <path  d="M0.0000,0.0000L0.0000,612.0000L792.0000,612.0000L792.0000,0.0000z"/>
  </g>
  <g style="fill:none; stroke:#000000; stroke-width:  0.9180; stroke-linecap:butt; stroke-linejoin:miter; stroke-dasharray:none">
   <path d="M106.0800,91.8000L106.0800,91.8000L118.3200,91.8000L118.3200,91.8000z"/>
   <path d="M126.4800,91.8000L126.4800,91.8000L138.7200,91.8000L138.7200,91.8000z"/>
   <path d="M146.8800,91.8000L146.8800,91.8000L159.1200,91.8000L159.1200,91.8000z"/>
   <path d="M167.2800,91.8000L167.2800,113.2200L179.5200,113.2200L179.5200,91.8000z"/>
   <path d="M187.6800,91.8000L187.6800,102.5100L199.9200,102.5100L199.9200,91.8000z"/>
   <path d="M208.0800,91.8000L208.0800,91.8000L220.3200,91.8000L220.3200,91.8000z"/>
   <path d="M228.4800,91.8000L228.4800,102.5100L240.7200,102.5100L240.7200,91.8000z"/>
   <path d="M248.8800,91.8000L248.8800,102.5100L261.1200,102.5100L261.1200,91.8000z"/>
   <path d="M269.2800,91.8000L269.2800,91.8000L281.5200,91.8000L281.5200,91.8000z"/>
   <path d="M289.6800,91.8000L289.6800,102.5100L301.9200,102.5100L301.9200,91.8000z"/>
   <path d="M310.0800,91.8000L310.0800,123.9300L322.3200,123.9300L322.3200,91.8000z"/>
   <path d="M330.4800,91.8000L330.4800,91.8000L342.7200,91.8000L342.7200,91.8000z"/>
   <path d="M350.8800,91.8000L350.8800,134.6400L363.1200,134.6400L363.1200,91.8000z"/>
   <path d="M371.2800,91.8000L371.2800,102.5100L383.5200,102.5100L383.5200,91.8000z"/>
   <path d="M391.6800,91.8000L391.6800,102.5100L403.9200,102.5100L403.9200,91.8000z"/>
   <path d="M412.0800,91.8000L412.0800,113.2200L424.3200,113.2200L424.3200,91.8000z"/>
   <path d="M432.4800,91.8000L432.4800,123.9300L444.7200,123.9300L444.7200,91.8000z"/>
   <path d="M452.8800,91.8000L452.8800,166.7700L465.1200,166.7700L465.1200,91.8000z"/>
   <path d="M473.2800,91.8000L473.2800,134.6400L485.5200,134.6400L485.5200,91.8000z"/>
   <path d="M493.6800,91.8000L493.6800,198.9000L505.9200,198.9000L505.9200,91.8000z"/>
   <path d="M514.0800,91.8000L514.0800,370.2600L526.3200,370.2600L526.3200,91.8000z"/>
   <path d="M534.4800,91.8000L534.4800,348.8400L546.7200,348.8400L546.7200,91.8000z"/>
   <path d="M554.8800,91.8000L554.8800,252.4500L567.1200,252.4500L567.1200,91.8000z"/>
   <path d="M575.2800,91.8000L575.2800,113.2200L587.5200,113.2200L587.5200,91.8000z"/>
   <path d="M595.6800,91.8000L595.6800,91.8000L607.9200,91.8000L607.9200,91.8000z"/>
   <path d="M91.8000,91.8000L703.8000,91.8000"/>
   <path d="M91.8000,520.2000L703.8000,520.2000"/>
   <path d="M91.8000,91.8000L91.8000,104.0400"/>
   <path d="M91.8000,520.2000L91.8000,507.9600"/>
   <path d="M295.8000,91.8000L295.8000,104.0400"/>
   <path d="M295.8000,520.2000L295.8000,507.9600"/>
   <path d="M499.8000,91.8000L499.8000,104.0400"/>
   <path d="M499.8000,520.2000L499.8000,507.9600"/>
   <path d="M703.8000,91.8000L703.8000,104.0400"/>
   <path d="M703.8000,520.2000L703.8000,507.9600"/>
  </g>
  <g style="fill:#000000; fill-rule:nonzero">
   <text   style="font-family:'Times','Nimbus Roman'; font-style:normal; font-weight:normal; font-size:612.0000" transform="matrix(0.0280,0.0000,-0.0000,-0.0280,85.3000,73.6800)">-1</text>
   <text   style="font-family:'Times','Nimbus Roman'; font-style:normal; font-weight:normal; font-size:612.0000" transform="matrix(0.0280,0.0000,-0.0000,-0.0280,282.8000,73.6800)">-0.5</text>
   <text   style="font-family:'Times','Nimbus Roman'; font-style:normal; font-weight:normal; font-size:612.0000" transform="matrix(0.0280,0.0000,-0.0000,-0.0280,495.8000,73.6800)">0</text>
   <text   style="font-family:'Times','Nimbus Roman'; font-style:normal; font-weight:normal; font-size:612.0000" transform="matrix(0.0280,0.0000,-0.0000,-0.0280,693.3000,73.6800)">0.5</text>
  </g>
  <g style="fill:none; stroke:#000000; stroke-width:  0.9180; stroke-linecap:butt; stroke-linejoin:miter; stroke-dasharray:none">
   <path d="M91.8000,91.8000L91.8000,520.2000"/>
   <path d="M703.8000,91.8000L703.8000,520.2000"/>
   <path d="M91.8000,91.8000L104.0400,91.8000"/>
   <path d="M703.8000,91.8000L691.5600,91.8000"/>
   <path d="M91.8000,306.0000L104.0400,306.0000"/>
   <path d="M703.8000,306.0000L691.5600,306.0000"/>
   <path d="M91.8000,520.2000L104.0400,520.2000"/>
   <path d="M703.8000,520.2000L691.5600,520.2000"/>
  </g>
  <g style="fill:#000000; fill-rule:nonzero">
   <text   style="font-family:'Times','Nimbus Roman'; font-style:normal; font-weight:normal; font-size:612.0000" transform="matrix(0.0280,0.0000,-0.0000,-0.0280,77.6800,85.8000)">0</text>
   <text   style="font-family:'Times','Nimbus Roman'; font-style:normal; font-weight:normal; font-size:612.0000" transform="matrix(0.0280,0.0000,-0.0000,-0.0280,68.6800,300.0000)">20</text>
   <text   style="font-family:'Times','Nimbus Roman'; font-style:normal; font-weight:normal; font-size:612.0000" transform="matrix(0.0280,0.0000,-0.0000,-0.0280,68.6800,514.2000)">40</text>
  </g>
  <g style="fill:none; stroke:#000000; stroke-width:  0.9180; stroke-linecap:butt; stroke-linejoin:miter; stroke-dasharray:none">
   <path d="M91.8000,91.8000L91.8000,520.2000L703.8000,520.2000L703.8000,91.8000z"/>
  </g>
 </g>
</svg>
