<?xml version="1.0" encoding="ISO-8859-1"?>
<!DOCTYPE svg PUBLIC "-//W3C//DTD SVG 1.0//EN" "http://www.w3.org/TR/2001/REC-SVG-20010904/DTD/svg10.dtd">
<!-- generated by Grace-5.1.25 -->
<svg xml:space="preserve" width="11.0000in" height="8.5000in" viewBox="0.0000 0.0000 792.0000 612.0000">
 <g transform="translate(0,612.0000) scale(1,-1)">
  <g style="fill:#FFFFFF; fill-rule:nonzero">
   <path  d="M0.0000,0.0000L0.0000,612.0000L792.0000,612.0000L792.0000,0.0000z"/>
  </g>
  <g style="fill:none; stroke:#008B00; stroke-width:  0.9180; stroke-linecap:butt; stroke-linejoin:miter; stroke-dasharray:none">
   <path d="M61.2000,155.2703L76.0364,132.5358L90.8727,152.3168L105.7091,137.3418L120.5455,149.0520L135.3818,152.5222L150.2182,167.4057L165.0545,153.6082L179.8909,156.2308L194.7273,167.3879
            L209.5636,196.8327L224.4000,199.2224L239.2364,191.8835L254.0727,227.8371L268.9091,203.1844L283.7455,233.5716L298.5818,242.1655L313.4182,212.8563L328.2545,257.6934L343.0909,251.9123
            L357.9273,250.1117L372.7636,259.3808L387.6000,257.6097L402.4364,278.0794L417.2727,292.1293L432.1091,304.5401L446.9455,312.4571L461.7818,316.7936L476.6182,321.4391L491.4545,317.7077
            L506.2909,340.7140L521.1273,352.1573L535.9636,366.0237L550.8000,370.3794"/>
   <path d="M61.2000,173.1037L76.0364,161.0101L90.8727,165.6874L105.7091,155.7770L120.5455,172.4413L135.3818,173.1409L150.2182,176.7271L165.0545,205.1921L179.8909,206.0238L194.7273,232.0040
            L209.5636,236.9371L224.4000,206.5271L239.2364,264.7892L254.0727,262.6955L268.9091,271.4391L283.7455,323.6728L298.5818,299.3389L313.4182,314.7074L328.2545,320.5454L343.0909,355.1827
            L357.9273,352.9295L372.7636,361.8685L387.6000,331.0558L402.4364,343.8021L417.2727,362.6393L432.1091,386.7274L446.9455,391.6831L461.7818,406.5026L476.6182,388.5695L491.4545,435.4853
            L506.2909,431.3375L521.1273,440.1118L535.9636,445.9941L550.8000,475.2464"/>
   <path d="M61.2000,138.7862L76.0364,157.9982L90.8727,162.1685L105.7091,180.8117L120.5455,186.3540L135.3818,170.3524L150.2182,171.2409L165.0545,190.7451L179.8909,162.5475L194.7273,180.2575
            L209.5636,193.6510L224.4000,220.5392L239.2364,189.7101L254.0727,224.4076L268.9091,275.9645L283.7455,239.8143L298.5818,254.5672L313.4182,260.8764L328.2545,255.9509L343.0909,319.7141
            L357.9273,284.9904L372.7636,285.3340L387.6000,312.4697L402.4364,301.1282L417.2727,316.3375L432.1091,301.8525L446.9455,314.6089L461.7818,301.6444L476.6182,320.0908L491.4545,322.2807
            L506.2909,333.1617L521.1273,336.6215L535.9636,350.4861L550.8000,339.8374"/>
   <path d="M61.2000,155.0360L76.0364,155.7643L90.8727,168.6205L105.7091,182.8171L120.5455,170.1895L135.3818,170.4489L150.2182,198.1787L165.0545,182.1037L179.8909,185.1390L194.7273,169.0054
            L209.5636,176.8178L224.4000,211.8742L239.2364,179.4895L254.0727,207.5738L268.9091,183.7159L283.7455,210.9583L298.5818,214.1163L313.4182,224.7845L328.2545,216.1105L343.0909,220.9120
            L357.9273,216.4851L372.7636,226.6215L387.6000,244.5398L402.4364,237.7690L417.2727,245.7193L432.1091,241.6574L446.9455,260.3795L461.7818,261.0478L476.6182,270.2255L491.4545,263.2654
            L506.2909,268.7537L521.1273,289.9044L535.9636,299.4315L550.8000,279.7342"/>
   <path d="M61.2000,196.0546L76.0364,158.5537L90.8727,201.1415L105.7091,200.1788L120.5455,231.8784L135.3818,228.5838L150.2182,247.6832L165.0545,213.3673L179.8909,298.9253L194.7273,261.0941
            L209.5636,327.4180L224.4000,282.7841L239.2364,341.2387L254.0727,326.8472L268.9091,337.1644L283.7455,322.8367L298.5818,396.8273L313.4182,433.5116L328.2545,417.7108L343.0909,414.2492
            L357.9273,420.8678L372.7636,442.0983L387.6000,460.3306L402.4364,478.7848L417.2727,464.3922L432.1091,454.4860L446.9455,396.5482L461.7818,426.4935L476.6182,408.1978L491.4545,386.3516
            L506.2909,390.8535L521.1273,406.4589L535.9636,397.1445L550.8000,410.1573"/>
   <path d="M61.2000,197.1549L76.0364,199.8921L90.8727,196.4938L105.7091,218.0294L120.5455,195.9351L135.3818,208.8213L150.2182,210.2760L165.0545,208.8954L179.8909,205.6517L194.7273,196.1759
            L209.5636,217.8716L224.4000,230.4901L239.2364,210.6766L254.0727,248.0224L268.9091,253.4191L283.7455,277.8882L298.5818,281.1773L313.4182,261.1455L328.2545,253.5317L343.0909,290.2003
            L357.9273,265.4948L372.7636,310.9085L387.6000,309.3834L402.4364,306.1541L417.2727,293.4825L432.1091,301.1042L446.9455,349.0259L461.7818,337.3725L476.6182,362.2330L491.4545,349.1096
            L506.2909,321.4880L521.1273,347.5478L535.9636,349.9803L550.8000,370.0106"/>
   <path d="M61.2000,148.1575L76.0364,158.7399L90.8727,153.4731L105.7091,141.3115L120.5455,148.8506L135.3818,136.4582L150.2182,164.8807L165.0545,160.7668L179.8909,157.6797L194.7273,151.3962
            L209.5636,162.7877L224.4000,165.0881L239.2364,157.5604L254.0727,178.8570L268.9091,183.8244L283.7455,192.7598L298.5818,179.0042L313.4182,204.2916L328.2545,182.7745L343.0909,210.9641
            L357.9273,210.1363L372.7636,227.5048L387.6000,223.8559L402.4364,215.5109L417.2727,201.6486L432.1091,226.6336L446.9455,223.3732L461.7818,197.3042L476.6182,197.4598L491.4545,206.7036
            L506.2909,190.8825L521.1273,214.9953L535.9636,214.1302L550.8000,215.9793"/>
   <path d="M61.2000,196.3214L76.0364,161.2927L90.8727,173.3762L105.7091,165.8997L120.5455,166.8191L135.3818,163.8454L150.2182,178.5827L165.0545,200.5516L179.8909,173.3574L194.7273,200.4514
            L209.5636,210.4212L224.4000,218.5568L239.2364,227.4570L254.0727,240.4434L268.9091,213.8615L283.7455,233.8999L298.5818,238.8027L313.4182,205.4552L328.2545,240.5214L343.0909,231.5152
            L357.9273,250.6664L372.7636,256.0270L387.6000,258.9080L402.4364,261.5849L417.2727,278.5563L432.1091,295.4523L446.9455,271.9800L461.7818,283.3651L476.6182,252.2962L491.4545,293.7129
            L506.2909,300.0365L521.1273,302.6447L535.9636,298.7069L550.8000,303.8364"/>
   <path d="M61.2000,180.9122L76.0364,184.2706L90.8727,179.4560L105.7091,200.9401L120.5455,179.5288L135.3818,192.5637L150.2182,194.0079L165.0545,194.8155L179.8909,190.7088L194.7273,180.4662
            L209.5636,203.1797L224.4000,214.8735L239.2364,193.6843L254.0727,227.7860L268.9091,233.3573L283.7455,254.2586L298.5818,251.6129L313.4182,238.0500L328.2545,268.2167L343.0909,244.7557
            L357.9273,281.0343L372.7636,284.5841L387.6000,284.4392L402.4364,290.1602L417.2727,291.2022L432.1091,289.0369L446.9455,305.0868L461.7818,327.8630L476.6182,315.6799L491.4545,286.4158
            L506.2909,310.7167L521.1273,315.8203L535.9636,319.8821L550.8000,333.2039"/>
   <path d="M61.2000,147.2912L76.0364,148.5734L90.8727,161.4412L105.7091,141.9587L120.5455,154.2903L135.3818,148.2354L150.2182,161.8948L165.0545,156.9548L179.8909,179.8631L194.7273,196.3583
            L209.5636,193.1640L224.4000,197.6334L239.2364,185.6108L254.0727,184.2020L268.9091,211.4188L283.7455,209.8431L298.5818,208.8169L313.4182,203.8549L328.2545,230.4839L343.0909,222.2221
            L357.9273,244.2052L372.7636,246.3548L387.6000,244.8439L402.4364,271.1060L417.2727,270.0906L432.1091,258.5560L446.9455,264.3999L461.7818,267.2766L476.6182,278.4236L491.4545,289.4598
            L506.2909,294.6045L521.1273,277.6196L535.9636,297.3633L550.8000,297.9474"/>
  </g>
  <g style="fill:none; stroke:#FFA500; stroke-width:  0.9180; stroke-linecap:butt; stroke-linejoin:miter; stroke-dasharray:none">
   <path d="M61.2000,142.2633L76.0364,155.1577L90.8727,169.9030L105.7091,154.0325L120.5455,168.1860L135.3818,151.2825L150.2182,159.8908L165.0545,179.0302L179.8909,195.0148L194.7273,182.1904
            L209.5636,188.7063L224.4000,210.8405L239.2364,188.5366L254.0727,202.5978L268.9091,210.6588L283.7455,209.6807L298.5818,209.2829L313.4182,215.5908L328.2545,214.1182L343.0909,233.9725
            L357.9273,260.5888L372.7636,214.4405L387.6000,272.9793L402.4364,276.7417L417.2727,289.3168L432.1091,299.1500L446.9455,284.7836L461.7818,295.8005L476.6182,305.4077L491.4545,336.9117
            L506.2909,309.1263L521.1273,349.5953L535.9636,364.8988L550.8000,361.8357"/>
   <path d="M61.2000,168.9798L76.0364,166.2164L90.8727,171.1329L105.7091,195.4120L120.5455,180.3410L135.3818,189.5075L150.2182,187.9151L165.0545,211.8377L179.8909,217.4698L194.7273,233.7051
            L209.5636,236.5044L224.4000,246.1828L239.2364,239.2495L254.0727,271.5648L268.9091,274.8266L283.7455,277.8790L298.5818,288.5962L313.4182,303.3798L328.2545,322.7236L343.0909,328.2629
            L357.9273,313.0685L372.7636,369.3523L387.6000,384.5554L402.4364,348.2980L417.2727,351.9346L432.1091,362.5871L446.9455,365.7319L461.7818,363.1613L476.6182,380.7383L491.4545,403.0974
            L506.2909,363.4460L521.1273,371.2925L535.9636,429.9866L550.8000,392.6844"/>
   <path d="M61.2000,150.6592L76.0364,147.1092L90.8727,141.1709L105.7091,139.7580L120.5455,137.2452L135.3818,137.8022L150.2182,139.3269L165.0545,140.5547L179.8909,163.3161L194.7273,171.8346
            L209.5636,173.5209L224.4000,204.5486L239.2364,214.9991L254.0727,215.8139L268.9091,221.6109L283.7455,233.2547L298.5818,222.2552L313.4182,254.7207L328.2545,250.0056L343.0909,271.3837
            L357.9273,249.6606L372.7636,258.2195L387.6000,269.5910L402.4364,261.3821L417.2727,249.8549L432.1091,318.2326L446.9455,337.2360L461.7818,285.0089L476.6182,277.1527L491.4545,288.7910
            L506.2909,304.0939L521.1273,315.3979L535.9636,310.2645L550.8000,294.7874"/>
   <path d="M61.2000,184.3177L76.0364,176.2918L90.8727,175.7238L105.7091,195.6707L120.5455,174.8463L135.3818,191.7118L150.2182,192.5061L165.0545,161.1824L179.8909,186.8576L194.7273,175.4936
            L209.5636,201.7340L224.4000,182.9760L239.2364,200.3143L254.0727,215.5901L268.9091,197.8370L283.7455,210.4586L298.5818,205.1301L313.4182,214.0785L328.2545,227.5212L343.0909,218.9287
            L357.9273,244.7981L372.7636,247.3941L387.6000,253.5798L402.4364,264.8319L417.2727,265.8834L432.1091,268.6221L446.9455,268.6453L461.7818,317.7754L476.6182,266.9833L491.4545,263.8306
            L506.2909,267.8099L521.1273,292.5760L535.9636,309.3493L550.8000,302.3549"/>
   <path d="M61.2000,137.9899L76.0364,133.4639L90.8727,144.0823L105.7091,143.8482L120.5455,162.2956L135.3818,148.1284L150.2182,202.3962L165.0545,182.2904L179.8909,169.7678L194.7273,197.2167
            L209.5636,159.2841L224.4000,187.9733L239.2364,178.9499L254.0727,210.7014L268.9091,190.2294L283.7455,204.2797L298.5818,239.4065L313.4182,213.7909L328.2545,229.6908L343.0909,232.8640
            L357.9273,244.6479L372.7636,253.6079L387.6000,312.0378L402.4364,301.3202L417.2727,302.7332L432.1091,338.8161L446.9455,371.6439L461.7818,382.7567L476.6182,423.5425L491.4545,369.1219
            L506.2909,422.3834L521.1273,438.5230L535.9636,423.9709L550.8000,429.2680"/>
   <path d="M61.2000,114.5987L76.0364,116.7089L90.8727,122.4360L105.7091,131.7251L120.5455,144.9237L135.3818,133.9625L150.2182,126.2002L165.0545,136.9843L179.8909,134.3543L194.7273,150.0117
            L209.5636,156.0700L224.4000,167.4472L239.2364,196.9189L254.0727,199.6275L268.9091,216.8735L283.7455,227.6086L298.5818,229.3788L313.4182,243.3359L328.2545,239.8541L343.0909,258.7936
            L357.9273,250.1448L372.7636,240.8200L387.6000,244.8823L402.4364,259.1853L417.2727,298.9460L432.1091,282.0464L446.9455,299.1475L461.7818,344.0502L476.6182,333.5826L491.4545,353.5541
            L506.2909,347.7567L521.1273,369.7503L535.9636,360.0011L550.8000,379.6883"/>
   <path d="M61.2000,121.6302L76.0364,133.5695L90.8727,133.5812L105.7091,134.2123L120.5455,138.3464L135.3818,149.3093L150.2182,149.4228L165.0545,138.1207L179.8909,161.4591L194.7273,147.0006
            L209.5636,149.6129L224.4000,167.5253L239.2364,159.3704L254.0727,165.7062L268.9091,160.8463L283.7455,184.7443L298.5818,206.9900L313.4182,203.3723L328.2545,211.6708L343.0909,201.7492
            L357.9273,210.6541L372.7636,197.9252L387.6000,196.1376L402.4364,220.4348L417.2727,201.4162L432.1091,209.5785L446.9455,223.5937L461.7818,217.4277L476.6182,239.6300L491.4545,198.6163
            L506.2909,189.0260L521.1273,204.6813L535.9636,212.3471L550.8000,221.1255"/>
   <path d="M61.2000,129.0969L76.0364,133.2936L90.8727,118.8919L105.7091,122.5417L120.5455,128.1048L135.3818,121.8602L150.2182,125.6158L165.0545,139.1000L179.8909,136.8572L194.7273,134.1734
            L209.5636,145.4601L224.4000,150.9517L239.2364,170.7464L254.0727,167.6048L268.9091,232.4964L283.7455,169.6644L298.5818,210.8992L313.4182,197.0295L328.2545,193.9963L343.0909,215.2997
            L357.9273,221.6990L372.7636,212.6952L387.6000,242.8467L402.4364,212.7790L417.2727,255.6113L432.1091,240.7053L446.9455,291.4685L461.7818,278.6861L476.6182,280.4554L491.4545,313.1991
            L506.2909,296.1020L521.1273,338.5759L535.9636,339.1495L550.8000,338.7306"/>
   <path d="M61.2000,110.3377L76.0364,110.2960L90.8727,115.5113L105.7091,124.5860L120.5455,135.2085L135.3818,126.3495L150.2182,117.6484L165.0545,126.4015L179.8909,130.9058L194.7273,140.1954
            L209.5636,164.2549L224.4000,155.8929L239.2364,181.4184L254.0727,184.5633L268.9091,199.6031L283.7455,209.7225L298.5818,206.3698L313.4182,223.0927L328.2545,218.8846L343.0909,238.8569
            L357.9273,230.1839L372.7636,221.3554L387.6000,227.6680L402.4364,236.9376L417.2727,271.8816L432.1091,257.2711L446.9455,272.9590L461.7818,312.5666L476.6182,302.7443L491.4545,320.8703
            L506.2909,304.2721L521.1273,334.3492L535.9636,325.3752L550.8000,340.5671"/>
   <path d="M61.2000,172.5095L76.0364,190.2797L90.8727,171.2500L105.7091,214.1767L120.5455,195.2648L135.3818,198.6979L150.2182,226.6506L165.0545,228.9500L179.8909,245.3047L194.7273,233.4119
            L209.5636,239.7613L224.4000,245.4469L239.2364,258.4148L254.0727,228.7062L268.9091,232.0518L283.7455,262.8914L298.5818,237.9349L313.4182,256.6505L328.2545,268.0882L343.0909,263.9777
            L357.9273,265.4777L372.7636,276.4025L387.6000,288.2405L402.4364,283.5421L417.2727,291.8219L432.1091,294.4279L446.9455,295.3614L461.7818,321.1033L476.6182,338.0479L491.4545,330.7995
            L506.2909,337.3061L521.1273,332.5480L535.9636,355.0019L550.8000,370.2408"/>
  </g>
  <g style="fill:none; stroke:#008B00; stroke-width:  9.1800; stroke-linecap:butt; stroke-linejoin:miter; stroke-dasharray:none">
   <path d="M61.2000,168.8088L76.0364,161.8631L90.8727,171.4175L105.7091,172.5066L120.5455,175.5339L135.3818,174.4972L150.2182,187.0878L165.0545,186.7001L179.8909,191.6127L194.7273,193.4597
            L209.5636,211.9081L224.4000,214.7589L239.2364,214.2100L254.0727,232.8672L268.9091,236.7349L283.7455,249.9503L298.5818,256.6429L313.4182,255.9533L328.2545,264.3539L343.0909,276.1628
            L357.9273,277.6921L372.7636,290.0682L387.6000,292.7436L402.4364,298.4079L417.2727,301.6198L432.1091,306.0046L446.9455,308.9542L461.7818,312.5663L476.6182,311.4615L491.4545,315.0493
            L506.2909,318.2549L521.1273,328.3882L535.9636,333.9143L550.8000,339.6332"/>
  </g>
  <g style="fill:none; stroke:#FFA500; stroke-width:  9.1800; stroke-linecap:butt; stroke-linejoin:miter; stroke-dasharray:none">
   <path d="M61.2000,143.2383L76.0364,146.2387L90.8727,146.3683L105.7091,155.5963L120.5455,156.4762L135.3818,154.8612L150.2182,162.7573L165.0545,164.4452L179.8909,174.1307L194.7273,176.5233
            L209.5636,181.4909L224.4000,191.9785L239.2364,198.8918L254.0727,206.2476L268.9091,213.7034L283.7455,219.0184L298.5818,225.6244L313.4182,232.5042L328.2545,237.6553L343.0909,246.4089
            L357.9273,249.0923L372.7636,249.2213L387.6000,269.2518L402.4364,266.5453L417.2727,277.9400L432.1091,287.1437L446.9455,301.0571L461.7818,311.8337L476.6182,314.8285L491.4545,317.8792
            L506.2909,314.1322L521.1273,334.7289L535.9636,343.0345L550.8000,343.1283"/>
  </g>
  <g style="fill:none; stroke:#000000; stroke-width:  0.9180; stroke-linecap:butt; stroke-linejoin:miter; stroke-dasharray:none">
   <path d="M61.2000,61.2000L550.8000,61.2000"/>
   <path d="M61.2000,550.8000L550.8000,550.8000"/>
   <path d="M179.8909,61.2000L179.8909,67.3200"/>
   <path d="M179.8909,550.8000L179.8909,544.6800"/>
   <path d="M328.2545,61.2000L328.2545,67.3200"/>
   <path d="M328.2545,550.8000L328.2545,544.6800"/>
   <path d="M476.6182,61.2000L476.6182,67.3200"/>
   <path d="M476.6182,550.8000L476.6182,544.6800"/>
   <path d="M105.7091,61.2000L105.7091,73.4400"/>
   <path d="M105.7091,550.8000L105.7091,538.5600"/>
   <path d="M254.0727,61.2000L254.0727,73.4400"/>
   <path d="M254.0727,550.8000L254.0727,538.5600"/>
   <path d="M402.4364,61.2000L402.4364,73.4400"/>
   <path d="M402.4364,550.8000L402.4364,538.5600"/>
   <path d="M550.8000,61.2000L550.8000,73.4400"/>
   <path d="M550.8000,550.8000L550.8000,538.5600"/>
   <path d="M61.2000,61.2000L61.2000,550.8000"/>
   <path d="M550.8000,61.2000L550.8000,550.8000"/>
   <path d="M61.2000,122.4000L67.3200,122.4000"/>
   <path d="M550.8000,122.4000L544.6800,122.4000"/>
   <path d="M61.2000,244.8000L67.3200,244.8000"/>
   <path d="M550.8000,244.8000L544.6800,244.8000"/>
   <path d="M61.2000,367.2000L67.3200,367.2000"/>
   <path d="M550.8000,367.2000L544.6800,367.2000"/>
   <path d="M61.2000,489.6000L67.3200,489.6000"/>
   <path d="M550.8000,489.6000L544.6800,489.6000"/>
   <path d="M61.2000,61.2000L73.4400,61.2000"/>
   <path d="M550.8000,61.2000L538.5600,61.2000"/>
   <path d="M61.2000,183.6000L73.4400,183.6000"/>
   <path d="M550.8000,183.6000L538.5600,183.6000"/>
   <path d="M61.2000,306.0000L73.4400,306.0000"/>
   <path d="M550.8000,306.0000L538.5600,306.0000"/>
   <path d="M61.2000,428.4000L73.4400,428.4000"/>
   <path d="M550.8000,428.4000L538.5600,428.4000"/>
   <path d="M61.2000,550.8000L73.4400,550.8000"/>
   <path d="M550.8000,550.8000L538.5600,550.8000"/>
   <path d="M61.2000,61.2000L61.2000,550.8000L550.8000,550.8000L550.8000,61.2000z"/>
  </g>
 </g>
</svg>
