<?xml version="1.0" encoding="ISO-8859-1"?>
<!DOCTYPE svg PUBLIC "-//W3C//DTD SVG 1.0//EN" "http://www.w3.org/TR/2001/REC-SVG-20010904/DTD/svg10.dtd">
<!-- generated by Grace-5.1.25 -->
<svg xml:space="preserve" width="11.0000in" height="8.5000in" viewBox="0.0000 0.0000 792.0000 612.0000">
 <g transform="translate(0,612.0000) scale(1,-1)">
  <g style="fill:#FFFFFF; fill-rule:nonzero">
   <path  d="M0.0000,0.0000L0.0000,612.0000L792.0000,612.0000L792.0000,0.0000z"/>
  </g>
  <g style="fill:none; stroke:#FF0000; stroke-width:  0.9180; stroke-linecap:butt; stroke-linejoin:miter; stroke-dasharray:none">
   <path d="M61.2000,224.0288L76.0364,228.4641L90.8727,235.1093L105.7091,239.9439L120.5455,249.9558L135.3818,252.7772L150.2182,263.1300L165.0545,274.5890L179.8909,286.4357L194.7273,275.8275
            L209.5636,287.6424L224.4000,274.7271L239.2364,266.6236L254.0727,270.1456L268.9091,267.0145L283.7455,261.3855L298.5818,276.0316L313.4182,266.8791L328.2545,262.9795L343.0909,259.0038
            L357.9273,262.5949L372.7636,250.3392L387.6000,248.4173L402.4364,249.0624L417.2727,246.1583L432.1091,247.3269L446.9455,240.5833L461.7818,242.9834L476.6182,234.8063L491.4545,237.5351
            L506.2909,233.1140L521.1273,233.0012L535.9636,232.1734L550.8000,244.1771"/>
   <path d="M61.2000,277.4438L76.0364,298.7065L90.8727,291.4378L105.7091,279.0817L120.5455,275.1258L135.3818,279.0657L150.2182,264.7127L165.0545,250.1090L179.8909,261.1108L194.7273,237.8777
            L209.5636,223.7034L224.4000,230.7983L239.2364,221.0502L254.0727,223.1651L268.9091,225.2777L283.7455,217.5554L298.5818,198.1429L313.4182,181.9592L328.2545,171.6863L343.0909,167.8056
            L357.9273,154.7798L372.7636,178.2735L387.6000,167.9222L402.4364,151.5153L417.2727,143.7419L432.1091,137.6076L446.9455,122.0371L461.7818,109.9731L476.6182,108.5319L491.4545,101.6523
            L506.2909,98.4349L521.1273,105.9501L535.9636,110.0686L550.8000,108.8377"/>
   <path d="M61.2000,344.8888L76.0364,346.8821L90.8727,336.6549L105.7091,322.8379L120.5455,312.0734L135.3818,307.5186L150.2182,302.5419L165.0545,286.3708L179.8909,276.2588L194.7273,275.9431
            L209.5636,278.1163L224.4000,289.2257L239.2364,279.9031L254.0727,278.3433L268.9091,266.6601L283.7455,258.1811L298.5818,248.6427L313.4182,242.7937L328.2545,237.8304L343.0909,244.2316
            L357.9273,232.3410L372.7636,220.0526L387.6000,214.3081L402.4364,216.3995L417.2727,191.4766L432.1091,193.1443L446.9455,197.6978L461.7818,175.9340L476.6182,204.9655L491.4545,188.0147
            L506.2909,182.1522L521.1273,184.5304L535.9636,180.9466L550.8000,174.6063"/>
   <path d="M61.2000,297.5446L76.0364,302.0341L90.8727,292.3336L105.7091,288.5313L120.5455,282.6592L135.3818,279.2149L150.2182,280.1890L165.0545,299.7739L179.8909,289.4858L194.7273,296.4396
            L209.5636,280.8965L224.4000,285.2167L239.2364,278.5481L254.0727,279.5659L268.9091,279.4418L283.7455,279.2588L298.5818,284.9062L313.4182,273.2858L328.2545,259.7608L343.0909,249.8663
            L357.9273,255.2410L372.7636,257.5712L387.6000,278.0517L402.4364,268.4898L417.2727,258.0101L432.1091,249.7329L446.9455,246.3618L461.7818,236.3389L476.6182,238.8212L491.4545,229.6626
            L506.2909,224.0223L521.1273,242.6735L535.9636,227.9955L550.8000,218.0774"/>
   <path d="M61.2000,234.5831L76.0364,210.3302L90.8727,198.5101L105.7091,217.3867L120.5455,221.8950L135.3818,228.7625L150.2182,220.1627L165.0545,224.5274L179.8909,197.2073L194.7273,210.6386
            L209.5636,198.1660L224.4000,199.9503L239.2364,190.3457L254.0727,218.8082L268.9091,208.6594L283.7455,205.6677L298.5818,187.7873L313.4182,178.2166L328.2545,180.0534L343.0909,184.3451
            L357.9273,178.3120L372.7636,169.8600L387.6000,188.2765L402.4364,183.1392L417.2727,175.4639L432.1091,157.7664L446.9455,150.6105L461.7818,146.8643L476.6182,171.4033L491.4545,167.2409
            L506.2909,168.3605L521.1273,151.8870L535.9636,141.8867L550.8000,147.2070"/>
   <path d="M61.2000,283.2192L76.0364,242.7410L90.8727,216.4261L105.7091,252.6021L120.5455,246.5215L135.3818,234.8216L150.2182,216.0077L165.0545,230.2118L179.8909,234.4732L194.7273,264.3254
            L209.5636,271.5305L224.4000,264.8078L239.2364,275.3412L254.0727,277.3066L268.9091,279.3063L283.7455,251.1046L298.5818,236.1186L313.4182,230.2701L328.2545,225.7518L343.0909,223.1416
            L357.9273,220.6452L372.7636,231.1340L387.6000,222.8404L402.4364,247.6658L417.2727,251.5917L432.1091,216.8123L446.9455,219.7313L461.7818,223.1654L476.6182,226.1413L491.4545,230.7665
            L506.2909,223.7325L521.1273,227.4945L535.9636,239.1891L550.8000,236.2549"/>
   <path d="M61.2000,373.3087L76.0364,393.1029L90.8727,386.9472L105.7091,381.1701L120.5455,391.0463L135.3818,375.4781L150.2182,372.5019L165.0545,361.3964L179.8909,341.8794L194.7273,322.4452
            L209.5636,328.7862L224.4000,326.3093L239.2364,325.4304L254.0727,325.6727L268.9091,307.6640L283.7455,300.7662L298.5818,299.2277L313.4182,300.3814L328.2545,292.5466L343.0909,309.1225
            L357.9273,295.7543L372.7636,289.1350L387.6000,285.9267L402.4364,270.7073L417.2727,260.7803L432.1091,242.2606L446.9455,237.3907L461.7818,230.2109L476.6182,245.5884L491.4545,246.3808
            L506.2909,246.1858L521.1273,250.1623L535.9636,253.0879L550.8000,244.3563"/>
   <path d="M61.2000,308.7367L76.0364,302.0564L90.8727,298.6916L105.7091,298.8038L120.5455,303.4851L135.3818,314.0898L150.2182,296.8015L165.0545,297.1536L179.8909,295.3994L194.7273,285.7409
            L209.5636,281.2394L224.4000,274.6295L239.2364,279.8959L254.0727,274.4747L268.9091,266.9325L283.7455,270.8902L298.5818,262.0707L313.4182,279.2616L328.2545,260.1816L343.0909,267.1902
            L357.9273,260.8478L372.7636,261.7384L387.6000,255.6911L402.4364,255.6422L417.2727,257.4251L432.1091,254.2035L446.9455,242.2454L461.7818,241.9530L476.6182,245.0691L491.4545,236.5740
            L506.2909,241.8505L521.1273,232.3749L535.9636,233.3702L550.8000,231.8930"/>
   <path d="M61.2000,308.2947L76.0364,269.1391L90.8727,242.3538L105.7091,269.8034L120.5455,269.3791L135.3818,254.2320L150.2182,237.0261L165.0545,250.2002L179.8909,249.3823L194.7273,270.4284
            L209.5636,276.6698L224.4000,273.3411L239.2364,291.1470L254.0727,294.1399L268.9091,299.7475L283.7455,279.9376L298.5818,259.8774L313.4182,262.6056L328.2545,258.2258L343.0909,250.9871
            L357.9273,248.3532L372.7636,260.8084L387.6000,247.3541L402.4364,257.4898L417.2727,263.5423L432.1091,240.5834L446.9455,239.8701L461.7818,238.1946L476.6182,241.9879L491.4545,243.4907
            L506.2909,238.3588L521.1273,242.5979L535.9636,250.5998L550.8000,255.4157"/>
   <path d="M61.2000,303.6631L76.0364,313.6941L90.8727,305.9011L105.7091,302.6208L120.5455,304.8151L135.3818,302.6318L150.2182,310.6174L165.0545,310.6551L179.8909,283.3107L194.7273,264.6853
            L209.5636,243.3678L224.4000,235.4818L239.2364,243.3301L254.0727,243.9564L268.9091,253.4978L283.7455,243.2655L298.5818,243.8183L313.4182,241.1060L328.2545,246.2690L343.0909,248.5702
            L357.9273,248.2320L372.7636,243.3444L387.6000,234.8839L402.4364,216.7429L417.2727,211.0966L432.1091,212.2687L446.9455,208.8944L461.7818,217.3142L476.6182,208.6821L491.4545,206.7808
            L506.2909,194.7167L521.1273,195.0146L535.9636,201.9975L550.8000,202.6224"/>
  </g>
  <g style="fill:none; stroke:#FF00FF; stroke-width:  0.9180; stroke-linecap:butt; stroke-linejoin:miter; stroke-dasharray:none">
   <path d="M61.2000,311.5956L76.0364,311.1109L90.8727,335.0192L105.7091,324.4311L120.5455,347.3748L135.3818,343.4796L150.2182,365.5783L165.0545,379.7082L179.8909,400.8585L194.7273,389.4166
            L209.5636,419.2119L224.4000,418.5585L239.2364,395.6337L254.0727,424.1631L268.9091,412.7361L283.7455,421.8117L298.5818,440.5559L313.4182,419.9027L328.2545,437.6853L343.0909,440.7461
            L357.9273,456.7451L372.7636,426.0498L387.6000,452.5118L402.4364,465.2730L417.2727,475.6813L432.1091,487.9720L446.9455,478.0037L461.7818,488.0804L476.6182,487.0297L491.4545,503.6448
            L506.2909,496.8342L521.1273,522.6775L535.9636,536.4346L550.8000,549.0846"/>
   <path d="M61.2000,387.2855L76.0364,401.1197L90.8727,398.6480L105.7091,393.4762L120.5455,390.3170L135.3818,399.1899L150.2182,385.8338L165.0545,397.4239L179.8909,411.6575L194.7273,409.5323
            L209.5636,399.2242L224.4000,395.9532L239.2364,411.8696L254.0727,429.0952L268.9091,437.2106L283.7455,457.1313L298.5818,430.9105L313.4182,429.8028L328.2545,432.1207L343.0909,448.3284
            L357.9273,426.5788L372.7636,482.6839L387.6000,464.5278L402.4364,436.3653L417.2727,439.8289L432.1091,451.0648L446.9455,439.5445L461.7818,433.6051L476.6182,431.9858L491.4545,459.7437
            L506.2909,434.6266L521.1273,450.4522L535.9636,486.8590L550.8000,481.6031"/>
   <path d="M61.2000,428.4115L76.0364,438.2358L90.8727,427.1247L105.7091,421.9227L120.5455,412.6731L135.3818,400.3959L150.2182,396.6257L165.0545,390.8207L179.8909,377.9906L194.7273,390.7892
            L209.5636,400.5022L224.4000,440.5696L239.2364,421.0577L254.0727,437.2540L268.9091,454.2477L283.7455,433.5156L298.5818,425.8539L313.4182,439.3923L328.2545,429.6087L343.0909,478.5805
            L357.9273,438.4665L372.7636,430.6293L387.6000,444.1384L402.4364,436.4547L417.2727,413.3728L432.1091,441.9868L446.9455,462.4202L461.7818,408.0606L476.6182,442.3873L491.4545,432.3506
            L506.2909,439.5800L521.1273,449.3401L535.9636,450.1220L550.8000,430.7187"/>
   <path d="M61.2000,406.0215L76.0364,406.8622L90.8727,403.3057L105.7091,416.5752L120.5455,393.9771L135.3818,399.0952L150.2182,414.3314L165.0545,410.2169L179.8909,414.2841L194.7273,407.4891
            L209.5636,408.9725L224.4000,421.4418L239.2364,407.2500L254.0727,429.9477L268.9091,409.0183L283.7455,428.7672L298.5818,433.3294L313.4182,431.5173L328.2545,420.3766L343.0909,408.5867
            L357.9273,424.6825L372.7636,433.3790L387.6000,465.9116L402.4364,458.5903L417.2727,452.6115L432.1091,443.6727L446.9455,449.6741L461.7818,464.5505L476.6182,446.2256L491.4545,432.0107
            L506.2909,431.1041L521.1273,472.7138L535.9636,471.1859L550.8000,447.9219"/>
   <path d="M61.2000,340.4053L76.0364,295.1390L90.8727,309.9219L105.7091,328.2002L120.5455,357.7820L135.3818,355.9186L150.2182,384.0024L165.0545,361.1563L179.8909,370.3539L194.7273,378.5941
            L209.5636,380.3170L224.4000,374.1290L239.2364,389.2400L254.0727,426.3825L268.9091,411.1563L283.7455,408.0259L298.5818,444.7043L313.4182,440.6679L328.2545,442.5542L343.0909,446.7017
            L357.9273,449.8698L372.7636,456.5131L387.6000,513.2608L402.4364,511.9917L417.2727,497.8266L432.1091,493.2175L446.9455,473.5066L461.7818,490.2894L476.6182,526.0735L491.4545,483.7777
            L506.2909,513.7789L521.1273,513.1780L535.9636,491.2444L550.8000,505.7197"/>
   <path d="M61.2000,377.8960L76.0364,339.8415L90.8727,314.6910L105.7091,366.2794L120.5455,355.7509L135.3818,345.0135L150.2182,323.0458L165.0545,341.9516L179.8909,343.2762L194.7273,376.2192
            L209.5636,397.3013L224.4000,402.5764L239.2364,417.9390L254.0727,439.9315L268.9091,453.2526L283.7455,442.6530L298.5818,430.1967L313.4182,421.3108L328.2545,411.2447L343.0909,436.4385
            L357.9273,417.2649L372.7636,445.7982L387.6000,438.7733L402.4364,469.1355L417.2727,486.6060L432.1091,447.1875L446.9455,482.6181L461.7818,502.6767L476.6182,512.8491L491.4545,520.8984
            L506.2909,497.1549L521.1273,524.9435L535.9636,532.9798L550.8000,549.9043"/>
   <path d="M61.2000,447.0026L76.0364,478.0576L90.8727,469.2744L105.7091,457.7321L120.5455,473.4448L135.3818,457.1619L150.2182,468.4537L165.0545,449.6401L179.8909,440.2488L194.7273,410.4436
            L209.5636,423.7865L224.4000,431.4161L239.2364,422.6959L254.0727,436.7543L268.9091,418.7994L283.7455,428.3182L298.5818,431.0249L313.4182,443.0133L328.2545,428.5693L343.0909,454.2793
            L357.9273,444.9496L372.7636,440.6500L387.6000,434.7234L402.4364,427.4802L417.2727,401.1126L432.1091,399.1667L446.9455,399.6742L461.7818,376.3769L476.6182,402.9334L491.4545,387.8407
            L506.2909,374.9401L521.1273,398.8007L535.9636,405.1266L550.8000,401.7087"/>
   <path d="M61.2000,410.2459L76.0364,388.1495L90.8727,383.6257L105.7091,381.8245L120.5455,389.7471L135.3818,395.7426L150.2182,387.7008L165.0545,405.7794L179.8909,389.3067L194.7273,391.8533
            L209.5636,397.9801L224.4000,398.1838L239.2364,417.7976L254.0727,417.2988L268.9091,428.9115L283.7455,411.4723L298.5818,425.7216L313.4182,419.3040L328.2545,416.2405L343.0909,429.3976
            L357.9273,435.8305L372.7636,434.8996L387.6000,445.3686L402.4364,431.6241L417.2727,463.3090L432.1091,461.0823L446.9455,462.7697L461.7818,461.7786L476.6182,450.2449L491.4545,478.8300
            L506.2909,478.7197L521.1273,491.7852L535.9636,491.0984L550.8000,491.9764"/>
   <path d="M61.2000,392.7196L76.0364,355.2224L90.8727,328.6375L105.7091,371.3664L120.5455,365.5477L135.3818,352.4886L150.2182,331.6542L165.0545,349.6087L179.8909,348.9896L194.7273,369.5592
            L209.5636,399.1871L224.4000,397.5243L239.2364,417.4983L254.0727,439.1145L268.9091,455.0276L283.7455,450.7282L298.5818,427.6688L313.4182,431.9770L328.2545,440.5765L343.0909,431.5934
            L357.9273,442.7623L372.7636,452.5782L387.6000,442.2077L402.4364,459.8387L417.2727,483.8842L432.1091,452.5375L446.9455,467.6930L461.7818,497.2094L476.6182,490.0000L491.4545,485.9338
            L506.2909,484.6532L521.1273,506.4826L535.9636,512.0285L550.8000,531.1012"/>
   <path d="M61.2000,402.3635L76.0364,421.9206L90.8727,411.0467L105.7091,419.4885L120.5455,418.3926L135.3818,414.8985L150.2182,443.6900L165.0545,442.4076L179.8909,434.6945L194.7273,418.3704
            L209.5636,398.6304L224.4000,395.8220L239.2364,404.1429L254.0727,389.2105L268.9091,414.0331L283.7455,418.4327L298.5818,405.9942L313.4182,410.1586L328.2545,434.3550L343.0909,430.4702
            L357.9273,441.8734L372.7636,443.5230L387.6000,440.2260L402.4364,432.8670L417.2727,430.8529L432.1091,427.5606L446.9455,427.5751L461.7818,450.3042L476.6182,455.7177L491.4545,455.7105
            L506.2909,449.4720L521.1273,438.8984L535.9636,466.9801L550.8000,475.5164"/>
  </g>
  <g style="fill:none; stroke:#FF0000; stroke-width:  9.1800; stroke-linecap:butt; stroke-linejoin:miter; stroke-dasharray:none">
   <path d="M61.2000,295.5711L76.0364,290.7150L90.8727,280.4366L105.7091,285.2782L120.5455,285.6956L135.3818,282.8592L150.2182,276.3691L165.0545,278.4987L179.8909,271.4943L194.7273,270.4352
            L209.5636,267.0118L224.4000,265.4488L239.2364,265.1615L254.0727,268.5579L268.9091,265.4202L283.7455,256.8012L298.5818,249.6624L313.4182,245.6759L328.2545,239.5285L343.0909,240.4264
            L357.9273,235.7101L372.7636,236.2257L387.6000,234.3672L402.4364,231.6854L417.2727,225.9287L432.1091,215.1707L446.9455,210.5422L461.7818,206.2932L476.6182,212.5997L491.4545,208.8099
            L506.2909,205.0928L521.1273,206.5686L535.9636,207.1315L550.8000,206.3448"/>
  </g>
  <g style="fill:none; stroke:#FF00FF; stroke-width:  9.1800; stroke-linecap:butt; stroke-linejoin:miter; stroke-dasharray:none">
   <path d="M61.2000,390.3947L76.0364,383.5659L90.8727,378.1295L105.7091,388.1296L120.5455,390.5007L135.3818,386.3384L150.2182,390.0916L165.0545,392.8713L179.8909,393.1660L194.7273,394.2267
            L209.5636,402.5113L224.4000,407.6175L239.2364,410.5125L254.0727,426.9152L268.9091,429.4393L283.7455,430.0856L298.5818,429.5960L313.4182,428.7047L328.2545,429.3332L343.0909,440.5122
            L357.9273,437.9024L372.7636,444.6704L387.6000,454.1650L402.4364,452.9620L417.2727,454.5085L432.1091,450.5449L446.9455,454.3479L461.7818,457.2931L476.6182,464.5447L491.4545,464.0741
            L506.2909,460.0864L521.1273,476.9272L535.9636,484.4060L550.8000,486.5256"/>
  </g>
  <g style="fill:none; stroke:#000000; stroke-width:  0.9180; stroke-linecap:butt; stroke-linejoin:miter; stroke-dasharray:none">
   <path d="M61.2000,61.2000L550.8000,61.2000"/>
   <path d="M61.2000,550.8000L550.8000,550.8000"/>
   <path d="M179.8909,61.2000L179.8909,67.3200"/>
   <path d="M179.8909,550.8000L179.8909,544.6800"/>
   <path d="M328.2545,61.2000L328.2545,67.3200"/>
   <path d="M328.2545,550.8000L328.2545,544.6800"/>
   <path d="M476.6182,61.2000L476.6182,67.3200"/>
   <path d="M476.6182,550.8000L476.6182,544.6800"/>
   <path d="M105.7091,61.2000L105.7091,73.4400"/>
   <path d="M105.7091,550.8000L105.7091,538.5600"/>
   <path d="M254.0727,61.2000L254.0727,73.4400"/>
   <path d="M254.0727,550.8000L254.0727,538.5600"/>
   <path d="M402.4364,61.2000L402.4364,73.4400"/>
   <path d="M402.4364,550.8000L402.4364,538.5600"/>
   <path d="M550.8000,61.2000L550.8000,73.4400"/>
   <path d="M550.8000,550.8000L550.8000,538.5600"/>
   <path d="M61.2000,61.2000L61.2000,550.8000"/>
   <path d="M550.8000,61.2000L550.8000,550.8000"/>
   <path d="M61.2000,61.2000L67.3200,61.2000"/>
   <path d="M550.8000,61.2000L544.6800,61.2000"/>
   <path d="M61.2000,306.0000L67.3200,306.0000"/>
   <path d="M550.8000,306.0000L544.6800,306.0000"/>
   <path d="M61.2000,550.8000L67.3200,550.8000"/>
   <path d="M550.8000,550.8000L544.6800,550.8000"/>
   <path d="M61.2000,183.6000L73.4400,183.6000"/>
   <path d="M550.8000,183.6000L538.5600,183.6000"/>
   <path d="M61.2000,428.4000L73.4400,428.4000"/>
   <path d="M550.8000,428.4000L538.5600,428.4000"/>
   <path d="M61.2000,61.2000L61.2000,550.8000L550.8000,550.8000L550.8000,61.2000z"/>
  </g>
 </g>
</svg>
