<?xml version="1.0" encoding="ISO-8859-1"?>
<!DOCTYPE svg PUBLIC "-//W3C//DTD SVG 1.0//EN" "http://www.w3.org/TR/2001/REC-SVG-20010904/DTD/svg10.dtd">
<!-- generated by Grace-5.1.25 -->
<svg xml:space="preserve" width="11.0000in" height="8.5000in" viewBox="0.0000 0.0000 792.0000 612.0000">
 <g transform="translate(0,612.0000) scale(1,-1)">
 <desc></desc>
  <g style="fill:#FFFFFF; fill-rule:nonzero">
   <path  d="M0.0000,0.0000L0.0000,612.0000L792.0000,612.0000L792.0000,0.0000z"/>
  </g>
  <g style="fill:none; stroke:#000000; stroke-width:  0.9180; stroke-linecap:butt; stroke-linejoin:miter; stroke-dasharray:none">
   <ellipse  rx="6.1200" ry="6.1200" cx="133.5621" cy="91.8000"/>
   <ellipse  rx="6.1200" ry="6.1200" cx="138.0022" cy="98.5265"/>
   <ellipse  rx="6.1200" ry="6.1200" cx="240.6435" cy="227.9661"/>
   <ellipse  rx="6.1200" ry="6.1200" cx="148.7367" cy="114.1542"/>
   <ellipse  rx="6.1200" ry="6.1200" cx="195.4788" cy="179.3594"/>
   <ellipse  rx="6.1200" ry="6.1200" cx="126.5632" cy="91.8000"/>
   <ellipse  rx="6.1200" ry="6.1200" cx="132.5746" cy="94.7518"/>
   <ellipse  rx="6.1200" ry="6.1200" cx="133.1326" cy="96.6883"/>
   <ellipse  rx="6.1200" ry="6.1200" cx="128.8432" cy="91.8000"/>
   <ellipse  rx="6.1200" ry="6.1200" cx="120.7997" cy="91.8000"/>
   <ellipse  rx="6.1200" ry="6.1200" cx="175.9386" cy="148.6939"/>
   <ellipse  rx="6.1200" ry="6.1200" cx="126.0630" cy="91.8000"/>
   <ellipse  rx="6.1200" ry="6.1200" cx="160.0709" cy="138.3758"/>
   <ellipse  rx="6.1200" ry="6.1200" cx="133.0315" cy="103.8352"/>
   <ellipse  rx="6.1200" ry="6.1200" cx="129.0440" cy="91.8000"/>
   <ellipse  rx="6.1200" ry="6.1200" cx="143.6294" cy="121.2860"/>
   <ellipse  rx="6.1200" ry="6.1200" cx="330.0119" cy="340.8322"/>
   <ellipse  rx="6.1200" ry="6.1200" cx="163.2885" cy="141.2704"/>
   <ellipse  rx="6.1200" ry="6.1200" cx="214.5594" cy="193.6147"/>
   <ellipse  rx="6.1200" ry="6.1200" cx="490.1075" cy="519.9289"/>
   <ellipse  rx="6.1200" ry="6.1200" cx="135.7579" cy="93.8088"/>
   <ellipse  rx="6.1200" ry="6.1200" cx="313.0380" cy="316.9329"/>
   <ellipse  rx="6.1200" ry="6.1200" cx="136.9240" cy="104.1328"/>
   <ellipse  rx="6.1200" ry="6.1200" cx="153.3910" cy="115.6029"/>
   <ellipse  rx="6.1200" ry="6.1200" cx="369.1788" cy="384.9421"/>
   <ellipse  rx="6.1200" ry="6.1200" cx="128.5730" cy="92.4104"/>
   <ellipse  rx="6.1200" ry="6.1200" cx="134.3449" cy="99.3542"/>
   <ellipse  rx="6.1200" ry="6.1200" cx="124.4546" cy="91.8000"/>
   <ellipse  rx="6.1200" ry="6.1200" cx="130.8550" cy="95.0241"/>
   <ellipse  rx="6.1200" ry="6.1200" cx="225.7813" cy="213.2676"/>
   <ellipse  rx="6.1200" ry="6.1200" cx="127.7382" cy="91.8353"/>
   <ellipse  rx="6.1200" ry="6.1200" cx="231.7513" cy="222.2727"/>
   <ellipse  rx="6.1200" ry="6.1200" cx="122.5576" cy="91.9958"/>
   <ellipse  rx="6.1200" ry="6.1200" cx="122.2530" cy="91.8000"/>
   <ellipse  rx="6.1200" ry="6.1200" cx="291.0475" cy="288.2515"/>
   <ellipse  rx="6.1200" ry="6.1200" cx="140.1274" cy="106.7976"/>
   <ellipse  rx="6.1200" ry="6.1200" cx="126.9585" cy="91.8000"/>
   <ellipse  rx="6.1200" ry="6.1200" cx="125.3656" cy="91.8000"/>
   <ellipse  rx="6.1200" ry="6.1200" cx="137.9022" cy="100.5715"/>
   <ellipse  rx="6.1200" ry="6.1200" cx="212.1225" cy="199.8524"/>
   <ellipse  rx="6.1200" ry="6.1200" cx="128.2222" cy="91.8000"/>
   <ellipse  rx="6.1200" ry="6.1200" cx="134.2182" cy="103.4845"/>
   <ellipse  rx="6.1200" ry="6.1200" cx="247.8263" cy="237.3572"/>
   <ellipse  rx="6.1200" ry="6.1200" cx="127.0313" cy="91.8000"/>
   <ellipse  rx="6.1200" ry="6.1200" cx="390.2694" cy="405.3996"/>
   <ellipse  rx="6.1200" ry="6.1200" cx="172.0735" cy="138.8947"/>
   <ellipse  rx="6.1200" ry="6.1200" cx="126.2616" cy="91.9861"/>
   <ellipse  rx="6.1200" ry="6.1200" cx="246.2322" cy="235.5139"/>
   <ellipse  rx="6.1200" ry="6.1200" cx="116.7867" cy="91.8000"/>
   <ellipse  rx="6.1200" ry="6.1200" cx="126.9569" cy="91.8000"/>
   <ellipse  rx="6.1200" ry="6.1200" cx="126.3755" cy="91.8000"/>
   <ellipse  rx="6.1200" ry="6.1200" cx="213.0587" cy="198.7844"/>
   <ellipse  rx="6.1200" ry="6.1200" cx="122.7950" cy="92.1264"/>
   <ellipse  rx="6.1200" ry="6.1200" cx="128.5165" cy="92.3314"/>
   <ellipse  rx="6.1200" ry="6.1200" cx="289.7687" cy="290.3700"/>
   <ellipse  rx="6.1200" ry="6.1200" cx="128.0042" cy="91.8000"/>
   <ellipse  rx="6.1200" ry="6.1200" cx="162.1623" cy="128.5188"/>
   <ellipse  rx="6.1200" ry="6.1200" cx="197.4898" cy="177.0540"/>
   <ellipse  rx="6.1200" ry="6.1200" cx="129.0571" cy="92.1300"/>
   <ellipse  rx="6.1200" ry="6.1200" cx="376.3897" cy="401.0611"/>
   <ellipse  rx="6.1200" ry="6.1200" cx="124.2831" cy="93.4261"/>
   <ellipse  rx="6.1200" ry="6.1200" cx="117.9641" cy="91.8095"/>
   <ellipse  rx="6.1200" ry="6.1200" cx="125.8748" cy="91.8000"/>
   <ellipse  rx="6.1200" ry="6.1200" cx="129.6602" cy="94.3544"/>
   <ellipse  rx="6.1200" ry="6.1200" cx="134.3293" cy="95.7834"/>
   <ellipse  rx="6.1200" ry="6.1200" cx="129.9122" cy="96.8450"/>
   <ellipse  rx="6.1200" ry="6.1200" cx="129.5191" cy="91.8000"/>
   <ellipse  rx="6.1200" ry="6.1200" cx="178.3342" cy="155.4999"/>
   <ellipse  rx="6.1200" ry="6.1200" cx="122.9835" cy="91.8096"/>
   <ellipse  rx="6.1200" ry="6.1200" cx="157.0630" cy="127.2924"/>
   <ellipse  rx="6.1200" ry="6.1200" cx="152.1595" cy="125.3563"/>
   <ellipse  rx="6.1200" ry="6.1200" cx="129.6163" cy="91.9686"/>
   <ellipse  rx="6.1200" ry="6.1200" cx="240.0255" cy="233.0397"/>
   <ellipse  rx="6.1200" ry="6.1200" cx="215.0273" cy="197.4824"/>
   <ellipse  rx="6.1200" ry="6.1200" cx="129.8889" cy="94.8045"/>
   <ellipse  rx="6.1200" ry="6.1200" cx="215.7642" cy="199.1634"/>
   <ellipse  rx="6.1200" ry="6.1200" cx="129.7578" cy="92.3838"/>
   <ellipse  rx="6.1200" ry="6.1200" cx="136.7110" cy="100.9001"/>
   <ellipse  rx="6.1200" ry="6.1200" cx="126.5054" cy="91.8136"/>
   <ellipse  rx="6.1200" ry="6.1200" cx="136.0939" cy="94.0241"/>
   <ellipse  rx="6.1200" ry="6.1200" cx="128.7993" cy="91.8000"/>
   <ellipse  rx="6.1200" ry="6.1200" cx="119.8998" cy="91.8000"/>
   <ellipse  rx="6.1200" ry="6.1200" cx="185.9024" cy="155.7071"/>
   <ellipse  rx="6.1200" ry="6.1200" cx="217.3270" cy="200.2405"/>
   <ellipse  rx="6.1200" ry="6.1200" cx="125.6559" cy="91.8001"/>
   <ellipse  rx="6.1200" ry="6.1200" cx="237.5911" cy="224.3267"/>
   <ellipse  rx="6.1200" ry="6.1200" cx="130.5414" cy="93.4946"/>
   <ellipse  rx="6.1200" ry="6.1200" cx="274.3437" cy="278.8424"/>
   <ellipse  rx="6.1200" ry="6.1200" cx="131.5564" cy="97.5605"/>
   <ellipse  rx="6.1200" ry="6.1200" cx="223.2859" cy="213.2391"/>
   <ellipse  rx="6.1200" ry="6.1200" cx="170.3864" cy="144.0305"/>
   <ellipse  rx="6.1200" ry="6.1200" cx="311.5503" cy="309.1349"/>
   <ellipse  rx="6.1200" ry="6.1200" cx="313.4457" cy="327.8898"/>
   <ellipse  rx="6.1200" ry="6.1200" cx="142.0206" cy="111.9935"/>
   <ellipse  rx="6.1200" ry="6.1200" cx="265.0670" cy="257.3842"/>
   <ellipse  rx="6.1200" ry="6.1200" cx="127.5800" cy="93.1169"/>
   <ellipse  rx="6.1200" ry="6.1200" cx="256.6211" cy="246.1726"/>
   <ellipse  rx="6.1200" ry="6.1200" cx="255.3860" cy="242.8162"/>
   <ellipse  rx="6.1200" ry="6.1200" cx="325.4056" cy="329.3948"/>
   <ellipse  rx="6.1200" ry="6.1200" cx="127.9606" cy="92.9143"/>
   <ellipse  rx="6.1200" ry="6.1200" cx="126.5225" cy="91.8001"/>
   <ellipse  rx="6.1200" ry="6.1200" cx="133.8035" cy="94.0673"/>
   <ellipse  rx="6.1200" ry="6.1200" cx="126.3494" cy="91.8000"/>
   <ellipse  rx="6.1200" ry="6.1200" cx="161.1715" cy="131.0412"/>
   <ellipse  rx="6.1200" ry="6.1200" cx="133.4256" cy="96.0851"/>
   <ellipse  rx="6.1200" ry="6.1200" cx="126.4925" cy="92.6104"/>
   <ellipse  rx="6.1200" ry="6.1200" cx="294.2472" cy="300.7363"/>
   <ellipse  rx="6.1200" ry="6.1200" cx="171.9621" cy="138.8947"/>
   <ellipse  rx="6.1200" ry="6.1200" cx="127.5379" cy="91.8000"/>
   <ellipse  rx="6.1200" ry="6.1200" cx="211.2586" cy="192.3389"/>
  </g>
  <g style="fill:none; stroke:#FF0000; stroke-width:  1.8360; stroke-linecap:butt; stroke-linejoin:miter; stroke-dasharray:none">
   <path d="M133.5621,99.6740L138.0022,105.0614L240.6435,229.6029L148.7367,118.0863L195.4788,174.8016L127.0223,91.7388"/>
   <path d="M127.0223,91.7388L132.5746,98.4757L133.1326,99.1528L128.8432,93.9482L127.0223,91.7388"/>
   <path d="M127.0223,91.7388L175.9386,151.0922L127.0223,91.7388"/>
   <path d="M127.0223,91.7388L160.0709,131.8389L133.0315,99.0302L129.0440,94.1918L143.6294,111.8893L330.0119,338.0395L163.2885,135.7429L214.5594,197.9534L490.1075,532.2941L135.7579,102.3383
            L313.0380,317.4440L136.9240,103.7531L153.3910,123.7337L369.1788,385.5633L128.5730,93.6203L134.3449,100.6238L127.0223,91.7388"/>
   <path d="M127.0223,91.7388L130.8550,96.3893L225.7813,211.5696L127.7382,92.6074L231.7513,218.8134L127.0223,91.7388"/>
   <path d="M127.0223,91.7388L291.0475,290.7614L140.1274,107.6401L505.4097,550.8612"/>
   <path d="M127.0223,91.7388L505.4097,550.8612"/>
   <path d="M127.0223,91.7388L137.9022,104.9401L212.1225,194.9965L128.2222,93.1947L134.2182,100.4700L247.8263,238.3183L127.0313,91.7497L390.2694,411.1538L172.0735,146.4024L127.0223,91.7388"/>
   <path d="M127.0223,91.7388L246.2322,236.3840L127.0223,91.7388"/>
   <path d="M127.0223,91.7388L213.0587,196.1324L127.0223,91.7388"/>
   <path d="M127.0223,91.7388L128.5165,93.5518L289.7687,289.2097L128.0042,92.9303L162.1623,134.3764L197.4898,177.2416L129.0571,94.2078L376.3897,394.3127L127.0223,91.7388"/>
   <path d="M127.0223,91.7388L129.6602,94.9395L134.3293,100.6049L129.9122,95.2453L129.5191,94.7683L178.3342,153.9990L127.0223,91.7388"/>
   <path d="M127.0223,91.7388L157.0630,128.1892L152.1595,122.2394L129.6163,94.8863L240.0255,228.8530L215.0273,198.5210L129.8889,95.2170L215.7642,199.4153L129.7578,95.0579L136.7110,103.4947
            L127.0223,91.7388"/>
   <path d="M127.0223,91.7388L136.0939,102.7459L128.7993,93.8949L127.0223,91.7388"/>
   <path d="M127.0223,91.7388L185.9024,163.1819L217.3270,201.3115L127.0223,91.7388"/>
   <path d="M127.0223,91.7388L237.5911,225.8992L130.5414,96.0087L274.3437,270.4936L131.5564,97.2404L223.2859,208.5418L170.3864,144.3554L311.5503,315.6387L313.4457,317.9386L142.0206,109.9372
            L265.0670,259.2375L127.5800,92.4155L256.6211,248.9896L255.3860,247.4909L325.4056,332.4504L127.9606,92.8773L127.0223,91.7388"/>
   <path d="M127.0223,91.7388L133.8035,99.9669L127.0223,91.7388"/>
   <path d="M127.0223,91.7388L161.1715,133.1743L133.4256,99.5083L127.0223,91.7388"/>
   <path d="M127.0223,91.7388L294.2472,294.6438L171.9621,146.2672L505.4097,550.8612"/>
   <path d="M505.4097,550.8612L127.5379,92.3644L211.2586,193.9483"/>
  </g>
  <g style="fill:none; stroke:#000000; stroke-width:  0.9180; stroke-linecap:butt; stroke-linejoin:miter; stroke-dasharray:none">
   <path d="M91.8000,91.8000L550.8000,91.8000"/>
   <path d="M91.8000,550.8000L550.8000,550.8000"/>
   <path d="M91.8000,91.8000L91.8000,104.0400"/>
   <path d="M91.8000,550.8000L91.8000,538.5600"/>
   <path d="M244.8000,91.8000L244.8000,104.0400"/>
   <path d="M244.8000,550.8000L244.8000,538.5600"/>
   <path d="M397.8000,91.8000L397.8000,104.0400"/>
   <path d="M397.8000,550.8000L397.8000,538.5600"/>
   <path d="M550.8000,91.8000L550.8000,104.0400"/>
   <path d="M550.8000,550.8000L550.8000,538.5600"/>
  </g>
  <g style="fill:#000000; fill-rule:nonzero">
   <text   style="font-family:'Times','Nimbus Roman'; font-style:normal; font-weight:normal; font-size:612.0000" transform="matrix(0.0280,0.0000,-0.0000,-0.0280,87.8000,74.6800)">0</text>
   <text   style="font-family:'Times','Nimbus Roman'; font-style:normal; font-weight:normal; font-size:612.0000" transform="matrix(0.0280,0.0000,-0.0000,-0.0280,230.8000,73.6800)">0.01</text>
   <text   style="font-family:'Times','Nimbus Roman'; font-style:normal; font-weight:normal; font-size:612.0000" transform="matrix(0.0280,0.0000,-0.0000,-0.0280,383.3000,74.6800)">0.02</text>
   <text   style="font-family:'Times','Nimbus Roman'; font-style:normal; font-weight:normal; font-size:612.0000" transform="matrix(0.0280,0.0000,-0.0000,-0.0280,536.8000,74.6800)">0.03</text>
  </g>
  <g style="fill:none; stroke:#000000; stroke-width:  0.9180; stroke-linecap:butt; stroke-linejoin:miter; stroke-dasharray:none">
   <path d="M91.8000,91.8000L91.8000,550.8000"/>
   <path d="M550.8000,91.8000L550.8000,550.8000"/>
   <path d="M91.8000,91.8000L104.0400,91.8000"/>
   <path d="M550.8000,91.8000L538.5600,91.8000"/>
   <path d="M91.8000,244.8000L104.0400,244.8000"/>
   <path d="M550.8000,244.8000L538.5600,244.8000"/>
   <path d="M91.8000,397.8000L104.0400,397.8000"/>
   <path d="M550.8000,397.8000L538.5600,397.8000"/>
   <path d="M91.8000,550.8000L104.0400,550.8000"/>
   <path d="M550.8000,550.8000L538.5600,550.8000"/>
  </g>
  <g style="fill:#000000; fill-rule:nonzero">
   <text   style="font-family:'Times','Nimbus Roman'; font-style:normal; font-weight:normal; font-size:612.0000" transform="matrix(0.0280,0.0000,-0.0000,-0.0280,77.6800,86.3000)">0</text>
   <text   style="font-family:'Times','Nimbus Roman'; font-style:normal; font-weight:normal; font-size:612.0000" transform="matrix(0.0280,0.0000,-0.0000,-0.0280,57.6800,238.8000)">0.01</text>
   <text   style="font-family:'Times','Nimbus Roman'; font-style:normal; font-weight:normal; font-size:612.0000" transform="matrix(0.0280,0.0000,-0.0000,-0.0280,56.6800,392.3000)">0.02</text>
   <text   style="font-family:'Times','Nimbus Roman'; font-style:normal; font-weight:normal; font-size:612.0000" transform="matrix(0.0280,0.0000,-0.0000,-0.0280,57.6800,545.3000)">0.03</text>
  </g>
  <g style="fill:none; stroke:#000000; stroke-width:  0.9180; stroke-linecap:butt; stroke-linejoin:miter; stroke-dasharray:none">
   <path d="M91.8000,91.8000L91.8000,550.8000L550.8000,550.8000L550.8000,91.8000z"/>
  </g>
 </g>
</svg>
