<?xml version="1.0" encoding="ISO-8859-1"?>
<!DOCTYPE svg PUBLIC "-//W3C//DTD SVG 1.0//EN" "http://www.w3.org/TR/2001/REC-SVG-20010904/DTD/svg10.dtd">
<!-- generated by Grace-5.1.25 -->
<svg xml:space="preserve" width="11.0000in" height="8.5000in" viewBox="0.0000 0.0000 792.0000 612.0000">
 <g transform="translate(0,612.0000) scale(1,-1)">
  <g style="fill:#FFFFFF; fill-rule:nonzero">
   <path  d="M0.0000,0.0000L0.0000,612.0000L792.0000,612.0000L792.0000,0.0000z"/>
  </g>
  <g style="fill:none; stroke:#000000; stroke-width:  0.9180; stroke-linecap:butt; stroke-linejoin:miter; stroke-dasharray:none">
   <path d="M61.2000,61.2000L80.7840,101.8698L100.3680,137.9271L119.9520,169.9165L139.5360,198.3130L159.1200,223.5664L178.7040,246.0492L198.2880,266.0895L217.8720,283.9762L237.4560,299.9637
            L257.0400,314.2761L276.6240,327.1109L296.2080,338.6420L315.7920,349.0226L335.3760,358.3876L354.9600,366.8561L374.5440,374.5326L394.1280,381.5098L413.7120,387.8688L433.2960,393.6814
            L452.8800,399.0109L472.4640,403.9130L492.0480,408.4368L511.6320,412.6256L531.2160,416.5177L550.8000,420.1466L550.8612,420.1572"/>
   <path d="M61.2000,61.2000L80.7840,100.5005L100.3680,135.5876L119.9520,166.9366L139.5360,194.9593L159.1200,220.0527L178.7040,242.5467L198.2880,262.7332L217.8720,280.8715L237.4560,297.1909
            L257.0400,311.8949L276.6240,325.1639L296.2080,337.1576L315.7920,348.0176L335.3760,357.8696L354.9600,366.8247L374.5440,374.9817L394.1280,382.4280L413.7120,389.2410L433.2960,395.4895
            L452.8800,401.2344L472.4640,406.5297L492.0480,411.4232L511.6320,415.9575L531.2160,420.1702L550.8000,424.0947L550.8612,424.1061"/>
   <path d="M61.2000,61.2000L80.7840,108.8217L100.3680,150.1321L119.9520,186.0096L139.5360,217.1967L159.1200,244.3762L178.7040,268.1049L198.2880,288.8620L217.8720,307.0602L237.4560,323.0546
            L257.0400,337.1510L276.6240,349.6125L296.2080,360.6655L315.7920,370.5049L335.3760,379.2985L354.9600,387.1907L374.5440,394.3055L394.1280,400.7498L413.7120,406.6157L433.2960,411.9822
            L452.8800,416.9174L472.4640,421.4798L492.0480,425.7198L511.6320,429.6808L531.2160,433.4000L550.8000,436.9095L550.8612,436.9199"/>
   <path d="M61.2000,61.2000L80.7840,96.4407L100.3680,128.2754L119.9520,157.0509L139.5360,183.0694L159.1200,206.6286L178.7040,227.9785L198.2880,247.3432L217.8720,264.9235L237.4560,280.8999
            L257.0400,295.4343L276.6240,308.6721L296.2080,320.7437L315.7920,331.7663L335.3760,341.8450L354.9600,351.0742L374.5440,359.5387L394.1280,367.3144L413.7120,374.4698L433.2960,381.0662
            L452.8800,387.1586L472.4640,392.7965L492.0480,398.0242L511.6320,402.8817L531.2160,407.4047L550.8000,411.6253L550.8612,411.6376"/>
   <path d="M61.2000,61.2000L80.7840,106.2638L100.3680,145.5907L119.9520,179.9453L139.5360,209.9727L159.1200,236.2700L178.7040,259.3339L198.2880,279.5922L217.8720,297.4162L237.4560,313.1278
            L257.0400,327.0064L276.6240,339.2942L296.2080,350.2013L315.7920,359.9098L335.3760,368.5779L354.9600,376.3424L374.5440,383.3224L394.1280,389.6208L413.7120,395.3269L433.2960,400.5184
            L452.8800,405.2625L472.4640,409.6175L492.0480,413.6339L511.6320,417.3556L531.2160,420.8208L550.8000,424.0624L550.8612,424.0719"/>
   <path d="M61.2000,61.2000L80.7840,106.4310L100.3680,145.8665L119.9520,180.2757L139.5360,210.3157L159.1200,236.5955L178.7040,259.6140L198.2880,279.8034L217.8720,297.5385L237.4560,313.1438
            L257.0400,326.9007L276.6240,339.0528L296.2080,349.8116L315.7920,359.3599L335.3760,367.8565L354.9600,375.4388L374.5440,382.2260L394.1280,388.3214L413.7120,393.8144L433.2960,398.7825
            L452.8800,403.2932L472.4640,407.4045L492.0480,411.1671L511.6320,414.6247L531.2160,417.8153L550.8000,420.7719L550.8612,420.7805"/>
   <path d="M61.2000,61.2000L80.7840,98.2008L100.3680,131.3893L119.9520,161.1748L139.5360,187.9172L159.1200,211.9644L178.7040,233.6069L198.2880,253.1034L217.8720,270.6843L237.4560,286.5554
            L257.0400,300.8998L276.6240,313.8812L296.2080,325.6452L315.7920,336.3218L335.3760,346.0270L354.9600,354.8642L374.5440,362.9257L394.1280,370.2938L413.7120,377.0419L433.2960,383.2357
            L452.8800,388.9335L472.4640,394.1876L492.0480,399.0445L511.6320,403.5459L531.2160,407.7289L550.8000,411.6266L550.8612,411.6380"/>
   <path d="M61.2000,61.2000L80.7840,100.5957L100.3680,135.6679L119.9520,166.9110L139.5360,194.7579L159.1200,219.6212L178.7040,241.8433L198.2880,261.7272L217.8720,279.5408L237.4560,295.5210
            L257.0400,309.8774L276.6240,322.7955L296.2080,334.4393L315.7920,344.9540L335.3760,354.4681L354.9600,363.0952L374.5440,370.9359L394.1280,378.0794L413.7120,384.6045L433.2960,390.5809
            L452.8800,396.0704L472.4640,401.1278L492.0480,405.8014L511.6320,410.1343L531.2160,414.1643L550.8000,417.9252L550.8612,417.9362"/>
   <path d="M61.2000,61.2000L80.7840,104.2289L100.3680,142.1904L119.9520,175.7112L139.5360,205.3380L159.1200,231.5806L178.7040,254.8601L198.2880,275.5449L217.8720,293.9571L237.4560,310.3786
            L257.0400,325.0562L276.6240,338.2057L296.2080,350.0158L315.7920,360.6519L335.3760,370.2586L354.9600,378.9624L374.5440,386.8740L394.1280,394.0904L413.7120,400.6963L433.2960,406.7660
            L452.8800,412.3645L472.4640,417.5486L492.0480,422.3680L511.6320,426.8663L531.2160,431.0816L550.8000,435.0472L550.8612,435.0589"/>
   <path d="M61.2000,61.2000L80.7840,99.5714L100.3680,133.8785L119.9520,164.5732L139.5360,192.0511L159.1200,216.6925L178.7040,238.8141L198.2880,258.6967L217.8720,276.5899L237.4560,292.7154
            L257.0400,307.2698L276.6240,320.4280L296.2080,332.3452L315.7920,343.1593L335.3760,352.9928L354.9600,361.9545L374.5440,370.1411L394.1280,377.6385L413.7120,384.5230L433.2960,390.8624
            L452.8800,396.7169L472.4640,402.1402L492.0480,407.1799L511.6320,411.8781L531.2160,416.2726L550.8000,420.3968L550.8612,420.4089"/>
   <path d="M61.2000,61.2000L80.7840,107.1399L100.3680,147.1721L119.9520,182.0889L139.5360,212.5705L159.1200,239.2430L178.7040,262.6192L198.2880,283.1426L217.8720,301.1970L237.4560,317.1143
            L257.0400,331.1817L276.6240,343.6477L296.2080,354.7272L315.7920,364.6062L335.3760,373.4455L354.9600,381.3845L374.5440,388.5436L394.1280,395.0271L413.7120,400.9251L433.2960,406.3158
            L452.8800,411.2668L472.4640,415.8365L492.0480,420.0757L511.6320,424.0281L531.2160,427.7318L550.8000,431.2196L550.8612,431.2299"/>
   <path d="M61.2000,61.2000L80.7840,99.6868L100.3680,134.0103L119.9520,164.6391L139.5360,191.9775L159.1200,216.4167L178.7040,238.2817L198.2880,257.8607L217.8720,275.4092L237.4560,291.1539
            L257.0400,305.2958L276.6240,318.0133L296.2080,329.4645L315.7920,339.7897L335.3760,349.1132L354.9600,357.5456L374.5440,365.1846L394.1280,372.1171L413.7120,378.4203L433.2960,384.1623
            L452.8800,389.4039L472.4640,394.1987L492.0480,398.5947L511.6320,402.6340L531.2160,406.3543L550.8000,409.7888L550.8612,409.7987"/>
   <path d="M61.2000,61.2000L80.7840,100.2707L100.3680,135.0608L119.9520,166.0584L139.5360,193.6891L159.1200,218.3599L178.7040,240.4089L198.2880,260.1350L217.8720,277.8032L237.4560,293.6477
            L257.0400,307.8759L276.6240,320.6715L296.2080,332.1970L315.7920,342.5962L335.3760,351.9967L354.9600,360.5113L374.5440,368.2399L394.1280,375.2709L413.7120,381.6828L433.2960,387.5449
            L452.8800,392.9187L472.4640,397.8588L492.0480,402.4133L511.6320,406.6250L531.2160,410.5319L550.8000,414.1673L550.8612,414.1779"/>
   <path d="M61.2000,61.2000L80.7840,97.2495L100.3680,129.7157L119.9520,158.9760L139.5360,185.3531L159.1200,209.1634L178.7040,230.6750L198.2880,250.1264L217.8720,267.7311L237.4560,283.6802
            L257.0400,298.1448L276.6240,311.2780L296.2080,323.2171L315.7920,334.0846L335.3760,343.9905L354.9600,353.0331L374.5440,361.3005L394.1280,368.8712L413.7120,375.8159L433.2960,382.1977
            L452.8800,388.0728L472.4640,393.4920L492.0480,398.5003L511.6320,403.1382L531.2160,407.4417L550.8000,411.4434L550.8612,411.4550"/>
   <path d="M61.2000,61.2000L80.7840,103.3210L100.3680,140.4954L119.9520,173.3283L139.5360,202.3449L159.1200,228.0386L178.7040,250.8172L198.2880,271.0376L217.8720,289.0132L237.4560,305.0183
            L257.0400,319.2936L276.6240,332.0500L296.2080,343.4725L315.7920,353.7233L335.3760,362.9445L354.9600,371.2608L374.5440,378.7816L394.1280,385.6029L413.7120,391.8086L433.2960,397.4727
            L452.8800,402.6597L472.4640,407.4266L492.0480,411.8231L511.6320,415.8929L531.2160,419.6744L550.8000,423.2013L550.8612,423.2116"/>
   <path d="M61.2000,61.2000L80.7840,103.7800L100.3680,141.5363L119.9520,175.0164L139.5360,204.6939L159.1200,231.0244L178.7040,254.3857L198.2880,275.1125L217.8720,293.5014L237.4560,309.8152
            L257.0400,324.2872L276.6240,337.1245L296.2080,348.5107L315.7920,358.6088L335.3760,367.5637L354.9600,375.5040L374.5440,382.5439L394.1280,388.7848L413.7120,394.3166L433.2960,399.2194
            L452.8800,403.5640L472.4640,407.4135L492.0480,410.8238L511.6320,413.8443L531.2160,416.5192L550.8000,418.8874L550.8612,418.8939"/>
   <path d="M61.2000,61.2000L80.7840,96.5417L100.3680,129.7458L119.9520,160.8348L139.5360,189.8079L159.1200,216.6840L178.7040,241.4873L198.2880,264.2575L217.8720,285.0574L237.4560,303.9735
            L257.0400,321.1126L276.6240,336.5970L296.2080,350.5584L315.7920,363.1315L335.3760,374.4496L354.9600,384.6398L374.5440,393.8210L394.1280,402.1020L413.7120,409.5812L433.2960,416.3465
            L452.8800,422.4759L472.4640,428.0383L492.0480,433.0943L511.6320,437.6973L531.2160,441.8940L550.8000,445.7258L550.8612,445.7368"/>
   <path d="M61.2000,61.2000L80.7840,100.5985L100.3680,135.7904L119.9520,167.2535L139.5360,195.4052L159.1200,220.6453L178.7040,243.3062L198.2880,263.6824L217.8720,282.0347L237.4560,298.5943
            L257.0400,313.5659L276.6240,327.1312L296.2080,339.4508L315.7920,350.6673L335.3760,360.9070L354.9600,370.2819L374.5440,378.8911L394.1280,386.8226L413.7120,394.1543L433.2960,400.9553
            L452.8800,407.2869L472.4640,413.2033L492.0480,418.7526L511.6320,423.9776L531.2160,428.9160L550.8000,433.6014L550.8612,433.6154"/>
   <path d="M61.2000,61.2000L80.7840,102.0249L100.3680,138.1171L119.9520,170.0429L139.5360,198.2973L159.1200,223.3455L178.7040,245.5731L198.2880,265.3184L217.8720,282.8792L237.4560,298.5170
            L257.0400,312.4618L276.6240,324.9157L296.2080,336.0565L315.7920,346.0406L335.3760,355.0054L354.9600,363.0719L374.5440,370.3464L394.1280,376.9226L413.7120,382.8829L433.2960,388.2997
            L452.8800,393.2368L472.4640,397.7504L492.0480,401.8898L511.6320,405.6987L531.2160,409.2153L550.8000,412.4734L550.8612,412.4829"/>
   <path d="M61.2000,61.2000L80.7840,100.4522L100.3680,135.4705L119.9520,166.7396L139.5360,194.6748L159.1200,219.6780L178.7040,242.0828L198.2880,262.1844L217.8720,280.2443L237.4560,296.4941
            L257.0400,311.1389L276.6240,324.3602L296.2080,336.3187L315.7920,347.1567L335.3760,357.0003L354.9600,365.9610L374.5440,374.1375L394.1280,381.6171L413.7120,388.4774L433.2960,394.7866
            L452.8800,400.6054L472.4640,405.9874L492.0480,410.9799L511.6320,415.6249L531.2160,419.9594L550.8000,424.0163L550.8612,424.0283"/>
   <path d="M61.2000,61.2000L80.7840,108.8951L100.3680,150.1037L119.9520,185.7328L139.5360,216.5601L159.1200,243.2907L178.7040,266.4995L198.2880,286.6799L217.8720,304.2559L237.4560,319.5911
            L257.0400,332.9982L276.6240,344.7453L296.2080,355.0631L315.7920,364.1493L335.3760,372.1742L354.9600,379.2836L374.5440,385.6031L394.1280,391.2405L413.7120,396.2884L433.2960,400.8264
            L452.8800,404.9230L472.4640,408.6369L492.0480,412.0187L511.6320,415.1119L531.2160,417.9538L550.8000,420.5766L550.8612,420.5842"/>
   <path d="M61.2000,61.2000L80.7840,101.0872L100.3680,136.6966L119.9520,168.5216L139.5360,196.9807L159.1200,222.4738L178.7040,245.3408L198.2880,265.8797L217.8720,284.3545L237.4560,300.9986
            L257.0400,316.0189L276.6240,329.5985L296.2080,341.8995L315.7920,353.0652L335.3760,363.2225L354.9600,372.4839L374.5440,380.9486L394.1280,388.7045L413.7120,395.8294L433.2960,402.3922
            L452.8800,408.4537L472.4640,414.0677L492.0480,419.2818L511.6320,424.1382L531.2160,428.6742L550.8000,432.9228L550.8612,432.9352"/>
   <path d="M61.2000,61.2000L80.7840,101.4018L100.3680,137.2440L119.9520,169.2279L139.5360,197.7885L159.1200,223.3426L178.7040,246.2361L198.2880,266.7747L217.8720,285.2288L237.4560,301.8373
            L257.0400,316.8114L276.6240,330.3380L296.2080,342.5821L315.7920,353.6897L335.3760,363.7898L354.9600,372.9965L374.5440,381.4105L394.1280,389.1210L413.7120,396.2066L433.2960,402.7370
            L452.8800,408.7736L472.4640,414.3708L492.0480,419.5766L511.6320,424.4334L531.2160,428.9788L550.8000,433.2457L550.8612,433.2583"/>
   <path d="M61.2000,61.2000L80.7840,98.1043L100.3680,131.1557L119.9520,160.7741L139.5360,187.3203L159.1200,211.1422L178.7040,232.5363L198.2880,251.7641L217.8720,269.0591L237.4560,284.6291
            L257.0400,298.6594L276.6240,311.3153L296.2080,322.7440L315.7920,333.0770L335.3760,342.4311L354.9600,350.9108L374.5440,358.6091L394.1280,365.6088L413.7120,371.9841L433.2960,377.8008
            L452.8800,383.1178L472.4640,387.9874L492.0480,392.4564L511.6320,396.5667L531.2160,400.3554L550.8000,403.8557L550.8612,403.8658"/>
   <path d="M61.2000,61.2000L80.7840,99.7851L100.3680,134.7498L119.9520,166.4541L139.5360,195.2033L159.1200,221.2970L178.7040,244.9923L198.2880,266.5169L217.8720,286.0757L237.4560,303.8525
            L257.0400,320.0133L276.6240,334.7074L296.2080,348.0696L315.7920,360.2220L335.3760,371.2747L354.9600,381.3278L374.5440,390.4718L394.1280,398.7891L413.7120,406.3543L433.2960,413.2355
            L452.8800,419.4944L472.4640,425.1875L492.0480,430.3658L511.6320,435.0761L531.2160,439.3610L550.8000,443.2590L550.8612,443.2701"/>
   <path d="M61.2000,61.2000L80.7840,96.9164L100.3680,129.1117L119.9520,158.1539L139.5360,184.3584L159.1200,208.0321L178.7040,229.4386L198.2880,248.8115L217.8720,266.3600L237.4560,282.2717
            L257.0400,296.7146L276.6240,309.8394L296.2080,321.7811L315.7920,332.6606L335.3760,342.5863L354.9600,351.6554L374.5440,359.9549L394.1280,367.5628L413.7120,374.5491L433.2960,380.9763
            L452.8800,386.9006L472.4640,392.3723L492.0480,397.4365L511.6320,402.1334L531.2160,406.4994L550.8000,410.5669L550.8612,410.5788"/>
   <path d="M61.2000,61.2000L80.7840,99.6760L100.3680,134.0054L119.9520,164.6527L139.5360,192.0226L159.1200,216.5046L178.7040,238.4221L198.2880,258.0622L217.8720,275.6794L237.4560,291.4996
            L257.0400,305.7230L276.6240,318.5272L296.2080,330.0700L315.7920,340.4911L335.3760,349.9147L354.9600,358.4508L374.5440,366.1971L394.1280,373.2403L413.7120,379.6573L433.2960,385.5164
            L452.8800,390.8783L472.4640,395.7967L492.0480,400.3194L511.6320,404.4888L531.2160,408.3424L550.8000,411.9137L550.8612,411.9241"/>
   <path d="M61.2000,61.2000L80.7840,101.1825L100.3680,136.9887L119.9520,169.0826L139.5360,197.8657L159.1200,223.7268L178.7040,246.9882L198.2880,267.9360L217.8720,286.8240L237.4560,303.8769
            L257.0400,319.2944L276.6240,333.2533L296.2080,345.9105L315.7920,357.4051L335.3760,367.8606L354.9600,377.3865L374.5440,386.0799L394.1280,394.0269L413.7120,401.3042L433.2960,407.9796
            L452.8800,414.1135L472.4640,419.7596L492.0480,424.9655L511.6320,429.7736L531.2160,434.2217L550.8000,438.3435L550.8612,438.3555"/>
   <path d="M61.2000,61.2000L80.7840,100.1320L100.3680,134.8324L119.9520,165.7802L139.5360,193.3930L159.1200,218.0710L178.7040,240.1468L198.2880,259.9149L217.8720,277.6362L237.4560,293.5417
            L257.0400,307.8362L276.6240,320.7011L296.2080,332.2970L315.7920,342.7664L335.3760,352.2355L354.9600,360.8160L374.5440,368.6071L394.1280,375.6967L413.7120,382.1625L433.2960,388.0735
            L452.8800,393.4911L472.4640,398.4693L492.0480,403.0564L511.6320,407.2948L531.2160,411.2225L550.8000,414.8730L550.8612,414.8836"/>
   <path d="M61.2000,61.2000L80.7840,98.1823L100.3680,131.5436L119.9520,161.6587L139.5360,188.8524L159.1200,213.4425L178.7040,235.6970L198.2880,255.8543L217.8720,274.1278L237.4560,290.7086
            L257.0400,305.7675L276.6240,319.4575L296.2080,331.9155L315.7920,343.2640L335.3760,353.6128L354.9600,363.0600L374.5440,371.6937L394.1280,379.5926L413.7120,386.8276L433.2960,393.4618
            L452.8800,399.5521L472.4640,405.1495L492.0480,410.2996L511.6320,415.0437L531.2160,419.4186L550.8000,423.4574L550.8612,423.4691"/>
   <path d="M61.2000,61.2000L80.7840,106.1442L100.3680,145.4597L119.9520,179.8815L139.5360,210.0474L159.1200,236.5440L178.7040,259.8535L198.2880,280.3947L217.8720,298.5311L237.4560,314.5784
            L257.0400,328.8105L276.6240,341.4656L296.2080,352.7503L315.7920,362.8443L335.3760,371.9034L354.9600,380.0632L374.5440,387.4413L394.1280,394.1401L413.7120,400.2484L433.2960,405.8434
            L452.8800,410.9922L472.4640,415.7532L492.0480,420.1769L511.6320,424.3077L531.2160,428.1836L550.8000,431.8381L550.8612,431.8489"/>
   <path d="M61.2000,61.2000L80.7840,109.6740L100.3680,151.2953L119.9520,187.0521L139.5360,217.7865L159.1200,244.2571L178.7040,267.0802L198.2880,286.7822L217.8720,303.8132L237.4560,318.5577
            L257.0400,331.3443L276.6240,342.4542L296.2080,352.1273L315.7920,360.5691L335.3760,367.9551L354.9600,374.4353L374.5440,380.1383L394.1280,385.1739L413.7120,389.6359L433.2960,393.6048
            L452.8800,397.1495L472.4640,400.3288L492.0480,403.1931L511.6320,405.7857L531.2160,408.1434L550.8000,410.2982L550.8612,410.3043"/>
   <path d="M61.2000,61.2000L80.7840,102.5420L100.3680,138.9370L119.9520,170.9907L139.5360,199.2264L159.1200,224.1376L178.7040,246.1312L198.2880,265.5640L217.8720,282.7488L237.4560,297.9598
            L257.0400,311.4372L276.6240,323.3916L296.2080,334.0079L315.7920,343.4480L335.3760,351.8539L354.9600,359.3501L374.5440,366.0460L394.1280,372.0373L413.7120,377.4080L433.2960,382.2320
            L452.8800,386.5740L472.4640,390.4908L492.0480,394.0322L511.6320,397.2420L531.2160,400.1586L550.8000,402.8157L550.8612,402.8233"/>
   <path d="M61.2000,61.2000L80.7840,106.4338L100.3680,146.0152L119.9520,180.6837L139.5360,211.0741L159.1200,237.7749L178.7040,261.2694L198.2880,281.9770L217.8720,300.2618L237.4560,316.4400
            L257.0400,330.7862L276.6240,343.5386L296.2080,354.9041L315.7920,365.0623L335.3760,374.1691L354.9600,382.3598L374.5440,389.7519L394.1280,396.4473L413.7120,402.5345L433.2960,408.0903
            L452.8800,413.1815L472.4640,417.8658L492.0480,422.1935L511.6320,426.2081L531.2160,429.9476L550.8000,433.4446L550.8612,433.4549"/>
   <path d="M61.2000,61.2000L80.7840,98.2837L100.3680,131.5384L119.9520,161.3780L139.5360,188.1624L159.1200,212.2422L178.7040,233.9091L198.2880,253.4233L217.8720,271.0165L237.4560,286.8953
            L257.0400,301.2438L276.6240,314.2260L296.2080,325.9882L315.7920,336.6609L335.3760,346.3601L354.9600,355.1896L374.5440,363.2415L394.1280,370.5983L413.7120,377.3334L433.2960,383.5121
            L452.8800,389.1928L472.4640,394.4276L492.0480,399.2627L511.6320,403.7396L531.2160,407.8951L550.8000,411.7621L550.8612,411.7734"/>
   <path d="M61.2000,61.2000L80.7840,94.0128L100.3680,123.8835L119.9520,151.0928L139.5360,175.8833L159.1200,198.4953L178.7040,219.1363L198.2880,237.9918L217.8720,255.2296L237.4560,271.0017
            L257.0400,285.4455L276.6240,298.6854L296.2080,310.8341L315.7920,321.9936L335.3760,332.2559L354.9600,341.7047L374.5440,350.4155L394.1280,358.4566L413.7120,365.8901L433.2960,372.7718
            L452.8800,379.1525L472.4640,385.0781L492.0480,390.5902L511.6320,395.7263L531.2160,400.5206L550.8000,405.0037L550.8612,405.0169"/>
   <path d="M61.2000,61.2000L80.7840,102.8477L100.3680,140.2967L119.9520,173.9977L139.5360,204.3369L159.1200,231.6901L178.7040,256.3680L198.2880,278.6465L217.8720,298.7704L237.4560,316.9574
            L257.0400,333.4017L276.6240,348.2763L296.2080,361.7360L315.7920,373.9195L335.3760,384.9509L354.9600,394.9421L374.5440,403.9935L394.1280,412.1958L413.7120,419.6307L433.2960,426.3722
            L452.8800,432.4869L472.4640,438.0353L492.0480,443.0720L511.6320,447.6464L531.2160,451.8032L550.8000,455.5829L550.8612,455.5936"/>
   <path d="M61.2000,61.2000L80.7840,107.3472L100.3680,147.4703L119.9520,182.3828L139.5360,212.7811L159.1200,239.3053L178.7040,262.4792L198.2880,282.7553L217.8720,300.5244L237.4560,316.1242
            L257.0400,329.8465L276.6240,341.9432L296.2080,352.6323L315.7920,362.1019L335.3760,370.5144L354.9600,378.0105L374.5440,384.7113L394.1280,390.7219L413.7120,396.1329L433.2960,401.0225
            L452.8800,405.4583L472.4640,409.4990L492.0480,413.1950L511.6320,416.5901L531.2160,419.7219L550.8000,422.6230L550.8612,422.6315"/>
   <path d="M61.2000,61.2000L80.7840,95.9371L100.3680,127.4903L119.9520,156.1774L139.5360,182.2667L159.1200,206.0207L178.7040,227.6703L198.2880,247.4192L217.8720,265.4512L237.4560,281.9322
            L257.0400,297.0113L276.6240,310.8234L296.2080,323.4898L315.7920,335.1197L335.3760,345.8119L354.9600,355.6551L374.5440,364.7294L394.1280,373.1070L413.7120,380.8528L433.2960,388.0254
            L452.8800,394.6777L472.4640,400.8571L492.0480,406.6066L511.6320,411.9648L531.2160,416.9665L550.8000,421.6432L550.8612,421.6568"/>
   <path d="M61.2000,61.2000L80.7840,97.5076L100.3680,130.2108L119.9520,159.6854L139.5360,186.2594L159.1200,210.2542L178.7040,231.9381L198.2880,251.5513L217.8720,269.3083L237.4560,285.4015
            L257.0400,300.0027L276.6240,313.2657L296.2080,325.3284L315.7920,336.3138L335.3760,346.3324L354.9600,355.4829L374.5440,363.8535L394.1280,371.5235L413.7120,378.5637L433.2960,385.0373
            L452.8800,391.0013L472.4640,396.5065L492.0480,401.5983L511.6320,406.3175L531.2160,410.7007L550.8000,414.7805L550.8612,414.7924"/>
   <path d="M61.2000,61.2000L80.7840,104.8837L100.3680,143.4121L119.9520,177.4344L139.5360,207.5051L159.1200,234.1473L178.7040,257.7919L198.2880,278.8153L217.8720,297.5468L237.4560,314.2740
            L257.0400,329.2482L276.6240,342.6891L296.2080,354.7885L315.7920,365.7140L335.3760,375.6122L354.9600,384.6107L374.5440,392.8212L394.1280,400.3412L413.7120,407.2558L433.2960,413.6390
            L452.8800,419.5557L472.4640,425.0624L492.0480,430.2082L511.6320,435.0361L531.2160,439.5834L550.8000,443.8828L550.8612,443.8955"/>
   <path d="M61.2000,61.2000L80.7840,97.4244L100.3680,129.9636L119.9520,159.2084L139.5360,185.4975L159.1200,209.1603L178.7040,230.4752L198.2880,249.6896L217.8720,267.0245L237.4560,282.6775
            L257.0400,296.8250L276.6240,309.6247L296.2080,321.2176L315.7920,331.7296L335.3760,341.2733L354.9600,349.9494L374.5440,357.8477L394.1280,365.0486L413.7120,371.6240L433.2960,377.6380
            L452.8800,383.1482L472.4640,388.2058L492.0480,392.8567L511.6320,397.1419L531.2160,401.0982L550.8000,404.7584L550.8612,404.7690"/>
   <path d="M61.2000,61.2000L80.7840,96.9134L100.3680,129.0952L119.9520,158.1142L139.5360,184.2865L159.1200,207.9208L178.7040,229.2808L198.2880,248.6004L217.8720,266.0893L237.4560,281.9353
            L257.0400,296.3070L276.6240,309.3550L296.2080,321.2146L315.7920,332.0070L335.3760,341.8405L354.9600,350.8125L374.5440,359.0101L394.1280,366.5114L413.7120,373.3862L433.2960,379.6972
            L452.8800,385.5006L472.4640,390.8467L492.0480,395.7804L511.6320,400.3423L531.2160,404.5685L550.8000,408.4913L550.8612,408.5027"/>
   <path d="M61.2000,61.2000L80.7840,115.1078L100.3680,160.6627L119.9520,199.1937L139.5360,231.8211L159.1200,259.5255L178.7040,283.0940L198.2880,303.1868L217.8720,320.3586L237.4560,335.0747
            L257.0400,347.7259L276.6240,358.6405L296.2080,368.0937L315.7920,376.3170L335.3760,383.5046L354.9600,389.8196L374.5440,395.3989L394.1280,400.3577L413.7120,404.7927L433.2960,408.7849
            L452.8800,412.4026L472.4640,415.7032L492.0480,418.7348L511.6320,421.5379L531.2160,424.1466L550.8000,426.5895L550.8612,426.5967"/>
   <path d="M61.2000,61.2000L80.7840,98.1661L100.3680,131.3233L119.9520,161.0810L139.5360,187.7951L159.1200,211.8130L178.7040,233.4236L198.2880,252.8851L217.8720,270.4271L237.4560,286.2549
            L257.0400,300.5512L276.6240,313.4791L296.2080,325.1841L315.7920,335.7958L335.3760,345.4299L354.9600,354.1896L374.5440,362.1670L394.1280,369.4440L413.7120,376.0941L433.2960,382.1823
            L452.8800,387.7671L472.4640,392.9004L492.0480,397.6286L511.6320,401.9930L531.2160,406.0305L550.8000,409.7741L550.8612,409.7850"/>
   <path d="M61.2000,61.2000L80.7840,98.6978L100.3680,132.4527L119.9520,162.8616L139.5360,190.2735L159.1200,215.0267L178.7040,237.4036L198.2880,257.6558L217.8720,276.0078L237.4560,292.6600
            L257.0400,307.7910L276.6240,321.5603L296.2080,334.1099L315.7920,345.5669L335.3760,356.0444L354.9600,365.6434L374.5440,374.4541L394.1280,382.5569L413.7120,390.0236L433.2960,396.9183
            L452.8800,403.2981L472.4640,409.2141L492.0480,414.7119L511.6320,419.8322L531.2160,424.6113L550.8000,429.0817L550.8612,429.0948"/>
   <path d="M61.2000,61.2000L80.7840,93.7078L100.3680,123.4969L119.9520,150.8126L139.5360,175.8704L159.1200,198.8880L178.7040,220.0489L198.2880,239.5194L217.8720,257.4504L237.4560,273.9789
            L257.0400,289.2294L276.6240,303.3147L296.2080,316.3377L315.7920,328.3913L335.3760,339.5601L354.9600,349.9211L374.5440,359.5438L394.1280,368.4918L413.7120,376.8225L433.2960,384.5882
            L452.8800,391.8364L472.4640,398.6101L492.0480,404.9486L511.6320,410.8875L531.2160,416.4591L550.8000,421.6928L550.8612,421.7082"/>
   <path d="M61.2000,61.2000L80.7840,96.4925L100.3680,128.3300L119.9520,157.0684L139.5360,183.0158L159.1200,206.4734L178.7040,227.6975L198.2880,246.9160L217.8720,264.3336L237.4560,280.1336
            L257.0400,294.4807L276.6240,307.5224L296.2080,319.3912L315.7920,330.2058L335.3760,340.0728L354.9600,349.0877L374.5440,357.3361L394.1280,364.8951L413.7120,371.8335L433.2960,378.2131
            L452.8800,384.0896L472.4640,389.5127L492.0480,394.5269L511.6320,399.1725L531.2160,403.4852L550.8000,407.4974L550.8612,407.5091"/>
   <path d="M61.2000,61.2000L80.7840,108.6123L100.3680,150.1409L119.9520,186.5593L139.5360,218.5288L159.1200,246.6619L178.7040,271.4594L198.2880,293.3550L217.8720,312.7241L237.4560,329.8917
            L257.0400,345.1391L276.6240,358.7099L296.2080,370.8150L315.7920,381.6372L335.3760,391.3345L354.9600,400.0444L374.5440,407.8856L394.1280,414.9614L413.7120,421.3615L433.2960,427.1637
            L452.8800,432.4359L472.4640,437.2371L492.0480,441.6187L511.6320,445.6259L531.2160,449.2979L550.8000,452.6691L550.8612,452.6788"/>
   <path d="M61.2000,61.2000L80.7840,106.5920L100.3680,146.3380L119.9520,181.1851L139.5360,211.7623L159.1200,238.6573L178.7040,262.3547L198.2880,283.2743L217.8720,301.7810L237.4560,318.1913
            L257.0400,332.7802L276.6240,345.7866L296.2080,357.4176L315.7920,367.8532L335.3760,377.2494L354.9600,385.7416L374.5440,393.4473L394.1280,400.4683L413.7120,406.8931L433.2960,412.7980
            L452.8800,418.2495L472.4640,423.3049L492.0480,428.0140L511.6320,432.4198L531.2160,436.5595L550.8000,440.4652L550.8612,440.4768"/>
   <path d="M61.2000,61.2000L80.7840,102.3474L100.3680,138.7460L119.9520,170.9666L139.5360,199.4996L159.1200,224.8122L178.7040,247.2902L198.2880,267.2733L217.8720,285.0596L237.4560,300.9117
            L257.0400,315.0602L276.6240,327.7080L296.2080,339.0334L315.7920,349.1933L335.3760,358.3255L354.9600,366.5514L374.5440,373.9774L394.1280,380.6973L413.7120,386.7936L433.2960,392.3387
            L452.8800,397.3963L472.4640,402.0225L492.0480,406.2665L511.6320,410.1716L531.2160,413.7761L550.8000,417.1133L550.8612,417.1230"/>
   <path d="M61.2000,61.2000L80.7840,107.7233L100.3680,148.3113L119.9520,183.7304L139.5360,214.6411L159.1200,241.6554L178.7040,265.2756L198.2880,285.9379L217.8720,304.0215L237.4560,319.8561
            L257.0400,333.7284L276.6240,345.8876L296.2080,356.5509L315.7920,365.9071L335.3760,374.1208L354.9600,381.3354L374.5440,387.6759L394.1280,393.2512L413.7120,398.1563L433.2960,402.4742
            L452.8800,406.2774L472.4640,409.6291L492.0480,412.5846L511.6320,415.1922L531.2160,417.4942L550.8000,419.5275L550.8612,419.5331"/>
   <path d="M61.2000,61.2000L80.7840,97.6910L100.3680,130.6187L119.9520,160.3546L139.5360,187.2241L159.1200,211.5458L178.7040,233.5857L198.2880,253.5819L217.8720,271.7472L237.4560,288.2721
            L257.0400,303.3271L276.6240,317.0646L296.2080,329.6211L315.7920,341.1187L335.3760,351.6665L354.9600,361.3622L374.5440,370.2932L394.1280,378.5375L413.7120,386.1653L433.2960,393.2388
            L452.8800,399.8140L472.4640,405.9409L492.0480,411.6642L511.6320,417.0238L531.2160,422.0554L550.8000,426.7910L550.8612,426.8049"/>
   <path d="M61.2000,61.2000L80.7840,101.4847L100.3680,137.1773L119.9520,168.8124L139.5360,196.8555L159.1200,221.7489L178.7040,243.8590L198.2880,263.5089L217.8720,280.9835L237.4560,296.5342
            L257.0400,310.3827L276.6240,322.7247L296.2080,333.7326L315.7920,343.5591L335.3760,352.3385L354.9600,360.1896L374.5440,367.2175L394.1280,373.5146L413.7120,379.1630L433.2960,384.2351
            L452.8800,388.7948L472.4640,392.8987L492.0480,396.5970L511.6320,399.9339L531.2160,402.9487L550.8000,405.6762L550.8612,405.6839"/>
   <path d="M61.2000,61.2000L80.7840,103.4922L100.3680,140.7285L119.9520,173.5341L139.5360,202.4496L159.1200,227.9825L178.7040,250.5515L198.2880,270.5232L217.8720,288.2182L237.4560,303.9172
            L257.0400,317.8660L276.6240,330.2798L296.2080,341.3467L315.7920,351.2317L335.3760,360.0791L354.9600,368.0151L374.5440,375.1505L394.1280,381.5821L413.7120,387.3946L433.2960,392.6624
            L452.8800,397.4506L472.4640,401.8160L492.0480,405.8085L511.6320,409.4718L531.2160,412.8443L550.8000,415.9593L550.8612,415.9684"/>
   <path d="M61.2000,61.2000L80.7840,97.7056L100.3680,130.5366L119.9520,160.0840L139.5360,186.6824L159.1200,210.6600L178.7040,232.2931L198.2880,251.8275L217.8720,269.4831L237.4560,285.4561
            L257.0400,299.9223L276.6240,313.0384L296.2080,324.9448L315.7920,335.7667L335.3760,345.6161L354.9600,354.5932L374.5440,362.7873L394.1280,370.2784L413.7120,377.1379L433.2960,383.4297
            L452.8800,389.2108L472.4640,394.5321L492.0480,399.4393L511.6320,403.9730L531.2160,408.1695L550.8000,412.0615L550.8612,412.0728"/>
   <path d="M61.2000,61.2000L80.7840,102.0845L100.3680,138.3960L119.9520,170.6744L139.5360,199.3858L159.1200,224.9749L178.7040,247.8099L198.2880,268.2157L217.8720,286.4783L237.4560,302.8500
            L257.0400,317.5533L276.6240,330.7842L296.2080,342.7154L315.7920,353.4994L335.3760,363.2703L354.9600,372.1465L374.5440,380.2323L394.1280,387.6196L413.7120,394.3895L433.2960,400.6134
            L452.8800,406.3542L472.4640,411.6673L492.0480,416.6017L511.6320,421.2003L531.2160,425.5013L550.8000,429.5379L550.8612,429.5497"/>
   <path d="M61.2000,61.2000L80.7840,126.5060L100.3680,179.4443L119.9520,222.4086L139.5360,257.3453L159.1200,285.8615L178.7040,309.2042L198.2880,328.3772L217.8720,344.1884L237.4560,357.2883
            L257.0400,368.2002L276.6240,377.3457L296.2080,385.0639L315.7920,391.6281L335.3760,397.2581L354.9600,402.1313L374.5440,406.3901L394.1280,410.1497L413.7120,413.5026L433.2960,416.5236
            L452.8800,419.2728L472.4640,421.7989L492.0480,424.1410L511.6320,426.3309L531.2160,428.3939L550.8000,430.3509L550.8612,430.3568"/>
   <path d="M61.2000,61.2000L80.7840,98.4821L100.3680,131.8528L119.9520,161.7440L139.5360,188.5235L159.1200,212.5445L178.7040,234.1104L198.2880,253.4880L217.8720,270.9149L237.4560,286.6026
            L257.0400,300.7395L276.6240,313.4935L296.2080,325.0139L315.7920,335.4338L335.3760,344.8719L354.9600,353.4335L374.5440,361.2128L394.1280,368.2933L413.7120,374.7496L433.2960,380.6482
            L452.8800,386.0481L472.4640,391.0020L492.0480,395.5568L511.6320,399.7543L531.2160,403.6317L550.8000,407.2221L550.8612,407.2325"/>
   <path d="M61.2000,61.2000L80.7840,95.2268L100.3680,126.1446L119.9520,154.2580L139.5360,179.8321L159.1200,203.1276L178.7040,224.3683L198.2880,243.7542L217.8720,261.4657L237.4560,277.6653
            L257.0400,292.4999L276.6240,306.1019L296.2080,318.5908L315.7920,330.0744L335.3760,340.6499L354.9600,350.4049L374.5440,359.4187L394.1280,367.7626L413.7120,375.5009L433.2960,382.6919
            L452.8800,389.3878L472.4640,395.6360L492.0480,401.4790L511.6320,406.9554L531.2160,412.0997L550.8000,416.9434L550.8612,416.9577"/>
   <path d="M61.2000,61.2000L80.7840,98.2352L100.3680,132.3904L119.9520,163.8683L139.5360,192.8361L159.1200,219.4659L178.7040,243.9079L198.2880,266.2994L217.8720,286.7706L237.4560,305.4473
            L257.0400,322.4512L276.6240,337.9010L296.2080,351.9124L315.7920,364.5975L335.3760,376.0645L354.9600,386.4170L374.5440,395.7533L394.1280,404.1662L413.7120,411.7422L433.2960,418.5618
            L452.8800,424.6991L472.4640,430.2221L492.0480,435.1926L511.6320,439.6670L531.2160,443.6961L550.8000,447.3258L550.8612,447.3360"/>
   <path d="M61.2000,61.2000L80.7840,102.8010L100.3680,139.5844L119.9520,172.1326L139.5360,200.9493L159.1200,226.5109L178.7040,249.2113L198.2880,269.3961L217.8720,287.3693L237.4560,303.3975
            L257.0400,317.7150L276.6240,330.5275L296.2080,342.0159L315.7920,352.3387L335.3760,361.6355L354.9600,370.0286L374.5440,377.6256L394.1280,384.5210L413.7120,390.7976L433.2960,396.5285
            L452.8800,401.7774L472.4640,406.6008L492.0480,411.0479L511.6320,415.1621L531.2160,418.9816L550.8000,422.5397L550.8612,422.5501"/>
   <path d="M61.2000,61.2000L80.7840,98.0044L100.3680,131.1031L119.9520,160.8889L139.5360,187.7062L159.1200,211.8904L178.7040,233.7211L198.2880,253.4480L217.8720,271.2941L237.4560,287.4583
            L257.0400,302.1185L276.6240,315.4334L296.2080,327.5449L315.7920,338.5794L335.3760,348.6502L354.9600,357.8583L374.5440,366.2939L394.1280,374.0376L413.7120,381.1614L433.2960,387.7297
            L452.8800,393.7999L472.4640,399.4233L492.0480,404.6459L511.6320,409.5086L531.2160,414.0479L550.8000,418.2967L550.8612,418.3091"/>
   <path d="M61.2000,61.2000L80.7840,103.5196L100.3680,140.7498L119.9520,173.5231L139.5360,202.3825L159.1200,227.8398L178.7040,250.3168L198.2880,270.1825L217.8720,287.7599L237.4560,303.3316
            L257.0400,317.1447L276.6240,329.4156L296.2080,340.3336L315.7920,350.0643L335.3760,358.7526L354.9600,366.5254L374.5440,373.4937L394.1280,379.7545L413.7120,385.3928L433.2960,390.4831
            L452.8800,395.0903L472.4640,399.2715L492.0480,403.0765L511.6320,406.5489L531.2160,409.7269L550.8000,412.6438L550.8612,412.6522"/>
   <path d="M61.2000,61.2000L80.7840,100.8611L100.3680,136.1413L119.9520,167.5454L139.5360,195.5117L159.1200,220.4595L178.7040,242.7369L198.2880,262.6512L217.8720,280.4742L237.4560,296.4461
            L257.0400,310.7793L276.6240,323.6616L296.2080,335.2587L315.7920,345.7174L335.3760,355.1674L354.9600,363.7233L374.5440,371.4865L394.1280,378.5466L413.7120,384.9828L433.2960,390.8653
            L452.8800,396.2558L472.4640,401.2094L492.0480,405.7743L511.6320,409.9934L531.2160,413.9046L550.8000,417.5415L550.8612,417.5521"/>
   <path d="M61.2000,61.2000L80.7840,102.6706L100.3680,139.3615L119.9520,171.8473L139.5360,200.6274L159.1200,226.1734L178.7040,248.8753L198.2880,269.0757L217.8720,287.0754L237.4560,303.1390
            L257.0400,317.4988L276.6240,330.3590L296.2080,341.8991L315.7920,352.2766L335.3760,361.6302L354.9600,370.0817L374.5440,377.7382L394.1280,384.6936L413.7120,391.0307L433.2960,396.8223
            L452.8800,402.1322L472.4640,407.0166L492.0480,411.5250L511.6320,415.7008L531.2160,419.5823L550.8000,423.2029L550.8612,423.2135"/>
   <path d="M61.2000,61.2000L80.7840,97.0450L100.3680,129.4108L119.9520,158.6594L139.5360,185.1009L159.1200,209.0378L178.7040,230.7299L198.2880,250.4073L217.8720,268.2766L237.4560,284.5230
            L257.0400,299.3126L276.6240,312.7943L296.2080,325.1017L315.7920,336.3546L335.3760,346.6604L354.9600,356.1155L374.5440,364.8061L394.1280,372.8097L413.7120,380.1957L433.2960,387.0264
            L452.8800,393.3574L472.4640,399.2389L492.0480,404.7157L511.6320,409.8279L531.2160,414.6116L550.8000,419.0991L550.8612,419.1123"/>
   <path d="M61.2000,61.2000L80.7840,98.7697L100.3680,132.5399L119.9520,162.9197L139.5360,190.2654L159.1200,214.9242L178.7040,237.1855L198.2880,257.3073L217.8720,275.5197L237.4560,292.0280
            L257.0400,307.0152L276.6240,320.6446L296.2080,333.0618L315.7920,344.3965L335.3760,354.7648L354.9600,364.2698L374.5440,373.0038L394.1280,381.0490L413.7120,388.4785L433.2960,395.3580
            L452.8800,401.7456L472.4640,407.6934L492.0480,413.2479L511.6320,418.4503L531.2160,423.3377L550.8000,427.9430L550.8612,427.9566"/>
   <path d="M61.2000,61.2000L80.7840,105.5169L100.3680,144.3238L119.9520,178.3356L139.5360,208.1627L159.1200,234.3755L178.7040,257.4423L198.2880,277.7704L217.8720,295.7143L237.4560,311.5821
            L257.0400,325.6420L276.6240,338.1272L296.2080,349.2404L315.7920,359.1582L335.3760,368.0340L354.9600,376.0012L374.5440,383.1758L394.1280,389.6589L413.7120,395.5383L433.2960,400.8902
            L452.8800,405.7812L472.4640,410.2689L492.0480,414.4036L511.6320,418.2289L531.2160,421.7829L550.8000,425.0987L550.8612,425.1084"/>
   <path d="M61.2000,61.2000L80.7840,102.3204L100.3680,138.6758L119.9520,170.8413L139.5360,199.3081L159.1200,224.5406L178.7040,246.9284L198.2880,266.8116L217.8720,284.4893L237.4560,300.2247
            L257.0400,314.2490L276.6240,326.7655L296.2080,337.9528L315.7920,347.9683L335.3760,356.9499L354.9600,365.0191L374.5440,372.2827L394.1280,378.8344L413.7120,384.7569L433.2960,390.1225
            L452.8800,394.9952L472.4640,399.4308L492.0480,403.4788L511.6320,407.1824L531.2160,410.5798L550.8000,413.7045L550.8612,413.7135"/>
   <path d="M61.2000,61.2000L80.7840,114.8986L100.3680,160.2524L119.9520,198.5865L139.5360,231.0205L159.1200,258.5327L178.7040,281.9084L198.2880,301.8070L217.8720,318.7819L237.4560,333.2981
            L257.0400,345.7458L276.6240,356.4527L296.2080,365.6943L315.7920,373.7017L335.3760,380.6693L354.9600,386.7602L374.5440,392.1117L394.1280,396.8390L413.7120,401.0390L433.2960,404.7932
            L452.8800,408.1700L472.4640,411.2272L492.0480,414.0132L511.6320,416.5688L531.2160,418.9282L550.8000,421.1205L550.8612,421.1269"/>
   <path d="M61.2000,61.2000L80.7840,102.4009L100.3680,138.9481L119.9520,171.4007L139.5360,200.2363L159.1200,225.9083L178.7040,248.7964L198.2880,269.2334L217.8720,287.5122L237.4560,303.8906
            L257.0400,318.5959L276.6240,331.8279L296.2080,343.7626L315.7920,354.5552L335.3760,364.3420L354.9600,373.2432L374.5440,381.3644L394.1280,388.7988L413.7120,395.6283L433.2960,401.9250
            L452.8800,407.7523L472.4640,413.1663L492.0480,418.2159L511.6320,422.9446L531.2160,427.3904L550.8000,431.5869L550.8612,431.5993"/>
   <path d="M61.2000,61.2000L80.7840,96.3177L100.3680,128.0513L119.9520,156.7469L139.5360,182.7032L159.1200,206.2113L178.7040,227.5216L198.2880,246.8564L217.8720,264.4153L237.4560,280.3776
            L257.0400,294.9042L276.6240,308.1397L296.2080,320.2140L315.7920,331.2438L335.3760,341.3337L354.9600,350.5778L374.5440,359.0606L394.1280,366.8580L413.7120,374.0380L433.2960,380.6619
            L452.8800,386.7846L472.4640,392.4554L492.0480,397.7187L511.6320,402.6142L531.2160,407.1777L550.8000,411.4413L550.8612,411.4538"/>
   <path d="M61.2000,61.2000L80.7840,111.1103L100.3680,154.0802L119.9520,191.1140L139.5360,223.0584L159.1200,250.6820L178.7040,274.6084L198.2880,295.3698L217.8720,313.4213L237.4560,329.1512
            L257.0400,342.8914L276.6240,354.9253L296.2080,365.4949L315.7920,374.8068L335.3760,383.0377L354.9600,390.3382L374.5440,396.8371L394.1280,402.6443L413.7120,407.8538L433.2960,412.5459
            L452.8800,416.7891L472.4640,420.6422L492.0480,424.1553L511.6320,427.3712L531.2160,430.3268L550.8000,433.0535L550.8612,433.0614"/>
   <path d="M61.2000,61.2000L80.7840,106.0850L100.3680,145.3009L119.9520,179.5915L139.5360,209.5959L159.1200,235.9055L178.7040,259.0059L198.2880,279.3184L217.8720,297.2085L237.4560,312.9936
            L257.0400,326.9490L276.6240,339.3138L296.2080,350.2954L315.7920,360.0737L335.3760,368.8052L354.9600,376.6253L374.5440,383.6518L394.1280,389.9870L413.7120,395.7195L433.2960,400.9263
            L452.8800,405.6742L472.4640,410.0213L492.0480,414.0180L511.6320,417.7079L531.2160,421.1291L550.8000,424.3145L550.8612,424.3238"/>
   <path d="M61.2000,61.2000L80.7840,95.6437L100.3680,126.8518L119.9520,155.1494L139.5360,180.8142L159.1200,204.1189L178.7040,225.2992L198.2880,244.5648L217.8720,262.1042L237.4560,278.0873
            L257.0400,292.6671L276.6240,305.9815L296.2080,318.1545L315.7920,329.2978L335.3760,339.5121L354.9600,348.8880L374.5440,357.5070L394.1280,365.4426L413.7120,372.7609L433.2960,379.5214
            L452.8800,385.7779L472.4640,391.5785L492.0480,396.9666L511.6320,401.9816L531.2160,406.6584L550.8000,411.0290L550.8612,411.0418"/>
   <path d="M61.2000,61.2000L80.7840,102.6217L100.3680,139.1881L119.9520,171.4925L139.5360,200.0405L159.1200,225.3100L178.7040,247.7005L198.2880,267.5609L217.8720,285.1974L237.4560,300.8790
            L257.0400,314.8416L276.6240,327.2925L296.2080,338.4137L315.7920,348.3647L335.3760,357.2859L354.9600,365.3002L374.5440,372.5156L394.1280,379.0271L413.7120,384.9177L433.2960,390.2607
            L452.8800,395.1201L472.4640,399.5522L492.0480,403.6066L511.6320,407.3266L531.2160,410.7503L550.8000,413.9112L550.8612,413.9203"/>
   <path d="M61.2000,61.2000L80.7840,116.9327L100.3680,163.6298L119.9520,202.7901L139.5360,235.6505L159.1200,263.2957L178.7040,286.5889L198.2880,306.2497L217.8720,322.8778L237.4560,336.9734
            L257.0400,348.9532L276.6240,359.1646L296.2080,367.8970L315.7920,375.3920L335.3760,381.8505L354.9600,387.4402L374.5440,392.3009L394.1280,396.5490L413.7120,400.2816L433.2960,403.5796
            L452.8800,406.5106L472.4640,409.1309L492.0480,411.4873L511.6320,413.6191L531.2160,415.5589L550.8000,417.3341L550.8612,417.3392"/>
   <path d="M61.2000,61.2000L80.7840,117.3069L100.3680,164.3728L119.9520,203.8908L139.5360,237.1057L159.1200,265.1011L178.7040,288.7404L198.2880,308.7430L217.8720,325.7088L237.4560,340.1375
            L257.0400,352.4457L276.6240,362.9807L296.2080,372.0318L315.7920,379.8404L335.3760,386.6075L354.9600,392.5007L374.5440,397.6600L394.1280,402.2020L413.7120,406.2238L433.2960,409.8068
            L452.8800,413.0188L472.4640,415.9162L492.0480,418.5464L511.6320,420.9490L531.2160,423.1569L550.8000,425.1980L550.8612,425.2039"/>
   <path d="M61.2000,61.2000L80.7840,112.0666L100.3680,155.3870L119.9520,192.3031L139.5360,223.7769L159.1200,250.6688L178.7040,273.6725L198.2880,293.3762L217.8720,310.2785L237.4560,324.8018
            L257.0400,337.3045L276.6240,348.0901L296.2080,357.4163L315.7920,365.5012L335.3760,372.5299L354.9600,378.6595L374.5440,384.0229L394.1280,388.7330L413.7120,392.8858L433.2960,396.5623
            L452.8800,399.8317L472.4640,402.7523L492.0480,405.3740L511.6320,407.7389L531.2160,409.8829L550.8000,411.8365L550.8612,411.8421"/>
   <path d="M61.2000,61.2000L80.7840,108.7530L100.3680,149.8542L119.9520,185.4037L139.5360,216.1732L159.1200,242.8627L178.7040,266.0433L198.2880,286.2056L217.8720,303.7708L237.4560,319.1008
            L257.0400,332.5068L276.6240,344.2559L296.2080,354.5776L315.7920,363.6692L335.3760,371.7003L354.9600,378.8166L374.5440,385.1433L394.1280,390.7881L413.7120,395.8434L433.2960,400.3890
            L452.8800,404.4931L472.4640,408.2146L492.0480,411.6041L511.6320,414.7051L531.2160,417.5551L550.8000,420.1864L550.8612,420.1940"/>
   <path d="M61.2000,61.2000L80.7840,98.6029L100.3680,132.0371L119.9520,161.9373L139.5360,188.6833L159.1200,212.6420L178.7040,234.1188L198.2880,253.3852L217.8720,270.6828L237.4560,286.2263
            L257.0400,300.2069L276.6240,312.7944L296.2080,324.1401L315.7920,334.3786L335.3760,343.6295L354.9600,351.9993L374.5440,359.5829L394.1280,366.4646L413.7120,372.7196L433.2960,378.4147
            L452.8800,383.6095L472.4640,388.3569L492.0480,392.7042L511.6320,396.6934L531.2160,400.3618L550.8000,403.7430L550.8612,403.7527"/>
   <path d="M61.2000,61.2000L80.7840,95.5888L100.3680,126.7774L119.9520,155.0854L139.5360,180.7874L159.1200,204.1533L178.7040,225.4159L198.2880,244.7820L217.8720,262.4384L237.4560,278.5530
            L257.0400,293.2772L276.6240,306.7475L296.2080,319.0867L315.7920,330.4055L335.3760,340.8037L354.9600,350.3711L374.5440,359.1886L394.1280,367.3291L413.7120,374.8582L433.2960,381.8350
            L452.8800,388.3127L472.4640,394.3394L492.0480,399.9581L511.6320,405.2079L531.2160,410.1236L550.8000,414.7368L550.8612,414.7504"/>
   <path d="M61.2000,61.2000L80.7840,101.7250L100.3680,137.6042L119.9520,169.3879L139.5360,197.5575L159.1200,222.5667L178.7040,244.7916L198.2880,264.5628L217.8720,282.1715L237.4560,297.8740
            L257.0400,311.8959L276.6240,324.4358L296.2080,335.6686L315.7920,345.7482L335.3760,354.8102L354.9600,362.9742L374.5440,370.3453L394.1280,377.0163L413.7120,383.0687L433.2960,388.5746
            L452.8800,393.5974L472.4640,398.1929L492.0480,402.4105L511.6320,406.2936L531.2160,409.8804L550.8000,413.2047L550.8612,413.2144"/>
   <path d="M61.2000,61.2000L80.7840,97.3016L100.3680,129.8316L119.9520,159.1655L139.5360,185.6267L159.1200,209.5305L178.7040,231.1453L198.2880,250.7092L217.8720,268.4355L237.4560,284.5151
            L257.0400,299.1189L276.6240,312.3999L296.2080,324.4950L315.7920,335.5269L335.3760,345.6053L354.9600,354.8285L374.5440,363.2842L394.1280,371.0513L413.7120,378.2001L433.2960,384.7938
            L452.8800,390.8887L472.4640,396.5353L492.0480,401.7789L511.6320,406.6599L531.2160,411.2145L550.8000,415.4751L550.8612,415.4875"/>
   <path d="M61.2000,61.2000L80.7840,112.8884L100.3680,157.1039L119.9520,194.9752L139.5360,227.4484L159.1200,255.3746L178.7040,279.4402L198.2880,300.2282L217.8720,318.2331L237.4560,333.8747
            L257.0400,347.5090L276.6240,359.4383L296.2080,369.9188L315.7920,379.1680L335.3760,387.3704L354.9600,394.6822L374.5440,401.2362L394.1280,407.1449L413.7120,412.5034L433.2960,417.3928
            L452.8800,421.8814L472.4640,426.0274L492.0480,429.8799L511.6320,433.4807L531.2160,436.8650L550.8000,440.0628L550.8612,440.0723"/>
   <path d="M61.2000,61.2000L80.7840,103.7704L100.3680,141.2811L119.9520,174.3641L139.5360,203.5568L159.1200,229.3651L178.7040,252.2106L198.2880,272.4606L217.8720,290.4367L237.4560,306.4204
            L257.0400,320.6580L276.6240,333.3654L296.2080,344.7312L315.7920,354.9207L335.3760,364.0784L354.9600,372.3310L374.5440,379.7891L394.1280,386.5497L413.7120,392.6976L433.2960,398.3069
            L452.8800,403.4426L472.4640,408.1616L492.0480,412.5135L511.6320,416.5418L531.2160,420.2846L550.8000,423.7752L550.8612,423.7854"/>
   <path d="M61.2000,61.2000L80.7840,103.7358L100.3680,141.1736L119.9520,174.1457L139.5360,203.2028L159.1200,228.8586L178.7040,251.5370L198.2880,271.6087L217.8720,289.3978L237.4560,305.1879
            L257.0400,319.2271L276.6240,331.7321L296.2080,342.8929L315.7920,352.8755L335.3760,361.8252L354.9600,369.8691L374.5440,377.1185L394.1280,383.6709L413.7120,389.6114L433.2960,395.0147
            L452.8800,399.9461L472.4640,404.4628L492.0480,408.6150L511.6320,412.4464L531.2160,415.9955L550.8000,419.2960L550.8612,419.3056"/>
   <path d="M61.2000,61.2000L80.7840,108.4397L100.3680,149.4911L119.9520,185.2102L139.5360,216.3160L159.1200,243.4704L178.7040,267.2181L198.2880,288.0271L217.8720,306.3006L237.4560,322.3864
            L257.0400,336.5841L276.6240,349.1520L296.2080,360.3126L315.7920,370.2576L335.3760,379.1524L354.9600,387.1390L374.5440,394.3401L394.1280,400.8613L413.7120,406.7933L433.2960,412.2144
            L452.8800,417.1919L472.4640,421.7840L492.0480,426.0403L511.6320,430.0040L531.2160,433.7119L550.8000,437.1959L550.8612,437.2061"/>
   <path d="M61.2000,61.2000L80.7840,113.9303L100.3680,158.6123L119.9520,196.5053L139.5360,228.6603L159.1200,256.0118L178.7040,279.3106L198.2880,299.1890L217.8720,316.1803L237.4560,330.7340
            L257.0400,343.2288L276.6240,353.9841L296.2080,363.2689L315.7920,371.3101L335.3760,378.2987L354.9600,384.3959L374.5440,389.7376L394.1280,394.4380L413.7120,398.5938L433.2960,402.2862
            L452.8800,405.5839L472.4640,408.5447L492.0480,411.2172L511.6320,413.6427L531.2160,415.8559L550.8000,417.8859L550.8612,417.8918"/>
   <path d="M61.2000,61.2000L80.7840,92.5565L100.3680,121.5068L119.9520,148.2418L139.5360,172.9262L159.1200,195.7300L178.7040,216.7993L198.2880,236.2670L217.8720,254.2548L237.4560,270.8749
            L257.0400,286.2305L276.6240,300.4167L296.2080,313.5211L315.7920,325.6248L335.3760,336.8025L354.9600,347.1234L374.5440,356.6515L394.1280,365.4460L413.7120,373.5619L433.2960,381.0500
            L452.8800,387.9575L472.4640,394.3280L492.0480,400.2022L511.6320,405.6175L531.2160,410.6090L550.8000,415.2087L550.8612,415.2220"/>
   <path d="M61.2000,61.2000L80.7840,109.9153L100.3680,151.7835L119.9520,187.7930L139.5360,218.7769L159.1200,245.4930L178.7040,268.5560L198.2880,288.4913L217.8720,305.7483L237.4560,320.7113
            L257.0400,333.7087L276.6240,345.0215L296.2080,354.8897L315.7920,363.5187L335.3760,371.0839L354.9600,377.7356L374.5440,383.6021L394.1280,388.7930L413.7120,393.4022L433.2960,397.5100
            L452.8800,401.1850L472.4640,404.4860L492.0480,407.4631L511.6320,410.1593L531.2160,412.6114L550.8000,414.8510L550.8612,414.8574"/>
   <path d="M61.2000,61.2000L80.7840,106.3585L100.3680,145.6763L119.9520,179.9309L139.5360,209.7925L159.1200,235.8763L178.7040,258.6866L198.2880,278.6601L217.8720,296.1744L237.4560,311.5566
            L257.0400,325.0900L276.6240,337.0196L296.2080,347.5577L315.7920,356.8880L335.3760,365.1697L354.9600,372.5406L374.5440,379.1202L394.1280,385.0119L413.7120,390.3053L433.2960,395.0780
            L452.8800,399.3974L472.4640,403.3216L492.0480,406.9014L511.6320,410.1804L531.2160,413.1966L550.8000,415.9831L550.8612,415.9912"/>
   <path d="M61.2000,61.2000L80.7840,105.0489L100.3680,143.4696L119.9520,177.1623L139.5360,206.7247L159.1200,232.7156L178.7040,255.5945L198.2880,275.7614L217.8720,293.5644L237.4560,309.3069
            L257.0400,323.2526L276.6240,335.6314L296.2080,346.6434L315.7920,356.4628L335.3760,365.2410L354.9600,373.1102L374.5440,380.1851L394.1280,386.5658L413.7120,392.3393L433.2960,397.5813
            L452.8800,402.3579L472.4640,406.7263L492.0480,410.7365L511.6320,414.4319L531.2160,417.8504L550.8000,421.0248L550.8612,421.0340"/>
   <path d="M61.2000,61.2000L80.7840,94.8258L100.3680,125.4849L119.9520,153.4570L139.5360,178.9852L159.1200,202.3122L178.7040,223.6446L198.2880,243.1677L217.8720,261.0495L237.4560,277.4417
            L257.0400,292.4817L276.6240,306.2936L296.2080,318.9900L315.7920,330.6723L335.3760,341.4327L354.9600,351.3543L374.5440,360.5125L394.1280,368.9753L413.7120,376.8045L433.2960,384.0559
            L452.8800,390.7801L472.4640,397.0227L492.0480,402.8253L511.6320,408.2253L531.2160,413.2568L550.8000,417.9507L550.8612,417.9644"/>
   <path d="M61.2000,61.2000L80.7840,99.2003L100.3680,133.2091L119.9520,163.6710L139.5360,190.9663L159.1200,215.4603L178.7040,237.4642L198.2880,257.2522L217.8720,275.0677L237.4560,291.1277
            L257.0400,305.6248L276.6240,318.7304L296.2080,330.5968L315.7920,341.3595L335.3760,351.1391L354.9600,360.0426L374.5440,368.1651L394.1280,375.5915L413.7120,382.3968L433.2960,388.6481
            L452.8800,394.4047L472.4640,399.7196L492.0480,404.6396L511.6320,409.2066L531.2160,413.4577L550.8000,417.4259L550.8612,417.4376"/>
   <path d="M61.2000,61.2000L80.7840,95.3364L100.3680,126.3698L119.9520,154.6039L139.5360,180.3025L159.1200,203.7269L178.7040,225.0997L198.2880,244.6200L217.8720,262.4679L237.4560,278.8055
            L257.0400,293.7792L276.6240,307.5211L296.2080,320.1505L315.7920,331.7746L335.3760,342.4907L354.9600,352.3861L374.5440,361.5397L394.1280,370.0229L413.7120,377.8997L433.2960,385.2281
            L452.8800,392.0604L472.4640,398.4437L492.0480,404.4205L511.6320,410.0290L531.2160,415.3040L550.8000,420.2765L550.8612,420.2912"/>
   <path d="M61.2000,61.2000L80.7840,96.5265L100.3680,128.3931L119.9520,157.1553L139.5360,183.1228L159.1200,206.6013L178.7040,227.8456L198.2880,247.0846L217.8720,264.5231L237.4560,280.3449
            L257.0400,294.7149L276.6240,307.7809L296.2080,319.6753L315.7920,330.5171L335.3760,340.4128L354.9600,349.4579L374.5440,357.7383L394.1280,365.3308L413.7120,372.3044L433.2960,378.7209
            L452.8800,384.6360L472.4640,390.0993L492.0480,395.1556L511.6320,399.8449L531.2160,404.2032L550.8000,408.2627L550.8612,408.2745"/>
   <path d="M61.2000,61.2000L80.7840,96.1621L100.3680,127.7585L119.9520,156.3299L139.5360,182.1753L159.1200,205.5891L178.7040,226.8175L198.2880,246.0816L217.8720,263.5798L237.4560,279.4904
            L257.0400,293.9733L276.6240,307.1723L296.2080,319.2164L315.7920,330.2215L335.3760,340.2919L354.9600,349.5210L374.5440,357.9929L394.1280,365.7832L413.7120,372.9597L433.2960,379.5833
            L452.8800,385.7089L472.4640,391.3856L492.0480,396.6578L511.6320,401.5651L531.2160,406.1434L550.8000,410.4248L550.8612,410.4373"/>
   <path d="M61.2000,61.2000L80.7840,104.5337L100.3680,142.7181L119.9520,176.4040L139.5360,206.1429L159.1200,232.4554L178.7040,255.7722L198.2880,276.4693L217.8720,294.8753L237.4560,311.2773
            L257.0400,325.9266L276.6240,339.0425L296.2080,350.8168L315.7920,361.4172L335.3760,370.9900L354.9600,379.6632L374.5440,387.5486L394.1280,394.7438L413.7120,401.3340L433.2960,407.3938
            L452.8800,412.9880L472.4640,418.1735L492.0480,422.9998L511.6320,427.5101L531.2160,431.7422L550.8000,435.7288L550.8612,435.7406"/>
   <path d="M61.2000,61.2000L80.7840,113.9639L100.3680,158.9745L119.9520,197.3940L139.5360,230.2059L159.1200,258.2868L178.7040,282.3443L198.2880,302.9780L217.8720,320.6967L237.4560,335.9316
            L257.0400,349.0486L276.6240,360.3583L296.2080,370.1242L315.7920,378.5700L335.3760,385.8861L354.9600,392.2339L374.5440,397.7511L394.1280,402.5547L413.7120,406.7442L433.2960,410.4049
            L452.8800,413.6090L472.4640,416.4186L492.0480,418.8865L511.6320,421.0580L531.2160,422.9718L550.8000,424.6614L550.8612,424.6660"/>
   <path d="M61.2000,61.2000L80.7840,101.0566L100.3680,136.6372L119.9520,168.4262L139.5360,196.8371L159.1200,222.2678L178.7040,245.0532L198.2880,265.4882L217.8720,283.8342L237.4560,300.3228
            L257.0400,315.1593L276.6240,328.5257L296.2080,340.5831L315.7920,351.4744L335.3760,361.3261L354.9600,370.2506L374.5440,378.3471L394.1280,385.7039L413.7120,392.3991L433.2960,398.5021
            L452.8800,404.0742L472.4640,409.1700L492.0480,413.8380L511.6320,418.1209L531.2160,422.0570L550.8000,425.6801L550.8612,425.6906"/>
   <path d="M61.2000,61.2000L80.7840,104.3086L100.3680,142.1896L119.9520,175.5005L139.5360,204.8083L159.1200,230.6440L178.7040,253.4446L198.2880,273.5917L217.8720,291.4188L237.4560,307.2167
            L257.0400,321.2396L276.6240,333.7093L296.2080,344.8198L315.7920,354.7401L335.3760,363.6182L354.9600,371.5830L374.5440,378.7475L394.1280,385.2099L413.7120,391.0565L433.2960,396.3623
            L452.8800,401.1929L472.4640,405.6058L492.0480,409.6511L511.6320,413.3725L531.2160,416.8083L550.8000,419.9920L550.8612,420.0012"/>
   <path d="M61.2000,61.2000L80.7840,98.1787L100.3680,131.4099L119.9520,161.2940L139.5360,188.1743L159.1200,212.3824L178.7040,234.2028L198.2880,253.8863L217.8720,271.6572L237.4560,287.7156
            L257.0400,302.2405L276.6240,315.3914L296.2080,327.3111L315.7920,338.1270L335.3760,347.9528L354.9600,356.8901L374.5440,365.0298L394.1280,372.4530L413.7120,379.2321L433.2960,385.4319
            L452.8800,391.1101L472.4640,396.3184L492.0480,401.1032L511.6320,405.5056L531.2160,409.5627L550.8000,413.3074L550.8612,413.3183"/>
   <path d="M61.2000,61.2000L80.7840,105.3042L100.3680,143.8715L119.9520,177.6225L139.5360,207.1695L159.1200,233.0843L178.7040,255.8385L198.2880,275.8413L217.8720,293.4485L237.4560,308.9696
            L257.0400,322.6741L276.6240,334.7960L296.2080,345.5389L315.7920,355.0801L335.3760,363.5735L354.9600,371.1532L374.5440,377.9359L394.1280,384.0227L413.7120,389.5021L433.2960,394.4507
            L452.8800,398.9353L472.4640,403.0140L492.0480,406.7374L511.6320,410.1496L531.2160,413.2888L550.8000,416.1886L550.8612,416.1970"/>
   <path d="M61.2000,61.2000L80.7840,105.7400L100.3680,144.7271L119.9520,178.8809L139.5360,208.8276L159.1200,235.1432L178.7040,258.3018L198.2880,278.7152L217.8720,296.7413L237.4560,312.6910
            L257.0400,326.8349L276.6240,339.4079L296.2080,350.6142L315.7920,360.6317L335.3760,369.6147L354.9600,377.6975L374.5440,384.9970L394.1280,391.6148L413.7120,397.6393L433.2960,403.1474
            L452.8800,408.2059L472.4640,412.8731L492.0480,417.1996L511.6320,421.2295L531.2160,425.0013L550.8000,428.5482L550.8612,428.5587"/>
   <path d="M61.2000,61.2000L80.7840,103.2031L100.3680,140.2454L119.9520,172.9352L139.5360,201.7981L159.1200,227.3293L178.7040,249.9375L198.2880,269.9809L217.8720,287.7734L237.4560,303.5902
            L257.0400,317.6725L276.6240,330.2317L296.2080,341.4530L315.7920,351.4989L335.3760,360.5119L354.9600,368.6166L374.5440,375.9227L394.1280,382.5260L413.7120,388.5106L433.2960,393.9503
            L452.8800,398.9098L472.4640,403.4458L492.0480,407.6080L511.6320,411.4400L531.2160,414.9800L550.8000,418.2617L550.8612,418.2713"/>
   <path d="M61.2000,61.2000L80.7840,100.0922L100.3680,135.8426L119.9520,168.6460L139.5360,198.6677L159.1200,226.0891L178.7040,251.0668L198.2880,273.7535L217.8720,294.3012L237.4560,312.8617
            L257.0400,329.5865L276.6240,344.6250L296.2080,358.1232L315.7920,370.2218L335.3760,381.0545L354.9600,390.7466L374.5440,399.4149L394.1280,407.1662L413.7120,414.0984L433.2960,420.2997
            L452.8800,425.8495L472.4640,430.8192L492.0480,435.2722L511.6320,439.2653L531.2160,442.8485L550.8000,446.0667L550.8612,446.0757"/>
   <path d="M61.2000,61.2000L80.7840,93.7061L100.3680,123.4934L119.9520,150.8074L139.5360,175.8634L159.1200,198.8792L178.7040,220.0383L198.2880,239.5070L217.8720,257.4362L237.4560,273.9628
            L257.0400,289.2114L276.6240,303.2948L296.2080,316.3158L315.7920,328.3673L335.3760,339.5342L354.9600,349.8930L374.5440,359.5137L394.1280,368.4595L413.7120,376.7881L433.2960,384.5515
            L452.8800,391.7974L472.4640,398.5689L492.0480,404.9050L511.6320,410.8415L531.2160,416.4107L550.8000,421.6420L550.8612,421.6574"/>
   <path d="M61.2000,61.2000L80.7840,96.4501L100.3680,129.6363L119.9520,160.7679L139.5360,189.8281L159.1200,216.8191L178.7040,241.7509L198.2880,264.6515L217.8720,285.5752L237.4560,304.6035
            L257.0400,321.8416L276.6240,337.4126L296.2080,351.4508L315.7920,364.0944L335.3760,375.4801L354.9600,385.7382L374.5440,394.9904L394.1280,403.3475L413.7120,410.9093L433.2960,417.7644
            L452.8800,423.9913L472.4640,429.6588L492.0480,434.8273L511.6320,439.5496L531.2160,443.8719L550.8000,447.8350L550.8612,447.8464"/>
   <path d="M61.2000,61.2000L80.7840,93.4516L100.3680,122.8640L119.9520,149.7020L139.5360,174.1961L159.1200,196.5771L178.7040,217.0418L198.2880,235.7672L217.8720,252.9137L237.4560,268.6270
            L257.0400,283.0388L276.6240,296.2689L296.2080,308.4256L315.7920,319.6073L335.3760,329.9032L354.9600,339.3940L374.5440,348.1530L394.1280,356.2467L413.7120,363.7355L433.2960,370.6738
            L452.8800,377.1114L472.4640,383.0931L492.0480,388.6597L511.6320,393.8483L531.2160,398.6923L550.8000,403.2221L550.8612,403.2353"/>
   <path d="M61.2000,61.2000L80.7840,100.6340L100.3680,135.7478L119.9520,167.0364L139.5360,194.9305L159.1200,219.8421L178.7040,242.1135L198.2880,262.0470L217.8720,279.9104L237.4560,295.9404
            L257.0400,310.3462L276.6240,323.3133L296.2080,335.0054L315.7920,345.5676L335.3760,355.1282L354.9600,363.8005L374.5440,371.6852L394.1280,378.8709L413.7120,385.4365L433.2960,391.4514
            L452.8800,396.9773L472.4640,402.0687L492.0480,406.7738L511.6320,411.1353L531.2160,415.1910L550.8000,418.9744L550.8612,418.9855"/>
  </g>
  <g style="fill:none; stroke:#008B00; stroke-width:  9.1800; stroke-linecap:butt; stroke-linejoin:miter; stroke-dasharray:none">
   <path d="M61.2000,61.2000L70.9920,93.8392L80.7840,114.3909L90.5760,133.1386L100.3680,149.4318L110.1600,157.9317L119.9520,174.3597L129.7440,190.3071L139.5360,193.4276L149.3280,209.8246
            L159.1200,229.9242L168.9120,255.3837L178.7040,274.8747L188.4960,275.3464L198.2880,274.8237L208.0800,261.9639L217.8720,282.5784L227.6640,304.1021L237.4560,292.8779L247.2480,327.0078
            L257.0400,334.5087L266.8320,349.3103L276.6240,351.6809L286.4160,347.9889L296.2080,355.2788L306.0000,365.9780L315.7920,367.1842L325.5840,394.6336L335.3760,392.7146L345.1680,400.8788
            L354.9600,409.1797L364.7520,405.2373L374.5440,388.2703L384.3360,376.6031L394.1280,374.8915L403.9200,386.3256L413.7120,397.9899L423.5040,398.2522L433.2960,409.3673L443.0880,414.8801
            L452.8800,408.9250L462.6720,433.2758L472.4640,433.6718L482.2560,443.8650L492.0480,471.5786L501.8400,445.4267L511.6320,449.6003L521.4240,452.8258L531.2160,452.1082L541.0080,453.1945
            L550.8000,454.0018"/>
  </g>
  <g style="fill:none; stroke:#000000; stroke-width:  0.9180; stroke-linecap:butt; stroke-linejoin:miter; stroke-dasharray:none">
   <path d="M61.2000,61.2000L550.8000,61.2000"/>
   <path d="M61.2000,550.8000L550.8000,550.8000"/>
   <path d="M61.2000,61.2000L61.2000,73.4400"/>
   <path d="M61.2000,550.8000L61.2000,538.5600"/>
   <path d="M257.0400,61.2000L257.0400,73.4400"/>
   <path d="M257.0400,550.8000L257.0400,538.5600"/>
   <path d="M452.8800,61.2000L452.8800,73.4400"/>
   <path d="M452.8800,550.8000L452.8800,538.5600"/>
   <path d="M61.2000,61.2000L61.2000,550.8000"/>
   <path d="M550.8000,61.2000L550.8000,550.8000"/>
   <path d="M61.2000,61.2000L73.4400,61.2000"/>
   <path d="M550.8000,61.2000L538.5600,61.2000"/>
   <path d="M61.2000,224.4000L73.4400,224.4000"/>
   <path d="M550.8000,224.4000L538.5600,224.4000"/>
   <path d="M61.2000,387.6000L73.4400,387.6000"/>
   <path d="M550.8000,387.6000L538.5600,387.6000"/>
   <path d="M61.2000,550.8000L73.4400,550.8000"/>
   <path d="M550.8000,550.8000L538.5600,550.8000"/>
   <path d="M61.2000,61.2000L61.2000,550.8000L550.8000,550.8000L550.8000,61.2000z"/>
  </g>
 </g>
</svg>
