<?xml version="1.0" encoding="ISO-8859-1"?>
<!DOCTYPE svg PUBLIC "-//W3C//DTD SVG 1.0//EN" "http://www.w3.org/TR/2001/REC-SVG-20010904/DTD/svg10.dtd">
<!-- generated by Grace-5.1.25 -->
<svg xml:space="preserve" width="11.0000in" height="8.5000in" viewBox="0.0000 0.0000 792.0000 612.0000">
 <g transform="translate(0,612.0000) scale(1,-1)">
  <g style="fill:#FFFFFF; fill-rule:nonzero">
   <path  d="M0.0000,0.0000L0.0000,612.0000L792.0000,612.0000L792.0000,0.0000z"/>
  </g>
  <g style="fill:none; stroke:#000000; stroke-width:  0.9180; stroke-linecap:butt; stroke-linejoin:miter; stroke-dasharray:none">
   <path d="M61.2000,61.2000L80.7840,109.5852L100.3680,151.4862L119.9520,187.8111L139.5360,219.3358L159.1200,246.7669L178.7040,270.6799L198.2880,291.5691L217.8720,309.8591L237.4560,325.9144
            L257.0400,340.0483L276.6240,352.5297L296.2080,363.5895L315.7920,373.4262L335.3760,382.2101L354.9600,390.0876L374.5440,397.1843L394.1280,403.6081L413.7120,409.4518L433.2960,414.7950
            L452.8800,419.7060L472.4640,424.2438L492.0480,428.4586L511.6320,432.3940L531.2160,436.0872L550.8000,439.5703L550.8612,439.5806"/>
   <path d="M61.2000,61.2000L80.7840,105.2214L100.3680,143.9336L119.9520,178.0108L139.5360,208.0344L159.1200,234.5482L178.7040,257.9998L198.2880,278.7794L217.8720,297.2273L237.4560,313.6404
            L257.0400,328.2777L276.6240,341.3651L296.2080,353.0996L315.7920,363.6531L335.3760,373.1755L354.9600,381.7975L374.5440,389.6331L394.1280,396.7820L413.7120,403.3308L433.2960,409.3553
            L452.8800,414.9217L472.4640,420.0874L492.0480,424.9030L511.6320,429.4122L531.2160,433.6534L550.8000,437.6601L550.8612,437.6719"/>
   <path d="M61.2000,61.2000L80.7840,99.3819L100.3680,133.6381L119.9520,164.3980L139.5360,192.0390L159.1200,216.9253L178.7040,239.3602L198.2880,259.6134L217.8720,277.9248L237.4560,294.5081
            L257.0400,309.5532L276.6240,323.2291L296.2080,335.6863L315.7920,347.0585L335.3760,357.4649L354.9600,367.0114L374.5440,375.7924L394.1280,383.8917L413.7120,391.3840L433.2960,398.3358
            L452.8800,404.8063L472.4640,410.8479L492.0480,416.5077L511.6320,421.8272L531.2160,426.8436L550.8000,431.5898L550.8612,431.6038"/>
   <path d="M61.2000,61.2000L80.7840,105.5786L100.3680,144.6644L119.9520,179.1313L139.5360,209.5581L159.1200,236.4878L178.7040,260.3674L198.2880,281.5864L217.8720,300.4851L237.4560,317.3600
            L257.0400,332.4701L276.6240,346.0410L296.2080,358.2698L315.7920,369.3282L335.3760,379.3660L354.9600,388.5141L374.5440,396.8862L394.1280,404.5819L413.7120,411.6877L433.2960,418.2794
            L452.8800,424.4227L472.4640,430.1751L492.0480,435.5868L511.6320,440.7014L531.2160,445.5570L550.8000,450.1868L550.8612,450.2007"/>
   <path d="M61.2000,61.2000L80.7840,88.3497L100.3680,113.6346L119.9520,137.1948L139.5360,159.1531L159.1200,179.6375L178.7040,198.7586L198.2880,216.6173L217.8720,233.3071L237.4560,248.9141
            L257.0400,263.5179L276.6240,277.1923L296.2080,290.0052L315.7920,302.0195L335.3760,313.2934L354.9600,323.8805L374.5440,333.8305L394.1280,343.1894L413.7120,351.9996L433.2960,360.3003
            L452.8800,368.1278L472.4640,375.5157L492.0480,382.4949L511.6320,389.0942L531.2160,395.3401L550.8000,401.2571L550.8612,401.2747"/>
   <path d="M61.2000,61.2000L80.7840,102.9630L100.3680,140.0244L119.9520,172.9460L139.5360,202.2176L159.1200,228.3023L178.7040,251.5832L198.2880,272.3972L217.8720,291.0407L237.4560,307.7745
            L257.0400,322.8279L276.6240,336.4025L296.2080,348.6759L315.7920,359.8041L335.3760,369.9244L354.9600,379.1575L374.5440,387.6097L394.1280,395.3744L413.7120,402.5339L433.2960,409.1605
            L452.8800,415.3177L472.4640,421.0616L492.0480,426.4414L511.6320,431.5004L531.2160,436.2767L550.8000,440.8038L550.8612,440.8173"/>
   <path d="M61.2000,61.2000L80.7840,113.1904L100.3680,157.5513L119.9520,195.4440L139.5360,227.8477L159.1200,255.6368L178.7040,279.5158L198.2880,300.0815L217.8720,317.8394L237.4560,333.2174
            L257.0400,346.5782L276.6240,358.2286L296.2080,368.4287L315.7920,377.3985L335.3760,385.3246L354.9600,392.3647L374.5440,398.6526L394.1280,404.3016L413.7120,409.4076L433.2960,414.0517
            L452.8800,418.3028L472.4640,422.2193L492.0480,425.8505L511.6320,429.2383L531.2160,432.4182L550.8000,435.4202L550.8612,435.4291"/>
   <path d="M61.2000,61.2000L80.7840,112.9852L100.3680,157.1755L119.9520,194.9229L139.5360,227.2015L159.1200,254.8800L178.7040,278.6590L198.2880,299.1317L217.8720,316.8010L237.4560,332.0929
            L257.0400,345.3681L276.6240,356.9323L296.2080,367.0444L315.7920,375.9239L335.3760,383.7566L354.9600,390.6999L374.5440,396.8874L394.1280,402.4320L413.7120,407.4295L433.2960,411.9612
            L452.8800,416.0958L472.4640,419.8917L492.0480,423.3983L511.6320,426.6575L531.2160,429.7050L550.8000,432.5709L550.8612,432.5794"/>
   <path d="M61.2000,61.2000L80.7840,112.8609L100.3680,156.9445L119.9520,194.5959L139.5360,226.7850L159.1200,254.3761L178.7040,278.0664L198.2880,298.4469L217.8720,316.0182L237.4560,331.2046
            L257.0400,344.3659L276.6240,355.8066L296.2080,365.7851L315.7920,374.5202L335.3760,382.1975L354.9600,388.9741L374.5440,394.9835L394.1280,400.3385L413.7120,405.1350L433.2960,409.4544
            L452.8800,413.3654L472.4640,416.9266L492.0480,420.1877L511.6320,423.1907L531.2160,425.9714L550.8000,428.5603L550.8612,428.5678"/>
   <path d="M61.2000,61.2000L80.7840,111.2299L100.3680,154.1899L119.9520,191.1148L139.5360,222.8816L159.1200,250.2813L178.7040,273.9546L198.2880,294.4477L217.8720,312.2265L237.4560,327.6881
            L257.0400,341.1711L276.6240,352.9642L296.2080,363.3134L315.7920,372.4287L335.3760,380.4889L354.9600,387.6464L374.5440,394.0313L394.1280,399.7544L413.7120,404.9103L433.2960,409.5793
            L452.8800,413.8304L472.4640,417.7219L492.0480,421.3040L511.6320,424.6190L531.2160,427.7035L550.8000,430.5882L550.8612,430.5967"/>
   <path d="M61.2000,61.2000L80.7840,104.0517L100.3680,141.7934L119.9520,175.0582L139.5360,204.3961L159.1200,230.3219L178.7040,253.2598L198.2880,273.5811L217.8720,291.6102L237.4560,307.6309
            L257.0400,321.8914L276.6240,334.6090L296.2080,345.9735L315.7920,356.1510L335.3760,365.2869L354.9600,373.5082L374.5440,380.9263L394.1280,387.6383L413.7120,393.7296L433.2960,399.2746
            L452.8800,404.3385L472.4640,408.9784L492.0480,413.2444L511.6320,417.1801L531.2160,420.8238L550.8000,424.2092L550.8612,424.2191"/>
   <path d="M61.2000,61.2000L80.7840,103.9810L100.3680,141.8439L119.9520,175.3933L139.5360,205.1517L159.1200,231.6130L178.7040,255.1844L198.2880,276.2233L217.8720,295.0430L237.4560,311.9184
            L257.0400,327.0904L276.6240,340.7704L296.2080,353.1436L315.7920,364.3726L335.3760,374.5999L354.9600,383.9504L374.5440,392.5338L394.1280,400.4461L413.7120,407.7717L433.2960,414.5845
            L452.8800,420.9492L472.4640,426.9228L492.0480,432.5550L511.6320,437.8897L531.2160,442.9650L550.8000,447.8148L550.8612,447.8293"/>
   <path d="M61.2000,61.2000L80.7840,111.3536L100.3680,154.3802L119.9520,191.3282L139.5360,223.0871L159.1200,250.4570L178.7040,274.0861L198.2880,294.5263L217.8720,312.2478L237.4560,327.6513
            L257.0400,341.0782L276.6240,352.8192L296.2080,363.1221L315.7920,372.1978L335.3760,380.2263L354.9600,387.3607L374.5440,393.7315L394.1280,399.4499L413.7120,404.6108L433.2960,409.2948
            L452.8800,413.5708L472.4640,417.4974L492.0480,421.1247L511.6320,424.4952L531.2160,427.6455L550.8000,430.6063L550.8612,430.6150"/>
   <path d="M61.2000,61.2000L80.7840,100.7832L100.3680,136.2028L119.9520,167.9344L139.5360,196.3906L159.1200,221.9667L178.7040,244.9945L198.2880,265.7669L217.8720,284.5437L237.4560,301.5554
            L257.0400,317.0062L276.6240,331.0776L296.2080,343.9302L315.7920,355.7067L335.3760,366.5337L354.9600,376.5232L374.5440,385.7750L394.1280,394.3774L413.7120,402.4088L433.2960,409.9389
            L452.8800,417.0293L472.4640,423.7350L492.0480,430.1046L511.6320,436.1815L531.2160,442.0041L550.8000,447.6065L550.8612,447.6234"/>
   <path d="M61.2000,61.2000L80.7840,110.5180L100.3680,153.0252L119.9520,189.6995L139.5360,221.3765L159.1200,248.8105L178.7040,272.6142L198.2880,293.3113L217.8720,311.3501L237.4560,327.1135
            L257.0400,340.9293L276.6240,353.0777L296.2080,363.7982L315.7920,373.2958L335.3760,381.7457L354.9600,389.2979L374.5440,396.0805L394.1280,402.2033L413.7120,407.7600L433.2960,412.8310
            L452.8800,417.4848L472.4640,421.7802L492.0480,425.7676L511.6320,429.4899L531.2160,432.9840L550.8000,436.2815L550.8612,436.2912"/>
   <path d="M61.2000,61.2000L80.7840,103.1694L100.3680,140.2933L119.9520,173.1589L139.5360,202.2755L159.1200,228.1252L178.7040,251.1064L198.2880,271.5691L217.8720,289.8211L237.4560,306.1327
            L257.0400,320.7413L276.6240,333.8559L296.2080,345.6599L315.7920,356.3145L335.3760,365.9615L354.9600,374.7255L374.5440,382.7159L394.1280,390.0291L413.7120,396.7495L433.2960,402.9516
            L452.8800,408.7008L472.4640,414.0545L492.0480,419.0632L511.6320,423.7715L531.2160,428.2184L550.8000,432.4382L550.8612,432.4507"/>
   <path d="M61.2000,61.2000L80.7840,96.4429L100.3680,128.3882L119.9520,157.3621L139.5360,183.6495L159.1200,207.5280L178.7040,229.2418L198.2880,249.0082L217.8720,267.0241L237.4560,283.4679
            L257.0400,298.5010L276.6240,312.2690L296.2080,324.9035L315.7920,336.5230L335.3760,347.2342L354.9600,357.1330L374.5440,366.3056L394.1280,374.8294L413.7120,382.7738L433.2960,390.2012
            L452.8800,397.1675L472.4640,403.7230L492.0480,409.9126L511.6320,415.7769L531.2160,421.3521L550.8000,426.6707L550.8612,426.6866"/>
   <path d="M61.2000,61.2000L80.7840,109.9648L100.3680,152.1657L119.9520,188.7294L139.5360,220.4441L159.1200,248.0279L178.7040,272.0654L198.2880,293.0579L217.8720,311.4356L237.4560,327.5677
            L257.0400,341.7708L276.6240,354.3164L296.2080,365.4376L315.7920,375.3340L335.3760,384.1772L354.9600,392.1139L374.5440,399.2702L394.1280,405.7540L413.7120,411.6581L433.2960,417.0617
            L452.8800,422.0329L472.4640,426.6299L492.0480,430.9028L511.6320,434.8944L531.2160,438.6412L550.8000,442.1747L550.8612,442.1852"/>
   <path d="M61.2000,61.2000L80.7840,113.0510L100.3680,157.2785L119.9520,195.0418L139.5360,227.3231L159.1200,254.9955L178.7040,278.7634L198.2880,299.2230L217.8720,316.8794L237.4560,332.1601
            L257.0400,345.4271L276.6240,356.9869L296.2080,367.0991L315.7920,375.9835L335.3760,383.8263L354.9600,390.7851L374.5440,396.9935L394.1280,402.5646L413.7120,407.5942L433.2960,412.1636
            L452.8800,416.3415L472.4640,420.1862L492.0480,423.7473L511.6320,427.0665L531.2160,430.1795L550.8000,433.1164L550.8612,433.1252"/>
   <path d="M61.2000,61.2000L80.7840,102.5453L100.3680,139.4219L119.9520,172.3596L139.5360,201.8185L159.1200,228.2373L178.7040,251.9798L198.2880,273.3670L217.8720,292.6820L237.4560,310.1748
            L257.0400,326.0661L276.6240,340.5505L296.2080,353.7998L315.7920,365.9659L335.3760,377.1827L354.9600,387.5684L374.5440,397.2274L394.1280,406.2520L413.7120,414.7237L433.2960,422.7144
            L452.8800,430.2878L472.4640,437.5002L492.0480,444.4013L511.6320,451.0350L531.2160,457.4404L550.8000,463.6518L550.8612,463.6707"/>
   <path d="M61.2000,61.2000L80.7840,110.3603L100.3680,152.8824L119.9520,189.7076L139.5360,221.6454L159.1200,249.4259L178.7040,273.6437L198.2880,294.8082L217.8720,313.3560L237.4560,329.6611
            L257.0400,344.0442L276.6240,356.7801L296.2080,368.1042L315.7920,378.2185L335.3760,387.2958L354.9600,395.4846L374.5440,402.9120L394.1280,409.6871L413.7120,415.9032L433.2960,421.6406
            L452.8800,426.9680L472.4640,431.9444L492.0480,436.6203L511.6320,441.0392L531.2160,445.2383L550.8000,449.2496L550.8612,449.2616"/>
   <path d="M61.2000,61.2000L80.7840,90.3959L100.3680,117.4115L119.9520,142.4262L139.5360,165.5969L159.1200,187.0835L178.7040,207.0251L198.2880,225.5474L217.8720,242.7660L237.4560,258.7869
            L257.0400,273.7073L276.6240,287.6165L296.2080,300.5965L315.7920,312.7225L335.3760,324.0636L354.9600,334.6831L374.5440,344.6391L394.1280,353.9852L413.7120,362.7703L433.2960,371.0394
            L452.8800,378.8338L472.4640,386.1914L492.0480,393.1471L511.6320,399.7327L531.2160,405.9777L550.8000,411.9090L550.8612,411.9266"/>
   <path d="M61.2000,61.2000L80.7840,106.5976L100.3680,146.4019L119.9520,181.3425L139.5360,212.0466L159.1200,239.0975L178.7040,262.9736L198.2880,284.0907L217.8720,302.8099L237.4560,319.4452
            L257.0400,334.2691L276.6240,347.5187L296.2080,359.3996L315.7920,370.0906L335.3760,379.7471L354.9600,388.5040L374.5440,396.4784L394.1280,403.7721L413.7120,410.4736L433.2960,416.6597
            L452.8800,422.3971L472.4640,427.7438L492.0480,432.7501L511.6320,437.4598L531.2160,441.9108L550.8000,446.1363L550.8612,446.1489"/>
   <path d="M61.2000,61.2000L80.7840,94.9772L100.3680,125.7724L119.9520,153.8709L139.5360,179.5225L159.1200,202.9744L178.7040,224.4382L198.2880,244.1033L217.8720,262.1410L237.4560,278.7064
            L257.0400,293.9394L276.6240,307.9666L296.2080,320.9025L315.7920,332.8505L335.3760,343.9043L354.9600,354.1483L374.5440,363.6590L394.1280,372.5055L413.7120,380.7502L433.2960,388.4496
            L452.8800,395.6548L472.4640,402.4119L492.0480,408.7625L511.6320,414.7444L531.2160,420.3916L550.8000,425.7349L550.8612,425.7507"/>
   <path d="M61.2000,61.2000L80.7840,92.4594L100.3680,121.2159L119.9520,147.6901L139.5360,172.0756L159.1200,194.5660L178.7040,215.3302L198.2880,234.5203L217.8720,252.2751L237.4560,268.7214
            L257.0400,283.9750L276.6240,298.1418L296.2080,311.3186L315.7920,323.5935L335.3760,335.0475L354.9600,345.7542L374.5440,355.7812L394.1280,365.1898L413.7120,374.0366L433.2960,382.3729
            L452.8800,390.2456L472.4640,397.6979L492.0480,404.7688L511.6320,411.4942L531.2160,417.9068L550.8000,424.0367L550.8612,424.0550"/>
   <path d="M61.2000,61.2000L80.7840,94.6887L100.3680,125.3108L119.9520,153.3373L139.5360,179.0045L159.1200,202.5465L178.7040,224.1652L198.2880,244.0416L217.8720,262.3392L237.4560,279.2067
            L257.0400,294.7783L276.6240,309.1760L296.2080,322.5099L315.7920,334.8799L335.3760,346.3766L354.9600,357.0819L374.5440,367.0700L394.1280,376.4080L413.7120,385.1568L433.2960,393.3716
            L452.8800,401.1020L472.4640,408.3934L492.0480,415.2864L511.6320,421.8182L531.2160,428.0221L550.8000,433.9284L550.8612,433.9460"/>
   <path d="M61.2000,61.2000L80.7840,109.1934L100.3680,150.8297L119.9520,186.9937L139.5360,218.4415L159.1200,245.8638L178.7040,269.8238L198.2880,290.8056L217.8720,309.2259L237.4560,325.4431
            L257.0400,339.7654L276.6240,352.4580L296.2080,363.7488L315.7920,373.8341L335.3760,382.8825L354.9600,391.0391L374.5440,398.4287L394.1280,405.1587L413.7120,411.3215L433.2960,416.9964
            L452.8800,422.2519L472.4640,427.1466L492.0480,431.7313L511.6320,436.0494L531.2160,440.1383L550.8000,444.0304L550.8612,444.0420"/>
   <path d="M61.2000,61.2000L80.7840,103.3252L100.3680,140.6242L119.9520,173.6797L139.5360,202.9963L159.1200,229.0517L178.7040,252.2411L198.2880,272.9115L217.8720,291.3674L237.4560,307.8767
            L257.0400,322.6745L276.6240,335.9674L296.2080,347.9369L315.7920,358.7425L335.3760,368.5243L354.9600,377.4055L374.5440,385.4942L394.1280,392.8856L413.7120,399.6633L433.2960,405.9009
            L452.8800,411.6630L472.4640,417.0064L492.0480,421.9812L511.6320,426.6315L531.2160,430.9959L550.8000,435.1087L550.8612,435.1209"/>
   <path d="M61.2000,61.2000L80.7840,110.4463L100.3680,152.9207L119.9520,189.5946L139.5360,221.2954L159.1200,248.7727L178.7040,272.6351L198.2880,293.4034L217.8720,311.5234L237.4560,327.3764
            L257.0400,341.2887L276.6240,353.5395L296.2080,364.3676L315.7920,373.9776L335.3760,382.5443L354.9600,390.2173L374.5440,397.1247L394.1280,403.3762L413.7120,409.0655L433.2960,414.2728
            L452.8800,419.0669L472.4640,423.5065L492.0480,427.6420L511.6320,431.5165L531.2160,435.1669L550.8000,438.6247L550.8612,438.6350"/>
   <path d="M61.2000,61.2000L80.7840,101.1850L100.3680,136.9052L119.9520,168.8481L139.5360,197.4355L159.1200,223.0715L178.7040,246.0947L198.2880,266.8037L217.8720,285.4630L237.4560,302.3070
            L257.0400,317.5432L276.6240,331.3554L296.2080,343.9065L315.7920,355.3406L335.3760,365.7856L354.9600,375.3547L374.5440,384.1480L394.1280,392.2544L413.7120,399.7526L433.2960,406.7124
            L452.8800,413.1955L472.4640,419.2567L492.0480,424.9445L511.6320,430.3019L531.2160,435.3672L550.8000,440.1740L550.8612,440.1883"/>
   <path d="M61.2000,61.2000L80.7840,113.7169L100.3680,158.3812L119.9520,196.4010L139.5360,228.7998L159.1200,256.4829L178.7040,280.1792L198.2880,300.5043L217.8720,317.9784L237.4560,333.0405
            L257.0400,346.0616L276.6240,357.3548L296.2080,367.1848L315.7920,375.7751L335.3760,383.3144L354.9600,389.9623L374.5440,395.8534L394.1280,401.1015L413.7120,405.8029L433.2960,410.0387
            L452.8800,413.8777L472.4640,417.3779L492.0480,420.5884L511.6320,423.5506L531.2160,426.2997L550.8000,428.8652L550.8612,428.8727"/>
   <path d="M61.2000,61.2000L80.7840,108.0508L100.3680,148.6933L119.9520,183.9786L139.5360,214.6425L159.1200,241.3532L178.7040,264.6567L198.2880,285.0234L217.8720,302.8585L237.4560,318.5111
            L257.0400,332.2819L276.6240,344.4299L296.2080,355.1786L315.7920,364.7202L335.3760,373.2206L354.9600,380.8228L374.5440,387.6499L394.1280,393.8083L413.7120,399.3895L433.2960,404.4725
            L452.8800,409.1255L472.4640,413.4071L492.0480,417.3682L511.6320,421.0525L531.2160,424.4977L550.8000,427.7364L550.8612,427.7460"/>
   <path d="M61.2000,61.2000L80.7840,106.1843L100.3680,145.5664L119.9520,180.0774L139.5360,210.3483L159.1200,236.9633L178.7040,260.4021L198.2880,281.0813L217.8720,299.3628L237.4560,315.5608
            L257.0400,329.9485L276.6240,342.7629L296.2080,354.2100L315.7920,364.4689L335.3760,373.6949L354.9600,382.0233L374.5440,389.5712L394.1280,396.4407L413.7120,402.7203L433.2960,408.4871
            L452.8800,413.8078L472.4640,418.7407L492.0480,423.3363L511.6320,427.6384L531.2160,431.6853L550.8000,435.5101L550.8612,435.5215"/>
   <path d="M61.2000,61.2000L80.7840,106.6073L100.3680,146.3436L119.9520,181.1521L139.5360,211.6758L159.1200,238.5081L178.7040,262.1363L198.2880,282.9830L217.8720,301.4149L237.4560,317.7504
            L257.0400,332.2658L276.6240,345.2008L296.2080,356.7635L315.7920,367.1344L335.3760,376.4703L354.9600,384.9072L374.5440,392.5632L394.1280,399.5408L413.7120,405.9290L433.2960,411.8049
            L452.8800,417.2358L472.4640,422.2797L492.0480,426.9873L511.6320,431.4024L531.2160,435.5633L550.8000,439.5030L550.8612,439.5147"/>
   <path d="M61.2000,61.2000L80.7840,107.6208L100.3680,148.1613L119.9520,183.6123L139.5360,214.6503L159.1200,241.9006L178.7040,265.8747L198.2880,287.0155L217.8720,305.7062L237.4560,322.2783
            L257.0400,337.0189L276.6240,350.1762L296.2080,361.9651L315.7920,372.5716L335.3760,382.1565L354.9600,390.8592L374.5440,398.8001L394.1280,406.0834L413.7120,412.7994L433.2960,419.0261
            L452.8800,424.8313L472.4640,430.2732L492.0480,435.4027L511.6320,440.2634L531.2160,444.8933L550.8000,449.3254L550.8612,449.3387"/>
   <path d="M61.2000,61.2000L80.7840,98.7416L100.3680,132.5741L119.9520,163.0948L139.5360,190.6485L159.1200,215.5681L178.7040,238.1371L198.2880,258.6066L217.8720,277.2010L237.4560,294.1206
            L257.0400,309.5442L276.6240,323.6316L296.2080,336.5255L315.7920,348.3534L335.3760,359.2289L354.9600,369.2537L374.5440,378.5185L394.1280,387.1043L413.7120,395.0833L433.2960,402.5200
            L452.8800,409.4720L472.4640,415.9908L492.0480,422.1221L511.6320,427.9070L531.2160,433.3819L550.8000,438.5794L550.8612,438.5949"/>
   <path d="M61.2000,61.2000L80.7840,100.5486L100.3680,135.7125L119.9520,167.1678L139.5360,195.3288L159.1200,220.5944L178.7040,243.2962L198.2880,263.7283L217.8720,282.1514L237.4560,298.7969
            L257.0400,313.8700L276.6240,327.5528L296.2080,340.0071L315.7920,351.3763L335.3760,361.7880L354.9600,371.3553L374.5440,380.1788L394.1280,388.3479L413.7120,395.9420L433.2960,403.0315
            L452.8800,409.6794L472.4640,415.9414L492.0480,421.8672L511.6320,427.5009L531.2160,432.8819L550.8000,438.0451L550.8612,438.0607"/>
   <path d="M61.2000,61.2000L80.7840,107.1113L100.3680,147.2543L119.9520,182.3927L139.5360,213.1874L159.1200,240.2465L178.7040,264.0685L198.2880,285.0856L217.8720,303.6723L237.4560,320.1531
            L257.0400,334.8093L276.6240,347.8847L296.2080,359.5907L315.7920,370.1104L335.3760,379.6024L354.9600,388.2046L374.5440,396.0361L394.1280,403.2004L413.7120,409.7872L433.2960,415.8743
            L452.8800,421.5290L472.4640,426.8099L492.0480,431.7677L511.6320,436.4463L531.2160,440.8839L550.8000,445.1136L550.8612,445.1262"/>
   <path d="M61.2000,61.2000L80.7840,87.5562L100.3680,112.2086L119.9520,135.2819L139.5360,156.8836L159.1200,177.1245L178.7040,196.1044L198.2880,213.9132L217.8720,230.6343L237.4560,246.3453
            L257.0400,261.1178L276.6240,275.0186L296.2080,288.1092L315.7920,300.4472L335.3760,312.0854L354.9600,323.0734L374.5440,333.4567L394.1280,343.2777L413.7120,352.5758L433.2960,361.3874
            L452.8800,369.7463L472.4640,377.6840L492.0480,385.2294L511.6320,392.4096L531.2160,399.2495L550.8000,405.7725L550.8612,405.7920"/>
   <path d="M61.2000,61.2000L80.7840,109.1224L100.3680,150.6481L119.9520,186.6694L139.5360,217.9473L159.1200,245.1777L178.7040,268.9275L198.2880,289.6840L217.8720,307.8663L237.4560,323.8347
            L257.0400,337.8990L276.6240,350.3255L296.2080,361.3432L315.7920,371.1490L335.3760,379.9122L354.9600,387.7783L374.5440,394.8724L394.1280,401.3023L413.7120,407.1604L433.2960,412.5263
            L452.8800,417.4686L472.4640,422.0459L492.0480,426.3092L511.6320,430.3018L531.2160,434.0614L550.8000,437.6202L550.8612,437.6308"/>
   <path d="M61.2000,61.2000L80.7840,102.5015L100.3680,139.2720L119.9520,172.0471L139.5360,201.2923L159.1200,227.4509L178.7040,250.8903L198.2880,271.9342L217.8720,290.8681L237.4560,307.9438
            L257.0400,323.3833L276.6240,337.3824L296.2080,350.1136L315.7920,361.7291L335.3760,372.3633L354.9600,382.1343L374.5440,391.1466L394.1280,399.4923L413.7120,407.2524L433.2960,414.4985
            L452.8800,421.2938L472.4640,427.6938L492.0480,433.7478L511.6320,439.4990L531.2160,444.9856L550.8000,450.2413L550.8612,450.2571"/>
   <path d="M61.2000,61.2000L80.7840,100.1786L100.3680,135.1589L119.9520,166.5838L139.5360,194.8378L159.1200,220.2916L178.7040,243.2566L198.2880,264.0085L217.8720,282.7924L237.4560,299.8262
            L257.0400,315.3038L276.6240,329.3973L296.2080,342.2599L315.7920,354.0277L335.3760,364.8218L354.9600,374.7497L374.5440,383.9069L394.1280,392.3785L413.7120,400.2399L433.2960,407.5582
            L452.8800,414.3931L472.4640,420.7975L492.0480,426.8184L511.6320,432.4978L531.2160,437.8727L550.8000,442.9761L550.8612,442.9913"/>
   <path d="M61.2000,61.2000L80.7840,97.6123L100.3680,130.5440L119.9520,160.3577L139.5360,187.3701L159.1200,211.8894L178.7040,234.1776L198.2880,254.4677L217.8720,272.9687L237.4560,289.8680
            L257.0400,305.3334L276.6240,319.5154L296.2080,332.5489L315.7920,344.5549L335.3760,355.6418L354.9600,365.9066L374.5440,375.4366L394.1280,384.3098L413.7120,392.5961L433.2960,400.3583
            L452.8800,407.6526L472.4640,414.5293L492.0480,421.0338L511.6320,427.2063L531.2160,433.0833L550.8000,438.6973L550.8612,438.7141"/>
   <path d="M61.2000,61.2000L80.7840,110.1224L100.3680,152.4258L119.9520,189.0464L139.5360,220.7925L159.1200,248.3900L178.7040,272.4309L198.2880,293.4224L217.8720,311.7992L237.4560,327.9341
            L257.0400,342.1462L276.6240,354.7094L296.2080,365.8583L315.7920,375.7941L335.3760,384.6893L354.9600,392.6919L374.5440,399.9285L394.1280,406.5080L413.7120,412.5236L433.2960,418.0554
            L452.8800,423.1719L472.4640,427.9320L492.0480,432.3862L511.6320,436.5778L531.2160,440.5441L550.8000,444.3168L550.8612,444.3281"/>
   <path d="M61.2000,61.2000L80.7840,107.4811L100.3680,147.9380L119.9520,183.3493L139.5360,214.3814L159.1200,241.6511L178.7040,265.6636L198.2880,286.8566L217.8720,305.6090L237.4560,322.2492
            L257.0400,337.0617L276.6240,350.2926L296.2080,362.1555L315.7920,372.8351L335.3760,382.4914L354.9600,391.2630L374.5440,399.2701L394.1280,406.6167L413.7120,413.3927L433.2960,419.6762
            L452.8800,425.5347L472.4640,431.0268L492.0480,436.2033L511.6320,441.1079L531.2160,445.7787L550.8000,450.2488L550.8612,450.2622"/>
   <path d="M61.2000,61.2000L80.7840,111.6148L100.3680,154.9041L119.9520,192.1177L139.5360,224.1440L159.1200,251.7836L178.7040,275.6848L198.2880,296.3994L217.8720,314.3979L237.4560,330.0809
            L257.0400,343.7897L276.6240,355.8151L296.2080,366.4047L315.7920,375.7696L335.3760,384.0897L354.9600,391.5180L374.5440,398.1852L394.1280,404.2024L413.7120,409.6646L433.2960,414.6526
            L452.8800,419.2354L472.4640,423.4717L492.0480,427.4118L511.6320,431.0986L531.2160,434.5687L550.8000,437.8532L550.8612,437.8630"/>
   <path d="M61.2000,61.2000L80.7840,109.7899L100.3680,151.9514L119.9520,188.5855L139.5360,220.4543L159.1200,248.2574L178.7040,272.5653L198.2880,293.8679L217.8720,312.5867L237.4560,329.0841
            L257.0400,343.6713L276.6240,356.6162L296.2080,368.1488L315.7920,378.4670L335.3760,387.7408L354.9600,396.1162L374.5440,403.7189L394.1280,410.6568L413.7120,417.0226L433.2960,422.8961
            L452.8800,428.3459L472.4640,433.4309L492.0480,438.2017L511.6320,442.7019L531.2160,446.9691L550.8000,451.0355L550.8612,451.0476"/>
   <path d="M61.2000,61.2000L80.7840,100.7619L100.3680,136.2093L119.9520,168.0065L139.5360,196.5545L159.1200,222.2388L178.7040,245.3833L198.2880,266.2744L217.8720,285.1660L237.4560,302.2836
            L257.0400,317.8275L276.6240,331.9751L296.2080,344.8841L315.7920,356.6943L335.3760,367.5298L354.9600,377.5007L374.5440,386.7047L394.1280,395.2284L413.7120,403.1485L433.2960,410.5334
            L452.8800,417.4435L472.4640,423.9322L492.0480,430.0473L511.6320,435.8307L531.2160,441.3199L550.8000,446.5479L550.8612,446.5635"/>
   <path d="M61.2000,61.2000L80.7840,103.6723L100.3680,141.2368L119.9520,174.4904L139.5360,203.9529L159.1200,230.1137L178.7040,253.3769L198.2880,274.0970L217.8720,292.5851L237.4560,309.1143
            L257.0400,323.9240L276.6240,337.2245L296.2080,349.2005L315.7920,360.0139L335.3760,369.8070L354.9600,378.7048L374.5440,386.8171L394.1280,394.2402L413.7120,401.0591L433.2960,407.3481
            L452.8800,413.1728L472.4640,418.5909L492.0480,423.6530L511.6320,428.4038L531.2160,432.8826L550.8000,437.1241L550.8612,437.1367"/>
   <path d="M61.2000,61.2000L80.7840,96.1232L100.3680,127.9080L119.9520,156.8669L139.5360,183.2745L159.1200,207.4028L178.7040,229.4808L198.2880,249.7146L217.8720,268.2900L237.4560,285.3744
            L257.0400,301.1189L276.6240,315.6596L296.2080,329.1193L315.7920,341.6089L335.3760,353.2281L354.9600,364.0671L374.5440,374.2072L394.1280,383.7218L413.7120,392.6769L433.2960,401.1323
            L452.8800,409.1419L472.4640,416.7544L492.0480,424.0136L511.6320,430.9593L531.2160,437.6272L550.8000,444.0496L550.8612,444.0690"/>
   <path d="M61.2000,61.2000L80.7840,102.4111L100.3680,139.0823L119.9520,171.7490L139.5360,200.8769L159.1200,226.9091L178.7040,250.2131L198.2880,271.1124L217.8720,289.8926L237.4560,306.8053
            L257.0400,322.0723L276.6240,335.8894L296.2080,348.4291L315.7920,359.8434L335.3760,370.2664L354.9600,379.8164L374.5440,388.5976L394.1280,396.7019L413.7120,404.2104L433.2960,411.1946
            L452.8800,417.7173L472.4640,423.8343L492.0480,429.5943L511.6320,435.0408L531.2160,440.2116L550.8000,445.1403L550.8612,445.1551"/>
   <path d="M61.2000,61.2000L80.7840,105.8911L100.3680,144.9954L119.9520,179.2374L139.5360,209.2459L159.1200,235.6021L178.7040,258.7835L198.2880,279.2053L217.8720,297.2282L237.4560,313.1659
            L257.0400,327.2912L276.6240,339.8411L296.2080,351.0219L315.7920,361.0128L335.3760,369.9700L354.9600,378.0290L374.5440,385.3079L394.1280,391.9094L413.7120,397.9230L433.2960,403.4264
            L452.8800,408.4874L472.4640,413.1648L492.0480,417.5101L511.6320,421.5678L531.2160,425.3770L550.8000,428.9716L550.8612,428.9823"/>
   <path d="M61.2000,61.2000L80.7840,108.7913L100.3680,150.2665L119.9520,186.4626L139.5360,218.0908L159.1200,245.8077L178.7040,270.1491L198.2880,291.5777L217.8720,310.4926L237.4560,327.2385
            L257.0400,342.1126L276.6240,355.3714L296.2080,367.2362L315.7920,377.8980L335.3760,387.5213L354.9600,396.2483L374.5440,404.2014L394.1280,411.4863L413.7120,418.1942L433.2960,424.4035
            L452.8800,430.1821L472.4640,435.5883L492.0480,440.6725L511.6320,445.4782L531.2160,450.0427L550.8000,454.3984L550.8612,454.4115"/>
   <path d="M61.2000,61.2000L80.7840,110.6246L100.3680,153.0674L119.9520,189.5442L139.5360,220.9205L159.1200,247.9756L178.7040,271.3416L198.2880,291.5578L217.8720,309.0848L237.4560,324.3156
            L257.0400,337.5857L276.6240,349.1813L296.2080,359.3471L315.7920,368.2918L335.3760,376.1937L354.9600,383.2048L374.5440,389.4554L394.1280,395.0564L413.7120,400.1028L433.2960,404.6756
            L452.8800,408.8441L472.4640,412.6676L492.0480,416.1968L511.6320,419.4750L531.2160,422.5392L550.8000,425.4213L550.8612,425.4299"/>
   <path d="M61.2000,61.2000L80.7840,108.7322L100.3680,150.0658L119.9520,186.0527L139.5360,217.4240L159.1200,244.8482L178.7040,268.8713L198.2880,289.9638L217.8720,308.5313L237.4560,324.9233
            L257.0400,339.4411L276.6240,352.3443L296.2080,363.8568L315.7920,374.1713L335.3760,383.4542L354.9600,391.8488L374.5440,399.4785L394.1280,406.4499L413.7120,412.8548L433.2960,418.7723
            L452.8800,424.2705L472.4640,429.4084L492.0480,434.2367L511.6320,438.7991L531.2160,443.1332L550.8000,447.2718L550.8612,447.2842"/>
   <path d="M61.2000,61.2000L80.7840,101.5876L100.3680,137.6185L119.9520,169.8016L139.5360,198.5778L159.1200,224.3687L178.7040,247.5254L198.2880,268.3580L217.8720,287.1405L237.4560,304.1152
            L257.0400,319.4965L276.6240,333.4738L296.2080,346.2148L315.7920,357.8677L335.3760,368.5636L354.9600,378.4185L374.5440,387.5351L394.1280,396.0040L413.7120,403.9058L433.2960,411.3116
            L452.8800,418.2843L472.4640,424.8798L492.0480,431.1474L511.6320,437.1311L531.2160,442.8695L550.8000,448.3973L550.8612,448.4140"/>
   <path d="M61.2000,61.2000L80.7840,106.4794L100.3680,146.1524L119.9520,180.9523L139.5360,211.5107L159.1200,238.4137L178.7040,262.1420L198.2880,283.1134L217.8720,301.6906L237.4560,318.1888
            L257.0400,332.8818L276.6240,346.0072L296.2080,357.7716L315.7920,368.3543L335.3760,377.9112L354.9600,386.5775L374.5440,394.4707L394.1280,401.6929L413.7120,408.3329L433.2960,414.4675
            L452.8800,420.1636L472.4640,425.4795L492.0480,430.4654L511.6320,435.1652L531.2160,439.6170L550.8000,443.8539L550.8612,443.8666"/>
   <path d="M61.2000,61.2000L80.7840,110.7752L100.3680,153.5100L119.9520,190.3874L139.5360,222.2582L159.1200,249.8773L178.7040,273.8609L198.2880,294.7351L217.8720,312.9494L237.4560,328.8881
            L257.0400,342.8797L276.6240,355.2050L296.2080,366.1041L315.7920,375.7825L335.3760,384.4157L354.9600,392.1540L374.5440,399.1261L394.1280,405.4421L413.7120,411.1960L433.2960,416.4686
            L452.8800,421.3288L472.4640,425.8357L492.0480,430.0400L511.6320,433.9851L531.2160,437.7080L550.8000,441.2405L550.8612,441.2511"/>
   <path d="M61.2000,61.2000L80.7840,90.1412L100.3680,116.9965L119.9520,141.9345L139.5360,165.1022L159.1200,186.6501L178.7040,206.7093L198.2880,225.3988L217.8720,242.8278L237.4560,259.0969
            L257.0400,274.2984L276.6240,288.5173L296.2080,301.8317L315.7920,314.3134L335.3760,326.0284L354.9600,337.0374L374.5440,347.3961L394.1280,357.1559L413.7120,366.3638L433.2960,375.0633
            L452.8800,383.2941L472.4640,391.0927L492.0480,398.4930L511.6320,405.5256L531.2160,412.2191L550.8000,418.5994L550.8612,418.6185"/>
   <path d="M61.2000,61.2000L80.7840,100.4515L100.3680,135.6987L119.9520,167.3869L139.5360,195.9012L159.1200,221.6111L178.7040,244.8297L198.2880,265.8333L217.8720,284.8676L237.4560,302.1510
            L257.0400,317.8775L276.6240,332.2198L296.2080,345.3312L315.7920,357.3481L335.3760,368.3916L354.9600,378.5693L374.5440,387.9768L394.1280,396.6991L413.7120,404.8115L433.2960,412.3810
            L452.8800,419.4672L472.4640,426.1228L492.0480,432.3946L511.6320,438.3244L531.2160,443.9489L550.8000,449.3009L550.8612,449.3168"/>
   <path d="M61.2000,61.2000L80.7840,94.4077L100.3680,124.7368L119.9520,152.4566L139.5360,177.8023L159.1200,201.0056L178.7040,222.2699L198.2880,241.7771L217.8720,259.6924L237.4560,276.1663
            L257.0400,291.3355L276.6240,305.3244L296.2080,318.2460L315.7920,330.2031L335.3760,341.2889L354.9600,351.5881L374.5440,361.1775L394.1280,370.1268L413.7120,378.4992L433.2960,386.3518
            L452.8800,393.7365L472.4640,400.7003L492.0480,407.2855L511.6320,413.5308L531.2160,419.4709L550.8000,425.1373L550.8612,425.1542"/>
   <path d="M61.2000,61.2000L80.7840,107.0313L100.3680,147.1232L119.9520,182.2350L139.5360,213.0198L159.1200,240.0816L178.7040,263.9156L198.2880,284.9511L217.8720,303.5604L237.4560,320.0661
            L257.0400,334.7483L276.6240,347.8494L296.2080,359.5800L315.7920,370.1225L335.3760,379.6349L354.9600,388.2545L374.5440,396.1000L394.1280,403.2747L413.7120,409.8679L433.2960,415.9572
            L452.8800,421.6096L472.4640,426.8835L492.0480,431.8294L511.6320,436.4912L531.2160,440.9068L550.8000,445.1092L550.8612,445.1217"/>
   <path d="M61.2000,61.2000L80.7840,110.5810L100.3680,153.1344L119.9520,189.8428L139.5360,221.5390L159.1200,248.9789L178.7040,272.7758L198.2880,293.4545L217.8720,311.4637L237.4560,327.1873
            L257.0400,340.9535L276.6240,353.0429L296.2080,363.6955L315.7920,373.1166L335.3760,381.4816L354.9600,388.9407L374.5440,395.6221L394.1280,401.6356L413.7120,407.0750L433.2960,412.0205
            L452.8800,416.5408L472.4640,420.6944L492.0480,424.5317L511.6320,428.0956L531.2160,431.4227L550.8000,434.5446L550.8612,434.5538"/>
   <path d="M61.2000,61.2000L80.7840,105.3709L100.3680,144.2785L119.9520,178.5920L139.5360,208.8912L159.1200,235.7168L178.7040,259.5142L198.2880,280.6720L217.8720,299.5295L237.4560,316.3826
            L257.0400,331.4897L276.6240,345.0762L296.2080,357.3389L315.7920,368.4496L335.3760,378.5581L354.9600,387.7955L374.5440,396.2758L394.1280,404.0989L413.7120,411.3519L433.2960,418.1107
            L452.8800,424.4419L472.4640,430.4035L492.0480,436.0460L511.6320,441.4139L531.2160,446.5457L550.8000,451.4754L550.8612,451.4903"/>
   <path d="M61.2000,61.2000L80.7840,107.9409L100.3680,148.6819L119.9520,184.2343L139.5360,215.2940L159.1200,242.5013L178.7040,266.3798L198.2880,287.3819L217.8720,305.8987L237.4560,322.2681
            L257.0400,336.7820L276.6240,349.6928L296.2080,361.2183L315.7920,371.5471L335.3760,380.8418L354.9600,389.2431L374.5440,396.8725L394.1280,403.8351L413.7120,410.2216L433.2960,416.1103
            L452.8800,421.5692L472.4640,426.6566L492.0480,431.4233L511.6320,435.9129L531.2160,440.1634L550.8000,444.2073L550.8612,444.2193"/>
   <path d="M61.2000,61.2000L80.7840,109.0108L100.3680,150.5438L119.9520,186.6647L139.5360,218.1160L159.1200,245.5757L178.7040,269.5972L198.2880,290.6571L217.8720,309.1656L237.4560,325.4759
            L257.0400,339.8921L276.6240,352.6762L296.2080,364.0535L315.7920,374.2181L335.3760,383.3372L354.9600,391.5546L374.5440,398.9942L394.1280,405.7626L413.7120,411.9516L433.2960,417.6404
            L452.8800,422.8970L472.4640,427.7800L492.0480,432.3399L511.6320,436.6202L531.2160,440.6582L550.8000,444.4863L550.8612,444.4977"/>
   <path d="M61.2000,61.2000L80.7840,95.6685L100.3680,127.0398L119.9520,155.6172L139.5360,181.6660L159.1200,205.4465L178.7040,227.1823L198.2880,247.0733L217.8720,265.2995L237.4560,282.0235
            L257.0400,297.3920L276.6240,311.5372L296.2080,324.5785L315.7920,336.6236L335.3760,347.7695L354.9600,358.1039L374.5440,367.7057L394.1280,376.6462L413.7120,384.9896L433.2960,392.7939
            L452.8800,400.1113L472.4640,406.9890L492.0480,413.4694L511.6320,419.5908L531.2160,425.3877L550.8000,430.8912L550.8612,430.9075"/>
   <path d="M61.2000,61.2000L80.7840,107.3276L100.3680,147.6052L119.9520,182.8125L139.5360,213.6173L159.1200,240.6377L178.7040,264.3795L198.2880,285.2809L217.8720,303.7212L237.4560,320.0287
            L257.0400,334.4878L276.6240,347.3448L296.2080,358.8128L315.7920,369.0763L335.3760,378.2951L354.9600,386.6074L374.5440,394.1330L394.1280,400.9755L413.7120,407.2245L433.2960,412.9577
            L452.8800,418.2423L472.4640,423.1363L492.0480,427.6902L511.6320,431.9474L531.2160,435.9457L550.8000,439.7177L550.8612,439.7289"/>
   <path d="M61.2000,61.2000L80.7840,101.1740L100.3680,136.8986L119.9520,168.8583L139.5360,197.4754L159.1200,223.1553L178.7040,246.2342L198.2880,267.0100L217.8720,285.7466L237.4560,302.6774
            L257.0400,318.0093L276.6240,331.9253L296.2080,344.5877L315.7920,356.1399L335.3760,366.7090L354.9600,376.4077L374.5440,385.3356L394.1280,393.5808L413.7120,401.2216L433.2960,408.3271
            L452.8800,414.9584L472.4640,421.1698L492.0480,427.0094L511.6320,432.5194L531.2160,437.7377L550.8000,442.6973L550.8612,442.7121"/>
   <path d="M61.2000,61.2000L80.7840,95.3738L100.3680,126.5624L119.9520,155.0527L139.5360,181.0964L159.1200,204.9436L178.7040,226.8066L198.2880,246.8763L217.8720,265.3250L237.4560,282.3089
            L257.0400,297.9688L276.6240,312.4322L296.2080,325.8142L315.7920,338.2191L335.3760,349.7408L354.9600,360.4644L374.5440,370.4669L394.1280,379.8177L413.7120,388.5795L433.2960,396.8092
            L452.8800,404.5579L472.4640,411.8721L492.0480,418.7936L511.6320,425.3602L531.2160,431.6060L550.8000,437.5620L550.8612,437.5798"/>
   <path d="M61.2000,61.2000L80.7840,112.3015L100.3680,156.0226L119.9520,193.4649L139.5360,225.5718L159.1200,253.1786L178.7040,276.9621L198.2880,297.4965L217.8720,315.2697L237.4560,330.6957
            L257.0400,344.1263L276.6240,355.8601L296.2080,366.1509L315.7920,375.2140L335.3760,383.2328L354.9600,390.3626L374.5440,396.7358L394.1280,402.4646L413.7120,407.6447L433.2960,412.3571
            L452.8800,416.6711L472.4640,420.6452L492.0480,424.3295L511.6320,427.7664L531.2160,430.9921L550.8000,434.0374L550.8612,434.0464"/>
   <path d="M61.2000,61.2000L80.7840,95.4876L100.3680,126.7001L119.9520,155.1357L139.5360,181.0550L159.1200,204.7165L178.7040,226.3394L198.2880,246.1206L217.8720,264.2378L237.4560,280.8513
            L257.0400,296.1057L276.6240,310.1317L296.2080,323.0471L315.7920,334.9582L335.3760,345.9611L354.9600,356.1423L374.5440,365.5799L394.1280,374.3446L413.7120,382.4998L433.2960,390.1030
            L452.8800,397.2060L472.4640,403.8555L492.0480,410.0936L511.6320,415.9582L531.2160,421.4838L550.8000,426.7011L550.8612,426.7166"/>
   <path d="M61.2000,61.2000L80.7840,96.3123L100.3680,128.2815L119.9520,157.4179L139.5360,183.9916L159.1200,208.2678L178.7040,230.4743L198.2880,250.8145L217.8720,269.4715L237.4560,286.6106
            L257.0400,302.3808L276.6240,316.9163L296.2080,330.3382L315.7920,342.7556L335.3760,354.2667L354.9600,364.9603L374.5440,374.9161L394.1280,384.2060L413.7120,392.8950L433.2960,401.0412
            L452.8800,408.6975L472.4640,415.9110L492.0480,422.7244L511.6320,429.1761L531.2160,435.3007L550.8000,441.1293L550.8612,441.1467"/>
   <path d="M61.2000,61.2000L80.7840,97.8738L100.3680,130.9778L119.9520,160.8838L139.5360,187.9205L159.1200,212.4081L178.7040,234.6140L198.2880,254.7777L217.8720,273.1132L237.4560,289.8124
            L257.0400,305.0467L276.6240,318.9697L296.2080,331.7188L315.7920,343.4173L335.3760,354.1751L354.9600,364.0912L374.5440,373.2537L394.1280,381.7418L413.7120,389.6264L433.2960,396.9711
            L452.8800,403.8326L472.4640,410.2620L492.0480,416.3048L511.6320,422.0021L531.2160,427.3904L550.8000,432.5027L550.8612,432.5179"/>
   <path d="M61.2000,61.2000L80.7840,107.6048L100.3680,148.1003L119.9520,183.4791L139.5360,214.4253L159.1200,241.5666L178.7040,265.4171L198.2880,286.4217L217.8720,304.9650L237.4560,321.3796
            L257.0400,335.9535L276.6240,348.9355L296.2080,360.5410L315.7920,370.9564L335.3760,380.3427L354.9600,388.8394L374.5440,396.5671L394.1280,403.6303L413.7120,410.1192L433.2960,416.1119
            L452.8800,421.6761L472.4640,426.8703L492.0480,431.7451L511.6320,436.3445L531.2160,440.7063L550.8000,444.8635L550.8612,444.8759"/>
   <path d="M61.2000,61.2000L80.7840,94.6133L100.3680,125.1504L119.9520,153.0840L139.5360,178.6522L159.1200,202.0900L178.7040,223.6009L198.2880,243.3667L217.8720,261.5521L237.4560,278.3065
            L257.0400,293.7648L276.6240,308.0497L296.2080,321.2718L315.7920,333.5317L335.3760,344.9201L354.9600,355.5195L374.5440,365.4044L394.1280,374.6423L413.7120,383.2942L433.2960,391.4155
            L452.8800,399.0563L472.4640,406.2619L492.0480,413.0733L511.6320,419.5277L531.2160,425.6586L550.8000,431.4964L550.8612,431.5138"/>
   <path d="M61.2000,61.2000L80.7840,94.8771L100.3680,125.6604L119.9520,153.8242L139.5360,179.6095L159.1200,203.2566L178.7040,224.9693L198.2880,244.9312L217.8720,263.3084L237.4560,280.2514
            L257.0400,295.8963L276.6240,310.3665L296.2080,323.7735L315.7920,336.2183L335.3760,347.7923L354.9600,358.5784L374.5440,368.6513L394.1280,378.0790L413.7120,386.9227L433.2960,395.2379
            L452.8800,403.0750L472.4640,410.4795L492.0480,417.4923L511.6320,424.1508L531.2160,430.4886L550.8000,436.5363L550.8612,436.5544"/>
   <path d="M61.2000,61.2000L80.7840,94.8126L100.3680,125.5398L119.9520,153.6522L139.5360,179.3924L159.1200,203.0011L178.7040,224.6802L198.2880,244.6129L217.8720,262.9646L237.4560,279.8851
            L257.0400,295.5101L276.6240,309.9625L296.2080,323.3534L315.7920,335.7834L335.3760,347.3438L354.9600,358.1172L374.5440,368.1782L394.1280,377.5946L413.7120,386.4277L433.2960,394.7331
            L452.8800,402.5610L472.4640,409.9569L492.0480,416.9621L511.6320,423.6139L531.2160,429.9461L550.8000,435.9894L550.8612,436.0074"/>
   <path d="M61.2000,61.2000L80.7840,102.8496L100.3680,139.7024L119.9520,172.3332L139.5360,201.2492L159.1200,226.9236L178.7040,249.7486L198.2880,270.0684L217.8720,288.1852L237.4560,304.3644
            L257.0400,318.8394L276.6240,331.8150L296.2080,343.4711L315.7920,353.9661L335.3760,363.4389L354.9600,372.0117L374.5440,379.7920L394.1280,386.8743L413.7120,393.3416L433.2960,399.2671
            L452.8800,404.7149L472.4640,409.7417L492.0480,414.3972L511.6320,418.7251L531.2160,422.7640L550.8000,426.5478L550.8612,426.5589"/>
   <path d="M61.2000,61.2000L80.7840,101.0874L100.3680,136.6715L119.9520,168.4424L139.5360,196.8322L159.1200,222.2513L178.7040,245.0408L198.2880,265.5023L217.8720,283.9026L237.4560,300.4777
            L257.0400,315.4364L276.6240,328.9636L296.2080,341.2227L315.7920,352.3583L335.3760,362.4985L354.9600,371.7566L374.5440,380.2329L394.1280,388.0161L413.7120,395.1849L433.2960,401.8088
            L452.8800,407.9495L472.4640,413.6613L492.0480,418.9927L511.6320,423.9863L531.2160,428.6799L550.8000,433.1072L550.8612,433.1203"/>
   <path d="M61.2000,61.2000L80.7840,110.4103L100.3680,152.9474L119.9520,189.7601L139.5360,221.6644L159.1200,249.3953L178.7040,273.5514L198.2880,294.6452L217.8720,313.1158L237.4560,329.3394
            L257.0400,343.6380L276.6240,356.2877L296.2080,367.5250L315.7920,377.5523L335.3760,386.5433L354.9600,394.6466L374.5440,401.9897L394.1280,408.6819L413.7120,414.8167L433.2960,420.4743
            L452.8800,425.7237L472.4640,430.6237L492.0480,435.2249L511.6320,439.5706L531.2160,443.6982L550.8000,447.6395L550.8612,447.6513"/>
   <path d="M61.2000,61.2000L80.7840,110.5663L100.3680,153.1299L119.9520,189.8700L139.5360,221.6199L159.1200,249.1342L178.7040,273.0255L198.2880,293.8178L217.8720,311.9593L237.4560,327.8336
            L257.0400,341.7684L276.6240,354.0444L296.2080,364.9013L315.7920,374.5445L335.3760,383.1494L354.9600,390.8662L374.5440,397.8234L394.1280,404.1307L413.7120,409.8821L433.2960,415.1582
            L452.8800,420.0277L472.4640,424.5494L492.0480,428.7738L511.6320,432.7439L531.2160,436.4968L550.8000,440.0639L550.8612,440.0746"/>
   <path d="M61.2000,61.2000L80.7840,96.8736L100.3680,129.2299L119.9520,158.6060L139.5360,185.2949L159.1200,209.5823L178.7040,231.7137L198.2880,251.9072L217.8720,270.3588L237.4560,287.2450
            L257.0400,302.7240L276.6240,316.9383L296.2080,330.0160L315.7920,342.0719L335.3760,353.2096L354.9600,363.5218L374.5440,373.0920L394.1280,381.9952L413.7120,390.2987L433.2960,398.0630
            L452.8800,405.3426L472.4640,412.1860L492.0480,418.6373L511.6320,424.7358L531.2160,430.5167L550.8000,436.0119L550.8612,436.0282"/>
   <path d="M61.2000,61.2000L80.7840,113.6971L100.3680,158.3931L119.9520,196.4879L139.5360,228.9966L159.1200,256.8189L178.7040,280.6796L198.2880,301.1909L217.8720,318.8703L237.4560,334.1550
            L257.0400,347.4144L276.6240,358.9608L296.2080,369.0578L315.7920,377.9286L335.3760,385.7614L354.9600,392.7156L374.5440,398.9257L394.1280,404.5055L413.7120,409.5513L433.2960,414.1444
            L452.8800,418.3534L472.4640,422.2367L492.0480,425.8434L511.6320,429.2152L531.2160,432.3872L550.8000,435.3894L550.8612,435.3983"/>
   <path d="M61.2000,61.2000L80.7840,98.5497L100.3680,132.2645L119.9520,162.7309L139.5360,190.2848L159.1200,215.2526L178.7040,237.9107L198.2880,258.5046L217.8720,277.2539L237.4560,294.3549
            L257.0400,309.9831L276.6240,324.2955L296.2080,337.4322L315.7920,349.5186L335.3760,360.6669L354.9600,370.9772L374.5440,380.5391L394.1280,389.4325L413.7120,397.7289L433.2960,405.4923
            L452.8800,412.7798L472.4640,419.6423L492.0480,426.1255L511.6320,432.2700L531.2160,438.1121L550.8000,443.6845L550.8612,443.7011"/>
   <path d="M61.2000,61.2000L80.7840,97.9931L100.3680,131.2576L119.9520,161.3592L139.5360,188.6215L159.1200,213.3600L178.7040,235.8383L198.2880,256.2923L217.8720,274.9336L237.4560,291.9511
            L257.0400,307.5145L276.6240,321.7755L296.2080,334.8698L315.7920,346.9193L335.3760,358.0327L354.9600,368.3078L374.5440,377.8319L394.1280,386.6831L413.7120,394.9317L433.2960,402.6402
            L452.8800,409.8650L472.4640,416.6562L492.0480,423.0589L511.6320,429.1134L531.2160,434.8558L550.8000,440.3183L550.8612,440.3346"/>
   <path d="M61.2000,61.2000L80.7840,94.5147L100.3680,124.9908L119.9520,152.8946L139.5360,178.4603L159.1200,201.9220L178.7040,223.4779L198.2880,243.3072L217.8720,261.5718L237.4560,278.4189
            L257.0400,293.9814L276.6240,308.3800L296.2080,321.7239L315.7920,334.1122L335.3760,345.6347L354.9600,356.3725L374.5440,366.3994L394.1280,375.7819L413.7120,384.5807L433.2960,392.8504
            L452.8800,400.6405L472.4640,407.9962L492.0480,414.9579L511.6320,421.5626L531.2160,427.8436L550.8000,433.8311L550.8612,433.8490"/>
   <path d="M61.2000,61.2000L80.7840,113.1398L100.3680,157.4639L119.9520,195.3284L139.5360,227.7129L159.1200,255.4888L178.7040,279.3591L198.2880,299.9192L217.8720,317.6733L237.4560,333.0484
            L257.0400,346.4064L276.6240,358.0535L296.2080,368.2493L315.7920,377.2135L335.3760,385.1324L354.9600,392.1635L374.5440,398.4406L394.1280,404.0769L413.7120,409.1682L433.2960,413.7957
            L452.8800,418.0285L472.4640,421.9249L492.0480,425.5343L511.6320,428.8987L531.2160,432.0538L550.8000,435.0296L550.8612,435.0384"/>
   <path d="M61.2000,61.2000L80.7840,88.9573L100.3680,114.7343L119.9520,138.6844L139.5360,160.9421L159.1200,181.6473L178.7040,200.9200L198.2880,218.8699L217.8720,235.5980L237.4560,251.1976
            L257.0400,265.7545L276.6240,279.3480L296.2080,292.0510L315.7920,303.9309L335.3760,315.0497L354.9600,325.4647L374.5440,335.2286L394.1280,344.3903L413.7120,352.9945L433.2960,361.0827
            L452.8800,368.6932L472.4640,375.8612L492.0480,382.6193L511.6320,388.9974L531.2160,395.0233L550.8000,400.7225L550.8612,400.7394"/>
   <path d="M61.2000,61.2000L80.7840,98.5923L100.3680,132.2981L119.9520,162.7081L139.5360,190.1691L159.1200,215.0161L178.7040,237.5290L198.2880,257.9577L217.8720,276.5253L237.4560,293.4312
            L257.0400,308.8535L276.6240,322.9511L296.2080,335.8661L315.7920,347.7255L335.3760,358.6425L354.9600,368.7185L374.5440,378.0441L394.1280,386.7000L413.7120,394.7587L433.2960,402.2845
            L452.8800,409.3354L472.4640,415.9628L492.0480,422.2128L511.6320,428.1266L531.2160,433.7410L550.8000,439.0888L550.8612,439.1048"/>
   <path d="M61.2000,61.2000L80.7840,103.4634L100.3680,140.8548L119.9520,173.9696L139.5360,203.3183L159.1200,229.3812L178.7040,252.5616L198.2880,273.2115L217.8720,291.6398L237.4560,308.1182
            L257.0400,322.8852L276.6240,336.1504L296.2080,348.0979L315.7920,358.8896L335.3760,368.6678L354.9600,377.5574L374.5440,385.6683L394.1280,393.0970L413.7120,399.9285L433.2960,406.2374
            L452.8800,412.0894L472.4640,417.5423L492.0480,422.6467L511.6320,427.4475L531.2160,431.9840L550.8000,436.2908L550.8612,436.3036"/>
   <path d="M61.2000,61.2000L80.7840,98.9553L100.3680,132.9608L119.9520,163.6186L139.5360,191.2837L159.1200,216.2999L178.7040,238.9538L198.2880,259.5010L217.8720,278.1699L237.4560,295.1638
            L257.0400,310.6644L276.6240,324.8337L296.2080,337.8164L315.7920,349.7415L335.3760,360.7242L354.9600,370.8672L374.5440,380.2623L394.1280,388.9914L413.7120,397.1275L433.2960,404.7360
            L452.8800,411.8750L472.4640,418.5965L492.0480,424.9470L511.6320,430.9679L531.2160,436.6962L550.8000,442.1648L550.8612,442.1811"/>
   <path d="M61.2000,61.2000L80.7840,111.1504L100.3680,154.1306L119.9520,191.1556L139.5360,223.0939L159.1200,250.7242L178.7040,274.6788L198.2880,295.4968L217.8720,313.6385L237.4560,329.4963
            L257.0400,343.4053L276.6240,355.6513L296.2080,366.4784L315.7920,376.0946L335.3760,384.6778L354.9600,392.3794L374.5440,399.3291L394.1280,405.6373L413.7120,411.3985L433.2960,416.6932
            L452.8800,421.5902L472.4640,426.1483L492.0480,430.4179L511.6320,434.4417L531.2160,438.2564L550.8000,441.8935L550.8612,441.9044"/>
   <path d="M61.2000,61.2000L80.7840,102.8667L100.3680,139.8519L119.9520,172.7187L139.5360,201.9573L159.1200,228.0309L178.7040,251.3234L198.2880,272.1721L217.8720,290.8740L237.4560,307.6902
            L257.0400,322.8505L276.6240,336.5572L296.2080,348.9880L315.7920,360.2995L335.3760,370.6294L354.9600,380.0991L374.5440,388.8150L394.1280,396.8713L413.7120,404.3505L433.2960,411.3254
            L452.8800,417.8602L472.4640,424.0112L492.0480,429.8283L511.6320,435.3551L531.2160,440.6303L550.8000,445.6880L550.8612,445.7032"/>
   <path d="M61.2000,61.2000L80.7840,103.5686L100.3680,141.0868L119.9520,174.3455L139.5360,203.8535L159.1200,230.0899L178.7040,253.4551L198.2880,274.2989L217.8720,292.9284L237.4560,309.6135
            L257.0400,324.5910L276.6240,338.0689L296.2080,350.2297L315.7920,361.2340L335.3760,371.2223L354.9600,380.3185L374.5440,388.6309L394.1280,396.2551L413.7120,403.2745L433.2960,409.7628
            L452.8800,415.7845L472.4640,421.3963L492.0480,426.6480L511.6320,431.5834L531.2160,436.2408L550.8000,440.6541L550.8612,440.6673"/>
   <path d="M61.2000,61.2000L80.7840,94.2151L100.3680,124.4726L119.9520,152.2296L139.5360,177.7106L159.1200,201.1397L178.7040,222.7091L198.2880,242.5917L217.8720,260.9444L237.4560,277.9096
            L257.0400,293.6164L276.6240,308.1822L296.2080,321.7132L315.7920,334.3060L335.3760,346.0482L354.9600,357.0193L374.5440,367.2912L394.1280,376.9294L413.7120,385.9933L433.2960,394.5365
            L452.8800,402.6080L472.4640,410.2518L492.0480,417.5083L511.6320,424.4136L531.2160,431.0008L550.8000,437.2998L550.8612,437.3187"/>
   <path d="M61.2000,61.2000L80.7840,103.4336L100.3680,140.9603L119.9520,174.3475L139.5360,204.0837L159.1200,230.6309L178.7040,254.3754L198.2880,275.6553L217.8720,294.7683L237.4560,311.9761
            L257.0400,327.5091L276.6240,341.5696L296.2080,354.3359L315.7920,365.9645L335.3760,376.5933L354.9600,386.3432L374.5440,395.3208L394.1280,403.6197L413.7120,411.3220L433.2960,418.5001
            L452.8800,425.2175L472.4640,431.5300L492.0480,437.4865L511.6320,443.1302L531.2160,448.4988L550.8000,453.6256L550.8612,453.6409"/>
   <path d="M61.2000,61.2000L80.7840,108.3080L100.3680,149.3385L119.9520,185.1218L139.5360,216.3665L159.1200,243.7251L178.7040,267.7306L198.2880,288.8433L217.8720,307.4603L237.4560,323.9245
            L257.0400,338.5320L276.6240,351.5382L296.2080,363.1636L315.7920,373.5985L335.3760,383.0072L354.9600,391.5316L374.5440,399.2939L394.1280,406.3998L413.7120,412.9405L433.2960,418.9946
            L452.8800,424.6302L472.4640,429.9057L492.0480,434.8719L511.6320,439.5725L531.2160,444.0451L550.8000,448.3223L550.8612,448.3351"/>
   <path d="M61.2000,61.2000L80.7840,110.9544L100.3680,153.8105L119.9520,190.7696L139.5360,222.6802L159.1200,250.3107L178.7040,274.2845L198.2880,295.1340L217.8720,313.3142L237.4560,329.2136
            L257.0400,343.1642L276.6240,355.4496L296.2080,366.3120L315.7920,375.9583L335.3760,384.5653L354.9600,392.2839L374.5440,399.2430L394.1280,405.5528L413.7120,411.3074L433.2960,416.5871
            L452.8800,421.4606L472.4640,425.9865L492.0480,430.2150L511.6320,434.1888L531.2160,437.9446L550.8000,441.5135L550.8612,441.5242"/>
   <path d="M61.2000,61.2000L80.7840,96.9725L100.3680,129.4372L119.9520,158.9310L139.5360,185.7499L159.1200,210.1853L178.7040,232.4818L198.2880,252.8591L217.8720,271.5145L237.4560,288.6253
            L257.0400,304.3509L276.6240,318.8345L296.2080,332.2049L315.7920,344.5779L335.3760,356.0573L354.9600,366.7369L374.5440,376.7005L394.1280,386.0238L413.7120,394.7746L433.2960,403.0141
            L452.8800,410.7972L472.4640,418.1732L492.0480,425.1865L511.6320,431.8770L531.2160,438.2806L550.8000,444.4295L550.8612,444.4481"/>
   <path d="M61.2000,61.2000L80.7840,106.4407L100.3680,146.0117L119.9520,180.6546L139.5360,211.0159L159.1200,237.6889L178.7040,261.1615L198.2880,281.8570L217.8720,300.1427L237.4560,316.3378
            L257.0400,330.7193L276.6240,343.5279L296.2080,354.9725L315.7920,365.2347L335.3760,374.4722L354.9600,382.8223L374.5440,390.4042L394.1280,397.3214L413.7120,403.6640L433.2960,409.5106
            L452.8800,414.9293L472.4640,419.9794L492.0480,424.7127L511.6320,429.1741L531.2160,433.4029L550.8000,437.4332L550.8612,437.4452"/>
   <path d="M61.2000,61.2000L80.7840,97.4544L100.3680,130.2646L119.9520,159.9862L139.5360,186.9317L159.1200,211.4057L178.7040,233.6661L198.2880,253.9432L217.8720,272.4433L237.4560,289.3518
            L257.0400,304.8347L276.6240,319.0412L296.2080,332.1051L315.7920,344.1466L335.3760,355.2732L354.9600,365.5819L374.5440,375.1594L394.1280,384.0836L413.7120,392.4245L433.2960,400.2450
            L452.8800,407.6015L472.4640,414.5447L492.0480,421.1201L511.6320,427.3687L531.2160,433.3272L550.8000,439.0286L550.8612,439.0457"/>
   <path d="M61.2000,61.2000L80.7840,107.7360L100.3680,148.3636L119.9520,183.8746L139.5360,214.9513L159.1200,242.2209L178.7040,266.1971L198.2880,287.3241L217.8720,305.9864L237.4560,322.5165
            L257.0400,337.2022L276.6240,350.2923L296.2080,362.0021L315.7920,372.5180L335.3760,382.0010L354.9600,390.5907L374.5440,398.4076L394.1280,405.5561L413.7120,412.1266L433.2960,418.1972
            L452.8800,423.8355L472.4640,429.1000L492.0480,434.0413L511.6320,438.7033L531.2160,443.1240L550.8000,447.3360L550.8612,447.3486"/>
   <path d="M61.2000,61.2000L80.7840,93.9113L100.3680,123.8960L119.9520,151.4054L139.5360,176.6582L159.1200,199.8724L178.7040,221.2365L198.2880,240.9196L217.8720,259.0753L237.4560,275.8432
            L257.0400,291.3501L276.6240,305.7113L296.2080,319.0312L315.7920,331.4051L335.3760,342.9191L354.9600,353.6517L374.5440,363.6742L394.1280,373.0512L413.7120,381.8414L433.2960,390.0982
            L452.8800,397.8701L472.4640,405.2010L492.0480,412.1309L511.6320,418.6962L531.2160,424.9296L550.8000,430.8611L550.8612,430.8788"/>
   <path d="M61.2000,61.2000L80.7840,94.0075L100.3680,123.9240L119.9520,151.2191L139.5360,176.1307L159.1200,198.8971L178.7040,219.7189L198.2880,238.7774L217.8720,256.2368L237.4560,272.2455
            L257.0400,286.9383L276.6240,300.4371L296.2080,312.8522L315.7920,324.2837L335.3760,334.8221L354.9600,344.5497L374.5440,353.5406L394.1280,361.8623L413.7120,369.5758L433.2960,376.7364
            L452.8800,383.3944L472.4640,389.5950L492.0480,395.3795L511.6320,400.7853L531.2160,405.8461L550.8000,410.5927L550.8612,410.6066"/>
   <path d="M61.2000,61.2000L80.7840,115.0154L100.3680,160.5705L119.9520,199.1694L139.5360,231.9117L159.1200,259.7639L178.7040,283.5012L198.2880,303.7756L217.8720,321.1350L237.4560,336.0398
            L257.0400,348.8774L276.6240,359.9733L296.2080,369.6009L315.7920,377.9905L335.3760,385.3355L354.9600,391.7983L374.5440,397.5160L394.1280,402.6033L413.7120,407.1571L433.2960,411.2588
            L452.8800,414.9767L472.4640,418.3685L492.0480,421.4827L511.6320,424.3601L531.2160,427.0349L550.8000,429.5362L550.8612,429.5435"/>
   <path d="M61.2000,61.2000L80.7840,108.4717L100.3680,149.5874L119.9520,185.3894L139.5360,216.6013L159.1200,243.8850L178.7040,267.7815L198.2880,288.7571L217.8720,307.2142L237.4560,323.4996
            L257.0400,337.9123L276.6240,350.7103L296.2080,362.1160L315.7920,372.3213L335.3760,381.4914L354.9600,389.7692L374.5440,397.2776L394.1280,404.1226L413.7120,410.3959L433.2960,416.1763
            L452.8800,421.5320L472.4640,426.5215L492.0480,431.1957L511.6320,435.5983L531.2160,439.7668L550.8000,443.7340L550.8612,443.7458"/>
   <path d="M61.2000,61.2000L80.7840,105.1326L100.3680,143.7263L119.9520,177.6550L139.5360,207.4987L159.1200,233.8006L178.7040,257.0125L198.2880,277.5285L217.8720,295.6935L237.4560,311.8092
            L257.0400,326.1400L276.6240,338.9170L296.2080,350.3424L315.7920,360.5929L335.3760,369.8229L354.9600,378.1674L374.5440,385.7441L394.1280,392.6561L413.7120,398.9929L433.2960,404.8330
            L452.8800,410.2448L472.4640,415.2878L492.0480,420.0140L511.6320,424.4689L531.2160,428.6920L550.8000,432.7180L550.8612,432.7300"/>
   <path d="M61.2000,61.2000L80.7840,109.8046L100.3680,151.9775L119.9520,188.6201L139.5360,220.4955L159.1200,248.3036L178.7040,272.6153L198.2880,293.9210L217.8720,312.6424L237.4560,329.1419
            L257.0400,343.7311L276.6240,356.6779L296.2080,368.2126L315.7920,378.5329L335.3760,387.8090L354.9600,396.1870L374.5440,403.7926L394.1280,410.7336L413.7120,417.1029L433.2960,422.9803
            L452.8800,428.4342L472.4640,433.5236L492.0480,438.2992L511.6320,442.8046L531.2160,447.0772L550.8000,451.1494L550.8612,451.1616"/>
   <path d="M61.2000,61.2000L80.7840,92.9550L100.3680,122.0652L119.9520,148.7669L139.5360,173.2669L159.1200,195.7707L178.7040,216.4620L198.2880,235.5058L217.8720,253.0535L237.4560,269.2438
            L257.0400,284.2038L276.6240,298.0495L296.2080,310.8867L315.7920,322.8117L335.3760,333.9122L354.9600,344.2678L374.5440,353.9505L394.1280,363.0260L413.7120,371.5536L433.2960,379.5871
            L452.8800,387.1753L472.4640,394.3624L492.0480,401.1886L511.6320,407.6902L531.2160,413.9002L550.8000,419.8486L550.8612,419.8664"/>
   <path d="M61.2000,61.2000L80.7840,105.2044L100.3680,143.9681L119.9520,178.1567L139.5360,208.3402L159.1200,235.0523L178.7040,258.7355L198.2880,279.7748L217.8720,298.5065L237.4560,315.2241
            L257.0400,330.1840L276.6240,343.6101L296.2080,355.6976L315.7920,366.6172L335.3760,376.5177L354.9600,385.5291L374.5440,393.7647L394.1280,401.3237L413.7120,408.2923L433.2960,414.7460
            L452.8800,420.7505L472.4640,426.3633L492.0480,431.6345L511.6320,436.6077L531.2160,441.3212L550.8000,445.8082L550.8612,445.8216"/>
   <path d="M61.2000,61.2000L80.7840,109.2173L100.3680,150.8588L119.9520,187.0134L139.5360,218.4407L159.1200,245.8340L178.7040,269.7586L198.2880,290.7003L217.8720,309.0771L237.4560,325.2481
            L257.0400,339.5224L276.6240,352.1655L296.2080,363.4060L315.7920,373.4400L335.3760,382.4366L354.9600,390.5409L374.5440,397.8777L394.1280,404.5544L413.7120,410.6632L433.2960,416.2836
            L452.8800,421.4838L472.4640,426.3225L492.0480,430.8502L511.6320,435.1103L531.2160,439.1402L550.8000,442.9720L550.8612,442.9834"/>
  </g>
  <g style="fill:none; stroke:#FFA500; stroke-width:  9.1800; stroke-linecap:butt; stroke-linejoin:miter; stroke-dasharray:none">
   <path d="M61.2000,61.2000L70.9920,99.2811L80.7840,113.0820L90.5760,129.1843L100.3680,148.8155L110.1600,169.6335L119.9520,176.2095L129.7440,174.8669L139.5360,191.1417L149.3280,201.9714
            L159.1200,202.9592L168.9120,208.6557L178.7040,217.7913L188.4960,222.6281L198.2880,230.7693L208.0800,244.6070L217.8720,246.1982L227.6640,249.8888L237.4560,271.9177L247.2480,283.6822
            L257.0400,285.0049L266.8320,299.4634L276.6240,328.3699L286.4160,340.6693L296.2080,342.0044L306.0000,352.2563L315.7920,361.2962L325.5840,376.4437L335.3760,359.6116L345.1680,385.6090
            L354.9600,380.4184L364.7520,373.8274L374.5440,377.2125L384.3360,369.0657L394.1280,371.2542L403.9200,368.2640L413.7120,354.4026L423.5040,366.7565L433.2960,357.4685L443.0880,379.1400
            L452.8800,408.4810L462.6720,410.6304L472.4640,416.8321L482.2560,433.5841L492.0480,447.1066L501.8400,451.4092L511.6320,437.1125L521.4240,436.8538L531.2160,440.2268L541.0080,442.6979
            L550.8000,457.0468"/>
  </g>
  <g style="fill:none; stroke:#000000; stroke-width:  0.9180; stroke-linecap:butt; stroke-linejoin:miter; stroke-dasharray:none">
   <path d="M61.2000,61.2000L550.8000,61.2000"/>
   <path d="M61.2000,550.8000L550.8000,550.8000"/>
   <path d="M61.2000,61.2000L61.2000,73.4400"/>
   <path d="M61.2000,550.8000L61.2000,538.5600"/>
   <path d="M257.0400,61.2000L257.0400,73.4400"/>
   <path d="M257.0400,550.8000L257.0400,538.5600"/>
   <path d="M452.8800,61.2000L452.8800,73.4400"/>
   <path d="M452.8800,550.8000L452.8800,538.5600"/>
   <path d="M61.2000,61.2000L61.2000,550.8000"/>
   <path d="M550.8000,61.2000L550.8000,550.8000"/>
   <path d="M61.2000,142.8000L67.3200,142.8000"/>
   <path d="M550.8000,142.8000L544.6800,142.8000"/>
   <path d="M61.2000,306.0000L67.3200,306.0000"/>
   <path d="M550.8000,306.0000L544.6800,306.0000"/>
   <path d="M61.2000,469.2000L67.3200,469.2000"/>
   <path d="M550.8000,469.2000L544.6800,469.2000"/>
   <path d="M61.2000,61.2000L73.4400,61.2000"/>
   <path d="M550.8000,61.2000L538.5600,61.2000"/>
   <path d="M61.2000,224.4000L73.4400,224.4000"/>
   <path d="M550.8000,224.4000L538.5600,224.4000"/>
   <path d="M61.2000,387.6000L73.4400,387.6000"/>
   <path d="M550.8000,387.6000L538.5600,387.6000"/>
   <path d="M61.2000,550.8000L73.4400,550.8000"/>
   <path d="M550.8000,550.8000L538.5600,550.8000"/>
   <path d="M61.2000,61.2000L61.2000,550.8000L550.8000,550.8000L550.8000,61.2000z"/>
  </g>
 </g>
</svg>
