<?xml version="1.0" encoding="ISO-8859-1"?>
<!DOCTYPE svg PUBLIC "-//W3C//DTD SVG 1.0//EN" "http://www.w3.org/TR/2001/REC-SVG-20010904/DTD/svg10.dtd">
<!-- generated by Grace-5.1.25 -->
<svg xml:space="preserve" width="11.0000in" height="8.5000in" viewBox="0.0000 0.0000 792.0000 612.0000">
 <g transform="translate(0,612.0000) scale(1,-1)">
  <g style="fill:#FFFFFF; fill-rule:nonzero">
   <path  d="M0.0000,0.0000L0.0000,612.0000L792.0000,612.0000L792.0000,0.0000z"/>
  </g>
  <g style="fill:#000000; fill-rule:nonzero">
   <path  d="M103.3338,91.8000L103.3338,91.8000L115.5738,91.8000L115.5738,91.8000z"/>
   <path  d="M120.9877,91.8000L120.9877,91.8000L133.2277,91.8000L133.2277,91.8000z"/>
   <path  d="M138.6415,91.8000L138.6415,91.8000L150.8815,91.8000L150.8815,91.8000z"/>
   <path  d="M156.2954,91.8000L156.2954,122.4000L168.5354,122.4000L168.5354,91.8000z"/>
   <path  d="M173.9492,91.8000L173.9492,107.1000L186.1892,107.1000L186.1892,91.8000z"/>
   <path  d="M191.6031,91.8000L191.6031,91.8000L203.8431,91.8000L203.8431,91.8000z"/>
   <path  d="M209.2569,91.8000L209.2569,107.1000L221.4969,107.1000L221.4969,91.8000z"/>
   <path  d="M226.9108,91.8000L226.9108,107.1000L239.1508,107.1000L239.1508,91.8000z"/>
   <path  d="M244.5646,91.8000L244.5646,91.8000L256.8046,91.8000L256.8046,91.8000z"/>
   <path  d="M262.2185,91.8000L262.2185,107.1000L274.4585,107.1000L274.4585,91.8000z"/>
   <path  d="M279.8723,91.8000L279.8723,137.7000L292.1123,137.7000L292.1123,91.8000z"/>
   <path  d="M297.5262,91.8000L297.5262,91.8000L309.7662,91.8000L309.7662,91.8000z"/>
   <path  d="M315.1800,91.8000L315.1800,153.0000L327.4200,153.0000L327.4200,91.8000z"/>
   <path  d="M332.8338,91.8000L332.8338,107.1000L345.0738,107.1000L345.0738,91.8000z"/>
   <path  d="M350.4877,91.8000L350.4877,107.1000L362.7277,107.1000L362.7277,91.8000z"/>
   <path  d="M368.1415,91.8000L368.1415,122.4000L380.3815,122.4000L380.3815,91.8000z"/>
   <path  d="M385.7954,91.8000L385.7954,137.7000L398.0354,137.7000L398.0354,91.8000z"/>
   <path  d="M403.4492,91.8000L403.4492,198.9000L415.6892,198.9000L415.6892,91.8000z"/>
   <path  d="M421.1031,91.8000L421.1031,153.0000L433.3431,153.0000L433.3431,91.8000z"/>
   <path  d="M438.7569,91.8000L438.7569,244.8000L450.9969,244.8000L450.9969,91.8000z"/>
   <path  d="M456.4108,91.8000L456.4108,489.6000L468.6508,489.6000L468.6508,91.8000z"/>
   <path  d="M474.0646,91.8000L474.0646,459.0000L486.3046,459.0000L486.3046,91.8000z"/>
   <path  d="M491.7185,91.8000L491.7185,321.3000L503.9585,321.3000L503.9585,91.8000z"/>
   <path  d="M509.3723,91.8000L509.3723,122.4000L521.6123,122.4000L521.6123,91.8000z"/>
   <path  d="M527.0262,91.8000L527.0262,91.8000L539.2662,91.8000L539.2662,91.8000z"/>
  </g>
  <g style="fill:none; stroke:#000000; stroke-width:  0.9180; stroke-linecap:butt; stroke-linejoin:miter; stroke-dasharray:none">
   <path d="M91.8000,91.8000L550.8000,91.8000"/>
   <path d="M91.8000,550.8000L550.8000,550.8000"/>
   <path d="M91.8000,91.8000L91.8000,104.0400"/>
   <path d="M91.8000,550.8000L91.8000,538.5600"/>
   <path d="M162.4154,91.8000L162.4154,104.0400"/>
   <path d="M162.4154,550.8000L162.4154,538.5600"/>
   <path d="M233.0308,91.8000L233.0308,104.0400"/>
   <path d="M233.0308,550.8000L233.0308,538.5600"/>
   <path d="M303.6462,91.8000L303.6462,104.0400"/>
   <path d="M303.6462,550.8000L303.6462,538.5600"/>
   <path d="M374.2615,91.8000L374.2615,104.0400"/>
   <path d="M374.2615,550.8000L374.2615,538.5600"/>
   <path d="M444.8769,91.8000L444.8769,104.0400"/>
   <path d="M444.8769,550.8000L444.8769,538.5600"/>
   <path d="M515.4923,91.8000L515.4923,104.0400"/>
   <path d="M515.4923,550.8000L515.4923,538.5600"/>
  </g>
  <g style="fill:#000000; fill-rule:nonzero">
   <text   style="font-family:'Times','Nimbus Roman'; font-style:normal; font-weight:normal; font-size:612.0000" transform="matrix(0.0280,0.0000,-0.0000,-0.0280,85.3000,73.6800)">-1</text>
   <text   style="font-family:'Times','Nimbus Roman'; font-style:normal; font-weight:normal; font-size:612.0000" transform="matrix(0.0280,0.0000,-0.0000,-0.0280,149.4154,74.6800)">-0.8</text>
   <text   style="font-family:'Times','Nimbus Roman'; font-style:normal; font-weight:normal; font-size:612.0000" transform="matrix(0.0280,0.0000,-0.0000,-0.0280,219.5308,73.6800)">-0.6</text>
   <text   style="font-family:'Times','Nimbus Roman'; font-style:normal; font-weight:normal; font-size:612.0000" transform="matrix(0.0280,0.0000,-0.0000,-0.0280,290.1462,74.6800)">-0.4</text>
   <text   style="font-family:'Times','Nimbus Roman'; font-style:normal; font-weight:normal; font-size:612.0000" transform="matrix(0.0280,0.0000,-0.0000,-0.0280,360.7615,74.6800)">-0.2</text>
   <text   style="font-family:'Times','Nimbus Roman'; font-style:normal; font-weight:normal; font-size:612.0000" transform="matrix(0.0280,0.0000,-0.0000,-0.0280,440.8769,74.6800)">0</text>
   <text   style="font-family:'Times','Nimbus Roman'; font-style:normal; font-weight:normal; font-size:612.0000" transform="matrix(0.0280,0.0000,-0.0000,-0.0280,504.9923,74.6800)">0.2</text>
  </g>
  <g style="fill:none; stroke:#000000; stroke-width:  0.9180; stroke-linecap:butt; stroke-linejoin:miter; stroke-dasharray:none">
   <path d="M91.8000,91.8000L91.8000,550.8000"/>
   <path d="M550.8000,91.8000L550.8000,550.8000"/>
   <path d="M91.8000,91.8000L104.0400,91.8000"/>
   <path d="M550.8000,91.8000L538.5600,91.8000"/>
   <path d="M91.8000,168.3000L104.0400,168.3000"/>
   <path d="M550.8000,168.3000L538.5600,168.3000"/>
   <path d="M91.8000,244.8000L104.0400,244.8000"/>
   <path d="M550.8000,244.8000L538.5600,244.8000"/>
   <path d="M91.8000,321.3000L104.0400,321.3000"/>
   <path d="M550.8000,321.3000L538.5600,321.3000"/>
   <path d="M91.8000,397.8000L104.0400,397.8000"/>
   <path d="M550.8000,397.8000L538.5600,397.8000"/>
   <path d="M91.8000,474.3000L104.0400,474.3000"/>
   <path d="M550.8000,474.3000L538.5600,474.3000"/>
   <path d="M91.8000,550.8000L104.0400,550.8000"/>
   <path d="M550.8000,550.8000L538.5600,550.8000"/>
  </g>
  <g style="fill:#000000; fill-rule:nonzero">
   <text   style="font-family:'Times','Nimbus Roman'; font-style:normal; font-weight:normal; font-size:612.0000" transform="matrix(0.0280,0.0000,-0.0000,-0.0280,77.6800,86.3000)">0</text>
   <text   style="font-family:'Times','Nimbus Roman'; font-style:normal; font-weight:normal; font-size:612.0000" transform="matrix(0.0280,0.0000,-0.0000,-0.0280,77.6800,162.3000)">5</text>
   <text   style="font-family:'Times','Nimbus Roman'; font-style:normal; font-weight:normal; font-size:612.0000" transform="matrix(0.0280,0.0000,-0.0000,-0.0280,68.6800,238.8000)">10</text>
   <text   style="font-family:'Times','Nimbus Roman'; font-style:normal; font-weight:normal; font-size:612.0000" transform="matrix(0.0280,0.0000,-0.0000,-0.0280,68.6800,315.3000)">15</text>
   <text   style="font-family:'Times','Nimbus Roman'; font-style:normal; font-weight:normal; font-size:612.0000" transform="matrix(0.0280,0.0000,-0.0000,-0.0280,68.6800,392.3000)">20</text>
   <text   style="font-family:'Times','Nimbus Roman'; font-style:normal; font-weight:normal; font-size:612.0000" transform="matrix(0.0280,0.0000,-0.0000,-0.0280,68.6800,468.3000)">25</text>
   <text   style="font-family:'Times','Nimbus Roman'; font-style:normal; font-weight:normal; font-size:612.0000" transform="matrix(0.0280,0.0000,-0.0000,-0.0280,68.6800,545.3000)">30</text>
  </g>
  <g style="fill:none; stroke:#000000; stroke-width:  0.9180; stroke-linecap:butt; stroke-linejoin:miter; stroke-dasharray:none">
   <path d="M91.8000,91.8000L91.8000,550.8000L550.8000,550.8000L550.8000,91.8000z"/>
  </g>
 </g>
</svg>
