<?xml version="1.0" encoding="ISO-8859-1"?>
<!DOCTYPE svg PUBLIC "-//W3C//DTD SVG 1.0//EN" "http://www.w3.org/TR/2001/REC-SVG-20010904/DTD/svg10.dtd">
<!-- generated by Grace-5.1.25 -->
<svg xml:space="preserve" width="11.0000in" height="8.5000in" viewBox="0.0000 0.0000 792.0000 612.0000">
 <g transform="translate(0,612.0000) scale(1,-1)">
  <g style="fill:#FFFFFF; fill-rule:nonzero">
   <path  d="M0.0000,0.0000L0.0000,612.0000L792.0000,612.0000L792.0000,0.0000z"/>
  </g>
  <g style="fill:none; stroke:#000000; stroke-width:  0.9180; stroke-linecap:butt; stroke-linejoin:miter; stroke-dasharray:none">
   <path d="M91.8000,102.6086L97.8741,103.4329L103.9451,100.1436L110.0192,99.5501L116.0933,102.0537L122.1644,100.5964L128.2385,104.2609L134.3126,101.4052L140.3836,102.1998L146.4577,102.0523
            L152.5318,101.9349L158.6029,104.0397L164.6770,100.4350L170.7511,97.8434L176.8221,100.2767L182.8962,104.2191L188.9703,103.4155L195.0413,99.7025L201.1154,98.7041L207.1895,101.6163
            L213.2606,101.5105L219.3347,100.2916L225.4088,99.0829L231.4798,96.3236L237.5539,95.8154L243.6280,95.8152L249.6991,96.2208L255.7732,96.4944L261.8473,95.3049L267.9183,94.7825
            L273.9924,94.7287L280.0665,94.6746L286.1375,95.2641L292.2116,96.8470L298.2857,95.9442L304.3568,93.8042L310.4309,94.0989L316.5050,95.2845L322.5760,95.7560L328.6501,96.0636
            L334.7242,96.2015L340.7953,94.8092L346.8694,95.5714L352.9435,97.3614L359.0145,96.3045L365.0886,93.9184L371.1627,93.2373L377.2337,96.2097L383.3078,98.7999L389.3819,96.3426
            L395.4530,97.0076L401.5271,97.8794L407.6012,96.7477L413.6722,94.9712L419.7463,94.4714L425.8204,97.1602L431.8915,98.3287L437.9656,98.7945L444.0397,102.7970L450.1107,104.2814
            L456.1848,112.5196L462.2589,118.9727L468.3299,124.2908L474.4040,131.6222L480.4781,140.9974L486.5492,150.7680L492.6233,164.3485L498.6974,170.4413L504.7684,168.3260L510.8425,176.6045
            L516.9166,184.2912L522.9877,171.8530L529.0618,166.9708L535.1359,163.2040L541.2069,151.3852L547.2810,133.3334L553.3551,130.3774L559.4261,124.2098L565.5002,116.0612L571.5743,111.9072
            L577.6454,113.1713L583.7195,110.0398L589.7936,105.7931L595.8646,104.4003L601.9387,104.7630L608.0128,100.6148L614.0839,99.2857L620.1580,98.6253L626.2321,99.9436L632.3031,101.7339
            L638.3772,99.3873L644.4513,99.4104L650.5223,99.6198L656.5964,97.6432L662.6705,97.3256L668.7416,99.1278"/>
   <path d="M91.8000,91.8000L703.8000,91.8000"/>
   <path d="M91.8000,275.4000L703.8000,275.4000"/>
   <path d="M91.8000,91.8000L91.8000,275.4000"/>
   <path d="M703.8000,91.8000L703.8000,275.4000"/>
   <path d="M91.8000,91.8000L91.8000,275.4000L703.8000,275.4000L703.8000,91.8000z"/>
  </g>
 </g>
</svg>
