<?xml version="1.0" encoding="ISO-8859-1"?>
<!DOCTYPE svg PUBLIC "-//W3C//DTD SVG 1.0//EN" "http://www.w3.org/TR/2001/REC-SVG-20010904/DTD/svg10.dtd">
<!-- generated by Grace-5.1.25 -->
<svg xml:space="preserve" width="11.0000in" height="8.5000in" viewBox="0.0000 0.0000 792.0000 612.0000">
 <g transform="translate(0,612.0000) scale(1,-1)">
  <g style="fill:#FFFFFF; fill-rule:nonzero">
   <path  d="M0.0000,0.0000L0.0000,612.0000L792.0000,612.0000L792.0000,0.0000z"/>
  </g>
  <g style="fill:none; stroke:#000000; stroke-width:  0.9180; stroke-linecap:butt; stroke-linejoin:miter; stroke-dasharray:none">
   <path d="M91.8000,100.2678L97.8741,98.9755L103.9451,98.8429L110.0192,100.0974L116.0933,103.0266L122.1644,101.4390L128.2385,101.8943L134.3126,102.1658L140.3836,101.1054L146.4577,102.8904
            L152.5318,104.0895L158.6029,104.1889L164.6770,101.7794L170.7511,103.3406L176.8221,101.9207L182.8962,104.4483L188.9703,103.4866L195.0413,102.8413L201.1154,104.7519L207.1895,100.3028
            L213.2606,100.4451L219.3347,100.2513L225.4088,100.5176L231.4798,96.7586L237.5539,98.3347L243.6280,97.2363L249.6991,98.1742L255.7732,97.2496L261.8473,94.9395L267.9183,95.9024
            L273.9924,97.5002L280.0665,97.1681L286.1375,95.6072L292.2116,94.8894L298.2857,95.4138L304.3568,95.9710L310.4309,95.0787L316.5050,95.4581L322.5760,95.6540L328.6501,96.0610
            L334.7242,96.5625L340.7953,96.4298L346.8694,94.3862L352.9435,94.0090L359.0145,95.1091L365.0886,96.9749L371.1627,96.6160L377.2337,96.9226L383.3078,96.3577L389.3819,95.5323
            L395.4530,96.8309L401.5271,97.4977L407.6012,96.5043L413.6722,94.4441L419.7463,93.6285L425.8204,97.1279L431.8915,96.4789L437.9656,95.6597L444.0397,97.9311L450.1107,98.3711
            L456.1848,98.8812L462.2589,107.4007L468.3299,120.9673L474.4040,134.1717L480.4781,164.7379L486.5492,205.2120L492.6233,244.0035L498.6974,241.9499L504.7684,247.3645L510.8425,255.8921
            L516.9166,247.9336L522.9877,240.6024L529.0618,236.9740L535.1359,223.7093L541.2069,194.6163L547.2810,169.8125L553.3551,141.3300L559.4261,123.9084L565.5002,119.3542L571.5743,113.8841
            L577.6454,113.6082L583.7195,106.7474L589.7936,104.4051L595.8646,103.7742L601.9387,103.4457L608.0128,100.6545L614.0839,100.1253L620.1580,101.0446L626.2321,98.3311L632.3031,97.7885
            L638.3772,97.0081L644.4513,98.1429L650.5223,98.0205L656.5964,98.9641L662.6705,98.0543L668.7416,97.3115"/>
   <path d="M91.8000,91.8000L703.8000,91.8000"/>
   <path d="M91.8000,275.4000L703.8000,275.4000"/>
   <path d="M91.8000,91.8000L91.8000,275.4000"/>
   <path d="M703.8000,91.8000L703.8000,275.4000"/>
   <path d="M91.8000,91.8000L91.8000,275.4000L703.8000,275.4000L703.8000,91.8000z"/>
  </g>
 </g>
</svg>
