<?xml version="1.0" encoding="ISO-8859-1"?>
<!DOCTYPE svg PUBLIC "-//W3C//DTD SVG 1.0//EN" "http://www.w3.org/TR/2001/REC-SVG-20010904/DTD/svg10.dtd">
<!-- generated by Grace-5.1.25 -->
<svg xml:space="preserve" width="11.0000in" height="8.5000in" viewBox="0.0000 0.0000 792.0000 612.0000">
 <g transform="translate(0,612.0000) scale(1,-1)">
  <g style="fill:#FFFFFF; fill-rule:nonzero">
   <path  d="M0.0000,0.0000L0.0000,612.0000L792.0000,612.0000L792.0000,0.0000z"/>
  </g>
  <g style="fill:none; stroke:#000000; stroke-width:  0.9180; stroke-linecap:butt; stroke-linejoin:miter; stroke-dasharray:none">
   <path d="M91.8000,97.8565L97.8741,97.7099L103.9451,95.4126L110.0192,100.9363L116.0933,99.5790L122.1644,99.2501L128.2385,102.6040L134.3126,105.8939L140.3836,103.4535L146.4577,107.7055
            L152.5318,112.6127L158.6029,116.7610L164.6770,121.3169L170.7511,116.1610L176.8221,118.6102L182.8962,129.4696L188.9703,130.4435L195.0413,123.8265L201.1154,121.2037L207.1895,114.4717
            L213.2606,112.5463L219.3347,111.1694L225.4088,104.6212L231.4798,98.8273L237.5539,98.6273L243.6280,98.6885L249.6991,99.0096L255.7732,97.6602L261.8473,95.3012L267.9183,95.6056
            L273.9924,95.4111L280.0665,95.6752L286.1375,95.0568L292.2116,94.3231L298.2857,93.9223L304.3568,93.2892L310.4309,95.2688L316.5050,95.9714L322.5760,94.9118L328.6501,94.1691
            L334.7242,94.2294L340.7953,94.2946L346.8694,96.8996L352.9435,96.5672L359.0145,95.4580L365.0886,98.2887L371.1627,96.0534L377.2337,95.0329L383.3078,96.0957L389.3819,94.4621
            L395.4530,95.2655L401.5271,95.7242L407.6012,96.0419L413.6722,93.8506L419.7463,93.5011L425.8204,93.1505L431.8915,93.0947L437.9656,96.5832L444.0397,97.9075L450.1107,100.5952
            L456.1848,100.2554L462.2589,102.2520L468.3299,108.6496L474.4040,119.2887L480.4781,133.1048L486.5492,155.4724L492.6233,181.5564L498.6974,198.8026L504.7684,213.0661L510.8425,220.5159
            L516.9166,216.4672L522.9877,205.7432L529.0618,194.1149L535.1359,184.1540L541.2069,168.1764L547.2810,156.2134L553.3551,145.8519L559.4261,138.8502L565.5002,125.3850L571.5743,116.9252
            L577.6454,109.7860L583.7195,105.4215L589.7936,101.0811L595.8646,98.8498L601.9387,99.4108L608.0128,100.5087L614.0839,101.3886L620.1580,97.9916L626.2321,96.7825L632.3031,98.0070
            L638.3772,97.7635L644.4513,101.2168L650.5223,98.2911L656.5964,96.3143L662.6705,94.8522L668.7416,96.4752"/>
   <path d="M91.8000,91.8000L703.8000,91.8000"/>
   <path d="M91.8000,275.4000L703.8000,275.4000"/>
   <path d="M91.8000,91.8000L91.8000,275.4000"/>
   <path d="M703.8000,91.8000L703.8000,275.4000"/>
   <path d="M91.8000,91.8000L91.8000,275.4000L703.8000,275.4000L703.8000,91.8000z"/>
  </g>
 </g>
</svg>
