<?xml version="1.0" encoding="ISO-8859-1"?>
<!DOCTYPE svg PUBLIC "-//W3C//DTD SVG 1.0//EN" "http://www.w3.org/TR/2001/REC-SVG-20010904/DTD/svg10.dtd">
<!-- generated by Grace-5.1.25 -->
<svg xml:space="preserve" width="11.0000in" height="8.5000in" viewBox="0.0000 0.0000 792.0000 612.0000">
 <g transform="translate(0,612.0000) scale(1,-1)">
  <g style="fill:#FFFFFF; fill-rule:nonzero">
   <path  d="M0.0000,0.0000L0.0000,612.0000L792.0000,612.0000L792.0000,0.0000z"/>
  </g>
  <g style="fill:none; stroke:#000000; stroke-width:  0.9180; stroke-linecap:butt; stroke-linejoin:miter; stroke-dasharray:none">
   <path d="M91.8000,96.9542L97.8741,97.2291L103.9451,98.7541L110.0192,99.1577L116.0933,100.9057L122.1644,100.9326L128.2385,106.9592L134.3126,108.8082L140.3836,118.9424L146.4577,128.3896
            L152.5318,131.8169L158.6029,140.8361L164.6770,144.7014L170.7511,155.9870L176.8221,167.1015L182.8962,189.9408L188.9703,190.8544L195.0413,177.5791L201.1154,170.7819L207.1895,172.2660
            L213.2606,153.3168L219.3347,141.0294L225.4088,128.3192L231.4798,113.5205L237.5539,104.9935L243.6280,104.0906L249.6991,100.4934L255.7732,96.8554L261.8473,97.1023L267.9183,95.7585
            L273.9924,95.7815L280.0665,95.5082L286.1375,95.4305L292.2116,95.2658L298.2857,95.1868L304.3568,97.2196L310.4309,97.3095L316.5050,95.0792L322.5760,94.3567L328.6501,96.7094
            L334.7242,95.6122L340.7953,95.5213L346.8694,94.7290L352.9435,93.4730L359.0145,94.1123L365.0886,97.9678L371.1627,98.1579L377.2337,95.0942L383.3078,93.7130L389.3819,94.0761
            L395.4530,96.4197L401.5271,98.3228L407.6012,96.3114L413.6722,94.3898L419.7463,95.7297L425.8204,95.1676L431.8915,95.5028L437.9656,96.3319L444.0397,99.4004L450.1107,99.7041
            L456.1848,99.3128L462.2589,101.6829L468.3299,107.0094L474.4040,113.3630L480.4781,124.0598L486.5492,122.3011L492.6233,128.1207L498.6974,131.3457L504.7684,140.8677L510.8425,142.0259
            L516.9166,137.5131L522.9877,137.1979L529.0618,136.5115L535.1359,131.9340L541.2069,125.5880L547.2810,120.3267L553.3551,118.5187L559.4261,114.6356L565.5002,106.2726L571.5743,107.4245
            L577.6454,107.2204L583.7195,103.7086L589.7936,101.9529L595.8646,103.0833L601.9387,101.9268L608.0128,98.9461L614.0839,97.3951L620.1580,97.1262L626.2321,98.4229L632.3031,96.9007
            L638.3772,100.7702L644.4513,101.5539L650.5223,97.0284L656.5964,94.5256L662.6705,96.0468L668.7416,98.4981"/>
   <path d="M91.8000,91.8000L703.8000,91.8000"/>
   <path d="M91.8000,275.4000L703.8000,275.4000"/>
   <path d="M91.8000,91.8000L91.8000,275.4000"/>
   <path d="M703.8000,91.8000L703.8000,275.4000"/>
   <path d="M91.8000,91.8000L91.8000,275.4000L703.8000,275.4000L703.8000,91.8000z"/>
  </g>
 </g>
</svg>
