<?xml version="1.0" encoding="ISO-8859-1"?>
<!DOCTYPE svg PUBLIC "-//W3C//DTD SVG 1.0//EN" "http://www.w3.org/TR/2001/REC-SVG-20010904/DTD/svg10.dtd">
<!-- generated by Grace-5.1.25 -->
<svg xml:space="preserve" width="11.0000in" height="8.5000in" viewBox="0.0000 0.0000 792.0000 612.0000">
 <g transform="translate(0,612.0000) scale(1,-1)">
  <g style="fill:#FFFFFF; fill-rule:nonzero">
   <path  d="M0.0000,0.0000L0.0000,612.0000L792.0000,612.0000L792.0000,0.0000z"/>
  </g>
  <g style="fill:none; stroke:#000000; stroke-width:  0.9180; stroke-linecap:butt; stroke-linejoin:miter; stroke-dasharray:none">
   <path d="M91.8000,99.3606L97.8741,97.0520L103.9451,99.9901L110.0192,101.8802L116.0933,106.8307L122.1644,105.7221L128.2385,105.5116L134.3126,114.5037L140.3836,122.9035L146.4577,121.6929
            L152.5318,137.7473L158.6029,157.6313L164.6770,165.0128L170.7511,187.6787L176.8221,191.3998L182.8962,184.4484L188.9703,190.1046L195.0413,200.9717L201.1154,191.2008L207.1895,185.4981
            L213.2606,178.7059L219.3347,171.5658L225.4088,151.8090L231.4798,131.4105L237.5539,118.0427L243.6280,114.5038L249.6991,107.7474L255.7732,101.1124L261.8473,99.7894L267.9183,97.9655
            L273.9924,95.9481L280.0665,94.1357L286.1375,95.4598L292.2116,95.6806L298.2857,94.3891L304.3568,94.0766L310.4309,95.9326L316.5050,95.7908L322.5760,94.8917L328.6501,94.3234
            L334.7242,94.4615L340.7953,93.6734L346.8694,94.5012L352.9435,96.8905L359.0145,94.3323L365.0886,93.4097L371.1627,93.9231L377.2337,93.9650L383.3078,94.2182L389.3819,97.2080
            L395.4530,97.3590L401.5271,94.7872L407.6012,93.8361L413.6722,95.5666L419.7463,96.8369L425.8204,97.6400L431.8915,96.5029L437.9656,97.7295L444.0397,97.9334L450.1107,97.0477
            L456.1848,98.8515L462.2589,99.5209L468.3299,97.2166L474.4040,98.9331L480.4781,101.4148L486.5492,102.8989L492.6233,106.0684L498.6974,106.0516L504.7684,110.0662L510.8425,110.1593
            L516.9166,108.6398L522.9877,112.8352L529.0618,111.0079L535.1359,108.4848L541.2069,107.4350L547.2810,109.1579L553.3551,105.4419L559.4261,101.7808L565.5002,102.6780L571.5743,101.7719
            L577.6454,99.8634L583.7195,98.9607L589.7936,96.4437L595.8646,96.2752L601.9387,99.1689L608.0128,98.2751L614.0839,96.7817L620.1580,97.4168L626.2321,98.4464L632.3031,96.5560
            L638.3772,96.2166L644.4513,95.7720L650.5223,97.4500L656.5964,100.7756L662.6705,98.2843L668.7416,96.7635"/>
   <path d="M91.8000,91.8000L703.8000,91.8000"/>
   <path d="M91.8000,275.4000L703.8000,275.4000"/>
   <path d="M91.8000,91.8000L91.8000,275.4000"/>
   <path d="M703.8000,91.8000L703.8000,275.4000"/>
   <path d="M91.8000,91.8000L91.8000,275.4000L703.8000,275.4000L703.8000,91.8000z"/>
  </g>
 </g>
</svg>
