<?xml version="1.0" encoding="ISO-8859-1"?>
<!DOCTYPE svg PUBLIC "-//W3C//DTD SVG 1.0//EN" "http://www.w3.org/TR/2001/REC-SVG-20010904/DTD/svg10.dtd">
<!-- generated by Grace-5.1.25 -->
<svg xml:space="preserve" width="11.0000in" height="8.5000in" viewBox="0.0000 0.0000 792.0000 612.0000">
 <g transform="translate(0,612.0000) scale(1,-1)">
  <g style="fill:#FFFFFF; fill-rule:nonzero">
   <path  d="M0.0000,0.0000L0.0000,612.0000L792.0000,612.0000L792.0000,0.0000z"/>
  </g>
  <g style="fill:none; stroke:#000000; stroke-width:  0.9180; stroke-linecap:butt; stroke-linejoin:miter; stroke-dasharray:none">
   <path d="M91.8000,99.3467L97.8741,102.2157L103.9451,97.8156L110.0192,99.0369L116.0933,99.3669L122.1644,99.5550L128.2385,103.6656L134.3126,104.5506L140.3836,112.7610L146.4577,114.6640
            L152.5318,117.1198L158.6029,122.3551L164.6770,132.8873L170.7511,130.1172L176.8221,128.4635L182.8962,131.4447L188.9703,135.2326L195.0413,139.6048L201.1154,141.6400L207.1895,133.4442
            L213.2606,129.5243L219.3347,129.2390L225.4088,128.3249L231.4798,126.9972L237.5539,121.1431L243.6280,111.5472L249.6991,107.6122L255.7732,105.3433L261.8473,99.0243L267.9183,98.1094
            L273.9924,96.8084L280.0665,97.9702L286.1375,98.8850L292.2116,96.6346L298.2857,94.7882L304.3568,97.4100L310.4309,98.2857L316.5050,95.0081L322.5760,97.0783L328.6501,96.6783
            L334.7242,95.3269L340.7953,94.0011L346.8694,94.8855L352.9435,94.7736L359.0145,94.6204L365.0886,93.9641L371.1627,94.2279L377.2337,96.1138L383.3078,95.5096L389.3819,95.5566
            L395.4530,95.4668L401.5271,95.3171L407.6012,96.2818L413.6722,95.0569L419.7463,97.7350L425.8204,97.5095L431.8915,95.5424L437.9656,95.8434L444.0397,96.4945L450.1107,97.2746
            L456.1848,99.3802L462.2589,100.0944L468.3299,98.4025L474.4040,96.7999L480.4781,98.7892L486.5492,100.9666L492.6233,102.9721L498.6974,101.6227L504.7684,99.4817L510.8425,98.5011
            L516.9166,97.1370L522.9877,96.8272L529.0618,99.2630L535.1359,99.1120L541.2069,99.5636L547.2810,99.2133L553.3551,97.2885L559.4261,97.3493L565.5002,100.4061L571.5743,98.0684
            L577.6454,97.3683L583.7195,97.7828L589.7936,97.2032L595.8646,97.6022L601.9387,95.5843L608.0128,96.6127L614.0839,97.3117L620.1580,97.3012L626.2321,97.2437L632.3031,96.4216
            L638.3772,95.6438L644.4513,95.0107L650.5223,93.2650L656.5964,93.7919L662.6705,96.2486L668.7416,94.7204"/>
   <path d="M91.8000,91.8000L703.8000,91.8000"/>
   <path d="M91.8000,275.4000L703.8000,275.4000"/>
   <path d="M91.8000,91.8000L91.8000,275.4000"/>
   <path d="M703.8000,91.8000L703.8000,275.4000"/>
   <path d="M91.8000,91.8000L91.8000,275.4000L703.8000,275.4000L703.8000,91.8000z"/>
  </g>
 </g>
</svg>
