<?xml version="1.0" encoding="ISO-8859-1"?>
<!DOCTYPE svg PUBLIC "-//W3C//DTD SVG 1.0//EN" "http://www.w3.org/TR/2001/REC-SVG-20010904/DTD/svg10.dtd">
<!-- generated by Grace-5.1.25 -->
<svg xml:space="preserve" width="11.0000in" height="8.5000in" viewBox="0.0000 0.0000 792.0000 612.0000">
 <g transform="translate(0,612.0000) scale(1,-1)">
  <g style="fill:#FFFFFF; fill-rule:nonzero">
   <path  d="M0.0000,0.0000L0.0000,612.0000L792.0000,612.0000L792.0000,0.0000z"/>
  </g>
  <g style="fill:none; stroke:#000000; stroke-width:  0.9180; stroke-linecap:butt; stroke-linejoin:miter; stroke-dasharray:none">
   <path d="M91.8000,91.8000L110.1600,132.8490L128.5200,168.9058L146.8800,200.6115L165.2400,228.5102L183.6000,253.1141L201.9600,274.8440L220.3200,294.0669L238.6800,311.1029L257.0400,326.2308
            L275.4000,339.6939L293.7600,351.7041L312.1200,362.4462L330.4800,372.0811L348.8400,380.7492L367.2000,388.5728L385.5600,395.6583L403.9200,402.0987L422.2800,407.9747L440.6400,413.3569
            L459.0000,418.3066L477.3600,422.8771L495.7200,427.1150L514.0800,431.0608L532.4400,434.7497L550.8000,438.2123L550.8612,438.2232"/>
   <path d="M91.8000,91.8000L110.1600,127.7658L128.5200,159.9785L146.8800,188.8540L165.2400,214.7502L183.6000,238.0145L201.9600,258.9376L220.3200,277.7769L238.6800,294.7617L257.0400,310.0955
            L275.4000,323.9596L293.7600,336.5148L312.1200,347.9043L330.4800,358.2553L348.8400,367.6809L367.2000,376.2817L385.5600,384.1468L403.9200,391.3558L422.2800,397.9792L440.6400,404.0797
            L459.0000,409.7130L477.3600,414.9285L495.7200,419.7703L514.0800,424.2774L532.4400,428.4845L550.8000,432.4224L550.8612,432.4347"/>
   <path d="M91.8000,91.8000L110.1600,124.5723L128.5200,154.2599L146.8800,181.1740L165.2400,205.5868L183.6000,227.7679L201.9600,247.9425L220.3200,266.3133L238.6800,283.0623L257.0400,298.3532
            L275.4000,312.3332L293.7600,325.1347L312.1200,336.8766L330.4800,347.6659L348.8400,357.5988L367.2000,366.7618L385.5600,375.2328L403.9200,383.0816L422.2800,390.3712L440.6400,397.1582
            L459.0000,403.4935L477.3600,409.4229L495.7200,414.9876L514.0800,420.2245L532.4400,425.1671L550.8000,429.8452L550.8612,429.8600"/>
   <path d="M91.8000,91.8000L110.1600,127.3234L128.5200,159.2107L146.8800,187.8654L165.2400,213.6369L183.6000,236.8642L201.9600,257.8297L220.3200,276.7843L238.6800,293.9517L257.0400,309.5306
            L275.4000,323.6980L293.7600,336.6113L312.1200,348.4107L330.4800,359.2207L348.8400,369.1523L367.2000,378.3043L385.5600,386.7645L403.9200,394.6112L422.2800,401.9139L440.6400,408.7347
            L459.0000,415.1288L477.3600,421.1451L495.7200,426.8276L514.0800,432.2150L532.4400,437.3420L550.8000,442.2396L550.8612,442.2552"/>
   <path d="M91.8000,91.8000L110.1600,131.0967L128.5200,165.7997L146.8800,196.4746L165.2400,223.6025L183.6000,247.6368L201.9600,268.9577L220.3200,287.8965L238.6800,304.7438L257.0400,319.7548
            L275.4000,333.1530L293.7600,345.1348L312.1200,355.8725L330.4800,365.5170L348.8400,374.2009L367.2000,382.0403L385.5600,389.1372L403.9200,395.5810L422.2800,401.4501L440.6400,406.8133
            L459.0000,411.7309L477.3600,416.2557L495.7200,420.4343L514.0800,424.3073L532.4400,427.9104L550.8000,431.2750L550.8612,431.2855"/>
   <path d="M91.8000,91.8000L110.1600,136.1237L128.5200,174.5383L146.8800,207.8603L165.2400,236.7865L183.6000,261.9545L201.9600,283.8840L220.3200,303.0225L238.6800,319.7552L257.0400,334.4135
            L275.4000,347.2826L293.7600,358.6081L312.1200,368.6011L330.4800,377.4436L348.8400,385.2919L367.2000,392.2807L385.5600,398.5257L403.9200,404.1267L422.2800,409.1695L440.6400,413.7277
            L459.0000,417.8650L477.3600,421.6359L495.7200,425.0874L514.0800,428.2600L532.4400,431.1884L550.8000,433.9024L550.8612,433.9109"/>
   <path d="M91.8000,91.8000L110.1600,137.7488L128.5200,177.1852L146.8800,211.0557L165.2400,240.1602L183.6000,265.2224L201.9600,286.8290L220.3200,305.4811L238.6800,321.6066L257.0400,335.5707
            L275.4000,347.6855L293.7600,358.2172L312.1200,367.3933L330.4800,375.4079L348.8400,382.4270L367.2000,388.5920L385.5600,394.0240L403.9200,398.8262L422.2800,403.0868L440.6400,406.8812
            L459.0000,410.2735L477.3600,413.3190L495.7200,416.0644L514.0800,418.5499L532.4400,420.8097L550.8000,422.8732L550.8612,422.8795"/>
   <path d="M91.8000,91.8000L110.1600,137.5266L128.5200,176.9911L146.8800,211.0868L165.2400,240.5687L183.6000,266.1245L201.9600,288.3137L220.3200,307.6153L238.6800,324.4399L257.0400,339.1394
            L275.4000,352.0151L293.7600,363.3251L312.1200,373.2906L330.4800,382.1011L348.8400,389.9186L367.2000,396.8822L385.5600,403.1108L403.9200,408.7063L422.2800,413.7558L440.6400,418.3341
            L459.0000,422.5050L477.3600,426.3232L495.7200,429.8355L514.0800,433.0820L532.4400,436.0969L550.8000,438.9094L550.8612,438.9182"/>
   <path d="M91.8000,91.8000L110.1600,125.0961L128.5200,155.2538L146.8800,182.5966L165.2400,207.4081L183.6000,229.9668L201.9600,250.5055L220.3200,269.2333L238.6800,286.3379L257.0400,301.9874
            L275.4000,316.3330L293.7600,329.5101L312.1200,341.6406L330.4800,352.8335L348.8400,363.1871L367.2000,372.7892L385.5600,381.7189L403.9200,390.0473L422.2800,397.8379L440.6400,405.1482
            L459.0000,412.0295L477.3600,418.5280L495.7200,424.6851L514.0800,430.5382L532.4400,436.1207L550.8000,441.4628L550.8612,441.4799"/>
   <path d="M91.8000,91.8000L110.1600,132.4193L128.5200,168.0661L146.8800,199.3779L165.2400,226.9041L183.6000,251.1556L201.9600,272.5529L220.3200,291.4623L238.6800,308.2027L257.0400,323.0520
            L275.4000,336.2522L293.7600,348.0140L312.1200,358.5213L330.4800,367.9341L348.8400,376.3917L367.2000,384.0156L385.5600,390.9118L403.9200,397.1724L422.2800,402.8778L440.6400,408.0982
            L459.0000,412.8945L477.3600,417.3200L495.7200,421.4212L514.0800,425.2383L532.4400,428.8068L550.8000,432.1573L550.8612,432.1678"/>
   <path d="M91.8000,91.8000L110.1600,135.1609L128.5200,172.7784L146.8800,205.4355L165.2400,233.8017L183.6000,258.4907L201.9600,280.0042L220.3200,298.7750L238.6800,315.1763L257.0400,329.5302
            L275.4000,342.1147L293.7600,353.1694L312.1200,362.9011L330.4800,371.4884L348.8400,379.0853L367.2000,385.8247L385.5600,391.8212L403.9200,397.1738L422.2800,401.9681L440.6400,406.2778
            L459.0000,410.1665L477.3600,413.6893L495.7200,416.8936L514.0800,419.8205L532.4400,422.5053L550.8000,424.9786L550.8612,424.9862"/>
   <path d="M91.8000,91.8000L110.1600,135.2806L128.5200,173.0629L146.8800,205.9208L165.2400,234.5175L183.6000,259.4611L201.9600,281.2488L220.3200,300.3097L238.6800,317.0141L257.0400,331.6818
            L275.4000,344.5886L293.7600,355.9728L312.1200,366.0399L330.4800,374.9675L348.8400,382.9085L367.2000,389.9954L385.5600,396.3421L403.9200,402.0473L422.2800,407.1961L440.6400,411.8618
            L459.0000,416.1078L477.3600,419.9890L495.7200,423.5525L514.0800,426.8392L532.4400,429.8843L550.8000,432.7183L550.8612,432.7271"/>
   <path d="M91.8000,91.8000L110.1600,130.5486L128.5200,164.8346L146.8800,195.2043L165.2400,222.1250L183.6000,246.0403L201.9600,267.3167L220.3200,286.2757L238.6800,303.1997L257.0400,318.3364
            L275.4000,331.9032L293.7600,344.0909L312.1200,355.0671L330.4800,364.9788L348.8400,373.9550L367.2000,382.1089L385.5600,389.5400L403.9200,396.3354L422.2800,402.5718L440.6400,408.3164
            L459.0000,413.6281L477.3600,418.5587L495.7200,423.1537L514.0800,427.4529L532.4400,431.4914L550.8000,435.2998L550.8612,435.3119"/>
   <path d="M91.8000,91.8000L110.1600,135.7240L128.5200,173.8796L146.8800,207.0715L165.2400,235.9847L183.6000,261.2439L201.9600,283.3594L220.3200,302.7702L238.6800,319.8539L257.0400,334.9354
            L275.4000,348.2943L293.7600,360.1711L312.1200,370.7727L330.4800,380.2773L348.8400,388.8381L367.2000,396.5869L385.5600,403.6372L403.9200,410.0867L422.2800,416.0194L440.6400,421.5077
            L459.0000,426.6138L477.3600,431.3914L495.7200,435.8865L514.0800,440.1390L532.4400,444.1829L550.8000,448.0477L550.8612,448.0601"/>
   <path d="M91.8000,91.8000L110.1600,133.1218L128.5200,169.4260L146.8800,201.3628L165.2400,229.4937L183.6000,254.3385L201.9600,276.3252L220.3200,295.8260L238.6800,313.1650L257.0400,328.6240
            L275.4000,342.4484L293.7600,354.8514L312.1200,366.0190L330.4800,376.1127L348.8400,385.2733L367.2000,393.6232L385.5600,401.2691L403.9200,408.3038L422.2800,414.8080L440.6400,420.8521
            L459.0000,426.4974L477.3600,431.7972L495.7200,436.7980L514.0800,441.5401L532.4400,446.0589L550.8000,450.3851L550.8612,450.3990"/>
   <path d="M91.8000,91.8000L110.1600,128.8097L128.5200,161.6283L146.8800,190.7440L165.2400,216.5817L183.6000,239.5458L201.9600,259.9715L220.3200,278.1544L238.6800,294.3554L257.0400,308.8047
            L275.4000,321.7055L293.7600,333.2370L312.1200,343.5575L330.4800,352.8068L348.8400,361.1081L367.2000,368.5704L385.5600,375.2898L403.9200,381.3514L422.2800,386.8300L440.6400,391.7921
            L459.0000,396.2961L477.3600,400.3938L495.7200,404.1309L514.0800,407.5479L532.4400,410.6805L550.8000,413.5603L550.8612,413.5692"/>
   <path d="M91.8000,91.8000L110.1600,142.8580L128.5200,186.0132L146.8800,222.5313L165.2400,253.4725L183.6000,279.7688L201.9600,302.1667L220.3200,321.2924L238.6800,337.6710L257.0400,351.7435
            L275.4000,363.8794L293.7600,374.3890L312.1200,383.5323L330.4800,391.5275L348.8400,398.5577L367.2000,404.7763L385.5600,410.3122L403.9200,415.2732L422.2800,419.7499L440.6400,423.8183
            L459.0000,427.5421L477.3600,430.9747L495.7200,434.1609L514.0800,437.1383L532.4400,439.9383L550.8000,442.5874L550.8612,442.5959"/>
   <path d="M91.8000,91.8000L110.1600,137.9028L128.5200,177.7563L146.8800,212.2507L165.2400,242.1420L183.6000,268.1173L201.9600,290.7357L220.3200,310.4760L238.6800,327.7489L257.0400,342.9060
            L275.4000,356.2487L293.7600,368.0352L312.1200,378.4869L330.4800,387.7930L348.8400,396.1160L367.2000,403.5948L385.5600,410.3486L403.9200,416.4791L422.2800,422.0738L440.6400,427.2073
            L459.0000,431.9435L477.3600,436.3372L495.7200,440.4352L514.0800,444.2776L532.4400,447.8986L550.8000,451.3275L550.8612,451.3384"/>
   <path d="M91.8000,91.8000L110.1600,123.2114L128.5200,151.8732L146.8800,178.0532L165.2400,201.9825L183.6000,223.8932L201.9600,243.9809L220.3200,262.4223L238.6800,279.3768L257.0400,294.9888
            L275.4000,309.3886L293.7600,322.6942L312.1200,335.0122L330.4800,346.4390L348.8400,357.0618L367.2000,366.9595L385.5600,376.2032L403.9200,384.8574L422.2800,392.9805L440.6400,400.6251
            L459.0000,407.8388L477.3600,414.6648L495.7200,421.1420L514.0800,427.3056L532.4400,433.1876L550.8000,438.8168L550.8612,438.8348"/>
   <path d="M91.8000,91.8000L110.1600,128.5990L128.5200,161.4093L146.8800,190.6884L165.2400,216.8332L183.6000,240.2238L201.9600,261.1763L220.3200,279.9699L238.6800,296.8519L257.0400,312.0411
            L275.4000,325.7309L293.7600,338.0927L312.1200,349.2781L330.4800,359.4211L348.8400,368.6406L367.2000,377.0415L385.5600,384.7168L403.9200,391.7488L422.2800,398.2104L440.6400,404.1659
            L459.0000,409.6725L477.3600,414.7807L495.7200,419.5351L514.0800,423.9753L532.4400,428.1363L550.8000,432.0492L550.8612,432.0615"/>
   <path d="M91.8000,91.8000L110.1600,129.8684L128.5200,163.5768L146.8800,193.4424L165.2400,219.9135L183.6000,243.4156L201.9600,264.3011L220.3200,282.8800L238.6800,299.4254L257.0400,314.1775
            L275.4000,327.3479L293.7600,339.1229L312.1200,349.6664L330.4800,359.1230L348.8400,367.6196L367.2000,375.2684L385.5600,382.1678L403.9200,388.4048L422.2800,394.0558L440.6400,399.1881
            L459.0000,403.8611L477.3600,408.1271L495.7200,412.0320L514.0800,415.6164L532.4400,418.9161L550.8000,421.9625L550.8612,421.9719"/>
   <path d="M91.8000,91.8000L110.1600,134.8704L128.5200,172.4241L146.8800,205.2008L165.2400,233.8424L183.6000,258.9338L201.9600,280.9553L220.3200,300.3218L238.6800,317.3925L257.0400,332.4779
            L275.4000,345.8465L293.7600,357.7309L312.1200,368.3320L330.4800,377.8239L348.8400,386.3570L367.2000,394.0617L385.5600,401.0508L403.9200,407.4219L422.2800,413.2595L440.6400,418.6369
            L459.0000,423.6175L477.3600,428.2561L495.7200,432.6004L514.0800,436.6915L532.4400,440.5652L550.8000,444.2524L550.8612,444.2642"/>
   <path d="M91.8000,91.8000L110.1600,135.2045L128.5200,172.8304L146.8800,205.4669L165.2400,233.7945L183.6000,258.4324L201.9600,279.8868L220.3200,298.5941L238.6800,314.9302L257.0400,329.2191
            L275.4000,341.7403L293.7600,352.7345L312.1200,362.4093L330.4800,370.9439L348.8400,378.4925L367.2000,385.1884L385.5600,391.1465L403.9200,396.4657L422.2800,401.2316L440.6400,405.5180
            L459.0000,409.3885L477.3600,412.8981L495.7200,416.0942L514.0800,419.0177L532.4400,421.7041L550.8000,424.1839L550.8612,424.1916"/>
   <path d="M91.8000,91.8000L110.1600,122.7848L128.5200,151.0764L146.8800,176.9370L165.2400,200.5922L183.6000,222.2695L201.9600,242.1600L220.3200,260.4364L238.6800,277.2549L257.0400,292.7567
            L275.4000,307.0695L293.7600,320.3087L312.1200,332.5789L330.4800,343.9746L348.8400,354.5812L367.2000,364.4760L385.5600,373.7289L403.9200,382.4034L422.2800,390.5564L440.6400,398.2400
            L459.0000,405.5009L477.3600,412.3815L495.7200,418.9201L514.0800,425.1516L532.4400,431.1072L550.8000,436.8155L550.8612,436.8338"/>
   <path d="M91.8000,91.8000L110.1600,126.0953L128.5200,156.8802L146.8800,184.5285L165.2400,209.3665L183.6000,231.7123L201.9600,251.8310L220.3200,269.9594L238.6800,286.3084L257.0400,301.0667
            L275.4000,314.4026L293.7600,326.4661L312.1200,337.3914L330.4800,347.2983L348.8400,356.2937L367.2000,364.4729L385.5600,371.9213L403.9200,378.7150L422.2800,384.9220L440.6400,390.6030
            L459.0000,395.8124L477.3600,400.5984L495.7200,405.0046L514.0800,409.0694L532.4400,412.8276L550.8000,416.3100L550.8612,416.3208"/>
   <path d="M91.8000,91.8000L110.1600,137.7763L128.5200,177.3723L146.8800,211.5034L165.2400,240.9560L183.6000,266.4355L201.9600,288.5157L220.3200,307.6875L238.6800,324.3703L257.0400,338.9229
            L275.4000,351.6523L293.7600,362.8209L312.1200,372.6531L330.4800,381.3411L348.8400,389.0492L367.2000,395.9178L385.5600,402.0675L403.9200,407.6010L422.2800,412.6066L440.6400,417.1597
            L459.0000,421.3249L477.3600,425.1575L495.7200,428.7049L514.0800,432.0077L532.4400,435.1006L550.8000,438.0134L550.8612,438.0226"/>
   <path d="M91.8000,91.8000L110.1600,144.9414L128.5200,189.3613L146.8800,226.5255L165.2400,257.6532L183.6000,283.7992L201.9600,305.8022L220.3200,324.3585L238.6800,340.0469L257.0400,353.3479
            L275.4000,364.6606L293.7600,374.3165L312.1200,382.5910L330.4800,389.7130L348.8400,395.8723L367.2000,401.2268L385.5600,405.9077L403.9200,410.0240L422.2800,413.6662L440.6400,416.9096
            L459.0000,419.8167L477.3600,422.4395L495.7200,424.8214L514.0800,426.9981L532.4400,428.9997L550.8000,430.8511L550.8612,430.8568"/>
   <path d="M91.8000,91.8000L110.1600,124.5723L128.5200,154.2599L146.8800,181.1740L165.2400,205.5868L183.6000,227.7679L201.9600,247.9425L220.3200,266.3133L238.6800,283.0623L257.0400,298.3532
            L275.4000,312.3332L293.7600,325.1347L312.1200,336.8766L330.4800,347.6659L348.8400,357.5988L367.2000,366.7618L385.5600,375.2328L403.9200,383.0816L422.2800,390.3712L440.6400,397.1582
            L459.0000,403.4935L477.3600,409.4229L495.7200,414.9876L514.0800,420.2245L532.4400,425.1671L550.8000,429.8452L550.8612,429.8600"/>
   <path d="M91.8000,91.8000L110.1600,130.0727L128.5200,163.9056L146.8800,193.8320L165.2400,220.3098L183.6000,243.7751L201.9600,264.5884L220.3200,283.0665L238.6800,299.4879L257.0400,314.0978
            L275.4000,327.1114L293.7600,338.7181L312.1200,349.0844L330.4800,358.3569L348.8400,366.6641L367.2000,374.1193L385.5600,380.8221L403.9200,386.8598L422.2800,392.3096L440.6400,397.2391
            L459.0000,401.7077L477.3600,405.7677L495.7200,409.4653L514.0800,412.8407L532.4400,415.9297L550.8000,418.7633L550.8612,418.7720"/>
   <path d="M91.8000,91.8000L110.1600,137.5501L128.5200,177.1245L146.8800,211.4011L165.2400,241.1311L183.6000,266.9936L201.9600,289.5422L220.3200,309.2509L238.6800,326.5265L257.0400,341.7174
            L275.4000,355.1226L293.7600,366.9981L312.1200,377.5635L330.4800,387.0071L348.8400,395.4904L367.2000,403.1516L385.5600,410.1096L403.9200,416.4660L422.2800,422.3082L440.6400,427.7108
            L459.0000,432.7382L477.3600,437.4453L495.7200,441.8794L514.0800,446.0810L532.4400,450.0848L550.8000,453.9207L550.8612,453.9330"/>
   <path d="M91.8000,91.8000L110.1600,126.0269L128.5200,156.8427L146.8800,184.6070L165.2400,209.6323L183.6000,232.2248L201.9600,252.6405L220.3200,271.1079L238.6800,287.8314L257.0400,302.9937
            L275.4000,316.7581L293.7600,329.2706L312.1200,340.6618L330.4800,351.0485L348.8400,360.5350L367.2000,369.2145L385.5600,377.1705L403.9200,384.4776L422.2800,391.2023L440.6400,397.4044
            L459.0000,403.1371L477.3600,408.4480L495.7200,413.3796L514.0800,417.9700L532.4400,422.2532L550.8000,426.2597L550.8612,426.2722"/>
   <path d="M91.8000,91.8000L110.1600,123.4431L128.5200,152.2045L146.8800,178.3681L165.2400,202.1777L183.6000,223.8734L201.9600,243.6629L220.3200,261.7310L238.6800,278.2449L257.0400,293.3552
            L275.4000,307.1980L293.7600,319.8960L312.1200,331.5600L330.4800,342.2902L348.8400,352.1766L367.2000,361.3009L385.5600,369.7365L403.9200,377.5499L422.2800,384.8008L440.6400,391.5433
            L459.0000,397.8262L477.3600,403.6934L495.7200,409.1848L514.0800,414.3360L532.4400,419.1795L550.8000,423.7444L550.8612,423.7588"/>
   <path d="M91.8000,91.8000L110.1600,120.1170L128.5200,146.2650L146.8800,170.4135L165.2400,192.7096L183.6000,213.3058L201.9600,232.3334L220.3200,249.9122L238.6800,266.1523L257.0400,281.1554
            L275.4000,295.0152L293.7600,307.8183L312.1200,319.6445L330.4800,330.5676L348.8400,340.6559L367.2000,349.9725L385.5600,358.5757L403.9200,366.5195L422.2800,373.8538L440.6400,380.6249
            L459.0000,386.8755L477.3600,392.6453L495.7200,397.9708L514.0800,402.8860L532.4400,407.4223L550.8000,411.6086L550.8612,411.6215"/>
   <path d="M91.8000,91.8000L110.1600,144.2865L128.5200,188.3150L146.8800,225.2868L165.2400,256.3690L183.6000,282.5773L201.9600,304.7214L220.3200,323.4761L238.6800,339.4038L257.0400,352.9732
            L275.4000,364.5748L293.7600,374.5344L312.1200,383.1233L330.4800,390.5677L348.8400,397.0562L367.2000,402.7459L385.5600,407.7680L403.9200,412.2316L422.2800,416.2280L440.6400,419.8330
            L459.0000,423.1102L477.3600,426.1125L495.7200,428.8840L514.0800,431.4616L532.4400,433.8761L550.8000,436.1532L550.8612,436.1604"/>
   <path d="M91.8000,91.8000L110.1600,131.6119L128.5200,166.7023L146.8800,197.6582L165.2400,224.9913L183.6000,249.1778L201.9600,270.6114L220.3200,289.6361L238.6800,306.5527L257.0400,321.6245
            L275.4000,335.0814L293.7600,347.1250L312.1200,357.9313L330.4800,367.6544L348.8400,376.4293L367.2000,384.3738L385.5600,391.5914L403.9200,398.1723L422.2800,404.1958L440.6400,409.7310
            L459.0000,414.8388L477.3600,419.5720L495.7200,423.9774L514.0800,428.0955L532.4400,431.9621L550.8000,435.6085L550.8612,435.6200"/>
   <path d="M91.8000,91.8000L110.1600,124.2289L128.5200,153.5950L146.8800,180.2059L165.2400,204.3264L183.6000,226.2173L201.9600,246.1014L220.3200,264.1776L238.6800,280.6248L257.0400,295.6040
            L275.4000,309.2599L293.7600,321.7230L312.1200,333.1106L330.4800,343.5281L348.8400,353.0706L367.2000,361.8235L385.5600,369.8637L403.9200,377.2603L422.2800,384.0756L440.6400,390.3655
            L459.0000,396.1805L477.3600,401.5658L495.7200,406.5621L514.0800,411.2062L532.4400,415.5311L550.8000,419.5663L550.8612,419.5788"/>
   <path d="M91.8000,91.8000L110.1600,136.1721L128.5200,174.7196L146.8800,208.2416L165.2400,237.4178L183.6000,262.8733L201.9600,285.1182L220.3200,304.5923L238.6800,321.6745L257.0400,336.6916
            L275.4000,349.9251L293.7600,361.6176L312.1200,371.9782L330.4800,381.1870L348.8400,389.3991L367.2000,396.7483L385.5600,403.3496L403.9200,409.3023L422.2800,414.6918L440.6400,419.5916
            L459.0000,424.0651L477.3600,428.1667L495.7200,431.9435L514.0800,435.4357L532.4400,438.6784L550.8000,441.7012L550.8612,441.7106"/>
   <path d="M91.8000,91.8000L110.1600,127.5227L128.5200,159.4660L146.8800,188.0524L165.2400,213.6521L183.6000,236.6198L201.9600,257.2506L220.3200,275.8065L238.6800,292.5199L257.0400,307.5969
            L275.4000,321.2204L293.7600,333.5529L312.1200,344.7386L330.4800,354.9052L348.8400,364.1665L367.2000,372.6233L385.5600,380.3650L403.9200,387.4711L422.2800,394.0124L440.6400,400.0513
            L459.0000,405.6437L477.3600,410.8389L495.7200,415.6810L514.0800,420.2088L532.4400,424.4570L550.8000,428.4565L550.8612,428.4691"/>
   <path d="M91.8000,91.8000L110.1600,137.5096L128.5200,176.9736L146.8800,211.0772L165.2400,240.5707L183.6000,266.1371L201.9600,288.3317L220.3200,307.6303L238.6800,324.4409L257.0400,339.1129
            L275.4000,351.9459L293.7600,363.1966L312.1200,373.0852L330.4800,381.8000L348.8400,389.5029L367.2000,396.3324L385.5600,402.4072L403.9200,407.8293L422.2800,412.6861L440.6400,417.0525
            L459.0000,420.9930L477.3600,424.5626L495.7200,427.8090L514.0800,430.7729L532.4400,433.4892L550.8000,435.9883L550.8612,435.9960"/>
   <path d="M91.8000,91.8000L110.1600,135.9722L128.5200,174.2974L146.8800,207.5784L165.2400,236.5034L183.6000,261.7010L201.9600,283.6846L220.3200,302.8961L238.6800,319.7167L257.0400,334.4744
            L275.4000,347.4519L293.7600,358.8928L312.1200,369.0068L330.4800,377.9747L348.8400,385.9522L367.2000,393.0735L385.5600,399.4541L403.9200,405.1937L422.2800,410.3780L440.6400,415.0811
            L459.0000,419.3665L477.3600,423.2893L495.7200,426.8967L514.0800,430.2295L532.4400,433.3229L550.8000,436.2071L550.8612,436.2161"/>
   <path d="M91.8000,91.8000L110.1600,136.4118L128.5200,175.1160L146.8800,208.7358L165.2400,237.9622L183.6000,263.4331L201.9600,285.6679L220.3200,305.1137L238.6800,322.1552L257.0400,337.1235
            L275.4000,350.3034L293.7600,361.9399L312.1200,372.2438L330.4800,381.3964L348.8400,389.5536L367.2000,396.8497L385.5600,403.3998L403.9200,409.3034L422.2800,414.6457L440.6400,419.5002
            L459.0000,423.9299L477.3600,427.9893L495.7200,431.7249L514.0800,435.1772L532.4400,438.3806L550.8000,441.3650L550.8612,441.3743"/>
   <path d="M91.8000,91.8000L110.1600,134.5208L128.5200,171.8708L146.8800,204.5618L165.2400,233.2065L183.6000,258.3706L201.9600,280.5181L220.3200,300.0513L238.6800,317.3192L257.0400,332.6244
            L275.4000,346.2291L293.7600,358.3609L312.1200,369.2172L330.4800,378.9690L348.8400,387.7647L367.2000,395.7331L385.5600,402.9858L403.9200,409.6197L422.2800,415.7187L440.6400,421.3559
            L459.0000,426.5944L477.3600,431.4892L495.7200,436.0878L514.0800,440.4317L532.4400,444.5567L550.8000,448.4940L550.8612,448.5066"/>
   <path d="M91.8000,91.8000L110.1600,130.9293L128.5200,165.4092L146.8800,195.8167L165.2400,222.6418L183.6000,246.3495L201.9600,267.3242L220.3200,285.9022L238.6800,302.3783L257.0400,317.0108
            L275.4000,330.0260L293.7600,341.6223L312.1200,351.9734L330.4800,361.2316L348.8400,369.5303L367.2000,376.9866L385.5600,383.7028L403.9200,389.7688L422.2800,395.2633L440.6400,400.2553
            L459.0000,404.8053L477.3600,408.9663L495.7200,412.7848L514.0800,416.3015L532.4400,419.5522L550.8000,422.5682L550.8612,422.5776"/>
   <path d="M91.8000,91.8000L110.1600,135.9919L128.5200,174.3574L146.8800,207.6991L165.2400,236.6952L183.6000,261.9720L201.9600,284.0402L220.3200,303.3403L238.6800,320.2517L257.0400,335.1017
            L275.4000,348.1722L293.7600,359.7062L312.1200,369.9133L330.4800,378.9739L348.8400,387.0434L367.2000,394.2558L385.5600,400.7267L403.9200,406.5553L422.2800,411.8274L440.6400,416.6166
            L459.0000,420.9867L477.3600,424.9922L495.7200,428.6802L514.0800,432.0915L532.4400,435.2608L550.8000,438.2184L550.8612,438.2276"/>
   <path d="M91.8000,91.8000L110.1600,140.6886L128.5200,182.3186L146.8800,217.8038L165.2400,248.0847L183.6000,273.9964L201.9600,296.2116L220.3200,315.2991L238.6800,331.7399L257.0400,345.9406
            L275.4000,358.2451L293.7600,368.9440L312.1200,378.2832L330.4800,386.4705L348.8400,393.6817L367.2000,400.0655L385.5600,405.7475L403.9200,410.8342L422.2800,415.4155L440.6400,419.5675
            L459.0000,423.3546L477.3600,426.8314L495.7200,430.0440L514.0800,433.0314L532.4400,435.8268L550.8000,438.4582L550.8612,438.4665"/>
   <path d="M91.8000,91.8000L110.1600,130.4358L128.5200,164.7285L146.8800,195.1960L165.2400,222.2887L183.6000,246.4327L201.9600,267.9810L220.3200,287.2443L238.6800,304.4958L257.0400,319.9764
            L275.4000,333.8979L293.7600,346.4467L312.1200,357.7869L330.4800,368.0632L348.8400,377.4026L367.2000,385.9174L385.5600,393.7059L403.9200,400.8552L422.2800,407.4416L440.6400,413.5325
            L459.0000,419.1872L477.3600,424.4579L495.7200,429.3906L514.0800,434.0258L532.4400,438.3991L550.8000,442.5419L550.8612,442.5550"/>
   <path d="M91.8000,91.8000L110.1600,135.3744L128.5200,173.2655L146.8800,206.2448L165.2400,234.9791L183.6000,260.0753L201.9600,282.0307L220.3200,301.2741L238.6800,318.1754L257.0400,333.0541
            L275.4000,346.1857L293.7600,357.8082L312.1200,368.1268L330.4800,377.3187L348.8400,385.5370L367.2000,392.9139L385.5600,399.5633L403.9200,405.5838L422.2800,411.0605L440.6400,416.0669
            L459.0000,420.6665L477.3600,424.9141L495.7200,428.8571L514.0800,432.5364L532.4400,435.9875L550.8000,439.2410L550.8612,439.2513"/>
   <path d="M91.8000,91.8000L110.1600,133.4223L128.5200,169.9850L146.8800,202.1397L165.2400,230.4395L183.6000,255.4050L201.9600,277.4635L220.3200,296.9877L238.6800,314.3021L257.0400,329.6895
            L275.4000,343.3965L293.7600,355.6375L312.1200,366.5995L330.4800,376.4453L348.8400,385.3167L367.2000,393.3371L385.5600,400.6138L403.9200,407.2405L422.2800,413.2984L440.6400,418.8584
            L459.0000,423.9820L477.3600,428.7228L495.7200,433.1272L514.0800,437.2357L532.4400,441.0834L550.8000,444.7009L550.8612,444.7123"/>
   <path d="M91.8000,91.8000L110.1600,126.7149L128.5200,158.0177L146.8800,186.1005L165.2400,211.3058L183.6000,233.9656L201.9600,254.3565L220.3200,272.7250L238.6800,289.2905L257.0400,304.2485
            L275.4000,317.7731L293.7600,330.0195L312.1200,341.1259L330.4800,351.2154L348.8400,360.3976L367.2000,368.7705L385.5600,376.4211L403.9200,383.4269L422.2800,389.8572L440.6400,395.7737
            L459.0000,401.2311L477.3600,406.2786L495.7200,410.9597L514.0800,415.3134L532.4400,419.3742L550.8000,423.1730L550.8612,423.1849"/>
   <path d="M91.8000,91.8000L110.1600,140.3678L128.5200,181.6668L146.8800,216.8113L165.2400,246.7451L183.6000,272.3038L201.9600,294.1608L220.3200,312.8854L238.6800,328.9586L257.0400,342.7874
            L275.4000,354.7156L293.7600,365.0339L312.1200,373.9881L330.4800,381.7861L348.8400,388.6036L367.2000,394.5894L385.5600,399.8691L403.9200,404.5491L422.2800,408.7195L440.6400,412.4564
            L459.0000,415.8242L477.3600,418.8775L495.7200,421.6626L514.0800,424.2185L532.4400,426.5783L550.8000,428.7703L550.8612,428.7771"/>
   <path d="M91.8000,91.8000L110.1600,123.1267L128.5200,151.6591L146.8800,177.6646L165.2400,201.3775L183.6000,223.0321L201.9600,242.8256L220.3200,260.9359L238.6800,277.5238L257.0400,292.7347
            L275.4000,306.7001L293.7600,319.5389L312.1200,331.3584L330.4800,342.2559L348.8400,352.3193L367.2000,361.6279L385.5600,370.2537L403.9200,378.2617L422.2800,385.7107L440.6400,392.6537
            L459.0000,399.1390L477.3600,405.2100L495.7200,410.9060L514.0800,416.2627L532.4400,421.3123L550.8000,426.0838L550.8612,426.0988"/>
   <path d="M91.8000,91.8000L110.1600,142.6309L128.5200,185.4850L146.8800,221.6458L165.2400,252.1872L183.6000,278.0511L201.9600,299.9913L220.3200,318.6396L238.6800,334.5255L257.0400,348.0927
            L275.4000,359.7130L293.7600,369.6981L312.1200,378.3091L330.4800,385.7649L348.8400,392.2488L367.2000,397.9146L385.5600,402.8912L403.9200,407.2865L422.2800,411.1910L440.6400,414.6806
            L459.0000,417.8189L477.3600,420.6593L495.7200,423.2465L514.0800,425.6179L532.4400,427.8050L550.8000,429.8342L550.8612,429.8405"/>
   <path d="M91.8000,91.8000L110.1600,126.3934L128.5200,157.4172L146.8800,185.2581L165.2400,210.2475L183.6000,232.7064L201.9600,252.9077L220.3200,271.0928L238.6800,287.4770L257.0400,302.2523
            L275.4000,315.5902L293.7600,327.6433L312.1200,338.5481L330.4800,348.4261L348.8400,357.3857L367.2000,365.5238L385.5600,372.9265L403.9200,379.6708L422.2800,385.8255L440.6400,391.4516
            L459.0000,396.6038L477.3600,401.3308L495.7200,405.6761L514.0800,409.6783L532.4400,413.3720L550.8000,416.7881L550.8612,416.7987"/>
   <path d="M91.8000,91.8000L110.1600,133.7793L128.5200,170.5728L146.8800,202.8569L165.2400,231.2066L183.6000,256.1598L201.9600,278.1581L220.3200,297.5856L238.6800,314.7761L257.0400,330.0199
            L275.4000,343.5694L293.7600,355.6441L312.1200,366.4347L330.4800,376.1069L348.8400,384.8050L367.2000,392.6539L385.5600,399.7626L403.9200,406.2255L422.2800,412.1247L440.6400,417.5315
            L459.0000,422.5078L477.3600,427.1072L495.7200,431.3765L514.0800,435.3559L532.4400,439.0808L550.8000,442.5813L550.8612,442.5923"/>
   <path d="M91.8000,91.8000L110.1600,130.9232L128.5200,165.4481L146.8800,195.9364L165.2400,222.8739L183.6000,246.7184L201.9600,267.8480L220.3200,286.5943L238.6800,303.2478L257.0400,318.0636
            L275.4000,331.2653L293.7600,343.0489L312.1200,353.5864L330.4800,363.0287L348.8400,371.5082L367.2000,379.1408L385.5600,386.0283L403.9200,392.2602L422.2800,397.9146L440.6400,403.0605
            L459.0000,407.7581L477.3600,412.0602L495.7200,416.0134L514.0800,419.6584L532.4400,423.0309L550.8000,426.1623L550.8612,426.1721"/>
   <path d="M91.8000,91.8000L110.1600,129.4156L128.5200,162.8223L146.8800,192.5165L165.2400,218.9208L183.6000,242.4406L201.9600,263.4138L220.3200,282.1374L238.6800,298.8738L257.0400,313.8544
            L275.4000,327.2834L293.7600,339.3410L312.1200,350.1860L330.4800,359.9588L348.8400,368.7829L367.2000,376.7676L385.5600,384.0091L403.9200,390.5922L422.2800,396.5918L440.6400,402.0740
            L459.0000,407.0969L477.3600,411.7120L495.7200,415.9643L514.0800,419.8939L532.4400,423.5359L550.8000,426.9213L550.8612,426.9318"/>
   <path d="M91.8000,91.8000L110.1600,127.7658L128.5200,159.9785L146.8800,188.8540L165.2400,214.7502L183.6000,238.0145L201.9600,258.9376L220.3200,277.7769L238.6800,294.7617L257.0400,310.0955
            L275.4000,323.9596L293.7600,336.5148L312.1200,347.9043L330.4800,358.2553L348.8400,367.6809L367.2000,376.2817L385.5600,384.1468L403.9200,391.3558L422.2800,397.9792L440.6400,404.0797
            L459.0000,409.7130L477.3600,414.9285L495.7200,419.7703L514.0800,424.2774L532.4400,428.4845L550.8000,432.4224L550.8612,432.4347"/>
   <path d="M91.8000,91.8000L110.1600,137.2177L128.5200,176.3235L146.8800,210.0251L165.2400,239.0837L183.6000,264.1948L201.9600,285.9243L220.3200,304.7562L238.6800,321.1051L257.0400,335.3260
            L275.4000,347.7227L293.7600,358.5556L312.1200,368.0474L330.4800,376.3891L348.8400,383.7438L367.2000,390.2517L385.5600,396.0323L403.9200,401.1883L422.2800,405.8076L440.6400,409.9654
            L459.0000,413.7261L477.3600,417.1449L495.7200,420.2692L514.0800,423.1394L532.4400,425.7903L550.8000,428.2517L550.8612,428.2594"/>
   <path d="M91.8000,91.8000L110.1600,131.2109L128.5200,165.8623L146.8800,196.3429L165.2400,223.1660L183.6000,246.8100L201.9600,267.6699L220.3200,286.0912L238.6800,302.3758L257.0400,316.7880
            L275.4000,329.5591L293.7600,340.8914L312.1200,350.9618L330.4800,359.9253L348.8400,367.9176L367.2000,375.0572L385.5600,381.4483L403.9200,387.1818L422.2800,392.3373L440.6400,396.9848
            L459.0000,401.1854L477.3600,404.9927L495.7200,408.4536L514.0800,411.6093L532.4400,414.4958L550.8000,417.1449L550.8612,417.1530"/>
   <path d="M91.8000,91.8000L110.1600,125.4715L128.5200,155.7683L146.8800,183.0487L165.2400,207.6222L183.6000,229.7929L201.9600,249.8141L220.3200,267.9126L238.6800,284.2908L257.0400,299.1297
            L275.4000,312.5912L293.7600,324.8197L312.1200,335.9447L330.4800,346.0815L348.8400,355.3335L367.2000,363.7931L385.5600,371.5427L403.9200,378.6561L422.2800,385.1994L440.6400,391.2314
            L459.0000,396.8050L477.3600,401.9671L495.7200,406.7600L514.0800,411.2214L532.4400,415.3848L550.8000,419.2804L550.8612,419.2926"/>
   <path d="M91.8000,91.8000L110.1600,126.4882L128.5200,157.5634L146.8800,185.4227L165.2400,210.4084L183.6000,232.8538L201.9600,253.0361L220.3200,271.2023L238.6800,287.5720L257.0400,302.3407
            L275.4000,315.6825L293.7600,327.7523L312.1200,338.6879L330.4800,348.6121L348.8400,357.6340L367.2000,365.8510L385.5600,373.3497L403.9200,380.2070L422.2800,386.4917L440.6400,392.2649
            L459.0000,397.5809L477.3600,402.4881L495.7200,407.0298L514.0800,411.2443L532.4400,415.1658L550.8000,418.8247L550.8612,418.8361"/>
   <path d="M91.8000,91.8000L110.1600,148.6582L128.5200,196.0070L146.8800,235.5136L165.2400,268.5541L183.6000,296.3053L201.9600,319.6953L220.3200,339.4883L238.6800,356.3128L257.0400,370.6860
            L275.4000,383.0330L293.7600,393.7036L312.1200,402.9852L330.4800,411.1141L348.8400,418.2843L367.2000,424.6554L385.5600,430.3585L403.9200,435.5013L422.2800,440.1723L440.6400,444.4442
            L459.0000,448.3767L477.3600,452.0190L495.7200,455.4116L514.0800,458.5878L532.4400,461.5750L550.8000,464.3960L550.8612,464.4049"/>
   <path d="M91.8000,91.8000L110.1600,131.0967L128.5200,165.7997L146.8800,196.4746L165.2400,223.6025L183.6000,247.6368L201.9600,268.9577L220.3200,287.8965L238.6800,304.7438L257.0400,319.7548
            L275.4000,333.1530L293.7600,345.1348L312.1200,355.8725L330.4800,365.5170L348.8400,374.2009L367.2000,382.0403L385.5600,389.1372L403.9200,395.5810L422.2800,401.4501L440.6400,406.8133
            L459.0000,411.7309L477.3600,416.2557L495.7200,420.4343L514.0800,424.3073L532.4400,427.9104L550.8000,431.2750L550.8612,431.2855"/>
   <path d="M91.8000,91.8000L110.1600,124.8667L128.5200,154.7414L146.8800,181.7557L165.2400,206.1984L183.6000,228.3531L201.9600,248.4568L220.3200,266.7218L238.6800,283.3383L257.0400,298.4767
            L275.4000,312.2895L293.7600,324.9136L312.1200,336.4714L330.4800,347.0728L348.8400,356.8162L367.2000,365.7897L385.5600,374.0725L403.9200,381.7352L422.2800,388.8415L440.6400,395.4481
            L459.0000,401.6061L477.3600,407.3613L495.7200,412.7545L514.0800,417.8226L532.4400,422.5985L550.8000,427.1116L550.8612,427.1259"/>
   <path d="M91.8000,91.8000L110.1600,130.7824L128.5200,165.2225L146.8800,195.6727L165.2400,222.6088L183.6000,246.4820L201.9600,267.6645L220.3200,286.4833L238.6800,303.2255L257.0400,318.1429
            L275.4000,331.4569L293.7600,343.3616L312.1200,354.0274L330.4800,363.6040L348.8400,372.2230L367.2000,379.9995L385.5600,387.0350L403.9200,393.4184L422.2800,399.2278L440.6400,404.5318
            L459.0000,409.3906L477.3600,413.8572L495.7200,417.9780L514.0800,421.7938L532.4400,425.3405L550.8000,428.6495L550.8612,428.6599"/>
   <path d="M91.8000,91.8000L110.1600,136.1237L128.5200,174.5383L146.8800,207.8603L165.2400,236.7865L183.6000,261.9545L201.9600,283.8840L220.3200,303.0225L238.6800,319.7552L257.0400,334.4135
            L275.4000,347.2826L293.7600,358.6081L312.1200,368.6011L330.4800,377.4436L348.8400,385.2919L367.2000,392.2807L385.5600,398.5257L403.9200,404.1267L422.2800,409.1695L440.6400,413.7277
            L459.0000,417.8650L477.3600,421.6359L495.7200,425.0874L514.0800,428.2600L532.4400,431.1884L550.8000,433.9024L550.8612,433.9109"/>
   <path d="M91.8000,91.8000L110.1600,122.3828L128.5200,150.3536L146.8800,175.9578L165.2400,199.4101L183.6000,220.9271L201.9600,240.6902L220.3200,258.8643L238.6800,275.5985L257.0400,291.0281
            L275.4000,305.2756L293.7600,318.4521L312.1200,330.6584L330.4800,341.9859L348.8400,352.5173L367.2000,362.3276L385.5600,371.4850L403.9200,380.0511L422.2800,388.0820L440.6400,395.6283
            L459.0000,402.7361L477.3600,409.4471L495.7200,415.7991L514.0800,421.8264L532.4400,427.5602L550.8000,433.0287L550.8612,433.0461"/>
   <path d="M91.8000,91.8000L110.1600,135.3139L128.5200,173.1458L146.8800,206.0672L165.2400,234.7377L183.6000,259.7635L201.9600,281.6400L220.3200,300.7949L238.6800,317.5977L257.0400,332.3672
            L275.4000,345.3786L293.7600,356.8696L312.1200,367.0453L330.4800,376.0828L348.8400,384.1350L367.2000,391.3340L385.5600,397.7937L403.9200,403.6125L422.2800,408.8753L440.6400,413.6555
            L459.0000,418.0164L477.3600,422.0126L495.7200,425.6913L514.0800,429.0933L532.4400,432.2538L550.8000,435.2031L550.8612,435.2123"/>
   <path d="M91.8000,91.8000L110.1600,127.5731L128.5200,159.6690L146.8800,188.4939L165.2400,214.3994L183.6000,237.7277L201.9600,258.7633L220.3200,277.7595L238.6800,294.9414L257.0400,310.5097
            L275.4000,324.6427L293.7600,337.4991L312.1200,349.2201L330.4800,359.9312L348.8400,369.7443L367.2000,378.7588L385.5600,387.0632L403.9200,394.7362L422.2800,401.8477L440.6400,408.4601
            L459.0000,414.6287L477.3600,420.4029L495.7200,425.8264L514.0800,430.9382L532.4400,435.7730L550.8000,440.3616L550.8612,440.3762"/>
   <path d="M91.8000,91.8000L110.1600,125.0961L128.5200,155.2538L146.8800,182.5966L165.2400,207.4081L183.6000,229.9668L201.9600,250.5055L220.3200,269.2333L238.6800,286.3379L257.0400,301.9874
            L275.4000,316.3330L293.7600,329.5101L312.1200,341.6406L330.4800,352.8335L348.8400,363.1871L367.2000,372.7892L385.5600,381.7189L403.9200,390.0473L422.2800,397.8379L440.6400,405.1482
            L459.0000,412.0295L477.3600,418.5280L495.7200,424.6851L514.0800,430.5382L532.4400,436.1207L550.8000,441.4628L550.8612,441.4799"/>
   <path d="M91.8000,91.8000L110.1600,147.1385L128.5200,193.4154L146.8800,232.1783L165.2400,264.6992L183.6000,292.0832L201.9600,315.2052L220.3200,334.7899L238.6800,351.4374L257.0400,365.6446
            L275.4000,377.8228L293.7600,388.3124L312.1200,397.3951L330.4800,405.3040L348.8400,412.2318L367.2000,418.3380L385.5600,423.7547L403.9200,428.5909L422.2800,432.9370L440.6400,436.8677
            L459.0000,440.4449L477.3600,443.7197L495.7200,446.7347L514.0800,449.5250L532.4400,452.1197L550.8000,454.5433L550.8612,454.5509"/>
   <path d="M91.8000,91.8000L110.1600,132.4461L128.5200,168.1312L146.8800,199.4851L165.2400,227.0471L183.6000,251.3232L201.9600,272.7297L220.3200,291.6298L238.6800,308.3404L257.0400,323.1379
            L275.4000,336.2634L293.7600,347.9273L312.1200,358.3131L330.4800,367.5810L348.8400,375.8705L367.2000,383.3036L385.5600,389.9864L403.9200,396.0116L422.2800,401.4601L440.6400,406.4024
            L459.0000,410.9000L477.3600,415.0064L495.7200,418.7686L514.0800,422.2271L532.4400,425.4177L550.8000,428.3712L550.8612,428.3804"/>
   <path d="M91.8000,91.8000L110.1600,128.0853L128.5200,160.4900L146.8800,189.4531L165.2400,215.3527L183.6000,238.5545L201.9600,259.3624L220.3200,278.0457L238.6800,294.8435L257.0400,309.9676
            L275.4000,323.6058L293.7600,335.9247L312.1200,347.0721L330.4800,357.1790L348.8400,366.3615L367.2000,374.7227L385.5600,382.3539L403.9200,389.3362L422.2800,395.7413L440.6400,401.6329
            L459.0000,407.0676L477.3600,412.0954L495.7200,416.7607L514.0800,421.1029L532.4400,425.1570L550.8000,428.9538L550.8612,428.9656"/>
   <path d="M91.8000,91.8000L110.1600,132.3295L128.5200,167.9364L146.8800,199.2427L165.2400,226.7827L183.6000,251.0569L201.9600,272.4777L220.3200,291.4051L238.6800,308.1533L257.0400,322.9966
            L275.4000,336.1745L293.7600,347.8961L312.1200,358.3438L330.4800,367.6770L348.8400,376.0347L367.2000,383.5384L385.5600,390.2941L403.9200,396.3942L422.2800,401.9196L440.6400,406.9408
            L459.0000,411.5193L477.3600,415.7087L495.7200,419.5561L514.0800,423.1023L532.4400,426.3831L550.8000,429.4296L550.8612,429.4391"/>
   <path d="M91.8000,91.8000L110.1600,135.4067L128.5200,173.2806L146.8800,206.2080L165.2400,234.8617L183.6000,259.8571L201.9600,281.6970L220.3200,300.8150L238.6800,317.5847L257.0400,332.3285
            L275.4000,345.3239L293.7600,356.8106L312.1200,366.9948L330.4800,376.0546L348.8400,384.1434L367.2000,391.3935L385.5600,397.9190L403.9200,403.8182L422.2800,409.1761L440.6400,414.0656
            L459.0000,418.5499L477.3600,422.6834L495.7200,426.5130L514.0800,430.0791L532.4400,433.4167L550.8000,436.5558L550.8612,436.5657"/>
   <path d="M91.8000,91.8000L110.1600,147.7842L128.5200,194.0259L146.8800,232.2527L165.2400,263.8937L183.6000,290.1619L201.9600,312.0132L220.3200,330.2325L238.6800,345.4643L257.0400,358.2376
            L275.4000,368.9868L293.7600,378.0687L312.1200,385.7760L330.4800,392.3495L348.8400,397.9867L367.2000,402.8499L385.5600,407.0726L403.9200,410.7644L422.2800,414.0154L440.6400,416.8997
            L459.0000,419.4782L477.3600,421.8012L495.7200,423.9099L514.0800,425.8383L532.4400,427.6144L550.8000,429.2614L550.8612,429.2665"/>
   <path d="M91.8000,91.8000L110.1600,128.1206L128.5200,160.7883L146.8800,190.2032L165.2400,216.7121L183.6000,240.6518L201.9600,262.3025L220.3200,281.9134L238.6800,299.7062L257.0400,315.8780
            L275.4000,330.6038L293.7600,344.0396L312.1200,356.3236L330.4800,367.5789L348.8400,377.9147L367.2000,387.4282L385.5600,396.2056L403.9200,404.3234L422.2800,411.8496L440.6400,418.8447
            L459.0000,425.3621L477.3600,431.4495L495.7200,437.1491L514.0800,442.4983L532.4400,447.5303L550.8000,452.2747L550.8612,452.2897"/>
   <path d="M91.8000,91.8000L110.1600,132.4193L128.5200,168.0661L146.8800,199.3779L165.2400,226.9041L183.6000,251.1556L201.9600,272.5529L220.3200,291.4623L238.6800,308.2027L257.0400,323.0520
            L275.4000,336.2522L293.7600,348.0140L312.1200,358.5213L330.4800,367.9341L348.8400,376.3917L367.2000,384.0156L385.5600,390.9118L403.9200,397.1724L422.2800,402.8778L440.6400,408.0982
            L459.0000,412.8945L477.3600,417.3200L495.7200,421.4212L514.0800,425.2383L532.4400,428.8068L550.8000,432.1573L550.8612,432.1678"/>
   <path d="M91.8000,91.8000L110.1600,135.1609L128.5200,172.7784L146.8800,205.4355L165.2400,233.8017L183.6000,258.4907L201.9600,280.0042L220.3200,298.7750L238.6800,315.1763L257.0400,329.5302
            L275.4000,342.1147L293.7600,353.1694L312.1200,362.9011L330.4800,371.4884L348.8400,379.0853L367.2000,385.8247L385.5600,391.8212L403.9200,397.1738L422.2800,401.9681L440.6400,406.2778
            L459.0000,410.1665L477.3600,413.6893L495.7200,416.8936L514.0800,419.8205L532.4400,422.5053L550.8000,424.9786L550.8612,424.9862"/>
   <path d="M91.8000,91.8000L110.1600,128.8097L128.5200,161.6283L146.8800,190.7440L165.2400,216.5817L183.6000,239.5458L201.9600,259.9715L220.3200,278.1544L238.6800,294.3554L257.0400,308.8047
            L275.4000,321.7055L293.7600,333.2370L312.1200,343.5575L330.4800,352.8068L348.8400,361.1081L367.2000,368.5704L385.5600,375.2898L403.9200,381.3514L422.2800,386.8300L440.6400,391.7921
            L459.0000,396.2961L477.3600,400.3938L495.7200,404.1309L514.0800,407.5479L532.4400,410.6805L550.8000,413.5603L550.8612,413.5692"/>
   <path d="M91.8000,91.8000L110.1600,130.6597L128.5200,164.9216L146.8800,195.1487L165.2400,221.8231L183.6000,245.4008L201.9600,266.2603L220.3200,284.7328L238.6800,301.1089L257.0400,315.6433
            L275.4000,328.5598L293.7600,340.0544L312.1200,350.2992L330.4800,359.4452L348.8400,367.6249L367.2000,374.9545L385.5600,381.5359L403.9200,387.4586L422.2800,392.8010L440.6400,397.6320
            L459.0000,402.0121L477.3600,405.9944L495.7200,409.6253L514.0800,412.9457L532.4400,415.9915L550.8000,418.7942L550.8612,418.8028"/>
   <path d="M91.8000,91.8000L110.1600,151.3831L128.5200,199.8012L146.8800,239.1758L165.2400,271.2394L183.6000,297.4293L201.9600,318.8649L220.3200,336.4510L238.6800,350.9193L257.0400,362.8611
            L275.4000,372.7547L293.7600,380.9868L312.1200,387.8703L330.4800,393.6581L348.8400,398.5550L367.2000,402.7269L385.5600,406.3078L403.9200,409.4065L422.2800,412.1109L440.6400,414.4925
            L459.0000,416.6090L477.3600,418.5075L495.7200,420.2259L514.0800,421.7953L532.4400,423.2408L550.8000,424.5829L550.8612,424.5870"/>
   <path d="M91.8000,91.8000L110.1600,129.2702L128.5200,162.7175L146.8800,192.6099L165.2400,219.3525L183.6000,243.3328L201.9600,264.8724L220.3200,284.2555L238.6800,301.7333L257.0400,317.5275
            L275.4000,331.8343L293.7600,344.8269L312.1200,356.6583L330.4800,367.4638L348.8400,377.3627L367.2000,386.4607L385.5600,394.8508L403.9200,402.6155L422.2800,409.8273L440.6400,416.5506
            L459.0000,422.8418L477.3600,428.7511L495.7200,434.3226L514.0800,439.5952L532.4400,444.6032L550.8000,449.3770L550.8612,449.3922"/>
   <path d="M91.8000,91.8000L110.1600,128.4625L128.5200,161.2408L146.8800,190.5709L165.2400,216.8302L183.6000,240.3829L201.9600,261.5325L220.3200,280.5478L238.6800,297.6672L257.0400,313.1022
            L275.4000,327.0403L293.7600,339.6481L312.1200,351.0729L330.4800,361.4457L348.8400,370.8825L367.2000,379.4863L385.5600,387.3484L403.9200,394.5497L422.2800,401.1620L440.6400,407.2491
            L459.0000,412.8674L477.3600,418.0670L495.7200,422.8923L514.0800,427.3829L532.4400,431.5736L550.8000,435.4955L550.8612,435.5078"/>
   <path d="M91.8000,91.8000L110.1600,136.6342L128.5200,175.3019L146.8800,208.6735L165.2400,237.4888L183.6000,262.4214L201.9600,284.0194L220.3200,302.7528L238.6800,319.0248L257.0400,333.1814
            L275.4000,345.5193L293.7600,356.2929L312.1200,365.7206L330.4800,373.9897L348.8400,381.2608L367.2000,387.6718L385.5600,393.3409L403.9200,398.3697L422.2800,402.8451L440.6400,406.8419
            L459.0000,410.4243L477.3600,413.6471L495.7200,416.5577L514.0800,419.1967L532.4400,421.5987L550.8000,423.7938L550.8612,423.8005"/>
   <path d="M91.8000,91.8000L110.1600,137.2305L128.5200,176.9475L146.8800,211.6947L165.2400,242.1008L183.6000,268.7534L201.9600,292.1330L220.3200,312.6562L238.6800,330.6852L257.0400,346.5342
            L275.4000,360.4770L293.7600,372.7514L312.1200,383.5648L330.4800,393.0980L348.8400,401.5087L367.2000,408.9347L385.5600,415.4963L403.9200,421.2989L422.2800,426.4345L440.6400,430.9839
            L459.0000,435.0177L477.3600,438.5979L495.7200,441.7788L514.0800,444.6081L532.4400,447.1277L550.8000,449.3742L550.8612,449.3809"/>
   <path d="M91.8000,91.8000L110.1600,130.4353L128.5200,164.7007L146.8800,195.1257L165.2400,222.1617L183.6000,246.2368L201.9600,267.7097L220.3200,286.8943L238.6800,304.0667L257.0400,319.4699
            L275.4000,333.3179L293.7600,345.7986L312.1200,357.0778L330.4800,367.3009L348.8400,376.5962L367.2000,385.0764L385.5600,392.8407L403.9200,399.9765L422.2800,406.5606L440.6400,412.6604
            L459.0000,418.3356L477.3600,423.6385L495.7200,428.6151L514.0800,433.3061L532.4400,437.7471L550.8000,441.9697L550.8612,441.9831"/>
   <path d="M91.8000,91.8000L110.1600,128.0909L128.5200,160.4575L146.8800,189.3461L165.2400,215.1414L183.6000,238.2152L201.9600,258.8759L220.3200,277.3966L238.6800,294.0195L257.0400,308.9589
            L275.4000,322.4049L293.7600,334.5258L312.1200,345.4707L330.4800,355.3717L348.8400,364.3460L367.2000,372.4972L385.5600,379.9172L403.9200,386.6875L422.2800,392.8801L440.6400,398.5590
            L459.0000,403.7808L477.3600,408.5956L495.7200,413.0480L514.0800,417.1773L532.4400,421.0183L550.8000,424.6020L550.8612,424.6132"/>
   <path d="M91.8000,91.8000L110.1600,142.8580L128.5200,186.0132L146.8800,222.5313L165.2400,253.4725L183.6000,279.7688L201.9600,302.1667L220.3200,321.2924L238.6800,337.6710L257.0400,351.7435
            L275.4000,363.8794L293.7600,374.3890L312.1200,383.5323L330.4800,391.5275L348.8400,398.5577L367.2000,404.7763L385.5600,410.3122L403.9200,415.2732L422.2800,419.7499L440.6400,423.8183
            L459.0000,427.5421L477.3600,430.9747L495.7200,434.1609L514.0800,437.1383L532.4400,439.9383L550.8000,442.5874L550.8612,442.5959"/>
   <path d="M91.8000,91.8000L110.1600,132.5918L128.5200,168.4199L146.8800,199.9184L165.2400,227.6298L183.6000,252.0624L201.9600,273.6344L220.3200,292.7105L238.6800,309.6087L257.0400,324.6062
            L275.4000,337.9449L293.7600,349.8355L312.1200,360.4619L330.4800,369.9842L348.8400,378.5423L367.2000,386.2580L385.5600,393.2373L403.9200,399.5730L422.2800,405.3458L440.6400,410.6258
            L459.0000,415.4746L477.3600,419.9455L495.7200,424.0851L514.0800,427.9340L532.4400,431.5276L550.8000,434.8967L550.8612,434.9072"/>
   <path d="M91.8000,91.8000L110.1600,125.0881L128.5200,155.1034L146.8800,182.1830L165.2400,206.6228L183.6000,228.7128L201.9600,248.6951L220.3200,266.7868L238.6800,283.1824L257.0400,298.0561
            L275.4000,311.5640L293.7600,323.8461L312.1200,335.0279L330.4800,345.2218L348.8400,354.5287L367.2000,363.0389L385.5600,370.8336L403.9200,377.9853L422.2800,384.5594L440.6400,390.6142
            L459.0000,396.2022L477.3600,401.3703L495.7200,406.1610L514.0800,410.6118L532.4400,414.7569L550.8000,418.6267L550.8612,418.6388"/>
   <path d="M91.8000,91.8000L110.1600,133.2741L128.5200,169.6083L146.8800,201.4648L165.2400,229.4202L183.6000,254.0058L201.9600,275.6589L220.3200,294.7599L238.6800,311.6395L257.0400,326.5855
            L275.4000,339.8480L293.7600,351.6448L312.1200,362.1653L330.4800,371.5745L348.8400,380.0156L367.2000,387.6137L385.5600,394.4772L403.9200,400.7010L422.2800,406.3672L440.6400,411.5477
            L459.0000,416.3048L477.3600,420.6930L495.7200,424.7596L514.0800,428.5458L532.4400,432.0877L550.8000,435.4166L550.8612,435.4271"/>
   <path d="M91.8000,91.8000L110.1600,133.2655L128.5200,169.6930L146.8800,201.7288L165.2400,229.9241L183.6000,254.7963L201.9600,276.7705L220.3200,296.2175L238.6800,313.4602L257.0400,328.7802
            L275.4000,342.4227L293.7600,354.6016L312.1200,365.5031L330.4800,375.2895L348.8400,384.1022L367.2000,392.0642L385.5600,399.2829L403.9200,405.8517L422.2800,411.8518L440.6400,417.3542
            L459.0000,422.4205L477.3600,427.1043L495.7200,431.4525L514.0800,435.5056L532.4400,439.2989L550.8000,442.8634L550.8612,442.8746"/>
   <path d="M91.8000,91.8000L110.1600,134.8704L128.5200,172.4241L146.8800,205.2008L165.2400,233.8424L183.6000,258.9338L201.9600,280.9553L220.3200,300.3218L238.6800,317.3925L257.0400,332.4779
            L275.4000,345.8465L293.7600,357.7309L312.1200,368.3320L330.4800,377.8239L348.8400,386.3570L367.2000,394.0617L385.5600,401.0508L403.9200,407.4219L422.2800,413.2595L440.6400,418.6369
            L459.0000,423.6175L477.3600,428.2561L495.7200,432.6004L514.0800,436.6915L532.4400,440.5652L550.8000,444.2524L550.8612,444.2642"/>
   <path d="M91.8000,91.8000L110.1600,135.2045L128.5200,172.8304L146.8800,205.4669L165.2400,233.7945L183.6000,258.4324L201.9600,279.8868L220.3200,298.5941L238.6800,314.9302L257.0400,329.2191
            L275.4000,341.7403L293.7600,352.7345L312.1200,362.4093L330.4800,370.9439L348.8400,378.4925L367.2000,385.1884L385.5600,391.1465L403.9200,396.4657L422.2800,401.2316L440.6400,405.5180
            L459.0000,409.3885L477.3600,412.8981L495.7200,416.0942L514.0800,419.0177L532.4400,421.7041L550.8000,424.1839L550.8612,424.1916"/>
   <path d="M91.8000,91.8000L110.1600,125.6704L128.5200,156.0923L146.8800,183.4317L165.2400,208.0058L183.6000,230.1257L201.9600,250.0507L220.3200,268.0125L238.6800,284.2179L257.0400,298.8518
            L275.4000,312.0792L293.7600,324.0478L312.1200,334.8893L330.4800,344.7216L348.8400,353.6498L367.2000,361.7681L385.5600,369.1605L403.9200,375.9020L422.2800,382.0599L440.6400,387.6941
            L459.0000,392.8583L477.3600,397.6003L495.7200,401.9630L514.0800,405.9848L532.4400,409.6999L550.8000,413.1388L550.8612,413.1494"/>
   <path d="M91.8000,91.8000L110.1600,129.9325L128.5200,163.6742L146.8800,193.5475L165.2400,220.0082L183.6000,243.4864L201.9600,264.3382L220.3200,282.8767L238.6800,299.3776L257.0400,314.0833
            L275.4000,327.2070L293.7600,338.9366L312.1200,349.4371L330.4800,358.8540L348.8400,367.3151L367.2000,374.9332L385.5600,381.8074L403.9200,388.0249L422.2800,393.6628L440.6400,398.7885
            L459.0000,403.4619L477.3600,407.7353L495.7200,411.6550L514.0800,415.2617L532.4400,418.5914L550.8000,421.6756L550.8612,421.6851"/>
   <path d="M91.8000,91.8000L110.1600,134.9627L128.5200,172.6439L146.8800,205.5742L165.2400,234.3769L183.6000,259.6299L201.9600,281.8060L220.3200,301.3148L238.6800,318.5113L257.0400,333.7027
            L275.4000,347.1549L293.7600,359.0984L312.1200,369.7326L330.4800,379.2301L348.8400,387.7405L367.2000,395.3930L385.5600,402.2997L403.9200,408.5574L422.2800,414.2499L440.6400,419.4498
            L459.0000,424.2197L477.3600,428.6140L495.7200,432.6794L514.0800,436.4566L532.4400,439.9805L550.8000,443.2816L550.8612,443.2919"/>
   <path d="M91.8000,91.8000L110.1600,127.7658L128.5200,159.9785L146.8800,188.8540L165.2400,214.7502L183.6000,238.0145L201.9600,258.9376L220.3200,277.7769L238.6800,294.7617L257.0400,310.0955
            L275.4000,323.9596L293.7600,336.5148L312.1200,347.9043L330.4800,358.2553L348.8400,367.6809L367.2000,376.2817L385.5600,384.1468L403.9200,391.3558L422.2800,397.9792L440.6400,404.0797
            L459.0000,409.7130L477.3600,414.9285L495.7200,419.7703L514.0800,424.2774L532.4400,428.4845L550.8000,432.4224L550.8612,432.4347"/>
   <path d="M91.8000,91.8000L110.1600,124.5723L128.5200,154.2599L146.8800,181.1740L165.2400,205.5868L183.6000,227.7679L201.9600,247.9425L220.3200,266.3133L238.6800,283.0623L257.0400,298.3532
            L275.4000,312.3332L293.7600,325.1347L312.1200,336.8766L330.4800,347.6659L348.8400,357.5988L367.2000,366.7618L385.5600,375.2328L403.9200,383.0816L422.2800,390.3712L440.6400,397.1582
            L459.0000,403.4935L477.3600,409.4229L495.7200,414.9876L514.0800,420.2245L532.4400,425.1671L550.8000,429.8452L550.8612,429.8600"/>
   <path d="M91.8000,91.8000L110.1600,140.8152L128.5200,182.3871L146.8800,217.6687L165.2400,247.6349L183.6000,273.1459L201.9600,294.8942L220.3200,313.4637L238.6800,329.3472L257.0400,342.9604
            L275.4000,354.6540L293.7600,364.7239L312.1200,373.4197L330.4800,380.9522L348.8400,387.4992L367.2000,393.2108L385.5600,398.2137L403.9200,402.6148L422.2800,406.5044L440.6400,409.9590
            L459.0000,413.0428L477.3600,415.8102L495.7200,418.3074L514.0800,420.5731L532.4400,422.6402L550.8000,424.5364L550.8612,424.5422"/>
   <path d="M91.8000,91.8000L110.1600,148.6582L128.5200,196.0070L146.8800,235.5136L165.2400,268.5541L183.6000,296.3053L201.9600,319.6953L220.3200,339.4883L238.6800,356.3128L257.0400,370.6860
            L275.4000,383.0330L293.7600,393.7036L312.1200,402.9852L330.4800,411.1141L348.8400,418.2843L367.2000,424.6554L385.5600,430.3585L403.9200,435.5013L422.2800,440.1723L440.6400,444.4442
            L459.0000,448.3767L477.3600,452.0190L495.7200,455.4116L514.0800,458.5878L532.4400,461.5750L550.8000,464.3960L550.8612,464.4049"/>
   <path d="M91.8000,91.8000L110.1600,139.2440L128.5200,179.8391L146.8800,214.6061L165.2400,244.4015L183.6000,269.9989L201.9600,292.0230L220.3200,311.0051L238.6800,327.3972L257.0400,341.5835
            L275.4000,353.8908L293.7600,364.5968L312.1200,373.9378L330.4800,382.1147L348.8400,389.2983L367.2000,395.6338L385.5600,401.2447L403.9200,406.2360L422.2800,410.6970L440.6400,414.7035
            L459.0000,418.3203L477.3600,421.6023L495.7200,424.5962L514.0800,427.3418L532.4400,429.8730L550.8000,432.2187L550.8612,432.2260"/>
   <path d="M91.8000,91.8000L110.1600,144.6743L128.5200,189.0875L146.8800,226.4422L165.2400,257.9133L183.6000,284.5180L201.9600,307.0675L220.3200,326.2376L238.6800,342.5910L257.0400,356.5969
            L275.4000,368.6457L293.7600,379.0630L312.1200,388.1197L330.4800,396.0417L348.8400,403.0172L367.2000,409.2030L385.5600,414.7296L403.9200,419.7061L422.2800,424.2230L440.6400,428.3561
            L459.0000,432.1684L477.3600,435.7124L495.7200,439.0320L514.0800,442.1638L532.4400,445.1382L550.8000,447.9807L550.8612,447.9898"/>
   <path d="M91.8000,91.8000L110.1600,132.8490L128.5200,168.9058L146.8800,200.6115L165.2400,228.5102L183.6000,253.1141L201.9600,274.8440L220.3200,294.0669L238.6800,311.1029L257.0400,326.2308
            L275.4000,339.6939L293.7600,351.7041L312.1200,362.4462L330.4800,372.0811L348.8400,380.7492L367.2000,388.5728L385.5600,395.6583L403.9200,402.0987L422.2800,407.9747L440.6400,413.3569
            L459.0000,418.3066L477.3600,422.8771L495.7200,427.1150L514.0800,431.0608L532.4400,434.7497L550.8000,438.2123L550.8612,438.2232"/>
   <path d="M91.8000,91.8000L110.1600,132.7228L128.5200,168.5126L146.8800,199.8309L165.2400,227.2497L183.6000,251.2984L201.9600,272.4127L220.3200,290.9710L238.6800,307.3028L257.0400,321.6943
            L275.4000,334.3947L293.7600,345.6207L312.1200,355.5610L330.4800,364.3794L348.8400,372.2188L367.2000,379.2034L385.5600,385.4412L403.9200,391.0263L422.2800,396.0407L440.6400,400.5556
            L459.0000,404.6331L477.3600,408.3273L495.7200,411.6852L514.0800,414.7478L532.4400,417.5508L550.8000,420.1254L550.8612,420.1333"/>
   <path d="M91.8000,91.8000L110.1600,149.4711L128.5200,196.8853L146.8800,235.9197L165.2400,268.1157L183.6000,294.7710L201.9600,316.9036L220.3200,335.3439L238.6800,350.7694L257.0400,363.7330
            L275.4000,374.6855L293.7600,383.9949L312.1200,391.9614L330.4800,398.8297L348.8400,404.7998L367.2000,410.0346L385.5600,414.6673L403.9200,418.8063L422.2800,422.5402L440.6400,425.9415
            L459.0000,429.0690L477.3600,431.9711L495.7200,434.6870L514.0800,437.2489L532.4400,439.6829L550.8000,442.0106L550.8612,442.0180"/>
   <path d="M91.8000,91.8000L110.1600,129.8684L128.5200,163.5768L146.8800,193.4424L165.2400,219.9135L183.6000,243.4156L201.9600,264.3011L220.3200,282.8800L238.6800,299.4254L257.0400,314.1775
            L275.4000,327.3479L293.7600,339.1229L312.1200,349.6664L330.4800,359.1230L348.8400,367.6196L367.2000,375.2684L385.5600,382.1678L403.9200,388.4048L422.2800,394.0558L440.6400,399.1881
            L459.0000,403.8611L477.3600,408.1271L495.7200,412.0320L514.0800,415.6164L532.4400,418.9161L550.8000,421.9625L550.8612,421.9719"/>
   <path d="M91.8000,91.8000L110.1600,123.2785L128.5200,151.9561L146.8800,178.1031L165.2400,201.9582L183.6000,223.7585L201.9600,243.7032L220.3200,261.9720L238.6800,278.7276L257.0400,294.1166
            L275.4000,308.2718L293.7600,321.3129L312.1200,333.3485L330.4800,344.4764L348.8400,354.7851L367.2000,364.3548L385.5600,373.2578L403.9200,381.5595L422.2800,389.3191L440.6400,396.5902
            L459.0000,403.4212L477.3600,409.8558L495.7200,415.9337L514.0800,421.6906L532.4400,427.1591L550.8000,432.3683L550.8612,432.3849"/>
   <path d="M91.8000,91.8000L110.1600,130.9936L128.5200,165.6406L146.8800,196.2983L165.2400,223.4437L183.6000,247.5292L201.9600,268.9283L220.3200,287.9685L238.6800,304.9369L257.0400,320.0857
            L275.4000,333.6356L293.7600,345.7805L312.1200,356.6903L330.4800,366.5140L348.8400,375.3823L367.2000,383.4096L385.5600,390.6964L403.9200,397.3308L422.2800,403.3899L440.6400,408.9414
            L459.0000,414.0446L477.3600,418.7514L495.7200,423.1074L514.0800,427.1525L532.4400,430.9217L550.8000,434.4455L550.8612,434.4565"/>
   <path d="M91.8000,91.8000L110.1600,126.1234L128.5200,157.0596L146.8800,184.9614L165.2400,210.1403L183.6000,232.8993L201.9600,253.4915L220.3200,272.1429L238.6800,289.0559L257.0400,304.4113
            L275.4000,318.3709L293.7600,331.0793L312.1200,342.6660L330.4800,353.2468L348.8400,362.9252L367.2000,371.7938L385.5600,379.9357L403.9200,387.4250L422.2800,394.3281L440.6400,400.7044
            L459.0000,406.6071L477.3600,412.0837L495.7200,417.1770L514.0800,421.9249L532.4400,426.3617L550.8000,430.5179L550.8612,430.5309"/>
   <path d="M91.8000,91.8000L110.1600,131.9749L128.5200,167.1414L146.8800,197.9381L165.2400,224.9130L183.6000,248.5793L201.9600,269.3586L220.3200,287.6185L238.6800,303.6793L257.0400,317.8202
            L275.4000,330.2848L293.7600,341.2852L312.1200,351.0063L330.4800,359.6097L348.8400,367.2358L367.2000,374.0074L385.5600,380.0314L403.9200,385.4011L422.2800,390.1980L440.6400,394.4931
            L459.0000,398.3484L477.3600,401.8178L495.7200,404.9488L514.0800,407.7824L532.4400,410.3547L550.8000,412.6971L550.8612,412.7042"/>
   <path d="M91.8000,91.8000L110.1600,124.5127L128.5200,154.1430L146.8800,181.0016L165.2400,205.3610L183.6000,227.4907L201.9600,247.6159L220.3200,265.9391L238.6800,282.6424L257.0400,297.8894
            L275.4000,311.8272L293.7600,324.5880L312.1200,336.2907L330.4800,347.0422L348.8400,356.9387L367.2000,366.0664L385.5600,374.5033L403.9200,382.3192L422.2800,389.5769L440.6400,396.3329
            L459.0000,402.6382L477.3600,408.5385L495.7200,414.0748L514.0800,419.2843L532.4400,424.2003L550.8000,428.8526L550.8612,428.8673"/>
   <path d="M91.8000,91.8000L110.1600,124.4105L128.5200,153.8992L146.8800,180.5812L165.2400,204.7320L183.6000,226.6236L201.9600,246.4837L220.3200,264.5167L238.6800,280.9063L257.0400,295.8175
            L275.4000,309.3986L293.7600,321.7830L312.1200,333.0904L330.4800,343.4285L348.8400,352.8941L367.2000,361.5741L385.5600,369.5468L403.9200,376.8824L422.2800,383.6441L440.6400,389.8889
            L459.0000,395.6676L477.3600,401.0264L495.7200,406.0065L514.0800,410.6451L532.4400,414.9755L550.8000,419.0278L550.8612,419.0405"/>
   <path d="M91.8000,91.8000L550.8000,91.8000"/>
   <path d="M91.8000,550.8000L550.8000,550.8000"/>
   <path d="M183.6000,91.8000L183.6000,104.0400"/>
   <path d="M183.6000,550.8000L183.6000,538.5600"/>
   <path d="M367.2000,91.8000L367.2000,104.0400"/>
   <path d="M367.2000,550.8000L367.2000,538.5600"/>
   <path d="M550.8000,91.8000L550.8000,104.0400"/>
   <path d="M550.8000,550.8000L550.8000,538.5600"/>
  </g>
  <g style="fill:#000000; fill-rule:nonzero">
   <text   style="font-family:'Times','Nimbus Roman'; font-style:normal; font-weight:normal; font-size:612.0000" transform="matrix(0.0280,0.0000,-0.0000,-0.0280,168.1000,73.6800)">-160</text>
   <text   style="font-family:'Times','Nimbus Roman'; font-style:normal; font-weight:normal; font-size:612.0000" transform="matrix(0.0280,0.0000,-0.0000,-0.0280,351.7000,73.6800)">-140</text>
   <text   style="font-family:'Times','Nimbus Roman'; font-style:normal; font-weight:normal; font-size:612.0000" transform="matrix(0.0280,0.0000,-0.0000,-0.0280,535.3000,73.6800)">-120</text>
  </g>
  <g style="fill:none; stroke:#000000; stroke-width:  0.9180; stroke-linecap:butt; stroke-linejoin:miter; stroke-dasharray:none">
   <path d="M91.8000,91.8000L91.8000,550.8000"/>
   <path d="M550.8000,91.8000L550.8000,550.8000"/>
   <path d="M91.8000,91.8000L104.0400,91.8000"/>
   <path d="M550.8000,91.8000L538.5600,91.8000"/>
   <path d="M91.8000,244.8000L104.0400,244.8000"/>
   <path d="M550.8000,244.8000L538.5600,244.8000"/>
   <path d="M91.8000,397.8000L104.0400,397.8000"/>
   <path d="M550.8000,397.8000L538.5600,397.8000"/>
   <path d="M91.8000,550.8000L104.0400,550.8000"/>
   <path d="M550.8000,550.8000L538.5600,550.8000"/>
  </g>
  <g style="fill:#000000; fill-rule:nonzero">
   <text   style="font-family:'Times','Nimbus Roman'; font-style:normal; font-weight:normal; font-size:612.0000" transform="matrix(0.0280,0.0000,-0.0000,-0.0280,77.6800,85.8000)">0</text>
   <text   style="font-family:'Times','Nimbus Roman'; font-style:normal; font-weight:normal; font-size:612.0000" transform="matrix(0.0280,0.0000,-0.0000,-0.0280,64.6800,238.8000)">0.5</text>
   <text   style="font-family:'Times','Nimbus Roman'; font-style:normal; font-weight:normal; font-size:612.0000" transform="matrix(0.0280,0.0000,-0.0000,-0.0280,78.6800,391.8000)">1</text>
   <text   style="font-family:'Times','Nimbus Roman'; font-style:normal; font-weight:normal; font-size:612.0000" transform="matrix(0.0280,0.0000,-0.0000,-0.0280,64.6800,544.8000)">1.5</text>
  </g>
  <g style="fill:none; stroke:#000000; stroke-width:  0.9180; stroke-linecap:butt; stroke-linejoin:miter; stroke-dasharray:none">
   <path d="M91.8000,91.8000L91.8000,550.8000L550.8000,550.8000L550.8000,91.8000z"/>
  </g>
 </g>
</svg>
