<?xml version="1.0" encoding="ISO-8859-1"?>
<!DOCTYPE svg PUBLIC "-//W3C//DTD SVG 1.0//EN" "http://www.w3.org/TR/2001/REC-SVG-20010904/DTD/svg10.dtd">
<!-- generated by Grace-5.1.25 -->
<svg xml:space="preserve" width="11.0000in" height="8.5000in" viewBox="0.0000 0.0000 792.0000 612.0000">
 <g transform="translate(0,612.0000) scale(1,-1)">
  <g style="fill:#FFFFFF; fill-rule:nonzero">
   <path  d="M0.0000,0.0000L0.0000,612.0000L792.0000,612.0000L792.0000,0.0000z"/>
  </g>
  <g style="fill:none; stroke:#000000; stroke-width:  0.9180; stroke-linecap:butt; stroke-linejoin:miter; stroke-dasharray:none">
   <path d="M91.8000,91.8000L110.1600,128.5563L128.5200,161.4940L146.8800,191.0446L165.2400,217.5848L183.6000,241.4772L201.9600,263.0237L220.3200,282.4918L238.6800,300.1192L257.0400,316.1171
            L275.4000,330.6727L293.7600,343.9523L312.1200,356.1036L330.4800,367.2577L348.8400,377.5312L367.2000,387.0275L385.5600,395.8385L403.9200,404.0459L422.2800,411.7222L440.6400,418.9320
            L459.0000,425.7325L477.3600,432.1749L495.7200,438.3044L514.0800,444.1614L532.4400,449.7819L550.8000,455.1977L550.8612,455.2152"/>
   <path d="M91.8000,91.8000L110.1600,130.6773L128.5200,165.2719L146.8800,196.0930L165.2400,223.5819L183.6000,248.1589L201.9600,270.1724L220.3200,289.9294L238.6800,307.7003L257.0400,323.7235
            L275.4000,338.2092L293.7600,351.3425L312.1200,363.2866L330.4800,374.1854L348.8400,384.1657L367.2000,393.3391L385.5600,401.8043L403.9200,409.6479L422.2800,416.9465L440.6400,423.7677
            L459.0000,430.1707L477.3600,436.2081L495.7200,441.9260L514.0800,447.3653L532.4400,452.5618L550.8000,457.5472L550.8612,457.5632"/>
   <path d="M91.8000,91.8000L110.1600,136.4850L128.5200,175.2577L146.8800,208.9392L165.2400,238.2264L183.6000,263.7594L201.9600,286.0600L220.3200,305.5771L238.6800,322.6973L257.0400,337.7532
            L275.4000,351.0310L293.7600,362.7771L312.1200,373.2033L330.4800,382.4922L348.8400,390.8006L367.2000,398.2634L385.5600,404.9969L403.9200,411.1009L422.2800,416.6613L440.6400,421.7521
            L459.0000,426.4369L477.3600,430.7702L495.7200,434.7992L514.0800,438.5642L532.4400,442.1000L550.8000,445.4365L550.8612,445.4471"/>
   <path d="M91.8000,91.8000L110.1600,134.3613L128.5200,171.6445L146.8800,204.3494L165.2400,233.0744L183.6000,258.3747L201.9600,280.7057L220.3200,300.4626L238.6800,317.9882L257.0400,333.5799
            L275.4000,347.4958L293.7600,359.9598L312.1200,371.1660L330.4800,381.2830L348.8400,390.4570L367.2000,398.8147L385.5600,406.4662L403.9200,413.5070L422.2800,420.0197L440.6400,426.0762
            L459.0000,431.7388L477.3600,437.0616L495.7200,442.0914L514.0800,446.8688L532.4400,451.4292L550.8000,455.8031L550.8612,455.8172"/>
   <path d="M91.8000,91.8000L110.1600,121.1404L128.5200,148.1242L146.8800,172.9587L165.2400,195.8265L183.6000,216.9117L201.9600,236.3718L220.3200,254.3493L238.6800,270.9742L257.0400,286.3649
            L275.4000,300.6293L293.7600,313.8659L312.1200,326.1642L330.4800,337.6061L348.8400,348.2661L367.2000,358.2121L385.5600,367.5062L403.9200,376.2047L422.2800,384.3592L440.6400,392.0164
            L459.0000,399.2193L477.3600,406.0068L495.7200,412.4144L514.0800,418.4745L532.4400,424.2165L550.8000,429.6675L550.8612,429.6848"/>
   <path d="M91.8000,91.8000L110.1600,133.3895L128.5200,170.0915L146.8800,202.5240L165.2400,231.2248L183.6000,256.6947L201.9600,279.3462L220.3200,299.5398L238.6800,317.5901L257.0400,333.7716
            L275.4000,348.3244L293.7600,361.4578L312.1200,373.3547L330.4800,384.1749L348.8400,394.0578L367.2000,403.1254L385.5600,411.4839L403.9200,419.2263L422.2800,426.4340L440.6400,433.1777
            L459.0000,439.5196L477.3600,445.5137L495.7200,451.2074L514.0800,456.6422L532.4400,461.8542L550.8000,466.8749L550.8612,466.8911"/>
   <path d="M91.8000,91.8000L110.1600,132.0556L128.5200,167.5945L146.8800,199.0017L165.2400,226.7888L183.6000,251.4327L201.9600,273.3273L220.3200,292.8174L238.6800,310.2048L257.0400,325.7537
            L275.4000,339.6952L293.7600,352.2318L312.1200,363.5408L330.4800,373.7773L348.8400,383.0773L367.2000,391.5599L385.5600,399.3292L403.9200,406.4767L422.2800,413.0823L440.6400,419.2163
            L459.0000,424.9402L477.3600,430.3077L495.7200,435.3661L514.0800,440.1569L532.4400,444.7165L550.8000,449.0766L550.8612,449.0906"/>
   <path d="M91.8000,91.8000L110.1600,130.3086L128.5200,164.6032L146.8800,195.1793L165.2400,222.4713L183.6000,246.8907L201.9600,268.7788L220.3200,288.4367L238.6800,306.1299L257.0400,322.0928
            L275.4000,336.5319L293.7600,349.6297L312.1200,361.5471L330.4800,372.4262L348.8400,382.3921L367.2000,391.5556L385.5600,400.0142L403.9200,407.8543L422.2800,415.1517L440.6400,421.9739
            L459.0000,428.3800L477.3600,434.4226L495.7200,440.1480L514.0800,445.5970L532.4400,450.8059L550.8000,455.8065L550.8612,455.8226"/>
   <path d="M91.8000,91.8000L110.1600,138.1253L128.5200,178.0973L146.8800,212.6368L165.2400,242.5224L183.6000,268.4603L201.9600,291.0238L220.3200,310.7026L238.6800,327.9157L257.0400,343.0211
            L275.4000,356.3248L293.7600,368.0883L312.1200,378.5352L330.4800,387.8565L348.8400,396.2155L367.2000,403.7516L385.5600,410.5841L403.9200,416.8148L422.2800,422.5307L440.6400,427.8063
            L459.0000,432.7050L477.3600,437.2810L495.7200,441.5808L514.0800,445.6439L532.4400,449.5040L550.8000,453.1902L550.8612,453.2020"/>
   <path d="M91.8000,91.8000L110.1600,134.9413L128.5200,172.6038L146.8800,205.5241L165.2400,234.3374L183.6000,259.6262L201.9600,281.8675L220.3200,301.4743L238.6800,318.8033L257.0400,334.1633
            L275.4000,347.8214L293.7600,360.0084L312.1200,370.9243L330.4800,380.7418L348.8400,389.6105L367.2000,397.6597L385.5600,405.0014L403.9200,411.7325L422.2800,417.9368L440.6400,423.6868
            L459.0000,429.0455L477.3600,434.0672L495.7200,438.7989L514.0800,443.2815L532.4400,447.5503L550.8000,451.6359L550.8612,451.6490"/>
   <path d="M91.8000,91.8000L110.1600,134.6583L128.5200,172.0193L146.8800,204.6158L165.2400,233.0819L183.6000,257.9993L201.9600,279.8445L220.3200,299.0299L238.6800,315.9124L257.0400,330.8007
            L275.4000,343.9624L293.7600,355.6286L312.1200,365.9997L330.4800,375.2490L348.8400,383.5267L367.2000,390.9627L385.5600,397.6695L403.9200,403.7445L422.2800,409.2722L440.6400,414.3257
            L459.0000,418.9682L477.3600,423.2546L495.7200,427.2324L514.0800,430.9429L532.4400,434.4217L550.8000,437.6998L550.8612,437.7101"/>
   <path d="M91.8000,91.8000L110.1600,135.3266L128.5200,173.3290L146.8800,206.5470L165.2400,235.6203L183.6000,261.1351L201.9600,283.5721L220.3200,303.3466L238.6800,320.8184L257.0400,336.2986
            L275.4000,350.0561L293.7600,362.3240L312.1200,373.3035L330.4800,383.1692L348.8400,392.0716L367.2000,400.1415L385.5600,407.4917L403.9200,414.2199L422.2800,420.4108L440.6400,426.1375
            L459.0000,431.4635L477.3600,436.4436L495.7200,441.1253L514.0800,445.5498L532.4400,449.7525L550.8000,453.7645L550.8612,453.7773"/>
   <path d="M91.8000,91.8000L110.1600,128.8698L128.5200,162.0514L146.8800,191.7901L165.2400,218.4733L183.6000,242.4729L201.9600,264.0979L220.3200,283.6218L238.6800,301.2871L257.0400,317.3086
            L275.4000,331.8765L293.7600,345.1593L312.1200,357.3064L330.4800,368.4500L348.8400,378.7074L367.2000,388.1825L385.5600,396.9673L403.9200,405.1433L422.2800,412.7828L440.6400,419.9500
            L459.0000,426.7015L477.3600,433.0878L495.7200,439.1533L514.0800,444.9378L532.4400,450.4762L550.8000,455.7997L550.8612,455.8168"/>
   <path d="M91.8000,91.8000L110.1600,132.1719L128.5200,167.8539L146.8800,199.4362L165.2400,227.4325L183.6000,252.3204L201.9600,274.4947L220.3200,294.3001L238.6800,312.0383L257.0400,327.9728
            L275.4000,342.3341L293.7600,355.3237L312.1200,367.1178L330.4800,377.8704L348.8400,387.7165L367.2000,396.7740L385.5600,405.1460L403.9200,412.9228L422.2800,420.1836L440.6400,426.9974
            L459.0000,433.4250L477.3600,439.5195L495.7200,445.3272L514.0800,450.8891L532.4400,456.2408L550.8000,461.4138L550.8612,461.4305"/>
   <path d="M91.8000,91.8000L110.1600,136.1717L128.5200,174.8664L146.8800,208.6651L165.2400,238.2383L183.6000,264.1979L201.9600,287.0444L220.3200,307.2093L238.6800,325.0646L257.0400,340.9312
            L275.4000,355.0855L293.7600,367.7661L312.1200,379.1786L330.4800,389.5002L348.8400,398.8838L367.2000,407.4613L385.5600,415.3462L403.9200,422.6367L422.2800,429.4173L440.6400,435.7608
            L459.0000,441.7302L477.3600,447.3798L495.7200,452.7563L514.0800,457.9000L532.4400,462.8458L550.8000,467.6238L550.8612,467.6393"/>
   <path d="M91.8000,91.8000L110.1600,135.5486L128.5200,173.5661L146.8800,206.6340L165.2400,235.4223L183.6000,260.5452L201.9600,282.5045L220.3200,301.7329L238.6800,318.6040L257.0400,333.4398
            L275.4000,346.5182L293.7600,358.0791L312.1200,368.3291L330.4800,377.4468L348.8400,385.5862L367.2000,392.8801L385.5600,399.4431L403.9200,405.3742L422.2800,410.7589L440.6400,415.6707
            L459.0000,420.1734L477.3600,424.3218L495.7200,428.1634L514.0800,431.7392L532.4400,435.0845L550.8000,438.2299L550.8612,438.2398"/>
   <path d="M91.8000,91.8000L110.1600,131.8008L128.5200,167.2168L146.8800,198.6055L165.2400,226.4550L183.6000,251.2219L201.9600,273.2839L220.3200,292.9721L238.6800,310.5770L257.0400,326.3535
            L275.4000,340.5252L293.7600,353.2879L312.1200,364.8138L330.4800,375.2536L348.8400,384.7398L367.2000,393.3883L385.5600,401.3011L403.9200,408.5675L422.2800,415.2659L440.6400,421.4649
            L459.0000,427.2249L477.3600,432.5989L495.7200,437.6331L514.0800,442.3683L532.4400,446.8402L550.8000,451.0800L550.8612,451.0935"/>
   <path d="M91.8000,91.8000L110.1600,132.5951L128.5200,168.6227L146.8800,200.4756L165.2400,228.6707L183.6000,253.6904L201.9600,275.9331L220.3200,295.7470L238.6800,313.4367L257.0400,329.2686
            L275.4000,343.4758L293.7600,356.2621L312.1200,367.8059L330.4800,378.2631L348.8400,387.7701L367.2000,396.4463L385.5600,404.3960L403.9200,411.7106L422.2800,418.4700L440.6400,424.7439
            L459.0000,430.5935L477.3600,436.0723L495.7200,441.2270L514.0800,446.0985L532.4400,450.7225L550.8000,455.1304L550.8612,455.1445"/>
   <path d="M91.8000,91.8000L110.1600,131.4819L128.5200,166.6648L146.8800,197.9017L165.2400,225.6664L183.6000,250.4080L201.9600,272.4986L220.3200,292.2647L238.6800,309.9926L257.0400,325.9337
            L275.4000,340.3087L293.7600,353.3112L312.1200,365.1113L330.4800,375.8582L348.8400,385.6827L367.2000,394.6998L385.5600,403.0102L403.9200,410.7026L422.2800,417.8544L440.6400,424.5339
            L459.0000,430.8006L477.3600,436.7072L495.7200,442.2994L514.0800,447.6177L532.4400,452.6973L550.8000,457.5694L550.8612,457.5850"/>
   <path d="M91.8000,91.8000L110.1600,134.9847L128.5200,172.6946L146.8800,205.6647L165.2400,234.5263L183.6000,259.8609L201.9600,282.1448L220.3200,301.7901L238.6800,319.1535L257.0400,334.5435
            L275.4000,348.2272L293.7600,360.4357L312.1200,371.3690L330.4800,381.2002L348.8400,390.0791L367.2000,398.1353L385.5600,405.4810L403.9200,412.2134L422.2800,418.4165L440.6400,424.1631
            L459.0000,429.5162L477.3600,434.5305L495.7200,439.2531L514.0800,443.7250L532.4400,447.9816L550.8000,452.0536L550.8612,452.0667"/>
   <path d="M91.8000,91.8000L110.1600,135.1658L128.5200,173.0730L146.8800,206.2493L165.2400,235.3203L183.6000,260.8637L201.9600,283.3525L220.3200,303.1964L238.6800,320.7505L257.0400,336.3220
            L275.4000,350.1772L293.7600,362.5467L312.1200,373.6303L330.4800,383.6008L348.8400,392.6082L367.2000,400.7821L385.5600,408.2350L403.9200,415.0642L422.2800,421.3540L440.6400,427.1775
            L459.0000,432.5979L477.3600,437.6701L495.7200,442.4415L514.0800,446.9532L532.4400,451.2410L550.8000,455.3356L550.8612,455.3487"/>
   <path d="M91.8000,91.8000L110.1600,142.5089L128.5200,185.3836L146.8800,221.6710L165.2400,252.4220L183.6000,278.5568L201.9600,300.8134L220.3200,319.8112L238.6800,336.0700L257.0400,350.0261
            L275.4000,362.0457L293.7600,372.4364L312.1200,381.4559L330.4800,389.3211L348.8400,396.2137L367.2000,402.2863L385.5600,407.6672L403.9200,412.4639L422.2800,416.7668L440.6400,420.6519
            L459.0000,424.1827L477.3600,427.4130L495.7200,430.3876L514.0800,433.1443L532.4400,435.7149L550.8000,438.1261L550.8612,438.1337"/>
   <path d="M91.8000,91.8000L110.1600,140.1197L128.5200,181.4992L146.8800,216.9791L165.2400,247.4460L183.6000,273.6884L201.9600,296.3441L220.3200,315.9545L238.6800,332.9791L257.0400,347.8079
            L275.4000,360.7721L293.7600,372.1529L312.1200,382.1887L330.4800,391.0824L348.8400,399.0058L367.2000,406.1050L385.5600,412.5042L403.9200,418.3086L422.2800,423.6077L440.6400,428.4776
            L459.0000,432.9829L477.3600,437.1783L495.7200,441.1105L514.0800,444.8192L532.4400,448.3380L550.8000,451.6956L550.8612,451.7064"/>
   <path d="M91.8000,91.8000L110.1600,130.7778L128.5200,165.4350L146.8800,196.2967L165.2400,223.8120L183.6000,248.4098L201.9600,270.4445L220.3200,290.2279L238.6800,308.0346L257.0400,324.1058
            L275.4000,338.6539L293.7600,351.8656L312.1200,363.9052L330.4800,374.9174L348.8400,385.0291L367.2000,394.3523L385.5600,402.9853L403.9200,411.0146L422.2800,418.5165L440.6400,425.5579
            L459.0000,432.1977L477.3600,438.4878L495.7200,444.4738L514.0800,450.1957L532.4400,455.6890L550.8000,460.9847L550.8612,461.0018"/>
   <path d="M91.8000,91.8000L110.1600,136.5720L128.5200,175.4249L146.8800,209.1803L165.2400,238.5401L183.6000,264.1466L201.9600,286.5234L220.3200,306.1211L238.6800,323.3276L257.0400,338.4765
            L275.4000,351.8550L293.7600,363.7104L312.1200,374.2552L330.4800,383.6726L348.8400,392.1200L367.2000,399.7330L385.5600,406.6282L403.9200,412.9061L422.2800,418.6530L440.6400,423.9434
            L459.0000,428.8412L477.3600,433.4015L495.7200,437.6718L514.0800,441.6930L532.4400,445.5002L550.8000,449.1237L550.8612,449.1352"/>
   <path d="M91.8000,91.8000L110.1600,141.6816L128.5200,184.0205L146.8800,219.9906L165.2400,250.5874L183.6000,276.6860L201.9600,298.9905L220.3200,318.0941L238.6800,334.4965L257.0400,348.6190
            L275.4000,360.8165L293.7600,371.3880L312.1200,380.5857L330.4800,388.6219L348.8400,395.6758L367.2000,401.8982L385.5600,407.4166L403.9200,412.3381L422.2800,416.7533L440.6400,420.7384
            L459.0000,424.3578L477.3600,427.6659L495.7200,430.7084L514.0800,433.5240L532.4400,436.1453L550.8000,438.5999L550.8612,438.6076"/>
   <path d="M91.8000,91.8000L110.1600,133.9232L128.5200,170.8677L146.8800,203.3049L165.2400,231.8232L183.6000,256.9611L201.9600,279.1622L220.3200,298.8119L238.6800,316.2452L257.0400,331.7534
            L275.4000,345.5896L293.7600,357.9738L312.1200,369.0973L330.4800,379.1267L348.8400,388.2066L367.2000,396.4630L385.5600,404.0054L403.9200,410.9292L422.2800,417.3173L440.6400,423.2419
            L459.0000,428.7660L477.3600,433.9443L495.7200,438.8245L514.0800,443.4482L532.4400,447.8516L550.8000,452.0662L550.8612,452.0797"/>
   <path d="M91.8000,91.8000L110.1600,136.4850L128.5200,175.2577L146.8800,208.9392L165.2400,238.2264L183.6000,263.7594L201.9600,286.0600L220.3200,305.5771L238.6800,322.6973L257.0400,337.7532
            L275.4000,351.0310L293.7600,362.7771L312.1200,373.2033L330.4800,382.4922L348.8400,390.8006L367.2000,398.2634L385.5600,404.9969L403.9200,411.1009L422.2800,416.6613L440.6400,421.7521
            L459.0000,426.4369L477.3600,430.7702L495.7200,434.7992L514.0800,438.5642L532.4400,442.1000L550.8000,445.4365L550.8612,445.4471"/>
   <path d="M91.8000,91.8000L110.1600,131.6478L128.5200,166.9918L146.8800,198.3819L165.2400,226.2959L183.6000,251.1845L201.9600,273.4204L220.3200,293.3310L238.6800,311.2039L257.0400,327.2916
            L275.4000,341.8158L293.7600,354.9714L312.1200,366.9295L330.4800,377.8406L348.8400,387.8367L367.2000,397.0339L385.5600,405.5342L403.9200,413.4272L422.2800,420.7918L440.6400,427.6972
            L459.0000,434.2045L477.3600,440.3670L495.7200,446.2320L514.0800,451.8410L532.4400,457.2304L550.8000,462.4324L550.8612,462.4492"/>
   <path d="M91.8000,91.8000L110.1600,136.7015L128.5200,175.6656L146.8800,209.5156L165.2400,238.9603L183.6000,264.6427L201.9600,287.0882L220.3200,306.7480L238.6800,324.0106L257.0400,339.2097
            L275.4000,352.6327L293.7600,364.5263L312.1200,375.1029L330.4800,384.5451L348.8400,393.0100L367.2000,400.6326L385.5600,407.5290L403.9200,413.7990L422.2800,419.5286L440.6400,424.7915
            L459.0000,429.6512L477.3600,434.1624L495.7200,438.3719L514.0800,442.3200L532.4400,446.0415L550.8000,449.5662L550.8612,449.5773"/>
   <path d="M91.8000,91.8000L110.1600,134.0747L128.5200,171.2604L146.8800,204.0157L165.2400,232.9057L183.6000,258.4586L201.9600,281.1084L220.3200,301.2329L238.6800,319.1612L257.0400,335.1798
            L275.4000,349.5382L293.7600,362.4537L312.1200,374.1153L330.4800,384.6877L348.8400,394.3143L367.2000,403.1198L385.5600,411.2129L403.9200,418.6882L422.2800,425.6279L440.6400,432.1039
            L459.0000,438.1784L477.3600,443.9057L495.7200,449.3332L514.0800,454.5021L532.4400,459.4480L550.8000,464.2023L550.8612,464.2176"/>
   <path d="M91.8000,91.8000L110.1600,124.2302L128.5200,153.7780L146.8800,180.7274L165.2400,205.3247L183.6000,227.8121L201.9600,248.3982L220.3200,267.2692L238.6800,284.5930L257.0400,300.5212
            L275.4000,315.1905L293.7600,328.7244L312.1200,341.2341L330.4800,352.8202L348.8400,363.5732L367.2000,373.5749L385.5600,382.8990L403.9200,391.6121L422.2800,399.7740L440.6400,407.4389
            L459.0000,414.6554L477.3600,421.4676L495.7200,427.9151L514.0800,434.0335L532.4400,439.8551L550.8000,445.4088L550.8612,445.4265"/>
   <path d="M91.8000,91.8000L110.1600,131.6551L128.5200,166.8380L146.8800,197.9269L165.2400,225.4171L183.6000,249.7738L201.9600,271.3863L220.3200,290.5939L238.6800,307.6942L257.0400,322.9480
            L275.4000,336.5843L293.7600,348.8035L312.1200,359.7817L330.4800,369.6732L348.8400,378.6134L367.2000,386.7209L385.5600,394.0999L403.9200,400.8417L422.2800,407.0266L440.6400,412.7247
            L459.0000,417.9979L477.3600,422.9003L495.7200,427.4794L514.0800,431.7770L532.4400,435.8296L550.8000,439.6696L550.8612,439.6818"/>
   <path d="M91.8000,91.8000L110.1600,130.0370L128.5200,163.9314L146.8800,193.9943L165.2400,220.6771L183.6000,244.4029L201.9600,265.5227L220.3200,284.3451L238.6800,301.1422L257.0400,316.1531
            L275.4000,329.5885L293.7600,341.6340L312.1200,352.4529L330.4800,362.1891L348.8400,370.9693L367.2000,378.9051L385.5600,386.0950L403.9200,392.6256L422.2800,398.5732L440.6400,404.0052
            L459.0000,408.9809L477.3600,413.5527L495.7200,417.7665L514.0800,421.6630L532.4400,425.2782L550.8000,428.6435L550.8612,428.6540"/>
   <path d="M91.8000,91.8000L110.1600,139.8722L128.5200,181.0470L146.8800,216.3588L165.2400,246.6863L183.6000,272.8128L201.9600,295.3718L220.3200,314.9008L238.6800,331.8564L257.0400,346.6261
            L275.4000,359.5386L293.7600,370.8734L312.1200,380.8673L330.4800,389.7216L348.8400,397.6072L367.2000,404.6691L385.5600,411.0305L403.9200,416.7959L422.2800,422.0542L440.6400,426.8806
            L459.0000,431.3394L477.3600,435.4848L495.7200,439.3631L514.0800,443.0136L532.4400,446.4696L550.8000,449.7594L550.8612,449.7699"/>
   <path d="M91.8000,91.8000L110.1600,128.1906L128.5200,160.8901L146.8800,190.3080L165.2400,216.7996L183.6000,240.7067L201.9600,262.3184L220.3200,281.8900L238.6800,299.6489L257.0400,315.7974
            L275.4000,330.5156L293.7600,343.9637L312.1200,356.2842L330.4800,367.6040L348.8400,378.0360L367.2000,387.6806L385.5600,396.6273L403.9200,404.9554L422.2800,412.7358L440.6400,420.0315
            L459.0000,426.8983L477.3600,433.3861L495.7200,439.5394L514.0800,445.3974L532.4400,450.9953L550.8000,456.3643L550.8612,456.3815"/>
   <path d="M91.8000,91.8000L110.1600,130.0895L128.5200,164.2711L146.8800,194.8205L165.2400,222.1548L183.6000,246.6709L201.9600,268.6983L220.3200,288.5282L238.6800,306.4177L257.0400,322.5941
            L275.4000,337.2584L293.7600,350.5881L312.1200,362.7401L330.4800,373.8530L348.8400,384.0494L367.2000,393.4377L385.5600,402.1136L403.9200,410.1617L422.2800,417.6568L440.6400,424.6652
            L459.0000,431.2452L477.3600,437.4487L495.7200,443.3212L514.0800,448.9033L532.4400,454.2307L550.8000,459.3350L550.8612,459.3514"/>
   <path d="M91.8000,91.8000L110.1600,138.7006L128.5200,179.0823L146.8800,213.9008L165.2400,243.9671L183.6000,270.0114L201.9600,292.6259L220.3200,312.3158L238.6800,329.5117L257.0400,344.5810
            L275.4000,357.8370L293.7600,369.5469L312.1200,379.9387L330.4800,389.2067L348.8400,397.5166L367.2000,405.0098L385.5600,411.8069L403.9200,418.0108L422.2800,423.7092L440.6400,428.9769
            L459.0000,433.8779L477.3600,438.4665L495.7200,442.7893L514.0800,446.8859L532.4400,450.7903L550.8000,454.5313L550.8612,454.5433"/>
   <path d="M91.8000,91.8000L110.1600,129.7614L128.5200,163.4984L146.8800,193.5053L165.2400,220.2156L183.6000,244.0398L201.9600,265.3181L220.3200,284.3506L238.6800,301.4020L257.0400,316.7056
            L275.4000,330.4674L293.7600,342.8688L312.1200,354.0702L330.4800,364.2129L348.8400,373.4217L367.2000,381.8066L385.5600,389.4647L403.9200,396.4819L422.2800,402.9339L440.6400,408.8876
            L459.0000,414.4019L477.3600,419.5291L495.7200,424.3152L514.0800,428.8009L532.4400,433.0222L550.8000,437.0109L550.8612,437.0235"/>
   <path d="M91.8000,91.8000L110.1600,136.5102L128.5200,175.3994L146.8800,209.2662L165.2400,238.7992L183.6000,264.6253L201.9600,287.2573L220.3200,307.1365L238.6800,324.6436L257.0400,340.1064
            L275.4000,353.8074L293.7600,365.9901L312.1200,376.8642L330.4800,386.6104L348.8400,395.3847L367.2000,403.3212L385.5600,410.5356L403.9200,417.1277L422.2800,423.1834L440.6400,428.7768
            L459.0000,433.9719L477.3600,438.8236L495.7200,443.3793L514.0800,447.6802L532.4400,451.7613L550.8000,455.6532L550.8612,455.6657"/>
   <path d="M91.8000,91.8000L110.1600,123.5113L128.5200,152.4393L146.8800,178.8528L165.2400,202.9903L183.6000,225.0887L201.9600,245.3470L220.3200,263.9448L238.6800,281.0445L257.0400,296.7927
            L275.4000,311.3219L293.7600,324.7520L312.1200,337.1912L330.4800,348.7376L348.8400,359.4795L367.2000,369.4970L385.5600,378.8626L403.9200,387.6417L422.2800,395.8935L440.6400,403.6716
            L459.0000,411.0245L477.3600,417.9961L495.7200,424.6261L514.0800,430.9504L532.4400,437.0015L550.8000,442.8090L550.8612,442.8276"/>
   <path d="M91.8000,91.8000L110.1600,134.5423L128.5200,171.8832L146.8800,204.5348L165.2400,233.1100L183.6000,258.1749L201.9600,280.1935L220.3200,299.5681L238.6800,316.6473L257.0400,331.7332
            L275.4000,345.0879L293.7600,356.9383L312.1200,367.4813L330.4800,376.8872L348.8400,385.3040L367.2000,392.8597L385.5600,399.6654L403.9200,405.8171L422.2800,411.3983L440.6400,416.4812
            L459.0000,421.1283L477.3600,425.3940L495.7200,429.3250L514.0800,432.9622L532.4400,436.3407L550.8000,439.4911L550.8612,439.5010"/>
   <path d="M91.8000,91.8000L110.1600,124.4173L128.5200,153.9727L146.8800,180.7733L165.2400,205.0886L183.6000,227.1857L201.9600,247.2877L220.3200,265.5949L238.6800,282.2879L257.0400,297.5287
            L275.4000,311.4630L293.7600,324.2220L312.1200,335.9235L330.4800,346.6734L348.8400,356.5670L367.2000,365.6902L385.5600,374.1199L403.9200,381.9254L422.2800,389.1692L440.6400,395.9072
            L459.0000,402.1900L477.3600,408.0628L495.7200,413.5665L514.0800,418.7379L532.4400,423.6098L550.8000,428.2120L550.8612,428.2265"/>
   <path d="M91.8000,91.8000L110.1600,126.0372L128.5200,157.0335L146.8800,185.1230L165.2400,210.6000L183.6000,233.7532L201.9600,254.8237L220.3200,274.0277L238.6800,291.5591L257.0400,307.5917
            L275.4000,322.2812L293.7600,335.7672L312.1200,348.1751L330.4800,359.6171L348.8400,370.1938L367.2000,379.9955L385.5600,389.1031L403.9200,397.5892L422.2800,405.5189L440.6400,412.9504
            L459.0000,419.9361L477.3600,426.5228L495.7200,432.7526L514.0800,438.6631L532.4400,444.2882L550.8000,449.6580L550.8612,449.6751"/>
   <path d="M91.8000,91.8000L110.1600,133.0693L128.5200,169.3129L146.8800,201.1692L165.2400,229.1961L183.6000,253.9086L201.9600,275.7313L220.3200,295.0336L238.6800,312.1375L257.0400,327.3236
            L275.4000,340.8363L293.7600,352.8884L312.1200,363.6655L330.4800,373.3293L348.8400,382.0208L367.2000,389.8628L385.5600,396.9624L403.9200,403.4130L422.2800,409.2959L440.6400,414.6821
            L459.0000,419.6336L477.3600,424.2042L495.7200,428.4410L514.0800,432.3851L532.4400,436.0724L550.8000,439.5339L550.8612,439.5448"/>
   <path d="M91.8000,91.8000L110.1600,137.6363L128.5200,177.2299L146.8800,211.4698L165.2400,241.1147L183.6000,266.8522L201.9600,289.2414L220.3200,308.7610L238.6800,325.8213L257.0400,340.7735
            L275.4000,353.9185L293.7600,365.5141L312.1200,375.7809L330.4800,384.9081L348.8400,393.0575L367.2000,400.3678L385.5600,406.9579L403.9200,412.9294L422.2800,418.3694L440.6400,423.3527
            L459.0000,427.9430L477.3600,432.1953L495.7200,436.1563L514.0800,439.8663L532.4400,443.3596L550.8000,446.6657L550.8612,446.6762"/>
   <path d="M91.8000,91.8000L110.1600,140.2054L128.5200,181.6002L146.8800,217.0398L165.2400,247.4226L183.6000,273.5469L201.9600,296.0577L220.3200,315.5019L238.6800,332.3433L257.0400,346.9750
            L275.4000,359.7306L293.7600,370.8930L312.1200,380.7019L330.4800,389.3607L348.8400,397.0419L367.2000,403.8920L385.5600,410.0349L403.9200,415.5761L422.2800,420.6048L440.6400,425.1968
            L459.0000,429.4165L477.3600,433.3185L495.7200,436.9490L514.0800,440.3475L532.4400,443.5473L550.8000,446.5767L550.8612,446.5863"/>
   <path d="M91.8000,91.8000L110.1600,128.7255L128.5200,161.8370L146.8800,191.5632L165.2400,218.2786L183.6000,242.3441L201.9600,264.0601L220.3200,283.6930L238.6800,301.4797L257.0400,317.6305
            L275.4000,332.3319L293.7600,345.7498L312.1200,358.0314L330.4800,369.3076L348.8400,379.6944L367.2000,389.2950L385.5600,398.2012L403.9200,406.4942L422.2800,414.2465L440.6400,421.5222
            L459.0000,428.3785L477.3600,434.8662L495.7200,441.0302L514.0800,446.9107L532.4400,452.5434L550.8000,457.9599L550.8612,457.9773"/>
   <path d="M91.8000,91.8000L110.1600,137.4792L128.5200,177.0189L146.8800,211.2892L165.2400,241.0286L183.6000,266.9107L201.9600,289.4836L220.3200,309.2175L238.6800,326.5161L257.0400,341.7255
            L275.4000,355.1428L293.7600,367.0227L312.1200,377.5841L330.4800,387.0144L348.8400,395.4745L367.2000,403.1024L385.5600,410.0166L403.9200,416.3187L422.2800,422.0957L440.6400,427.4223
            L459.0000,432.3627L477.3600,436.9719L495.7200,441.2970L514.0800,445.3784L532.4400,449.2510L550.8000,452.9443L550.8612,452.9561"/>
   <path d="M91.8000,91.8000L110.1600,136.0037L128.5200,174.4434L146.8800,207.9050L165.2400,237.0693L183.6000,262.5540L201.9600,284.8649L220.3200,304.4379L238.6800,321.6489L257.0400,336.8218
            L275.4000,350.2362L293.7600,362.1328L312.1200,372.7195L330.4800,382.1755L348.8400,390.6552L367.2000,398.2919L385.5600,405.2008L403.9200,411.4809L422.2800,417.2179L440.6400,422.4856
            L459.0000,427.3477L477.3600,431.8593L495.7200,436.0678L514.0800,440.0141L532.4400,443.7337L550.8000,447.2571L550.8612,447.2683"/>
   <path d="M91.8000,91.8000L110.1600,135.0216L128.5200,172.7805L146.8800,205.8047L165.2400,234.7141L183.6000,260.0840L201.9600,282.3862L220.3200,302.0292L238.6800,319.3668L257.0400,334.7055
            L275.4000,348.3107L293.7600,360.4125L312.1200,371.2100L330.4800,380.8757L348.8400,389.5589L367.2000,397.3890L385.5600,404.4779L403.9200,410.9226L422.2800,416.8069L440.6400,422.2036
            L459.0000,427.1755L477.3600,431.7771L495.7200,436.0554L514.0800,440.0512L532.4400,443.7997L550.8000,447.3316L550.8612,447.3428"/>
   <path d="M91.8000,91.8000L110.1600,132.9001L128.5200,169.0738L146.8800,200.9436L165.2400,229.0549L183.6000,253.9111L201.9600,275.9281L220.3200,295.4682L238.6800,312.8479L257.0400,328.3430
            L275.4000,342.1944L293.7600,354.6122L312.1200,365.7797L330.4800,375.8570L348.8400,384.9838L367.2000,393.2821L385.5600,400.8583L403.9200,407.8053L422.2800,414.2044L440.6400,420.1264
            L459.0000,425.6332L477.3600,430.7789L495.7200,435.6107L514.0800,440.1699L532.4400,444.4926L550.8000,448.6102L550.8612,448.6233"/>
   <path d="M91.8000,91.8000L110.1600,125.9396L128.5200,156.8493L146.8800,184.8646L165.2400,210.2783L183.6000,233.3762L201.9600,254.4006L220.3200,273.5676L238.6800,291.0709L257.0400,307.0844
            L275.4000,321.7639L293.7600,335.2492L312.1200,347.6657L330.4800,359.1259L348.8400,369.7306L367.2000,379.5703L385.5600,388.7261L403.9200,397.2708L422.2800,405.2696L440.6400,412.7811
            L459.0000,419.8577L477.3600,426.5465L495.7200,432.8897L514.0800,438.9252L532.4400,444.6868L550.8000,450.2051L550.8612,450.2228"/>
   <path d="M91.8000,91.8000L110.1600,129.7012L128.5200,163.5623L146.8800,193.8511L165.2400,220.9754L183.6000,245.3252L201.9600,267.2245L220.3200,286.9597L238.6800,304.7844L257.0400,320.9227
            L275.4000,335.5730L293.7600,348.9110L312.1200,361.0918L330.4800,372.2530L348.8400,382.5162L367.2000,391.9890L385.5600,400.7666L403.9200,408.9334L422.2800,416.5641L440.6400,423.7248
            L459.0000,430.4739L477.3600,436.8632L495.7200,442.9388L514.0800,448.7412L532.4400,454.3065L550.8000,459.6667L550.8612,459.6839"/>
   <path d="M91.8000,91.8000L110.1600,136.9246L128.5200,176.0759L146.8800,210.0875L165.2400,239.6732L183.6000,265.4829L201.9600,288.0471L220.3200,307.8216L238.6800,325.1983L257.0400,340.5144
            L275.4000,354.0598L293.7600,366.0835L312.1200,376.8000L330.4800,386.3936L348.8400,395.0225L367.2000,402.8232L385.5600,409.9128L403.9200,416.3920L422.2800,422.3476L440.6400,427.8540
            L459.0000,432.9755L477.3600,437.7671L495.7200,442.2763L514.0800,446.5440L532.4400,450.6052L550.8000,454.4902L550.8612,454.5027"/>
   <path d="M91.8000,91.8000L110.1600,127.2298L128.5200,159.1351L146.8800,187.8991L165.2400,213.8569L183.6000,237.3343L201.9600,258.6032L220.3200,277.9061L238.6800,295.4594L257.0400,311.4562
            L275.4000,326.0686L293.7600,339.4503L312.1200,351.7387L330.4800,363.0559L348.8400,373.5115L367.2000,383.2028L385.5600,392.2171L403.9200,400.6321L422.2800,408.5172L440.6400,415.9346
            L459.0000,422.9397L477.3600,429.5820L495.7200,435.9059L514.0800,441.9510L532.4400,447.7527L550.8000,453.3427L550.8612,453.3608"/>
   <path d="M91.8000,91.8000L110.1600,130.6773L128.5200,165.2719L146.8800,196.0930L165.2400,223.5819L183.6000,248.1589L201.9600,270.1724L220.3200,289.9294L238.6800,307.7003L257.0400,323.7235
            L275.4000,338.2092L293.7600,351.3425L312.1200,363.2866L330.4800,374.1854L348.8400,384.1657L367.2000,393.3391L385.5600,401.8043L403.9200,409.6479L422.2800,416.9465L440.6400,423.7677
            L459.0000,430.1707L477.3600,436.2081L495.7200,441.9260L514.0800,447.3653L532.4400,452.5618L550.8000,457.5472L550.8612,457.5632"/>
   <path d="M91.8000,91.8000L110.1600,119.4207L128.5200,144.9140L146.8800,168.4554L165.2400,190.2003L183.6000,210.3092L201.9600,228.9173L220.3200,246.1479L238.6800,262.1144L257.0400,276.9204
            L275.4000,290.6608L293.7600,303.4228L312.1200,315.2861L330.4800,326.3238L348.8400,336.6028L367.2000,346.1845L385.5600,355.1253L403.9200,363.4766L422.2800,371.2859L440.6400,378.5965
            L459.0000,385.4481L477.3600,391.8772L495.7200,397.9173L514.0800,403.5990L532.4400,408.9504L550.8000,413.9973L550.8612,414.0132"/>
   <path d="M91.8000,91.8000L110.1600,140.3311L128.5200,181.7801L146.8800,217.2189L165.2400,247.5575L183.6000,273.6053L201.9600,296.0154L220.3200,315.3416L238.6800,332.0528L257.0400,346.5468
            L275.4000,359.1604L293.7600,370.1791L312.1200,379.8450L330.4800,388.3631L348.8400,395.9072L367.2000,402.6249L385.5600,408.6409L403.9200,414.0613L422.2800,418.9759L440.6400,423.4607
            L459.0000,427.5806L477.3600,431.3901L495.7200,434.9360L514.0800,438.2575L532.4400,441.3884L550.8000,444.3569L550.8612,444.3663"/>
   <path d="M91.8000,91.8000L110.1600,132.8285L128.5200,168.9617L146.8800,200.8255L165.2400,228.9578L183.6000,253.8622L201.9600,275.9532L220.3200,295.5926L238.6800,313.0963L257.0400,328.7395
            L275.4000,342.7628L293.7600,355.3758L312.1200,366.7617L330.4800,377.0802L348.8400,386.4708L367.2000,395.0552L385.5600,402.9396L403.9200,410.2168L422.2800,416.9677L440.6400,423.2631
            L459.0000,429.1647L477.3600,434.7265L495.7200,439.9957L514.0800,445.0133L532.4400,449.8153L550.8000,454.4334L550.8612,454.4483"/>
   <path d="M91.8000,91.8000L110.1600,133.4054L128.5200,169.9330L146.8800,202.0435L165.2400,230.3050L183.6000,255.2460L201.9600,277.3010L220.3200,296.8478L238.6800,314.2155L257.0400,329.6901
            L275.4000,343.5207L293.7600,355.9239L312.1200,367.0884L330.4800,377.1783L348.8400,386.3365L367.2000,394.6872L385.5600,402.3387L403.9200,409.3854L422.2800,415.9092L440.6400,421.9816
            L459.0000,427.6649L477.3600,433.0134L495.7200,438.0743L514.0800,442.8888L532.4400,447.4929L550.8000,451.9179L550.8612,451.9322"/>
   <path d="M91.8000,91.8000L110.1600,131.2611L128.5200,166.2165L146.8800,197.2094L165.2400,224.7186L183.6000,249.1905L201.9600,270.9948L220.3200,290.4560L238.6800,307.8589L257.0400,323.4539
            L275.4000,337.4605L293.7600,350.0716L312.1200,361.4568L330.4800,371.7649L348.8400,381.1268L367.2000,389.6575L385.5600,397.4582L403.9200,404.6177L422.2800,411.2142L440.6400,417.3165
            L459.0000,422.9851L477.3600,428.2734L495.7200,433.2282L514.0800,437.8909L532.4400,442.2978L550.8000,446.4810L550.8612,446.4943"/>
   <path d="M91.8000,91.8000L110.1600,121.1404L128.5200,148.1242L146.8800,172.9587L165.2400,195.8265L183.6000,216.9117L201.9600,236.3718L220.3200,254.3493L238.6800,270.9742L257.0400,286.3649
            L275.4000,300.6293L293.7600,313.8659L312.1200,326.1642L330.4800,337.6061L348.8400,348.2661L367.2000,358.2121L385.5600,367.5062L403.9200,376.2047L422.2800,384.3592L440.6400,392.0164
            L459.0000,399.2193L477.3600,406.0068L495.7200,412.4144L514.0800,418.4745L532.4400,424.2165L550.8000,429.6675L550.8612,429.6848"/>
   <path d="M91.8000,91.8000L110.1600,135.1930L128.5200,173.0877L146.8800,206.2303L165.2400,235.2581L183.6000,260.7587L201.9600,283.2127L220.3200,303.0356L238.6800,320.5867L257.0400,336.1763
            L275.4000,350.0731L293.7600,362.5090L312.1200,373.6846L330.4800,383.7733L348.8400,392.9251L367.2000,401.2697L385.5600,408.9190L403.9200,415.9701L422.2800,422.5068L440.6400,428.6015
            L459.0000,434.3169L477.3600,439.7074L495.7200,444.8198L514.0800,449.6949L532.4400,454.3677L550.8000,458.8688L550.8612,458.8833"/>
   <path d="M91.8000,91.8000L110.1600,130.5176L128.5200,164.8416L146.8800,195.2960L165.2400,222.3350L183.6000,246.3898L201.9600,267.8170L220.3200,286.9304L238.6800,304.0060L257.0400,319.2867
            L275.4000,332.9862L293.7600,345.2926L312.1200,356.3713L330.4800,366.3679L348.8400,375.4104L367.2000,383.6115L385.5600,391.0705L403.9200,397.8746L422.2800,404.1006L440.6400,409.8160
            L459.0000,415.0804L477.3600,419.9460L495.7200,424.4590L514.0800,428.6598L532.4400,432.5842L550.8000,436.2635L550.8612,436.2751"/>
   <path d="M91.8000,91.8000L110.1600,133.3895L128.5200,170.0915L146.8800,202.5240L165.2400,231.2248L183.6000,256.6947L201.9600,279.3462L220.3200,299.5398L238.6800,317.5901L257.0400,333.7716
            L275.4000,348.3244L293.7600,361.4578L312.1200,373.3547L330.4800,384.1749L348.8400,394.0578L367.2000,403.1254L385.5600,411.4839L403.9200,419.2263L422.2800,426.4340L440.6400,433.1777
            L459.0000,439.5196L477.3600,445.5137L495.7200,451.2074L514.0800,456.6422L532.4400,461.8542L550.8000,466.8749L550.8612,466.8911"/>
   <path d="M91.8000,91.8000L110.1600,135.9309L128.5200,174.3946L146.8800,207.9680L165.2400,237.3109L183.6000,263.0325L201.9600,285.6299L220.3200,305.5326L238.6800,323.1109L257.0400,338.6846
            L275.4000,352.5295L293.7600,364.8838L312.1200,375.9530L330.4800,385.9142L348.8400,394.9204L367.2000,403.1034L385.5600,410.5773L403.9200,417.4400L422.2800,423.7763L440.6400,429.6592
            L459.0000,435.1517L477.3600,440.3082L495.7200,445.1755L514.0800,449.7941L532.4400,454.1986L550.8000,458.4193L550.8612,458.4329"/>
   <path d="M91.8000,91.8000L110.1600,133.8869L128.5200,170.8146L146.8800,203.2507L165.2400,231.7744L183.6000,256.9215L201.9600,279.1326L220.3200,298.7906L238.6800,316.2284L257.0400,331.7358
            L275.4000,345.5645L293.7600,357.9337L312.1200,369.0337L330.4800,379.0303L348.8400,388.0676L367.2000,396.2708L385.5600,403.7491L403.9200,410.5972L422.2800,416.8976L440.6400,422.7222
            L459.0000,428.1333L477.3600,433.1854L495.7200,437.9256L514.0800,442.3951L532.4400,446.6298L550.8000,450.6608L550.8612,450.6737"/>
   <path d="M91.8000,91.8000L110.1600,133.0718L128.5200,169.4851L146.8800,201.6555L165.2400,230.1113L183.6000,255.3494L201.9600,277.7788L220.3200,297.7565L238.6800,315.5949L257.0400,331.5664
            L275.4000,345.9091L293.7600,358.8310L312.1200,370.5136L330.4800,381.1156L348.8400,390.7755L367.2000,399.6142L385.5600,407.7372L403.9200,415.2368L422.2800,422.1934L440.6400,428.6772
            L459.0000,434.7496L477.3600,440.4642L495.7200,445.8675L514.0800,451.0003L532.4400,455.8983L550.8000,460.5923L550.8612,460.6074"/>
   <path d="M91.8000,91.8000L110.1600,138.1253L128.5200,178.0973L146.8800,212.6368L165.2400,242.5224L183.6000,268.4603L201.9600,291.0238L220.3200,310.7026L238.6800,327.9157L257.0400,343.0211
            L275.4000,356.3248L293.7600,368.0883L312.1200,378.5352L330.4800,387.8565L348.8400,396.2155L367.2000,403.7516L385.5600,410.5841L403.9200,416.8148L422.2800,422.5307L440.6400,427.8063
            L459.0000,432.7050L477.3600,437.2810L495.7200,441.5808L514.0800,445.6439L532.4400,449.5040L550.8000,453.1902L550.8612,453.2020"/>
   <path d="M91.8000,91.8000L110.1600,123.2865L128.5200,152.0149L146.8800,178.2444L165.2400,202.2070L183.6000,224.1329L201.9600,244.2152L220.3200,262.6286L238.6800,279.5310L257.0400,295.0653
            L275.4000,309.3608L293.7600,322.5344L312.1200,334.6921L330.4800,345.9297L348.8400,356.3339L367.2000,365.9832L385.5600,374.9489L403.9200,383.2952L422.2800,391.0805L440.6400,398.3577
            L459.0000,405.1746L477.3600,411.5745L495.7200,417.5968L514.0800,423.2771L532.4400,428.6476L550.8000,433.7376L550.8612,433.7537"/>
   <path d="M91.8000,91.8000L110.1600,132.1710L128.5200,167.8957L146.8800,199.5485L165.2400,227.6285L183.6000,252.6043L201.9600,274.8633L220.3200,294.7446L238.6800,312.5455L257.0400,328.5268
            L275.4000,342.9166L293.7600,355.9152L312.1200,367.6981L330.4800,378.4190L348.8400,388.2127L367.2000,397.1975L385.5600,405.4769L403.9200,413.1418L422.2800,420.2719L440.6400,426.9370
            L459.0000,433.1984L477.3600,439.1098L495.7200,444.7185L514.0800,450.0657L532.4400,455.1879L550.8000,460.1169L550.8612,460.1328"/>
   <path d="M91.8000,91.8000L110.1600,131.6986L128.5200,167.0094L146.8800,198.2973L165.2400,226.0509L183.6000,250.7311L201.9600,272.7187L220.3200,292.3473L238.6800,309.9097L257.0400,325.6624
            L275.4000,339.8305L293.7600,352.6114L312.1200,364.1781L330.4800,374.6824L348.8400,384.2574L367.2000,393.0198L385.5600,401.0720L403.9200,408.5039L422.2800,415.3941L440.6400,421.8118
            L459.0000,427.8176L477.3600,433.4647L495.7200,438.7997L514.0800,443.8636L532.4400,448.6924L550.8000,453.3174L550.8612,453.3322"/>
   <path d="M91.8000,91.8000L110.1600,133.8430L128.5200,170.7452L146.8800,203.1726L165.2400,231.7002L183.6000,256.8622L201.9600,279.0974L220.3200,298.7878L238.6800,316.2655L257.0400,331.8198
            L275.4000,345.7022L293.7600,358.1314L312.1200,369.2979L330.4800,379.3674L348.8400,388.4841L367.2000,396.7734L385.5600,404.3445L403.9200,411.2924L422.2800,417.6998L440.6400,423.6386
            L459.0000,429.1715L477.3600,434.3531L495.7200,439.2306L514.0800,443.8456L532.4400,448.2339L550.8000,452.4269L550.8612,452.4403"/>
   <path d="M91.8000,91.8000L110.1600,134.5209L128.5200,171.8750L146.8800,204.5739L165.2400,233.2337L183.6000,258.4203L201.9600,280.5980L220.3200,300.1690L238.6800,317.4819L257.0400,332.8387
            L275.4000,346.5013L293.7600,358.6966L312.1200,369.6211L330.4800,379.4453L348.8400,388.3169L367.2000,396.3639L385.5600,403.6975L403.9200,410.4138L422.2800,416.5963L440.6400,422.3175
            L459.0000,427.6401L477.3600,432.6185L495.7200,437.3001L514.0800,441.7258L532.4400,445.9311L550.8000,449.9470L550.8612,449.9599"/>
   <path d="M91.8000,91.8000L110.1600,135.9202L128.5200,174.2683L146.8800,207.6308L165.2400,236.6925L183.6000,262.0712L201.9600,284.2732L220.3200,303.7349L238.6800,320.8325L257.0400,335.8901
            L275.4000,349.1873L293.7600,360.9651L312.1200,371.4315L330.4800,380.7656L348.8400,389.1223L367.2000,396.6349L385.5600,403.4185L403.9200,409.5727L422.2800,415.1832L440.6400,420.3240
            L459.0000,425.0591L477.3600,429.4436L495.7200,433.5253L514.0800,437.3454L532.4400,440.9394L550.8000,444.3381L550.8612,444.3488"/>
   <path d="M91.8000,91.8000L110.1600,133.9395L128.5200,170.9121L146.8800,203.3908L165.2400,231.9526L183.6000,257.1353L201.9600,279.3804L220.3200,299.0716L238.6800,316.5430L257.0400,332.0846
            L275.4000,345.9489L293.7600,358.3555L312.1200,369.4950L330.4800,379.5336L348.8400,388.6155L367.2000,396.8663L385.5600,404.3951L403.9200,411.2970L422.2800,417.6546L440.6400,423.5397
            L459.0000,429.0151L477.3600,434.1351L495.7200,438.9472L514.0800,443.4927L532.4400,447.8078L550.8000,451.9238L550.8612,451.9369"/>
   <path d="M91.8000,91.8000L110.1600,134.9413L128.5200,172.6038L146.8800,205.5241L165.2400,234.3374L183.6000,259.6262L201.9600,281.8675L220.3200,301.4743L238.6800,318.8033L257.0400,334.1633
            L275.4000,347.8214L293.7600,360.0084L312.1200,370.9243L330.4800,380.7418L348.8400,389.6105L367.2000,397.6597L385.5600,405.0014L403.9200,411.7325L422.2800,417.9368L440.6400,423.6868
            L459.0000,429.0455L477.3600,434.0672L495.7200,438.7989L514.0800,443.2815L532.4400,447.5503L550.8000,451.6359L550.8612,451.6490"/>
   <path d="M91.8000,91.8000L110.1600,134.6583L128.5200,172.0193L146.8800,204.6158L165.2400,233.0819L183.6000,257.9993L201.9600,279.8445L220.3200,299.0299L238.6800,315.9124L257.0400,330.8007
            L275.4000,343.9624L293.7600,355.6286L312.1200,365.9997L330.4800,375.2490L348.8400,383.5267L367.2000,390.9627L385.5600,397.6695L403.9200,403.7445L422.2800,409.2722L440.6400,414.3257
            L459.0000,418.9682L477.3600,423.2546L495.7200,427.2324L514.0800,430.9429L532.4400,434.4217L550.8000,437.6998L550.8612,437.7101"/>
   <path d="M91.8000,91.8000L110.1600,135.5486L128.5200,173.5661L146.8800,206.6340L165.2400,235.4223L183.6000,260.5452L201.9600,282.5045L220.3200,301.7329L238.6800,318.6040L257.0400,333.4398
            L275.4000,346.5182L293.7600,358.0791L312.1200,368.3291L330.4800,377.4468L348.8400,385.5862L367.2000,392.8801L385.5600,399.4431L403.9200,405.3742L422.2800,410.7589L440.6400,415.6707
            L459.0000,420.1734L477.3600,424.3218L495.7200,428.1634L514.0800,431.7392L532.4400,435.0845L550.8000,438.2299L550.8612,438.2398"/>
   <path d="M91.8000,91.8000L110.1600,126.1976L128.5200,157.2630L146.8800,185.3435L165.2400,210.7422L183.6000,233.7568L201.9600,254.6362L220.3200,273.6029L238.6800,290.8561L257.0400,306.5744
            L275.4000,320.9175L293.7600,334.0283L312.1200,346.0350L330.4800,357.0522L348.8400,367.1825L367.2000,376.5177L385.5600,385.1403L403.9200,393.1237L422.2800,400.5339L440.6400,407.4299
            L459.0000,413.8646L477.3600,419.8852L495.7200,425.5341L514.0800,430.8491L532.4400,435.8642L550.8000,440.6098L550.8612,440.6248"/>
   <path d="M91.8000,91.8000L110.1600,139.7780L128.5200,180.8349L146.8800,216.0050L165.2400,246.1775L183.6000,272.1342L201.9600,294.5098L220.3200,313.8427L238.6800,330.5901L257.0400,345.1399
            L275.4000,357.8219L293.7600,368.9157L312.1200,378.6591L330.4800,387.2543L348.8400,394.8727L367.2000,401.6604L385.5600,407.7414L403.9200,413.2212L422.2800,418.1894L440.6400,422.7224
            L459.0000,426.8851L477.3600,430.7326L495.7200,434.3121L514.0800,437.6634L532.4400,440.8207L550.8000,443.8130L550.8612,443.8225"/>
   <path d="M91.8000,91.8000L110.1600,132.9976L128.5200,169.3086L146.8800,201.3569L165.2400,229.6792L183.6000,254.7775L201.9600,277.0649L220.3200,296.9018L238.6800,314.6027L257.0400,330.4419
            L275.4000,344.6585L293.7600,357.4612L312.1200,369.0323L330.4800,379.5303L348.8400,389.0940L367.2000,397.8440L385.5600,405.8859L403.9200,413.3117L422.2800,420.2014L440.6400,426.6253
            L459.0000,432.6443L477.3600,438.3117L495.7200,443.6741L514.0800,448.7721L532.4400,453.6410L550.8000,458.3118L550.8612,458.3268"/>
   <path d="M91.8000,91.8000L110.1600,128.3884L128.5200,161.0906L146.8800,190.3419L165.2400,216.5203L183.6000,239.9896L201.9600,261.0537L220.3200,279.9814L238.6800,297.0114L257.0400,312.3553
            L275.4000,326.2009L293.7600,338.7148L312.1200,350.0448L330.4800,360.3221L348.8400,369.6629L367.2000,378.1707L385.5600,385.9369L403.9200,393.0430L422.2800,399.5610L440.6400,405.5549
            L459.0000,411.0818L477.3600,416.1919L495.7200,420.9301L514.0800,425.3362L532.4400,429.4454L550.8000,433.2893L550.8612,433.3013"/>
   <path d="M91.8000,91.8000L110.1600,131.8588L128.5200,167.3420L146.8800,198.8080L165.2400,226.7452L183.6000,251.6113L201.9600,273.7847L220.3200,293.5973L238.6800,311.3405L257.0400,327.2694
            L275.4000,341.6083L293.7600,354.5538L312.1200,366.2781L330.4800,376.9328L348.8400,386.6506L367.2000,395.5479L385.5600,403.7271L403.9200,411.2778L422.2800,418.2789L440.6400,424.7993
            L459.0000,430.8999L477.3600,436.6338L495.7200,442.0479L514.0800,447.1831L532.4400,452.0755L550.8000,456.7567L550.8612,456.7717"/>
   <path d="M91.8000,91.8000L110.1600,122.7866L128.5200,151.0810L146.8800,176.9356L165.2400,200.5738L183.6000,222.2194L201.9600,242.0611L220.3200,260.2694L238.6800,276.9992L257.0400,292.3907
            L275.4000,306.5712L293.7600,319.6562L312.1200,331.7502L330.4800,342.9483L348.8400,353.3364L367.2000,362.9927L385.5600,371.9880L403.9200,380.3865L422.2800,388.2465L440.6400,395.6209
            L459.0000,402.5574L477.3600,409.0996L495.7200,415.2868L514.0800,421.1548L532.4400,426.7360L550.8000,432.0597L550.8612,432.0767"/>
   <path d="M91.8000,91.8000L110.1600,120.6620L128.5200,147.2450L146.8800,171.7466L165.2400,194.3395L183.6000,215.1990L201.9600,234.4751L220.3200,252.3039L238.6800,268.8093L257.0400,284.1046
            L275.4000,298.2932L293.7600,311.4694L312.1200,323.7193L330.4800,335.1215L348.8400,345.7478L367.2000,355.6637L385.5600,364.9288L403.9200,373.5979L422.2800,381.7206L440.6400,389.3425
            L459.0000,396.5049L477.3600,403.2458L495.7200,409.5997L514.0800,415.5982L532.4400,421.2700L550.8000,426.6414L550.8612,426.6583"/>
   <path d="M91.8000,91.8000L110.1600,131.6002L128.5200,166.9192L146.8800,198.3042L165.2400,226.2277L183.6000,251.1373L201.9600,273.4027L220.3200,293.3488L238.6800,311.2610L257.0400,327.3898
            L275.4000,341.9552L293.7600,355.1507L312.1200,367.1460L330.4800,378.0902L348.8400,388.1142L367.2000,397.3332L385.5600,405.8482L403.9200,413.7479L422.2800,421.1102L440.6400,428.0036
            L459.0000,434.4884L477.3600,440.6172L495.7200,446.4366L514.0800,451.9872L532.4400,457.3051L550.8000,462.4215L550.8612,462.4380"/>
   <path d="M91.8000,91.8000L110.1600,131.8008L128.5200,167.2168L146.8800,198.6055L165.2400,226.4550L183.6000,251.2219L201.9600,273.2839L220.3200,292.9721L238.6800,310.5770L257.0400,326.3535
            L275.4000,340.5252L293.7600,353.2879L312.1200,364.8138L330.4800,375.2536L348.8400,384.7398L367.2000,393.3883L385.5600,401.3011L403.9200,408.5675L422.2800,415.2659L440.6400,421.4649
            L459.0000,427.2249L477.3600,432.5989L495.7200,437.6331L514.0800,442.3683L532.4400,446.8402L550.8000,451.0800L550.8612,451.0935"/>
   <path d="M91.8000,91.8000L110.1600,131.2622L128.5200,166.2476L146.8800,197.3008L165.2400,224.8952L183.6000,249.4772L201.9600,271.4162L220.3200,291.0364L238.6800,308.6227L257.0400,324.4253
            L275.4000,338.6639L293.7600,351.5316L312.1200,363.1981L330.4800,373.8122L348.8400,383.5050L367.2000,392.3914L385.5600,400.5726L403.9200,408.1372L422.2800,415.1634L440.6400,421.7199
            L459.0000,427.8668L477.3600,433.6574L495.7200,439.1380L514.0800,444.3499L532.4400,449.3291L550.8000,454.1073L550.8612,454.1226"/>
   <path d="M91.8000,91.8000L110.1600,139.0678L128.5200,179.5869L146.8800,214.3566L165.2400,244.2224L183.6000,269.9454L201.9600,292.1411L220.3200,311.3332L238.6800,327.9675L257.0400,342.4237
            L275.4000,355.0246L293.7600,366.0450L312.1200,375.7191L330.4800,384.2458L348.8400,391.7946L367.2000,398.5097L385.5600,404.5140L403.9200,409.9119L422.2800,414.7923L440.6400,419.2311
            L459.0000,423.2927L477.3600,427.0319L495.7200,430.4956L514.0800,433.7235L532.4400,436.7497L550.8000,439.6030L550.8612,439.6120"/>
   <path d="M91.8000,91.8000L110.1600,141.1215L128.5200,183.1087L146.8800,218.8888L165.2400,249.4165L183.6000,275.5367L201.9600,297.9300L220.3200,317.1712L238.6800,333.7462L257.0400,348.0653
            L275.4000,360.4750L293.7600,371.2683L312.1200,380.6926L330.4800,388.9569L348.8400,396.2378L367.2000,402.6845L385.5600,408.4231L403.9200,413.5603L422.2800,418.1860L440.6400,422.3763
            L459.0000,426.1957L477.3600,429.6985L495.7200,432.9306L514.0800,435.9311L532.4400,438.7328L550.8000,441.3636L550.8612,441.3718"/>
   <path d="M91.8000,91.8000L110.1600,130.4004L128.5200,164.7598L146.8800,195.3785L165.2400,222.6928L183.6000,247.1175L201.9600,268.9962L220.3200,288.6320L238.6800,306.2921L257.0400,322.2119
            L275.4000,336.5994L293.7600,349.6378L312.1200,361.4885L330.4800,372.2941L348.8400,382.1802L367.2000,391.2578L385.5600,399.6244L403.9200,407.3664L422.2800,414.5598L440.6400,421.2717
            L459.0000,427.5613L477.3600,433.4808L495.7200,439.0762L514.0800,444.3883L532.4400,449.4529L550.8000,454.3016L550.8612,454.3171"/>
   <path d="M91.8000,91.8000L110.1600,142.5089L128.5200,185.3836L146.8800,221.6710L165.2400,252.4220L183.6000,278.5568L201.9600,300.8134L220.3200,319.8112L238.6800,336.0700L257.0400,350.0261
            L275.4000,362.0457L293.7600,372.4364L312.1200,381.4559L330.4800,389.3211L348.8400,396.2137L367.2000,402.2863L385.5600,407.6672L403.9200,412.4639L422.2800,416.7668L440.6400,420.6519
            L459.0000,424.1827L477.3600,427.4130L495.7200,430.3876L514.0800,433.1443L532.4400,435.7149L550.8000,438.1261L550.8612,438.1337"/>
   <path d="M91.8000,91.8000L110.1600,140.1197L128.5200,181.4992L146.8800,216.9791L165.2400,247.4460L183.6000,273.6884L201.9600,296.3441L220.3200,315.9545L238.6800,332.9791L257.0400,347.8079
            L275.4000,360.7721L293.7600,372.1529L312.1200,382.1887L330.4800,391.0824L348.8400,399.0058L367.2000,406.1050L385.5600,412.5042L403.9200,418.3086L422.2800,423.6077L440.6400,428.4776
            L459.0000,432.9829L477.3600,437.1783L495.7200,441.1105L514.0800,444.8192L532.4400,448.3380L550.8000,451.6956L550.8612,451.7064"/>
   <path d="M91.8000,91.8000L110.1600,133.5261L128.5200,170.2107L146.8800,202.5033L165.2400,230.9621L183.6000,256.1088L201.9600,278.3722L220.3200,298.1257L238.6800,315.6948L257.0400,331.3631
            L275.4000,345.3776L293.7600,357.9535L312.1200,369.2781L330.4800,379.5150L348.8400,388.8062L367.2000,397.2759L385.5600,405.0320L403.9200,412.1685L422.2800,418.7675L440.6400,424.9005
            L459.0000,430.6295L477.3600,436.0090L495.7200,441.0861L514.0800,445.9020L532.4400,450.4927L550.8000,454.8895L550.8612,454.9036"/>
   <path d="M91.8000,91.8000L110.1600,139.4590L128.5200,180.2894L146.8800,215.3057L165.2400,245.3695L183.6000,271.2521L201.9600,293.5776L220.3200,312.8769L238.6800,329.6009L257.0400,344.1336
            L275.4000,356.8011L293.7600,367.8808L312.1200,377.6087L330.4800,386.1853L348.8400,393.7813L367.2000,400.5416L385.5600,406.5897L403.9200,412.0305L422.2800,416.9531L440.6400,421.4337
            L459.0000,425.5366L477.3600,429.3169L495.7200,432.8213L514.0800,436.0896L532.4400,439.1557L550.8000,442.0484L550.8612,442.0576"/>
   <path d="M91.8000,91.8000L110.1600,131.4073L128.5200,166.6112L146.8800,197.9408L165.2400,225.8578L183.6000,250.7985L201.9600,273.1238L220.3200,293.1514L238.6800,311.1605L257.0400,327.3969
            L275.4000,342.0768L293.7600,355.3901L312.1200,367.5043L330.4800,378.5665L348.8400,388.7060L367.2000,398.0368L385.5600,406.6591L403.9200,414.6610L422.2800,422.1201L440.6400,429.1046
            L459.0000,435.6747L477.3600,441.8831L495.7200,447.7765L514.0800,453.3957L532.4400,458.7769L550.8000,463.9517L550.8612,463.9683"/>
   <path d="M91.8000,91.8000L110.1600,130.6773L128.5200,165.2719L146.8800,196.0930L165.2400,223.5819L183.6000,248.1589L201.9600,270.1724L220.3200,289.9294L238.6800,307.7003L257.0400,323.7235
            L275.4000,338.2092L293.7600,351.3425L312.1200,363.2866L330.4800,374.1854L348.8400,384.1657L367.2000,393.3391L385.5600,401.8043L403.9200,409.6479L422.2800,416.9465L440.6400,423.7677
            L459.0000,430.1707L477.3600,436.2081L495.7200,441.9260L514.0800,447.3653L532.4400,452.5618L550.8000,457.5472L550.8612,457.5632"/>
   <path d="M91.8000,91.8000L110.1600,136.4850L128.5200,175.2577L146.8800,208.9392L165.2400,238.2264L183.6000,263.7594L201.9600,286.0600L220.3200,305.5771L238.6800,322.6973L257.0400,337.7532
            L275.4000,351.0310L293.7600,362.7771L312.1200,373.2033L330.4800,382.4922L348.8400,390.8006L367.2000,398.2634L385.5600,404.9969L403.9200,411.1009L422.2800,416.6613L440.6400,421.7521
            L459.0000,426.4369L477.3600,430.7702L495.7200,434.7992L514.0800,438.5642L532.4400,442.1000L550.8000,445.4365L550.8612,445.4471"/>
   <path d="M91.8000,91.8000L110.1600,137.6433L128.5200,177.2769L146.8800,211.5802L165.2400,241.3125L183.6000,267.1555L201.9600,289.6655L220.3200,309.3188L238.6800,326.5236L257.0400,341.6299
            L275.4000,354.9376L293.7600,366.7037L312.1200,377.1488L330.4800,386.4616L348.8400,394.8042L367.2000,402.3155L385.5600,409.1147L403.9200,415.3040L422.2800,420.9709L440.6400,426.1907
            L459.0000,431.0279L477.3600,435.5379L495.7200,439.7682L514.0800,443.7596L532.4400,447.5471L550.8000,451.1608L550.8612,451.1724"/>
   <path d="M91.8000,91.8000L110.1600,131.2611L128.5200,166.2165L146.8800,197.2094L165.2400,224.7186L183.6000,249.1905L201.9600,270.9948L220.3200,290.4560L238.6800,307.8589L257.0400,323.4539
            L275.4000,337.4605L293.7600,350.0716L312.1200,361.4568L330.4800,371.7649L348.8400,381.1268L367.2000,389.6575L385.5600,397.4582L403.9200,404.6177L422.2800,411.2142L440.6400,417.3165
            L459.0000,422.9851L477.3600,428.2734L495.7200,433.2282L514.0800,437.8909L532.4400,442.2978L550.8000,446.4810L550.8612,446.4943"/>
   <path d="M91.8000,91.8000L110.1600,123.6660L128.5200,152.7669L146.8800,179.3639L165.2400,203.6896L183.6000,225.9755L201.9600,246.4157L220.3200,265.1856L238.6800,282.4439L257.0400,298.3342
            L275.4000,312.9860L293.7600,326.5167L312.1200,339.0325L330.4800,350.6291L348.8400,361.3935L367.2000,371.4040L385.5600,380.7318L403.9200,389.4409L422.2800,397.5894L440.6400,405.2299
            L459.0000,412.4099L477.3600,419.1723L495.7200,425.5559L514.0800,431.5960L532.4400,437.3243L550.8000,442.7695L550.8612,442.7868"/>
   <path d="M91.8000,91.8000L110.1600,136.8581L128.5200,175.8872L146.8800,209.7277L165.2400,239.1078L183.6000,264.6823L201.9600,286.9863L220.3200,306.4790L238.6800,323.5551L257.0400,338.5532
            L275.4000,351.7644L293.7600,363.4386L312.1200,373.7905L330.4800,383.0047L348.8400,391.2395L367.2000,398.6313L385.5600,405.2970L403.9200,411.3373L422.2800,416.8386L440.6400,421.8752
            L459.0000,426.5111L477.3600,430.8012L495.7200,434.7926L514.0800,438.5260L532.4400,442.0363L550.8000,445.3536L550.8612,445.3641"/>
   <path d="M91.8000,91.8000L110.1600,128.5563L128.5200,161.4940L146.8800,191.0446L165.2400,217.5848L183.6000,241.4772L201.9600,263.0237L220.3200,282.4918L238.6800,300.1192L257.0400,316.1171
            L275.4000,330.6727L293.7600,343.9523L312.1200,356.1036L330.4800,367.2577L348.8400,377.5312L367.2000,387.0275L385.5600,395.8385L403.9200,404.0459L422.2800,411.7222L440.6400,418.9320
            L459.0000,425.7325L477.3600,432.1749L495.7200,438.3044L514.0800,444.1614L532.4400,449.7819L550.8000,455.1977L550.8612,455.2152"/>
   <path d="M91.8000,91.8000L110.1600,137.6899L128.5200,177.4272L146.8800,211.8837L165.2400,241.8076L183.6000,267.8755L201.9600,290.6386L220.3200,310.5693L238.6800,328.0729L257.0400,343.4970
            L275.4000,357.1395L293.7600,369.2561L312.1200,380.0659L330.4800,389.7570L348.8400,398.4907L367.2000,406.4052L385.5600,413.6192L403.9200,420.2346L422.2800,426.3388L440.6400,432.0066
            L459.0000,437.3024L477.3600,442.2816L495.7200,446.9914L514.0800,451.4726L532.4400,455.7601L550.8000,459.8841L550.8612,459.8974"/>
   <path d="M91.8000,91.8000L110.1600,135.1061L128.5200,172.9380L146.8800,206.0270L165.2400,235.0133L183.6000,260.4759L201.9600,282.8912L220.3200,302.6712L238.6800,320.1724L257.0400,335.7031
            L275.4000,349.5300L293.7600,361.8841L312.1200,372.9651L330.4800,382.9462L348.8400,391.9769L367.2000,400.1870L385.5600,407.6887L403.9200,414.5794L422.2800,420.9431L440.6400,426.8528
            L459.0000,432.3719L477.3600,437.5549L495.7200,442.4494L514.0800,447.0966L532.4400,451.5319L550.8000,455.7865L550.8612,455.8001"/>
   <path d="M91.8000,91.8000L110.1600,135.1658L128.5200,173.0730L146.8800,206.2493L165.2400,235.3203L183.6000,260.8637L201.9600,283.3525L220.3200,303.1964L238.6800,320.7505L257.0400,336.3220
            L275.4000,350.1772L293.7600,362.5467L312.1200,373.6303L330.4800,383.6008L348.8400,392.6082L367.2000,400.7821L385.5600,408.2350L403.9200,415.0642L422.2800,421.3540L440.6400,427.1775
            L459.0000,432.5979L477.3600,437.6701L495.7200,442.4415L514.0800,446.9532L532.4400,451.2410L550.8000,455.3356L550.8612,455.3487"/>
   <path d="M91.8000,91.8000L110.1600,141.0086L128.5200,182.8530L146.8800,218.4742L165.2400,248.8268L183.6000,274.7620L201.9600,296.9642L220.3200,316.0113L238.6800,332.3913L257.0400,346.5162
            L275.4000,358.7341L293.7600,369.3387L312.1200,378.5780L330.4800,386.6615L348.8400,393.7658L367.2000,400.0401L385.5600,405.6106L403.9200,410.5834L422.2800,415.0484L440.6400,419.0812
            L459.0000,422.7459L477.3600,426.0965L495.7200,429.1785L514.0800,432.0303L532.4400,434.6844L550.8000,437.1682L550.8612,437.1760"/>
   <path d="M91.8000,91.8000L110.1600,130.4136L128.5200,164.7839L146.8800,195.4168L165.2400,222.7521L183.6000,247.2072L201.9600,269.1283L220.3200,288.8203L238.6800,306.5521L257.0400,322.5608
            L275.4000,337.0552L293.7600,350.2194L312.1200,362.2158L330.4800,373.1877L348.8400,383.2613L367.2000,392.5479L385.5600,401.1458L403.9200,409.1416L422.2800,416.6119L440.6400,423.6243
            L459.0000,430.2382L477.3600,436.5064L495.7200,442.4754L514.0800,448.1863L532.4400,453.6755L550.8000,458.9752L550.8612,458.9923"/>
   <path d="M91.8000,91.8000L110.1600,141.3459L128.5200,183.4646L146.8800,219.3062L165.2400,249.8375L183.6000,275.9178L201.9600,298.2380L220.3200,317.3813L238.6800,333.8399L257.0400,348.0292
            L275.4000,360.3000L293.7600,370.9482L312.1200,380.2238L330.4800,388.3375L348.8400,395.4675L367.2000,401.7639L385.5600,407.3537L403.9200,412.3440L422.2800,416.8251L440.6400,420.8736
            L459.0000,424.5539L477.3600,427.9205L495.7200,431.0195L514.0800,433.8900L532.4400,436.5648L550.8000,439.0719L550.8612,439.0797"/>
   <path d="M91.8000,91.8000L110.1600,129.2142L128.5200,162.6285L146.8800,192.4985L165.2400,219.2216L183.6000,243.1787L201.9600,264.6858L220.3200,284.0230L238.6800,301.4379L257.0400,317.1498
            L275.4000,331.3530L293.7600,344.2192L312.1200,355.9006L330.4800,366.5320L348.8400,376.2326L367.2000,385.1079L385.5600,393.2515L403.9200,400.7461L422.2800,407.6649L440.6400,414.0729
            L459.0000,420.0275L477.3600,425.5795L495.7200,430.7739L514.0800,435.6507L532.4400,440.2450L550.8000,444.5883L550.8612,444.6020"/>
   <path d="M91.8000,91.8000L110.1600,134.3667L128.5200,171.5598L146.8800,204.0898L165.2400,232.5617L183.6000,257.5388L201.9600,279.4824L220.3200,298.7924L238.6800,315.8160L257.0400,330.8540
            L275.4000,344.1672L293.7600,355.9821L312.1200,366.4947L330.4800,375.8752L348.8400,384.2711L367.2000,391.8104L385.5600,398.6040L403.9200,404.7479L422.2800,410.3257L440.6400,415.4095
            L459.0000,420.0622L477.3600,424.3381L495.7200,428.2842L514.0800,431.9417L532.4400,435.3458L550.8000,438.5274L550.8612,438.5374"/>
   <path d="M91.8000,91.8000L110.1600,138.4833L128.5200,178.6499L146.8800,213.2503L165.2400,243.0892L183.6000,268.8946L201.9600,291.2566L220.3200,310.6793L238.6800,327.5927L257.0400,342.3641
            L275.4000,355.3069L293.7600,366.6888L312.1200,376.7382L330.4800,385.6501L348.8400,393.5910L367.2000,400.7030L385.5600,407.1074L403.9200,412.9078L422.2800,418.1925L440.6400,423.0371
            L459.0000,427.5059L477.3600,431.6541L495.7200,435.5286L514.0800,439.1695L532.4400,442.6111L550.8000,445.8827L550.8612,445.8931"/>
   <path d="M91.8000,91.8000L550.8000,91.8000"/>
   <path d="M91.8000,550.8000L550.8000,550.8000"/>
   <path d="M183.6000,91.8000L183.6000,104.0400"/>
   <path d="M183.6000,550.8000L183.6000,538.5600"/>
   <path d="M367.2000,91.8000L367.2000,104.0400"/>
   <path d="M367.2000,550.8000L367.2000,538.5600"/>
   <path d="M550.8000,91.8000L550.8000,104.0400"/>
   <path d="M550.8000,550.8000L550.8000,538.5600"/>
  </g>
  <g style="fill:#000000; fill-rule:nonzero">
   <text   style="font-family:'Times','Nimbus Roman'; font-style:normal; font-weight:normal; font-size:612.0000" transform="matrix(0.0280,0.0000,-0.0000,-0.0280,168.1000,73.6800)">-160</text>
   <text   style="font-family:'Times','Nimbus Roman'; font-style:normal; font-weight:normal; font-size:612.0000" transform="matrix(0.0280,0.0000,-0.0000,-0.0280,351.7000,73.6800)">-140</text>
   <text   style="font-family:'Times','Nimbus Roman'; font-style:normal; font-weight:normal; font-size:612.0000" transform="matrix(0.0280,0.0000,-0.0000,-0.0280,535.3000,73.6800)">-120</text>
  </g>
  <g style="fill:none; stroke:#000000; stroke-width:  0.9180; stroke-linecap:butt; stroke-linejoin:miter; stroke-dasharray:none">
   <path d="M91.8000,91.8000L91.8000,550.8000"/>
   <path d="M550.8000,91.8000L550.8000,550.8000"/>
   <path d="M91.8000,91.8000L104.0400,91.8000"/>
   <path d="M550.8000,91.8000L538.5600,91.8000"/>
   <path d="M91.8000,244.8000L104.0400,244.8000"/>
   <path d="M550.8000,244.8000L538.5600,244.8000"/>
   <path d="M91.8000,397.8000L104.0400,397.8000"/>
   <path d="M550.8000,397.8000L538.5600,397.8000"/>
   <path d="M91.8000,550.8000L104.0400,550.8000"/>
   <path d="M550.8000,550.8000L538.5600,550.8000"/>
  </g>
  <g style="fill:#000000; fill-rule:nonzero">
   <text   style="font-family:'Times','Nimbus Roman'; font-style:normal; font-weight:normal; font-size:612.0000" transform="matrix(0.0280,0.0000,-0.0000,-0.0280,77.6800,86.3000)">0</text>
   <text   style="font-family:'Times','Nimbus Roman'; font-style:normal; font-weight:normal; font-size:612.0000" transform="matrix(0.0280,0.0000,-0.0000,-0.0280,64.6800,238.8000)">0.5</text>
   <text   style="font-family:'Times','Nimbus Roman'; font-style:normal; font-weight:normal; font-size:612.0000" transform="matrix(0.0280,0.0000,-0.0000,-0.0280,78.6800,391.8000)">1</text>
   <text   style="font-family:'Times','Nimbus Roman'; font-style:normal; font-weight:normal; font-size:612.0000" transform="matrix(0.0280,0.0000,-0.0000,-0.0280,64.6800,544.8000)">1.5</text>
  </g>
  <g style="fill:none; stroke:#000000; stroke-width:  0.9180; stroke-linecap:butt; stroke-linejoin:miter; stroke-dasharray:none">
   <path d="M91.8000,91.8000L91.8000,550.8000L550.8000,550.8000L550.8000,91.8000z"/>
  </g>
 </g>
</svg>
