<?xml version="1.0" encoding="ISO-8859-1"?>
<!DOCTYPE svg PUBLIC "-//W3C//DTD SVG 1.0//EN" "http://www.w3.org/TR/2001/REC-SVG-20010904/DTD/svg10.dtd">
<!-- generated by Grace-5.1.25 -->
<svg xml:space="preserve" width="11.0000in" height="8.5000in" viewBox="0.0000 0.0000 792.0000 612.0000">
 <g transform="translate(0,612.0000) scale(1,-1)">
 <desc></desc>
  <g style="fill:#FFFFFF; fill-rule:nonzero">
   <path  d="M0.0000,0.0000L0.0000,612.0000L792.0000,612.0000L792.0000,0.0000z"/>
  </g>
  <g style="fill:#000000; fill-rule:nonzero">
   <path  d="M173.1086,91.8000L173.1086,481.2545L185.3486,481.2545L185.3486,91.8000z"/>
   <path  d="M260.5371,91.8000L260.5371,403.3636L272.7771,403.3636L272.7771,91.8000z"/>
   <path  d="M347.9657,91.8000L347.9657,325.4727L360.2057,325.4727L360.2057,91.8000z"/>
   <path  d="M435.3943,91.8000L435.3943,364.4182L447.6343,364.4182L447.6343,91.8000z"/>
   <path  d="M522.8229,91.8000L522.8229,150.2182L535.0629,150.2182L535.0629,91.8000z"/>
   <path  d="M610.2514,91.8000L610.2514,169.6909L622.4914,169.6909L622.4914,91.8000z"/>
  </g>
  <g style="fill:none; stroke:#000000; stroke-width:  0.9180; stroke-linecap:butt; stroke-linejoin:miter; stroke-dasharray:none">
   <path d="M173.1086,91.8000L173.1086,481.2545L185.3486,481.2545L185.3486,91.8000z"/>
   <path d="M260.5371,91.8000L260.5371,403.3636L272.7771,403.3636L272.7771,91.8000z"/>
   <path d="M347.9657,91.8000L347.9657,325.4727L360.2057,325.4727L360.2057,91.8000z"/>
   <path d="M435.3943,91.8000L435.3943,364.4182L447.6343,364.4182L447.6343,91.8000z"/>
   <path d="M522.8229,91.8000L522.8229,150.2182L535.0629,150.2182L535.0629,91.8000z"/>
   <path d="M610.2514,91.8000L610.2514,169.6909L622.4914,169.6909L622.4914,91.8000z"/>
   <path d="M91.8000,91.8000L703.8000,91.8000"/>
   <path d="M91.8000,520.2000L703.8000,520.2000"/>
   <path d="M91.8000,91.8000L91.8000,520.2000"/>
   <path d="M703.8000,91.8000L703.8000,520.2000"/>
   <path d="M91.8000,140.4818L97.9200,140.4818"/>
   <path d="M703.8000,140.4818L697.6800,140.4818"/>
   <path d="M91.8000,237.8455L97.9200,237.8455"/>
   <path d="M703.8000,237.8455L697.6800,237.8455"/>
   <path d="M91.8000,335.2091L97.9200,335.2091"/>
   <path d="M703.8000,335.2091L697.6800,335.2091"/>
   <path d="M91.8000,432.5727L97.9200,432.5727"/>
   <path d="M703.8000,432.5727L697.6800,432.5727"/>
   <path d="M91.8000,91.8000L104.0400,91.8000"/>
   <path d="M703.8000,91.8000L691.5600,91.8000"/>
   <path d="M91.8000,189.1636L104.0400,189.1636"/>
   <path d="M703.8000,189.1636L691.5600,189.1636"/>
   <path d="M91.8000,286.5273L104.0400,286.5273"/>
   <path d="M703.8000,286.5273L691.5600,286.5273"/>
   <path d="M91.8000,383.8909L104.0400,383.8909"/>
   <path d="M703.8000,383.8909L691.5600,383.8909"/>
   <path d="M91.8000,481.2545L104.0400,481.2545"/>
   <path d="M703.8000,481.2545L691.5600,481.2545"/>
  </g>
  <g style="fill:#000000; fill-rule:nonzero">
   <text   style="font-family:'Times','Nimbus Roman'; font-style:normal; font-weight:normal; font-size:612.0000" transform="matrix(0.0280,0.0000,-0.0000,-0.0280,77.6800,86.3000)">0</text>
   <text   style="font-family:'Times','Nimbus Roman'; font-style:normal; font-weight:normal; font-size:612.0000" transform="matrix(0.0280,0.0000,-0.0000,-0.0280,77.6800,183.1636)">5</text>
   <text   style="font-family:'Times','Nimbus Roman'; font-style:normal; font-weight:normal; font-size:612.0000" transform="matrix(0.0280,0.0000,-0.0000,-0.0280,68.6800,280.5273)">10</text>
   <text   style="font-family:'Times','Nimbus Roman'; font-style:normal; font-weight:normal; font-size:612.0000" transform="matrix(0.0280,0.0000,-0.0000,-0.0280,68.6800,377.8909)">15</text>
   <text   style="font-family:'Times','Nimbus Roman'; font-style:normal; font-weight:normal; font-size:612.0000" transform="matrix(0.0280,0.0000,-0.0000,-0.0280,68.6800,475.7545)">20</text>
  </g>
  <g style="fill:none; stroke:#000000; stroke-width:  0.9180; stroke-linecap:butt; stroke-linejoin:miter; stroke-dasharray:none">
   <path d="M91.8000,91.8000L91.8000,520.2000L703.8000,520.2000L703.8000,91.8000z"/>
  </g>
 </g>
</svg>
