<?xml version="1.0" encoding="ISO-8859-1"?>
<!DOCTYPE svg PUBLIC "-//W3C//DTD SVG 1.0//EN" "http://www.w3.org/TR/2001/REC-SVG-20010904/DTD/svg10.dtd">
<!-- generated by Grace-5.1.25 -->
<svg xml:space="preserve" width="11.0000in" height="8.5000in" viewBox="0.0000 0.0000 792.0000 612.0000">
 <g transform="translate(0,612.0000) scale(1,-1)">
  <g style="fill:#FFFFFF; fill-rule:nonzero">
   <path  d="M0.0000,0.0000L0.0000,612.0000L792.0000,612.0000L792.0000,0.0000z"/>
  </g>
  <g style="fill:#000000; fill-rule:nonzero">
   <path  d="M111.3840,91.8000L111.3840,206.5500L123.6240,206.5500L123.6240,91.8000z"/>
   <path  d="M137.0880,91.8000L137.0880,160.6500L149.3280,160.6500L149.3280,91.8000z"/>
   <path  d="M162.7920,91.8000L162.7920,321.3000L175.0320,321.3000L175.0320,91.8000z"/>
   <path  d="M188.4960,91.8000L188.4960,252.4500L200.7360,252.4500L200.7360,91.8000z"/>
   <path  d="M214.2000,91.8000L214.2000,344.2500L226.4400,344.2500L226.4400,91.8000z"/>
   <path  d="M239.9040,91.8000L239.9040,504.9000L252.1440,504.9000L252.1440,91.8000z"/>
   <path  d="M265.6080,91.8000L265.6080,367.2000L277.8480,367.2000L277.8480,91.8000z"/>
   <path  d="M291.3120,91.8000L291.3120,321.3000L303.5520,321.3000L303.5520,91.8000z"/>
   <path  d="M317.0160,91.8000L317.0160,160.6500L329.2560,160.6500L329.2560,91.8000z"/>
   <path  d="M342.7200,91.8000L342.7200,114.7500L354.9600,114.7500L354.9600,91.8000z"/>
   <path  d="M368.4240,91.8000L368.4240,160.6500L380.6640,160.6500L380.6640,91.8000z"/>
   <path  d="M394.1280,91.8000L394.1280,160.6500L406.3680,160.6500L406.3680,91.8000z"/>
   <path  d="M419.8320,91.8000L419.8320,137.7000L432.0720,137.7000L432.0720,91.8000z"/>
   <path  d="M445.5360,91.8000L445.5360,91.8000L457.7760,91.8000L457.7760,91.8000z"/>
   <path  d="M471.2400,91.8000L471.2400,137.7000L483.4800,137.7000L483.4800,91.8000z"/>
   <path  d="M496.9440,91.8000L496.9440,114.7500L509.1840,114.7500L509.1840,91.8000z"/>
  </g>
  <g style="fill:none; stroke:#000000; stroke-width:  0.9180; stroke-linecap:butt; stroke-linejoin:miter; stroke-dasharray:none">
   <path d="M91.8000,91.8000L91.8000,550.8000L550.8000,550.8000L550.8000,91.8000z"/>
  </g>
 </g>
</svg>
