<?xml version="1.0" encoding="ISO-8859-1"?>
<!DOCTYPE svg PUBLIC "-//W3C//DTD SVG 1.0//EN" "http://www.w3.org/TR/2001/REC-SVG-20010904/DTD/svg10.dtd">
<!-- generated by Grace-5.1.25 -->
<svg xml:space="preserve" width="11.0000in" height="8.5000in" viewBox="0.0000 0.0000 792.0000 612.0000">
 <g transform="translate(0,612.0000) scale(1,-1)">
  <g style="fill:#FFFFFF; fill-rule:nonzero">
   <path  d="M0.0000,0.0000L0.0000,612.0000L792.0000,612.0000L792.0000,0.0000z"/>
  </g>
  <g style="fill:#000000; fill-rule:nonzero">
   <path  d="M109.2857,91.8000L109.2857,122.4000L121.5257,122.4000L121.5257,91.8000z"/>
   <path  d="M132.8914,91.8000L132.8914,137.7000L145.1314,137.7000L145.1314,91.8000z"/>
   <path  d="M156.4971,91.8000L156.4971,168.3000L168.7371,168.3000L168.7371,91.8000z"/>
   <path  d="M180.1029,91.8000L180.1029,244.8000L192.3429,244.8000L192.3429,91.8000z"/>
   <path  d="M203.7086,91.8000L203.7086,183.6000L215.9486,183.6000L215.9486,91.8000z"/>
   <path  d="M227.3143,91.8000L227.3143,229.5000L239.5543,229.5000L239.5543,91.8000z"/>
   <path  d="M250.9200,91.8000L250.9200,244.8000L263.1600,244.8000L263.1600,91.8000z"/>
   <path  d="M274.5257,91.8000L274.5257,275.4000L286.7657,275.4000L286.7657,91.8000z"/>
   <path  d="M298.1314,91.8000L298.1314,229.5000L310.3714,229.5000L310.3714,91.8000z"/>
   <path  d="M321.7371,91.8000L321.7371,153.0000L333.9771,153.0000L333.9771,91.8000z"/>
   <path  d="M345.3429,91.8000L345.3429,198.9000L357.5829,198.9000L357.5829,91.8000z"/>
   <path  d="M368.9486,91.8000L368.9486,168.3000L381.1886,168.3000L381.1886,91.8000z"/>
   <path  d="M392.5543,91.8000L392.5543,122.4000L404.7943,122.4000L404.7943,91.8000z"/>
   <path  d="M416.1600,91.8000L416.1600,137.7000L428.4000,137.7000L428.4000,91.8000z"/>
   <path  d="M439.7657,91.8000L439.7657,122.4000L452.0057,122.4000L452.0057,91.8000z"/>
   <path  d="M463.3714,91.8000L463.3714,122.4000L475.6114,122.4000L475.6114,91.8000z"/>
  </g>
  <g style="fill:none; stroke:#000000; stroke-width:  0.9180; stroke-linecap:butt; stroke-linejoin:miter; stroke-dasharray:none">
   <path d="M91.8000,91.8000L91.8000,550.8000L550.8000,550.8000L550.8000,91.8000z"/>
  </g>
 </g>
</svg>
