<?xml version="1.0" encoding="ISO-8859-1"?>
<!DOCTYPE svg PUBLIC "-//W3C//DTD SVG 1.0//EN" "http://www.w3.org/TR/2001/REC-SVG-20010904/DTD/svg10.dtd">
<!-- generated by Grace-5.1.25 -->
<svg xml:space="preserve" width="11.0000in" height="8.5000in" viewBox="0.0000 0.0000 792.0000 612.0000">
 <g transform="translate(0,612.0000) scale(1,-1)">
  <g style="fill:#FFFFFF; fill-rule:nonzero">
   <path  d="M0.0000,0.0000L0.0000,612.0000L792.0000,612.0000L792.0000,0.0000z"/>
  </g>
  <g style="fill:#000000; fill-rule:nonzero">
   <path  d="M114.3675,91.8000L114.3675,504.9000L126.6075,504.9000L126.6075,91.8000z"/>
   <path  d="M143.0550,91.8000L143.0550,96.3900L155.2950,96.3900L155.2950,91.8000z"/>
   <path  d="M171.7425,91.8000L171.7425,91.8000L183.9825,91.8000L183.9825,91.8000z"/>
   <path  d="M200.4300,91.8000L200.4300,91.8000L212.6700,91.8000L212.6700,91.8000z"/>
   <path  d="M229.1175,91.8000L229.1175,91.8000L241.3575,91.8000L241.3575,91.8000z"/>
   <path  d="M257.8050,91.8000L257.8050,91.8000L270.0450,91.8000L270.0450,91.8000z"/>
   <path  d="M286.4925,91.8000L286.4925,91.8000L298.7325,91.8000L298.7325,91.8000z"/>
   <path  d="M315.1800,91.8000L315.1800,91.8000L327.4200,91.8000L327.4200,91.8000z"/>
   <path  d="M343.8675,91.8000L343.8675,91.8000L356.1075,91.8000L356.1075,91.8000z"/>
   <path  d="M372.5550,91.8000L372.5550,91.8000L384.7950,91.8000L384.7950,91.8000z"/>
   <path  d="M401.2425,91.8000L401.2425,91.8000L413.4825,91.8000L413.4825,91.8000z"/>
   <path  d="M429.9300,91.8000L429.9300,91.8000L442.1700,91.8000L442.1700,91.8000z"/>
   <path  d="M458.6175,91.8000L458.6175,91.8000L470.8575,91.8000L470.8575,91.8000z"/>
   <path  d="M487.3050,91.8000L487.3050,91.8000L499.5450,91.8000L499.5450,91.8000z"/>
   <path  d="M515.9925,91.8000L515.9925,91.8000L528.2325,91.8000L528.2325,91.8000z"/>
   <path  d="M550.8000,91.8000L544.6800,91.8000L544.6800,91.8000L550.8000,91.8000z"/>
  </g>
  <g style="fill:none; stroke:#000000; stroke-width:  0.9180; stroke-linecap:butt; stroke-linejoin:miter; stroke-dasharray:none">
   <path d="M91.8000,91.8000L91.8000,550.8000L550.8000,550.8000L550.8000,91.8000z"/>
  </g>
 </g>
</svg>
