<?xml version="1.0" encoding="ISO-8859-1"?>
<!DOCTYPE svg PUBLIC "-//W3C//DTD SVG 1.0//EN" "http://www.w3.org/TR/2001/REC-SVG-20010904/DTD/svg10.dtd">
<!-- generated by Grace-5.1.25 -->
<svg xml:space="preserve" width="11.0000in" height="8.5000in" viewBox="0.0000 0.0000 792.0000 612.0000">
 <g transform="translate(0,612.0000) scale(1,-1)">
  <g style="fill:#FFFFFF; fill-rule:nonzero">
   <path  d="M0.0000,0.0000L0.0000,612.0000L792.0000,612.0000L792.0000,0.0000z"/>
  </g>
  <g style="fill:#000000; fill-rule:nonzero">
   <path  d="M106.1711,91.8000L106.1711,540.6000L118.4111,540.6000L118.4111,91.8000z"/>
   <path  d="M126.6621,91.8000L126.6621,102.0000L138.9021,102.0000L138.9021,91.8000z"/>
   <path  d="M147.1532,91.8000L147.1532,96.9000L159.3932,96.9000L159.3932,91.8000z"/>
   <path  d="M167.6443,91.8000L167.6443,91.8000L179.8843,91.8000L179.8843,91.8000z"/>
   <path  d="M188.1354,91.8000L188.1354,91.8000L200.3754,91.8000L200.3754,91.8000z"/>
   <path  d="M208.6264,91.8000L208.6264,91.8000L220.8664,91.8000L220.8664,91.8000z"/>
   <path  d="M229.1175,91.8000L229.1175,91.8000L241.3575,91.8000L241.3575,91.8000z"/>
   <path  d="M249.6086,91.8000L249.6086,91.8000L261.8486,91.8000L261.8486,91.8000z"/>
   <path  d="M270.0996,91.8000L270.0996,91.8000L282.3396,91.8000L282.3396,91.8000z"/>
   <path  d="M290.5907,91.8000L290.5907,91.8000L302.8307,91.8000L302.8307,91.8000z"/>
   <path  d="M311.0818,91.8000L311.0818,91.8000L323.3218,91.8000L323.3218,91.8000z"/>
   <path  d="M331.5729,91.8000L331.5729,91.8000L343.8129,91.8000L343.8129,91.8000z"/>
   <path  d="M352.0639,91.8000L352.0639,91.8000L364.3039,91.8000L364.3039,91.8000z"/>
   <path  d="M372.5550,91.8000L372.5550,91.8000L384.7950,91.8000L384.7950,91.8000z"/>
   <path  d="M393.0461,91.8000L393.0461,91.8000L405.2861,91.8000L405.2861,91.8000z"/>
   <path  d="M413.5371,91.8000L413.5371,91.8000L425.7771,91.8000L425.7771,91.8000z"/>
  </g>
  <g style="fill:none; stroke:#000000; stroke-width:  0.9180; stroke-linecap:butt; stroke-linejoin:miter; stroke-dasharray:none">
   <path d="M91.8000,91.8000L91.8000,550.8000L550.8000,550.8000L550.8000,91.8000z"/>
  </g>
 </g>
</svg>
