<?xml version="1.0" encoding="ISO-8859-1"?>
<!DOCTYPE svg PUBLIC "-//W3C//DTD SVG 1.0//EN" "http://www.w3.org/TR/2001/REC-SVG-20010904/DTD/svg10.dtd">
<!-- generated by Grace-5.1.25 -->
<svg xml:space="preserve" width="11.0000in" height="8.5000in" viewBox="0.0000 0.0000 792.0000 612.0000">
 <g transform="translate(0,612.0000) scale(1,-1)">
  <g style="fill:#FFFFFF; fill-rule:nonzero">
   <path  d="M0.0000,0.0000L0.0000,612.0000L792.0000,612.0000L792.0000,0.0000z"/>
  </g>
  <g style="fill:#000000; fill-rule:nonzero">
   <path  d="M100.9800,91.8000L100.9800,91.8000L113.2200,91.8000L113.2200,91.8000z"/>
   <path  d="M116.2800,91.8000L116.2800,91.8000L128.5200,91.8000L128.5200,91.8000z"/>
   <path  d="M131.5800,91.8000L131.5800,91.8000L143.8200,91.8000L143.8200,91.8000z"/>
   <path  d="M146.8800,91.8000L146.8800,91.8000L159.1200,91.8000L159.1200,91.8000z"/>
   <path  d="M162.1800,91.8000L162.1800,91.8000L174.4200,91.8000L174.4200,91.8000z"/>
   <path  d="M177.4800,91.8000L177.4800,91.8000L189.7200,91.8000L189.7200,91.8000z"/>
   <path  d="M192.7800,91.8000L192.7800,91.8000L205.0200,91.8000L205.0200,91.8000z"/>
   <path  d="M208.0800,91.8000L208.0800,91.8000L220.3200,91.8000L220.3200,91.8000z"/>
   <path  d="M223.3800,91.8000L223.3800,91.8000L235.6200,91.8000L235.6200,91.8000z"/>
   <path  d="M238.6800,91.8000L238.6800,91.8000L250.9200,91.8000L250.9200,91.8000z"/>
   <path  d="M253.9800,91.8000L253.9800,91.8000L266.2200,91.8000L266.2200,91.8000z"/>
   <path  d="M269.2800,91.8000L269.2800,91.8000L281.5200,91.8000L281.5200,91.8000z"/>
   <path  d="M284.5800,91.8000L284.5800,91.8000L296.8200,91.8000L296.8200,91.8000z"/>
   <path  d="M299.8800,91.8000L299.8800,114.7500L312.1200,114.7500L312.1200,91.8000z"/>
   <path  d="M315.1800,91.8000L315.1800,103.2750L327.4200,103.2750L327.4200,91.8000z"/>
   <path  d="M330.4800,91.8000L330.4800,114.7500L342.7200,114.7500L342.7200,91.8000z"/>
   <path  d="M345.7800,91.8000L345.7800,103.2750L358.0200,103.2750L358.0200,91.8000z"/>
   <path  d="M361.0800,91.8000L361.0800,172.1250L373.3200,172.1250L373.3200,91.8000z"/>
   <path  d="M376.3800,91.8000L376.3800,218.0250L388.6200,218.0250L388.6200,91.8000z"/>
   <path  d="M391.6800,91.8000L391.6800,206.5500L403.9200,206.5500L403.9200,91.8000z"/>
   <path  d="M406.9800,91.8000L406.9800,321.3000L419.2200,321.3000L419.2200,91.8000z"/>
   <path  d="M422.2800,91.8000L422.2800,240.9750L434.5200,240.9750L434.5200,91.8000z"/>
   <path  d="M437.5800,91.8000L437.5800,263.9250L449.8200,263.9250L449.8200,91.8000z"/>
   <path  d="M452.8800,91.8000L452.8800,137.7000L465.1200,137.7000L465.1200,91.8000z"/>
   <path  d="M468.1800,91.8000L468.1800,149.1750L480.4200,149.1750L480.4200,91.8000z"/>
  </g>
  <g style="fill:none; stroke:#000000; stroke-width:  0.9180; stroke-linecap:butt; stroke-linejoin:miter; stroke-dasharray:none">
   <path d="M91.8000,91.8000L91.8000,550.8000L550.8000,550.8000L550.8000,91.8000z"/>
  </g>
 </g>
</svg>
