<?xml version="1.0" encoding="ISO-8859-1"?>
<!DOCTYPE svg PUBLIC "-//W3C//DTD SVG 1.0//EN" "http://www.w3.org/TR/2001/REC-SVG-20010904/DTD/svg10.dtd">
<!-- generated by Grace-5.1.25 -->
<svg xml:space="preserve" width="11.0000in" height="8.5000in" viewBox="0.0000 0.0000 792.0000 612.0000">
 <g transform="translate(0,612.0000) scale(1,-1)">
  <g style="fill:#FFFFFF; fill-rule:nonzero">
   <path  d="M0.0000,0.0000L0.0000,612.0000L792.0000,612.0000L792.0000,0.0000z"/>
  </g>
  <g style="fill:#000000; fill-rule:nonzero">
   <path  d="M181.3050,91.8000L181.3050,91.8000L193.5450,91.8000L193.5450,91.8000z"/>
   <path  d="M200.4300,91.8000L200.4300,91.8000L212.6700,91.8000L212.6700,91.8000z"/>
   <path  d="M219.5550,91.8000L219.5550,96.9000L231.7950,96.9000L231.7950,91.8000z"/>
   <path  d="M238.6800,91.8000L238.6800,168.3000L250.9200,168.3000L250.9200,91.8000z"/>
   <path  d="M257.8050,91.8000L257.8050,260.1000L270.0450,260.1000L270.0450,91.8000z"/>
   <path  d="M276.9300,91.8000L276.9300,265.2000L289.1700,265.2000L289.1700,91.8000z"/>
   <path  d="M296.0550,91.8000L296.0550,112.2000L308.2950,112.2000L308.2950,91.8000z"/>
   <path  d="M315.1800,91.8000L315.1800,107.1000L327.4200,107.1000L327.4200,91.8000z"/>
   <path  d="M334.3050,91.8000L334.3050,96.9000L346.5450,96.9000L346.5450,91.8000z"/>
   <path  d="M353.4300,91.8000L353.4300,91.8000L365.6700,91.8000L365.6700,91.8000z"/>
   <path  d="M372.5550,91.8000L372.5550,91.8000L384.7950,91.8000L384.7950,91.8000z"/>
   <path  d="M391.6800,91.8000L391.6800,91.8000L403.9200,91.8000L403.9200,91.8000z"/>
   <path  d="M410.8050,91.8000L410.8050,91.8000L423.0450,91.8000L423.0450,91.8000z"/>
   <path  d="M429.9300,91.8000L429.9300,91.8000L442.1700,91.8000L442.1700,91.8000z"/>
   <path  d="M449.0550,91.8000L449.0550,91.8000L461.2950,91.8000L461.2950,91.8000z"/>
   <path  d="M468.1800,91.8000L468.1800,91.8000L480.4200,91.8000L480.4200,91.8000z"/>
  </g>
  <g style="fill:none; stroke:#000000; stroke-width:  0.9180; stroke-linecap:butt; stroke-linejoin:miter; stroke-dasharray:none">
   <path d="M91.8000,91.8000L91.8000,550.8000L550.8000,550.8000L550.8000,91.8000z"/>
  </g>
 </g>
</svg>
