<?xml version="1.0" encoding="ISO-8859-1"?>
<!DOCTYPE svg PUBLIC "-//W3C//DTD SVG 1.0//EN" "http://www.w3.org/TR/2001/REC-SVG-20010904/DTD/svg10.dtd">
<!-- generated by Grace-5.1.25 -->
<svg xml:space="preserve" width="11.0000in" height="8.5000in" viewBox="0.0000 0.0000 792.0000 612.0000">
 <g transform="translate(0,612.0000) scale(1,-1)">
  <g style="fill:#FFFFFF; fill-rule:nonzero">
   <path  d="M0.0000,0.0000L0.0000,612.0000L792.0000,612.0000L792.0000,0.0000z"/>
  </g>
  <g style="fill:none; stroke:#000000; stroke-width:  0.9180; stroke-linecap:butt; stroke-linejoin:miter; stroke-dasharray:none">
   <path d="M122.8080,91.8000L122.8080,540.6000L135.0480,540.6000L135.0480,91.8000z"/>
   <path d="M159.9360,91.8000L159.9360,112.2000L172.1760,112.2000L172.1760,91.8000z"/>
   <path d="M197.0640,91.8000L197.0640,112.2000L209.3040,112.2000L209.3040,91.8000z"/>
   <path d="M234.1920,91.8000L234.1920,91.8000L246.4320,91.8000L246.4320,91.8000z"/>
   <path d="M271.3200,91.8000L271.3200,96.9000L283.5600,96.9000L283.5600,91.8000z"/>
   <path d="M308.4480,91.8000L308.4480,112.2000L320.6880,112.2000L320.6880,91.8000z"/>
   <path d="M345.5760,91.8000L345.5760,112.2000L357.8160,112.2000L357.8160,91.8000z"/>
   <path d="M382.7040,91.8000L382.7040,96.9000L394.9440,96.9000L394.9440,91.8000z"/>
   <path d="M419.8320,91.8000L419.8320,96.9000L432.0720,96.9000L432.0720,91.8000z"/>
   <path d="M456.9600,91.8000L456.9600,107.1000L469.2000,107.1000L469.2000,91.8000z"/>
   <path d="M494.0880,91.8000L494.0880,112.2000L506.3280,112.2000L506.3280,91.8000z"/>
   <path d="M531.2160,91.8000L531.2160,107.1000L543.4560,107.1000L543.4560,91.8000z"/>
   <path d="M568.3440,91.8000L568.3440,127.5000L580.5840,127.5000L580.5840,91.8000z"/>
   <path d="M605.4720,91.8000L605.4720,122.4000L617.7120,122.4000L617.7120,91.8000z"/>
   <path d="M642.6000,91.8000L642.6000,137.7000L654.8400,137.7000L654.8400,91.8000z"/>
   <path d="M679.7280,91.8000L679.7280,122.4000L691.9680,122.4000L691.9680,91.8000z"/>
   <path d="M91.8000,91.8000L734.4000,91.8000"/>
   <path d="M91.8000,550.8000L734.4000,550.8000"/>
   <path d="M163.2000,91.8000L163.2000,97.9200"/>
   <path d="M163.2000,550.8000L163.2000,544.6800"/>
   <path d="M306.0000,91.8000L306.0000,97.9200"/>
   <path d="M306.0000,550.8000L306.0000,544.6800"/>
   <path d="M448.8000,91.8000L448.8000,97.9200"/>
   <path d="M448.8000,550.8000L448.8000,544.6800"/>
   <path d="M591.6000,91.8000L591.6000,97.9200"/>
   <path d="M591.6000,550.8000L591.6000,544.6800"/>
   <path d="M734.4000,91.8000L734.4000,97.9200"/>
   <path d="M734.4000,550.8000L734.4000,544.6800"/>
   <path d="M91.8000,91.8000L91.8000,104.0400"/>
   <path d="M91.8000,550.8000L91.8000,538.5600"/>
   <path d="M234.6000,91.8000L234.6000,104.0400"/>
   <path d="M234.6000,550.8000L234.6000,538.5600"/>
   <path d="M377.4000,91.8000L377.4000,104.0400"/>
   <path d="M377.4000,550.8000L377.4000,538.5600"/>
   <path d="M520.2000,91.8000L520.2000,104.0400"/>
   <path d="M520.2000,550.8000L520.2000,538.5600"/>
   <path d="M663.0000,91.8000L663.0000,104.0400"/>
   <path d="M663.0000,550.8000L663.0000,538.5600"/>
  </g>
  <g style="fill:#000000; fill-rule:nonzero">
   <text   style="font-family:'Times','Nimbus Roman'; font-style:normal; font-weight:normal; font-size:612.0000" transform="matrix(0.0280,0.0000,-0.0000,-0.0280,87.8000,74.6800)">0</text>
   <text   style="font-family:'Times','Nimbus Roman'; font-style:normal; font-weight:normal; font-size:612.0000" transform="matrix(0.0280,0.0000,-0.0000,-0.0280,224.1000,74.6800)">0.2</text>
   <text   style="font-family:'Times','Nimbus Roman'; font-style:normal; font-weight:normal; font-size:612.0000" transform="matrix(0.0280,0.0000,-0.0000,-0.0280,366.9000,74.6800)">0.4</text>
   <text   style="font-family:'Times','Nimbus Roman'; font-style:normal; font-weight:normal; font-size:612.0000" transform="matrix(0.0280,0.0000,-0.0000,-0.0280,509.7000,73.6800)">0.6</text>
   <text   style="font-family:'Times','Nimbus Roman'; font-style:normal; font-weight:normal; font-size:612.0000" transform="matrix(0.0280,0.0000,-0.0000,-0.0280,653.0000,74.6800)">0.8</text>
  </g>
  <g style="fill:none; stroke:#000000; stroke-width:  0.9180; stroke-linecap:butt; stroke-linejoin:miter; stroke-dasharray:none">
   <path d="M91.8000,91.8000L91.8000,550.8000"/>
   <path d="M734.4000,91.8000L734.4000,550.8000"/>
   <path d="M91.8000,142.8000L97.9200,142.8000"/>
   <path d="M734.4000,142.8000L728.2800,142.8000"/>
   <path d="M91.8000,244.8000L97.9200,244.8000"/>
   <path d="M734.4000,244.8000L728.2800,244.8000"/>
   <path d="M91.8000,346.8000L97.9200,346.8000"/>
   <path d="M734.4000,346.8000L728.2800,346.8000"/>
   <path d="M91.8000,448.8000L97.9200,448.8000"/>
   <path d="M734.4000,448.8000L728.2800,448.8000"/>
   <path d="M91.8000,550.8000L97.9200,550.8000"/>
   <path d="M734.4000,550.8000L728.2800,550.8000"/>
   <path d="M91.8000,91.8000L104.0400,91.8000"/>
   <path d="M734.4000,91.8000L722.1600,91.8000"/>
   <path d="M91.8000,193.8000L104.0400,193.8000"/>
   <path d="M734.4000,193.8000L722.1600,193.8000"/>
   <path d="M91.8000,295.8000L104.0400,295.8000"/>
   <path d="M734.4000,295.8000L722.1600,295.8000"/>
   <path d="M91.8000,397.8000L104.0400,397.8000"/>
   <path d="M734.4000,397.8000L722.1600,397.8000"/>
   <path d="M91.8000,499.8000L104.0400,499.8000"/>
   <path d="M734.4000,499.8000L722.1600,499.8000"/>
  </g>
  <g style="fill:#000000; fill-rule:nonzero">
   <text   style="font-family:'Times','Nimbus Roman'; font-style:normal; font-weight:normal; font-size:612.0000" transform="matrix(0.0280,0.0000,-0.0000,-0.0280,77.6800,86.3000)">0</text>
   <text   style="font-family:'Times','Nimbus Roman'; font-style:normal; font-weight:normal; font-size:612.0000" transform="matrix(0.0280,0.0000,-0.0000,-0.0280,68.6800,188.3000)">20</text>
   <text   style="font-family:'Times','Nimbus Roman'; font-style:normal; font-weight:normal; font-size:612.0000" transform="matrix(0.0280,0.0000,-0.0000,-0.0280,68.6800,290.3000)">40</text>
   <text   style="font-family:'Times','Nimbus Roman'; font-style:normal; font-weight:normal; font-size:612.0000" transform="matrix(0.0280,0.0000,-0.0000,-0.0280,68.6800,391.8000)">60</text>
   <text   style="font-family:'Times','Nimbus Roman'; font-style:normal; font-weight:normal; font-size:612.0000" transform="matrix(0.0280,0.0000,-0.0000,-0.0280,68.6800,494.3000)">80</text>
  </g>
  <g style="fill:none; stroke:#000000; stroke-width:  0.9180; stroke-linecap:butt; stroke-linejoin:miter; stroke-dasharray:none">
   <path d="M91.8000,91.8000L91.8000,550.8000L734.4000,550.8000L734.4000,91.8000z"/>
  </g>
 </g>
</svg>
