<?xml version="1.0" encoding="ISO-8859-1"?>
<!DOCTYPE svg PUBLIC "-//W3C//DTD SVG 1.0//EN" "http://www.w3.org/TR/2001/REC-SVG-20010904/DTD/svg10.dtd">
<!-- generated by Grace-5.1.25 -->
<svg xml:space="preserve" width="11.0000in" height="8.5000in" viewBox="0.0000 0.0000 792.0000 612.0000">
 <g transform="translate(0,612.0000) scale(1,-1)">
  <g style="fill:#FFFFFF; fill-rule:nonzero">
   <path  d="M0.0000,0.0000L0.0000,612.0000L792.0000,612.0000L792.0000,0.0000z"/>
  </g>
  <g style="fill:none; stroke:#000000; stroke-width:  0.9180; stroke-linecap:butt; stroke-linejoin:miter; stroke-dasharray:none">
   <path d="M120.4527,91.8000L120.4527,423.8100L132.6927,423.8100L132.6927,91.8000z"/>
   <path d="M155.2255,91.8000L155.2255,306.0000L167.4655,306.0000L167.4655,91.8000z"/>
   <path d="M189.9982,91.8000L189.9982,177.4800L202.2382,177.4800L202.2382,91.8000z"/>
   <path d="M224.7709,91.8000L224.7709,166.7700L237.0109,166.7700L237.0109,91.8000z"/>
   <path d="M259.5436,91.8000L259.5436,156.0600L271.7836,156.0600L271.7836,91.8000z"/>
   <path d="M294.3164,91.8000L294.3164,209.6100L306.5564,209.6100L306.5564,91.8000z"/>
   <path d="M329.0891,91.8000L329.0891,156.0600L341.3291,156.0600L341.3291,91.8000z"/>
   <path d="M363.8618,91.8000L363.8618,166.7700L376.1018,166.7700L376.1018,91.8000z"/>
   <path d="M398.6345,91.8000L398.6345,156.0600L410.8745,156.0600L410.8745,91.8000z"/>
   <path d="M433.4073,91.8000L433.4073,123.9300L445.6473,123.9300L445.6473,91.8000z"/>
   <path d="M468.1800,91.8000L468.1800,166.7700L480.4200,166.7700L480.4200,91.8000z"/>
   <path d="M502.9527,91.8000L502.9527,102.5100L515.1927,102.5100L515.1927,91.8000z"/>
   <path d="M537.7255,91.8000L537.7255,123.9300L549.9655,123.9300L549.9655,91.8000z"/>
   <path d="M572.4982,91.8000L572.4982,113.2200L584.7382,113.2200L584.7382,91.8000z"/>
   <path d="M607.2709,91.8000L607.2709,134.6400L619.5109,134.6400L619.5109,91.8000z"/>
   <path d="M642.0436,91.8000L642.0436,145.3500L654.2836,145.3500L654.2836,91.8000z"/>
   <path d="M91.8000,91.8000L703.8000,91.8000"/>
   <path d="M91.8000,520.2000L703.8000,520.2000"/>
   <path d="M91.8000,91.8000L91.8000,104.0400"/>
   <path d="M91.8000,520.2000L91.8000,507.9600"/>
   <path d="M203.0727,91.8000L203.0727,104.0400"/>
   <path d="M203.0727,520.2000L203.0727,507.9600"/>
   <path d="M314.3455,91.8000L314.3455,104.0400"/>
   <path d="M314.3455,520.2000L314.3455,507.9600"/>
   <path d="M425.6182,91.8000L425.6182,104.0400"/>
   <path d="M425.6182,520.2000L425.6182,507.9600"/>
   <path d="M536.8909,91.8000L536.8909,104.0400"/>
   <path d="M536.8909,520.2000L536.8909,507.9600"/>
   <path d="M648.1636,91.8000L648.1636,104.0400"/>
   <path d="M648.1636,520.2000L648.1636,507.9600"/>
  </g>
  <g style="fill:#000000; fill-rule:nonzero">
   <text   style="font-family:'Times','Nimbus Roman'; font-style:normal; font-weight:normal; font-size:612.0000" transform="matrix(0.0280,0.0000,-0.0000,-0.0280,87.8000,74.6800)">0</text>
   <text   style="font-family:'Times','Nimbus Roman'; font-style:normal; font-weight:normal; font-size:612.0000" transform="matrix(0.0280,0.0000,-0.0000,-0.0280,199.5727,73.6800)">1</text>
   <text   style="font-family:'Times','Nimbus Roman'; font-style:normal; font-weight:normal; font-size:612.0000" transform="matrix(0.0280,0.0000,-0.0000,-0.0280,310.3455,74.6800)">2</text>
   <text   style="font-family:'Times','Nimbus Roman'; font-style:normal; font-weight:normal; font-size:612.0000" transform="matrix(0.0280,0.0000,-0.0000,-0.0280,422.1182,74.6800)">3</text>
   <text   style="font-family:'Times','Nimbus Roman'; font-style:normal; font-weight:normal; font-size:612.0000" transform="matrix(0.0280,0.0000,-0.0000,-0.0280,532.8909,74.6800)">4</text>
   <text   style="font-family:'Times','Nimbus Roman'; font-style:normal; font-weight:normal; font-size:612.0000" transform="matrix(0.0280,0.0000,-0.0000,-0.0280,644.1636,73.6800)">5</text>
  </g>
  <g style="fill:none; stroke:#000000; stroke-width:  0.9180; stroke-linecap:butt; stroke-linejoin:miter; stroke-dasharray:none">
   <path d="M91.8000,91.8000L91.8000,520.2000"/>
   <path d="M703.8000,91.8000L703.8000,520.2000"/>
   <path d="M91.8000,91.8000L104.0400,91.8000"/>
   <path d="M703.8000,91.8000L691.5600,91.8000"/>
   <path d="M91.8000,198.9000L104.0400,198.9000"/>
   <path d="M703.8000,198.9000L691.5600,198.9000"/>
   <path d="M91.8000,306.0000L104.0400,306.0000"/>
   <path d="M703.8000,306.0000L691.5600,306.0000"/>
   <path d="M91.8000,413.1000L104.0400,413.1000"/>
   <path d="M703.8000,413.1000L691.5600,413.1000"/>
   <path d="M91.8000,520.2000L104.0400,520.2000"/>
   <path d="M703.8000,520.2000L691.5600,520.2000"/>
  </g>
  <g style="fill:#000000; fill-rule:nonzero">
   <text   style="font-family:'Times','Nimbus Roman'; font-style:normal; font-weight:normal; font-size:612.0000" transform="matrix(0.0280,0.0000,-0.0000,-0.0280,77.6800,86.3000)">0</text>
   <text   style="font-family:'Times','Nimbus Roman'; font-style:normal; font-weight:normal; font-size:612.0000" transform="matrix(0.0280,0.0000,-0.0000,-0.0280,68.6800,192.9000)">10</text>
   <text   style="font-family:'Times','Nimbus Roman'; font-style:normal; font-weight:normal; font-size:612.0000" transform="matrix(0.0280,0.0000,-0.0000,-0.0280,68.6800,300.5000)">20</text>
   <text   style="font-family:'Times','Nimbus Roman'; font-style:normal; font-weight:normal; font-size:612.0000" transform="matrix(0.0280,0.0000,-0.0000,-0.0280,68.6800,407.6000)">30</text>
   <text   style="font-family:'Times','Nimbus Roman'; font-style:normal; font-weight:normal; font-size:612.0000" transform="matrix(0.0280,0.0000,-0.0000,-0.0280,68.6800,514.7000)">40</text>
  </g>
  <g style="fill:none; stroke:#000000; stroke-width:  0.9180; stroke-linecap:butt; stroke-linejoin:miter; stroke-dasharray:none">
   <path d="M91.8000,91.8000L91.8000,520.2000L703.8000,520.2000L703.8000,91.8000z"/>
  </g>
 </g>
</svg>
