<?xml version="1.0" encoding="ISO-8859-1"?>
<!DOCTYPE svg PUBLIC "-//W3C//DTD SVG 1.0//EN" "http://www.w3.org/TR/2001/REC-SVG-20010904/DTD/svg10.dtd">
<!-- generated by Grace-5.1.25 -->
<svg xml:space="preserve" width="11.0000in" height="8.5000in" viewBox="0.0000 0.0000 792.0000 612.0000">
 <g transform="translate(0,612.0000) scale(1,-1)">
  <g style="fill:#FFFFFF; fill-rule:nonzero">
   <path  d="M0.0000,0.0000L0.0000,612.0000L792.0000,612.0000L792.0000,0.0000z"/>
  </g>
  <g style="fill:none; stroke:#000000; stroke-width:  0.9180; stroke-linecap:butt; stroke-linejoin:miter; stroke-dasharray:none">
   <path d="M120.5640,91.8000L120.5640,335.0700L132.8040,335.0700L132.8040,91.8000z"/>
   <path d="M155.4480,91.8000L155.4480,114.7500L167.6880,114.7500L167.6880,91.8000z"/>
   <path d="M190.3320,91.8000L190.3320,98.6850L202.5720,98.6850L202.5720,91.8000z"/>
   <path d="M225.2160,91.8000L225.2160,103.2750L237.4560,103.2750L237.4560,91.8000z"/>
   <path d="M260.1000,91.8000L260.1000,91.8000L272.3400,91.8000L272.3400,91.8000z"/>
   <path d="M294.9840,91.8000L294.9840,94.0950L307.2240,94.0950L307.2240,91.8000z"/>
   <path d="M329.8680,91.8000L329.8680,94.0950L342.1080,94.0950L342.1080,91.8000z"/>
   <path d="M364.7520,91.8000L364.7520,94.0950L376.9920,94.0950L376.9920,91.8000z"/>
   <path d="M399.6360,91.8000L399.6360,94.0950L411.8760,94.0950L411.8760,91.8000z"/>
   <path d="M434.5200,91.8000L434.5200,94.0950L446.7600,94.0950L446.7600,91.8000z"/>
   <path d="M469.4040,91.8000L469.4040,100.9800L481.6440,100.9800L481.6440,91.8000z"/>
   <path d="M504.2880,91.8000L504.2880,98.6850L516.5280,98.6850L516.5280,91.8000z"/>
   <path d="M539.1720,91.8000L539.1720,94.0950L551.4120,94.0950L551.4120,91.8000z"/>
   <path d="M574.0560,91.8000L574.0560,91.8000L586.2960,91.8000L586.2960,91.8000z"/>
   <path d="M608.9400,91.8000L608.9400,98.6850L621.1800,98.6850L621.1800,91.8000z"/>
   <path d="M643.8240,91.8000L643.8240,103.2750L656.0640,103.2750L656.0640,91.8000z"/>
   <path d="M91.8000,91.8000L734.4000,91.8000"/>
   <path d="M91.8000,550.8000L734.4000,550.8000"/>
   <path d="M137.7000,91.8000L137.7000,97.9200"/>
   <path d="M137.7000,550.8000L137.7000,544.6800"/>
   <path d="M229.5000,91.8000L229.5000,97.9200"/>
   <path d="M229.5000,550.8000L229.5000,544.6800"/>
   <path d="M321.3000,91.8000L321.3000,97.9200"/>
   <path d="M321.3000,550.8000L321.3000,544.6800"/>
   <path d="M413.1000,91.8000L413.1000,97.9200"/>
   <path d="M413.1000,550.8000L413.1000,544.6800"/>
   <path d="M504.9000,91.8000L504.9000,97.9200"/>
   <path d="M504.9000,550.8000L504.9000,544.6800"/>
   <path d="M596.7000,91.8000L596.7000,97.9200"/>
   <path d="M596.7000,550.8000L596.7000,544.6800"/>
   <path d="M688.5000,91.8000L688.5000,97.9200"/>
   <path d="M688.5000,550.8000L688.5000,544.6800"/>
   <path d="M91.8000,91.8000L91.8000,104.0400"/>
   <path d="M91.8000,550.8000L91.8000,538.5600"/>
   <path d="M183.6000,91.8000L183.6000,104.0400"/>
   <path d="M183.6000,550.8000L183.6000,538.5600"/>
   <path d="M275.4000,91.8000L275.4000,104.0400"/>
   <path d="M275.4000,550.8000L275.4000,538.5600"/>
   <path d="M367.2000,91.8000L367.2000,104.0400"/>
   <path d="M367.2000,550.8000L367.2000,538.5600"/>
   <path d="M459.0000,91.8000L459.0000,104.0400"/>
   <path d="M459.0000,550.8000L459.0000,538.5600"/>
   <path d="M550.8000,91.8000L550.8000,104.0400"/>
   <path d="M550.8000,550.8000L550.8000,538.5600"/>
   <path d="M642.6000,91.8000L642.6000,104.0400"/>
   <path d="M642.6000,550.8000L642.6000,538.5600"/>
   <path d="M734.4000,91.8000L734.4000,104.0400"/>
   <path d="M734.4000,550.8000L734.4000,538.5600"/>
  </g>
  <g style="fill:#000000; fill-rule:nonzero">
   <text   style="font-family:'Times','Nimbus Roman'; font-style:normal; font-weight:normal; font-size:612.0000" transform="matrix(0.0280,0.0000,-0.0000,-0.0280,87.8000,74.6800)">0</text>
   <text   style="font-family:'Times','Nimbus Roman'; font-style:normal; font-weight:normal; font-size:612.0000" transform="matrix(0.0280,0.0000,-0.0000,-0.0280,180.1000,73.6800)">1</text>
   <text   style="font-family:'Times','Nimbus Roman'; font-style:normal; font-weight:normal; font-size:612.0000" transform="matrix(0.0280,0.0000,-0.0000,-0.0280,271.4000,74.6800)">2</text>
   <text   style="font-family:'Times','Nimbus Roman'; font-style:normal; font-weight:normal; font-size:612.0000" transform="matrix(0.0280,0.0000,-0.0000,-0.0280,363.7000,74.6800)">3</text>
   <text   style="font-family:'Times','Nimbus Roman'; font-style:normal; font-weight:normal; font-size:612.0000" transform="matrix(0.0280,0.0000,-0.0000,-0.0280,455.0000,74.6800)">4</text>
   <text   style="font-family:'Times','Nimbus Roman'; font-style:normal; font-weight:normal; font-size:612.0000" transform="matrix(0.0280,0.0000,-0.0000,-0.0280,546.8000,73.6800)">5</text>
   <text   style="font-family:'Times','Nimbus Roman'; font-style:normal; font-weight:normal; font-size:612.0000" transform="matrix(0.0280,0.0000,-0.0000,-0.0280,638.6000,73.6800)">6</text>
   <text   style="font-family:'Times','Nimbus Roman'; font-style:normal; font-weight:normal; font-size:612.0000" transform="matrix(0.0280,0.0000,-0.0000,-0.0280,730.4000,74.6800)">7</text>
  </g>
  <g style="fill:none; stroke:#000000; stroke-width:  0.9180; stroke-linecap:butt; stroke-linejoin:miter; stroke-dasharray:none">
   <path d="M91.8000,91.8000L91.8000,550.8000"/>
   <path d="M734.4000,91.8000L734.4000,550.8000"/>
   <path d="M91.8000,149.1750L97.9200,149.1750"/>
   <path d="M734.4000,149.1750L728.2800,149.1750"/>
   <path d="M91.8000,263.9250L97.9200,263.9250"/>
   <path d="M734.4000,263.9250L728.2800,263.9250"/>
   <path d="M91.8000,378.6750L97.9200,378.6750"/>
   <path d="M734.4000,378.6750L728.2800,378.6750"/>
   <path d="M91.8000,493.4250L97.9200,493.4250"/>
   <path d="M734.4000,493.4250L728.2800,493.4250"/>
   <path d="M91.8000,91.8000L104.0400,91.8000"/>
   <path d="M734.4000,91.8000L722.1600,91.8000"/>
   <path d="M91.8000,206.5500L104.0400,206.5500"/>
   <path d="M734.4000,206.5500L722.1600,206.5500"/>
   <path d="M91.8000,321.3000L104.0400,321.3000"/>
   <path d="M734.4000,321.3000L722.1600,321.3000"/>
   <path d="M91.8000,436.0500L104.0400,436.0500"/>
   <path d="M734.4000,436.0500L722.1600,436.0500"/>
   <path d="M91.8000,550.8000L104.0400,550.8000"/>
   <path d="M734.4000,550.8000L722.1600,550.8000"/>
  </g>
  <g style="fill:#000000; fill-rule:nonzero">
   <text   style="font-family:'Times','Nimbus Roman'; font-style:normal; font-weight:normal; font-size:612.0000" transform="matrix(0.0280,0.0000,-0.0000,-0.0280,77.6800,86.3000)">0</text>
   <text   style="font-family:'Times','Nimbus Roman'; font-style:normal; font-weight:normal; font-size:612.0000" transform="matrix(0.0280,0.0000,-0.0000,-0.0280,68.6800,200.5500)">50</text>
   <text   style="font-family:'Times','Nimbus Roman'; font-style:normal; font-weight:normal; font-size:612.0000" transform="matrix(0.0280,0.0000,-0.0000,-0.0280,60.6800,315.3000)">100</text>
   <text   style="font-family:'Times','Nimbus Roman'; font-style:normal; font-weight:normal; font-size:612.0000" transform="matrix(0.0280,0.0000,-0.0000,-0.0280,60.6800,430.0500)">150</text>
   <text   style="font-family:'Times','Nimbus Roman'; font-style:normal; font-weight:normal; font-size:612.0000" transform="matrix(0.0280,0.0000,-0.0000,-0.0280,60.6800,545.3000)">200</text>
  </g>
  <g style="fill:none; stroke:#000000; stroke-width:  0.9180; stroke-linecap:butt; stroke-linejoin:miter; stroke-dasharray:none">
   <path d="M91.8000,91.8000L91.8000,550.8000L734.4000,550.8000L734.4000,91.8000z"/>
  </g>
 </g>
</svg>
