<?xml version="1.0" encoding="ISO-8859-1"?>
<!DOCTYPE svg PUBLIC "-//W3C//DTD SVG 1.0//EN" "http://www.w3.org/TR/2001/REC-SVG-20010904/DTD/svg10.dtd">
<!-- generated by Grace-5.1.25 -->
<svg xml:space="preserve" width="11.0000in" height="8.5000in" viewBox="0.0000 0.0000 792.0000 612.0000">
 <g transform="translate(0,612.0000) scale(1,-1)">
  <g style="fill:#FFFFFF; fill-rule:nonzero">
   <path  d="M0.0000,0.0000L0.0000,612.0000L792.0000,612.0000L792.0000,0.0000z"/>
  </g>
  <g style="fill:none; stroke:#000000; stroke-width:  0.9180; stroke-linecap:butt; stroke-linejoin:miter; stroke-dasharray:none">
   <path d="M194.9220,91.8000L194.9220,114.7500L207.1620,114.7500L207.1620,91.8000z"/>
   <path d="M227.0520,91.8000L227.0520,91.8000L239.2920,91.8000L239.2920,91.8000z"/>
   <path d="M259.1820,91.8000L259.1820,91.8000L271.4220,91.8000L271.4220,91.8000z"/>
   <path d="M291.3120,91.8000L291.3120,91.8000L303.5520,91.8000L303.5520,91.8000z"/>
   <path d="M323.4420,91.8000L323.4420,114.7500L335.6820,114.7500L335.6820,91.8000z"/>
   <path d="M355.5720,91.8000L355.5720,126.2250L367.8120,126.2250L367.8120,91.8000z"/>
   <path d="M387.7020,91.8000L387.7020,160.6500L399.9420,160.6500L399.9420,91.8000z"/>
   <path d="M419.8320,91.8000L419.8320,229.5000L432.0720,229.5000L432.0720,91.8000z"/>
   <path d="M451.9620,91.8000L451.9620,332.7750L464.2020,332.7750L464.2020,91.8000z"/>
   <path d="M484.0920,91.8000L484.0920,481.9500L496.3320,481.9500L496.3320,91.8000z"/>
   <path d="M516.2220,91.8000L516.2220,447.5250L528.4620,447.5250L528.4620,91.8000z"/>
   <path d="M548.3520,91.8000L548.3520,206.5500L560.5920,206.5500L560.5920,91.8000z"/>
   <path d="M580.4820,91.8000L580.4820,229.5000L592.7220,229.5000L592.7220,91.8000z"/>
   <path d="M612.6120,91.8000L612.6120,160.6500L624.8520,160.6500L624.8520,91.8000z"/>
   <path d="M644.7420,91.8000L644.7420,137.7000L656.9820,137.7000L656.9820,91.8000z"/>
   <path d="M676.8720,91.8000L676.8720,114.7500L689.1120,114.7500L689.1120,91.8000z"/>
   <path d="M91.8000,91.8000L734.4000,91.8000"/>
   <path d="M91.8000,550.8000L734.4000,550.8000"/>
   <path d="M156.0600,91.8000L156.0600,97.9200"/>
   <path d="M156.0600,550.8000L156.0600,544.6800"/>
   <path d="M284.5800,91.8000L284.5800,97.9200"/>
   <path d="M284.5800,550.8000L284.5800,544.6800"/>
   <path d="M413.1000,91.8000L413.1000,97.9200"/>
   <path d="M413.1000,550.8000L413.1000,544.6800"/>
   <path d="M541.6200,91.8000L541.6200,97.9200"/>
   <path d="M541.6200,550.8000L541.6200,544.6800"/>
   <path d="M670.1400,91.8000L670.1400,97.9200"/>
   <path d="M670.1400,550.8000L670.1400,544.6800"/>
   <path d="M91.8000,91.8000L91.8000,104.0400"/>
   <path d="M91.8000,550.8000L91.8000,538.5600"/>
   <path d="M220.3200,91.8000L220.3200,104.0400"/>
   <path d="M220.3200,550.8000L220.3200,538.5600"/>
   <path d="M348.8400,91.8000L348.8400,104.0400"/>
   <path d="M348.8400,550.8000L348.8400,538.5600"/>
   <path d="M477.3600,91.8000L477.3600,104.0400"/>
   <path d="M477.3600,550.8000L477.3600,538.5600"/>
   <path d="M605.8800,91.8000L605.8800,104.0400"/>
   <path d="M605.8800,550.8000L605.8800,538.5600"/>
   <path d="M734.4000,91.8000L734.4000,104.0400"/>
   <path d="M734.4000,550.8000L734.4000,538.5600"/>
  </g>
  <g style="fill:#000000; fill-rule:nonzero">
   <text   style="font-family:'Times','Nimbus Roman'; font-style:normal; font-weight:normal; font-size:612.0000" transform="matrix(0.0280,0.0000,-0.0000,-0.0280,81.3000,74.6800)">0.9</text>
   <text   style="font-family:'Times','Nimbus Roman'; font-style:normal; font-weight:normal; font-size:612.0000" transform="matrix(0.0280,0.0000,-0.0000,-0.0280,206.3200,73.6800)">0.91</text>
   <text   style="font-family:'Times','Nimbus Roman'; font-style:normal; font-weight:normal; font-size:612.0000" transform="matrix(0.0280,0.0000,-0.0000,-0.0280,334.3400,74.6800)">0.92</text>
   <text   style="font-family:'Times','Nimbus Roman'; font-style:normal; font-weight:normal; font-size:612.0000" transform="matrix(0.0280,0.0000,-0.0000,-0.0280,463.3600,74.6800)">0.93</text>
   <text   style="font-family:'Times','Nimbus Roman'; font-style:normal; font-weight:normal; font-size:612.0000" transform="matrix(0.0280,0.0000,-0.0000,-0.0280,591.3800,74.6800)">0.94</text>
   <text   style="font-family:'Times','Nimbus Roman'; font-style:normal; font-weight:normal; font-size:612.0000" transform="matrix(0.0280,0.0000,-0.0000,-0.0280,719.9000,73.6800)">0.95</text>
  </g>
  <g style="fill:none; stroke:#000000; stroke-width:  0.9180; stroke-linecap:butt; stroke-linejoin:miter; stroke-dasharray:none">
   <path d="M91.8000,91.8000L91.8000,550.8000"/>
   <path d="M734.4000,91.8000L734.4000,550.8000"/>
   <path d="M91.8000,149.1750L97.9200,149.1750"/>
   <path d="M734.4000,149.1750L728.2800,149.1750"/>
   <path d="M91.8000,263.9250L97.9200,263.9250"/>
   <path d="M734.4000,263.9250L728.2800,263.9250"/>
   <path d="M91.8000,378.6750L97.9200,378.6750"/>
   <path d="M734.4000,378.6750L728.2800,378.6750"/>
   <path d="M91.8000,493.4250L97.9200,493.4250"/>
   <path d="M734.4000,493.4250L728.2800,493.4250"/>
   <path d="M91.8000,91.8000L104.0400,91.8000"/>
   <path d="M734.4000,91.8000L722.1600,91.8000"/>
   <path d="M91.8000,206.5500L104.0400,206.5500"/>
   <path d="M734.4000,206.5500L722.1600,206.5500"/>
   <path d="M91.8000,321.3000L104.0400,321.3000"/>
   <path d="M734.4000,321.3000L722.1600,321.3000"/>
   <path d="M91.8000,436.0500L104.0400,436.0500"/>
   <path d="M734.4000,436.0500L722.1600,436.0500"/>
   <path d="M91.8000,550.8000L104.0400,550.8000"/>
   <path d="M734.4000,550.8000L722.1600,550.8000"/>
  </g>
  <g style="fill:#000000; fill-rule:nonzero">
   <text   style="font-family:'Times','Nimbus Roman'; font-style:normal; font-weight:normal; font-size:612.0000" transform="matrix(0.0280,0.0000,-0.0000,-0.0280,77.6800,86.3000)">0</text>
   <text   style="font-family:'Times','Nimbus Roman'; font-style:normal; font-weight:normal; font-size:612.0000" transform="matrix(0.0280,0.0000,-0.0000,-0.0280,68.6800,200.5500)">10</text>
   <text   style="font-family:'Times','Nimbus Roman'; font-style:normal; font-weight:normal; font-size:612.0000" transform="matrix(0.0280,0.0000,-0.0000,-0.0280,68.6800,315.8000)">20</text>
   <text   style="font-family:'Times','Nimbus Roman'; font-style:normal; font-weight:normal; font-size:612.0000" transform="matrix(0.0280,0.0000,-0.0000,-0.0280,68.6800,430.5500)">30</text>
   <text   style="font-family:'Times','Nimbus Roman'; font-style:normal; font-weight:normal; font-size:612.0000" transform="matrix(0.0280,0.0000,-0.0000,-0.0280,68.6800,545.3000)">40</text>
  </g>
  <g style="fill:none; stroke:#000000; stroke-width:  0.9180; stroke-linecap:butt; stroke-linejoin:miter; stroke-dasharray:none">
   <path d="M91.8000,91.8000L91.8000,550.8000L734.4000,550.8000L734.4000,91.8000z"/>
  </g>
 </g>
</svg>
