<?xml version="1.0" encoding="ISO-8859-1"?>
<!DOCTYPE svg PUBLIC "-//W3C//DTD SVG 1.0//EN" "http://www.w3.org/TR/2001/REC-SVG-20010904/DTD/svg10.dtd">
<!-- generated by Grace-5.1.25 -->
<svg xml:space="preserve" width="11.0000in" height="8.5000in" viewBox="0.0000 0.0000 792.0000 612.0000">
 <g transform="translate(0,612.0000) scale(1,-1)">
  <g style="fill:#FFFFFF; fill-rule:nonzero">
   <path  d="M0.0000,0.0000L0.0000,612.0000L792.0000,612.0000L792.0000,0.0000z"/>
  </g>
  <g style="fill:none; stroke:#000000; stroke-width:  0.9180; stroke-linecap:butt; stroke-linejoin:miter; stroke-dasharray:none">
   <path d="M98.2308,91.8000L98.2308,91.8000L110.4708,91.8000L110.4708,91.8000z"/>
   <path d="M110.7816,91.8000L110.7816,91.8000L123.0216,91.8000L123.0216,91.8000z"/>
   <path d="M123.3323,91.8000L123.3323,91.8000L135.5723,91.8000L135.5723,91.8000z"/>
   <path d="M135.8831,91.8000L135.8831,91.8000L148.1231,91.8000L148.1231,91.8000z"/>
   <path d="M148.4339,91.8000L148.4339,91.8000L160.6739,91.8000L160.6739,91.8000z"/>
   <path d="M160.9847,91.8000L160.9847,91.8000L173.2247,91.8000L173.2247,91.8000z"/>
   <path d="M173.5355,91.8000L173.5355,91.8000L185.7755,91.8000L185.7755,91.8000z"/>
   <path d="M186.0862,91.8000L186.0862,91.8000L198.3262,91.8000L198.3262,91.8000z"/>
   <path d="M198.6370,91.8000L198.6370,91.8000L210.8770,91.8000L210.8770,91.8000z"/>
   <path d="M211.1878,91.8000L211.1878,91.8000L223.4278,91.8000L223.4278,91.8000z"/>
   <path d="M223.7386,91.8000L223.7386,91.8000L235.9786,91.8000L235.9786,91.8000z"/>
   <path d="M236.2894,91.8000L236.2894,91.8000L248.5294,91.8000L248.5294,91.8000z"/>
   <path d="M248.8402,91.8000L248.8402,91.8000L261.0802,91.8000L261.0802,91.8000z"/>
   <path d="M261.3909,91.8000L261.3909,91.8000L273.6309,91.8000L273.6309,91.8000z"/>
   <path d="M273.9417,91.8000L273.9417,91.8000L286.1817,91.8000L286.1817,91.8000z"/>
   <path d="M286.4925,91.8000L286.4925,91.8000L298.7325,91.8000L298.7325,91.8000z"/>
   <path d="M299.0433,91.8000L299.0433,91.8000L311.2833,91.8000L311.2833,91.8000z"/>
   <path d="M311.5941,91.8000L311.5941,91.8000L323.8341,91.8000L323.8341,91.8000z"/>
   <path d="M324.1448,91.8000L324.1448,91.8000L336.3848,91.8000L336.3848,91.8000z"/>
   <path d="M336.6956,91.8000L336.6956,91.8000L348.9356,91.8000L348.9356,91.8000z"/>
   <path d="M349.2464,91.8000L349.2464,91.8000L361.4864,91.8000L361.4864,91.8000z"/>
   <path d="M361.7972,91.8000L361.7972,173.4000L374.0372,173.4000L374.0372,91.8000z"/>
   <path d="M374.3480,91.8000L374.3480,525.3000L386.5880,525.3000L386.5880,91.8000z"/>
   <path d="M386.8987,91.8000L386.8987,275.4000L399.1387,275.4000L399.1387,91.8000z"/>
   <path d="M399.4495,91.8000L399.4495,117.3000L411.6895,117.3000L411.6895,91.8000z"/>
   <path d="M412.0003,91.8000L412.0003,91.8000L424.2403,91.8000L424.2403,91.8000z"/>
   <path d="M424.5511,91.8000L424.5511,96.9000L436.7911,96.9000L436.7911,91.8000z"/>
   <path d="M437.1019,91.8000L437.1019,96.9000L449.3419,96.9000L449.3419,91.8000z"/>
   <path d="M449.6527,91.8000L449.6527,96.9000L461.8927,96.9000L461.8927,91.8000z"/>
   <path d="M462.2034,91.8000L462.2034,91.8000L474.4434,91.8000L474.4434,91.8000z"/>
   <path d="M474.7542,91.8000L474.7542,91.8000L486.9942,91.8000L486.9942,91.8000z"/>
   <path d="M487.3050,91.8000L487.3050,91.8000L499.5450,91.8000L499.5450,91.8000z"/>
   <path d="M91.8000,91.8000L734.4000,91.8000"/>
   <path d="M91.8000,550.8000L734.4000,550.8000"/>
   <path d="M172.1250,91.8000L172.1250,97.9200"/>
   <path d="M172.1250,550.8000L172.1250,544.6800"/>
   <path d="M332.7750,91.8000L332.7750,97.9200"/>
   <path d="M332.7750,550.8000L332.7750,544.6800"/>
   <path d="M493.4250,91.8000L493.4250,97.9200"/>
   <path d="M493.4250,550.8000L493.4250,544.6800"/>
   <path d="M654.0750,91.8000L654.0750,97.9200"/>
   <path d="M654.0750,550.8000L654.0750,544.6800"/>
   <path d="M91.8000,91.8000L91.8000,104.0400"/>
   <path d="M91.8000,550.8000L91.8000,538.5600"/>
   <path d="M252.4500,91.8000L252.4500,104.0400"/>
   <path d="M252.4500,550.8000L252.4500,538.5600"/>
   <path d="M413.1000,91.8000L413.1000,104.0400"/>
   <path d="M413.1000,550.8000L413.1000,538.5600"/>
   <path d="M573.7500,91.8000L573.7500,104.0400"/>
   <path d="M573.7500,550.8000L573.7500,538.5600"/>
   <path d="M734.4000,91.8000L734.4000,104.0400"/>
   <path d="M734.4000,550.8000L734.4000,538.5600"/>
  </g>
  <g style="fill:#000000; fill-rule:nonzero">
   <text   style="font-family:'Times','Nimbus Roman'; font-style:normal; font-weight:normal; font-size:612.0000" transform="matrix(0.0280,0.0000,-0.0000,-0.0280,87.8000,74.6800)">0</text>
   <text   style="font-family:'Times','Nimbus Roman'; font-style:normal; font-weight:normal; font-size:612.0000" transform="matrix(0.0280,0.0000,-0.0000,-0.0280,241.9500,73.6800)">0.5</text>
   <text   style="font-family:'Times','Nimbus Roman'; font-style:normal; font-weight:normal; font-size:612.0000" transform="matrix(0.0280,0.0000,-0.0000,-0.0280,409.6000,73.6800)">1</text>
   <text   style="font-family:'Times','Nimbus Roman'; font-style:normal; font-weight:normal; font-size:612.0000" transform="matrix(0.0280,0.0000,-0.0000,-0.0280,563.2500,73.6800)">1.5</text>
   <text   style="font-family:'Times','Nimbus Roman'; font-style:normal; font-weight:normal; font-size:612.0000" transform="matrix(0.0280,0.0000,-0.0000,-0.0280,730.4000,74.6800)">2</text>
  </g>
  <g style="fill:none; stroke:#000000; stroke-width:  0.9180; stroke-linecap:butt; stroke-linejoin:miter; stroke-dasharray:none">
   <path d="M91.8000,91.8000L91.8000,550.8000"/>
   <path d="M734.4000,91.8000L734.4000,550.8000"/>
   <path d="M91.8000,142.8000L97.9200,142.8000"/>
   <path d="M734.4000,142.8000L728.2800,142.8000"/>
   <path d="M91.8000,244.8000L97.9200,244.8000"/>
   <path d="M734.4000,244.8000L728.2800,244.8000"/>
   <path d="M91.8000,346.8000L97.9200,346.8000"/>
   <path d="M734.4000,346.8000L728.2800,346.8000"/>
   <path d="M91.8000,448.8000L97.9200,448.8000"/>
   <path d="M734.4000,448.8000L728.2800,448.8000"/>
   <path d="M91.8000,550.8000L97.9200,550.8000"/>
   <path d="M734.4000,550.8000L728.2800,550.8000"/>
   <path d="M91.8000,91.8000L104.0400,91.8000"/>
   <path d="M734.4000,91.8000L722.1600,91.8000"/>
   <path d="M91.8000,193.8000L104.0400,193.8000"/>
   <path d="M734.4000,193.8000L722.1600,193.8000"/>
   <path d="M91.8000,295.8000L104.0400,295.8000"/>
   <path d="M734.4000,295.8000L722.1600,295.8000"/>
   <path d="M91.8000,397.8000L104.0400,397.8000"/>
   <path d="M734.4000,397.8000L722.1600,397.8000"/>
   <path d="M91.8000,499.8000L104.0400,499.8000"/>
   <path d="M734.4000,499.8000L722.1600,499.8000"/>
  </g>
  <g style="fill:#000000; fill-rule:nonzero">
   <text   style="font-family:'Times','Nimbus Roman'; font-style:normal; font-weight:normal; font-size:612.0000" transform="matrix(0.0280,0.0000,-0.0000,-0.0280,77.6800,86.3000)">0</text>
   <text   style="font-family:'Times','Nimbus Roman'; font-style:normal; font-weight:normal; font-size:612.0000" transform="matrix(0.0280,0.0000,-0.0000,-0.0280,68.6800,188.3000)">20</text>
   <text   style="font-family:'Times','Nimbus Roman'; font-style:normal; font-weight:normal; font-size:612.0000" transform="matrix(0.0280,0.0000,-0.0000,-0.0280,68.6800,290.3000)">40</text>
   <text   style="font-family:'Times','Nimbus Roman'; font-style:normal; font-weight:normal; font-size:612.0000" transform="matrix(0.0280,0.0000,-0.0000,-0.0280,68.6800,391.8000)">60</text>
   <text   style="font-family:'Times','Nimbus Roman'; font-style:normal; font-weight:normal; font-size:612.0000" transform="matrix(0.0280,0.0000,-0.0000,-0.0280,68.6800,494.3000)">80</text>
  </g>
  <g style="fill:none; stroke:#000000; stroke-width:  0.9180; stroke-linecap:butt; stroke-linejoin:miter; stroke-dasharray:none">
   <path d="M91.8000,91.8000L91.8000,550.8000L734.4000,550.8000L734.4000,91.8000z"/>
  </g>
 </g>
</svg>
