<?xml version="1.0" encoding="ISO-8859-1"?>
<!DOCTYPE svg PUBLIC "-//W3C//DTD SVG 1.0//EN" "http://www.w3.org/TR/2001/REC-SVG-20010904/DTD/svg10.dtd">
<!-- generated by Grace-5.1.25 -->
<svg xml:space="preserve" width="11.0000in" height="8.5000in" viewBox="0.0000 0.0000 792.0000 612.0000">
 <g transform="translate(0,612.0000) scale(1,-1)">
  <g style="fill:#FFFFFF; fill-rule:nonzero">
   <path  d="M0.0000,0.0000L0.0000,612.0000L792.0000,612.0000L792.0000,0.0000z"/>
  </g>
  <g style="fill:none; stroke:#000000; stroke-width:  0.9180; stroke-linecap:butt; stroke-linejoin:miter; stroke-dasharray:none">
   <path d="M144.5262,91.8000L144.5262,91.8000L156.7662,91.8000L156.7662,91.8000z"/>
   <path d="M165.1223,91.8000L165.1223,91.8000L177.3623,91.8000L177.3623,91.8000z"/>
   <path d="M185.7185,91.8000L185.7185,177.4800L197.9585,177.4800L197.9585,91.8000z"/>
   <path d="M206.3146,91.8000L206.3146,120.3600L218.5546,120.3600L218.5546,91.8000z"/>
   <path d="M226.9108,91.8000L226.9108,206.0400L239.1508,206.0400L239.1508,91.8000z"/>
   <path d="M247.5069,91.8000L247.5069,163.2000L259.7469,163.2000L259.7469,91.8000z"/>
   <path d="M268.1031,91.8000L268.1031,177.4800L280.3431,177.4800L280.3431,91.8000z"/>
   <path d="M288.6992,91.8000L288.6992,148.9200L300.9392,148.9200L300.9392,91.8000z"/>
   <path d="M309.2954,91.8000L309.2954,248.8800L321.5354,248.8800L321.5354,91.8000z"/>
   <path d="M329.8915,91.8000L329.8915,206.0400L342.1315,206.0400L342.1315,91.8000z"/>
   <path d="M350.4877,91.8000L350.4877,234.6000L362.7277,234.6000L362.7277,91.8000z"/>
   <path d="M371.0838,91.8000L371.0838,163.2000L383.3238,163.2000L383.3238,91.8000z"/>
   <path d="M391.6800,91.8000L391.6800,248.8800L403.9200,248.8800L403.9200,91.8000z"/>
   <path d="M412.2762,91.8000L412.2762,306.0000L424.5162,306.0000L424.5162,91.8000z"/>
   <path d="M432.8723,91.8000L432.8723,191.7600L445.1123,191.7600L445.1123,91.8000z"/>
   <path d="M453.4685,91.8000L453.4685,177.4800L465.7085,177.4800L465.7085,91.8000z"/>
   <path d="M474.0646,91.8000L474.0646,177.4800L486.3046,177.4800L486.3046,91.8000z"/>
   <path d="M494.6608,91.8000L494.6608,220.3200L506.9008,220.3200L506.9008,91.8000z"/>
   <path d="M515.2569,91.8000L515.2569,306.0000L527.4969,306.0000L527.4969,91.8000z"/>
   <path d="M535.8531,91.8000L535.8531,191.7600L548.0931,191.7600L548.0931,91.8000z"/>
   <path d="M556.4492,91.8000L556.4492,134.6400L568.6892,134.6400L568.6892,91.8000z"/>
   <path d="M577.0454,91.8000L577.0454,106.0800L589.2854,106.0800L589.2854,91.8000z"/>
   <path d="M597.6415,91.8000L597.6415,91.8000L609.8815,91.8000L609.8815,91.8000z"/>
   <path d="M618.2377,91.8000L618.2377,91.8000L630.4777,91.8000L630.4777,91.8000z"/>
   <path d="M638.8338,91.8000L638.8338,91.8000L651.0738,91.8000L651.0738,91.8000z"/>
   <path d="M659.4300,91.8000L659.4300,91.8000L671.6700,91.8000L671.6700,91.8000z"/>
   <path d="M91.8000,91.8000L703.8000,91.8000"/>
   <path d="M91.8000,520.2000L703.8000,520.2000"/>
   <path d="M91.8000,91.8000L91.8000,104.0400"/>
   <path d="M91.8000,520.2000L91.8000,507.9600"/>
   <path d="M244.8000,91.8000L244.8000,104.0400"/>
   <path d="M244.8000,520.2000L244.8000,507.9600"/>
   <path d="M397.8000,91.8000L397.8000,104.0400"/>
   <path d="M397.8000,520.2000L397.8000,507.9600"/>
   <path d="M550.8000,91.8000L550.8000,104.0400"/>
   <path d="M550.8000,520.2000L550.8000,507.9600"/>
   <path d="M703.8000,91.8000L703.8000,104.0400"/>
   <path d="M703.8000,520.2000L703.8000,507.9600"/>
  </g>
  <g style="fill:#000000; fill-rule:nonzero">
   <text   style="font-family:'Times','Nimbus Roman'; font-style:normal; font-weight:normal; font-size:612.0000" transform="matrix(0.0280,0.0000,-0.0000,-0.0280,84.8000,74.6800)">-2</text>
   <text   style="font-family:'Times','Nimbus Roman'; font-style:normal; font-weight:normal; font-size:612.0000" transform="matrix(0.0280,0.0000,-0.0000,-0.0280,238.3000,73.6800)">-1</text>
   <text   style="font-family:'Times','Nimbus Roman'; font-style:normal; font-weight:normal; font-size:612.0000" transform="matrix(0.0280,0.0000,-0.0000,-0.0280,393.8000,74.6800)">0</text>
   <text   style="font-family:'Times','Nimbus Roman'; font-style:normal; font-weight:normal; font-size:612.0000" transform="matrix(0.0280,0.0000,-0.0000,-0.0280,547.3000,73.6800)">1</text>
   <text   style="font-family:'Times','Nimbus Roman'; font-style:normal; font-weight:normal; font-size:612.0000" transform="matrix(0.0280,0.0000,-0.0000,-0.0280,699.8000,74.6800)">2</text>
  </g>
  <g style="fill:none; stroke:#000000; stroke-width:  0.9180; stroke-linecap:butt; stroke-linejoin:miter; stroke-dasharray:none">
   <path d="M91.8000,91.8000L91.8000,520.2000"/>
   <path d="M703.8000,91.8000L703.8000,520.2000"/>
   <path d="M91.8000,91.8000L104.0400,91.8000"/>
   <path d="M703.8000,91.8000L691.5600,91.8000"/>
   <path d="M91.8000,306.0000L104.0400,306.0000"/>
   <path d="M703.8000,306.0000L691.5600,306.0000"/>
   <path d="M91.8000,520.2000L104.0400,520.2000"/>
   <path d="M703.8000,520.2000L691.5600,520.2000"/>
  </g>
  <g style="fill:#000000; fill-rule:nonzero">
   <text   style="font-family:'Times','Nimbus Roman'; font-style:normal; font-weight:normal; font-size:612.0000" transform="matrix(0.0280,0.0000,-0.0000,-0.0280,77.6800,86.3000)">0</text>
   <text   style="font-family:'Times','Nimbus Roman'; font-style:normal; font-weight:normal; font-size:612.0000" transform="matrix(0.0280,0.0000,-0.0000,-0.0280,68.6800,300.0000)">15</text>
   <text   style="font-family:'Times','Nimbus Roman'; font-style:normal; font-weight:normal; font-size:612.0000" transform="matrix(0.0280,0.0000,-0.0000,-0.0280,68.6800,514.7000)">30</text>
  </g>
  <g style="fill:none; stroke:#000000; stroke-width:  0.9180; stroke-linecap:butt; stroke-linejoin:miter; stroke-dasharray:none">
   <path d="M91.8000,91.8000L91.8000,520.2000L703.8000,520.2000L703.8000,91.8000z"/>
  </g>
 </g>
</svg>
