<?xml version="1.0" encoding="ISO-8859-1"?>
<!DOCTYPE svg PUBLIC "-//W3C//DTD SVG 1.0//EN" "http://www.w3.org/TR/2001/REC-SVG-20010904/DTD/svg10.dtd">
<!-- generated by Grace-5.1.25 -->
<svg xml:space="preserve" width="11.0000in" height="8.5000in" viewBox="0.0000 0.0000 792.0000 612.0000">
 <g transform="translate(0,612.0000) scale(1,-1)">
  <g style="fill:#FFFFFF; fill-rule:nonzero">
   <path  d="M0.0000,0.0000L0.0000,612.0000L792.0000,612.0000L792.0000,0.0000z"/>
  </g>
  <g style="fill:none; stroke:#000000; stroke-width:  0.9180; stroke-linecap:butt; stroke-linejoin:miter; stroke-dasharray:none">
   <path d="M122.6295,91.8000L122.6295,452.1150L134.8695,452.1150L134.8695,91.8000z"/>
   <path d="M159.5790,91.8000L159.5790,126.2250L171.8190,126.2250L171.8190,91.8000z"/>
   <path d="M196.5285,91.8000L196.5285,112.4550L208.7685,112.4550L208.7685,91.8000z"/>
   <path d="M233.4780,91.8000L233.4780,110.1600L245.7180,110.1600L245.7180,91.8000z"/>
   <path d="M270.4275,91.8000L270.4275,100.9800L282.6675,100.9800L282.6675,91.8000z"/>
   <path d="M307.3770,91.8000L307.3770,98.6850L319.6170,98.6850L319.6170,91.8000z"/>
   <path d="M344.3265,91.8000L344.3265,91.8000L356.5665,91.8000L356.5665,91.8000z"/>
   <path d="M381.2760,91.8000L381.2760,98.6850L393.5160,98.6850L393.5160,91.8000z"/>
   <path d="M418.2255,91.8000L418.2255,96.3900L430.4655,96.3900L430.4655,91.8000z"/>
   <path d="M455.1750,91.8000L455.1750,96.3900L467.4150,96.3900L467.4150,91.8000z"/>
   <path d="M492.1245,91.8000L492.1245,96.3900L504.3645,96.3900L504.3645,91.8000z"/>
   <path d="M529.0740,91.8000L529.0740,98.6850L541.3140,98.6850L541.3140,91.8000z"/>
   <path d="M566.0235,91.8000L566.0235,98.6850L578.2635,98.6850L578.2635,91.8000z"/>
   <path d="M602.9730,91.8000L602.9730,98.6850L615.2130,98.6850L615.2130,91.8000z"/>
   <path d="M639.9225,91.8000L639.9225,98.6850L652.1625,98.6850L652.1625,91.8000z"/>
   <path d="M676.8720,91.8000L676.8720,110.1600L689.1120,110.1600L689.1120,91.8000z"/>
   <path d="M91.8000,91.8000L734.4000,91.8000"/>
   <path d="M91.8000,550.8000L734.4000,550.8000"/>
   <path d="M172.1250,91.8000L172.1250,97.9200"/>
   <path d="M172.1250,550.8000L172.1250,544.6800"/>
   <path d="M332.7750,91.8000L332.7750,97.9200"/>
   <path d="M332.7750,550.8000L332.7750,544.6800"/>
   <path d="M493.4250,91.8000L493.4250,97.9200"/>
   <path d="M493.4250,550.8000L493.4250,544.6800"/>
   <path d="M654.0750,91.8000L654.0750,97.9200"/>
   <path d="M654.0750,550.8000L654.0750,544.6800"/>
   <path d="M91.8000,91.8000L91.8000,104.0400"/>
   <path d="M91.8000,550.8000L91.8000,538.5600"/>
   <path d="M252.4500,91.8000L252.4500,104.0400"/>
   <path d="M252.4500,550.8000L252.4500,538.5600"/>
   <path d="M413.1000,91.8000L413.1000,104.0400"/>
   <path d="M413.1000,550.8000L413.1000,538.5600"/>
   <path d="M573.7500,91.8000L573.7500,104.0400"/>
   <path d="M573.7500,550.8000L573.7500,538.5600"/>
   <path d="M734.4000,91.8000L734.4000,104.0400"/>
   <path d="M734.4000,550.8000L734.4000,538.5600"/>
  </g>
  <g style="fill:#000000; fill-rule:nonzero">
   <text   style="font-family:'Times','Nimbus Roman'; font-style:normal; font-weight:normal; font-size:612.0000" transform="matrix(0.0280,0.0000,-0.0000,-0.0280,87.8000,74.6800)">0</text>
   <text   style="font-family:'Times','Nimbus Roman'; font-style:normal; font-weight:normal; font-size:612.0000" transform="matrix(0.0280,0.0000,-0.0000,-0.0280,241.9500,74.6800)">0.2</text>
   <text   style="font-family:'Times','Nimbus Roman'; font-style:normal; font-weight:normal; font-size:612.0000" transform="matrix(0.0280,0.0000,-0.0000,-0.0280,402.6000,74.6800)">0.4</text>
   <text   style="font-family:'Times','Nimbus Roman'; font-style:normal; font-weight:normal; font-size:612.0000" transform="matrix(0.0280,0.0000,-0.0000,-0.0280,563.2500,73.6800)">0.6</text>
   <text   style="font-family:'Times','Nimbus Roman'; font-style:normal; font-weight:normal; font-size:612.0000" transform="matrix(0.0280,0.0000,-0.0000,-0.0280,724.4000,74.6800)">0.8</text>
  </g>
  <g style="fill:none; stroke:#000000; stroke-width:  0.9180; stroke-linecap:butt; stroke-linejoin:miter; stroke-dasharray:none">
   <path d="M91.8000,91.8000L91.8000,550.8000"/>
   <path d="M734.4000,91.8000L734.4000,550.8000"/>
   <path d="M91.8000,149.1750L97.9200,149.1750"/>
   <path d="M734.4000,149.1750L728.2800,149.1750"/>
   <path d="M91.8000,263.9250L97.9200,263.9250"/>
   <path d="M734.4000,263.9250L728.2800,263.9250"/>
   <path d="M91.8000,378.6750L97.9200,378.6750"/>
   <path d="M734.4000,378.6750L728.2800,378.6750"/>
   <path d="M91.8000,493.4250L97.9200,493.4250"/>
   <path d="M734.4000,493.4250L728.2800,493.4250"/>
   <path d="M91.8000,91.8000L104.0400,91.8000"/>
   <path d="M734.4000,91.8000L722.1600,91.8000"/>
   <path d="M91.8000,206.5500L104.0400,206.5500"/>
   <path d="M734.4000,206.5500L722.1600,206.5500"/>
   <path d="M91.8000,321.3000L104.0400,321.3000"/>
   <path d="M734.4000,321.3000L722.1600,321.3000"/>
   <path d="M91.8000,436.0500L104.0400,436.0500"/>
   <path d="M734.4000,436.0500L722.1600,436.0500"/>
   <path d="M91.8000,550.8000L104.0400,550.8000"/>
   <path d="M734.4000,550.8000L722.1600,550.8000"/>
  </g>
  <g style="fill:#000000; fill-rule:nonzero">
   <text   style="font-family:'Times','Nimbus Roman'; font-style:normal; font-weight:normal; font-size:612.0000" transform="matrix(0.0280,0.0000,-0.0000,-0.0280,77.6800,86.3000)">0</text>
   <text   style="font-family:'Times','Nimbus Roman'; font-style:normal; font-weight:normal; font-size:612.0000" transform="matrix(0.0280,0.0000,-0.0000,-0.0280,68.6800,200.5500)">50</text>
   <text   style="font-family:'Times','Nimbus Roman'; font-style:normal; font-weight:normal; font-size:612.0000" transform="matrix(0.0280,0.0000,-0.0000,-0.0280,60.6800,315.3000)">100</text>
   <text   style="font-family:'Times','Nimbus Roman'; font-style:normal; font-weight:normal; font-size:612.0000" transform="matrix(0.0280,0.0000,-0.0000,-0.0280,60.6800,430.0500)">150</text>
   <text   style="font-family:'Times','Nimbus Roman'; font-style:normal; font-weight:normal; font-size:612.0000" transform="matrix(0.0280,0.0000,-0.0000,-0.0280,60.6800,545.3000)">200</text>
  </g>
  <g style="fill:none; stroke:#000000; stroke-width:  0.9180; stroke-linecap:butt; stroke-linejoin:miter; stroke-dasharray:none">
   <path d="M91.8000,91.8000L91.8000,550.8000L734.4000,550.8000L734.4000,91.8000z"/>
  </g>
 </g>
</svg>
