<?xml version="1.0" encoding="ISO-8859-1"?>
<!DOCTYPE svg PUBLIC "-//W3C//DTD SVG 1.0//EN" "http://www.w3.org/TR/2001/REC-SVG-20010904/DTD/svg10.dtd">
<!-- generated by Grace-5.1.25 -->
<svg xml:space="preserve" width="11.0000in" height="8.5000in" viewBox="0.0000 0.0000 792.0000 612.0000">
 <g transform="translate(0,612.0000) scale(1,-1)">
  <g style="fill:#FFFFFF; fill-rule:nonzero">
   <path  d="M0.0000,0.0000L0.0000,612.0000L792.0000,612.0000L792.0000,0.0000z"/>
  </g>
  <g style="fill:none; stroke:#000000; stroke-width:  0.9180; stroke-linecap:butt; stroke-linejoin:miter; stroke-dasharray:none">
   <path d="M125.8425,91.8000L125.8425,534.7350L138.0825,534.7350L138.0825,91.8000z"/>
   <path d="M166.0050,91.8000L166.0050,110.1600L178.2450,110.1600L178.2450,91.8000z"/>
   <path d="M206.1675,91.8000L206.1675,98.6850L218.4075,98.6850L218.4075,91.8000z"/>
   <path d="M246.3300,91.8000L246.3300,100.9800L258.5700,100.9800L258.5700,91.8000z"/>
   <path d="M286.4925,91.8000L286.4925,94.0950L298.7325,94.0950L298.7325,91.8000z"/>
   <path d="M326.6550,91.8000L326.6550,91.8000L338.8950,91.8000L338.8950,91.8000z"/>
   <path d="M366.8175,91.8000L366.8175,91.8000L379.0575,91.8000L379.0575,91.8000z"/>
   <path d="M406.9800,91.8000L406.9800,91.8000L419.2200,91.8000L419.2200,91.8000z"/>
   <path d="M447.1425,91.8000L447.1425,94.0950L459.3825,94.0950L459.3825,91.8000z"/>
   <path d="M487.3050,91.8000L487.3050,91.8000L499.5450,91.8000L499.5450,91.8000z"/>
   <path d="M527.4675,91.8000L527.4675,91.8000L539.7075,91.8000L539.7075,91.8000z"/>
   <path d="M567.6300,91.8000L567.6300,91.8000L579.8700,91.8000L579.8700,91.8000z"/>
   <path d="M607.7925,91.8000L607.7925,91.8000L620.0325,91.8000L620.0325,91.8000z"/>
   <path d="M647.9550,91.8000L647.9550,91.8000L660.1950,91.8000L660.1950,91.8000z"/>
   <path d="M688.1175,91.8000L688.1175,91.8000L700.3575,91.8000L700.3575,91.8000z"/>
   <path d="M728.2800,91.8000L728.2800,94.0950L734.4612,94.0950"/>
   <path d="M734.4612,91.8000L728.2800,91.8000"/>
   <path d="M91.8000,91.8000L734.4000,91.8000"/>
   <path d="M91.8000,550.8000L734.4000,550.8000"/>
   <path d="M156.0600,91.8000L156.0600,97.9200"/>
   <path d="M156.0600,550.8000L156.0600,544.6800"/>
   <path d="M284.5800,91.8000L284.5800,97.9200"/>
   <path d="M284.5800,550.8000L284.5800,544.6800"/>
   <path d="M413.1000,91.8000L413.1000,97.9200"/>
   <path d="M413.1000,550.8000L413.1000,544.6800"/>
   <path d="M541.6200,91.8000L541.6200,97.9200"/>
   <path d="M541.6200,550.8000L541.6200,544.6800"/>
   <path d="M670.1400,91.8000L670.1400,97.9200"/>
   <path d="M670.1400,550.8000L670.1400,544.6800"/>
   <path d="M91.8000,91.8000L91.8000,104.0400"/>
   <path d="M91.8000,550.8000L91.8000,538.5600"/>
   <path d="M220.3200,91.8000L220.3200,104.0400"/>
   <path d="M220.3200,550.8000L220.3200,538.5600"/>
   <path d="M348.8400,91.8000L348.8400,104.0400"/>
   <path d="M348.8400,550.8000L348.8400,538.5600"/>
   <path d="M477.3600,91.8000L477.3600,104.0400"/>
   <path d="M477.3600,550.8000L477.3600,538.5600"/>
   <path d="M605.8800,91.8000L605.8800,104.0400"/>
   <path d="M605.8800,550.8000L605.8800,538.5600"/>
   <path d="M734.4000,91.8000L734.4000,104.0400"/>
   <path d="M734.4000,550.8000L734.4000,538.5600"/>
  </g>
  <g style="fill:#000000; fill-rule:nonzero">
   <text   style="font-family:'Times','Nimbus Roman'; font-style:normal; font-weight:normal; font-size:612.0000" transform="matrix(0.0280,0.0000,-0.0000,-0.0280,87.8000,74.6800)">0</text>
   <text   style="font-family:'Times','Nimbus Roman'; font-style:normal; font-weight:normal; font-size:612.0000" transform="matrix(0.0280,0.0000,-0.0000,-0.0280,216.8200,73.6800)">1</text>
   <text   style="font-family:'Times','Nimbus Roman'; font-style:normal; font-weight:normal; font-size:612.0000" transform="matrix(0.0280,0.0000,-0.0000,-0.0280,344.8400,74.6800)">2</text>
   <text   style="font-family:'Times','Nimbus Roman'; font-style:normal; font-weight:normal; font-size:612.0000" transform="matrix(0.0280,0.0000,-0.0000,-0.0280,473.8600,74.6800)">3</text>
   <text   style="font-family:'Times','Nimbus Roman'; font-style:normal; font-weight:normal; font-size:612.0000" transform="matrix(0.0280,0.0000,-0.0000,-0.0280,601.8800,74.6800)">4</text>
   <text   style="font-family:'Times','Nimbus Roman'; font-style:normal; font-weight:normal; font-size:612.0000" transform="matrix(0.0280,0.0000,-0.0000,-0.0280,730.4000,73.6800)">5</text>
  </g>
  <g style="fill:none; stroke:#000000; stroke-width:  0.9180; stroke-linecap:butt; stroke-linejoin:miter; stroke-dasharray:none">
   <path d="M91.8000,91.8000L91.8000,550.8000"/>
   <path d="M734.4000,91.8000L734.4000,550.8000"/>
   <path d="M91.8000,149.1750L97.9200,149.1750"/>
   <path d="M734.4000,149.1750L728.2800,149.1750"/>
   <path d="M91.8000,263.9250L97.9200,263.9250"/>
   <path d="M734.4000,263.9250L728.2800,263.9250"/>
   <path d="M91.8000,378.6750L97.9200,378.6750"/>
   <path d="M734.4000,378.6750L728.2800,378.6750"/>
   <path d="M91.8000,493.4250L97.9200,493.4250"/>
   <path d="M734.4000,493.4250L728.2800,493.4250"/>
   <path d="M91.8000,91.8000L104.0400,91.8000"/>
   <path d="M734.4000,91.8000L722.1600,91.8000"/>
   <path d="M91.8000,206.5500L104.0400,206.5500"/>
   <path d="M734.4000,206.5500L722.1600,206.5500"/>
   <path d="M91.8000,321.3000L104.0400,321.3000"/>
   <path d="M734.4000,321.3000L722.1600,321.3000"/>
   <path d="M91.8000,436.0500L104.0400,436.0500"/>
   <path d="M734.4000,436.0500L722.1600,436.0500"/>
   <path d="M91.8000,550.8000L104.0400,550.8000"/>
   <path d="M734.4000,550.8000L722.1600,550.8000"/>
  </g>
  <g style="fill:#000000; fill-rule:nonzero">
   <text   style="font-family:'Times','Nimbus Roman'; font-style:normal; font-weight:normal; font-size:612.0000" transform="matrix(0.0280,0.0000,-0.0000,-0.0280,77.6800,86.3000)">0</text>
   <text   style="font-family:'Times','Nimbus Roman'; font-style:normal; font-weight:normal; font-size:612.0000" transform="matrix(0.0280,0.0000,-0.0000,-0.0280,68.6800,200.5500)">50</text>
   <text   style="font-family:'Times','Nimbus Roman'; font-style:normal; font-weight:normal; font-size:612.0000" transform="matrix(0.0280,0.0000,-0.0000,-0.0280,60.6800,315.3000)">100</text>
   <text   style="font-family:'Times','Nimbus Roman'; font-style:normal; font-weight:normal; font-size:612.0000" transform="matrix(0.0280,0.0000,-0.0000,-0.0280,60.6800,430.0500)">150</text>
   <text   style="font-family:'Times','Nimbus Roman'; font-style:normal; font-weight:normal; font-size:612.0000" transform="matrix(0.0280,0.0000,-0.0000,-0.0280,60.6800,545.3000)">200</text>
  </g>
  <g style="fill:none; stroke:#000000; stroke-width:  0.9180; stroke-linecap:butt; stroke-linejoin:miter; stroke-dasharray:none">
   <path d="M91.8000,91.8000L91.8000,550.8000L734.4000,550.8000L734.4000,91.8000z"/>
  </g>
 </g>
</svg>
