<?xml version="1.0" encoding="ISO-8859-1"?>
<!DOCTYPE svg PUBLIC "-//W3C//DTD SVG 1.0//EN" "http://www.w3.org/TR/2001/REC-SVG-20010904/DTD/svg10.dtd">
<!-- generated by Grace-5.1.25 -->
<svg xml:space="preserve" width="11.0000in" height="8.5000in" viewBox="0.0000 0.0000 792.0000 612.0000">
 <g transform="translate(0,612.0000) scale(1,-1)">
  <g style="fill:#FFFFFF; fill-rule:nonzero">
   <path  d="M0.0000,0.0000L0.0000,612.0000L792.0000,612.0000L792.0000,0.0000z"/>
  </g>
  <g style="fill:none; stroke:#000000; stroke-width:  0.9180; stroke-linecap:butt; stroke-linejoin:miter; stroke-dasharray:none">
   <path d="M137.7000,91.8000L137.7000,479.6550L149.9400,479.6550L149.9400,91.8000z"/>
   <path d="M174.4200,91.8000L174.4200,183.6000L186.6600,183.6000L186.6600,91.8000z"/>
   <path d="M211.1400,91.8000L211.1400,105.5700L223.3800,105.5700L223.3800,91.8000z"/>
   <path d="M247.8600,91.8000L247.8600,100.9800L260.1000,100.9800L260.1000,91.8000z"/>
   <path d="M284.5800,91.8000L284.5800,94.0950L296.8200,94.0950L296.8200,91.8000z"/>
   <path d="M321.3000,91.8000L321.3000,91.8000L333.5400,91.8000L333.5400,91.8000z"/>
   <path d="M358.0200,91.8000L358.0200,91.8000L370.2600,91.8000L370.2600,91.8000z"/>
   <path d="M394.7400,91.8000L394.7400,91.8000L406.9800,91.8000L406.9800,91.8000z"/>
   <path d="M431.4600,91.8000L431.4600,91.8000L443.7000,91.8000L443.7000,91.8000z"/>
   <path d="M468.1800,91.8000L468.1800,91.8000L480.4200,91.8000L480.4200,91.8000z"/>
   <path d="M504.9000,91.8000L504.9000,91.8000L517.1400,91.8000L517.1400,91.8000z"/>
   <path d="M541.6200,91.8000L541.6200,91.8000L553.8600,91.8000L553.8600,91.8000z"/>
   <path d="M578.3400,91.8000L578.3400,91.8000L590.5800,91.8000L590.5800,91.8000z"/>
   <path d="M615.0600,91.8000L615.0600,96.3900L627.3000,96.3900L627.3000,91.8000z"/>
   <path d="M651.7800,91.8000L651.7800,91.8000L664.0200,91.8000L664.0200,91.8000z"/>
   <path d="M688.5000,91.8000L688.5000,98.6850L700.7400,98.6850L700.7400,91.8000z"/>
   <path d="M91.8000,91.8000L734.4000,91.8000"/>
   <path d="M91.8000,550.8000L734.4000,550.8000"/>
   <path d="M91.8000,91.8000L91.8000,97.9200"/>
   <path d="M91.8000,550.8000L91.8000,544.6800"/>
   <path d="M244.8000,91.8000L244.8000,97.9200"/>
   <path d="M244.8000,550.8000L244.8000,544.6800"/>
   <path d="M397.8000,91.8000L397.8000,97.9200"/>
   <path d="M397.8000,550.8000L397.8000,544.6800"/>
   <path d="M550.8000,91.8000L550.8000,97.9200"/>
   <path d="M550.8000,550.8000L550.8000,544.6800"/>
   <path d="M703.8000,91.8000L703.8000,97.9200"/>
   <path d="M703.8000,550.8000L703.8000,544.6800"/>
   <path d="M168.3000,91.8000L168.3000,104.0400"/>
   <path d="M168.3000,550.8000L168.3000,538.5600"/>
   <path d="M321.3000,91.8000L321.3000,104.0400"/>
   <path d="M321.3000,550.8000L321.3000,538.5600"/>
   <path d="M474.3000,91.8000L474.3000,104.0400"/>
   <path d="M474.3000,550.8000L474.3000,538.5600"/>
   <path d="M627.3000,91.8000L627.3000,104.0400"/>
   <path d="M627.3000,550.8000L627.3000,538.5600"/>
  </g>
  <g style="fill:#000000; fill-rule:nonzero">
   <text   style="font-family:'Times','Nimbus Roman'; font-style:normal; font-weight:normal; font-size:612.0000" transform="matrix(0.0280,0.0000,-0.0000,-0.0280,164.3000,74.6800)">0</text>
   <text   style="font-family:'Times','Nimbus Roman'; font-style:normal; font-weight:normal; font-size:612.0000" transform="matrix(0.0280,0.0000,-0.0000,-0.0280,312.8000,73.6800)">10</text>
   <text   style="font-family:'Times','Nimbus Roman'; font-style:normal; font-weight:normal; font-size:612.0000" transform="matrix(0.0280,0.0000,-0.0000,-0.0280,465.8000,74.6800)">20</text>
   <text   style="font-family:'Times','Nimbus Roman'; font-style:normal; font-weight:normal; font-size:612.0000" transform="matrix(0.0280,0.0000,-0.0000,-0.0280,618.8000,74.6800)">30</text>
  </g>
  <g style="fill:none; stroke:#000000; stroke-width:  0.9180; stroke-linecap:butt; stroke-linejoin:miter; stroke-dasharray:none">
   <path d="M91.8000,91.8000L91.8000,550.8000"/>
   <path d="M734.4000,91.8000L734.4000,550.8000"/>
   <path d="M91.8000,149.1750L97.9200,149.1750"/>
   <path d="M734.4000,149.1750L728.2800,149.1750"/>
   <path d="M91.8000,263.9250L97.9200,263.9250"/>
   <path d="M734.4000,263.9250L728.2800,263.9250"/>
   <path d="M91.8000,378.6750L97.9200,378.6750"/>
   <path d="M734.4000,378.6750L728.2800,378.6750"/>
   <path d="M91.8000,493.4250L97.9200,493.4250"/>
   <path d="M734.4000,493.4250L728.2800,493.4250"/>
   <path d="M91.8000,91.8000L104.0400,91.8000"/>
   <path d="M734.4000,91.8000L722.1600,91.8000"/>
   <path d="M91.8000,206.5500L104.0400,206.5500"/>
   <path d="M734.4000,206.5500L722.1600,206.5500"/>
   <path d="M91.8000,321.3000L104.0400,321.3000"/>
   <path d="M734.4000,321.3000L722.1600,321.3000"/>
   <path d="M91.8000,436.0500L104.0400,436.0500"/>
   <path d="M734.4000,436.0500L722.1600,436.0500"/>
   <path d="M91.8000,550.8000L104.0400,550.8000"/>
   <path d="M734.4000,550.8000L722.1600,550.8000"/>
  </g>
  <g style="fill:#000000; fill-rule:nonzero">
   <text   style="font-family:'Times','Nimbus Roman'; font-style:normal; font-weight:normal; font-size:612.0000" transform="matrix(0.0280,0.0000,-0.0000,-0.0280,77.6800,86.3000)">0</text>
   <text   style="font-family:'Times','Nimbus Roman'; font-style:normal; font-weight:normal; font-size:612.0000" transform="matrix(0.0280,0.0000,-0.0000,-0.0280,68.6800,200.5500)">50</text>
   <text   style="font-family:'Times','Nimbus Roman'; font-style:normal; font-weight:normal; font-size:612.0000" transform="matrix(0.0280,0.0000,-0.0000,-0.0280,60.6800,315.3000)">100</text>
   <text   style="font-family:'Times','Nimbus Roman'; font-style:normal; font-weight:normal; font-size:612.0000" transform="matrix(0.0280,0.0000,-0.0000,-0.0280,60.6800,430.0500)">150</text>
   <text   style="font-family:'Times','Nimbus Roman'; font-style:normal; font-weight:normal; font-size:612.0000" transform="matrix(0.0280,0.0000,-0.0000,-0.0280,60.6800,545.3000)">200</text>
  </g>
  <g style="fill:none; stroke:#000000; stroke-width:  0.9180; stroke-linecap:butt; stroke-linejoin:miter; stroke-dasharray:none">
   <path d="M91.8000,91.8000L91.8000,550.8000L734.4000,550.8000L734.4000,91.8000z"/>
  </g>
 </g>
</svg>
