<?xml version="1.0" encoding="ISO-8859-1"?>
<!DOCTYPE svg PUBLIC "-//W3C//DTD SVG 1.0//EN" "http://www.w3.org/TR/2001/REC-SVG-20010904/DTD/svg10.dtd">
<!-- generated by Grace-5.1.25 -->
<svg xml:space="preserve" width="11.0000in" height="8.5000in" viewBox="0.0000 0.0000 792.0000 612.0000">
 <g transform="translate(0,612.0000) scale(1,-1)">
  <g style="fill:#FFFFFF; fill-rule:nonzero">
   <path  d="M0.0000,0.0000L0.0000,612.0000L792.0000,612.0000L792.0000,0.0000z"/>
  </g>
  <g style="fill:none; stroke:#000000; stroke-width:  0.9180; stroke-linecap:butt; stroke-linejoin:miter; stroke-dasharray:none">
   <path d="M137.0880,91.8000L137.0880,415.3950L149.3280,415.3950L149.3280,91.8000z"/>
   <path d="M175.6440,91.8000L175.6440,252.4500L187.8840,252.4500L187.8840,91.8000z"/>
   <path d="M214.2000,91.8000L214.2000,100.9800L226.4400,100.9800L226.4400,91.8000z"/>
   <path d="M252.7560,91.8000L252.7560,91.8000L264.9960,91.8000L264.9960,91.8000z"/>
   <path d="M291.3120,91.8000L291.3120,91.8000L303.5520,91.8000L303.5520,91.8000z"/>
   <path d="M329.8680,91.8000L329.8680,91.8000L342.1080,91.8000L342.1080,91.8000z"/>
   <path d="M368.4240,91.8000L368.4240,96.3900L380.6640,96.3900L380.6640,91.8000z"/>
   <path d="M406.9800,91.8000L406.9800,91.8000L419.2200,91.8000L419.2200,91.8000z"/>
   <path d="M445.5360,91.8000L445.5360,94.0950L457.7760,94.0950L457.7760,91.8000z"/>
   <path d="M484.0920,91.8000L484.0920,91.8000L496.3320,91.8000L496.3320,91.8000z"/>
   <path d="M522.6480,91.8000L522.6480,94.0950L534.8880,94.0950L534.8880,91.8000z"/>
   <path d="M561.2040,91.8000L561.2040,98.6850L573.4440,98.6850L573.4440,91.8000z"/>
   <path d="M599.7600,91.8000L599.7600,94.0950L612.0000,94.0950L612.0000,91.8000z"/>
   <path d="M638.3160,91.8000L638.3160,91.8000L650.5560,91.8000L650.5560,91.8000z"/>
   <path d="M676.8720,91.8000L676.8720,94.0950L689.1120,94.0950L689.1120,91.8000z"/>
   <path d="M715.4280,91.8000L715.4280,94.0950L727.6680,94.0950L727.6680,91.8000z"/>
   <path d="M91.8000,91.8000L734.4000,91.8000"/>
   <path d="M91.8000,550.8000L734.4000,550.8000"/>
   <path d="M91.8000,91.8000L91.8000,97.9200"/>
   <path d="M91.8000,550.8000L91.8000,544.6800"/>
   <path d="M220.3200,91.8000L220.3200,97.9200"/>
   <path d="M220.3200,550.8000L220.3200,544.6800"/>
   <path d="M348.8400,91.8000L348.8400,97.9200"/>
   <path d="M348.8400,550.8000L348.8400,544.6800"/>
   <path d="M477.3600,91.8000L477.3600,97.9200"/>
   <path d="M477.3600,550.8000L477.3600,544.6800"/>
   <path d="M605.8800,91.8000L605.8800,97.9200"/>
   <path d="M605.8800,550.8000L605.8800,544.6800"/>
   <path d="M734.4000,91.8000L734.4000,97.9200"/>
   <path d="M734.4000,550.8000L734.4000,544.6800"/>
   <path d="M156.0600,91.8000L156.0600,104.0400"/>
   <path d="M156.0600,550.8000L156.0600,538.5600"/>
   <path d="M284.5800,91.8000L284.5800,104.0400"/>
   <path d="M284.5800,550.8000L284.5800,538.5600"/>
   <path d="M413.1000,91.8000L413.1000,104.0400"/>
   <path d="M413.1000,550.8000L413.1000,538.5600"/>
   <path d="M541.6200,91.8000L541.6200,104.0400"/>
   <path d="M541.6200,550.8000L541.6200,538.5600"/>
   <path d="M670.1400,91.8000L670.1400,104.0400"/>
   <path d="M670.1400,550.8000L670.1400,538.5600"/>
  </g>
  <g style="fill:#000000; fill-rule:nonzero">
   <text   style="font-family:'Times','Nimbus Roman'; font-style:normal; font-weight:normal; font-size:612.0000" transform="matrix(0.0280,0.0000,-0.0000,-0.0280,152.0600,74.6800)">0</text>
   <text   style="font-family:'Times','Nimbus Roman'; font-style:normal; font-weight:normal; font-size:612.0000" transform="matrix(0.0280,0.0000,-0.0000,-0.0280,276.0800,73.6800)">10</text>
   <text   style="font-family:'Times','Nimbus Roman'; font-style:normal; font-weight:normal; font-size:612.0000" transform="matrix(0.0280,0.0000,-0.0000,-0.0280,404.6000,74.6800)">20</text>
   <text   style="font-family:'Times','Nimbus Roman'; font-style:normal; font-weight:normal; font-size:612.0000" transform="matrix(0.0280,0.0000,-0.0000,-0.0280,533.1200,74.6800)">30</text>
   <text   style="font-family:'Times','Nimbus Roman'; font-style:normal; font-weight:normal; font-size:612.0000" transform="matrix(0.0280,0.0000,-0.0000,-0.0280,661.6400,74.6800)">40</text>
  </g>
  <g style="fill:none; stroke:#000000; stroke-width:  0.9180; stroke-linecap:butt; stroke-linejoin:miter; stroke-dasharray:none">
   <path d="M91.8000,91.8000L91.8000,550.8000"/>
   <path d="M734.4000,91.8000L734.4000,550.8000"/>
   <path d="M91.8000,149.1750L97.9200,149.1750"/>
   <path d="M734.4000,149.1750L728.2800,149.1750"/>
   <path d="M91.8000,263.9250L97.9200,263.9250"/>
   <path d="M734.4000,263.9250L728.2800,263.9250"/>
   <path d="M91.8000,378.6750L97.9200,378.6750"/>
   <path d="M734.4000,378.6750L728.2800,378.6750"/>
   <path d="M91.8000,493.4250L97.9200,493.4250"/>
   <path d="M734.4000,493.4250L728.2800,493.4250"/>
   <path d="M91.8000,91.8000L104.0400,91.8000"/>
   <path d="M734.4000,91.8000L722.1600,91.8000"/>
   <path d="M91.8000,206.5500L104.0400,206.5500"/>
   <path d="M734.4000,206.5500L722.1600,206.5500"/>
   <path d="M91.8000,321.3000L104.0400,321.3000"/>
   <path d="M734.4000,321.3000L722.1600,321.3000"/>
   <path d="M91.8000,436.0500L104.0400,436.0500"/>
   <path d="M734.4000,436.0500L722.1600,436.0500"/>
   <path d="M91.8000,550.8000L104.0400,550.8000"/>
   <path d="M734.4000,550.8000L722.1600,550.8000"/>
  </g>
  <g style="fill:#000000; fill-rule:nonzero">
   <text   style="font-family:'Times','Nimbus Roman'; font-style:normal; font-weight:normal; font-size:612.0000" transform="matrix(0.0280,0.0000,-0.0000,-0.0280,77.6800,86.3000)">0</text>
   <text   style="font-family:'Times','Nimbus Roman'; font-style:normal; font-weight:normal; font-size:612.0000" transform="matrix(0.0280,0.0000,-0.0000,-0.0280,68.6800,200.5500)">50</text>
   <text   style="font-family:'Times','Nimbus Roman'; font-style:normal; font-weight:normal; font-size:612.0000" transform="matrix(0.0280,0.0000,-0.0000,-0.0280,60.6800,315.3000)">100</text>
   <text   style="font-family:'Times','Nimbus Roman'; font-style:normal; font-weight:normal; font-size:612.0000" transform="matrix(0.0280,0.0000,-0.0000,-0.0280,60.6800,430.0500)">150</text>
   <text   style="font-family:'Times','Nimbus Roman'; font-style:normal; font-weight:normal; font-size:612.0000" transform="matrix(0.0280,0.0000,-0.0000,-0.0280,60.6800,545.3000)">200</text>
  </g>
  <g style="fill:none; stroke:#000000; stroke-width:  0.9180; stroke-linecap:butt; stroke-linejoin:miter; stroke-dasharray:none">
   <path d="M91.8000,91.8000L91.8000,550.8000L734.4000,550.8000L734.4000,91.8000z"/>
  </g>
 </g>
</svg>
