<?xml version="1.0" encoding="ISO-8859-1"?>
<!DOCTYPE svg PUBLIC "-//W3C//DTD SVG 1.0//EN" "http://www.w3.org/TR/2001/REC-SVG-20010904/DTD/svg10.dtd">
<!-- generated by Grace-5.1.25 -->
<svg xml:space="preserve" width="11.0000in" height="8.5000in" viewBox="0.0000 0.0000 792.0000 612.0000">
 <g transform="translate(0,612.0000) scale(1,-1)">
  <g style="fill:#FFFFFF; fill-rule:nonzero">
   <path  d="M0.0000,0.0000L0.0000,612.0000L792.0000,612.0000L792.0000,0.0000z"/>
  </g>
  <g style="fill:none; stroke:#000000; stroke-width:  0.9180; stroke-linecap:butt; stroke-linejoin:miter; stroke-dasharray:none">
   <path d="M122.9508,91.8000L122.9508,244.8000L135.1908,244.8000L135.1908,91.8000z"/>
   <path d="M160.2216,91.8000L160.2216,275.4000L172.4616,275.4000L172.4616,91.8000z"/>
   <path d="M197.4924,91.8000L197.4924,275.4000L209.7324,275.4000L209.7324,91.8000z"/>
   <path d="M234.7632,91.8000L234.7632,229.5000L247.0032,229.5000L247.0032,91.8000z"/>
   <path d="M272.0340,91.8000L272.0340,214.2000L284.2740,214.2000L284.2740,91.8000z"/>
   <path d="M309.3048,91.8000L309.3048,367.2000L321.5448,367.2000L321.5448,91.8000z"/>
   <path d="M346.5756,91.8000L346.5756,413.1000L358.8156,413.1000L358.8156,91.8000z"/>
   <path d="M383.8464,91.8000L383.8464,336.6000L396.0864,336.6000L396.0864,91.8000z"/>
   <path d="M421.1172,91.8000L421.1172,535.5000L433.3572,535.5000L433.3572,91.8000z"/>
   <path d="M458.3880,91.8000L458.3880,459.0000L470.6280,459.0000L470.6280,91.8000z"/>
   <path d="M495.6588,91.8000L495.6588,520.2000L507.8988,520.2000L507.8988,91.8000z"/>
   <path d="M532.9296,91.8000L532.9296,321.3000L545.1696,321.3000L545.1696,91.8000z"/>
   <path d="M570.2004,91.8000L570.2004,260.1000L582.4404,260.1000L582.4404,91.8000z"/>
   <path d="M607.4712,91.8000L607.4712,168.3000L619.7112,168.3000L619.7112,91.8000z"/>
   <path d="M644.7420,91.8000L644.7420,153.0000L656.9820,153.0000L656.9820,91.8000z"/>
   <path d="M682.0128,91.8000L682.0128,137.7000L694.2528,137.7000L694.2528,91.8000z"/>
   <path d="M91.8000,91.8000L734.4000,91.8000"/>
   <path d="M91.8000,550.8000L734.4000,550.8000"/>
   <path d="M156.0600,91.8000L156.0600,97.9200"/>
   <path d="M156.0600,550.8000L156.0600,544.6800"/>
   <path d="M284.5800,91.8000L284.5800,97.9200"/>
   <path d="M284.5800,550.8000L284.5800,544.6800"/>
   <path d="M413.1000,91.8000L413.1000,97.9200"/>
   <path d="M413.1000,550.8000L413.1000,544.6800"/>
   <path d="M541.6200,91.8000L541.6200,97.9200"/>
   <path d="M541.6200,550.8000L541.6200,544.6800"/>
   <path d="M670.1400,91.8000L670.1400,97.9200"/>
   <path d="M670.1400,550.8000L670.1400,544.6800"/>
   <path d="M91.8000,91.8000L91.8000,104.0400"/>
   <path d="M91.8000,550.8000L91.8000,538.5600"/>
   <path d="M220.3200,91.8000L220.3200,104.0400"/>
   <path d="M220.3200,550.8000L220.3200,538.5600"/>
   <path d="M348.8400,91.8000L348.8400,104.0400"/>
   <path d="M348.8400,550.8000L348.8400,538.5600"/>
   <path d="M477.3600,91.8000L477.3600,104.0400"/>
   <path d="M477.3600,550.8000L477.3600,538.5600"/>
   <path d="M605.8800,91.8000L605.8800,104.0400"/>
   <path d="M605.8800,550.8000L605.8800,538.5600"/>
   <path d="M734.4000,91.8000L734.4000,104.0400"/>
   <path d="M734.4000,550.8000L734.4000,538.5600"/>
  </g>
  <g style="fill:#000000; fill-rule:nonzero">
   <text   style="font-family:'Times','Nimbus Roman'; font-style:normal; font-weight:normal; font-size:612.0000" transform="matrix(0.0280,0.0000,-0.0000,-0.0280,87.8000,74.6800)">0</text>
   <text   style="font-family:'Times','Nimbus Roman'; font-style:normal; font-weight:normal; font-size:612.0000" transform="matrix(0.0280,0.0000,-0.0000,-0.0280,205.8200,74.6800)">0.02</text>
   <text   style="font-family:'Times','Nimbus Roman'; font-style:normal; font-weight:normal; font-size:612.0000" transform="matrix(0.0280,0.0000,-0.0000,-0.0280,334.3400,74.6800)">0.04</text>
   <text   style="font-family:'Times','Nimbus Roman'; font-style:normal; font-weight:normal; font-size:612.0000" transform="matrix(0.0280,0.0000,-0.0000,-0.0280,462.8600,73.6800)">0.06</text>
   <text   style="font-family:'Times','Nimbus Roman'; font-style:normal; font-weight:normal; font-size:612.0000" transform="matrix(0.0280,0.0000,-0.0000,-0.0280,591.8800,74.6800)">0.08</text>
   <text   style="font-family:'Times','Nimbus Roman'; font-style:normal; font-weight:normal; font-size:612.0000" transform="matrix(0.0280,0.0000,-0.0000,-0.0280,724.4000,73.6800)">0.1</text>
  </g>
  <g style="fill:none; stroke:#000000; stroke-width:  0.9180; stroke-linecap:butt; stroke-linejoin:miter; stroke-dasharray:none">
   <path d="M91.8000,91.8000L91.8000,550.8000"/>
   <path d="M734.4000,91.8000L734.4000,550.8000"/>
   <path d="M91.8000,130.0500L97.9200,130.0500"/>
   <path d="M734.4000,130.0500L728.2800,130.0500"/>
   <path d="M91.8000,206.5500L97.9200,206.5500"/>
   <path d="M734.4000,206.5500L728.2800,206.5500"/>
   <path d="M91.8000,283.0500L97.9200,283.0500"/>
   <path d="M734.4000,283.0500L728.2800,283.0500"/>
   <path d="M91.8000,359.5500L97.9200,359.5500"/>
   <path d="M734.4000,359.5500L728.2800,359.5500"/>
   <path d="M91.8000,436.0500L97.9200,436.0500"/>
   <path d="M734.4000,436.0500L728.2800,436.0500"/>
   <path d="M91.8000,512.5500L97.9200,512.5500"/>
   <path d="M734.4000,512.5500L728.2800,512.5500"/>
   <path d="M91.8000,91.8000L104.0400,91.8000"/>
   <path d="M734.4000,91.8000L722.1600,91.8000"/>
   <path d="M91.8000,168.3000L104.0400,168.3000"/>
   <path d="M734.4000,168.3000L722.1600,168.3000"/>
   <path d="M91.8000,244.8000L104.0400,244.8000"/>
   <path d="M734.4000,244.8000L722.1600,244.8000"/>
   <path d="M91.8000,321.3000L104.0400,321.3000"/>
   <path d="M734.4000,321.3000L722.1600,321.3000"/>
   <path d="M91.8000,397.8000L104.0400,397.8000"/>
   <path d="M734.4000,397.8000L722.1600,397.8000"/>
   <path d="M91.8000,474.3000L104.0400,474.3000"/>
   <path d="M734.4000,474.3000L722.1600,474.3000"/>
   <path d="M91.8000,550.8000L104.0400,550.8000"/>
   <path d="M734.4000,550.8000L722.1600,550.8000"/>
  </g>
  <g style="fill:#000000; fill-rule:nonzero">
   <text   style="font-family:'Times','Nimbus Roman'; font-style:normal; font-weight:normal; font-size:612.0000" transform="matrix(0.0280,0.0000,-0.0000,-0.0280,77.6800,86.3000)">0</text>
   <text   style="font-family:'Times','Nimbus Roman'; font-style:normal; font-weight:normal; font-size:612.0000" transform="matrix(0.0280,0.0000,-0.0000,-0.0280,77.6800,162.3000)">5</text>
   <text   style="font-family:'Times','Nimbus Roman'; font-style:normal; font-weight:normal; font-size:612.0000" transform="matrix(0.0280,0.0000,-0.0000,-0.0280,68.6800,238.8000)">10</text>
   <text   style="font-family:'Times','Nimbus Roman'; font-style:normal; font-weight:normal; font-size:612.0000" transform="matrix(0.0280,0.0000,-0.0000,-0.0280,68.6800,315.3000)">15</text>
   <text   style="font-family:'Times','Nimbus Roman'; font-style:normal; font-weight:normal; font-size:612.0000" transform="matrix(0.0280,0.0000,-0.0000,-0.0280,68.6800,392.3000)">20</text>
   <text   style="font-family:'Times','Nimbus Roman'; font-style:normal; font-weight:normal; font-size:612.0000" transform="matrix(0.0280,0.0000,-0.0000,-0.0280,68.6800,468.3000)">25</text>
   <text   style="font-family:'Times','Nimbus Roman'; font-style:normal; font-weight:normal; font-size:612.0000" transform="matrix(0.0280,0.0000,-0.0000,-0.0280,68.6800,545.3000)">30</text>
  </g>
  <g style="fill:none; stroke:#000000; stroke-width:  0.9180; stroke-linecap:butt; stroke-linejoin:miter; stroke-dasharray:none">
   <path d="M91.8000,91.8000L91.8000,550.8000L734.4000,550.8000L734.4000,91.8000z"/>
  </g>
 </g>
</svg>
