<?xml version="1.0" encoding="ISO-8859-1"?>
<!DOCTYPE svg PUBLIC "-//W3C//DTD SVG 1.0//EN" "http://www.w3.org/TR/2001/REC-SVG-20010904/DTD/svg10.dtd">
<!-- generated by Grace-5.1.25 -->
<svg xml:space="preserve" width="11.0000in" height="8.5000in" viewBox="0.0000 0.0000 792.0000 612.0000">
 <g transform="translate(0,612.0000) scale(1,-1)">
  <g style="fill:#FFFFFF; fill-rule:nonzero">
   <path  d="M0.0000,0.0000L0.0000,612.0000L792.0000,612.0000L792.0000,0.0000z"/>
  </g>
  <g style="fill:none; stroke:#000000; stroke-width:  0.9180; stroke-linecap:butt; stroke-linejoin:miter; stroke-dasharray:none">
   <path d="M114.3828,91.8000L114.3828,351.9000L126.6228,351.9000L126.6228,91.8000z"/>
   <path d="M143.0856,91.8000L143.0856,198.9000L155.3256,198.9000L155.3256,91.8000z"/>
   <path d="M171.7884,91.8000L171.7884,290.7000L184.0284,290.7000L184.0284,91.8000z"/>
   <path d="M200.4912,91.8000L200.4912,198.9000L212.7312,198.9000L212.7312,91.8000z"/>
   <path d="M229.1940,91.8000L229.1940,260.1000L241.4340,260.1000L241.4340,91.8000z"/>
   <path d="M257.8968,91.8000L257.8968,351.9000L270.1368,351.9000L270.1368,91.8000z"/>
   <path d="M286.5996,91.8000L286.5996,413.1000L298.8396,413.1000L298.8396,91.8000z"/>
   <path d="M315.3024,91.8000L315.3024,306.0000L327.5424,306.0000L327.5424,91.8000z"/>
   <path d="M344.0052,91.8000L344.0052,520.2000L356.2452,520.2000L356.2452,91.8000z"/>
   <path d="M372.7080,91.8000L372.7080,459.0000L384.9480,459.0000L384.9480,91.8000z"/>
   <path d="M401.4108,91.8000L401.4108,474.3000L413.6508,474.3000L413.6508,91.8000z"/>
   <path d="M430.1136,91.8000L430.1136,367.2000L442.3536,367.2000L442.3536,91.8000z"/>
   <path d="M458.8164,91.8000L458.8164,260.1000L471.0564,260.1000L471.0564,91.8000z"/>
   <path d="M487.5192,91.8000L487.5192,153.0000L499.7592,153.0000L499.7592,91.8000z"/>
   <path d="M516.2220,91.8000L516.2220,168.3000L528.4620,168.3000L528.4620,91.8000z"/>
   <path d="M544.9248,91.8000L544.9248,137.7000L557.1648,137.7000L557.1648,91.8000z"/>
   <path d="M91.8000,91.8000L734.4000,91.8000"/>
   <path d="M91.8000,550.8000L734.4000,550.8000"/>
   <path d="M198.9000,91.8000L198.9000,97.9200"/>
   <path d="M198.9000,550.8000L198.9000,544.6800"/>
   <path d="M413.1000,91.8000L413.1000,97.9200"/>
   <path d="M413.1000,550.8000L413.1000,544.6800"/>
   <path d="M627.3000,91.8000L627.3000,97.9200"/>
   <path d="M627.3000,550.8000L627.3000,544.6800"/>
   <path d="M91.8000,91.8000L91.8000,104.0400"/>
   <path d="M91.8000,550.8000L91.8000,538.5600"/>
   <path d="M306.0000,91.8000L306.0000,104.0400"/>
   <path d="M306.0000,550.8000L306.0000,538.5600"/>
   <path d="M520.2000,91.8000L520.2000,104.0400"/>
   <path d="M520.2000,550.8000L520.2000,538.5600"/>
  </g>
  <g style="fill:#000000; fill-rule:nonzero">
   <text   style="font-family:'Times','Nimbus Roman'; font-style:normal; font-weight:normal; font-size:612.0000" transform="matrix(0.0280,0.0000,-0.0000,-0.0280,87.8000,74.6800)">0</text>
   <text   style="font-family:'Times','Nimbus Roman'; font-style:normal; font-weight:normal; font-size:612.0000" transform="matrix(0.0280,0.0000,-0.0000,-0.0280,291.5000,73.6800)">0.05</text>
   <text   style="font-family:'Times','Nimbus Roman'; font-style:normal; font-weight:normal; font-size:612.0000" transform="matrix(0.0280,0.0000,-0.0000,-0.0280,510.2000,73.6800)">0.1</text>
  </g>
  <g style="fill:none; stroke:#000000; stroke-width:  0.9180; stroke-linecap:butt; stroke-linejoin:miter; stroke-dasharray:none">
   <path d="M91.8000,91.8000L91.8000,550.8000"/>
   <path d="M734.4000,91.8000L734.4000,550.8000"/>
   <path d="M91.8000,130.0500L97.9200,130.0500"/>
   <path d="M734.4000,130.0500L728.2800,130.0500"/>
   <path d="M91.8000,206.5500L97.9200,206.5500"/>
   <path d="M734.4000,206.5500L728.2800,206.5500"/>
   <path d="M91.8000,283.0500L97.9200,283.0500"/>
   <path d="M734.4000,283.0500L728.2800,283.0500"/>
   <path d="M91.8000,359.5500L97.9200,359.5500"/>
   <path d="M734.4000,359.5500L728.2800,359.5500"/>
   <path d="M91.8000,436.0500L97.9200,436.0500"/>
   <path d="M734.4000,436.0500L728.2800,436.0500"/>
   <path d="M91.8000,512.5500L97.9200,512.5500"/>
   <path d="M734.4000,512.5500L728.2800,512.5500"/>
   <path d="M91.8000,91.8000L104.0400,91.8000"/>
   <path d="M734.4000,91.8000L722.1600,91.8000"/>
   <path d="M91.8000,168.3000L104.0400,168.3000"/>
   <path d="M734.4000,168.3000L722.1600,168.3000"/>
   <path d="M91.8000,244.8000L104.0400,244.8000"/>
   <path d="M734.4000,244.8000L722.1600,244.8000"/>
   <path d="M91.8000,321.3000L104.0400,321.3000"/>
   <path d="M734.4000,321.3000L722.1600,321.3000"/>
   <path d="M91.8000,397.8000L104.0400,397.8000"/>
   <path d="M734.4000,397.8000L722.1600,397.8000"/>
   <path d="M91.8000,474.3000L104.0400,474.3000"/>
   <path d="M734.4000,474.3000L722.1600,474.3000"/>
   <path d="M91.8000,550.8000L104.0400,550.8000"/>
   <path d="M734.4000,550.8000L722.1600,550.8000"/>
  </g>
  <g style="fill:#000000; fill-rule:nonzero">
   <text   style="font-family:'Times','Nimbus Roman'; font-style:normal; font-weight:normal; font-size:612.0000" transform="matrix(0.0280,0.0000,-0.0000,-0.0280,77.6800,86.3000)">0</text>
   <text   style="font-family:'Times','Nimbus Roman'; font-style:normal; font-weight:normal; font-size:612.0000" transform="matrix(0.0280,0.0000,-0.0000,-0.0280,77.6800,162.3000)">5</text>
   <text   style="font-family:'Times','Nimbus Roman'; font-style:normal; font-weight:normal; font-size:612.0000" transform="matrix(0.0280,0.0000,-0.0000,-0.0280,68.6800,238.8000)">10</text>
   <text   style="font-family:'Times','Nimbus Roman'; font-style:normal; font-weight:normal; font-size:612.0000" transform="matrix(0.0280,0.0000,-0.0000,-0.0280,68.6800,315.3000)">15</text>
   <text   style="font-family:'Times','Nimbus Roman'; font-style:normal; font-weight:normal; font-size:612.0000" transform="matrix(0.0280,0.0000,-0.0000,-0.0280,68.6800,392.3000)">20</text>
   <text   style="font-family:'Times','Nimbus Roman'; font-style:normal; font-weight:normal; font-size:612.0000" transform="matrix(0.0280,0.0000,-0.0000,-0.0280,68.6800,468.3000)">25</text>
   <text   style="font-family:'Times','Nimbus Roman'; font-style:normal; font-weight:normal; font-size:612.0000" transform="matrix(0.0280,0.0000,-0.0000,-0.0280,68.6800,545.3000)">30</text>
  </g>
  <g style="fill:none; stroke:#000000; stroke-width:  0.9180; stroke-linecap:butt; stroke-linejoin:miter; stroke-dasharray:none">
   <path d="M91.8000,91.8000L91.8000,550.8000L734.4000,550.8000L734.4000,91.8000z"/>
  </g>
 </g>
</svg>
