<?xml version="1.0" encoding="ISO-8859-1"?>
<!DOCTYPE svg PUBLIC "-//W3C//DTD SVG 1.0//EN" "http://www.w3.org/TR/2001/REC-SVG-20010904/DTD/svg10.dtd">
<!-- generated by Grace-5.1.25 -->
<svg xml:space="preserve" width="11.0000in" height="8.5000in" viewBox="0.0000 0.0000 792.0000 612.0000">
 <g transform="translate(0,612.0000) scale(1,-1)">
  <g style="fill:#FFFFFF; fill-rule:nonzero">
   <path  d="M0.0000,0.0000L0.0000,612.0000L792.0000,612.0000L792.0000,0.0000z"/>
  </g>
  <g style="fill:none; stroke:#000000; stroke-width:  0.9180; stroke-linecap:butt; stroke-linejoin:miter; stroke-dasharray:none">
   <path d="M102.4144,91.8000L102.4144,91.8000L114.6544,91.8000L114.6544,91.8000z"/>
   <path d="M119.1487,91.8000L119.1487,91.8000L131.3887,91.8000L131.3887,91.8000z"/>
   <path d="M135.8831,91.8000L135.8831,91.8000L148.1231,91.8000L148.1231,91.8000z"/>
   <path d="M152.6175,91.8000L152.6175,91.8000L164.8575,91.8000L164.8575,91.8000z"/>
   <path d="M169.3519,91.8000L169.3519,91.8000L181.5919,91.8000L181.5919,91.8000z"/>
   <path d="M186.0862,91.8000L186.0862,91.8000L198.3262,91.8000L198.3262,91.8000z"/>
   <path d="M202.8206,91.8000L202.8206,91.8000L215.0606,91.8000L215.0606,91.8000z"/>
   <path d="M219.5550,91.8000L219.5550,91.8000L231.7950,91.8000L231.7950,91.8000z"/>
   <path d="M236.2894,91.8000L236.2894,91.8000L248.5294,91.8000L248.5294,91.8000z"/>
   <path d="M253.0237,91.8000L253.0237,146.8800L265.2637,146.8800L265.2637,91.8000z"/>
   <path d="M269.7581,91.8000L269.7581,183.6000L281.9981,183.6000L281.9981,91.8000z"/>
   <path d="M286.4925,91.8000L286.4925,201.9600L298.7325,201.9600L298.7325,91.8000z"/>
   <path d="M303.2269,91.8000L303.2269,247.8600L315.4669,247.8600L315.4669,91.8000z"/>
   <path d="M319.9612,91.8000L319.9612,257.0400L332.2012,257.0400L332.2012,91.8000z"/>
   <path d="M336.6956,91.8000L336.6956,275.4000L348.9356,275.4000L348.9356,91.8000z"/>
   <path d="M353.4300,91.8000L353.4300,367.2000L365.6700,367.2000L365.6700,91.8000z"/>
   <path d="M370.1644,91.8000L370.1644,312.1200L382.4044,312.1200L382.4044,91.8000z"/>
   <path d="M386.8987,91.8000L386.8987,367.2000L399.1387,367.2000L399.1387,91.8000z"/>
   <path d="M403.6331,91.8000L403.6331,532.4400L415.8731,532.4400L415.8731,91.8000z"/>
   <path d="M420.3675,91.8000L420.3675,183.6000L432.6075,183.6000L432.6075,91.8000z"/>
   <path d="M437.1019,91.8000L437.1019,91.8000L449.3419,91.8000L449.3419,91.8000z"/>
   <path d="M453.8362,91.8000L453.8362,91.8000L466.0762,91.8000L466.0762,91.8000z"/>
   <path d="M470.5706,91.8000L470.5706,91.8000L482.8106,91.8000L482.8106,91.8000z"/>
   <path d="M487.3050,91.8000L487.3050,91.8000L499.5450,91.8000L499.5450,91.8000z"/>
   <path d="M504.0394,91.8000L504.0394,91.8000L516.2794,91.8000L516.2794,91.8000z"/>
   <path d="M520.7737,91.8000L520.7737,91.8000L533.0137,91.8000L533.0137,91.8000z"/>
   <path d="M537.5081,91.8000L537.5081,91.8000L549.7481,91.8000L549.7481,91.8000z"/>
   <path d="M554.2425,91.8000L554.2425,91.8000L566.4825,91.8000L566.4825,91.8000z"/>
   <path d="M570.9769,91.8000L570.9769,91.8000L583.2169,91.8000L583.2169,91.8000z"/>
   <path d="M587.7112,91.8000L587.7112,91.8000L599.9512,91.8000L599.9512,91.8000z"/>
   <path d="M604.4456,91.8000L604.4456,91.8000L616.6856,91.8000L616.6856,91.8000z"/>
   <path d="M621.1800,91.8000L621.1800,91.8000L633.4200,91.8000L633.4200,91.8000z"/>
   <path d="M91.8000,91.8000L734.4000,91.8000"/>
   <path d="M91.8000,550.8000L734.4000,550.8000"/>
   <path d="M145.3500,91.8000L145.3500,97.9200"/>
   <path d="M145.3500,550.8000L145.3500,544.6800"/>
   <path d="M252.4500,91.8000L252.4500,97.9200"/>
   <path d="M252.4500,550.8000L252.4500,544.6800"/>
   <path d="M359.5500,91.8000L359.5500,97.9200"/>
   <path d="M359.5500,550.8000L359.5500,544.6800"/>
   <path d="M466.6500,91.8000L466.6500,97.9200"/>
   <path d="M466.6500,550.8000L466.6500,544.6800"/>
   <path d="M573.7500,91.8000L573.7500,97.9200"/>
   <path d="M573.7500,550.8000L573.7500,544.6800"/>
   <path d="M680.8500,91.8000L680.8500,97.9200"/>
   <path d="M680.8500,550.8000L680.8500,544.6800"/>
   <path d="M91.8000,91.8000L91.8000,104.0400"/>
   <path d="M91.8000,550.8000L91.8000,538.5600"/>
   <path d="M198.9000,91.8000L198.9000,104.0400"/>
   <path d="M198.9000,550.8000L198.9000,538.5600"/>
   <path d="M306.0000,91.8000L306.0000,104.0400"/>
   <path d="M306.0000,550.8000L306.0000,538.5600"/>
   <path d="M413.1000,91.8000L413.1000,104.0400"/>
   <path d="M413.1000,550.8000L413.1000,538.5600"/>
   <path d="M520.2000,91.8000L520.2000,104.0400"/>
   <path d="M520.2000,550.8000L520.2000,538.5600"/>
   <path d="M627.3000,91.8000L627.3000,104.0400"/>
   <path d="M627.3000,550.8000L627.3000,538.5600"/>
   <path d="M734.4000,91.8000L734.4000,104.0400"/>
   <path d="M734.4000,550.8000L734.4000,538.5600"/>
  </g>
  <g style="fill:#000000; fill-rule:nonzero">
   <text   style="font-family:'Times','Nimbus Roman'; font-style:normal; font-weight:normal; font-size:612.0000" transform="matrix(0.0280,0.0000,-0.0000,-0.0280,87.8000,74.6800)">0</text>
   <text   style="font-family:'Times','Nimbus Roman'; font-style:normal; font-weight:normal; font-size:612.0000" transform="matrix(0.0280,0.0000,-0.0000,-0.0280,184.4000,73.6800)">0.05</text>
   <text   style="font-family:'Times','Nimbus Roman'; font-style:normal; font-weight:normal; font-size:612.0000" transform="matrix(0.0280,0.0000,-0.0000,-0.0280,296.0000,73.6800)">0.1</text>
   <text   style="font-family:'Times','Nimbus Roman'; font-style:normal; font-weight:normal; font-size:612.0000" transform="matrix(0.0280,0.0000,-0.0000,-0.0280,398.6000,73.6800)">0.15</text>
   <text   style="font-family:'Times','Nimbus Roman'; font-style:normal; font-weight:normal; font-size:612.0000" transform="matrix(0.0280,0.0000,-0.0000,-0.0280,509.7000,74.6800)">0.2</text>
   <text   style="font-family:'Times','Nimbus Roman'; font-style:normal; font-weight:normal; font-size:612.0000" transform="matrix(0.0280,0.0000,-0.0000,-0.0280,612.8000,73.6800)">0.25</text>
   <text   style="font-family:'Times','Nimbus Roman'; font-style:normal; font-weight:normal; font-size:612.0000" transform="matrix(0.0280,0.0000,-0.0000,-0.0280,724.4000,74.6800)">0.3</text>
  </g>
  <g style="fill:none; stroke:#000000; stroke-width:  0.9180; stroke-linecap:butt; stroke-linejoin:miter; stroke-dasharray:none">
   <path d="M91.8000,91.8000L91.8000,550.8000"/>
   <path d="M734.4000,91.8000L734.4000,550.8000"/>
   <path d="M91.8000,137.7000L97.9200,137.7000"/>
   <path d="M734.4000,137.7000L728.2800,137.7000"/>
   <path d="M91.8000,229.5000L97.9200,229.5000"/>
   <path d="M734.4000,229.5000L728.2800,229.5000"/>
   <path d="M91.8000,321.3000L97.9200,321.3000"/>
   <path d="M734.4000,321.3000L728.2800,321.3000"/>
   <path d="M91.8000,413.1000L97.9200,413.1000"/>
   <path d="M734.4000,413.1000L728.2800,413.1000"/>
   <path d="M91.8000,504.9000L97.9200,504.9000"/>
   <path d="M734.4000,504.9000L728.2800,504.9000"/>
   <path d="M91.8000,91.8000L104.0400,91.8000"/>
   <path d="M734.4000,91.8000L722.1600,91.8000"/>
   <path d="M91.8000,183.6000L104.0400,183.6000"/>
   <path d="M734.4000,183.6000L722.1600,183.6000"/>
   <path d="M91.8000,275.4000L104.0400,275.4000"/>
   <path d="M734.4000,275.4000L722.1600,275.4000"/>
   <path d="M91.8000,367.2000L104.0400,367.2000"/>
   <path d="M734.4000,367.2000L722.1600,367.2000"/>
   <path d="M91.8000,459.0000L104.0400,459.0000"/>
   <path d="M734.4000,459.0000L722.1600,459.0000"/>
   <path d="M91.8000,550.8000L104.0400,550.8000"/>
   <path d="M734.4000,550.8000L722.1600,550.8000"/>
  </g>
  <g style="fill:#000000; fill-rule:nonzero">
   <text   style="font-family:'Times','Nimbus Roman'; font-style:normal; font-weight:normal; font-size:612.0000" transform="matrix(0.0280,0.0000,-0.0000,-0.0280,77.6800,86.3000)">0</text>
   <text   style="font-family:'Times','Nimbus Roman'; font-style:normal; font-weight:normal; font-size:612.0000" transform="matrix(0.0280,0.0000,-0.0000,-0.0280,68.6800,177.6000)">10</text>
   <text   style="font-family:'Times','Nimbus Roman'; font-style:normal; font-weight:normal; font-size:612.0000" transform="matrix(0.0280,0.0000,-0.0000,-0.0280,68.6800,269.9000)">20</text>
   <text   style="font-family:'Times','Nimbus Roman'; font-style:normal; font-weight:normal; font-size:612.0000" transform="matrix(0.0280,0.0000,-0.0000,-0.0280,68.6800,361.7000)">30</text>
   <text   style="font-family:'Times','Nimbus Roman'; font-style:normal; font-weight:normal; font-size:612.0000" transform="matrix(0.0280,0.0000,-0.0000,-0.0280,68.6800,453.5000)">40</text>
   <text   style="font-family:'Times','Nimbus Roman'; font-style:normal; font-weight:normal; font-size:612.0000" transform="matrix(0.0280,0.0000,-0.0000,-0.0280,68.6800,544.8000)">50</text>
  </g>
  <g style="fill:none; stroke:#000000; stroke-width:  0.9180; stroke-linecap:butt; stroke-linejoin:miter; stroke-dasharray:none">
   <path d="M91.8000,91.8000L91.8000,550.8000L734.4000,550.8000L734.4000,91.8000z"/>
  </g>
 </g>
</svg>
