<?xml version="1.0" encoding="ISO-8859-1"?>
<!DOCTYPE svg PUBLIC "-//W3C//DTD SVG 1.0//EN" "http://www.w3.org/TR/2001/REC-SVG-20010904/DTD/svg10.dtd">
<!-- generated by Grace-5.1.25 -->
<svg xml:space="preserve" width="11.0000in" height="8.5000in" viewBox="0.0000 0.0000 792.0000 612.0000">
 <g transform="translate(0,612.0000) scale(1,-1)">
  <g style="fill:#FFFFFF; fill-rule:nonzero">
   <path  d="M0.0000,0.0000L0.0000,612.0000L792.0000,612.0000L792.0000,0.0000z"/>
  </g>
  <g style="fill:none; stroke:#000000; stroke-width:  0.9180; stroke-linecap:butt; stroke-linejoin:miter; stroke-dasharray:none">
   <path d="M219.5550,91.8000L219.5550,91.8000L231.7950,91.8000L231.7950,91.8000z"/>
   <path d="M246.3300,91.8000L246.3300,91.8000L258.5700,91.8000L258.5700,91.8000z"/>
   <path d="M273.1050,91.8000L273.1050,91.8000L285.3450,91.8000L285.3450,91.8000z"/>
   <path d="M299.8800,91.8000L299.8800,91.8000L312.1200,91.8000L312.1200,91.8000z"/>
   <path d="M326.6550,91.8000L326.6550,183.6000L338.8950,183.6000L338.8950,91.8000z"/>
   <path d="M353.4300,91.8000L353.4300,133.1100L365.6700,133.1100L365.6700,91.8000z"/>
   <path d="M380.2050,91.8000L380.2050,137.7000L392.4450,137.7000L392.4450,91.8000z"/>
   <path d="M406.9800,91.8000L406.9800,151.4700L419.2200,151.4700L419.2200,91.8000z"/>
   <path d="M433.7550,91.8000L433.7550,174.4200L445.9950,174.4200L445.9950,91.8000z"/>
   <path d="M460.5300,91.8000L460.5300,261.6300L472.7700,261.6300L472.7700,91.8000z"/>
   <path d="M487.3050,91.8000L487.3050,550.8000L499.5450,550.8000L499.5450,91.8000z"/>
   <path d="M514.0800,91.8000L514.0800,174.4200L526.3200,174.4200L526.3200,91.8000z"/>
   <path d="M540.8550,91.8000L540.8550,91.8000L553.0950,91.8000L553.0950,91.8000z"/>
   <path d="M567.6300,91.8000L567.6300,91.8000L579.8700,91.8000L579.8700,91.8000z"/>
   <path d="M594.4050,91.8000L594.4050,91.8000L606.6450,91.8000L606.6450,91.8000z"/>
   <path d="M621.1800,91.8000L621.1800,91.8000L633.4200,91.8000L633.4200,91.8000z"/>
   <path d="M91.8000,91.8000L734.4000,91.8000"/>
   <path d="M91.8000,550.8000L734.4000,550.8000"/>
   <path d="M145.3500,91.8000L145.3500,97.9200"/>
   <path d="M145.3500,550.8000L145.3500,544.6800"/>
   <path d="M252.4500,91.8000L252.4500,97.9200"/>
   <path d="M252.4500,550.8000L252.4500,544.6800"/>
   <path d="M359.5500,91.8000L359.5500,97.9200"/>
   <path d="M359.5500,550.8000L359.5500,544.6800"/>
   <path d="M466.6500,91.8000L466.6500,97.9200"/>
   <path d="M466.6500,550.8000L466.6500,544.6800"/>
   <path d="M573.7500,91.8000L573.7500,97.9200"/>
   <path d="M573.7500,550.8000L573.7500,544.6800"/>
   <path d="M680.8500,91.8000L680.8500,97.9200"/>
   <path d="M680.8500,550.8000L680.8500,544.6800"/>
   <path d="M91.8000,91.8000L91.8000,104.0400"/>
   <path d="M91.8000,550.8000L91.8000,538.5600"/>
   <path d="M198.9000,91.8000L198.9000,104.0400"/>
   <path d="M198.9000,550.8000L198.9000,538.5600"/>
   <path d="M306.0000,91.8000L306.0000,104.0400"/>
   <path d="M306.0000,550.8000L306.0000,538.5600"/>
   <path d="M413.1000,91.8000L413.1000,104.0400"/>
   <path d="M413.1000,550.8000L413.1000,538.5600"/>
   <path d="M520.2000,91.8000L520.2000,104.0400"/>
   <path d="M520.2000,550.8000L520.2000,538.5600"/>
   <path d="M627.3000,91.8000L627.3000,104.0400"/>
   <path d="M627.3000,550.8000L627.3000,538.5600"/>
   <path d="M734.4000,91.8000L734.4000,104.0400"/>
   <path d="M734.4000,550.8000L734.4000,538.5600"/>
  </g>
  <g style="fill:#000000; fill-rule:nonzero">
   <text   style="font-family:'Times','Nimbus Roman'; font-style:normal; font-weight:normal; font-size:612.0000" transform="matrix(0.0280,0.0000,-0.0000,-0.0280,87.8000,74.6800)">0</text>
   <text   style="font-family:'Times','Nimbus Roman'; font-style:normal; font-weight:normal; font-size:612.0000" transform="matrix(0.0280,0.0000,-0.0000,-0.0280,188.4000,73.6800)">0.5</text>
   <text   style="font-family:'Times','Nimbus Roman'; font-style:normal; font-weight:normal; font-size:612.0000" transform="matrix(0.0280,0.0000,-0.0000,-0.0280,302.5000,73.6800)">1</text>
   <text   style="font-family:'Times','Nimbus Roman'; font-style:normal; font-weight:normal; font-size:612.0000" transform="matrix(0.0280,0.0000,-0.0000,-0.0280,402.6000,73.6800)">1.5</text>
   <text   style="font-family:'Times','Nimbus Roman'; font-style:normal; font-weight:normal; font-size:612.0000" transform="matrix(0.0280,0.0000,-0.0000,-0.0280,516.2000,74.6800)">2</text>
   <text   style="font-family:'Times','Nimbus Roman'; font-style:normal; font-weight:normal; font-size:612.0000" transform="matrix(0.0280,0.0000,-0.0000,-0.0280,616.8000,73.6800)">2.5</text>
   <text   style="font-family:'Times','Nimbus Roman'; font-style:normal; font-weight:normal; font-size:612.0000" transform="matrix(0.0280,0.0000,-0.0000,-0.0280,730.9000,74.6800)">3</text>
  </g>
  <g style="fill:none; stroke:#000000; stroke-width:  0.9180; stroke-linecap:butt; stroke-linejoin:miter; stroke-dasharray:none">
   <path d="M91.8000,91.8000L91.8000,550.8000"/>
   <path d="M734.4000,91.8000L734.4000,550.8000"/>
   <path d="M91.8000,137.7000L97.9200,137.7000"/>
   <path d="M734.4000,137.7000L728.2800,137.7000"/>
   <path d="M91.8000,229.5000L97.9200,229.5000"/>
   <path d="M734.4000,229.5000L728.2800,229.5000"/>
   <path d="M91.8000,321.3000L97.9200,321.3000"/>
   <path d="M734.4000,321.3000L728.2800,321.3000"/>
   <path d="M91.8000,413.1000L97.9200,413.1000"/>
   <path d="M734.4000,413.1000L728.2800,413.1000"/>
   <path d="M91.8000,504.9000L97.9200,504.9000"/>
   <path d="M734.4000,504.9000L728.2800,504.9000"/>
   <path d="M91.8000,91.8000L104.0400,91.8000"/>
   <path d="M734.4000,91.8000L722.1600,91.8000"/>
   <path d="M91.8000,183.6000L104.0400,183.6000"/>
   <path d="M734.4000,183.6000L722.1600,183.6000"/>
   <path d="M91.8000,275.4000L104.0400,275.4000"/>
   <path d="M734.4000,275.4000L722.1600,275.4000"/>
   <path d="M91.8000,367.2000L104.0400,367.2000"/>
   <path d="M734.4000,367.2000L722.1600,367.2000"/>
   <path d="M91.8000,459.0000L104.0400,459.0000"/>
   <path d="M734.4000,459.0000L722.1600,459.0000"/>
   <path d="M91.8000,550.8000L104.0400,550.8000"/>
   <path d="M734.4000,550.8000L722.1600,550.8000"/>
  </g>
  <g style="fill:#000000; fill-rule:nonzero">
   <text   style="font-family:'Times','Nimbus Roman'; font-style:normal; font-weight:normal; font-size:612.0000" transform="matrix(0.0280,0.0000,-0.0000,-0.0280,77.6800,86.3000)">0</text>
   <text   style="font-family:'Times','Nimbus Roman'; font-style:normal; font-weight:normal; font-size:612.0000" transform="matrix(0.0280,0.0000,-0.0000,-0.0280,68.6800,178.1000)">20</text>
   <text   style="font-family:'Times','Nimbus Roman'; font-style:normal; font-weight:normal; font-size:612.0000" transform="matrix(0.0280,0.0000,-0.0000,-0.0280,68.6800,269.9000)">40</text>
   <text   style="font-family:'Times','Nimbus Roman'; font-style:normal; font-weight:normal; font-size:612.0000" transform="matrix(0.0280,0.0000,-0.0000,-0.0280,68.6800,361.2000)">60</text>
   <text   style="font-family:'Times','Nimbus Roman'; font-style:normal; font-weight:normal; font-size:612.0000" transform="matrix(0.0280,0.0000,-0.0000,-0.0280,68.6800,453.5000)">80</text>
   <text   style="font-family:'Times','Nimbus Roman'; font-style:normal; font-weight:normal; font-size:612.0000" transform="matrix(0.0280,0.0000,-0.0000,-0.0280,60.6800,544.8000)">100</text>
  </g>
  <g style="fill:none; stroke:#000000; stroke-width:  0.9180; stroke-linecap:butt; stroke-linejoin:miter; stroke-dasharray:none">
   <path d="M91.8000,91.8000L91.8000,550.8000L734.4000,550.8000L734.4000,91.8000z"/>
  </g>
 </g>
</svg>
