<?xml version="1.0" encoding="ISO-8859-1"?>
<!DOCTYPE svg PUBLIC "-//W3C//DTD SVG 1.0//EN" "http://www.w3.org/TR/2001/REC-SVG-20010904/DTD/svg10.dtd">
<!-- generated by Grace-5.1.25 -->
<svg xml:space="preserve" width="11.0000in" height="8.5000in" viewBox="0.0000 0.0000 792.0000 612.0000">
 <g transform="translate(0,612.0000) scale(1,-1)">
  <g style="fill:#FFFFFF; fill-rule:nonzero">
   <path  d="M0.0000,0.0000L0.0000,612.0000L792.0000,612.0000L792.0000,0.0000z"/>
  </g>
  <g style="fill:none; stroke:#000000; stroke-width:  0.9180; stroke-linecap:butt; stroke-linejoin:miter; stroke-dasharray:none">
   <path d="M147.4685,91.8000L147.4685,91.8000L159.7085,91.8000L159.7085,91.8000z"/>
   <path d="M169.0944,91.8000L169.0944,107.1000L181.3344,107.1000L181.3344,91.8000z"/>
   <path d="M190.7204,91.8000L190.7204,122.4000L202.9604,122.4000L202.9604,91.8000z"/>
   <path d="M212.3463,91.8000L212.3463,137.7000L224.5863,137.7000L224.5863,91.8000z"/>
   <path d="M233.9723,91.8000L233.9723,137.7000L246.2123,137.7000L246.2123,91.8000z"/>
   <path d="M255.5983,91.8000L255.5983,107.1000L267.8383,107.1000L267.8383,91.8000z"/>
   <path d="M277.2242,91.8000L277.2242,153.0000L289.4642,153.0000L289.4642,91.8000z"/>
   <path d="M298.8502,91.8000L298.8502,168.3000L311.0902,168.3000L311.0902,91.8000z"/>
   <path d="M320.4762,91.8000L320.4762,306.0000L332.7162,306.0000L332.7162,91.8000z"/>
   <path d="M342.1021,91.8000L342.1021,260.1000L354.3421,260.1000L354.3421,91.8000z"/>
   <path d="M363.7281,91.8000L363.7281,321.3000L375.9681,321.3000L375.9681,91.8000z"/>
   <path d="M385.3540,91.8000L385.3540,260.1000L397.5940,260.1000L397.5940,91.8000z"/>
   <path d="M406.9800,91.8000L406.9800,260.1000L419.2200,260.1000L419.2200,91.8000z"/>
   <path d="M428.6060,91.8000L428.6060,183.6000L440.8460,183.6000L440.8460,91.8000z"/>
   <path d="M450.2319,91.8000L450.2319,275.4000L462.4719,275.4000L462.4719,91.8000z"/>
   <path d="M471.8579,91.8000L471.8579,336.6000L484.0979,336.6000L484.0979,91.8000z"/>
   <path d="M493.4838,91.8000L493.4838,413.1000L505.7238,413.1000L505.7238,91.8000z"/>
   <path d="M515.1098,91.8000L515.1098,321.3000L527.3498,321.3000L527.3498,91.8000z"/>
   <path d="M536.7358,91.8000L536.7358,321.3000L548.9758,321.3000L548.9758,91.8000z"/>
   <path d="M558.3617,91.8000L558.3617,397.8000L570.6017,397.8000L570.6017,91.8000z"/>
   <path d="M579.9877,91.8000L579.9877,214.2000L592.2277,214.2000L592.2277,91.8000z"/>
   <path d="M601.6137,91.8000L601.6137,244.8000L613.8537,244.8000L613.8537,91.8000z"/>
   <path d="M623.2396,91.8000L623.2396,198.9000L635.4796,198.9000L635.4796,91.8000z"/>
   <path d="M644.8656,91.8000L644.8656,122.4000L657.1056,122.4000L657.1056,91.8000z"/>
   <path d="M666.4915,91.8000L666.4915,122.4000L678.7315,122.4000L678.7315,91.8000z"/>
   <path d="M688.1175,91.8000L688.1175,122.4000L700.3575,122.4000L700.3575,91.8000z"/>
   <path d="M91.8000,91.8000L734.4000,91.8000"/>
   <path d="M91.8000,550.8000L734.4000,550.8000"/>
   <path d="M172.1250,91.8000L172.1250,97.9200"/>
   <path d="M172.1250,550.8000L172.1250,544.6800"/>
   <path d="M332.7750,91.8000L332.7750,97.9200"/>
   <path d="M332.7750,550.8000L332.7750,544.6800"/>
   <path d="M493.4250,91.8000L493.4250,97.9200"/>
   <path d="M493.4250,550.8000L493.4250,544.6800"/>
   <path d="M654.0750,91.8000L654.0750,97.9200"/>
   <path d="M654.0750,550.8000L654.0750,544.6800"/>
   <path d="M91.8000,91.8000L91.8000,104.0400"/>
   <path d="M91.8000,550.8000L91.8000,538.5600"/>
   <path d="M252.4500,91.8000L252.4500,104.0400"/>
   <path d="M252.4500,550.8000L252.4500,538.5600"/>
   <path d="M413.1000,91.8000L413.1000,104.0400"/>
   <path d="M413.1000,550.8000L413.1000,538.5600"/>
   <path d="M573.7500,91.8000L573.7500,104.0400"/>
   <path d="M573.7500,550.8000L573.7500,538.5600"/>
   <path d="M734.4000,91.8000L734.4000,104.0400"/>
   <path d="M734.4000,550.8000L734.4000,538.5600"/>
  </g>
  <g style="fill:#000000; fill-rule:nonzero">
   <text   style="font-family:'Times','Nimbus Roman'; font-style:normal; font-weight:normal; font-size:612.0000" transform="matrix(0.0280,0.0000,-0.0000,-0.0280,84.8000,74.6800)">-2</text>
   <text   style="font-family:'Times','Nimbus Roman'; font-style:normal; font-weight:normal; font-size:612.0000" transform="matrix(0.0280,0.0000,-0.0000,-0.0280,245.9500,73.6800)">-1</text>
   <text   style="font-family:'Times','Nimbus Roman'; font-style:normal; font-weight:normal; font-size:612.0000" transform="matrix(0.0280,0.0000,-0.0000,-0.0280,409.1000,74.6800)">0</text>
   <text   style="font-family:'Times','Nimbus Roman'; font-style:normal; font-weight:normal; font-size:612.0000" transform="matrix(0.0280,0.0000,-0.0000,-0.0280,570.2500,73.6800)">1</text>
   <text   style="font-family:'Times','Nimbus Roman'; font-style:normal; font-weight:normal; font-size:612.0000" transform="matrix(0.0280,0.0000,-0.0000,-0.0280,730.4000,74.6800)">2</text>
  </g>
  <g style="fill:none; stroke:#000000; stroke-width:  0.9180; stroke-linecap:butt; stroke-linejoin:miter; stroke-dasharray:none">
   <path d="M91.8000,91.8000L91.8000,550.8000"/>
   <path d="M734.4000,91.8000L734.4000,550.8000"/>
   <path d="M91.8000,130.0500L97.9200,130.0500"/>
   <path d="M734.4000,130.0500L728.2800,130.0500"/>
   <path d="M91.8000,206.5500L97.9200,206.5500"/>
   <path d="M734.4000,206.5500L728.2800,206.5500"/>
   <path d="M91.8000,283.0500L97.9200,283.0500"/>
   <path d="M734.4000,283.0500L728.2800,283.0500"/>
   <path d="M91.8000,359.5500L97.9200,359.5500"/>
   <path d="M734.4000,359.5500L728.2800,359.5500"/>
   <path d="M91.8000,436.0500L97.9200,436.0500"/>
   <path d="M734.4000,436.0500L728.2800,436.0500"/>
   <path d="M91.8000,512.5500L97.9200,512.5500"/>
   <path d="M734.4000,512.5500L728.2800,512.5500"/>
   <path d="M91.8000,91.8000L104.0400,91.8000"/>
   <path d="M734.4000,91.8000L722.1600,91.8000"/>
   <path d="M91.8000,168.3000L104.0400,168.3000"/>
   <path d="M734.4000,168.3000L722.1600,168.3000"/>
   <path d="M91.8000,244.8000L104.0400,244.8000"/>
   <path d="M734.4000,244.8000L722.1600,244.8000"/>
   <path d="M91.8000,321.3000L104.0400,321.3000"/>
   <path d="M734.4000,321.3000L722.1600,321.3000"/>
   <path d="M91.8000,397.8000L104.0400,397.8000"/>
   <path d="M734.4000,397.8000L722.1600,397.8000"/>
   <path d="M91.8000,474.3000L104.0400,474.3000"/>
   <path d="M734.4000,474.3000L722.1600,474.3000"/>
   <path d="M91.8000,550.8000L104.0400,550.8000"/>
   <path d="M734.4000,550.8000L722.1600,550.8000"/>
  </g>
  <g style="fill:#000000; fill-rule:nonzero">
   <text   style="font-family:'Times','Nimbus Roman'; font-style:normal; font-weight:normal; font-size:612.0000" transform="matrix(0.0280,0.0000,-0.0000,-0.0280,77.6800,86.3000)">0</text>
   <text   style="font-family:'Times','Nimbus Roman'; font-style:normal; font-weight:normal; font-size:612.0000" transform="matrix(0.0280,0.0000,-0.0000,-0.0280,77.6800,162.3000)">5</text>
   <text   style="font-family:'Times','Nimbus Roman'; font-style:normal; font-weight:normal; font-size:612.0000" transform="matrix(0.0280,0.0000,-0.0000,-0.0280,68.6800,238.8000)">10</text>
   <text   style="font-family:'Times','Nimbus Roman'; font-style:normal; font-weight:normal; font-size:612.0000" transform="matrix(0.0280,0.0000,-0.0000,-0.0280,68.6800,315.3000)">15</text>
   <text   style="font-family:'Times','Nimbus Roman'; font-style:normal; font-weight:normal; font-size:612.0000" transform="matrix(0.0280,0.0000,-0.0000,-0.0280,68.6800,392.3000)">20</text>
   <text   style="font-family:'Times','Nimbus Roman'; font-style:normal; font-weight:normal; font-size:612.0000" transform="matrix(0.0280,0.0000,-0.0000,-0.0280,68.6800,468.3000)">25</text>
   <text   style="font-family:'Times','Nimbus Roman'; font-style:normal; font-weight:normal; font-size:612.0000" transform="matrix(0.0280,0.0000,-0.0000,-0.0280,68.6800,545.3000)">30</text>
  </g>
  <g style="fill:none; stroke:#000000; stroke-width:  0.9180; stroke-linecap:butt; stroke-linejoin:miter; stroke-dasharray:none">
   <path d="M91.8000,91.8000L91.8000,550.8000L734.4000,550.8000L734.4000,91.8000z"/>
  </g>
 </g>
</svg>
