<?xml version="1.0" encoding="ISO-8859-1"?>
<!DOCTYPE svg PUBLIC "-//W3C//DTD SVG 1.0//EN" "http://www.w3.org/TR/2001/REC-SVG-20010904/DTD/svg10.dtd">
<!-- generated by Grace-5.1.25 -->
<svg xml:space="preserve" width="11.0000in" height="8.5000in" viewBox="0.0000 0.0000 792.0000 612.0000">
 <g transform="translate(0,612.0000) scale(1,-1)">
  <g style="fill:#FFFFFF; fill-rule:nonzero">
   <path  d="M0.0000,0.0000L0.0000,612.0000L792.0000,612.0000L792.0000,0.0000z"/>
  </g>
  <g style="fill:none; stroke:#000000; stroke-width:  0.9180; stroke-linecap:butt; stroke-linejoin:miter; stroke-dasharray:none">
   <path d="M219.5550,91.8000L219.5550,183.6000L231.7950,183.6000L231.7950,91.8000z"/>
   <path d="M246.3300,91.8000L246.3300,214.2000L258.5700,214.2000L258.5700,91.8000z"/>
   <path d="M273.1050,91.8000L273.1050,367.2000L285.3450,367.2000L285.3450,91.8000z"/>
   <path d="M299.8800,91.8000L299.8800,474.3000L312.1200,474.3000L312.1200,91.8000z"/>
   <path d="M326.6550,91.8000L326.6550,367.2000L338.8950,367.2000L338.8950,91.8000z"/>
   <path d="M353.4300,91.8000L353.4300,336.6000L365.6700,336.6000L365.6700,91.8000z"/>
   <path d="M380.2050,91.8000L380.2050,321.3000L392.4450,321.3000L392.4450,91.8000z"/>
   <path d="M406.9800,91.8000L406.9800,443.7000L419.2200,443.7000L419.2200,91.8000z"/>
   <path d="M433.7550,91.8000L433.7550,198.9000L445.9950,198.9000L445.9950,91.8000z"/>
   <path d="M460.5300,91.8000L460.5300,183.6000L472.7700,183.6000L472.7700,91.8000z"/>
   <path d="M487.3050,91.8000L487.3050,168.3000L499.5450,168.3000L499.5450,91.8000z"/>
   <path d="M514.0800,91.8000L514.0800,183.6000L526.3200,183.6000L526.3200,91.8000z"/>
   <path d="M540.8550,91.8000L540.8550,198.9000L553.0950,198.9000L553.0950,91.8000z"/>
   <path d="M567.6300,91.8000L567.6300,290.7000L579.8700,290.7000L579.8700,91.8000z"/>
   <path d="M594.4050,91.8000L594.4050,260.1000L606.6450,260.1000L606.6450,91.8000z"/>
   <path d="M621.1800,91.8000L621.1800,290.7000L633.4200,290.7000L633.4200,91.8000z"/>
   <path d="M91.8000,91.8000L734.4000,91.8000"/>
   <path d="M91.8000,550.8000L734.4000,550.8000"/>
   <path d="M145.3500,91.8000L145.3500,97.9200"/>
   <path d="M145.3500,550.8000L145.3500,544.6800"/>
   <path d="M252.4500,91.8000L252.4500,97.9200"/>
   <path d="M252.4500,550.8000L252.4500,544.6800"/>
   <path d="M359.5500,91.8000L359.5500,97.9200"/>
   <path d="M359.5500,550.8000L359.5500,544.6800"/>
   <path d="M466.6500,91.8000L466.6500,97.9200"/>
   <path d="M466.6500,550.8000L466.6500,544.6800"/>
   <path d="M573.7500,91.8000L573.7500,97.9200"/>
   <path d="M573.7500,550.8000L573.7500,544.6800"/>
   <path d="M680.8500,91.8000L680.8500,97.9200"/>
   <path d="M680.8500,550.8000L680.8500,544.6800"/>
   <path d="M91.8000,91.8000L91.8000,104.0400"/>
   <path d="M91.8000,550.8000L91.8000,538.5600"/>
   <path d="M198.9000,91.8000L198.9000,104.0400"/>
   <path d="M198.9000,550.8000L198.9000,538.5600"/>
   <path d="M306.0000,91.8000L306.0000,104.0400"/>
   <path d="M306.0000,550.8000L306.0000,538.5600"/>
   <path d="M413.1000,91.8000L413.1000,104.0400"/>
   <path d="M413.1000,550.8000L413.1000,538.5600"/>
   <path d="M520.2000,91.8000L520.2000,104.0400"/>
   <path d="M520.2000,550.8000L520.2000,538.5600"/>
   <path d="M627.3000,91.8000L627.3000,104.0400"/>
   <path d="M627.3000,550.8000L627.3000,538.5600"/>
   <path d="M734.4000,91.8000L734.4000,104.0400"/>
   <path d="M734.4000,550.8000L734.4000,538.5600"/>
  </g>
  <g style="fill:#000000; fill-rule:nonzero">
   <text   style="font-family:'Times','Nimbus Roman'; font-style:normal; font-weight:normal; font-size:612.0000" transform="matrix(0.0280,0.0000,-0.0000,-0.0280,87.8000,74.6800)">0</text>
   <text   style="font-family:'Times','Nimbus Roman'; font-style:normal; font-weight:normal; font-size:612.0000" transform="matrix(0.0280,0.0000,-0.0000,-0.0280,188.4000,73.6800)">0.5</text>
   <text   style="font-family:'Times','Nimbus Roman'; font-style:normal; font-weight:normal; font-size:612.0000" transform="matrix(0.0280,0.0000,-0.0000,-0.0280,302.5000,73.6800)">1</text>
   <text   style="font-family:'Times','Nimbus Roman'; font-style:normal; font-weight:normal; font-size:612.0000" transform="matrix(0.0280,0.0000,-0.0000,-0.0280,402.6000,73.6800)">1.5</text>
   <text   style="font-family:'Times','Nimbus Roman'; font-style:normal; font-weight:normal; font-size:612.0000" transform="matrix(0.0280,0.0000,-0.0000,-0.0280,516.2000,74.6800)">2</text>
   <text   style="font-family:'Times','Nimbus Roman'; font-style:normal; font-weight:normal; font-size:612.0000" transform="matrix(0.0280,0.0000,-0.0000,-0.0280,616.8000,73.6800)">2.5</text>
   <text   style="font-family:'Times','Nimbus Roman'; font-style:normal; font-weight:normal; font-size:612.0000" transform="matrix(0.0280,0.0000,-0.0000,-0.0280,730.9000,74.6800)">3</text>
  </g>
  <g style="fill:none; stroke:#000000; stroke-width:  0.9180; stroke-linecap:butt; stroke-linejoin:miter; stroke-dasharray:none">
   <path d="M91.8000,91.8000L91.8000,550.8000"/>
   <path d="M734.4000,91.8000L734.4000,550.8000"/>
   <path d="M91.8000,130.0500L97.9200,130.0500"/>
   <path d="M734.4000,130.0500L728.2800,130.0500"/>
   <path d="M91.8000,206.5500L97.9200,206.5500"/>
   <path d="M734.4000,206.5500L728.2800,206.5500"/>
   <path d="M91.8000,283.0500L97.9200,283.0500"/>
   <path d="M734.4000,283.0500L728.2800,283.0500"/>
   <path d="M91.8000,359.5500L97.9200,359.5500"/>
   <path d="M734.4000,359.5500L728.2800,359.5500"/>
   <path d="M91.8000,436.0500L97.9200,436.0500"/>
   <path d="M734.4000,436.0500L728.2800,436.0500"/>
   <path d="M91.8000,512.5500L97.9200,512.5500"/>
   <path d="M734.4000,512.5500L728.2800,512.5500"/>
   <path d="M91.8000,91.8000L104.0400,91.8000"/>
   <path d="M734.4000,91.8000L722.1600,91.8000"/>
   <path d="M91.8000,168.3000L104.0400,168.3000"/>
   <path d="M734.4000,168.3000L722.1600,168.3000"/>
   <path d="M91.8000,244.8000L104.0400,244.8000"/>
   <path d="M734.4000,244.8000L722.1600,244.8000"/>
   <path d="M91.8000,321.3000L104.0400,321.3000"/>
   <path d="M734.4000,321.3000L722.1600,321.3000"/>
   <path d="M91.8000,397.8000L104.0400,397.8000"/>
   <path d="M734.4000,397.8000L722.1600,397.8000"/>
   <path d="M91.8000,474.3000L104.0400,474.3000"/>
   <path d="M734.4000,474.3000L722.1600,474.3000"/>
   <path d="M91.8000,550.8000L104.0400,550.8000"/>
   <path d="M734.4000,550.8000L722.1600,550.8000"/>
  </g>
  <g style="fill:#000000; fill-rule:nonzero">
   <text   style="font-family:'Times','Nimbus Roman'; font-style:normal; font-weight:normal; font-size:612.0000" transform="matrix(0.0280,0.0000,-0.0000,-0.0280,77.6800,86.3000)">0</text>
   <text   style="font-family:'Times','Nimbus Roman'; font-style:normal; font-weight:normal; font-size:612.0000" transform="matrix(0.0280,0.0000,-0.0000,-0.0280,77.6800,162.3000)">5</text>
   <text   style="font-family:'Times','Nimbus Roman'; font-style:normal; font-weight:normal; font-size:612.0000" transform="matrix(0.0280,0.0000,-0.0000,-0.0280,68.6800,238.8000)">10</text>
   <text   style="font-family:'Times','Nimbus Roman'; font-style:normal; font-weight:normal; font-size:612.0000" transform="matrix(0.0280,0.0000,-0.0000,-0.0280,68.6800,315.3000)">15</text>
   <text   style="font-family:'Times','Nimbus Roman'; font-style:normal; font-weight:normal; font-size:612.0000" transform="matrix(0.0280,0.0000,-0.0000,-0.0280,68.6800,392.3000)">20</text>
   <text   style="font-family:'Times','Nimbus Roman'; font-style:normal; font-weight:normal; font-size:612.0000" transform="matrix(0.0280,0.0000,-0.0000,-0.0280,68.6800,468.3000)">25</text>
   <text   style="font-family:'Times','Nimbus Roman'; font-style:normal; font-weight:normal; font-size:612.0000" transform="matrix(0.0280,0.0000,-0.0000,-0.0280,68.6800,545.3000)">30</text>
  </g>
  <g style="fill:none; stroke:#000000; stroke-width:  0.9180; stroke-linecap:butt; stroke-linejoin:miter; stroke-dasharray:none">
   <path d="M91.8000,91.8000L91.8000,550.8000L734.4000,550.8000L734.4000,91.8000z"/>
  </g>
 </g>
</svg>
