<?xml version="1.0" encoding="ISO-8859-1"?>
<!DOCTYPE svg PUBLIC "-//W3C//DTD SVG 1.0//EN" "http://www.w3.org/TR/2001/REC-SVG-20010904/DTD/svg10.dtd">
<!-- generated by Grace-5.1.25 -->
<svg xml:space="preserve" width="11.0000in" height="8.5000in" viewBox="0.0000 0.0000 792.0000 612.0000">
 <g transform="translate(0,612.0000) scale(1,-1)">
  <g style="fill:#FFFFFF; fill-rule:nonzero">
   <path  d="M0.0000,0.0000L0.0000,612.0000L792.0000,612.0000L792.0000,0.0000z"/>
  </g>
  <g style="fill:none; stroke:#000000; stroke-width:  0.9180; stroke-linecap:butt; stroke-linejoin:miter; stroke-dasharray:none">
   <ellipse  rx="6.1200" ry="6.1200" cx="578.7711" cy="261.9974"/>
   <ellipse  rx="6.1200" ry="6.1200" cx="498.5944" cy="242.7505"/>
   <ellipse  rx="6.1200" ry="6.1200" cx="389.5631" cy="325.3883"/>
   <ellipse  rx="6.1200" ry="6.1200" cx="495.9041" cy="207.7708"/>
   <ellipse  rx="6.1200" ry="6.1200" cx="164.7391" cy="305.8682"/>
   <ellipse  rx="6.1200" ry="6.1200" cx="450.3796" cy="307.1787"/>
   <ellipse  rx="6.1200" ry="6.1200" cx="661.5898" cy="226.9396"/>
   <ellipse  rx="6.1200" ry="6.1200" cx="659.5737" cy="248.6498"/>
   <ellipse  rx="6.1200" ry="6.1200" cx="654.8129" cy="280.8286"/>
   <ellipse  rx="6.1200" ry="6.1200" cx="625.3438" cy="240.2100"/>
   <ellipse  rx="6.1200" ry="6.1200" cx="476.2912" cy="312.6615"/>
   <ellipse  rx="6.1200" ry="6.1200" cx="471.3538" cy="241.3015"/>
   <ellipse  rx="6.1200" ry="6.1200" cx="632.6983" cy="248.2088"/>
   <ellipse  rx="6.1200" ry="6.1200" cx="416.1991" cy="215.9523"/>
   <ellipse  rx="6.1200" ry="6.1200" cx="608.3108" cy="272.2503"/>
   <ellipse  rx="6.1200" ry="6.1200" cx="459.8026" cy="262.3967"/>
   <ellipse  rx="6.1200" ry="6.1200" cx="320.3766" cy="139.0825"/>
   <ellipse  rx="6.1200" ry="6.1200" cx="588.5563" cy="248.0540"/>
   <ellipse  rx="6.1200" ry="6.1200" cx="659.9704" cy="265.0862"/>
   <ellipse  rx="6.1200" ry="6.1200" cx="439.8543" cy="244.7434"/>
   <ellipse  rx="6.1200" ry="6.1200" cx="594.6003" cy="329.7626"/>
   <ellipse  rx="6.1200" ry="6.1200" cx="208.9013" cy="247.5764"/>
   <ellipse  rx="6.1200" ry="6.1200" cx="520.2360" cy="251.0298"/>
   <ellipse  rx="6.1200" ry="6.1200" cx="292.4487" cy="226.5369"/>
   <ellipse  rx="6.1200" ry="6.1200" cx="245.1686" cy="214.2174"/>
   <ellipse  rx="6.1200" ry="6.1200" cx="283.8593" cy="213.5882"/>
   <ellipse  rx="6.1200" ry="6.1200" cx="577.6822" cy="240.4835"/>
   <ellipse  rx="6.1200" ry="6.1200" cx="457.5585" cy="241.0706"/>
   <ellipse  rx="6.1200" ry="6.1200" cx="606.9057" cy="243.9450"/>
   <ellipse  rx="6.1200" ry="6.1200" cx="410.7092" cy="218.3694"/>
   <ellipse  rx="6.1200" ry="6.1200" cx="677.2132" cy="302.4502"/>
   <ellipse  rx="6.1200" ry="6.1200" cx="568.1813" cy="342.9868"/>
   <ellipse  rx="6.1200" ry="6.1200" cx="520.3944" cy="273.1609"/>
   <ellipse  rx="6.1200" ry="6.1200" cx="529.8931" cy="301.3189"/>
   <ellipse  rx="6.1200" ry="6.1200" cx="545.2824" cy="227.6190"/>
   <ellipse  rx="6.1200" ry="6.1200" cx="364.4014" cy="185.5381"/>
   <ellipse  rx="6.1200" ry="6.1200" cx="408.2511" cy="241.4853"/>
   <ellipse  rx="6.1200" ry="6.1200" cx="537.5175" cy="314.1888"/>
   <ellipse  rx="6.1200" ry="6.1200" cx="148.5029" cy="197.5749"/>
   <ellipse  rx="6.1200" ry="6.1200" cx="580.6800" cy="215.3379"/>
   <ellipse  rx="6.1200" ry="6.1200" cx="444.2687" cy="285.5291"/>
   <ellipse  rx="6.1200" ry="6.1200" cx="386.7574" cy="221.1806"/>
   <ellipse  rx="6.1200" ry="6.1200" cx="349.2149" cy="211.9762"/>
   <ellipse  rx="6.1200" ry="6.1200" cx="595.1540" cy="397.2758"/>
   <ellipse  rx="6.1200" ry="6.1200" cx="541.2029" cy="226.5366"/>
   <ellipse  rx="6.1200" ry="6.1200" cx="625.1320" cy="224.2176"/>
   <ellipse  rx="6.1200" ry="6.1200" cx="577.3317" cy="175.7614"/>
   <ellipse  rx="6.1200" ry="6.1200" cx="401.0393" cy="212.9509"/>
   <ellipse  rx="6.1200" ry="6.1200" cx="466.0723" cy="309.0454"/>
   <ellipse  rx="6.1200" ry="6.1200" cx="322.2808" cy="304.2423"/>
   <ellipse  rx="6.1200" ry="6.1200" cx="439.9480" cy="265.6606"/>
   <ellipse  rx="6.1200" ry="6.1200" cx="511.6018" cy="303.1869"/>
   <ellipse  rx="6.1200" ry="6.1200" cx="555.6980" cy="220.1042"/>
   <ellipse  rx="6.1200" ry="6.1200" cx="621.5653" cy="257.4321"/>
   <ellipse  rx="6.1200" ry="6.1200" cx="568.1197" cy="278.3990"/>
   <ellipse  rx="6.1200" ry="6.1200" cx="432.3828" cy="220.1040"/>
   <ellipse  rx="6.1200" ry="6.1200" cx="528.3206" cy="259.0679"/>
   <ellipse  rx="6.1200" ry="6.1200" cx="609.4363" cy="509.2574"/>
   <ellipse  rx="6.1200" ry="6.1200" cx="196.3172" cy="230.7217"/>
   <ellipse  rx="6.1200" ry="6.1200" cx="388.4059" cy="196.1086"/>
   <ellipse  rx="6.1200" ry="6.1200" cx="281.3032" cy="180.6271"/>
   <ellipse  rx="6.1200" ry="6.1200" cx="534.3578" cy="269.5613"/>
   <ellipse  rx="6.1200" ry="6.1200" cx="604.7477" cy="224.4590"/>
   <ellipse  rx="6.1200" ry="6.1200" cx="502.3420" cy="279.2996"/>
   <ellipse  rx="6.1200" ry="6.1200" cx="553.2718" cy="250.8689"/>
   <ellipse  rx="6.1200" ry="6.1200" cx="566.3815" cy="267.1018"/>
   <ellipse  rx="6.1200" ry="6.1200" cx="308.8658" cy="210.7737"/>
   <ellipse  rx="6.1200" ry="6.1200" cx="539.1672" cy="226.2715"/>
   <ellipse  rx="6.1200" ry="6.1200" cx="414.1161" cy="298.1236"/>
   <ellipse  rx="6.1200" ry="6.1200" cx="295.8972" cy="267.7746"/>
   <ellipse  rx="6.1200" ry="6.1200" cx="647.3289" cy="393.8549"/>
   <ellipse  rx="6.1200" ry="6.1200" cx="303.6880" cy="265.4374"/>
   <ellipse  rx="6.1200" ry="6.1200" cx="308.7658" cy="208.4852"/>
   <ellipse  rx="6.1200" ry="6.1200" cx="352.3830" cy="346.1436"/>
   <ellipse  rx="6.1200" ry="6.1200" cx="547.8707" cy="301.7422"/>
   <ellipse  rx="6.1200" ry="6.1200" cx="287.0392" cy="199.2585"/>
   <ellipse  rx="6.1200" ry="6.1200" cx="286.8779" cy="270.3406"/>
   <ellipse  rx="6.1200" ry="6.1200" cx="286.8231" cy="413.6016"/>
   <ellipse  rx="6.1200" ry="6.1200" cx="454.2123" cy="412.3685"/>
   <ellipse  rx="6.1200" ry="6.1200" cx="413.2502" cy="366.3653"/>
   <ellipse  rx="6.1200" ry="6.1200" cx="598.8572" cy="328.3770"/>
   <ellipse  rx="6.1200" ry="6.1200" cx="609.1437" cy="232.1300"/>
   <ellipse  rx="6.1200" ry="6.1200" cx="330.0862" cy="199.3715"/>
   <ellipse  rx="6.1200" ry="6.1200" cx="673.3107" cy="260.9825"/>
   <ellipse  rx="6.1200" ry="6.1200" cx="359.8184" cy="216.6347"/>
   <ellipse  rx="6.1200" ry="6.1200" cx="350.9266" cy="367.1812"/>
   <ellipse  rx="6.1200" ry="6.1200" cx="282.1317" cy="278.7089"/>
   <ellipse  rx="6.1200" ry="6.1200" cx="660.6707" cy="280.9848"/>
   <ellipse  rx="6.1200" ry="6.1200" cx="181.0963" cy="325.9494"/>
   <ellipse  rx="6.1200" ry="6.1200" cx="365.9432" cy="383.4003"/>
   <ellipse  rx="6.1200" ry="6.1200" cx="462.5646" cy="154.4136"/>
   <ellipse  rx="6.1200" ry="6.1200" cx="371.2435" cy="341.7836"/>
   <ellipse  rx="6.1200" ry="6.1200" cx="621.6573" cy="306.8762"/>
   <ellipse  rx="6.1200" ry="6.1200" cx="457.4060" cy="294.4620"/>
   <ellipse  rx="6.1200" ry="6.1200" cx="461.0812" cy="186.4511"/>
   <ellipse  rx="6.1200" ry="6.1200" cx="274.6199" cy="235.2848"/>
   <ellipse  rx="6.1200" ry="6.1200" cx="451.0986" cy="194.9550"/>
   <ellipse  rx="6.1200" ry="6.1200" cx="559.0352" cy="210.4799"/>
   <ellipse  rx="6.1200" ry="6.1200" cx="614.4249" cy="206.0381"/>
   <ellipse  rx="6.1200" ry="6.1200" cx="335.3567" cy="282.5892"/>
   <ellipse  rx="6.1200" ry="6.1200" cx="526.1128" cy="367.5336"/>
   <ellipse  rx="6.1200" ry="6.1200" cx="345.7461" cy="242.7790"/>
   <ellipse  rx="6.1200" ry="6.1200" cx="544.2808" cy="284.4294"/>
   <ellipse  rx="6.1200" ry="6.1200" cx="268.1081" cy="224.7967"/>
   <ellipse  rx="6.1200" ry="6.1200" cx="281.2784" cy="295.3644"/>
   <ellipse  rx="6.1200" ry="6.1200" cx="700.7651" cy="299.9894"/>
   <ellipse  rx="6.1200" ry="6.1200" cx="565.1290" cy="274.6629"/>
   <ellipse  rx="6.1200" ry="6.1200" cx="497.0675" cy="188.3756"/>
   <ellipse  rx="6.1200" ry="6.1200" cx="577.6496" cy="175.7614"/>
   <ellipse  rx="6.1200" ry="6.1200" cx="254.6414" cy="135.9003"/>
   <ellipse  rx="6.1200" ry="6.1200" cx="494.5784" cy="180.4042"/>
   <ellipse  rx="6.1200" ry="6.1200" cx="579.8035" cy="248.5137"/>
   <path d="M91.8000,91.8000L91.8000,520.2000L703.8000,520.2000L703.8000,91.8000z"/>
  </g>
 </g>
</svg>
