<?xml version="1.0" encoding="ISO-8859-1"?>
<!DOCTYPE svg PUBLIC "-//W3C//DTD SVG 1.0//EN" "http://www.w3.org/TR/2001/REC-SVG-20010904/DTD/svg10.dtd">
<!-- generated by Grace-5.1.25 -->
<svg xml:space="preserve" width="11.0000in" height="8.5000in" viewBox="0.0000 0.0000 792.0000 612.0000">
 <g transform="translate(0,612.0000) scale(1,-1)">
  <g style="fill:#FFFFFF; fill-rule:nonzero">
   <path  d="M0.0000,0.0000L0.0000,612.0000L792.0000,612.0000L792.0000,0.0000z"/>
  </g>
  <g style="fill:none; stroke:#000000; stroke-width:  0.9180; stroke-linecap:butt; stroke-linejoin:miter; stroke-dasharray:none">
   <ellipse  rx="6.1200" ry="6.1200" cx="578.7711" cy="111.5669"/>
   <ellipse  rx="6.1200" ry="6.1200" cx="498.5944" cy="120.2498"/>
   <ellipse  rx="6.1200" ry="6.1200" cx="389.5631" cy="112.0724"/>
   <ellipse  rx="6.1200" ry="6.1200" cx="495.9041" cy="105.9212"/>
   <ellipse  rx="6.1200" ry="6.1200" cx="164.7391" cy="112.0624"/>
   <ellipse  rx="6.1200" ry="6.1200" cx="450.3796" cy="110.3266"/>
   <ellipse  rx="6.1200" ry="6.1200" cx="661.5898" cy="105.8038"/>
   <ellipse  rx="6.1200" ry="6.1200" cx="659.5737" cy="107.2827"/>
   <ellipse  rx="6.1200" ry="6.1200" cx="654.8129" cy="124.5663"/>
   <ellipse  rx="6.1200" ry="6.1200" cx="625.3438" cy="108.7479"/>
   <ellipse  rx="6.1200" ry="6.1200" cx="476.2912" cy="115.1941"/>
   <ellipse  rx="6.1200" ry="6.1200" cx="471.3538" cy="106.2170"/>
   <ellipse  rx="6.1200" ry="6.1200" cx="632.6983" cy="108.3386"/>
   <ellipse  rx="6.1200" ry="6.1200" cx="416.1991" cy="105.2398"/>
   <ellipse  rx="6.1200" ry="6.1200" cx="608.3108" cy="108.5792"/>
   <ellipse  rx="6.1200" ry="6.1200" cx="459.8026" cy="479.6077"/>
   <ellipse  rx="6.1200" ry="6.1200" cx="588.5563" cy="111.4466"/>
   <ellipse  rx="6.1200" ry="6.1200" cx="659.9704" cy="106.9375"/>
   <ellipse  rx="6.1200" ry="6.1200" cx="439.8543" cy="107.1648"/>
   <ellipse  rx="6.1200" ry="6.1200" cx="594.6003" cy="111.1288"/>
   <ellipse  rx="6.1200" ry="6.1200" cx="208.9013" cy="134.9080"/>
   <ellipse  rx="6.1200" ry="6.1200" cx="520.2360" cy="119.7823"/>
   <ellipse  rx="6.1200" ry="6.1200" cx="292.4487" cy="104.3633"/>
   <ellipse  rx="6.1200" ry="6.1200" cx="245.1686" cy="319.6477"/>
   <ellipse  rx="6.1200" ry="6.1200" cx="283.8593" cy="105.6198"/>
   <ellipse  rx="6.1200" ry="6.1200" cx="577.6822" cy="106.2852"/>
   <ellipse  rx="6.1200" ry="6.1200" cx="457.5585" cy="165.1099"/>
   <ellipse  rx="6.1200" ry="6.1200" cx="606.9057" cy="106.7728"/>
   <ellipse  rx="6.1200" ry="6.1200" cx="410.7092" cy="187.7125"/>
   <ellipse  rx="6.1200" ry="6.1200" cx="677.2132" cy="111.3763"/>
   <ellipse  rx="6.1200" ry="6.1200" cx="568.1813" cy="113.6294"/>
   <ellipse  rx="6.1200" ry="6.1200" cx="520.3944" cy="106.5671"/>
   <ellipse  rx="6.1200" ry="6.1200" cx="529.8931" cy="119.9477"/>
   <ellipse  rx="6.1200" ry="6.1200" cx="545.2824" cy="105.9085"/>
   <ellipse  rx="6.1200" ry="6.1200" cx="364.4014" cy="104.1780"/>
   <ellipse  rx="6.1200" ry="6.1200" cx="408.2511" cy="392.3766"/>
   <ellipse  rx="6.1200" ry="6.1200" cx="537.5175" cy="110.7015"/>
   <ellipse  rx="6.1200" ry="6.1200" cx="148.5029" cy="134.7758"/>
   <ellipse  rx="6.1200" ry="6.1200" cx="580.6800" cy="115.1235"/>
   <ellipse  rx="6.1200" ry="6.1200" cx="444.2687" cy="121.0049"/>
   <ellipse  rx="6.1200" ry="6.1200" cx="386.7574" cy="105.4898"/>
   <ellipse  rx="6.1200" ry="6.1200" cx="349.2149" cy="105.3311"/>
   <ellipse  rx="6.1200" ry="6.1200" cx="595.1540" cy="115.3781"/>
   <ellipse  rx="6.1200" ry="6.1200" cx="541.2029" cy="105.7262"/>
   <ellipse  rx="6.1200" ry="6.1200" cx="625.1320" cy="145.4726"/>
   <ellipse  rx="6.1200" ry="6.1200" cx="577.3317" cy="141.5206"/>
   <ellipse  rx="6.1200" ry="6.1200" cx="401.0393" cy="107.8327"/>
   <ellipse  rx="6.1200" ry="6.1200" cx="466.0723" cy="206.4550"/>
   <ellipse  rx="6.1200" ry="6.1200" cx="322.2808" cy="113.6404"/>
   <ellipse  rx="6.1200" ry="6.1200" cx="439.9480" cy="107.8694"/>
   <ellipse  rx="6.1200" ry="6.1200" cx="511.6018" cy="306.1374"/>
   <ellipse  rx="6.1200" ry="6.1200" cx="555.6980" cy="130.6180"/>
   <ellipse  rx="6.1200" ry="6.1200" cx="621.5653" cy="181.0054"/>
   <ellipse  rx="6.1200" ry="6.1200" cx="568.1197" cy="108.1152"/>
   <ellipse  rx="6.1200" ry="6.1200" cx="432.3828" cy="116.4859"/>
   <ellipse  rx="6.1200" ry="6.1200" cx="528.3206" cy="108.6555"/>
   <ellipse  rx="6.1200" ry="6.1200" cx="609.4363" cy="120.4655"/>
   <ellipse  rx="6.1200" ry="6.1200" cx="196.3172" cy="105.9023"/>
   <ellipse  rx="6.1200" ry="6.1200" cx="388.4059" cy="106.7629"/>
   <ellipse  rx="6.1200" ry="6.1200" cx="534.3578" cy="109.3379"/>
   <ellipse  rx="6.1200" ry="6.1200" cx="604.7477" cy="119.5939"/>
   <ellipse  rx="6.1200" ry="6.1200" cx="502.3420" cy="107.5654"/>
   <ellipse  rx="6.1200" ry="6.1200" cx="553.2718" cy="107.3535"/>
   <ellipse  rx="6.1200" ry="6.1200" cx="566.3815" cy="109.8185"/>
   <ellipse  rx="6.1200" ry="6.1200" cx="308.8658" cy="106.3027"/>
   <ellipse  rx="6.1200" ry="6.1200" cx="539.1672" cy="109.3736"/>
   <ellipse  rx="6.1200" ry="6.1200" cx="414.1161" cy="110.8350"/>
   <ellipse  rx="6.1200" ry="6.1200" cx="295.8972" cy="116.8699"/>
   <ellipse  rx="6.1200" ry="6.1200" cx="647.3289" cy="114.0556"/>
   <ellipse  rx="6.1200" ry="6.1200" cx="303.6880" cy="110.8219"/>
   <ellipse  rx="6.1200" ry="6.1200" cx="308.7658" cy="106.1310"/>
   <ellipse  rx="6.1200" ry="6.1200" cx="352.3830" cy="150.3392"/>
   <ellipse  rx="6.1200" ry="6.1200" cx="547.8707" cy="110.0317"/>
   <ellipse  rx="6.1200" ry="6.1200" cx="287.0392" cy="105.8037"/>
   <ellipse  rx="6.1200" ry="6.1200" cx="286.8779" cy="108.0332"/>
   <ellipse  rx="6.1200" ry="6.1200" cx="286.8231" cy="114.2725"/>
   <ellipse  rx="6.1200" ry="6.1200" cx="454.2123" cy="136.1800"/>
   <ellipse  rx="6.1200" ry="6.1200" cx="413.2502" cy="112.9131"/>
   <ellipse  rx="6.1200" ry="6.1200" cx="598.8572" cy="110.0716"/>
   <ellipse  rx="6.1200" ry="6.1200" cx="609.1437" cy="104.6534"/>
   <ellipse  rx="6.1200" ry="6.1200" cx="330.0862" cy="106.5087"/>
   <ellipse  rx="6.1200" ry="6.1200" cx="673.3107" cy="106.5338"/>
   <ellipse  rx="6.1200" ry="6.1200" cx="359.8184" cy="106.4152"/>
   <ellipse  rx="6.1200" ry="6.1200" cx="350.9266" cy="115.4836"/>
   <ellipse  rx="6.1200" ry="6.1200" cx="282.1317" cy="109.3951"/>
   <ellipse  rx="6.1200" ry="6.1200" cx="660.6707" cy="110.4990"/>
   <ellipse  rx="6.1200" ry="6.1200" cx="181.0963" cy="147.8167"/>
   <ellipse  rx="6.1200" ry="6.1200" cx="365.9432" cy="112.6943"/>
   <ellipse  rx="6.1200" ry="6.1200" cx="462.5646" cy="332.5704"/>
   <ellipse  rx="6.1200" ry="6.1200" cx="371.2435" cy="111.1087"/>
   <ellipse  rx="6.1200" ry="6.1200" cx="621.6573" cy="108.4362"/>
   <ellipse  rx="6.1200" ry="6.1200" cx="457.4060" cy="110.7539"/>
   <ellipse  rx="6.1200" ry="6.1200" cx="461.0812" cy="142.5012"/>
   <ellipse  rx="6.1200" ry="6.1200" cx="274.6199" cy="107.1886"/>
   <ellipse  rx="6.1200" ry="6.1200" cx="451.0986" cy="106.7998"/>
   <ellipse  rx="6.1200" ry="6.1200" cx="559.0352" cy="104.8831"/>
   <ellipse  rx="6.1200" ry="6.1200" cx="614.4249" cy="105.0981"/>
   <ellipse  rx="6.1200" ry="6.1200" cx="335.3567" cy="110.3497"/>
   <ellipse  rx="6.1200" ry="6.1200" cx="526.1128" cy="237.4962"/>
   <ellipse  rx="6.1200" ry="6.1200" cx="345.7461" cy="142.7665"/>
   <ellipse  rx="6.1200" ry="6.1200" cx="544.2808" cy="109.5556"/>
   <ellipse  rx="6.1200" ry="6.1200" cx="268.1081" cy="143.4594"/>
   <ellipse  rx="6.1200" ry="6.1200" cx="281.2784" cy="116.5734"/>
   <ellipse  rx="6.1200" ry="6.1200" cx="700.7651" cy="111.3584"/>
   <ellipse  rx="6.1200" ry="6.1200" cx="565.1290" cy="108.4716"/>
   <ellipse  rx="6.1200" ry="6.1200" cx="577.6496" cy="141.5214"/>
   <ellipse  rx="6.1200" ry="6.1200" cx="494.5784" cy="103.7564"/>
   <ellipse  rx="6.1200" ry="6.1200" cx="579.8035" cy="107.4470"/>
   <path d="M91.8000,91.8000L91.8000,520.2000L703.8000,520.2000L703.8000,91.8000z"/>
  </g>
 </g>
</svg>
