<?xml version="1.0" encoding="ISO-8859-1"?>
<!DOCTYPE svg PUBLIC "-//W3C//DTD SVG 1.0//EN" "http://www.w3.org/TR/2001/REC-SVG-20010904/DTD/svg10.dtd">
<!-- generated by Grace-5.1.25 -->
<svg xml:space="preserve" width="11.0000in" height="8.5000in" viewBox="0.0000 0.0000 792.0000 612.0000">
 <g transform="translate(0,612.0000) scale(1,-1)">
  <g style="fill:#FFFFFF; fill-rule:nonzero">
   <path  d="M0.0000,0.0000L0.0000,612.0000L792.0000,612.0000L792.0000,0.0000z"/>
  </g>
  <g style="fill:none; stroke:#000000; stroke-width:  0.9180; stroke-linecap:butt; stroke-linejoin:miter; stroke-dasharray:none">
   <ellipse  rx="6.1200" ry="6.1200" cx="578.7711" cy="120.0477"/>
   <ellipse  rx="6.1200" ry="6.1200" cx="498.5944" cy="112.6010"/>
   <ellipse  rx="6.1200" ry="6.1200" cx="389.5631" cy="103.7916"/>
   <ellipse  rx="6.1200" ry="6.1200" cx="495.9041" cy="125.9838"/>
   <ellipse  rx="6.1200" ry="6.1200" cx="164.7391" cy="95.7745"/>
   <ellipse  rx="6.1200" ry="6.1200" cx="450.3796" cy="107.9747"/>
   <ellipse  rx="6.1200" ry="6.1200" cx="654.8129" cy="195.8621"/>
   <ellipse  rx="6.1200" ry="6.1200" cx="625.3438" cy="298.5962"/>
   <ellipse  rx="6.1200" ry="6.1200" cx="476.2912" cy="101.8871"/>
   <ellipse  rx="6.1200" ry="6.1200" cx="471.3538" cy="126.8570"/>
   <ellipse  rx="6.1200" ry="6.1200" cx="459.8026" cy="122.2025"/>
   <ellipse  rx="6.1200" ry="6.1200" cx="320.3766" cy="103.0891"/>
   <ellipse  rx="6.1200" ry="6.1200" cx="659.9704" cy="208.2554"/>
   <ellipse  rx="6.1200" ry="6.1200" cx="208.9013" cy="96.7080"/>
   <ellipse  rx="6.1200" ry="6.1200" cx="520.2360" cy="183.4349"/>
   <ellipse  rx="6.1200" ry="6.1200" cx="292.4487" cy="97.6593"/>
   <ellipse  rx="6.1200" ry="6.1200" cx="245.1686" cy="99.4434"/>
   <ellipse  rx="6.1200" ry="6.1200" cx="283.8593" cy="98.9419"/>
   <ellipse  rx="6.1200" ry="6.1200" cx="577.6822" cy="509.8452"/>
   <ellipse  rx="6.1200" ry="6.1200" cx="457.5585" cy="115.6142"/>
   <ellipse  rx="6.1200" ry="6.1200" cx="410.7092" cy="106.1932"/>
   <ellipse  rx="6.1200" ry="6.1200" cx="568.1813" cy="115.2199"/>
   <ellipse  rx="6.1200" ry="6.1200" cx="520.3944" cy="115.7996"/>
   <ellipse  rx="6.1200" ry="6.1200" cx="545.2824" cy="369.9667"/>
   <ellipse  rx="6.1200" ry="6.1200" cx="364.4014" cy="101.8520"/>
   <ellipse  rx="6.1200" ry="6.1200" cx="408.2511" cy="124.2793"/>
   <ellipse  rx="6.1200" ry="6.1200" cx="537.5175" cy="304.4975"/>
   <ellipse  rx="6.1200" ry="6.1200" cx="148.5029" cy="96.0882"/>
   <ellipse  rx="6.1200" ry="6.1200" cx="580.6800" cy="208.0461"/>
   <ellipse  rx="6.1200" ry="6.1200" cx="386.7574" cy="102.4937"/>
   <ellipse  rx="6.1200" ry="6.1200" cx="349.2149" cy="105.6411"/>
   <ellipse  rx="6.1200" ry="6.1200" cx="595.1540" cy="272.7032"/>
   <ellipse  rx="6.1200" ry="6.1200" cx="401.0393" cy="104.5160"/>
   <ellipse  rx="6.1200" ry="6.1200" cx="466.0723" cy="122.5033"/>
   <ellipse  rx="6.1200" ry="6.1200" cx="322.2808" cy="167.1549"/>
   <ellipse  rx="6.1200" ry="6.1200" cx="439.9480" cy="113.0481"/>
   <ellipse  rx="6.1200" ry="6.1200" cx="511.6018" cy="123.3455"/>
   <ellipse  rx="6.1200" ry="6.1200" cx="621.5653" cy="244.5251"/>
   <ellipse  rx="6.1200" ry="6.1200" cx="196.3172" cy="96.6995"/>
   <ellipse  rx="6.1200" ry="6.1200" cx="388.4059" cy="104.5166"/>
   <ellipse  rx="6.1200" ry="6.1200" cx="281.3032" cy="100.4717"/>
   <ellipse  rx="6.1200" ry="6.1200" cx="553.2718" cy="240.1095"/>
   <ellipse  rx="6.1200" ry="6.1200" cx="566.3815" cy="158.1414"/>
   <ellipse  rx="6.1200" ry="6.1200" cx="308.8658" cy="100.2606"/>
   <ellipse  rx="6.1200" ry="6.1200" cx="539.1672" cy="134.6816"/>
   <ellipse  rx="6.1200" ry="6.1200" cx="414.1161" cy="106.2704"/>
   <ellipse  rx="6.1200" ry="6.1200" cx="295.8972" cy="100.0524"/>
   <ellipse  rx="6.1200" ry="6.1200" cx="647.3289" cy="445.2360"/>
   <ellipse  rx="6.1200" ry="6.1200" cx="303.6880" cy="98.5811"/>
   <ellipse  rx="6.1200" ry="6.1200" cx="308.7658" cy="99.6792"/>
   <ellipse  rx="6.1200" ry="6.1200" cx="352.3830" cy="102.6563"/>
   <ellipse  rx="6.1200" ry="6.1200" cx="547.8707" cy="373.0857"/>
   <ellipse  rx="6.1200" ry="6.1200" cx="287.0392" cy="99.4289"/>
   <ellipse  rx="6.1200" ry="6.1200" cx="286.8779" cy="99.4148"/>
   <ellipse  rx="6.1200" ry="6.1200" cx="286.8231" cy="99.2272"/>
   <ellipse  rx="6.1200" ry="6.1200" cx="454.2123" cy="102.9742"/>
   <ellipse  rx="6.1200" ry="6.1200" cx="413.2502" cy="101.8644"/>
   <ellipse  rx="6.1200" ry="6.1200" cx="609.1437" cy="387.4268"/>
   <ellipse  rx="6.1200" ry="6.1200" cx="330.0862" cy="102.3534"/>
   <ellipse  rx="6.1200" ry="6.1200" cx="359.8184" cy="103.3717"/>
   <ellipse  rx="6.1200" ry="6.1200" cx="350.9266" cy="103.4122"/>
   <ellipse  rx="6.1200" ry="6.1200" cx="282.1317" cy="99.2640"/>
   <ellipse  rx="6.1200" ry="6.1200" cx="181.0963" cy="95.8344"/>
   <ellipse  rx="6.1200" ry="6.1200" cx="365.9432" cy="102.7021"/>
   <ellipse  rx="6.1200" ry="6.1200" cx="462.5646" cy="124.9535"/>
   <ellipse  rx="6.1200" ry="6.1200" cx="371.2435" cy="104.2827"/>
   <ellipse  rx="6.1200" ry="6.1200" cx="461.0812" cy="116.2985"/>
   <ellipse  rx="6.1200" ry="6.1200" cx="274.6199" cy="99.5305"/>
   <ellipse  rx="6.1200" ry="6.1200" cx="451.0986" cy="126.4546"/>
   <ellipse  rx="6.1200" ry="6.1200" cx="335.3567" cy="109.2182"/>
   <ellipse  rx="6.1200" ry="6.1200" cx="345.7461" cy="110.0569"/>
   <ellipse  rx="6.1200" ry="6.1200" cx="544.2808" cy="147.5174"/>
   <ellipse  rx="6.1200" ry="6.1200" cx="268.1081" cy="98.3325"/>
   <ellipse  rx="6.1200" ry="6.1200" cx="281.2784" cy="96.7045"/>
   <ellipse  rx="6.1200" ry="6.1200" cx="254.6414" cy="99.8882"/>
   <ellipse  rx="6.1200" ry="6.1200" cx="494.5784" cy="124.6052"/>
   <path d="M91.8000,91.8000L91.8000,520.2000L703.8000,520.2000L703.8000,91.8000z"/>
  </g>
 </g>
</svg>
