<?xml version="1.0" encoding="ISO-8859-1"?>
<!DOCTYPE svg PUBLIC "-//W3C//DTD SVG 1.0//EN" "http://www.w3.org/TR/2001/REC-SVG-20010904/DTD/svg10.dtd">
<!-- generated by Grace-5.1.25 -->
<svg xml:space="preserve" width="11.0000in" height="8.5000in" viewBox="0.0000 0.0000 792.0000 612.0000">
 <g transform="translate(0,612.0000) scale(1,-1)">
  <g style="fill:#FFFFFF; fill-rule:nonzero">
   <path  d="M0.0000,0.0000L0.0000,612.0000L792.0000,612.0000L792.0000,0.0000z"/>
  </g>
  <g style="fill:none; stroke:#000000; stroke-width:  0.9180; stroke-linecap:butt; stroke-linejoin:miter; stroke-dasharray:none">
   <ellipse  rx="6.1200" ry="6.1200" cx="578.7711" cy="108.0947"/>
   <ellipse  rx="6.1200" ry="6.1200" cx="498.5944" cy="97.3039"/>
   <ellipse  rx="6.1200" ry="6.1200" cx="495.9041" cy="188.2823"/>
   <ellipse  rx="6.1200" ry="6.1200" cx="654.8129" cy="97.7302"/>
   <ellipse  rx="6.1200" ry="6.1200" cx="476.2912" cy="111.5163"/>
   <ellipse  rx="6.1200" ry="6.1200" cx="632.6983" cy="139.8916"/>
   <ellipse  rx="6.1200" ry="6.1200" cx="459.8026" cy="93.3702"/>
   <ellipse  rx="6.1200" ry="6.1200" cx="320.3766" cy="93.0806"/>
   <ellipse  rx="6.1200" ry="6.1200" cx="594.6003" cy="175.8132"/>
   <ellipse  rx="6.1200" ry="6.1200" cx="208.9013" cy="95.5917"/>
   <ellipse  rx="6.1200" ry="6.1200" cx="520.2360" cy="98.8769"/>
   <ellipse  rx="6.1200" ry="6.1200" cx="245.1686" cy="93.6025"/>
   <ellipse  rx="6.1200" ry="6.1200" cx="457.5585" cy="94.5447"/>
   <ellipse  rx="6.1200" ry="6.1200" cx="606.9057" cy="403.3120"/>
   <ellipse  rx="6.1200" ry="6.1200" cx="410.7092" cy="94.0063"/>
   <ellipse  rx="6.1200" ry="6.1200" cx="568.1813" cy="106.2743"/>
   <ellipse  rx="6.1200" ry="6.1200" cx="529.8931" cy="100.7425"/>
   <ellipse  rx="6.1200" ry="6.1200" cx="408.2511" cy="93.5141"/>
   <ellipse  rx="6.1200" ry="6.1200" cx="537.5175" cy="239.6505"/>
   <ellipse  rx="6.1200" ry="6.1200" cx="148.5029" cy="95.1583"/>
   <ellipse  rx="6.1200" ry="6.1200" cx="580.6800" cy="97.9443"/>
   <ellipse  rx="6.1200" ry="6.1200" cx="444.2687" cy="100.5185"/>
   <ellipse  rx="6.1200" ry="6.1200" cx="349.2149" cy="170.2333"/>
   <ellipse  rx="6.1200" ry="6.1200" cx="625.1320" cy="94.8271"/>
   <ellipse  rx="6.1200" ry="6.1200" cx="577.3317" cy="94.6910"/>
   <ellipse  rx="6.1200" ry="6.1200" cx="401.0393" cy="114.1494"/>
   <ellipse  rx="6.1200" ry="6.1200" cx="466.0723" cy="94.1986"/>
   <ellipse  rx="6.1200" ry="6.1200" cx="322.2808" cy="213.9803"/>
   <ellipse  rx="6.1200" ry="6.1200" cx="511.6018" cy="93.7145"/>
   <ellipse  rx="6.1200" ry="6.1200" cx="555.6980" cy="95.8989"/>
   <ellipse  rx="6.1200" ry="6.1200" cx="621.5653" cy="94.0624"/>
   <ellipse  rx="6.1200" ry="6.1200" cx="432.3828" cy="97.2295"/>
   <ellipse  rx="6.1200" ry="6.1200" cx="609.4363" cy="445.4597"/>
   <ellipse  rx="6.1200" ry="6.1200" cx="281.3032" cy="93.1267"/>
   <ellipse  rx="6.1200" ry="6.1200" cx="604.7477" cy="97.9391"/>
   <ellipse  rx="6.1200" ry="6.1200" cx="566.3815" cy="149.3627"/>
   <ellipse  rx="6.1200" ry="6.1200" cx="539.1672" cy="122.4059"/>
   <ellipse  rx="6.1200" ry="6.1200" cx="295.8972" cy="99.3877"/>
   <ellipse  rx="6.1200" ry="6.1200" cx="647.3289" cy="231.3388"/>
   <ellipse  rx="6.1200" ry="6.1200" cx="352.3830" cy="95.3961"/>
   <ellipse  rx="6.1200" ry="6.1200" cx="287.0392" cy="135.9979"/>
   <ellipse  rx="6.1200" ry="6.1200" cx="286.8231" cy="437.7005"/>
   <ellipse  rx="6.1200" ry="6.1200" cx="454.2123" cy="97.0651"/>
   <ellipse  rx="6.1200" ry="6.1200" cx="413.2502" cy="140.7384"/>
   <ellipse  rx="6.1200" ry="6.1200" cx="660.6707" cy="122.2132"/>
   <ellipse  rx="6.1200" ry="6.1200" cx="181.0963" cy="95.4633"/>
   <ellipse  rx="6.1200" ry="6.1200" cx="462.5646" cy="93.4521"/>
   <ellipse  rx="6.1200" ry="6.1200" cx="371.2435" cy="176.8170"/>
   <ellipse  rx="6.1200" ry="6.1200" cx="457.4060" cy="186.0930"/>
   <ellipse  rx="6.1200" ry="6.1200" cx="461.0812" cy="94.7034"/>
   <ellipse  rx="6.1200" ry="6.1200" cx="614.4249" cy="324.6582"/>
   <ellipse  rx="6.1200" ry="6.1200" cx="526.1128" cy="94.0455"/>
   <ellipse  rx="6.1200" ry="6.1200" cx="345.7461" cy="95.0573"/>
   <ellipse  rx="6.1200" ry="6.1200" cx="544.2808" cy="146.4123"/>
   <ellipse  rx="6.1200" ry="6.1200" cx="268.1081" cy="94.6624"/>
   <ellipse  rx="6.1200" ry="6.1200" cx="281.2784" cy="100.1738"/>
   <ellipse  rx="6.1200" ry="6.1200" cx="700.7651" cy="207.1881"/>
   <ellipse  rx="6.1200" ry="6.1200" cx="497.0675" cy="93.1221"/>
   <ellipse  rx="6.1200" ry="6.1200" cx="577.6496" cy="94.6910"/>
   <ellipse  rx="6.1200" ry="6.1200" cx="254.6414" cy="93.0822"/>
   <path d="M91.8000,91.8000L91.8000,520.2000L703.8000,520.2000L703.8000,91.8000z"/>
  </g>
 </g>
</svg>
