<?xml version="1.0" encoding="ISO-8859-1"?>
<!DOCTYPE svg PUBLIC "-//W3C//DTD SVG 1.0//EN" "http://www.w3.org/TR/2001/REC-SVG-20010904/DTD/svg10.dtd">
<!-- generated by Grace-5.1.25 -->
<svg xml:space="preserve" width="11.0000in" height="8.5000in" viewBox="0.0000 0.0000 792.0000 612.0000">
 <g transform="translate(0,612.0000) scale(1,-1)">
  <g style="fill:#FFFFFF; fill-rule:nonzero">
   <path  d="M0.0000,0.0000L0.0000,612.0000L792.0000,612.0000L792.0000,0.0000z"/>
  </g>
  <g style="fill:none; stroke:#000000; stroke-width:  0.9180; stroke-linecap:butt; stroke-linejoin:miter; stroke-dasharray:none">
   <ellipse  rx="6.1200" ry="6.1200" cx="578.7711" cy="111.2890"/>
   <ellipse  rx="6.1200" ry="6.1200" cx="498.5944" cy="113.3610"/>
   <ellipse  rx="6.1200" ry="6.1200" cx="389.5631" cy="161.2603"/>
   <ellipse  rx="6.1200" ry="6.1200" cx="495.9041" cy="118.3704"/>
   <ellipse  rx="6.1200" ry="6.1200" cx="164.7391" cy="140.1834"/>
   <ellipse  rx="6.1200" ry="6.1200" cx="450.3796" cy="108.0228"/>
   <ellipse  rx="6.1200" ry="6.1200" cx="661.5898" cy="110.8281"/>
   <ellipse  rx="6.1200" ry="6.1200" cx="659.5737" cy="111.0885"/>
   <ellipse  rx="6.1200" ry="6.1200" cx="654.8129" cy="109.0868"/>
   <ellipse  rx="6.1200" ry="6.1200" cx="625.3438" cy="105.3332"/>
   <ellipse  rx="6.1200" ry="6.1200" cx="476.2912" cy="131.0647"/>
   <ellipse  rx="6.1200" ry="6.1200" cx="471.3538" cy="107.7894"/>
   <ellipse  rx="6.1200" ry="6.1200" cx="632.6983" cy="123.6598"/>
   <ellipse  rx="6.1200" ry="6.1200" cx="416.1991" cy="111.0414"/>
   <ellipse  rx="6.1200" ry="6.1200" cx="608.3108" cy="109.1805"/>
   <ellipse  rx="6.1200" ry="6.1200" cx="459.8026" cy="115.9871"/>
   <ellipse  rx="6.1200" ry="6.1200" cx="320.3766" cy="202.9656"/>
   <ellipse  rx="6.1200" ry="6.1200" cx="588.5563" cy="125.1613"/>
   <ellipse  rx="6.1200" ry="6.1200" cx="659.9704" cy="149.0877"/>
   <ellipse  rx="6.1200" ry="6.1200" cx="439.8543" cy="277.6768"/>
   <ellipse  rx="6.1200" ry="6.1200" cx="594.6003" cy="112.3137"/>
   <ellipse  rx="6.1200" ry="6.1200" cx="208.9013" cy="195.0444"/>
   <ellipse  rx="6.1200" ry="6.1200" cx="520.2360" cy="112.8578"/>
   <ellipse  rx="6.1200" ry="6.1200" cx="292.4487" cy="120.5425"/>
   <ellipse  rx="6.1200" ry="6.1200" cx="245.1686" cy="221.2434"/>
   <ellipse  rx="6.1200" ry="6.1200" cx="283.8593" cy="108.9607"/>
   <ellipse  rx="6.1200" ry="6.1200" cx="577.6822" cy="111.6543"/>
   <ellipse  rx="6.1200" ry="6.1200" cx="457.5585" cy="107.0388"/>
   <ellipse  rx="6.1200" ry="6.1200" cx="606.9057" cy="110.0257"/>
   <ellipse  rx="6.1200" ry="6.1200" cx="410.7092" cy="154.3246"/>
   <ellipse  rx="6.1200" ry="6.1200" cx="677.2132" cy="108.5712"/>
   <ellipse  rx="6.1200" ry="6.1200" cx="568.1813" cy="157.1106"/>
   <ellipse  rx="6.1200" ry="6.1200" cx="520.3944" cy="106.1536"/>
   <ellipse  rx="6.1200" ry="6.1200" cx="529.8931" cy="106.0114"/>
   <ellipse  rx="6.1200" ry="6.1200" cx="545.2824" cy="184.7822"/>
   <ellipse  rx="6.1200" ry="6.1200" cx="364.4014" cy="114.3528"/>
   <ellipse  rx="6.1200" ry="6.1200" cx="408.2511" cy="471.9457"/>
   <ellipse  rx="6.1200" ry="6.1200" cx="537.5175" cy="108.2073"/>
   <ellipse  rx="6.1200" ry="6.1200" cx="148.5029" cy="107.4639"/>
   <ellipse  rx="6.1200" ry="6.1200" cx="580.6800" cy="113.3144"/>
   <ellipse  rx="6.1200" ry="6.1200" cx="444.2687" cy="147.9505"/>
   <ellipse  rx="6.1200" ry="6.1200" cx="386.7574" cy="108.7970"/>
   <ellipse  rx="6.1200" ry="6.1200" cx="349.2149" cy="111.5952"/>
   <ellipse  rx="6.1200" ry="6.1200" cx="595.1540" cy="164.6123"/>
   <ellipse  rx="6.1200" ry="6.1200" cx="541.2029" cy="108.2413"/>
   <ellipse  rx="6.1200" ry="6.1200" cx="625.1320" cy="231.0857"/>
   <ellipse  rx="6.1200" ry="6.1200" cx="577.3317" cy="129.2610"/>
   <ellipse  rx="6.1200" ry="6.1200" cx="401.0393" cy="107.8821"/>
   <ellipse  rx="6.1200" ry="6.1200" cx="466.0723" cy="163.8683"/>
   <ellipse  rx="6.1200" ry="6.1200" cx="322.2808" cy="103.4605"/>
   <ellipse  rx="6.1200" ry="6.1200" cx="439.9480" cy="108.2065"/>
   <ellipse  rx="6.1200" ry="6.1200" cx="511.6018" cy="107.9353"/>
   <ellipse  rx="6.1200" ry="6.1200" cx="555.6980" cy="148.3874"/>
   <ellipse  rx="6.1200" ry="6.1200" cx="621.5653" cy="106.2643"/>
   <ellipse  rx="6.1200" ry="6.1200" cx="568.1197" cy="108.9344"/>
   <ellipse  rx="6.1200" ry="6.1200" cx="432.3828" cy="184.1854"/>
   <ellipse  rx="6.1200" ry="6.1200" cx="528.3206" cy="108.6953"/>
   <ellipse  rx="6.1200" ry="6.1200" cx="609.4363" cy="124.6357"/>
   <ellipse  rx="6.1200" ry="6.1200" cx="196.3172" cy="141.1219"/>
   <ellipse  rx="6.1200" ry="6.1200" cx="388.4059" cy="109.1866"/>
   <ellipse  rx="6.1200" ry="6.1200" cx="281.3032" cy="224.6085"/>
   <ellipse  rx="6.1200" ry="6.1200" cx="534.3578" cy="106.9588"/>
   <ellipse  rx="6.1200" ry="6.1200" cx="604.7477" cy="104.0099"/>
   <ellipse  rx="6.1200" ry="6.1200" cx="502.3420" cy="107.7016"/>
   <ellipse  rx="6.1200" ry="6.1200" cx="553.2718" cy="109.4681"/>
   <ellipse  rx="6.1200" ry="6.1200" cx="566.3815" cy="111.6470"/>
   <ellipse  rx="6.1200" ry="6.1200" cx="308.8658" cy="109.5857"/>
   <ellipse  rx="6.1200" ry="6.1200" cx="539.1672" cy="109.4022"/>
   <ellipse  rx="6.1200" ry="6.1200" cx="414.1161" cy="132.1826"/>
   <ellipse  rx="6.1200" ry="6.1200" cx="295.8972" cy="106.3523"/>
   <ellipse  rx="6.1200" ry="6.1200" cx="647.3289" cy="122.2561"/>
   <ellipse  rx="6.1200" ry="6.1200" cx="303.6880" cy="119.9677"/>
   <ellipse  rx="6.1200" ry="6.1200" cx="308.7658" cy="109.4476"/>
   <ellipse  rx="6.1200" ry="6.1200" cx="352.3830" cy="160.9719"/>
   <ellipse  rx="6.1200" ry="6.1200" cx="547.8707" cy="149.3061"/>
   <ellipse  rx="6.1200" ry="6.1200" cx="287.0392" cy="109.5748"/>
   <ellipse  rx="6.1200" ry="6.1200" cx="286.8779" cy="149.6500"/>
   <ellipse  rx="6.1200" ry="6.1200" cx="286.8231" cy="109.5136"/>
   <ellipse  rx="6.1200" ry="6.1200" cx="454.2123" cy="112.7584"/>
   <ellipse  rx="6.1200" ry="6.1200" cx="413.2502" cy="107.9958"/>
   <ellipse  rx="6.1200" ry="6.1200" cx="598.8572" cy="112.4705"/>
   <ellipse  rx="6.1200" ry="6.1200" cx="609.1437" cy="109.0663"/>
   <ellipse  rx="6.1200" ry="6.1200" cx="330.0862" cy="104.9133"/>
   <ellipse  rx="6.1200" ry="6.1200" cx="673.3107" cy="135.7145"/>
   <ellipse  rx="6.1200" ry="6.1200" cx="359.8184" cy="150.3793"/>
   <ellipse  rx="6.1200" ry="6.1200" cx="350.9266" cy="107.5994"/>
   <ellipse  rx="6.1200" ry="6.1200" cx="282.1317" cy="159.8358"/>
   <ellipse  rx="6.1200" ry="6.1200" cx="660.6707" cy="109.8793"/>
   <ellipse  rx="6.1200" ry="6.1200" cx="181.0963" cy="176.9871"/>
   <ellipse  rx="6.1200" ry="6.1200" cx="365.9432" cy="110.3530"/>
   <ellipse  rx="6.1200" ry="6.1200" cx="462.5646" cy="153.1601"/>
   <ellipse  rx="6.1200" ry="6.1200" cx="371.2435" cy="128.4737"/>
   <ellipse  rx="6.1200" ry="6.1200" cx="621.6573" cy="194.3501"/>
   <ellipse  rx="6.1200" ry="6.1200" cx="457.4060" cy="195.2346"/>
   <ellipse  rx="6.1200" ry="6.1200" cx="461.0812" cy="115.2363"/>
   <ellipse  rx="6.1200" ry="6.1200" cx="274.6199" cy="172.6579"/>
   <ellipse  rx="6.1200" ry="6.1200" cx="451.0986" cy="108.4973"/>
   <ellipse  rx="6.1200" ry="6.1200" cx="559.0352" cy="168.7165"/>
   <ellipse  rx="6.1200" ry="6.1200" cx="614.4249" cy="168.1401"/>
   <ellipse  rx="6.1200" ry="6.1200" cx="335.3567" cy="200.8160"/>
   <ellipse  rx="6.1200" ry="6.1200" cx="526.1128" cy="108.6749"/>
   <ellipse  rx="6.1200" ry="6.1200" cx="345.7461" cy="108.0039"/>
   <ellipse  rx="6.1200" ry="6.1200" cx="544.2808" cy="111.4016"/>
   <ellipse  rx="6.1200" ry="6.1200" cx="268.1081" cy="107.9231"/>
   <ellipse  rx="6.1200" ry="6.1200" cx="281.2784" cy="124.1734"/>
   <ellipse  rx="6.1200" ry="6.1200" cx="700.7651" cy="111.2253"/>
   <ellipse  rx="6.1200" ry="6.1200" cx="565.1290" cy="107.9898"/>
   <ellipse  rx="6.1200" ry="6.1200" cx="497.0675" cy="186.2754"/>
   <ellipse  rx="6.1200" ry="6.1200" cx="577.6496" cy="129.2090"/>
   <ellipse  rx="6.1200" ry="6.1200" cx="254.6414" cy="355.2557"/>
   <ellipse  rx="6.1200" ry="6.1200" cx="494.5784" cy="108.4777"/>
   <ellipse  rx="6.1200" ry="6.1200" cx="579.8035" cy="147.5474"/>
   <path d="M91.8000,91.8000L91.8000,520.2000L703.8000,520.2000L703.8000,91.8000z"/>
  </g>
 </g>
</svg>
