<?xml version="1.0" encoding="ISO-8859-1"?>
<!DOCTYPE svg PUBLIC "-//W3C//DTD SVG 1.0//EN" "http://www.w3.org/TR/2001/REC-SVG-20010904/DTD/svg10.dtd">
<!-- generated by Grace-5.1.25 -->
<svg xml:space="preserve" width="11.0000in" height="8.5000in" viewBox="0.0000 0.0000 792.0000 612.0000">
 <g transform="translate(0,612.0000) scale(1,-1)">
  <g style="fill:#FFFFFF; fill-rule:nonzero">
   <path  d="M0.0000,0.0000L0.0000,612.0000L792.0000,612.0000L792.0000,0.0000z"/>
  </g>
  <g style="fill:none; stroke:#000000; stroke-width:  0.9180; stroke-linecap:butt; stroke-linejoin:miter; stroke-dasharray:none">
   <ellipse  rx="6.1200" ry="6.1200" cx="578.7711" cy="91.8000"/>
   <ellipse  rx="6.1200" ry="6.1200" cx="498.5944" cy="94.4906"/>
   <ellipse  rx="6.1200" ry="6.1200" cx="389.5631" cy="146.2664"/>
   <ellipse  rx="6.1200" ry="6.1200" cx="495.9041" cy="100.7417"/>
   <ellipse  rx="6.1200" ry="6.1200" cx="164.7391" cy="126.8238"/>
   <ellipse  rx="6.1200" ry="6.1200" cx="450.3796" cy="91.8000"/>
   <ellipse  rx="6.1200" ry="6.1200" cx="661.5898" cy="92.9807"/>
   <ellipse  rx="6.1200" ry="6.1200" cx="659.5737" cy="93.7553"/>
   <ellipse  rx="6.1200" ry="6.1200" cx="654.8129" cy="91.8000"/>
   <ellipse  rx="6.1200" ry="6.1200" cx="625.3438" cy="91.8000"/>
   <ellipse  rx="6.1200" ry="6.1200" cx="476.2912" cy="114.5576"/>
   <ellipse  rx="6.1200" ry="6.1200" cx="471.3538" cy="91.8000"/>
   <ellipse  rx="6.1200" ry="6.1200" cx="632.6983" cy="110.4303"/>
   <ellipse  rx="6.1200" ry="6.1200" cx="416.1991" cy="96.6141"/>
   <ellipse  rx="6.1200" ry="6.1200" cx="608.3108" cy="91.8000"/>
   <ellipse  rx="6.1200" ry="6.1200" cx="459.8026" cy="103.5944"/>
   <ellipse  rx="6.1200" ry="6.1200" cx="320.3766" cy="191.4129"/>
   <ellipse  rx="6.1200" ry="6.1200" cx="588.5563" cy="111.5881"/>
   <ellipse  rx="6.1200" ry="6.1200" cx="659.9704" cy="132.5259"/>
   <ellipse  rx="6.1200" ry="6.1200" cx="439.8543" cy="263.0516"/>
   <ellipse  rx="6.1200" ry="6.1200" cx="594.6003" cy="92.6035"/>
   <ellipse  rx="6.1200" ry="6.1200" cx="208.9013" cy="181.8532"/>
   <ellipse  rx="6.1200" ry="6.1200" cx="520.2360" cy="96.7331"/>
   <ellipse  rx="6.1200" ry="6.1200" cx="292.4487" cy="101.3212"/>
   <ellipse  rx="6.1200" ry="6.1200" cx="245.1686" cy="209.0568"/>
   <ellipse  rx="6.1200" ry="6.1200" cx="283.8593" cy="92.0441"/>
   <ellipse  rx="6.1200" ry="6.1200" cx="577.6822" cy="94.8217"/>
   <ellipse  rx="6.1200" ry="6.1200" cx="457.5585" cy="91.8000"/>
   <ellipse  rx="6.1200" ry="6.1200" cx="606.9057" cy="93.0896"/>
   <ellipse  rx="6.1200" ry="6.1200" cx="410.7092" cy="140.3870"/>
   <ellipse  rx="6.1200" ry="6.1200" cx="677.2132" cy="91.8141"/>
   <ellipse  rx="6.1200" ry="6.1200" cx="568.1813" cy="143.9891"/>
   <ellipse  rx="6.1200" ry="6.1200" cx="520.3944" cy="91.8783"/>
   <ellipse  rx="6.1200" ry="6.1200" cx="529.8931" cy="91.8000"/>
   <ellipse  rx="6.1200" ry="6.1200" cx="545.2824" cy="170.3806"/>
   <ellipse  rx="6.1200" ry="6.1200" cx="364.4014" cy="97.7990"/>
   <ellipse  rx="6.1200" ry="6.1200" cx="408.2511" cy="471.2962"/>
   <ellipse  rx="6.1200" ry="6.1200" cx="537.5175" cy="91.8000"/>
   <ellipse  rx="6.1200" ry="6.1200" cx="148.5029" cy="91.8000"/>
   <ellipse  rx="6.1200" ry="6.1200" cx="580.6800" cy="95.3086"/>
   <ellipse  rx="6.1200" ry="6.1200" cx="444.2687" cy="135.0209"/>
   <ellipse  rx="6.1200" ry="6.1200" cx="386.7574" cy="91.8000"/>
   <ellipse  rx="6.1200" ry="6.1200" cx="349.2149" cy="96.4738"/>
   <ellipse  rx="6.1200" ry="6.1200" cx="595.1540" cy="150.0229"/>
   <ellipse  rx="6.1200" ry="6.1200" cx="541.2029" cy="91.8000"/>
   <ellipse  rx="6.1200" ry="6.1200" cx="625.1320" cy="217.2399"/>
   <ellipse  rx="6.1200" ry="6.1200" cx="577.3317" cy="110.6379"/>
   <ellipse  rx="6.1200" ry="6.1200" cx="401.0393" cy="91.8744"/>
   <ellipse  rx="6.1200" ry="6.1200" cx="466.0723" cy="149.2856"/>
   <ellipse  rx="6.1200" ry="6.1200" cx="322.2808" cy="91.8000"/>
   <ellipse  rx="6.1200" ry="6.1200" cx="439.9480" cy="91.8000"/>
   <ellipse  rx="6.1200" ry="6.1200" cx="511.6018" cy="91.8000"/>
   <ellipse  rx="6.1200" ry="6.1200" cx="555.6980" cy="134.5937"/>
   <ellipse  rx="6.1200" ry="6.1200" cx="621.5653" cy="91.9306"/>
   <ellipse  rx="6.1200" ry="6.1200" cx="568.1197" cy="92.0126"/>
   <ellipse  rx="6.1200" ry="6.1200" cx="432.3828" cy="171.2280"/>
   <ellipse  rx="6.1200" ry="6.1200" cx="528.3206" cy="91.8000"/>
   <ellipse  rx="6.1200" ry="6.1200" cx="609.4363" cy="106.4875"/>
   <ellipse  rx="6.1200" ry="6.1200" cx="196.3172" cy="125.9016"/>
   <ellipse  rx="6.1200" ry="6.1200" cx="388.4059" cy="91.9320"/>
   <ellipse  rx="6.1200" ry="6.1200" cx="281.3032" cy="215.5044"/>
   <ellipse  rx="6.1200" ry="6.1200" cx="534.3578" cy="92.4505"/>
   <ellipse  rx="6.1200" ry="6.1200" cx="604.7477" cy="91.8038"/>
   <ellipse  rx="6.1200" ry="6.1200" cx="502.3420" cy="91.8000"/>
   <ellipse  rx="6.1200" ry="6.1200" cx="553.2718" cy="92.8218"/>
   <ellipse  rx="6.1200" ry="6.1200" cx="566.3815" cy="93.3934"/>
   <ellipse  rx="6.1200" ry="6.1200" cx="308.8658" cy="93.8180"/>
   <ellipse  rx="6.1200" ry="6.1200" cx="539.1672" cy="91.8000"/>
   <ellipse  rx="6.1200" ry="6.1200" cx="414.1161" cy="117.2800"/>
   <ellipse  rx="6.1200" ry="6.1200" cx="295.8972" cy="91.8038"/>
   <ellipse  rx="6.1200" ry="6.1200" cx="647.3289" cy="105.9969"/>
   <ellipse  rx="6.1200" ry="6.1200" cx="303.6880" cy="105.2225"/>
   <ellipse  rx="6.1200" ry="6.1200" cx="308.7658" cy="91.8674"/>
   <ellipse  rx="6.1200" ry="6.1200" cx="352.3830" cy="148.2959"/>
   <ellipse  rx="6.1200" ry="6.1200" cx="547.8707" cy="134.0729"/>
   <ellipse  rx="6.1200" ry="6.1200" cx="287.0392" cy="93.0018"/>
   <ellipse  rx="6.1200" ry="6.1200" cx="286.8779" cy="134.7454"/>
   <ellipse  rx="6.1200" ry="6.1200" cx="286.8231" cy="92.0335"/>
   <ellipse  rx="6.1200" ry="6.1200" cx="454.2123" cy="95.4400"/>
   <ellipse  rx="6.1200" ry="6.1200" cx="413.2502" cy="91.8054"/>
   <ellipse  rx="6.1200" ry="6.1200" cx="598.8572" cy="92.6896"/>
   <ellipse  rx="6.1200" ry="6.1200" cx="609.1437" cy="91.8000"/>
   <ellipse  rx="6.1200" ry="6.1200" cx="330.0862" cy="91.8000"/>
   <ellipse  rx="6.1200" ry="6.1200" cx="673.3107" cy="117.3628"/>
   <ellipse  rx="6.1200" ry="6.1200" cx="359.8184" cy="135.1762"/>
   <ellipse  rx="6.1200" ry="6.1200" cx="350.9266" cy="91.8000"/>
   <ellipse  rx="6.1200" ry="6.1200" cx="282.1317" cy="144.8107"/>
   <ellipse  rx="6.1200" ry="6.1200" cx="660.6707" cy="92.4778"/>
   <ellipse  rx="6.1200" ry="6.1200" cx="181.0963" cy="166.6170"/>
   <ellipse  rx="6.1200" ry="6.1200" cx="365.9432" cy="94.1042"/>
   <ellipse  rx="6.1200" ry="6.1200" cx="462.5646" cy="140.3756"/>
   <ellipse  rx="6.1200" ry="6.1200" cx="371.2435" cy="112.6922"/>
   <ellipse  rx="6.1200" ry="6.1200" cx="621.6573" cy="178.7339"/>
   <ellipse  rx="6.1200" ry="6.1200" cx="457.4060" cy="186.2359"/>
   <ellipse  rx="6.1200" ry="6.1200" cx="461.0812" cy="99.8774"/>
   <ellipse  rx="6.1200" ry="6.1200" cx="274.6199" cy="158.0337"/>
   <ellipse  rx="6.1200" ry="6.1200" cx="451.0986" cy="92.3268"/>
   <ellipse  rx="6.1200" ry="6.1200" cx="559.0352" cy="153.5490"/>
   <ellipse  rx="6.1200" ry="6.1200" cx="614.4249" cy="152.2065"/>
   <ellipse  rx="6.1200" ry="6.1200" cx="335.3567" cy="186.8379"/>
   <ellipse  rx="6.1200" ry="6.1200" cx="526.1128" cy="92.2457"/>
   <ellipse  rx="6.1200" ry="6.1200" cx="345.7461" cy="91.8000"/>
   <ellipse  rx="6.1200" ry="6.1200" cx="544.2808" cy="92.7069"/>
   <ellipse  rx="6.1200" ry="6.1200" cx="268.1081" cy="91.8000"/>
   <ellipse  rx="6.1200" ry="6.1200" cx="281.2784" cy="107.4965"/>
   <ellipse  rx="6.1200" ry="6.1200" cx="700.7651" cy="93.5140"/>
   <ellipse  rx="6.1200" ry="6.1200" cx="565.1290" cy="92.1242"/>
   <ellipse  rx="6.1200" ry="6.1200" cx="497.0675" cy="175.3745"/>
   <ellipse  rx="6.1200" ry="6.1200" cx="577.6496" cy="110.6379"/>
   <ellipse  rx="6.1200" ry="6.1200" cx="254.6414" cy="349.9477"/>
   <ellipse  rx="6.1200" ry="6.1200" cx="494.5784" cy="91.8000"/>
   <ellipse  rx="6.1200" ry="6.1200" cx="579.8035" cy="132.0156"/>
   <path d="M91.8000,91.8000L91.8000,520.2000L703.8000,520.2000L703.8000,91.8000z"/>
  </g>
 </g>
</svg>
