<?xml version="1.0" encoding="ISO-8859-1"?>
<!DOCTYPE svg PUBLIC "-//W3C//DTD SVG 1.0//EN" "http://www.w3.org/TR/2001/REC-SVG-20010904/DTD/svg10.dtd">
<!-- generated by Grace-5.1.25 -->
<svg xml:space="preserve" width="11.0000in" height="8.5000in" viewBox="0.0000 0.0000 792.0000 612.0000">
 <g transform="translate(0,612.0000) scale(1,-1)">
  <g style="fill:#FFFFFF; fill-rule:nonzero">
   <path  d="M0.0000,0.0000L0.0000,612.0000L792.0000,612.0000L792.0000,0.0000z"/>
  </g>
  <g style="fill:none; stroke:#000000; stroke-width:  0.9180; stroke-linecap:butt; stroke-linejoin:miter; stroke-dasharray:none">
   <ellipse  rx="6.1200" ry="6.1200" cx="273.4624" cy="111.5669"/>
   <ellipse  rx="6.1200" ry="6.1200" cx="241.3841" cy="120.2498"/>
   <ellipse  rx="6.1200" ry="6.1200" cx="379.1138" cy="112.0724"/>
   <ellipse  rx="6.1200" ry="6.1200" cx="183.0847" cy="105.9212"/>
   <ellipse  rx="6.1200" ry="6.1200" cx="346.5804" cy="112.0624"/>
   <ellipse  rx="6.1200" ry="6.1200" cx="348.7644" cy="110.3266"/>
   <ellipse  rx="6.1200" ry="6.1200" cx="215.0327" cy="105.8038"/>
   <ellipse  rx="6.1200" ry="6.1200" cx="251.2163" cy="107.2827"/>
   <ellipse  rx="6.1200" ry="6.1200" cx="304.8477" cy="124.5663"/>
   <ellipse  rx="6.1200" ry="6.1200" cx="237.1500" cy="108.7479"/>
   <ellipse  rx="6.1200" ry="6.1200" cx="357.9025" cy="115.1941"/>
   <ellipse  rx="6.1200" ry="6.1200" cx="238.9692" cy="106.2170"/>
   <ellipse  rx="6.1200" ry="6.1200" cx="250.4814" cy="108.3386"/>
   <ellipse  rx="6.1200" ry="6.1200" cx="196.7204" cy="105.2398"/>
   <ellipse  rx="6.1200" ry="6.1200" cx="290.5505" cy="108.5792"/>
   <ellipse  rx="6.1200" ry="6.1200" cx="274.1279" cy="479.6077"/>
   <ellipse  rx="6.1200" ry="6.1200" cx="250.2234" cy="111.4466"/>
   <ellipse  rx="6.1200" ry="6.1200" cx="278.6103" cy="106.9375"/>
   <ellipse  rx="6.1200" ry="6.1200" cx="244.7057" cy="107.1648"/>
   <ellipse  rx="6.1200" ry="6.1200" cx="386.4044" cy="111.1288"/>
   <ellipse  rx="6.1200" ry="6.1200" cx="249.4273" cy="134.9080"/>
   <ellipse  rx="6.1200" ry="6.1200" cx="255.1831" cy="119.7823"/>
   <ellipse  rx="6.1200" ry="6.1200" cx="214.3614" cy="104.3633"/>
   <ellipse  rx="6.1200" ry="6.1200" cx="193.8291" cy="319.6477"/>
   <ellipse  rx="6.1200" ry="6.1200" cx="192.7803" cy="105.6198"/>
   <ellipse  rx="6.1200" ry="6.1200" cx="237.6058" cy="106.2852"/>
   <ellipse  rx="6.1200" ry="6.1200" cx="238.5843" cy="165.1099"/>
   <ellipse  rx="6.1200" ry="6.1200" cx="243.3750" cy="106.7728"/>
   <ellipse  rx="6.1200" ry="6.1200" cx="200.7489" cy="187.7125"/>
   <ellipse  rx="6.1200" ry="6.1200" cx="340.8836" cy="111.3763"/>
   <ellipse  rx="6.1200" ry="6.1200" cx="408.4446" cy="113.6294"/>
   <ellipse  rx="6.1200" ry="6.1200" cx="292.0681" cy="106.5671"/>
   <ellipse  rx="6.1200" ry="6.1200" cx="338.9982" cy="119.9477"/>
   <ellipse  rx="6.1200" ry="6.1200" cx="216.1649" cy="105.9085"/>
   <ellipse  rx="6.1200" ry="6.1200" cx="146.0301" cy="104.1780"/>
   <ellipse  rx="6.1200" ry="6.1200" cx="239.2755" cy="392.3766"/>
   <ellipse  rx="6.1200" ry="6.1200" cx="360.4480" cy="110.7015"/>
   <ellipse  rx="6.1200" ry="6.1200" cx="166.0915" cy="134.7758"/>
   <ellipse  rx="6.1200" ry="6.1200" cx="195.6966" cy="115.1235"/>
   <ellipse  rx="6.1200" ry="6.1200" cx="312.6819" cy="121.0049"/>
   <ellipse  rx="6.1200" ry="6.1200" cx="205.4343" cy="105.4898"/>
   <ellipse  rx="6.1200" ry="6.1200" cx="190.0936" cy="105.3311"/>
   <ellipse  rx="6.1200" ry="6.1200" cx="498.9263" cy="115.3781"/>
   <ellipse  rx="6.1200" ry="6.1200" cx="214.3611" cy="105.7262"/>
   <ellipse  rx="6.1200" ry="6.1200" cx="210.4960" cy="145.4726"/>
   <ellipse  rx="6.1200" ry="6.1200" cx="129.7357" cy="141.5206"/>
   <ellipse  rx="6.1200" ry="6.1200" cx="191.7181" cy="107.8327"/>
   <ellipse  rx="6.1200" ry="6.1200" cx="351.8757" cy="206.4550"/>
   <ellipse  rx="6.1200" ry="6.1200" cx="343.8705" cy="113.6404"/>
   <ellipse  rx="6.1200" ry="6.1200" cx="279.5676" cy="107.8694"/>
   <ellipse  rx="6.1200" ry="6.1200" cx="342.1115" cy="306.1374"/>
   <ellipse  rx="6.1200" ry="6.1200" cx="203.6403" cy="130.6180"/>
   <ellipse  rx="6.1200" ry="6.1200" cx="265.8536" cy="181.0054"/>
   <ellipse  rx="6.1200" ry="6.1200" cx="300.7984" cy="108.1152"/>
   <ellipse  rx="6.1200" ry="6.1200" cx="203.6400" cy="116.4859"/>
   <ellipse  rx="6.1200" ry="6.1200" cx="268.5799" cy="108.6555"/>
   <ellipse  rx="6.1200" ry="6.1200" cx="685.5624" cy="120.4655"/>
   <ellipse  rx="6.1200" ry="6.1200" cx="221.3362" cy="105.9023"/>
   <ellipse  rx="6.1200" ry="6.1200" cx="163.6476" cy="106.7629"/>
   <ellipse  rx="6.1200" ry="6.1200" cx="286.0688" cy="109.3379"/>
   <ellipse  rx="6.1200" ry="6.1200" cx="210.8984" cy="119.5939"/>
   <ellipse  rx="6.1200" ry="6.1200" cx="302.2994" cy="107.5654"/>
   <ellipse  rx="6.1200" ry="6.1200" cx="254.9149" cy="107.3535"/>
   <ellipse  rx="6.1200" ry="6.1200" cx="281.9696" cy="109.8185"/>
   <ellipse  rx="6.1200" ry="6.1200" cx="188.0895" cy="106.3027"/>
   <ellipse  rx="6.1200" ry="6.1200" cx="213.9191" cy="109.3736"/>
   <ellipse  rx="6.1200" ry="6.1200" cx="333.6727" cy="110.8350"/>
   <ellipse  rx="6.1200" ry="6.1200" cx="283.0909" cy="116.8699"/>
   <ellipse  rx="6.1200" ry="6.1200" cx="493.2248" cy="114.0556"/>
   <ellipse  rx="6.1200" ry="6.1200" cx="279.1956" cy="110.8219"/>
   <ellipse  rx="6.1200" ry="6.1200" cx="184.2754" cy="106.1310"/>
   <ellipse  rx="6.1200" ry="6.1200" cx="413.7059" cy="150.3392"/>
   <ellipse  rx="6.1200" ry="6.1200" cx="339.7036" cy="110.0317"/>
   <ellipse  rx="6.1200" ry="6.1200" cx="168.8974" cy="105.8037"/>
   <ellipse  rx="6.1200" ry="6.1200" cx="287.3677" cy="108.0332"/>
   <ellipse  rx="6.1200" ry="6.1200" cx="526.1360" cy="114.2725"/>
   <ellipse  rx="6.1200" ry="6.1200" cx="524.0808" cy="136.1800"/>
   <ellipse  rx="6.1200" ry="6.1200" cx="447.4089" cy="112.9131"/>
   <ellipse  rx="6.1200" ry="6.1200" cx="384.0951" cy="110.0716"/>
   <ellipse  rx="6.1200" ry="6.1200" cx="223.6833" cy="104.6534"/>
   <ellipse  rx="6.1200" ry="6.1200" cx="169.0858" cy="106.5087"/>
   <ellipse  rx="6.1200" ry="6.1200" cx="271.7709" cy="106.5338"/>
   <ellipse  rx="6.1200" ry="6.1200" cx="197.8578" cy="106.4152"/>
   <ellipse  rx="6.1200" ry="6.1200" cx="448.7686" cy="115.4836"/>
   <ellipse  rx="6.1200" ry="6.1200" cx="301.3148" cy="109.3951"/>
   <ellipse  rx="6.1200" ry="6.1200" cx="305.1080" cy="110.4990"/>
   <ellipse  rx="6.1200" ry="6.1200" cx="380.0490" cy="147.8167"/>
   <ellipse  rx="6.1200" ry="6.1200" cx="475.8004" cy="112.6943"/>
   <ellipse  rx="6.1200" ry="6.1200" cx="94.1559" cy="332.5704"/>
   <ellipse  rx="6.1200" ry="6.1200" cx="406.4393" cy="111.1087"/>
   <ellipse  rx="6.1200" ry="6.1200" cx="348.2603" cy="108.4362"/>
   <ellipse  rx="6.1200" ry="6.1200" cx="327.5701" cy="110.7539"/>
   <ellipse  rx="6.1200" ry="6.1200" cx="147.5518" cy="142.5012"/>
   <ellipse  rx="6.1200" ry="6.1200" cx="228.9413" cy="107.1886"/>
   <ellipse  rx="6.1200" ry="6.1200" cx="161.7250" cy="106.7998"/>
   <ellipse  rx="6.1200" ry="6.1200" cx="187.5998" cy="104.8831"/>
   <ellipse  rx="6.1200" ry="6.1200" cx="180.1969" cy="105.0981"/>
   <ellipse  rx="6.1200" ry="6.1200" cx="307.7819" cy="110.3497"/>
   <ellipse  rx="6.1200" ry="6.1200" cx="449.3559" cy="237.4962"/>
   <ellipse  rx="6.1200" ry="6.1200" cx="241.4316" cy="142.7665"/>
   <ellipse  rx="6.1200" ry="6.1200" cx="310.8490" cy="109.5556"/>
   <ellipse  rx="6.1200" ry="6.1200" cx="211.4611" cy="143.4594"/>
   <ellipse  rx="6.1200" ry="6.1200" cx="329.0740" cy="116.5734"/>
   <ellipse  rx="6.1200" ry="6.1200" cx="336.7823" cy="111.3584"/>
   <ellipse  rx="6.1200" ry="6.1200" cx="294.5715" cy="108.4716"/>
   <ellipse  rx="6.1200" ry="6.1200" cx="129.7357" cy="141.5214"/>
   <ellipse  rx="6.1200" ry="6.1200" cx="137.4736" cy="103.7564"/>
   <ellipse  rx="6.1200" ry="6.1200" cx="250.9895" cy="107.4470"/>
   <path d="M91.8000,91.8000L91.8000,520.2000L703.8000,520.2000L703.8000,91.8000z"/>
  </g>
 </g>
</svg>
