<?xml version="1.0" encoding="ISO-8859-1"?>
<!DOCTYPE svg PUBLIC "-//W3C//DTD SVG 1.0//EN" "http://www.w3.org/TR/2001/REC-SVG-20010904/DTD/svg10.dtd">
<!-- generated by Grace-5.1.25 -->
<svg xml:space="preserve" width="11.0000in" height="8.5000in" viewBox="0.0000 0.0000 792.0000 612.0000">
 <g transform="translate(0,612.0000) scale(1,-1)">
  <g style="fill:#FFFFFF; fill-rule:nonzero">
   <path  d="M0.0000,0.0000L0.0000,612.0000L792.0000,612.0000L792.0000,0.0000z"/>
  </g>
  <g style="fill:none; stroke:#000000; stroke-width:  0.9180; stroke-linecap:butt; stroke-linejoin:miter; stroke-dasharray:none">
   <ellipse  rx="6.1200" ry="6.1200" cx="334.9392" cy="120.0477"/>
   <ellipse  rx="6.1200" ry="6.1200" cx="307.4435" cy="112.6010"/>
   <ellipse  rx="6.1200" ry="6.1200" cx="425.4975" cy="103.7916"/>
   <ellipse  rx="6.1200" ry="6.1200" cx="257.4726" cy="125.9838"/>
   <ellipse  rx="6.1200" ry="6.1200" cx="397.6118" cy="95.7745"/>
   <ellipse  rx="6.1200" ry="6.1200" cx="399.4838" cy="107.9747"/>
   <ellipse  rx="6.1200" ry="6.1200" cx="361.8409" cy="195.8621"/>
   <ellipse  rx="6.1200" ry="6.1200" cx="303.8143" cy="298.5962"/>
   <ellipse  rx="6.1200" ry="6.1200" cx="407.3165" cy="101.8871"/>
   <ellipse  rx="6.1200" ry="6.1200" cx="305.3736" cy="126.8570"/>
   <ellipse  rx="6.1200" ry="6.1200" cx="335.5096" cy="122.2025"/>
   <ellipse  rx="6.1200" ry="6.1200" cx="159.3464" cy="103.0891"/>
   <ellipse  rx="6.1200" ry="6.1200" cx="339.3517" cy="208.2554"/>
   <ellipse  rx="6.1200" ry="6.1200" cx="314.3377" cy="96.7080"/>
   <ellipse  rx="6.1200" ry="6.1200" cx="319.2712" cy="183.4349"/>
   <ellipse  rx="6.1200" ry="6.1200" cx="284.2812" cy="97.6593"/>
   <ellipse  rx="6.1200" ry="6.1200" cx="266.6820" cy="99.4434"/>
   <ellipse  rx="6.1200" ry="6.1200" cx="265.7831" cy="98.9419"/>
   <ellipse  rx="6.1200" ry="6.1200" cx="304.2050" cy="509.8452"/>
   <ellipse  rx="6.1200" ry="6.1200" cx="305.0437" cy="115.6142"/>
   <ellipse  rx="6.1200" ry="6.1200" cx="272.6134" cy="106.1932"/>
   <ellipse  rx="6.1200" ry="6.1200" cx="450.6382" cy="115.2199"/>
   <ellipse  rx="6.1200" ry="6.1200" cx="350.8870" cy="115.7996"/>
   <ellipse  rx="6.1200" ry="6.1200" cx="285.8271" cy="369.9667"/>
   <ellipse  rx="6.1200" ry="6.1200" cx="225.7115" cy="101.8520"/>
   <ellipse  rx="6.1200" ry="6.1200" cx="305.6361" cy="124.2793"/>
   <ellipse  rx="6.1200" ry="6.1200" cx="409.4983" cy="304.4975"/>
   <ellipse  rx="6.1200" ry="6.1200" cx="242.9070" cy="96.0882"/>
   <ellipse  rx="6.1200" ry="6.1200" cx="268.2828" cy="208.0461"/>
   <ellipse  rx="6.1200" ry="6.1200" cx="276.6294" cy="102.4937"/>
   <ellipse  rx="6.1200" ry="6.1200" cx="263.4802" cy="105.6411"/>
   <ellipse  rx="6.1200" ry="6.1200" cx="528.1940" cy="272.7032"/>
   <ellipse  rx="6.1200" ry="6.1200" cx="264.8727" cy="104.5160"/>
   <ellipse  rx="6.1200" ry="6.1200" cx="402.1506" cy="122.5033"/>
   <ellipse  rx="6.1200" ry="6.1200" cx="395.2890" cy="167.1549"/>
   <ellipse  rx="6.1200" ry="6.1200" cx="340.1723" cy="113.0481"/>
   <ellipse  rx="6.1200" ry="6.1200" cx="393.7813" cy="123.3455"/>
   <ellipse  rx="6.1200" ry="6.1200" cx="328.4173" cy="244.5251"/>
   <ellipse  rx="6.1200" ry="6.1200" cx="290.2596" cy="96.6995"/>
   <ellipse  rx="6.1200" ry="6.1200" cx="240.8123" cy="104.5166"/>
   <ellipse  rx="6.1200" ry="6.1200" cx="218.6958" cy="100.4717"/>
   <ellipse  rx="6.1200" ry="6.1200" cx="319.0413" cy="240.1095"/>
   <ellipse  rx="6.1200" ry="6.1200" cx="342.2311" cy="158.1414"/>
   <ellipse  rx="6.1200" ry="6.1200" cx="261.7624" cy="100.2606"/>
   <ellipse  rx="6.1200" ry="6.1200" cx="283.9021" cy="134.6816"/>
   <ellipse  rx="6.1200" ry="6.1200" cx="386.5480" cy="106.2704"/>
   <ellipse  rx="6.1200" ry="6.1200" cx="343.1922" cy="100.0524"/>
   <ellipse  rx="6.1200" ry="6.1200" cx="523.3070" cy="445.2360"/>
   <ellipse  rx="6.1200" ry="6.1200" cx="339.8534" cy="98.5811"/>
   <ellipse  rx="6.1200" ry="6.1200" cx="258.4932" cy="99.6792"/>
   <ellipse  rx="6.1200" ry="6.1200" cx="455.1479" cy="102.6563"/>
   <ellipse  rx="6.1200" ry="6.1200" cx="391.7174" cy="373.0857"/>
   <ellipse  rx="6.1200" ry="6.1200" cx="245.3121" cy="99.4289"/>
   <ellipse  rx="6.1200" ry="6.1200" cx="346.8580" cy="99.4148"/>
   <ellipse  rx="6.1200" ry="6.1200" cx="551.5165" cy="99.2272"/>
   <ellipse  rx="6.1200" ry="6.1200" cx="549.7549" cy="102.9742"/>
   <ellipse  rx="6.1200" ry="6.1200" cx="484.0362" cy="101.8644"/>
   <ellipse  rx="6.1200" ry="6.1200" cx="292.2714" cy="387.4268"/>
   <ellipse  rx="6.1200" ry="6.1200" cx="245.4736" cy="102.3534"/>
   <ellipse  rx="6.1200" ry="6.1200" cx="270.1353" cy="103.3717"/>
   <ellipse  rx="6.1200" ry="6.1200" cx="485.2016" cy="103.4122"/>
   <ellipse  rx="6.1200" ry="6.1200" cx="358.8127" cy="99.2640"/>
   <ellipse  rx="6.1200" ry="6.1200" cx="426.2991" cy="95.8344"/>
   <ellipse  rx="6.1200" ry="6.1200" cx="508.3718" cy="102.7021"/>
   <ellipse  rx="6.1200" ry="6.1200" cx="181.2479" cy="124.9535"/>
   <ellipse  rx="6.1200" ry="6.1200" cx="448.9194" cy="104.2827"/>
   <ellipse  rx="6.1200" ry="6.1200" cx="227.0158" cy="116.2985"/>
   <ellipse  rx="6.1200" ry="6.1200" cx="296.7782" cy="99.5305"/>
   <ellipse  rx="6.1200" ry="6.1200" cx="239.1643" cy="126.4546"/>
   <ellipse  rx="6.1200" ry="6.1200" cx="364.3560" cy="109.2182"/>
   <ellipse  rx="6.1200" ry="6.1200" cx="307.4843" cy="110.0569"/>
   <ellipse  rx="6.1200" ry="6.1200" cx="366.9849" cy="147.5174"/>
   <ellipse  rx="6.1200" ry="6.1200" cx="281.7953" cy="98.3325"/>
   <ellipse  rx="6.1200" ry="6.1200" cx="382.6063" cy="96.7045"/>
   <ellipse  rx="6.1200" ry="6.1200" cx="154.8004" cy="99.8882"/>
   <ellipse  rx="6.1200" ry="6.1200" cx="218.3774" cy="124.6052"/>
   <path d="M91.8000,91.8000L91.8000,520.2000L703.8000,520.2000L703.8000,91.8000z"/>
  </g>
 </g>
</svg>
