<?xml version="1.0" encoding="ISO-8859-1"?>
<!DOCTYPE svg PUBLIC "-//W3C//DTD SVG 1.0//EN" "http://www.w3.org/TR/2001/REC-SVG-20010904/DTD/svg10.dtd">
<!-- generated by Grace-5.1.25 -->
<svg xml:space="preserve" width="11.0000in" height="8.5000in" viewBox="0.0000 0.0000 792.0000 612.0000">
 <g transform="translate(0,612.0000) scale(1,-1)">
  <g style="fill:#FFFFFF; fill-rule:nonzero">
   <path  d="M0.0000,0.0000L0.0000,612.0000L792.0000,612.0000L792.0000,0.0000z"/>
  </g>
  <g style="fill:none; stroke:#000000; stroke-width:  0.9180; stroke-linecap:butt; stroke-linejoin:miter; stroke-dasharray:none">
   <ellipse  rx="6.1200" ry="6.1200" cx="334.9392" cy="108.0947"/>
   <ellipse  rx="6.1200" ry="6.1200" cx="307.4435" cy="97.3039"/>
   <ellipse  rx="6.1200" ry="6.1200" cx="257.4726" cy="188.2823"/>
   <ellipse  rx="6.1200" ry="6.1200" cx="361.8409" cy="97.7302"/>
   <ellipse  rx="6.1200" ry="6.1200" cx="407.3165" cy="111.5163"/>
   <ellipse  rx="6.1200" ry="6.1200" cx="315.2412" cy="139.8916"/>
   <ellipse  rx="6.1200" ry="6.1200" cx="335.5096" cy="93.3702"/>
   <ellipse  rx="6.1200" ry="6.1200" cx="159.3464" cy="93.0806"/>
   <ellipse  rx="6.1200" ry="6.1200" cx="431.7466" cy="175.8132"/>
   <ellipse  rx="6.1200" ry="6.1200" cx="314.3377" cy="95.5917"/>
   <ellipse  rx="6.1200" ry="6.1200" cx="319.2712" cy="98.8769"/>
   <ellipse  rx="6.1200" ry="6.1200" cx="266.6820" cy="93.6025"/>
   <ellipse  rx="6.1200" ry="6.1200" cx="305.0437" cy="94.5447"/>
   <ellipse  rx="6.1200" ry="6.1200" cx="309.1500" cy="403.3120"/>
   <ellipse  rx="6.1200" ry="6.1200" cx="272.6134" cy="94.0063"/>
   <ellipse  rx="6.1200" ry="6.1200" cx="450.6382" cy="106.2743"/>
   <ellipse  rx="6.1200" ry="6.1200" cx="391.1127" cy="100.7425"/>
   <ellipse  rx="6.1200" ry="6.1200" cx="305.6361" cy="93.5141"/>
   <ellipse  rx="6.1200" ry="6.1200" cx="409.4983" cy="239.6505"/>
   <ellipse  rx="6.1200" ry="6.1200" cx="242.9070" cy="95.1583"/>
   <ellipse  rx="6.1200" ry="6.1200" cx="268.2828" cy="97.9443"/>
   <ellipse  rx="6.1200" ry="6.1200" cx="368.5559" cy="100.5185"/>
   <ellipse  rx="6.1200" ry="6.1200" cx="263.4802" cy="170.2333"/>
   <ellipse  rx="6.1200" ry="6.1200" cx="280.9680" cy="94.8271"/>
   <ellipse  rx="6.1200" ry="6.1200" cx="211.7449" cy="94.6910"/>
   <ellipse  rx="6.1200" ry="6.1200" cx="264.8727" cy="114.1494"/>
   <ellipse  rx="6.1200" ry="6.1200" cx="402.1506" cy="94.1986"/>
   <ellipse  rx="6.1200" ry="6.1200" cx="395.2890" cy="213.9803"/>
   <ellipse  rx="6.1200" ry="6.1200" cx="393.7813" cy="93.7145"/>
   <ellipse  rx="6.1200" ry="6.1200" cx="275.0917" cy="95.8989"/>
   <ellipse  rx="6.1200" ry="6.1200" cx="328.4173" cy="94.0624"/>
   <ellipse  rx="6.1200" ry="6.1200" cx="275.0915" cy="97.2295"/>
   <ellipse  rx="6.1200" ry="6.1200" cx="688.1677" cy="445.4597"/>
   <ellipse  rx="6.1200" ry="6.1200" cx="218.6958" cy="93.1267"/>
   <ellipse  rx="6.1200" ry="6.1200" cx="281.3129" cy="97.9391"/>
   <ellipse  rx="6.1200" ry="6.1200" cx="342.2311" cy="149.3627"/>
   <ellipse  rx="6.1200" ry="6.1200" cx="283.9021" cy="122.4059"/>
   <ellipse  rx="6.1200" ry="6.1200" cx="343.1922" cy="99.3877"/>
   <ellipse  rx="6.1200" ry="6.1200" cx="523.3070" cy="231.3388"/>
   <ellipse  rx="6.1200" ry="6.1200" cx="455.1479" cy="95.3961"/>
   <ellipse  rx="6.1200" ry="6.1200" cx="245.3121" cy="135.9979"/>
   <ellipse  rx="6.1200" ry="6.1200" cx="551.5165" cy="437.7005"/>
   <ellipse  rx="6.1200" ry="6.1200" cx="549.7549" cy="97.0651"/>
   <ellipse  rx="6.1200" ry="6.1200" cx="484.0362" cy="140.7384"/>
   <ellipse  rx="6.1200" ry="6.1200" cx="362.0640" cy="122.2132"/>
   <ellipse  rx="6.1200" ry="6.1200" cx="426.2991" cy="95.4633"/>
   <ellipse  rx="6.1200" ry="6.1200" cx="181.2479" cy="93.4521"/>
   <ellipse  rx="6.1200" ry="6.1200" cx="448.9194" cy="176.8170"/>
   <ellipse  rx="6.1200" ry="6.1200" cx="381.3172" cy="186.0930"/>
   <ellipse  rx="6.1200" ry="6.1200" cx="227.0158" cy="94.7034"/>
   <ellipse  rx="6.1200" ry="6.1200" cx="254.9973" cy="324.6582"/>
   <ellipse  rx="6.1200" ry="6.1200" cx="485.7051" cy="94.0455"/>
   <ellipse  rx="6.1200" ry="6.1200" cx="307.4843" cy="95.0573"/>
   <ellipse  rx="6.1200" ry="6.1200" cx="366.9849" cy="146.4123"/>
   <ellipse  rx="6.1200" ry="6.1200" cx="281.7953" cy="94.6624"/>
   <ellipse  rx="6.1200" ry="6.1200" cx="382.6063" cy="100.1738"/>
   <ellipse  rx="6.1200" ry="6.1200" cx="389.2134" cy="207.1881"/>
   <ellipse  rx="6.1200" ry="6.1200" cx="229.7651" cy="93.1221"/>
   <ellipse  rx="6.1200" ry="6.1200" cx="211.7449" cy="94.6910"/>
   <ellipse  rx="6.1200" ry="6.1200" cx="154.8004" cy="93.0822"/>
   <path d="M91.8000,91.8000L91.8000,520.2000L703.8000,520.2000L703.8000,91.8000z"/>
  </g>
 </g>
</svg>
