<?xml version="1.0" encoding="ISO-8859-1"?>
<!DOCTYPE svg PUBLIC "-//W3C//DTD SVG 1.0//EN" "http://www.w3.org/TR/2001/REC-SVG-20010904/DTD/svg10.dtd">
<!-- generated by Grace-5.1.25 -->
<svg xml:space="preserve" width="11.0000in" height="8.5000in" viewBox="0.0000 0.0000 792.0000 612.0000">
 <g transform="translate(0,612.0000) scale(1,-1)">
  <g style="fill:#FFFFFF; fill-rule:nonzero">
   <path  d="M0.0000,0.0000L0.0000,612.0000L792.0000,612.0000L792.0000,0.0000z"/>
  </g>
  <g style="fill:none; stroke:#000000; stroke-width:  0.9180; stroke-linecap:butt; stroke-linejoin:miter; stroke-dasharray:none">
   <ellipse  rx="6.1200" ry="6.1200" cx="334.9392" cy="111.2890"/>
   <ellipse  rx="6.1200" ry="6.1200" cx="307.4435" cy="113.3610"/>
   <ellipse  rx="6.1200" ry="6.1200" cx="425.4975" cy="161.2603"/>
   <ellipse  rx="6.1200" ry="6.1200" cx="257.4726" cy="118.3704"/>
   <ellipse  rx="6.1200" ry="6.1200" cx="397.6118" cy="140.1834"/>
   <ellipse  rx="6.1200" ry="6.1200" cx="399.4838" cy="108.0228"/>
   <ellipse  rx="6.1200" ry="6.1200" cx="284.8566" cy="110.8281"/>
   <ellipse  rx="6.1200" ry="6.1200" cx="315.8711" cy="111.0885"/>
   <ellipse  rx="6.1200" ry="6.1200" cx="361.8409" cy="109.0868"/>
   <ellipse  rx="6.1200" ry="6.1200" cx="303.8143" cy="105.3332"/>
   <ellipse  rx="6.1200" ry="6.1200" cx="407.3165" cy="131.0647"/>
   <ellipse  rx="6.1200" ry="6.1200" cx="305.3736" cy="107.7894"/>
   <ellipse  rx="6.1200" ry="6.1200" cx="315.2412" cy="123.6598"/>
   <ellipse  rx="6.1200" ry="6.1200" cx="269.1604" cy="111.0414"/>
   <ellipse  rx="6.1200" ry="6.1200" cx="349.5861" cy="109.1805"/>
   <ellipse  rx="6.1200" ry="6.1200" cx="335.5096" cy="115.9871"/>
   <ellipse  rx="6.1200" ry="6.1200" cx="159.3464" cy="202.9656"/>
   <ellipse  rx="6.1200" ry="6.1200" cx="315.0200" cy="125.1613"/>
   <ellipse  rx="6.1200" ry="6.1200" cx="339.3517" cy="149.0877"/>
   <ellipse  rx="6.1200" ry="6.1200" cx="310.2906" cy="277.6768"/>
   <ellipse  rx="6.1200" ry="6.1200" cx="431.7466" cy="112.3137"/>
   <ellipse  rx="6.1200" ry="6.1200" cx="314.3377" cy="195.0444"/>
   <ellipse  rx="6.1200" ry="6.1200" cx="319.2712" cy="112.8578"/>
   <ellipse  rx="6.1200" ry="6.1200" cx="284.2812" cy="120.5425"/>
   <ellipse  rx="6.1200" ry="6.1200" cx="266.6820" cy="221.2434"/>
   <ellipse  rx="6.1200" ry="6.1200" cx="265.7831" cy="108.9607"/>
   <ellipse  rx="6.1200" ry="6.1200" cx="304.2050" cy="111.6543"/>
   <ellipse  rx="6.1200" ry="6.1200" cx="305.0437" cy="107.0388"/>
   <ellipse  rx="6.1200" ry="6.1200" cx="309.1500" cy="110.0257"/>
   <ellipse  rx="6.1200" ry="6.1200" cx="272.6134" cy="154.3246"/>
   <ellipse  rx="6.1200" ry="6.1200" cx="392.7288" cy="108.5712"/>
   <ellipse  rx="6.1200" ry="6.1200" cx="450.6382" cy="157.1106"/>
   <ellipse  rx="6.1200" ry="6.1200" cx="350.8870" cy="106.1536"/>
   <ellipse  rx="6.1200" ry="6.1200" cx="391.1127" cy="106.0114"/>
   <ellipse  rx="6.1200" ry="6.1200" cx="285.8271" cy="184.7822"/>
   <ellipse  rx="6.1200" ry="6.1200" cx="225.7115" cy="114.3528"/>
   <ellipse  rx="6.1200" ry="6.1200" cx="305.6361" cy="471.9457"/>
   <ellipse  rx="6.1200" ry="6.1200" cx="409.4983" cy="108.2073"/>
   <ellipse  rx="6.1200" ry="6.1200" cx="242.9070" cy="107.4639"/>
   <ellipse  rx="6.1200" ry="6.1200" cx="268.2828" cy="113.3144"/>
   <ellipse  rx="6.1200" ry="6.1200" cx="368.5559" cy="147.9505"/>
   <ellipse  rx="6.1200" ry="6.1200" cx="276.6294" cy="108.7970"/>
   <ellipse  rx="6.1200" ry="6.1200" cx="263.4802" cy="111.5952"/>
   <ellipse  rx="6.1200" ry="6.1200" cx="528.1940" cy="164.6123"/>
   <ellipse  rx="6.1200" ry="6.1200" cx="284.2809" cy="108.2413"/>
   <ellipse  rx="6.1200" ry="6.1200" cx="280.9680" cy="231.0857"/>
   <ellipse  rx="6.1200" ry="6.1200" cx="211.7449" cy="129.2610"/>
   <ellipse  rx="6.1200" ry="6.1200" cx="264.8727" cy="107.8821"/>
   <ellipse  rx="6.1200" ry="6.1200" cx="402.1506" cy="163.8683"/>
   <ellipse  rx="6.1200" ry="6.1200" cx="395.2890" cy="103.4605"/>
   <ellipse  rx="6.1200" ry="6.1200" cx="340.1723" cy="108.2065"/>
   <ellipse  rx="6.1200" ry="6.1200" cx="393.7813" cy="107.9353"/>
   <ellipse  rx="6.1200" ry="6.1200" cx="275.0917" cy="148.3874"/>
   <ellipse  rx="6.1200" ry="6.1200" cx="328.4173" cy="106.2643"/>
   <ellipse  rx="6.1200" ry="6.1200" cx="358.3700" cy="108.9344"/>
   <ellipse  rx="6.1200" ry="6.1200" cx="275.0915" cy="184.1854"/>
   <ellipse  rx="6.1200" ry="6.1200" cx="330.7542" cy="108.6953"/>
   <ellipse  rx="6.1200" ry="6.1200" cx="688.1677" cy="124.6357"/>
   <ellipse  rx="6.1200" ry="6.1200" cx="290.2596" cy="141.1219"/>
   <ellipse  rx="6.1200" ry="6.1200" cx="240.8123" cy="109.1866"/>
   <ellipse  rx="6.1200" ry="6.1200" cx="218.6958" cy="224.6085"/>
   <ellipse  rx="6.1200" ry="6.1200" cx="345.7447" cy="106.9588"/>
   <ellipse  rx="6.1200" ry="6.1200" cx="281.3129" cy="104.0099"/>
   <ellipse  rx="6.1200" ry="6.1200" cx="359.6566" cy="107.7016"/>
   <ellipse  rx="6.1200" ry="6.1200" cx="319.0413" cy="109.4681"/>
   <ellipse  rx="6.1200" ry="6.1200" cx="342.2311" cy="111.6470"/>
   <ellipse  rx="6.1200" ry="6.1200" cx="261.7624" cy="109.5857"/>
   <ellipse  rx="6.1200" ry="6.1200" cx="283.9021" cy="109.4022"/>
   <ellipse  rx="6.1200" ry="6.1200" cx="386.5480" cy="132.1826"/>
   <ellipse  rx="6.1200" ry="6.1200" cx="343.1922" cy="106.3523"/>
   <ellipse  rx="6.1200" ry="6.1200" cx="523.3070" cy="122.2561"/>
   <ellipse  rx="6.1200" ry="6.1200" cx="339.8534" cy="119.9677"/>
   <ellipse  rx="6.1200" ry="6.1200" cx="258.4932" cy="109.4476"/>
   <ellipse  rx="6.1200" ry="6.1200" cx="455.1479" cy="160.9719"/>
   <ellipse  rx="6.1200" ry="6.1200" cx="391.7174" cy="149.3061"/>
   <ellipse  rx="6.1200" ry="6.1200" cx="245.3121" cy="109.5748"/>
   <ellipse  rx="6.1200" ry="6.1200" cx="346.8580" cy="149.6500"/>
   <ellipse  rx="6.1200" ry="6.1200" cx="551.5165" cy="109.5136"/>
   <ellipse  rx="6.1200" ry="6.1200" cx="549.7549" cy="112.7584"/>
   <ellipse  rx="6.1200" ry="6.1200" cx="484.0362" cy="107.9958"/>
   <ellipse  rx="6.1200" ry="6.1200" cx="429.7672" cy="112.4705"/>
   <ellipse  rx="6.1200" ry="6.1200" cx="292.2714" cy="109.0663"/>
   <ellipse  rx="6.1200" ry="6.1200" cx="245.4736" cy="104.9133"/>
   <ellipse  rx="6.1200" ry="6.1200" cx="333.4893" cy="135.7145"/>
   <ellipse  rx="6.1200" ry="6.1200" cx="270.1353" cy="150.3793"/>
   <ellipse  rx="6.1200" ry="6.1200" cx="485.2016" cy="107.5994"/>
   <ellipse  rx="6.1200" ry="6.1200" cx="358.8127" cy="159.8358"/>
   <ellipse  rx="6.1200" ry="6.1200" cx="362.0640" cy="109.8793"/>
   <ellipse  rx="6.1200" ry="6.1200" cx="426.2991" cy="176.9871"/>
   <ellipse  rx="6.1200" ry="6.1200" cx="508.3718" cy="110.3530"/>
   <ellipse  rx="6.1200" ry="6.1200" cx="181.2479" cy="153.1601"/>
   <ellipse  rx="6.1200" ry="6.1200" cx="448.9194" cy="128.4737"/>
   <ellipse  rx="6.1200" ry="6.1200" cx="399.0517" cy="194.3501"/>
   <ellipse  rx="6.1200" ry="6.1200" cx="381.3172" cy="195.2346"/>
   <ellipse  rx="6.1200" ry="6.1200" cx="227.0158" cy="115.2363"/>
   <ellipse  rx="6.1200" ry="6.1200" cx="296.7782" cy="172.6579"/>
   <ellipse  rx="6.1200" ry="6.1200" cx="239.1643" cy="108.4973"/>
   <ellipse  rx="6.1200" ry="6.1200" cx="261.3427" cy="168.7165"/>
   <ellipse  rx="6.1200" ry="6.1200" cx="254.9973" cy="168.1401"/>
   <ellipse  rx="6.1200" ry="6.1200" cx="364.3560" cy="200.8160"/>
   <ellipse  rx="6.1200" ry="6.1200" cx="485.7051" cy="108.6749"/>
   <ellipse  rx="6.1200" ry="6.1200" cx="307.4843" cy="108.0039"/>
   <ellipse  rx="6.1200" ry="6.1200" cx="366.9849" cy="111.4016"/>
   <ellipse  rx="6.1200" ry="6.1200" cx="281.7953" cy="107.9231"/>
   <ellipse  rx="6.1200" ry="6.1200" cx="382.6063" cy="124.1734"/>
   <ellipse  rx="6.1200" ry="6.1200" cx="389.2134" cy="111.2253"/>
   <ellipse  rx="6.1200" ry="6.1200" cx="353.0327" cy="107.9898"/>
   <ellipse  rx="6.1200" ry="6.1200" cx="229.7651" cy="186.2754"/>
   <ellipse  rx="6.1200" ry="6.1200" cx="211.7449" cy="129.2090"/>
   <ellipse  rx="6.1200" ry="6.1200" cx="154.8004" cy="355.2557"/>
   <ellipse  rx="6.1200" ry="6.1200" cx="218.3774" cy="108.4777"/>
   <ellipse  rx="6.1200" ry="6.1200" cx="315.6767" cy="147.5474"/>
   <path d="M91.8000,91.8000L91.8000,520.2000L703.8000,520.2000L703.8000,91.8000z"/>
  </g>
 </g>
</svg>
