<?xml version="1.0" encoding="ISO-8859-1"?>
<!DOCTYPE svg PUBLIC "-//W3C//DTD SVG 1.0//EN" "http://www.w3.org/TR/2001/REC-SVG-20010904/DTD/svg10.dtd">
<!-- generated by Grace-5.1.25 -->
<svg xml:space="preserve" width="11.0000in" height="8.5000in" viewBox="0.0000 0.0000 792.0000 612.0000">
 <g transform="translate(0,612.0000) scale(1,-1)">
  <g style="fill:#FFFFFF; fill-rule:nonzero">
   <path  d="M0.0000,0.0000L0.0000,612.0000L792.0000,612.0000L792.0000,0.0000z"/>
  </g>
  <g style="fill:none; stroke:#000000; stroke-width:  0.9180; stroke-linecap:butt; stroke-linejoin:miter; stroke-dasharray:none">
   <ellipse  rx="6.1200" ry="6.1200" cx="334.9392" cy="91.8000"/>
   <ellipse  rx="6.1200" ry="6.1200" cx="307.4435" cy="94.4906"/>
   <ellipse  rx="6.1200" ry="6.1200" cx="425.4975" cy="146.2664"/>
   <ellipse  rx="6.1200" ry="6.1200" cx="257.4726" cy="100.7417"/>
   <ellipse  rx="6.1200" ry="6.1200" cx="397.6118" cy="126.8238"/>
   <ellipse  rx="6.1200" ry="6.1200" cx="399.4838" cy="91.8000"/>
   <ellipse  rx="6.1200" ry="6.1200" cx="284.8566" cy="92.9807"/>
   <ellipse  rx="6.1200" ry="6.1200" cx="315.8711" cy="93.7553"/>
   <ellipse  rx="6.1200" ry="6.1200" cx="361.8409" cy="91.8000"/>
   <ellipse  rx="6.1200" ry="6.1200" cx="303.8143" cy="91.8000"/>
   <ellipse  rx="6.1200" ry="6.1200" cx="407.3165" cy="114.5576"/>
   <ellipse  rx="6.1200" ry="6.1200" cx="305.3736" cy="91.8000"/>
   <ellipse  rx="6.1200" ry="6.1200" cx="315.2412" cy="110.4303"/>
   <ellipse  rx="6.1200" ry="6.1200" cx="269.1604" cy="96.6141"/>
   <ellipse  rx="6.1200" ry="6.1200" cx="349.5861" cy="91.8000"/>
   <ellipse  rx="6.1200" ry="6.1200" cx="335.5096" cy="103.5944"/>
   <ellipse  rx="6.1200" ry="6.1200" cx="159.3464" cy="191.4129"/>
   <ellipse  rx="6.1200" ry="6.1200" cx="315.0200" cy="111.5881"/>
   <ellipse  rx="6.1200" ry="6.1200" cx="339.3517" cy="132.5259"/>
   <ellipse  rx="6.1200" ry="6.1200" cx="310.2906" cy="263.0516"/>
   <ellipse  rx="6.1200" ry="6.1200" cx="431.7466" cy="92.6035"/>
   <ellipse  rx="6.1200" ry="6.1200" cx="314.3377" cy="181.8532"/>
   <ellipse  rx="6.1200" ry="6.1200" cx="319.2712" cy="96.7331"/>
   <ellipse  rx="6.1200" ry="6.1200" cx="284.2812" cy="101.3212"/>
   <ellipse  rx="6.1200" ry="6.1200" cx="266.6820" cy="209.0568"/>
   <ellipse  rx="6.1200" ry="6.1200" cx="265.7831" cy="92.0441"/>
   <ellipse  rx="6.1200" ry="6.1200" cx="304.2050" cy="94.8217"/>
   <ellipse  rx="6.1200" ry="6.1200" cx="305.0437" cy="91.8000"/>
   <ellipse  rx="6.1200" ry="6.1200" cx="309.1500" cy="93.0896"/>
   <ellipse  rx="6.1200" ry="6.1200" cx="272.6134" cy="140.3870"/>
   <ellipse  rx="6.1200" ry="6.1200" cx="392.7288" cy="91.8141"/>
   <ellipse  rx="6.1200" ry="6.1200" cx="450.6382" cy="143.9891"/>
   <ellipse  rx="6.1200" ry="6.1200" cx="350.8870" cy="91.8783"/>
   <ellipse  rx="6.1200" ry="6.1200" cx="391.1127" cy="91.8000"/>
   <ellipse  rx="6.1200" ry="6.1200" cx="285.8271" cy="170.3806"/>
   <ellipse  rx="6.1200" ry="6.1200" cx="225.7115" cy="97.7990"/>
   <ellipse  rx="6.1200" ry="6.1200" cx="305.6361" cy="471.2962"/>
   <ellipse  rx="6.1200" ry="6.1200" cx="409.4983" cy="91.8000"/>
   <ellipse  rx="6.1200" ry="6.1200" cx="242.9070" cy="91.8000"/>
   <ellipse  rx="6.1200" ry="6.1200" cx="268.2828" cy="95.3086"/>
   <ellipse  rx="6.1200" ry="6.1200" cx="368.5559" cy="135.0209"/>
   <ellipse  rx="6.1200" ry="6.1200" cx="276.6294" cy="91.8000"/>
   <ellipse  rx="6.1200" ry="6.1200" cx="263.4802" cy="96.4738"/>
   <ellipse  rx="6.1200" ry="6.1200" cx="528.1940" cy="150.0229"/>
   <ellipse  rx="6.1200" ry="6.1200" cx="284.2809" cy="91.8000"/>
   <ellipse  rx="6.1200" ry="6.1200" cx="280.9680" cy="217.2399"/>
   <ellipse  rx="6.1200" ry="6.1200" cx="211.7449" cy="110.6379"/>
   <ellipse  rx="6.1200" ry="6.1200" cx="264.8727" cy="91.8744"/>
   <ellipse  rx="6.1200" ry="6.1200" cx="402.1506" cy="149.2856"/>
   <ellipse  rx="6.1200" ry="6.1200" cx="395.2890" cy="91.8000"/>
   <ellipse  rx="6.1200" ry="6.1200" cx="340.1723" cy="91.8000"/>
   <ellipse  rx="6.1200" ry="6.1200" cx="393.7813" cy="91.8000"/>
   <ellipse  rx="6.1200" ry="6.1200" cx="275.0917" cy="134.5937"/>
   <ellipse  rx="6.1200" ry="6.1200" cx="328.4173" cy="91.9306"/>
   <ellipse  rx="6.1200" ry="6.1200" cx="358.3700" cy="92.0126"/>
   <ellipse  rx="6.1200" ry="6.1200" cx="275.0915" cy="171.2280"/>
   <ellipse  rx="6.1200" ry="6.1200" cx="330.7542" cy="91.8000"/>
   <ellipse  rx="6.1200" ry="6.1200" cx="688.1677" cy="106.4875"/>
   <ellipse  rx="6.1200" ry="6.1200" cx="290.2596" cy="125.9016"/>
   <ellipse  rx="6.1200" ry="6.1200" cx="240.8123" cy="91.9320"/>
   <ellipse  rx="6.1200" ry="6.1200" cx="218.6958" cy="215.5044"/>
   <ellipse  rx="6.1200" ry="6.1200" cx="345.7447" cy="92.4505"/>
   <ellipse  rx="6.1200" ry="6.1200" cx="281.3129" cy="91.8038"/>
   <ellipse  rx="6.1200" ry="6.1200" cx="359.6566" cy="91.8000"/>
   <ellipse  rx="6.1200" ry="6.1200" cx="319.0413" cy="92.8218"/>
   <ellipse  rx="6.1200" ry="6.1200" cx="342.2311" cy="93.3934"/>
   <ellipse  rx="6.1200" ry="6.1200" cx="261.7624" cy="93.8180"/>
   <ellipse  rx="6.1200" ry="6.1200" cx="283.9021" cy="91.8000"/>
   <ellipse  rx="6.1200" ry="6.1200" cx="386.5480" cy="117.2800"/>
   <ellipse  rx="6.1200" ry="6.1200" cx="343.1922" cy="91.8038"/>
   <ellipse  rx="6.1200" ry="6.1200" cx="523.3070" cy="105.9969"/>
   <ellipse  rx="6.1200" ry="6.1200" cx="339.8534" cy="105.2225"/>
   <ellipse  rx="6.1200" ry="6.1200" cx="258.4932" cy="91.8674"/>
   <ellipse  rx="6.1200" ry="6.1200" cx="455.1479" cy="148.2959"/>
   <ellipse  rx="6.1200" ry="6.1200" cx="391.7174" cy="134.0729"/>
   <ellipse  rx="6.1200" ry="6.1200" cx="245.3121" cy="93.0018"/>
   <ellipse  rx="6.1200" ry="6.1200" cx="346.8580" cy="134.7454"/>
   <ellipse  rx="6.1200" ry="6.1200" cx="551.5165" cy="92.0335"/>
   <ellipse  rx="6.1200" ry="6.1200" cx="549.7549" cy="95.4400"/>
   <ellipse  rx="6.1200" ry="6.1200" cx="484.0362" cy="91.8054"/>
   <ellipse  rx="6.1200" ry="6.1200" cx="429.7672" cy="92.6896"/>
   <ellipse  rx="6.1200" ry="6.1200" cx="292.2714" cy="91.8000"/>
   <ellipse  rx="6.1200" ry="6.1200" cx="245.4736" cy="91.8000"/>
   <ellipse  rx="6.1200" ry="6.1200" cx="333.4893" cy="117.3628"/>
   <ellipse  rx="6.1200" ry="6.1200" cx="270.1353" cy="135.1762"/>
   <ellipse  rx="6.1200" ry="6.1200" cx="485.2016" cy="91.8000"/>
   <ellipse  rx="6.1200" ry="6.1200" cx="358.8127" cy="144.8107"/>
   <ellipse  rx="6.1200" ry="6.1200" cx="362.0640" cy="92.4778"/>
   <ellipse  rx="6.1200" ry="6.1200" cx="426.2991" cy="166.6170"/>
   <ellipse  rx="6.1200" ry="6.1200" cx="508.3718" cy="94.1042"/>
   <ellipse  rx="6.1200" ry="6.1200" cx="181.2479" cy="140.3756"/>
   <ellipse  rx="6.1200" ry="6.1200" cx="448.9194" cy="112.6922"/>
   <ellipse  rx="6.1200" ry="6.1200" cx="399.0517" cy="178.7339"/>
   <ellipse  rx="6.1200" ry="6.1200" cx="381.3172" cy="186.2359"/>
   <ellipse  rx="6.1200" ry="6.1200" cx="227.0158" cy="99.8774"/>
   <ellipse  rx="6.1200" ry="6.1200" cx="296.7782" cy="158.0337"/>
   <ellipse  rx="6.1200" ry="6.1200" cx="239.1643" cy="92.3268"/>
   <ellipse  rx="6.1200" ry="6.1200" cx="261.3427" cy="153.5490"/>
   <ellipse  rx="6.1200" ry="6.1200" cx="254.9973" cy="152.2065"/>
   <ellipse  rx="6.1200" ry="6.1200" cx="364.3560" cy="186.8379"/>
   <ellipse  rx="6.1200" ry="6.1200" cx="485.7051" cy="92.2457"/>
   <ellipse  rx="6.1200" ry="6.1200" cx="307.4843" cy="91.8000"/>
   <ellipse  rx="6.1200" ry="6.1200" cx="366.9849" cy="92.7069"/>
   <ellipse  rx="6.1200" ry="6.1200" cx="281.7953" cy="91.8000"/>
   <ellipse  rx="6.1200" ry="6.1200" cx="382.6063" cy="107.4965"/>
   <ellipse  rx="6.1200" ry="6.1200" cx="389.2134" cy="93.5140"/>
   <ellipse  rx="6.1200" ry="6.1200" cx="353.0327" cy="92.1242"/>
   <ellipse  rx="6.1200" ry="6.1200" cx="229.7651" cy="175.3745"/>
   <ellipse  rx="6.1200" ry="6.1200" cx="211.7449" cy="110.6379"/>
   <ellipse  rx="6.1200" ry="6.1200" cx="154.8004" cy="349.9477"/>
   <ellipse  rx="6.1200" ry="6.1200" cx="218.3774" cy="91.8000"/>
   <ellipse  rx="6.1200" ry="6.1200" cx="315.6767" cy="132.0156"/>
   <path d="M91.8000,91.8000L91.8000,520.2000L703.8000,520.2000L703.8000,91.8000z"/>
  </g>
 </g>
</svg>
