<?xml version="1.0" encoding="ISO-8859-1"?>
<!DOCTYPE svg PUBLIC "-//W3C//DTD SVG 1.0//EN" "http://www.w3.org/TR/2001/REC-SVG-20010904/DTD/svg10.dtd">
<!-- generated by Grace-5.1.25 -->
<svg xml:space="preserve" width="11.0000in" height="8.5000in" viewBox="0.0000 0.0000 792.0000 612.0000">
 <g transform="translate(0,612.0000) scale(1,-1)">
  <g style="fill:#FFFFFF; fill-rule:nonzero">
   <path  d="M0.0000,0.0000L0.0000,612.0000L792.0000,612.0000L792.0000,0.0000z"/>
  </g>
  <g style="fill:none; stroke:#000000; stroke-width:  0.9180; stroke-linecap:butt; stroke-linejoin:miter; stroke-dasharray:none">
   <ellipse  rx="6.1200" ry="6.1200" cx="120.0384" cy="120.0477"/>
   <ellipse  rx="6.1200" ry="6.1200" cx="132.4425" cy="112.6010"/>
   <ellipse  rx="6.1200" ry="6.1200" cx="120.7605" cy="103.7916"/>
   <ellipse  rx="6.1200" ry="6.1200" cx="111.9731" cy="125.9838"/>
   <ellipse  rx="6.1200" ry="6.1200" cx="120.7463" cy="95.7745"/>
   <ellipse  rx="6.1200" ry="6.1200" cx="118.2665" cy="107.9747"/>
   <ellipse  rx="6.1200" ry="6.1200" cx="138.6090" cy="195.8621"/>
   <ellipse  rx="6.1200" ry="6.1200" cx="116.0113" cy="298.5962"/>
   <ellipse  rx="6.1200" ry="6.1200" cx="125.2202" cy="101.8871"/>
   <ellipse  rx="6.1200" ry="6.1200" cx="112.3957" cy="126.8570"/>
   <ellipse  rx="6.1200" ry="6.1200" cx="645.8110" cy="122.2025"/>
   <ellipse  rx="6.1200" ry="6.1200" cx="113.4249" cy="208.2554"/>
   <ellipse  rx="6.1200" ry="6.1200" cx="153.3829" cy="96.7080"/>
   <ellipse  rx="6.1200" ry="6.1200" cx="131.7747" cy="183.4349"/>
   <ellipse  rx="6.1200" ry="6.1200" cx="109.7476" cy="97.6593"/>
   <ellipse  rx="6.1200" ry="6.1200" cx="417.2968" cy="99.4434"/>
   <ellipse  rx="6.1200" ry="6.1200" cx="111.5426" cy="98.9419"/>
   <ellipse  rx="6.1200" ry="6.1200" cx="112.4932" cy="509.8452"/>
   <ellipse  rx="6.1200" ry="6.1200" cx="196.5284" cy="115.6142"/>
   <ellipse  rx="6.1200" ry="6.1200" cx="228.8179" cy="106.1932"/>
   <ellipse  rx="6.1200" ry="6.1200" cx="122.9849" cy="115.2199"/>
   <ellipse  rx="6.1200" ry="6.1200" cx="112.8959" cy="115.7996"/>
   <ellipse  rx="6.1200" ry="6.1200" cx="111.9550" cy="369.9667"/>
   <ellipse  rx="6.1200" ry="6.1200" cx="109.4828" cy="101.8520"/>
   <ellipse  rx="6.1200" ry="6.1200" cx="521.1951" cy="124.2793"/>
   <ellipse  rx="6.1200" ry="6.1200" cx="118.8022" cy="304.4975"/>
   <ellipse  rx="6.1200" ry="6.1200" cx="153.1941" cy="96.0882"/>
   <ellipse  rx="6.1200" ry="6.1200" cx="125.1193" cy="208.0461"/>
   <ellipse  rx="6.1200" ry="6.1200" cx="111.3569" cy="102.4937"/>
   <ellipse  rx="6.1200" ry="6.1200" cx="111.1301" cy="105.6411"/>
   <ellipse  rx="6.1200" ry="6.1200" cx="125.4830" cy="272.7032"/>
   <ellipse  rx="6.1200" ry="6.1200" cx="114.7038" cy="104.5160"/>
   <ellipse  rx="6.1200" ry="6.1200" cx="255.5928" cy="122.5033"/>
   <ellipse  rx="6.1200" ry="6.1200" cx="123.0006" cy="167.1549"/>
   <ellipse  rx="6.1200" ry="6.1200" cx="114.7562" cy="113.0481"/>
   <ellipse  rx="6.1200" ry="6.1200" cx="397.9963" cy="123.3455"/>
   <ellipse  rx="6.1200" ry="6.1200" cx="219.2362" cy="244.5251"/>
   <ellipse  rx="6.1200" ry="6.1200" cx="111.9462" cy="96.6995"/>
   <ellipse  rx="6.1200" ry="6.1200" cx="113.1756" cy="104.5166"/>
   <ellipse  rx="6.1200" ry="6.1200" cx="114.0193" cy="240.1095"/>
   <ellipse  rx="6.1200" ry="6.1200" cx="117.5408" cy="158.1414"/>
   <ellipse  rx="6.1200" ry="6.1200" cx="112.5181" cy="100.2606"/>
   <ellipse  rx="6.1200" ry="6.1200" cx="116.9051" cy="134.6816"/>
   <ellipse  rx="6.1200" ry="6.1200" cx="118.9929" cy="106.2704"/>
   <ellipse  rx="6.1200" ry="6.1200" cx="127.6142" cy="100.0524"/>
   <ellipse  rx="6.1200" ry="6.1200" cx="123.5936" cy="445.2360"/>
   <ellipse  rx="6.1200" ry="6.1200" cx="118.9741" cy="98.5811"/>
   <ellipse  rx="6.1200" ry="6.1200" cx="112.2728" cy="99.6792"/>
   <ellipse  rx="6.1200" ry="6.1200" cx="175.4274" cy="102.6563"/>
   <ellipse  rx="6.1200" ry="6.1200" cx="117.8452" cy="373.0857"/>
   <ellipse  rx="6.1200" ry="6.1200" cx="111.8052" cy="99.4289"/>
   <ellipse  rx="6.1200" ry="6.1200" cx="114.9903" cy="99.4148"/>
   <ellipse  rx="6.1200" ry="6.1200" cx="123.9035" cy="99.2272"/>
   <ellipse  rx="6.1200" ry="6.1200" cx="155.2001" cy="102.9742"/>
   <ellipse  rx="6.1200" ry="6.1200" cx="121.9616" cy="101.8644"/>
   <ellipse  rx="6.1200" ry="6.1200" cx="110.1620" cy="387.4268"/>
   <ellipse  rx="6.1200" ry="6.1200" cx="112.8124" cy="102.3534"/>
   <ellipse  rx="6.1200" ry="6.1200" cx="112.6788" cy="103.3717"/>
   <ellipse  rx="6.1200" ry="6.1200" cx="125.6337" cy="103.4122"/>
   <ellipse  rx="6.1200" ry="6.1200" cx="116.9358" cy="99.2640"/>
   <ellipse  rx="6.1200" ry="6.1200" cx="171.8239" cy="95.8344"/>
   <ellipse  rx="6.1200" ry="6.1200" cx="121.6490" cy="102.7021"/>
   <ellipse  rx="6.1200" ry="6.1200" cx="435.7576" cy="124.9535"/>
   <ellipse  rx="6.1200" ry="6.1200" cx="119.3839" cy="104.2827"/>
   <ellipse  rx="6.1200" ry="6.1200" cx="164.2304" cy="116.2985"/>
   <ellipse  rx="6.1200" ry="6.1200" cx="113.7837" cy="99.5305"/>
   <ellipse  rx="6.1200" ry="6.1200" cx="113.2284" cy="126.4546"/>
   <ellipse  rx="6.1200" ry="6.1200" cx="118.2995" cy="109.2182"/>
   <ellipse  rx="6.1200" ry="6.1200" cx="164.6093" cy="110.0569"/>
   <ellipse  rx="6.1200" ry="6.1200" cx="117.1651" cy="147.5174"/>
   <ellipse  rx="6.1200" ry="6.1200" cx="165.5992" cy="98.3325"/>
   <ellipse  rx="6.1200" ry="6.1200" cx="127.1906" cy="96.7045"/>
   <ellipse  rx="6.1200" ry="6.1200" cx="108.8806" cy="124.6052"/>
   <path d="M91.8000,91.8000L91.8000,520.2000L703.8000,520.2000L703.8000,91.8000z"/>
  </g>
 </g>
</svg>
