<?xml version="1.0" encoding="ISO-8859-1"?>
<!DOCTYPE svg PUBLIC "-//W3C//DTD SVG 1.0//EN" "http://www.w3.org/TR/2001/REC-SVG-20010904/DTD/svg10.dtd">
<!-- generated by Grace-5.1.25 -->
<svg xml:space="preserve" width="11.0000in" height="8.5000in" viewBox="0.0000 0.0000 792.0000 612.0000">
 <g transform="translate(0,612.0000) scale(1,-1)">
  <g style="fill:#FFFFFF; fill-rule:nonzero">
   <path  d="M0.0000,0.0000L0.0000,612.0000L792.0000,612.0000L792.0000,0.0000z"/>
  </g>
  <g style="fill:none; stroke:#000000; stroke-width:  0.9180; stroke-linecap:butt; stroke-linejoin:miter; stroke-dasharray:none">
   <ellipse  rx="6.1200" ry="6.1200" cx="120.0384" cy="108.0947"/>
   <ellipse  rx="6.1200" ry="6.1200" cx="132.4425" cy="97.3039"/>
   <ellipse  rx="6.1200" ry="6.1200" cx="111.9731" cy="188.2823"/>
   <ellipse  rx="6.1200" ry="6.1200" cx="138.6090" cy="97.7302"/>
   <ellipse  rx="6.1200" ry="6.1200" cx="125.2202" cy="111.5163"/>
   <ellipse  rx="6.1200" ry="6.1200" cx="115.4266" cy="139.8916"/>
   <ellipse  rx="6.1200" ry="6.1200" cx="645.8110" cy="93.3702"/>
   <ellipse  rx="6.1200" ry="6.1200" cx="119.4125" cy="175.8132"/>
   <ellipse  rx="6.1200" ry="6.1200" cx="153.3829" cy="95.5917"/>
   <ellipse  rx="6.1200" ry="6.1200" cx="131.7747" cy="98.8769"/>
   <ellipse  rx="6.1200" ry="6.1200" cx="417.2968" cy="93.6025"/>
   <ellipse  rx="6.1200" ry="6.1200" cx="196.5284" cy="94.5447"/>
   <ellipse  rx="6.1200" ry="6.1200" cx="113.1897" cy="403.3120"/>
   <ellipse  rx="6.1200" ry="6.1200" cx="228.8179" cy="94.0063"/>
   <ellipse  rx="6.1200" ry="6.1200" cx="122.9849" cy="106.2743"/>
   <ellipse  rx="6.1200" ry="6.1200" cx="132.0110" cy="100.7425"/>
   <ellipse  rx="6.1200" ry="6.1200" cx="521.1951" cy="93.5141"/>
   <ellipse  rx="6.1200" ry="6.1200" cx="118.8022" cy="239.6505"/>
   <ellipse  rx="6.1200" ry="6.1200" cx="153.1941" cy="95.1583"/>
   <ellipse  rx="6.1200" ry="6.1200" cx="125.1193" cy="97.9443"/>
   <ellipse  rx="6.1200" ry="6.1200" cx="133.5213" cy="100.5185"/>
   <ellipse  rx="6.1200" ry="6.1200" cx="111.1301" cy="170.2333"/>
   <ellipse  rx="6.1200" ry="6.1200" cx="168.4751" cy="94.8271"/>
   <ellipse  rx="6.1200" ry="6.1200" cx="162.8295" cy="94.6910"/>
   <ellipse  rx="6.1200" ry="6.1200" cx="114.7038" cy="114.1494"/>
   <ellipse  rx="6.1200" ry="6.1200" cx="255.5928" cy="94.1986"/>
   <ellipse  rx="6.1200" ry="6.1200" cx="123.0006" cy="213.9803"/>
   <ellipse  rx="6.1200" ry="6.1200" cx="397.9963" cy="93.7145"/>
   <ellipse  rx="6.1200" ry="6.1200" cx="147.2543" cy="95.8989"/>
   <ellipse  rx="6.1200" ry="6.1200" cx="219.2362" cy="94.0624"/>
   <ellipse  rx="6.1200" ry="6.1200" cx="127.0655" cy="97.2295"/>
   <ellipse  rx="6.1200" ry="6.1200" cx="132.7508" cy="445.4597"/>
   <ellipse  rx="6.1200" ry="6.1200" cx="131.5056" cy="97.9391"/>
   <ellipse  rx="6.1200" ry="6.1200" cx="117.5408" cy="149.3627"/>
   <ellipse  rx="6.1200" ry="6.1200" cx="116.9051" cy="122.4059"/>
   <ellipse  rx="6.1200" ry="6.1200" cx="127.6142" cy="99.3877"/>
   <ellipse  rx="6.1200" ry="6.1200" cx="123.5936" cy="231.3388"/>
   <ellipse  rx="6.1200" ry="6.1200" cx="175.4274" cy="95.3961"/>
   <ellipse  rx="6.1200" ry="6.1200" cx="111.8052" cy="135.9979"/>
   <ellipse  rx="6.1200" ry="6.1200" cx="123.9035" cy="437.7005"/>
   <ellipse  rx="6.1200" ry="6.1200" cx="155.2001" cy="97.0651"/>
   <ellipse  rx="6.1200" ry="6.1200" cx="121.9616" cy="140.7384"/>
   <ellipse  rx="6.1200" ry="6.1200" cx="118.5128" cy="122.2132"/>
   <ellipse  rx="6.1200" ry="6.1200" cx="171.8239" cy="95.4633"/>
   <ellipse  rx="6.1200" ry="6.1200" cx="435.7576" cy="93.4521"/>
   <ellipse  rx="6.1200" ry="6.1200" cx="119.3839" cy="176.8170"/>
   <ellipse  rx="6.1200" ry="6.1200" cx="118.8769" cy="186.0930"/>
   <ellipse  rx="6.1200" ry="6.1200" cx="164.2304" cy="94.7034"/>
   <ellipse  rx="6.1200" ry="6.1200" cx="110.7973" cy="324.6582"/>
   <ellipse  rx="6.1200" ry="6.1200" cx="299.9375" cy="94.0455"/>
   <ellipse  rx="6.1200" ry="6.1200" cx="164.6093" cy="95.0573"/>
   <ellipse  rx="6.1200" ry="6.1200" cx="117.1651" cy="146.4123"/>
   <ellipse  rx="6.1200" ry="6.1200" cx="165.5992" cy="94.6624"/>
   <ellipse  rx="6.1200" ry="6.1200" cx="127.1906" cy="100.1738"/>
   <ellipse  rx="6.1200" ry="6.1200" cx="119.7406" cy="207.1881"/>
   <ellipse  rx="6.1200" ry="6.1200" cx="162.8306" cy="94.6910"/>
   <path d="M91.8000,91.8000L91.8000,520.2000L703.8000,520.2000L703.8000,91.8000z"/>
  </g>
 </g>
</svg>
