<?xml version="1.0" encoding="ISO-8859-1"?>
<!DOCTYPE svg PUBLIC "-//W3C//DTD SVG 1.0//EN" "http://www.w3.org/TR/2001/REC-SVG-20010904/DTD/svg10.dtd">
<!-- generated by Grace-5.1.25 -->
<svg xml:space="preserve" width="11.0000in" height="8.5000in" viewBox="0.0000 0.0000 792.0000 612.0000">
 <g transform="translate(0,612.0000) scale(1,-1)">
  <g style="fill:#FFFFFF; fill-rule:nonzero">
   <path  d="M0.0000,0.0000L0.0000,612.0000L792.0000,612.0000L792.0000,0.0000z"/>
  </g>
  <g style="fill:none; stroke:#000000; stroke-width:  0.9180; stroke-linecap:butt; stroke-linejoin:miter; stroke-dasharray:none">
   <ellipse  rx="6.1200" ry="6.1200" cx="120.0384" cy="111.2890"/>
   <ellipse  rx="6.1200" ry="6.1200" cx="132.4425" cy="113.3610"/>
   <ellipse  rx="6.1200" ry="6.1200" cx="120.7605" cy="161.2603"/>
   <ellipse  rx="6.1200" ry="6.1200" cx="111.9731" cy="118.3704"/>
   <ellipse  rx="6.1200" ry="6.1200" cx="120.7463" cy="140.1834"/>
   <ellipse  rx="6.1200" ry="6.1200" cx="118.2665" cy="108.0228"/>
   <ellipse  rx="6.1200" ry="6.1200" cx="111.8055" cy="110.8281"/>
   <ellipse  rx="6.1200" ry="6.1200" cx="113.9182" cy="111.0885"/>
   <ellipse  rx="6.1200" ry="6.1200" cx="138.6090" cy="109.0868"/>
   <ellipse  rx="6.1200" ry="6.1200" cx="116.0113" cy="105.3332"/>
   <ellipse  rx="6.1200" ry="6.1200" cx="125.2202" cy="131.0647"/>
   <ellipse  rx="6.1200" ry="6.1200" cx="112.3957" cy="107.7894"/>
   <ellipse  rx="6.1200" ry="6.1200" cx="115.4266" cy="123.6598"/>
   <ellipse  rx="6.1200" ry="6.1200" cx="110.9997" cy="111.0414"/>
   <ellipse  rx="6.1200" ry="6.1200" cx="115.7703" cy="109.1805"/>
   <ellipse  rx="6.1200" ry="6.1200" cx="645.8110" cy="115.9871"/>
   <ellipse  rx="6.1200" ry="6.1200" cx="119.8665" cy="125.1613"/>
   <ellipse  rx="6.1200" ry="6.1200" cx="113.4249" cy="149.0877"/>
   <ellipse  rx="6.1200" ry="6.1200" cx="113.7497" cy="277.6768"/>
   <ellipse  rx="6.1200" ry="6.1200" cx="119.4125" cy="112.3137"/>
   <ellipse  rx="6.1200" ry="6.1200" cx="153.3829" cy="195.0444"/>
   <ellipse  rx="6.1200" ry="6.1200" cx="131.7747" cy="112.8578"/>
   <ellipse  rx="6.1200" ry="6.1200" cx="109.7476" cy="120.5425"/>
   <ellipse  rx="6.1200" ry="6.1200" cx="417.2968" cy="221.2434"/>
   <ellipse  rx="6.1200" ry="6.1200" cx="111.5426" cy="108.9607"/>
   <ellipse  rx="6.1200" ry="6.1200" cx="112.4932" cy="111.6543"/>
   <ellipse  rx="6.1200" ry="6.1200" cx="196.5284" cy="107.0388"/>
   <ellipse  rx="6.1200" ry="6.1200" cx="113.1897" cy="110.0257"/>
   <ellipse  rx="6.1200" ry="6.1200" cx="228.8179" cy="154.3246"/>
   <ellipse  rx="6.1200" ry="6.1200" cx="119.7662" cy="108.5712"/>
   <ellipse  rx="6.1200" ry="6.1200" cx="122.9849" cy="157.1106"/>
   <ellipse  rx="6.1200" ry="6.1200" cx="112.8959" cy="106.1536"/>
   <ellipse  rx="6.1200" ry="6.1200" cx="132.0110" cy="106.0114"/>
   <ellipse  rx="6.1200" ry="6.1200" cx="111.9550" cy="184.7822"/>
   <ellipse  rx="6.1200" ry="6.1200" cx="109.4828" cy="114.3528"/>
   <ellipse  rx="6.1200" ry="6.1200" cx="521.1951" cy="471.9457"/>
   <ellipse  rx="6.1200" ry="6.1200" cx="118.8022" cy="108.2073"/>
   <ellipse  rx="6.1200" ry="6.1200" cx="153.1941" cy="107.4639"/>
   <ellipse  rx="6.1200" ry="6.1200" cx="125.1193" cy="113.3144"/>
   <ellipse  rx="6.1200" ry="6.1200" cx="133.5213" cy="147.9505"/>
   <ellipse  rx="6.1200" ry="6.1200" cx="111.3569" cy="108.7970"/>
   <ellipse  rx="6.1200" ry="6.1200" cx="111.1301" cy="111.5952"/>
   <ellipse  rx="6.1200" ry="6.1200" cx="125.4830" cy="164.6123"/>
   <ellipse  rx="6.1200" ry="6.1200" cx="111.6946" cy="108.2413"/>
   <ellipse  rx="6.1200" ry="6.1200" cx="168.4751" cy="231.0857"/>
   <ellipse  rx="6.1200" ry="6.1200" cx="162.8295" cy="129.2610"/>
   <ellipse  rx="6.1200" ry="6.1200" cx="114.7038" cy="107.8821"/>
   <ellipse  rx="6.1200" ry="6.1200" cx="255.5928" cy="163.8683"/>
   <ellipse  rx="6.1200" ry="6.1200" cx="123.0006" cy="103.4605"/>
   <ellipse  rx="6.1200" ry="6.1200" cx="114.7562" cy="108.2065"/>
   <ellipse  rx="6.1200" ry="6.1200" cx="397.9963" cy="107.9353"/>
   <ellipse  rx="6.1200" ry="6.1200" cx="147.2543" cy="148.3874"/>
   <ellipse  rx="6.1200" ry="6.1200" cx="219.2362" cy="106.2643"/>
   <ellipse  rx="6.1200" ry="6.1200" cx="115.1075" cy="108.9344"/>
   <ellipse  rx="6.1200" ry="6.1200" cx="127.0655" cy="184.1854"/>
   <ellipse  rx="6.1200" ry="6.1200" cx="115.8793" cy="108.6953"/>
   <ellipse  rx="6.1200" ry="6.1200" cx="132.7508" cy="124.6357"/>
   <ellipse  rx="6.1200" ry="6.1200" cx="111.9462" cy="141.1219"/>
   <ellipse  rx="6.1200" ry="6.1200" cx="113.1756" cy="109.1866"/>
   <ellipse  rx="6.1200" ry="6.1200" cx="116.8542" cy="106.9588"/>
   <ellipse  rx="6.1200" ry="6.1200" cx="131.5056" cy="104.0099"/>
   <ellipse  rx="6.1200" ry="6.1200" cx="114.3220" cy="107.7016"/>
   <ellipse  rx="6.1200" ry="6.1200" cx="114.0193" cy="109.4681"/>
   <ellipse  rx="6.1200" ry="6.1200" cx="117.5408" cy="111.6470"/>
   <ellipse  rx="6.1200" ry="6.1200" cx="112.5181" cy="109.5857"/>
   <ellipse  rx="6.1200" ry="6.1200" cx="116.9051" cy="109.4022"/>
   <ellipse  rx="6.1200" ry="6.1200" cx="118.9929" cy="132.1826"/>
   <ellipse  rx="6.1200" ry="6.1200" cx="127.6142" cy="106.3523"/>
   <ellipse  rx="6.1200" ry="6.1200" cx="123.5936" cy="122.2561"/>
   <ellipse  rx="6.1200" ry="6.1200" cx="118.9741" cy="119.9677"/>
   <ellipse  rx="6.1200" ry="6.1200" cx="112.2728" cy="109.4476"/>
   <ellipse  rx="6.1200" ry="6.1200" cx="175.4274" cy="160.9719"/>
   <ellipse  rx="6.1200" ry="6.1200" cx="117.8452" cy="149.3061"/>
   <ellipse  rx="6.1200" ry="6.1200" cx="111.8052" cy="109.5748"/>
   <ellipse  rx="6.1200" ry="6.1200" cx="114.9903" cy="149.6500"/>
   <ellipse  rx="6.1200" ry="6.1200" cx="123.9035" cy="109.5136"/>
   <ellipse  rx="6.1200" ry="6.1200" cx="155.2001" cy="112.7584"/>
   <ellipse  rx="6.1200" ry="6.1200" cx="121.9616" cy="107.9958"/>
   <ellipse  rx="6.1200" ry="6.1200" cx="117.9023" cy="112.4705"/>
   <ellipse  rx="6.1200" ry="6.1200" cx="110.1620" cy="109.0663"/>
   <ellipse  rx="6.1200" ry="6.1200" cx="112.8124" cy="104.9133"/>
   <ellipse  rx="6.1200" ry="6.1200" cx="112.8482" cy="135.7145"/>
   <ellipse  rx="6.1200" ry="6.1200" cx="112.6788" cy="150.3793"/>
   <ellipse  rx="6.1200" ry="6.1200" cx="125.6337" cy="107.5994"/>
   <ellipse  rx="6.1200" ry="6.1200" cx="116.9358" cy="159.8358"/>
   <ellipse  rx="6.1200" ry="6.1200" cx="118.5128" cy="109.8793"/>
   <ellipse  rx="6.1200" ry="6.1200" cx="171.8239" cy="176.9871"/>
   <ellipse  rx="6.1200" ry="6.1200" cx="121.6490" cy="110.3530"/>
   <ellipse  rx="6.1200" ry="6.1200" cx="435.7576" cy="153.1601"/>
   <ellipse  rx="6.1200" ry="6.1200" cx="119.3839" cy="128.4737"/>
   <ellipse  rx="6.1200" ry="6.1200" cx="115.5660" cy="194.3501"/>
   <ellipse  rx="6.1200" ry="6.1200" cx="118.8769" cy="195.2346"/>
   <ellipse  rx="6.1200" ry="6.1200" cx="164.2304" cy="115.2363"/>
   <ellipse  rx="6.1200" ry="6.1200" cx="113.7837" cy="172.6579"/>
   <ellipse  rx="6.1200" ry="6.1200" cx="113.2284" cy="108.4973"/>
   <ellipse  rx="6.1200" ry="6.1200" cx="110.4902" cy="168.7165"/>
   <ellipse  rx="6.1200" ry="6.1200" cx="110.7973" cy="168.1401"/>
   <ellipse  rx="6.1200" ry="6.1200" cx="118.2995" cy="200.8160"/>
   <ellipse  rx="6.1200" ry="6.1200" cx="299.9375" cy="108.6749"/>
   <ellipse  rx="6.1200" ry="6.1200" cx="164.6093" cy="108.0039"/>
   <ellipse  rx="6.1200" ry="6.1200" cx="117.1651" cy="111.4016"/>
   <ellipse  rx="6.1200" ry="6.1200" cx="165.5992" cy="107.9231"/>
   <ellipse  rx="6.1200" ry="6.1200" cx="127.1906" cy="124.1734"/>
   <ellipse  rx="6.1200" ry="6.1200" cx="119.7406" cy="111.2253"/>
   <ellipse  rx="6.1200" ry="6.1200" cx="115.6166" cy="107.9898"/>
   <ellipse  rx="6.1200" ry="6.1200" cx="162.8306" cy="129.2090"/>
   <ellipse  rx="6.1200" ry="6.1200" cx="108.8806" cy="108.4777"/>
   <ellipse  rx="6.1200" ry="6.1200" cx="114.1529" cy="147.5474"/>
   <path d="M91.8000,91.8000L91.8000,520.2000L703.8000,520.2000L703.8000,91.8000z"/>
  </g>
 </g>
</svg>
