<?xml version="1.0" encoding="ISO-8859-1"?>
<!DOCTYPE svg PUBLIC "-//W3C//DTD SVG 1.0//EN" "http://www.w3.org/TR/2001/REC-SVG-20010904/DTD/svg10.dtd">
<!-- generated by Grace-5.1.25 -->
<svg xml:space="preserve" width="11.0000in" height="8.5000in" viewBox="0.0000 0.0000 792.0000 612.0000">
 <g transform="translate(0,612.0000) scale(1,-1)">
  <g style="fill:#FFFFFF; fill-rule:nonzero">
   <path  d="M0.0000,0.0000L0.0000,612.0000L792.0000,612.0000L792.0000,0.0000z"/>
  </g>
  <g style="fill:none; stroke:#000000; stroke-width:  0.9180; stroke-linecap:butt; stroke-linejoin:miter; stroke-dasharray:none">
   <ellipse  rx="6.1200" ry="6.1200" cx="120.0384" cy="91.8000"/>
   <ellipse  rx="6.1200" ry="6.1200" cx="132.4425" cy="94.4906"/>
   <ellipse  rx="6.1200" ry="6.1200" cx="120.7605" cy="146.2664"/>
   <ellipse  rx="6.1200" ry="6.1200" cx="111.9731" cy="100.7417"/>
   <ellipse  rx="6.1200" ry="6.1200" cx="120.7463" cy="126.8238"/>
   <ellipse  rx="6.1200" ry="6.1200" cx="118.2665" cy="91.8000"/>
   <ellipse  rx="6.1200" ry="6.1200" cx="111.8055" cy="92.9807"/>
   <ellipse  rx="6.1200" ry="6.1200" cx="113.9182" cy="93.7553"/>
   <ellipse  rx="6.1200" ry="6.1200" cx="138.6090" cy="91.8000"/>
   <ellipse  rx="6.1200" ry="6.1200" cx="116.0113" cy="91.8000"/>
   <ellipse  rx="6.1200" ry="6.1200" cx="125.2202" cy="114.5576"/>
   <ellipse  rx="6.1200" ry="6.1200" cx="112.3957" cy="91.8000"/>
   <ellipse  rx="6.1200" ry="6.1200" cx="115.4266" cy="110.4303"/>
   <ellipse  rx="6.1200" ry="6.1200" cx="110.9997" cy="96.6141"/>
   <ellipse  rx="6.1200" ry="6.1200" cx="115.7703" cy="91.8000"/>
   <ellipse  rx="6.1200" ry="6.1200" cx="645.8110" cy="103.5944"/>
   <ellipse  rx="6.1200" ry="6.1200" cx="119.8665" cy="111.5881"/>
   <ellipse  rx="6.1200" ry="6.1200" cx="113.4249" cy="132.5259"/>
   <ellipse  rx="6.1200" ry="6.1200" cx="113.7497" cy="263.0516"/>
   <ellipse  rx="6.1200" ry="6.1200" cx="119.4125" cy="92.6035"/>
   <ellipse  rx="6.1200" ry="6.1200" cx="153.3829" cy="181.8532"/>
   <ellipse  rx="6.1200" ry="6.1200" cx="131.7747" cy="96.7331"/>
   <ellipse  rx="6.1200" ry="6.1200" cx="109.7476" cy="101.3212"/>
   <ellipse  rx="6.1200" ry="6.1200" cx="417.2968" cy="209.0568"/>
   <ellipse  rx="6.1200" ry="6.1200" cx="111.5426" cy="92.0441"/>
   <ellipse  rx="6.1200" ry="6.1200" cx="112.4932" cy="94.8217"/>
   <ellipse  rx="6.1200" ry="6.1200" cx="196.5284" cy="91.8000"/>
   <ellipse  rx="6.1200" ry="6.1200" cx="113.1897" cy="93.0896"/>
   <ellipse  rx="6.1200" ry="6.1200" cx="228.8179" cy="140.3870"/>
   <ellipse  rx="6.1200" ry="6.1200" cx="119.7662" cy="91.8141"/>
   <ellipse  rx="6.1200" ry="6.1200" cx="122.9849" cy="143.9891"/>
   <ellipse  rx="6.1200" ry="6.1200" cx="112.8959" cy="91.8783"/>
   <ellipse  rx="6.1200" ry="6.1200" cx="132.0110" cy="91.8000"/>
   <ellipse  rx="6.1200" ry="6.1200" cx="111.9550" cy="170.3806"/>
   <ellipse  rx="6.1200" ry="6.1200" cx="109.4828" cy="97.7990"/>
   <ellipse  rx="6.1200" ry="6.1200" cx="521.1951" cy="471.2962"/>
   <ellipse  rx="6.1200" ry="6.1200" cx="118.8022" cy="91.8000"/>
   <ellipse  rx="6.1200" ry="6.1200" cx="153.1941" cy="91.8000"/>
   <ellipse  rx="6.1200" ry="6.1200" cx="125.1193" cy="95.3086"/>
   <ellipse  rx="6.1200" ry="6.1200" cx="133.5213" cy="135.0209"/>
   <ellipse  rx="6.1200" ry="6.1200" cx="111.3569" cy="91.8000"/>
   <ellipse  rx="6.1200" ry="6.1200" cx="111.1301" cy="96.4738"/>
   <ellipse  rx="6.1200" ry="6.1200" cx="125.4830" cy="150.0229"/>
   <ellipse  rx="6.1200" ry="6.1200" cx="111.6946" cy="91.8000"/>
   <ellipse  rx="6.1200" ry="6.1200" cx="168.4751" cy="217.2399"/>
   <ellipse  rx="6.1200" ry="6.1200" cx="162.8295" cy="110.6379"/>
   <ellipse  rx="6.1200" ry="6.1200" cx="114.7038" cy="91.8744"/>
   <ellipse  rx="6.1200" ry="6.1200" cx="255.5928" cy="149.2856"/>
   <ellipse  rx="6.1200" ry="6.1200" cx="123.0006" cy="91.8000"/>
   <ellipse  rx="6.1200" ry="6.1200" cx="114.7562" cy="91.8000"/>
   <ellipse  rx="6.1200" ry="6.1200" cx="397.9963" cy="91.8000"/>
   <ellipse  rx="6.1200" ry="6.1200" cx="147.2543" cy="134.5937"/>
   <ellipse  rx="6.1200" ry="6.1200" cx="219.2362" cy="91.9306"/>
   <ellipse  rx="6.1200" ry="6.1200" cx="115.1075" cy="92.0126"/>
   <ellipse  rx="6.1200" ry="6.1200" cx="127.0655" cy="171.2280"/>
   <ellipse  rx="6.1200" ry="6.1200" cx="115.8793" cy="91.8000"/>
   <ellipse  rx="6.1200" ry="6.1200" cx="132.7508" cy="106.4875"/>
   <ellipse  rx="6.1200" ry="6.1200" cx="111.9462" cy="125.9016"/>
   <ellipse  rx="6.1200" ry="6.1200" cx="113.1756" cy="91.9320"/>
   <ellipse  rx="6.1200" ry="6.1200" cx="116.8542" cy="92.4505"/>
   <ellipse  rx="6.1200" ry="6.1200" cx="131.5056" cy="91.8038"/>
   <ellipse  rx="6.1200" ry="6.1200" cx="114.3220" cy="91.8000"/>
   <ellipse  rx="6.1200" ry="6.1200" cx="114.0193" cy="92.8218"/>
   <ellipse  rx="6.1200" ry="6.1200" cx="117.5408" cy="93.3934"/>
   <ellipse  rx="6.1200" ry="6.1200" cx="112.5181" cy="93.8180"/>
   <ellipse  rx="6.1200" ry="6.1200" cx="116.9051" cy="91.8000"/>
   <ellipse  rx="6.1200" ry="6.1200" cx="118.9929" cy="117.2800"/>
   <ellipse  rx="6.1200" ry="6.1200" cx="127.6142" cy="91.8038"/>
   <ellipse  rx="6.1200" ry="6.1200" cx="123.5936" cy="105.9969"/>
   <ellipse  rx="6.1200" ry="6.1200" cx="118.9741" cy="105.2225"/>
   <ellipse  rx="6.1200" ry="6.1200" cx="112.2728" cy="91.8674"/>
   <ellipse  rx="6.1200" ry="6.1200" cx="175.4274" cy="148.2959"/>
   <ellipse  rx="6.1200" ry="6.1200" cx="117.8452" cy="134.0729"/>
   <ellipse  rx="6.1200" ry="6.1200" cx="111.8052" cy="93.0018"/>
   <ellipse  rx="6.1200" ry="6.1200" cx="114.9903" cy="134.7454"/>
   <ellipse  rx="6.1200" ry="6.1200" cx="123.9035" cy="92.0335"/>
   <ellipse  rx="6.1200" ry="6.1200" cx="155.2001" cy="95.4400"/>
   <ellipse  rx="6.1200" ry="6.1200" cx="121.9616" cy="91.8054"/>
   <ellipse  rx="6.1200" ry="6.1200" cx="117.9023" cy="92.6896"/>
   <ellipse  rx="6.1200" ry="6.1200" cx="110.1620" cy="91.8000"/>
   <ellipse  rx="6.1200" ry="6.1200" cx="112.8124" cy="91.8000"/>
   <ellipse  rx="6.1200" ry="6.1200" cx="112.8482" cy="117.3628"/>
   <ellipse  rx="6.1200" ry="6.1200" cx="112.6788" cy="135.1762"/>
   <ellipse  rx="6.1200" ry="6.1200" cx="125.6337" cy="91.8000"/>
   <ellipse  rx="6.1200" ry="6.1200" cx="116.9358" cy="144.8107"/>
   <ellipse  rx="6.1200" ry="6.1200" cx="118.5128" cy="92.4778"/>
   <ellipse  rx="6.1200" ry="6.1200" cx="171.8239" cy="166.6170"/>
   <ellipse  rx="6.1200" ry="6.1200" cx="121.6490" cy="94.1042"/>
   <ellipse  rx="6.1200" ry="6.1200" cx="435.7576" cy="140.3756"/>
   <ellipse  rx="6.1200" ry="6.1200" cx="119.3839" cy="112.6922"/>
   <ellipse  rx="6.1200" ry="6.1200" cx="115.5660" cy="178.7339"/>
   <ellipse  rx="6.1200" ry="6.1200" cx="118.8769" cy="186.2359"/>
   <ellipse  rx="6.1200" ry="6.1200" cx="164.2304" cy="99.8774"/>
   <ellipse  rx="6.1200" ry="6.1200" cx="113.7837" cy="158.0337"/>
   <ellipse  rx="6.1200" ry="6.1200" cx="113.2284" cy="92.3268"/>
   <ellipse  rx="6.1200" ry="6.1200" cx="110.4902" cy="153.5490"/>
   <ellipse  rx="6.1200" ry="6.1200" cx="110.7973" cy="152.2065"/>
   <ellipse  rx="6.1200" ry="6.1200" cx="118.2995" cy="186.8379"/>
   <ellipse  rx="6.1200" ry="6.1200" cx="299.9375" cy="92.2457"/>
   <ellipse  rx="6.1200" ry="6.1200" cx="164.6093" cy="91.8000"/>
   <ellipse  rx="6.1200" ry="6.1200" cx="117.1651" cy="92.7069"/>
   <ellipse  rx="6.1200" ry="6.1200" cx="165.5992" cy="91.8000"/>
   <ellipse  rx="6.1200" ry="6.1200" cx="127.1906" cy="107.4965"/>
   <ellipse  rx="6.1200" ry="6.1200" cx="119.7406" cy="93.5140"/>
   <ellipse  rx="6.1200" ry="6.1200" cx="115.6166" cy="92.1242"/>
   <ellipse  rx="6.1200" ry="6.1200" cx="162.8306" cy="110.6379"/>
   <ellipse  rx="6.1200" ry="6.1200" cx="108.8806" cy="91.8000"/>
   <ellipse  rx="6.1200" ry="6.1200" cx="114.1529" cy="132.0156"/>
   <path d="M91.8000,91.8000L91.8000,520.2000"/>
   <path d="M703.8000,91.8000L703.8000,520.2000"/>
   <path d="M91.8000,122.4000L97.9200,122.4000"/>
   <path d="M703.8000,122.4000L697.6800,122.4000"/>
   <path d="M91.8000,183.6000L97.9200,183.6000"/>
   <path d="M703.8000,183.6000L697.6800,183.6000"/>
   <path d="M91.8000,244.8000L97.9200,244.8000"/>
   <path d="M703.8000,244.8000L697.6800,244.8000"/>
   <path d="M91.8000,306.0000L97.9200,306.0000"/>
   <path d="M703.8000,306.0000L697.6800,306.0000"/>
   <path d="M91.8000,367.2000L97.9200,367.2000"/>
   <path d="M703.8000,367.2000L697.6800,367.2000"/>
   <path d="M91.8000,428.4000L97.9200,428.4000"/>
   <path d="M703.8000,428.4000L697.6800,428.4000"/>
   <path d="M91.8000,489.6000L97.9200,489.6000"/>
   <path d="M703.8000,489.6000L697.6800,489.6000"/>
   <path d="M91.8000,91.8000L104.0400,91.8000"/>
   <path d="M703.8000,91.8000L691.5600,91.8000"/>
   <path d="M91.8000,153.0000L104.0400,153.0000"/>
   <path d="M703.8000,153.0000L691.5600,153.0000"/>
   <path d="M91.8000,214.2000L104.0400,214.2000"/>
   <path d="M703.8000,214.2000L691.5600,214.2000"/>
   <path d="M91.8000,275.4000L104.0400,275.4000"/>
   <path d="M703.8000,275.4000L691.5600,275.4000"/>
   <path d="M91.8000,336.6000L104.0400,336.6000"/>
   <path d="M703.8000,336.6000L691.5600,336.6000"/>
   <path d="M91.8000,397.8000L104.0400,397.8000"/>
   <path d="M703.8000,397.8000L691.5600,397.8000"/>
   <path d="M91.8000,459.0000L104.0400,459.0000"/>
   <path d="M703.8000,459.0000L691.5600,459.0000"/>
   <path d="M91.8000,520.2000L104.0400,520.2000"/>
   <path d="M703.8000,520.2000L691.5600,520.2000"/>
  </g>
  <g style="fill:#000000; fill-rule:nonzero">
   <text   style="font-family:'Times','Nimbus Roman'; font-style:normal; font-weight:normal; font-size:612.0000" transform="matrix(0.0280,0.0000,-0.0000,-0.0280,77.6800,86.3000)">0</text>
   <text   style="font-family:'Times','Nimbus Roman'; font-style:normal; font-weight:normal; font-size:612.0000" transform="matrix(0.0280,0.0000,-0.0000,-0.0280,57.6800,147.0000)">0.01</text>
   <text   style="font-family:'Times','Nimbus Roman'; font-style:normal; font-weight:normal; font-size:612.0000" transform="matrix(0.0280,0.0000,-0.0000,-0.0280,56.6800,208.7000)">0.02</text>
   <text   style="font-family:'Times','Nimbus Roman'; font-style:normal; font-weight:normal; font-size:612.0000" transform="matrix(0.0280,0.0000,-0.0000,-0.0280,57.6800,269.9000)">0.03</text>
   <text   style="font-family:'Times','Nimbus Roman'; font-style:normal; font-weight:normal; font-size:612.0000" transform="matrix(0.0280,0.0000,-0.0000,-0.0280,56.6800,331.1000)">0.04</text>
   <text   style="font-family:'Times','Nimbus Roman'; font-style:normal; font-weight:normal; font-size:612.0000" transform="matrix(0.0280,0.0000,-0.0000,-0.0280,56.6800,391.8000)">0.05</text>
   <text   style="font-family:'Times','Nimbus Roman'; font-style:normal; font-weight:normal; font-size:612.0000" transform="matrix(0.0280,0.0000,-0.0000,-0.0280,56.6800,453.0000)">0.06</text>
   <text   style="font-family:'Times','Nimbus Roman'; font-style:normal; font-weight:normal; font-size:612.0000" transform="matrix(0.0280,0.0000,-0.0000,-0.0280,56.6800,514.7000)">0.07</text>
  </g>
  <g style="fill:none; stroke:#000000; stroke-width:  0.9180; stroke-linecap:butt; stroke-linejoin:miter; stroke-dasharray:none">
   <path d="M91.8000,91.8000L91.8000,520.2000L703.8000,520.2000L703.8000,91.8000z"/>
  </g>
 </g>
</svg>
