<?xml version="1.0" encoding="ISO-8859-1"?>
<!DOCTYPE svg PUBLIC "-//W3C//DTD SVG 1.0//EN" "http://www.w3.org/TR/2001/REC-SVG-20010904/DTD/svg10.dtd">
<!-- generated by Grace-5.1.25 -->
<svg xml:space="preserve" width="11.0000in" height="8.5000in" viewBox="0.0000 0.0000 792.0000 612.0000">
 <g transform="translate(0,612.0000) scale(1,-1)">
  <g style="fill:#FFFFFF; fill-rule:nonzero">
   <path  d="M0.0000,0.0000L0.0000,612.0000L792.0000,612.0000L792.0000,0.0000z"/>
  </g>
  <g style="fill:none; stroke:#000000; stroke-width:  0.9180; stroke-linecap:butt; stroke-linejoin:miter; stroke-dasharray:none">
   <ellipse  rx="6.1200" ry="6.1200" cx="132.1539" cy="108.0947"/>
   <ellipse  rx="6.1200" ry="6.1200" cx="121.5157" cy="97.3039"/>
   <ellipse  rx="6.1200" ry="6.1200" cx="140.6340" cy="188.2823"/>
   <ellipse  rx="6.1200" ry="6.1200" cx="240.4602" cy="97.7302"/>
   <ellipse  rx="6.1200" ry="6.1200" cx="106.2102" cy="111.5163"/>
   <ellipse  rx="6.1200" ry="6.1200" cx="135.2322" cy="93.3702"/>
   <ellipse  rx="6.1200" ry="6.1200" cx="107.9274" cy="93.0806"/>
   <ellipse  rx="6.1200" ry="6.1200" cx="98.8115" cy="95.5917"/>
   <ellipse  rx="6.1200" ry="6.1200" cx="222.7070" cy="98.8769"/>
   <ellipse  rx="6.1200" ry="6.1200" cx="102.7191" cy="93.6025"/>
   <ellipse  rx="6.1200" ry="6.1200" cx="125.8203" cy="94.5447"/>
   <ellipse  rx="6.1200" ry="6.1200" cx="112.3617" cy="94.0063"/>
   <ellipse  rx="6.1200" ry="6.1200" cx="125.2570" cy="106.2743"/>
   <ellipse  rx="6.1200" ry="6.1200" cx="138.1990" cy="93.5141"/>
   <ellipse  rx="6.1200" ry="6.1200" cx="395.6535" cy="239.6505"/>
   <ellipse  rx="6.1200" ry="6.1200" cx="97.9261" cy="95.1583"/>
   <ellipse  rx="6.1200" ry="6.1200" cx="257.8659" cy="97.9443"/>
   <ellipse  rx="6.1200" ry="6.1200" cx="111.5729" cy="170.2333"/>
   <ellipse  rx="6.1200" ry="6.1200" cx="109.9657" cy="114.1494"/>
   <ellipse  rx="6.1200" ry="6.1200" cx="135.6619" cy="94.1986"/>
   <ellipse  rx="6.1200" ry="6.1200" cx="199.4499" cy="213.9803"/>
   <ellipse  rx="6.1200" ry="6.1200" cx="136.8650" cy="93.7145"/>
   <ellipse  rx="6.1200" ry="6.1200" cx="309.9787" cy="94.0624"/>
   <ellipse  rx="6.1200" ry="6.1200" cx="104.1881" cy="93.1267"/>
   <ellipse  rx="6.1200" ry="6.1200" cx="186.5734" cy="149.3627"/>
   <ellipse  rx="6.1200" ry="6.1200" cx="153.0594" cy="122.4059"/>
   <ellipse  rx="6.1200" ry="6.1200" cx="103.5892" cy="99.3877"/>
   <ellipse  rx="6.1200" ry="6.1200" cx="596.7085" cy="231.3388"/>
   <ellipse  rx="6.1200" ry="6.1200" cx="107.3090" cy="95.3961"/>
   <ellipse  rx="6.1200" ry="6.1200" cx="102.6984" cy="135.9979"/>
   <ellipse  rx="6.1200" ry="6.1200" cx="102.4103" cy="437.7005"/>
   <ellipse  rx="6.1200" ry="6.1200" cx="107.7632" cy="97.0651"/>
   <ellipse  rx="6.1200" ry="6.1200" cx="106.1778" cy="140.7384"/>
   <ellipse  rx="6.1200" ry="6.1200" cx="97.5634" cy="95.4633"/>
   <ellipse  rx="6.1200" ry="6.1200" cx="139.1622" cy="93.4521"/>
   <ellipse  rx="6.1200" ry="6.1200" cx="109.6325" cy="176.8170"/>
   <ellipse  rx="6.1200" ry="6.1200" cx="126.7979" cy="94.7034"/>
   <ellipse  rx="6.1200" ry="6.1200" cx="117.8813" cy="95.0573"/>
   <ellipse  rx="6.1200" ry="6.1200" cx="171.3962" cy="146.4123"/>
   <ellipse  rx="6.1200" ry="6.1200" cx="101.1322" cy="94.6624"/>
   <ellipse  rx="6.1200" ry="6.1200" cx="98.8065" cy="100.1738"/>
   <ellipse  rx="6.1200" ry="6.1200" cx="103.3545" cy="93.0822"/>
   <path d="M91.8000,91.8000L91.8000,520.2000L703.8000,520.2000L703.8000,91.8000z"/>
  </g>
 </g>
</svg>
