<?xml version="1.0" encoding="ISO-8859-1"?>
<!DOCTYPE svg PUBLIC "-//W3C//DTD SVG 1.0//EN" "http://www.w3.org/TR/2001/REC-SVG-20010904/DTD/svg10.dtd">
<!-- generated by Grace-5.1.25 -->
<svg xml:space="preserve" width="11.0000in" height="8.5000in" viewBox="0.0000 0.0000 792.0000 612.0000">
 <g transform="translate(0,612.0000) scale(1,-1)">
  <g style="fill:#FFFFFF; fill-rule:nonzero">
   <path  d="M0.0000,0.0000L0.0000,612.0000L792.0000,612.0000L792.0000,0.0000z"/>
  </g>
  <g style="fill:none; stroke:#000000; stroke-width:  0.9180; stroke-linecap:butt; stroke-linejoin:miter; stroke-dasharray:none">
   <ellipse  rx="6.1200" ry="6.1200" cx="132.1539" cy="111.2890"/>
   <ellipse  rx="6.1200" ry="6.1200" cx="121.5157" cy="113.3610"/>
   <ellipse  rx="6.1200" ry="6.1200" cx="108.9309" cy="161.2603"/>
   <ellipse  rx="6.1200" ry="6.1200" cx="140.6340" cy="118.3704"/>
   <ellipse  rx="6.1200" ry="6.1200" cx="97.4779" cy="140.1834"/>
   <ellipse  rx="6.1200" ry="6.1200" cx="114.9068" cy="108.0228"/>
   <ellipse  rx="6.1200" ry="6.1200" cx="240.4602" cy="109.0868"/>
   <ellipse  rx="6.1200" ry="6.1200" cx="387.2231" cy="105.3332"/>
   <ellipse  rx="6.1200" ry="6.1200" cx="106.2102" cy="131.0647"/>
   <ellipse  rx="6.1200" ry="6.1200" cx="141.8815" cy="107.7894"/>
   <ellipse  rx="6.1200" ry="6.1200" cx="135.2322" cy="115.9871"/>
   <ellipse  rx="6.1200" ry="6.1200" cx="107.9274" cy="202.9656"/>
   <ellipse  rx="6.1200" ry="6.1200" cx="258.1648" cy="149.0877"/>
   <ellipse  rx="6.1200" ry="6.1200" cx="98.8115" cy="195.0444"/>
   <ellipse  rx="6.1200" ry="6.1200" cx="222.7070" cy="112.8578"/>
   <ellipse  rx="6.1200" ry="6.1200" cx="100.1705" cy="120.5425"/>
   <ellipse  rx="6.1200" ry="6.1200" cx="102.7191" cy="221.2434"/>
   <ellipse  rx="6.1200" ry="6.1200" cx="102.0028" cy="108.9607"/>
   <ellipse  rx="6.1200" ry="6.1200" cx="689.0074" cy="111.6543"/>
   <ellipse  rx="6.1200" ry="6.1200" cx="125.8203" cy="107.0388"/>
   <ellipse  rx="6.1200" ry="6.1200" cx="112.3617" cy="154.3246"/>
   <ellipse  rx="6.1200" ry="6.1200" cx="125.2570" cy="157.1106"/>
   <ellipse  rx="6.1200" ry="6.1200" cx="126.0852" cy="106.1536"/>
   <ellipse  rx="6.1200" ry="6.1200" cx="489.1810" cy="184.7822"/>
   <ellipse  rx="6.1200" ry="6.1200" cx="106.1601" cy="114.3528"/>
   <ellipse  rx="6.1200" ry="6.1200" cx="138.1990" cy="471.9457"/>
   <ellipse  rx="6.1200" ry="6.1200" cx="395.6535" cy="108.2073"/>
   <ellipse  rx="6.1200" ry="6.1200" cx="97.9261" cy="107.4639"/>
   <ellipse  rx="6.1200" ry="6.1200" cx="257.8659" cy="113.3144"/>
   <ellipse  rx="6.1200" ry="6.1200" cx="107.0767" cy="108.7970"/>
   <ellipse  rx="6.1200" ry="6.1200" cx="111.5729" cy="111.5952"/>
   <ellipse  rx="6.1200" ry="6.1200" cx="350.2332" cy="164.6123"/>
   <ellipse  rx="6.1200" ry="6.1200" cx="109.9657" cy="107.8821"/>
   <ellipse  rx="6.1200" ry="6.1200" cx="135.6619" cy="163.8683"/>
   <ellipse  rx="6.1200" ry="6.1200" cx="199.4499" cy="103.4605"/>
   <ellipse  rx="6.1200" ry="6.1200" cx="122.1544" cy="108.2065"/>
   <ellipse  rx="6.1200" ry="6.1200" cx="136.8650" cy="107.9353"/>
   <ellipse  rx="6.1200" ry="6.1200" cx="309.9787" cy="106.2643"/>
   <ellipse  rx="6.1200" ry="6.1200" cx="98.7993" cy="141.1219"/>
   <ellipse  rx="6.1200" ry="6.1200" cx="109.9666" cy="109.1866"/>
   <ellipse  rx="6.1200" ry="6.1200" cx="104.1881" cy="224.6085"/>
   <ellipse  rx="6.1200" ry="6.1200" cx="303.6708" cy="109.4681"/>
   <ellipse  rx="6.1200" ry="6.1200" cx="186.5734" cy="111.6470"/>
   <ellipse  rx="6.1200" ry="6.1200" cx="103.8866" cy="109.5857"/>
   <ellipse  rx="6.1200" ry="6.1200" cx="153.0594" cy="109.4022"/>
   <ellipse  rx="6.1200" ry="6.1200" cx="112.4720" cy="132.1826"/>
   <ellipse  rx="6.1200" ry="6.1200" cx="103.5892" cy="106.3523"/>
   <ellipse  rx="6.1200" ry="6.1200" cx="596.7085" cy="122.2561"/>
   <ellipse  rx="6.1200" ry="6.1200" cx="101.4873" cy="119.9677"/>
   <ellipse  rx="6.1200" ry="6.1200" cx="103.0560" cy="109.4476"/>
   <ellipse  rx="6.1200" ry="6.1200" cx="107.3090" cy="160.9719"/>
   <ellipse  rx="6.1200" ry="6.1200" cx="493.6368" cy="149.3061"/>
   <ellipse  rx="6.1200" ry="6.1200" cx="102.6984" cy="109.5748"/>
   <ellipse  rx="6.1200" ry="6.1200" cx="102.6782" cy="149.6500"/>
   <ellipse  rx="6.1200" ry="6.1200" cx="102.4103" cy="109.5136"/>
   <ellipse  rx="6.1200" ry="6.1200" cx="107.7632" cy="112.7584"/>
   <ellipse  rx="6.1200" ry="6.1200" cx="106.1778" cy="107.9958"/>
   <ellipse  rx="6.1200" ry="6.1200" cx="514.1240" cy="109.0663"/>
   <ellipse  rx="6.1200" ry="6.1200" cx="106.8763" cy="104.9133"/>
   <ellipse  rx="6.1200" ry="6.1200" cx="108.3310" cy="150.3793"/>
   <ellipse  rx="6.1200" ry="6.1200" cx="108.3889" cy="107.5994"/>
   <ellipse  rx="6.1200" ry="6.1200" cx="102.4629" cy="159.8358"/>
   <ellipse  rx="6.1200" ry="6.1200" cx="97.5634" cy="176.9871"/>
   <ellipse  rx="6.1200" ry="6.1200" cx="107.3744" cy="110.3530"/>
   <ellipse  rx="6.1200" ry="6.1200" cx="139.1622" cy="153.1601"/>
   <ellipse  rx="6.1200" ry="6.1200" cx="109.6325" cy="128.4737"/>
   <ellipse  rx="6.1200" ry="6.1200" cx="126.7979" cy="115.2363"/>
   <ellipse  rx="6.1200" ry="6.1200" cx="102.8436" cy="172.6579"/>
   <ellipse  rx="6.1200" ry="6.1200" cx="141.3065" cy="108.4973"/>
   <ellipse  rx="6.1200" ry="6.1200" cx="116.6831" cy="200.8160"/>
   <ellipse  rx="6.1200" ry="6.1200" cx="117.8813" cy="108.0039"/>
   <ellipse  rx="6.1200" ry="6.1200" cx="171.3962" cy="111.4016"/>
   <ellipse  rx="6.1200" ry="6.1200" cx="101.1322" cy="107.9231"/>
   <ellipse  rx="6.1200" ry="6.1200" cx="98.8065" cy="124.1734"/>
   <ellipse  rx="6.1200" ry="6.1200" cx="103.3545" cy="355.2557"/>
   <ellipse  rx="6.1200" ry="6.1200" cx="138.6645" cy="108.4777"/>
   <path d="M91.8000,91.8000L91.8000,520.2000L703.8000,520.2000L703.8000,91.8000z"/>
  </g>
 </g>
</svg>
