<?xml version="1.0" encoding="ISO-8859-1"?>
<!DOCTYPE svg PUBLIC "-//W3C//DTD SVG 1.0//EN" "http://www.w3.org/TR/2001/REC-SVG-20010904/DTD/svg10.dtd">
<!-- generated by Grace-5.1.25 -->
<svg xml:space="preserve" width="11.0000in" height="8.5000in" viewBox="0.0000 0.0000 792.0000 612.0000">
 <g transform="translate(0,612.0000) scale(1,-1)">
  <g style="fill:#FFFFFF; fill-rule:nonzero">
   <path  d="M0.0000,0.0000L0.0000,612.0000L792.0000,612.0000L792.0000,0.0000z"/>
  </g>
  <g style="fill:none; stroke:#000000; stroke-width:  0.9180; stroke-linecap:butt; stroke-linejoin:miter; stroke-dasharray:none">
   <ellipse  rx="6.1200" ry="6.1200" cx="132.1539" cy="91.8000"/>
   <ellipse  rx="6.1200" ry="6.1200" cx="121.5157" cy="94.4906"/>
   <ellipse  rx="6.1200" ry="6.1200" cx="108.9309" cy="146.2664"/>
   <ellipse  rx="6.1200" ry="6.1200" cx="140.6340" cy="100.7417"/>
   <ellipse  rx="6.1200" ry="6.1200" cx="97.4779" cy="126.8238"/>
   <ellipse  rx="6.1200" ry="6.1200" cx="114.9068" cy="91.8000"/>
   <ellipse  rx="6.1200" ry="6.1200" cx="240.4602" cy="91.8000"/>
   <ellipse  rx="6.1200" ry="6.1200" cx="387.2231" cy="91.8000"/>
   <ellipse  rx="6.1200" ry="6.1200" cx="106.2102" cy="114.5576"/>
   <ellipse  rx="6.1200" ry="6.1200" cx="141.8815" cy="91.8000"/>
   <ellipse  rx="6.1200" ry="6.1200" cx="135.2322" cy="103.5944"/>
   <ellipse  rx="6.1200" ry="6.1200" cx="107.9274" cy="191.4129"/>
   <ellipse  rx="6.1200" ry="6.1200" cx="258.1648" cy="132.5259"/>
   <ellipse  rx="6.1200" ry="6.1200" cx="98.8115" cy="181.8532"/>
   <ellipse  rx="6.1200" ry="6.1200" cx="222.7070" cy="96.7331"/>
   <ellipse  rx="6.1200" ry="6.1200" cx="100.1705" cy="101.3212"/>
   <ellipse  rx="6.1200" ry="6.1200" cx="102.7191" cy="209.0568"/>
   <ellipse  rx="6.1200" ry="6.1200" cx="102.0028" cy="92.0441"/>
   <ellipse  rx="6.1200" ry="6.1200" cx="689.0074" cy="94.8217"/>
   <ellipse  rx="6.1200" ry="6.1200" cx="125.8203" cy="91.8000"/>
   <ellipse  rx="6.1200" ry="6.1200" cx="112.3617" cy="140.3870"/>
   <ellipse  rx="6.1200" ry="6.1200" cx="125.2570" cy="143.9891"/>
   <ellipse  rx="6.1200" ry="6.1200" cx="126.0852" cy="91.8783"/>
   <ellipse  rx="6.1200" ry="6.1200" cx="489.1810" cy="170.3806"/>
   <ellipse  rx="6.1200" ry="6.1200" cx="106.1601" cy="97.7990"/>
   <ellipse  rx="6.1200" ry="6.1200" cx="138.1990" cy="471.2962"/>
   <ellipse  rx="6.1200" ry="6.1200" cx="395.6535" cy="91.8000"/>
   <ellipse  rx="6.1200" ry="6.1200" cx="97.9261" cy="91.8000"/>
   <ellipse  rx="6.1200" ry="6.1200" cx="257.8659" cy="95.3086"/>
   <ellipse  rx="6.1200" ry="6.1200" cx="107.0767" cy="91.8000"/>
   <ellipse  rx="6.1200" ry="6.1200" cx="111.5729" cy="96.4738"/>
   <ellipse  rx="6.1200" ry="6.1200" cx="350.2332" cy="150.0229"/>
   <ellipse  rx="6.1200" ry="6.1200" cx="109.9657" cy="91.8744"/>
   <ellipse  rx="6.1200" ry="6.1200" cx="135.6619" cy="149.2856"/>
   <ellipse  rx="6.1200" ry="6.1200" cx="199.4499" cy="91.8000"/>
   <ellipse  rx="6.1200" ry="6.1200" cx="122.1544" cy="91.8000"/>
   <ellipse  rx="6.1200" ry="6.1200" cx="136.8650" cy="91.8000"/>
   <ellipse  rx="6.1200" ry="6.1200" cx="309.9787" cy="91.9306"/>
   <ellipse  rx="6.1200" ry="6.1200" cx="98.7993" cy="125.9016"/>
   <ellipse  rx="6.1200" ry="6.1200" cx="109.9666" cy="91.9320"/>
   <ellipse  rx="6.1200" ry="6.1200" cx="104.1881" cy="215.5044"/>
   <ellipse  rx="6.1200" ry="6.1200" cx="303.6708" cy="92.8218"/>
   <ellipse  rx="6.1200" ry="6.1200" cx="186.5734" cy="93.3934"/>
   <ellipse  rx="6.1200" ry="6.1200" cx="103.8866" cy="93.8180"/>
   <ellipse  rx="6.1200" ry="6.1200" cx="153.0594" cy="91.8000"/>
   <ellipse  rx="6.1200" ry="6.1200" cx="112.4720" cy="117.2800"/>
   <ellipse  rx="6.1200" ry="6.1200" cx="103.5892" cy="91.8038"/>
   <ellipse  rx="6.1200" ry="6.1200" cx="596.7085" cy="105.9969"/>
   <ellipse  rx="6.1200" ry="6.1200" cx="101.4873" cy="105.2225"/>
   <ellipse  rx="6.1200" ry="6.1200" cx="103.0560" cy="91.8674"/>
   <ellipse  rx="6.1200" ry="6.1200" cx="107.3090" cy="148.2959"/>
   <ellipse  rx="6.1200" ry="6.1200" cx="493.6368" cy="134.0729"/>
   <ellipse  rx="6.1200" ry="6.1200" cx="102.6984" cy="93.0018"/>
   <ellipse  rx="6.1200" ry="6.1200" cx="102.6782" cy="134.7454"/>
   <ellipse  rx="6.1200" ry="6.1200" cx="102.4103" cy="92.0335"/>
   <ellipse  rx="6.1200" ry="6.1200" cx="107.7632" cy="95.4400"/>
   <ellipse  rx="6.1200" ry="6.1200" cx="106.1778" cy="91.8054"/>
   <ellipse  rx="6.1200" ry="6.1200" cx="514.1240" cy="91.8000"/>
   <ellipse  rx="6.1200" ry="6.1200" cx="106.8763" cy="91.8000"/>
   <ellipse  rx="6.1200" ry="6.1200" cx="108.3310" cy="135.1762"/>
   <ellipse  rx="6.1200" ry="6.1200" cx="108.3889" cy="91.8000"/>
   <ellipse  rx="6.1200" ry="6.1200" cx="102.4629" cy="144.8107"/>
   <ellipse  rx="6.1200" ry="6.1200" cx="97.5634" cy="166.6170"/>
   <ellipse  rx="6.1200" ry="6.1200" cx="107.3744" cy="94.1042"/>
   <ellipse  rx="6.1200" ry="6.1200" cx="139.1622" cy="140.3756"/>
   <ellipse  rx="6.1200" ry="6.1200" cx="109.6325" cy="112.6922"/>
   <ellipse  rx="6.1200" ry="6.1200" cx="126.7979" cy="99.8774"/>
   <ellipse  rx="6.1200" ry="6.1200" cx="102.8436" cy="158.0337"/>
   <ellipse  rx="6.1200" ry="6.1200" cx="141.3065" cy="92.3268"/>
   <ellipse  rx="6.1200" ry="6.1200" cx="116.6831" cy="186.8379"/>
   <ellipse  rx="6.1200" ry="6.1200" cx="117.8813" cy="91.8000"/>
   <ellipse  rx="6.1200" ry="6.1200" cx="171.3962" cy="92.7069"/>
   <ellipse  rx="6.1200" ry="6.1200" cx="101.1322" cy="91.8000"/>
   <ellipse  rx="6.1200" ry="6.1200" cx="98.8065" cy="107.4965"/>
   <ellipse  rx="6.1200" ry="6.1200" cx="103.3545" cy="349.9477"/>
   <ellipse  rx="6.1200" ry="6.1200" cx="138.6645" cy="91.8000"/>
   <path d="M91.8000,91.8000L91.8000,520.2000L703.8000,520.2000L703.8000,91.8000z"/>
  </g>
 </g>
</svg>
