<?xml version="1.0" encoding="ISO-8859-1"?>
<!DOCTYPE svg PUBLIC "-//W3C//DTD SVG 1.0//EN" "http://www.w3.org/TR/2001/REC-SVG-20010904/DTD/svg10.dtd">
<!-- generated by Grace-5.1.25 -->
<svg xml:space="preserve" width="11.0000in" height="8.5000in" viewBox="0.0000 0.0000 792.0000 612.0000">
 <g transform="translate(0,612.0000) scale(1,-1)">
  <g style="fill:#FFFFFF; fill-rule:nonzero">
   <path  d="M0.0000,0.0000L0.0000,612.0000L792.0000,612.0000L792.0000,0.0000z"/>
  </g>
  <g style="fill:none; stroke:#000000; stroke-width:  0.9180; stroke-linecap:butt; stroke-linejoin:miter; stroke-dasharray:none">
   <ellipse  rx="6.1200" ry="6.1200" cx="115.0782" cy="111.2890"/>
   <ellipse  rx="6.1200" ry="6.1200" cx="99.6628" cy="113.3610"/>
   <ellipse  rx="6.1200" ry="6.1200" cx="229.6318" cy="118.3704"/>
   <ellipse  rx="6.1200" ry="6.1200" cx="100.2717" cy="109.0868"/>
   <ellipse  rx="6.1200" ry="6.1200" cx="119.9662" cy="131.0647"/>
   <ellipse  rx="6.1200" ry="6.1200" cx="160.5023" cy="123.6598"/>
   <ellipse  rx="6.1200" ry="6.1200" cx="94.0432" cy="115.9871"/>
   <ellipse  rx="6.1200" ry="6.1200" cx="93.6294" cy="202.9656"/>
   <ellipse  rx="6.1200" ry="6.1200" cx="211.8188" cy="112.3137"/>
   <ellipse  rx="6.1200" ry="6.1200" cx="97.2167" cy="195.0444"/>
   <ellipse  rx="6.1200" ry="6.1200" cx="101.9099" cy="112.8578"/>
   <ellipse  rx="6.1200" ry="6.1200" cx="94.3750" cy="221.2434"/>
   <ellipse  rx="6.1200" ry="6.1200" cx="95.7211" cy="107.0388"/>
   <ellipse  rx="6.1200" ry="6.1200" cx="536.8172" cy="110.0257"/>
   <ellipse  rx="6.1200" ry="6.1200" cx="94.9518" cy="154.3246"/>
   <ellipse  rx="6.1200" ry="6.1200" cx="112.4776" cy="157.1106"/>
   <ellipse  rx="6.1200" ry="6.1200" cx="104.5749" cy="106.0114"/>
   <ellipse  rx="6.1200" ry="6.1200" cx="94.2486" cy="471.9457"/>
   <ellipse  rx="6.1200" ry="6.1200" cx="303.0150" cy="108.2073"/>
   <ellipse  rx="6.1200" ry="6.1200" cx="96.5976" cy="107.4639"/>
   <ellipse  rx="6.1200" ry="6.1200" cx="100.5776" cy="113.3144"/>
   <ellipse  rx="6.1200" ry="6.1200" cx="104.2550" cy="147.9505"/>
   <ellipse  rx="6.1200" ry="6.1200" cx="203.8476" cy="111.5952"/>
   <ellipse  rx="6.1200" ry="6.1200" cx="96.1244" cy="231.0857"/>
   <ellipse  rx="6.1200" ry="6.1200" cx="95.9300" cy="129.2610"/>
   <ellipse  rx="6.1200" ry="6.1200" cx="123.7277" cy="107.8821"/>
   <ellipse  rx="6.1200" ry="6.1200" cx="95.2265" cy="163.8683"/>
   <ellipse  rx="6.1200" ry="6.1200" cx="266.3432" cy="103.4605"/>
   <ellipse  rx="6.1200" ry="6.1200" cx="94.5350" cy="107.9353"/>
   <ellipse  rx="6.1200" ry="6.1200" cx="97.6556" cy="148.3874"/>
   <ellipse  rx="6.1200" ry="6.1200" cx="95.0320" cy="106.2643"/>
   <ellipse  rx="6.1200" ry="6.1200" cx="99.5564" cy="184.1854"/>
   <ellipse  rx="6.1200" ry="6.1200" cx="597.0281" cy="124.6357"/>
   <ellipse  rx="6.1200" ry="6.1200" cx="93.6953" cy="224.6085"/>
   <ellipse  rx="6.1200" ry="6.1200" cx="100.5701" cy="104.0099"/>
   <ellipse  rx="6.1200" ry="6.1200" cx="174.0324" cy="111.6470"/>
   <ellipse  rx="6.1200" ry="6.1200" cx="135.5227" cy="109.4022"/>
   <ellipse  rx="6.1200" ry="6.1200" cx="102.6396" cy="106.3523"/>
   <ellipse  rx="6.1200" ry="6.1200" cx="291.1411" cy="122.2561"/>
   <ellipse  rx="6.1200" ry="6.1200" cx="96.9374" cy="160.9719"/>
   <ellipse  rx="6.1200" ry="6.1200" cx="154.9399" cy="109.5748"/>
   <ellipse  rx="6.1200" ry="6.1200" cx="585.9435" cy="109.5136"/>
   <ellipse  rx="6.1200" ry="6.1200" cx="99.3216" cy="112.7584"/>
   <ellipse  rx="6.1200" ry="6.1200" cx="161.7120" cy="107.9958"/>
   <ellipse  rx="6.1200" ry="6.1200" cx="135.2475" cy="109.8793"/>
   <ellipse  rx="6.1200" ry="6.1200" cx="97.0333" cy="176.9871"/>
   <ellipse  rx="6.1200" ry="6.1200" cx="94.1601" cy="153.1601"/>
   <ellipse  rx="6.1200" ry="6.1200" cx="213.2529" cy="128.4737"/>
   <ellipse  rx="6.1200" ry="6.1200" cx="226.5044" cy="195.2346"/>
   <ellipse  rx="6.1200" ry="6.1200" cx="95.9478" cy="115.2363"/>
   <ellipse  rx="6.1200" ry="6.1200" cx="424.4546" cy="168.1401"/>
   <ellipse  rx="6.1200" ry="6.1200" cx="95.0078" cy="108.6749"/>
   <ellipse  rx="6.1200" ry="6.1200" cx="96.4533" cy="108.0039"/>
   <ellipse  rx="6.1200" ry="6.1200" cx="169.8175" cy="111.4016"/>
   <ellipse  rx="6.1200" ry="6.1200" cx="95.8891" cy="107.9231"/>
   <ellipse  rx="6.1200" ry="6.1200" cx="103.7625" cy="124.1734"/>
   <ellipse  rx="6.1200" ry="6.1200" cx="256.6401" cy="111.2253"/>
   <ellipse  rx="6.1200" ry="6.1200" cx="93.6887" cy="186.2754"/>
   <ellipse  rx="6.1200" ry="6.1200" cx="95.9300" cy="129.2090"/>
   <ellipse  rx="6.1200" ry="6.1200" cx="93.6317" cy="355.2557"/>
   <path d="M91.8000,91.8000L91.8000,520.2000L703.8000,520.2000L703.8000,91.8000z"/>
  </g>
 </g>
</svg>
