<?xml version="1.0" encoding="ISO-8859-1"?>
<!DOCTYPE svg PUBLIC "-//W3C//DTD SVG 1.0//EN" "http://www.w3.org/TR/2001/REC-SVG-20010904/DTD/svg10.dtd">
<!-- generated by Grace-5.1.25 -->
<svg xml:space="preserve" width="11.0000in" height="8.5000in" viewBox="0.0000 0.0000 792.0000 612.0000">
 <g transform="translate(0,612.0000) scale(1,-1)">
  <g style="fill:#FFFFFF; fill-rule:nonzero">
   <path  d="M0.0000,0.0000L0.0000,612.0000L792.0000,612.0000L792.0000,0.0000z"/>
  </g>
  <g style="fill:none; stroke:#000000; stroke-width:  0.9180; stroke-linecap:butt; stroke-linejoin:miter; stroke-dasharray:none">
   <ellipse  rx="6.1200" ry="6.1200" cx="115.0782" cy="91.8000"/>
   <ellipse  rx="6.1200" ry="6.1200" cx="99.6628" cy="94.4906"/>
   <ellipse  rx="6.1200" ry="6.1200" cx="229.6318" cy="100.7417"/>
   <ellipse  rx="6.1200" ry="6.1200" cx="100.2717" cy="91.8000"/>
   <ellipse  rx="6.1200" ry="6.1200" cx="119.9662" cy="114.5576"/>
   <ellipse  rx="6.1200" ry="6.1200" cx="160.5023" cy="110.4303"/>
   <ellipse  rx="6.1200" ry="6.1200" cx="94.0432" cy="103.5944"/>
   <ellipse  rx="6.1200" ry="6.1200" cx="93.6294" cy="191.4129"/>
   <ellipse  rx="6.1200" ry="6.1200" cx="211.8188" cy="92.6035"/>
   <ellipse  rx="6.1200" ry="6.1200" cx="97.2167" cy="181.8532"/>
   <ellipse  rx="6.1200" ry="6.1200" cx="101.9099" cy="96.7331"/>
   <ellipse  rx="6.1200" ry="6.1200" cx="94.3750" cy="209.0568"/>
   <ellipse  rx="6.1200" ry="6.1200" cx="95.7211" cy="91.8000"/>
   <ellipse  rx="6.1200" ry="6.1200" cx="536.8172" cy="93.0896"/>
   <ellipse  rx="6.1200" ry="6.1200" cx="94.9518" cy="140.3870"/>
   <ellipse  rx="6.1200" ry="6.1200" cx="112.4776" cy="143.9891"/>
   <ellipse  rx="6.1200" ry="6.1200" cx="104.5749" cy="91.8000"/>
   <ellipse  rx="6.1200" ry="6.1200" cx="94.2486" cy="471.2962"/>
   <ellipse  rx="6.1200" ry="6.1200" cx="303.0150" cy="91.8000"/>
   <ellipse  rx="6.1200" ry="6.1200" cx="96.5976" cy="91.8000"/>
   <ellipse  rx="6.1200" ry="6.1200" cx="100.5776" cy="95.3086"/>
   <ellipse  rx="6.1200" ry="6.1200" cx="104.2550" cy="135.0209"/>
   <ellipse  rx="6.1200" ry="6.1200" cx="203.8476" cy="96.4738"/>
   <ellipse  rx="6.1200" ry="6.1200" cx="96.1244" cy="217.2399"/>
   <ellipse  rx="6.1200" ry="6.1200" cx="95.9300" cy="110.6379"/>
   <ellipse  rx="6.1200" ry="6.1200" cx="123.7277" cy="91.8744"/>
   <ellipse  rx="6.1200" ry="6.1200" cx="95.2265" cy="149.2856"/>
   <ellipse  rx="6.1200" ry="6.1200" cx="266.3432" cy="91.8000"/>
   <ellipse  rx="6.1200" ry="6.1200" cx="94.5350" cy="91.8000"/>
   <ellipse  rx="6.1200" ry="6.1200" cx="97.6556" cy="134.5937"/>
   <ellipse  rx="6.1200" ry="6.1200" cx="95.0320" cy="91.9306"/>
   <ellipse  rx="6.1200" ry="6.1200" cx="99.5564" cy="171.2280"/>
   <ellipse  rx="6.1200" ry="6.1200" cx="597.0281" cy="106.4875"/>
   <ellipse  rx="6.1200" ry="6.1200" cx="93.6953" cy="215.5044"/>
   <ellipse  rx="6.1200" ry="6.1200" cx="100.5701" cy="91.8038"/>
   <ellipse  rx="6.1200" ry="6.1200" cx="174.0324" cy="93.3934"/>
   <ellipse  rx="6.1200" ry="6.1200" cx="135.5227" cy="91.8000"/>
   <ellipse  rx="6.1200" ry="6.1200" cx="102.6396" cy="91.8038"/>
   <ellipse  rx="6.1200" ry="6.1200" cx="291.1411" cy="105.9969"/>
   <ellipse  rx="6.1200" ry="6.1200" cx="96.9374" cy="148.2959"/>
   <ellipse  rx="6.1200" ry="6.1200" cx="154.9399" cy="93.0018"/>
   <ellipse  rx="6.1200" ry="6.1200" cx="585.9435" cy="92.0335"/>
   <ellipse  rx="6.1200" ry="6.1200" cx="99.3216" cy="95.4400"/>
   <ellipse  rx="6.1200" ry="6.1200" cx="161.7120" cy="91.8054"/>
   <ellipse  rx="6.1200" ry="6.1200" cx="135.2475" cy="92.4778"/>
   <ellipse  rx="6.1200" ry="6.1200" cx="97.0333" cy="166.6170"/>
   <ellipse  rx="6.1200" ry="6.1200" cx="94.1601" cy="140.3756"/>
   <ellipse  rx="6.1200" ry="6.1200" cx="213.2529" cy="112.6922"/>
   <ellipse  rx="6.1200" ry="6.1200" cx="226.5044" cy="186.2359"/>
   <ellipse  rx="6.1200" ry="6.1200" cx="95.9478" cy="99.8774"/>
   <ellipse  rx="6.1200" ry="6.1200" cx="424.4546" cy="152.2065"/>
   <ellipse  rx="6.1200" ry="6.1200" cx="95.0078" cy="92.2457"/>
   <ellipse  rx="6.1200" ry="6.1200" cx="96.4533" cy="91.8000"/>
   <ellipse  rx="6.1200" ry="6.1200" cx="169.8175" cy="92.7069"/>
   <ellipse  rx="6.1200" ry="6.1200" cx="95.8891" cy="91.8000"/>
   <ellipse  rx="6.1200" ry="6.1200" cx="103.7625" cy="107.4965"/>
   <ellipse  rx="6.1200" ry="6.1200" cx="256.6401" cy="93.5140"/>
   <ellipse  rx="6.1200" ry="6.1200" cx="93.6887" cy="175.3745"/>
   <ellipse  rx="6.1200" ry="6.1200" cx="95.9300" cy="110.6379"/>
   <ellipse  rx="6.1200" ry="6.1200" cx="93.6317" cy="349.9477"/>
   <path d="M91.8000,91.8000L91.8000,520.2000L703.8000,520.2000L703.8000,91.8000z"/>
  </g>
 </g>
</svg>
