<?xml version="1.0" encoding="ISO-8859-1"?>
<!DOCTYPE svg PUBLIC "-//W3C//DTD SVG 1.0//EN" "http://www.w3.org/TR/2001/REC-SVG-20010904/DTD/svg10.dtd">
<!-- generated by Grace-5.1.25 -->
<svg xml:space="preserve" width="11.0000in" height="8.5000in" viewBox="0.0000 0.0000 792.0000 612.0000">
 <g transform="translate(0,612.0000) scale(1,-1)">
  <g style="fill:#FFFFFF; fill-rule:nonzero">
   <path  d="M0.0000,0.0000L0.0000,612.0000L792.0000,612.0000L792.0000,0.0000z"/>
  </g>
  <g style="fill:none; stroke:#000000; stroke-width:  0.9180; stroke-linecap:butt; stroke-linejoin:miter; stroke-dasharray:none">
   <path d="M91.8000,91.8000L110.1600,127.8334L128.5200,159.9356L146.8800,188.5715L165.2400,214.1400L183.6000,237.0205L201.9600,257.5272L220.3200,275.9364L238.6800,292.4914L257.0400,307.4065
            L275.4000,320.8702L293.7600,333.0487L312.1200,344.0885L330.4800,354.1186L348.8400,363.2529L367.2000,371.5916L385.5600,379.2235L403.9200,386.2265L422.2800,392.6698L440.6400,398.6143
            L459.0000,404.1140L477.3600,409.2164L495.7200,413.9637L514.0800,418.3934L532.4400,422.5383L550.8000,426.4278L550.8612,426.4400"/>
   <path d="M91.8000,91.8000L110.1600,130.6503L128.5200,165.0085L146.8800,195.4186L165.2400,222.3400L183.6000,246.2094L201.9600,267.3928L220.3200,286.2101L238.6800,302.9427L257.0400,317.8379
            L275.4000,331.1131L293.7600,342.9598L312.1200,353.5459L330.4800,363.0193L348.8400,371.5101L367.2000,379.1323L385.5600,385.9864L403.9200,392.1608L422.2800,397.7329L440.6400,402.7711
            L459.0000,407.3354L477.3600,411.4783L495.7200,415.2463L514.0800,418.6802L532.4400,421.8157L550.8000,424.6844L550.8612,424.6931"/>
   <path d="M91.8000,91.8000L110.1600,122.3520L128.5200,150.1046L146.8800,175.3311L165.2400,198.2643L183.6000,219.1330L201.9600,238.1378L220.3200,255.4567L238.6800,271.2504L257.0400,285.6647
            L275.4000,298.8309L293.7600,310.8681L312.1200,321.8838L330.4800,331.9751L348.8400,341.2302L367.2000,349.7283L385.5600,357.5414L403.9200,364.7345L422.2800,371.3664L440.6400,377.4901
            L459.0000,383.1538L477.3600,388.4009L495.7200,393.2707L514.0800,397.7987L532.4400,402.0171L550.8000,405.9550L550.8612,405.9673"/>
   <path d="M91.8000,91.8000L110.1600,123.4057L128.5200,152.0915L146.8800,178.1472L165.2400,201.8230L183.6000,223.3664L201.9600,242.9886L220.3200,260.8782L238.6800,277.2054L257.0400,292.1237
            L275.4000,305.7713L293.7600,318.2729L312.1200,329.7408L330.4800,340.2763L348.8400,349.9708L367.2000,358.9066L385.5600,367.1580L403.9200,374.7919L422.2800,381.8686L440.6400,388.4427
            L459.0000,394.5632L477.3600,400.2744L495.7200,405.6162L514.0800,410.6246L532.4400,415.3321L550.8000,419.7680L550.8612,419.7820"/>
   <path d="M91.8000,91.8000L110.1600,130.2254L128.5200,164.0025L146.8800,193.7045L165.2400,219.8188L183.6000,242.8035L201.9600,263.0435L220.3200,280.8733L238.6800,296.5867L257.0400,310.4409
            L275.4000,322.6619L293.7600,333.4476L312.1200,342.9717L330.4800,351.3866L348.8400,358.8258L367.2000,365.4066L385.5600,371.2318L403.9200,376.3918L422.2800,380.9655L440.6400,385.0227
            L459.0000,388.6242L477.3600,391.8236L495.7200,394.6680L514.0800,397.1987L532.4400,399.4519L550.8000,401.4596L550.8612,401.4656"/>
   <path d="M91.8000,91.8000L110.1600,120.1748L128.5200,146.2602L146.8800,170.2621L165.2400,192.3546L183.6000,212.7085L201.9600,231.4782L220.3200,248.8012L238.6800,264.8029L257.0400,279.5982
            L275.4000,293.2918L293.7600,305.9793L312.1200,317.7484L330.4800,328.6787L348.8400,338.8434L367.2000,348.3089L385.5600,357.1362L403.9200,365.3808L422.2800,373.0935L440.6400,380.3206
            L459.0000,387.1044L477.3600,393.4836L495.7200,399.4935L514.0800,405.1662L532.4400,410.5313L550.8000,415.6155L550.8612,415.6316"/>
   <path d="M91.8000,91.8000L110.1600,140.2559L128.5200,181.2664L146.8800,215.9923L165.2400,245.4044L183.6000,270.3651L201.9600,291.5677L220.3200,309.5972L238.6800,324.9469L257.0400,338.0332
            L275.4000,349.2074L293.7600,358.7658L312.1200,366.9585L330.4800,373.9965L348.8400,380.0581L367.2000,385.2936L385.5600,389.8299L403.9200,393.7742L422.2800,397.2170L440.6400,400.2349
            L459.0000,402.8924L477.3600,405.2440L495.7200,407.3360L514.0800,409.2073L532.4400,410.8910L550.8000,412.4148L550.8612,412.4195"/>
   <path d="M91.8000,91.8000L110.1600,140.3580L128.5200,181.4137L146.8800,216.1401L165.2400,245.5304L183.6000,270.4560L201.9600,291.6181L220.3200,309.6071L238.6800,324.9199L257.0400,337.9754
            L275.4000,349.1262L293.7600,358.6695L312.1200,366.8558L330.4800,373.8961L348.8400,379.9683L367.2000,385.2225L385.5600,389.7852L403.9200,393.7632L422.2800,397.2464L440.6400,400.3110
            L459.0000,403.0211L477.3600,405.4308L495.7200,407.5860L514.0800,409.5253L532.4400,411.2814L550.8000,412.8820L550.8612,412.8869"/>
   <path d="M91.8000,91.8000L110.1600,137.3552L128.5200,176.3284L146.8800,209.6893L165.2400,238.2493L183.6000,262.7447L201.9600,283.7713L220.3200,301.8374L238.6800,317.3761L257.0400,330.7568
            L275.4000,342.2945L293.7600,352.2578L312.1200,360.8756L330.4800,368.3434L348.8400,374.8276L367.2000,380.4703L385.5600,385.3928L403.9200,389.6984L422.2800,393.4754L440.6400,396.7990
            L459.0000,399.7335L477.3600,402.3337L495.7200,404.6464L514.0800,406.7118L532.4400,408.5639L550.8000,410.2319L550.8612,410.2370"/>
   <path d="M91.8000,91.8000L110.1600,141.8951L128.5200,183.9949L146.8800,219.3970L165.2400,249.1756L183.6000,274.2775L201.9600,295.4596L220.3200,313.3556L238.6800,328.4963L257.0400,341.3265
            L275.4000,352.2186L293.7600,361.4846L312.1200,369.3861L330.4800,376.1419L348.8400,381.9357L367.2000,386.9213L385.5600,391.2275L403.9200,394.9625L422.2800,398.2168L440.6400,401.0664
            L459.0000,403.5751L477.3600,405.7963L495.7200,407.7750L514.0800,409.5487L532.4400,411.1492L550.8000,412.6030L550.8612,412.6075"/>
   <path d="M91.8000,91.8000L110.1600,123.6565L128.5200,152.3171L146.8800,178.1082L165.2400,201.3153L183.6000,222.2200L201.9600,241.0571L220.3200,258.0372L238.6800,273.3494L257.0400,287.1630
            L275.4000,299.6301L293.7600,310.8870L312.1200,321.0560L330.4800,330.2471L348.8400,338.5588L367.2000,346.0795L385.5600,352.8887L403.9200,359.0577L422.2800,364.6505L440.6400,369.7247
            L459.0000,374.3319L477.3600,378.5186L495.7200,382.3264L514.0800,385.7930L532.4400,388.9518L550.8000,391.8333L550.8612,391.8421"/>
   <path d="M91.8000,91.8000L110.1600,118.6927L128.5200,143.6216L146.8800,166.7494L165.2400,188.2138L183.6000,208.1498L201.9600,226.6811L220.3200,243.9185L238.6800,259.9640L257.0400,274.9113
            L275.4000,288.8467L293.7600,301.8496L312.1200,313.9931L330.4800,325.3443L348.8400,335.9650L367.2000,345.9120L385.5600,355.2376L403.9200,363.9898L422.2800,372.2128L440.6400,379.9472
            L459.0000,387.2304L477.3600,394.0967L495.7200,400.5777L514.0800,406.7024L532.4400,412.4973L550.8000,417.9871L550.8612,418.0045"/>
   <path d="M91.8000,91.8000L110.1600,123.6501L128.5200,152.3567L146.8800,178.2421L165.2400,201.5822L183.6000,222.6506L201.9600,241.6775L220.3200,258.8691L238.6800,274.4104L257.0400,288.4676
            L275.4000,301.1899L293.7600,312.7114L312.1200,323.1525L330.4800,332.6213L348.8400,341.2149L367.2000,349.0206L385.5600,356.1168L403.9200,362.5739L422.2800,368.4553L440.6400,373.8178
            L459.0000,378.7126L477.3600,383.1856L495.7200,387.2781L514.0800,391.0273L532.4400,394.4665L550.8000,397.6257L550.8612,397.6354"/>
   <path d="M91.8000,91.8000L110.1600,125.7218L128.5200,156.0290L146.8800,183.1184L165.2400,207.3268L183.6000,228.9770L201.9600,248.3486L220.3200,265.6867L238.6800,281.2100L257.0400,295.1131
            L275.4000,307.5699L293.7600,318.7352L312.1200,328.7469L330.4800,337.7282L348.8400,345.7889L367.2000,353.0266L385.5600,359.5288L403.9200,365.3731L422.2800,370.6290L440.6400,375.3583
            L459.0000,379.6162L477.3600,383.4520L495.7200,386.9096L514.0800,390.0281L532.4400,392.8426L550.8000,395.3843L550.8612,395.3919"/>
   <path d="M91.8000,91.8000L110.1600,123.2872L128.5200,151.7898L146.8800,177.6103L165.2400,201.0025L183.6000,222.2156L201.9600,241.4670L220.3200,258.9493L238.6800,274.8361L257.0400,289.2838
            L275.4000,302.4332L293.7600,314.4113L312.1200,325.3324L330.4800,335.2995L348.8400,344.4055L367.2000,352.7339L385.5600,360.3601L403.9200,367.3519L422.2800,373.7704L440.6400,379.6709
            L459.0000,385.1028L477.3600,390.1109L495.7200,394.7354L514.0800,399.0128L532.4400,402.9756L550.8000,406.6534L550.8612,406.6648"/>
   <path d="M91.8000,91.8000L110.1600,118.8169L128.5200,143.8570L146.8800,167.0874L165.2400,188.6503L183.6000,208.6898L201.9600,227.3345L220.3200,244.7001L238.6800,260.8926L257.0400,276.0099
            L275.4000,290.1419L293.7600,303.3712L312.1200,315.7738L330.4800,327.4198L348.8400,338.3732L367.2000,348.6935L385.5600,358.4349L403.9200,367.6475L422.2800,376.3774L440.6400,384.6670
            L459.0000,392.5553L477.3600,400.0781L495.7200,407.2686L514.0800,414.1570L532.4400,420.7714L550.8000,427.1375L550.8612,427.1580"/>
   <path d="M91.8000,91.8000L110.1600,132.5323L128.5200,168.0757L146.8800,199.1072L165.2400,226.2014L183.6000,249.8964L201.9600,270.6333L220.3200,288.7958L238.6800,304.7174L257.0400,318.6882
            L275.4000,330.9603L293.7600,341.7531L312.1200,351.2572L330.4800,359.6384L348.8400,367.0410L367.2000,373.5905L385.5600,379.3961L403.9200,384.5526L422.2800,389.1429L440.6400,393.2387
            L459.0000,396.9027L477.3600,400.1894L495.7200,403.1463L514.0800,405.8147L532.4400,408.2306L550.8000,410.4254L550.8612,410.4321"/>
   <path d="M91.8000,91.8000L110.1600,121.0725L128.5200,147.9368L146.8800,172.6102L165.2400,195.2784L183.6000,216.1292L201.9600,235.3250L220.3200,253.0117L238.6800,269.3224L257.0400,284.3783
            L275.4000,298.2898L293.7600,311.1575L312.1200,323.0730L330.4800,334.1195L348.8400,344.3733L367.2000,353.9033L385.5600,362.7727L403.9200,371.0388L422.2800,378.7539L440.6400,385.9656
            L459.0000,392.7172L477.3600,399.0483L495.7200,404.9948L514.0800,410.5894L532.4400,415.8619L550.8000,420.8395L550.8612,420.8552"/>
   <path d="M91.8000,91.8000L110.1600,128.9997L128.5200,161.8540L146.8800,190.8838L165.2400,216.5323L183.6000,239.2209L201.9600,259.3026L220.3200,277.0867L238.6800,292.8454L257.0400,306.8186
            L275.4000,319.2176L293.7600,330.2283L312.1200,340.0146L330.4800,348.7209L348.8400,356.4743L367.2000,363.3869L385.5600,369.5573L403.9200,375.0725L422.2800,380.0092L440.6400,384.4348
            L459.0000,388.4089L477.3600,391.9839L495.7200,395.2062L514.0800,398.1164L532.4400,400.7506L550.8000,403.1405L550.8612,403.1477"/>
   <path d="M91.8000,91.8000L110.1600,120.7264L128.5200,147.3079L146.8800,171.7559L165.2400,194.2483L183.6000,214.9629L201.9600,234.0584L220.3200,251.6762L238.6800,267.9452L257.0400,282.9830
            L275.4000,296.8969L293.7600,309.7850L312.1200,321.7365L330.4800,332.8329L348.8400,343.1486L367.2000,352.7515L385.5600,361.7034L403.9200,370.0607L422.2800,377.8749L440.6400,385.1929
            L459.0000,392.0576L477.3600,398.5081L495.7200,404.5798L514.0800,410.3052L532.4400,415.7141L550.8000,420.8334L550.8612,420.8495"/>
   <path d="M91.8000,91.8000L110.1600,127.8762L128.5200,159.8494L146.8800,188.1990L165.2400,213.3337L183.6000,235.6415L201.9600,255.4523L220.3200,273.0543L238.6800,288.7027L257.0400,302.6228
            L275.4000,315.0139L293.7600,326.0521L312.1200,335.8933L330.4800,344.6751L348.8400,352.5194L367.2000,359.5338L385.5600,365.8134L403.9200,371.4426L422.2800,376.4958L440.6400,381.0388
            L459.0000,385.1299L477.3600,388.8207L495.7200,392.1568L514.0800,395.1785L532.4400,397.9215L550.8000,400.4175L550.8612,400.4251"/>
   <path d="M91.8000,91.8000L110.1600,122.3853L128.5200,150.2205L146.8800,175.5783L165.2400,198.6880L183.6000,219.7734L201.9600,239.0311L220.3200,256.6359L238.6800,272.7457L257.0400,287.5034
            L275.4000,301.0380L293.7600,313.4661L312.1200,324.8933L330.4800,335.4145L348.8400,345.1161L367.2000,354.0756L385.5600,362.3635L403.9200,370.0431L422.2800,377.1718L440.6400,383.8016
            L459.0000,389.9791L477.3600,395.7469L495.7200,401.1430L514.0800,406.2020L532.4400,410.9552L550.8000,415.4308L550.8612,415.4449"/>
   <path d="M91.8000,91.8000L110.1600,121.3235L128.5200,148.2006L146.8800,172.6810L165.2400,194.9756L183.6000,215.2937L201.9600,233.8197L220.3200,250.7175L238.6800,266.1358L257.0400,280.2094
            L275.4000,293.0609L293.7600,304.8014L312.1200,315.5317L330.4800,325.3433L348.8400,334.3193L367.2000,342.5351L385.5600,350.0590L403.9200,356.9534L422.2800,363.2745L440.6400,369.0737
            L459.0000,374.3973L477.3600,379.2878L495.7200,383.7834L514.0800,387.9191L532.4400,391.7265L550.8000,395.2345L550.8612,395.2453"/>
   <path d="M91.8000,91.8000L110.1600,117.6576L128.5200,141.5243L146.8800,163.5629L165.2400,183.9138L183.6000,202.7210L201.9600,220.1101L220.3200,236.1946L238.6800,251.0790L257.0400,264.8592
            L275.4000,277.6233L293.7600,289.4525L312.1200,300.4211L330.4800,310.5977L348.8400,320.0452L367.2000,328.8213L385.5600,336.9794L403.9200,344.5684L422.2800,351.6331L440.6400,358.2149
            L459.0000,364.3520L477.3600,370.0792L495.7200,375.4288L514.0800,380.4304L532.4400,385.1111L550.8000,389.4961L550.8612,389.5098"/>
   <path d="M91.8000,91.8000L110.1600,117.1897L128.5200,140.5900L146.8800,162.1638L165.2400,182.0510L183.6000,200.3940L201.9600,217.3183L220.3200,232.9374L238.6800,247.3551L257.0400,260.6671
            L275.4000,272.9613L293.7600,284.3185L312.1200,294.8129L330.4800,304.5128L348.8400,313.4810L367.2000,321.7751L385.5600,329.4482L403.9200,336.5491L422.2800,343.1227L440.6400,349.2102
            L459.0000,354.8497L477.3600,360.0760L495.7200,364.9212L514.0800,369.4150L532.4400,373.5845L550.8000,377.4548L550.8612,377.4668"/>
   <path d="M91.8000,91.8000L110.1600,116.7109L128.5200,139.7510L146.8800,161.0684L165.2400,180.7912L183.6000,199.0518L201.9600,215.9653L220.3200,231.6361L238.6800,246.1607L257.0400,259.6277
            L275.4000,272.1188L293.7600,283.7094L312.1200,294.4690L330.4800,304.4614L348.8400,313.7458L367.2000,322.3763L385.5600,330.4032L403.9200,337.8726L422.2800,344.8272L440.6400,351.3062
            L459.0000,357.3458L477.3600,362.9795L495.7200,368.2380L514.0800,373.1499L532.4400,377.7413L550.8000,382.0364L550.8612,382.0498"/>
   <path d="M91.8000,91.8000L110.1600,131.8443L128.5200,167.1894L146.8800,198.4209L165.2400,226.0367L183.6000,250.5038L201.9600,272.2144L220.3200,291.5093L238.6800,308.6870L257.0400,324.0089
            L275.4000,337.7041L293.7600,349.9729L312.1200,360.9909L330.4800,370.9119L348.8400,379.8704L367.2000,387.9842L385.5600,395.3563L403.9200,402.0769L422.2800,408.2251L440.6400,413.8698
            L459.0000,419.0717L477.3600,423.8835L495.7200,428.3515L514.0800,432.5162L532.4400,436.4130L550.8000,440.0729L550.8612,440.0844"/>
   <path d="M91.8000,91.8000L110.1600,127.1525L128.5200,158.7093L146.8800,186.8978L165.2400,212.0857L183.6000,234.6289L201.9600,254.8237L220.3200,272.9323L238.6800,289.1876L257.0400,303.7960
            L275.4000,316.9407L293.7600,328.7841L312.1200,339.4702L330.4800,349.1271L348.8400,357.8680L367.2000,365.7938L385.5600,372.9936L403.9200,379.5467L422.2800,385.5236L440.6400,390.9867
            L459.0000,395.9913L477.3600,400.5867L495.7200,404.8167L514.0800,408.7199L532.4400,412.3310L550.8000,415.6804L550.8612,415.6908"/>
   <path d="M91.8000,91.8000L110.1600,130.4154L128.5200,164.3908L146.8800,194.2987L165.2400,220.6291L183.6000,243.8436L201.9600,264.3265L220.3200,282.4134L238.6800,298.3983L257.0400,312.5390
            L275.4000,325.0613L293.7600,336.1634L312.1200,346.0188L330.4800,354.7799L348.8400,362.5800L367.2000,369.5362L385.5600,375.7512L403.9200,381.3149L422.2800,386.3062L440.6400,390.7943
            L459.0000,394.8402L477.3600,398.4969L495.7200,401.8113L514.0800,404.8245L532.4400,407.5724L550.8000,410.0867L550.8612,410.0944"/>
   <path d="M91.8000,91.8000L110.1600,129.3894L128.5200,162.5738L146.8800,191.8831L165.2400,217.7750L183.6000,240.6830L201.9600,260.9654L220.3200,278.9370L238.6800,294.8745L257.0400,309.0209
            L275.4000,321.5899L293.7600,332.7694L312.1200,342.7246L330.4800,351.6004L348.8400,359.5247L367.2000,366.6097L385.5600,372.9541L403.9200,378.6446L422.2800,383.7578L440.6400,388.3609
            L459.0000,392.5129L477.3600,396.2659L495.7200,399.6659L514.0800,402.7530L532.4400,405.5629L550.8000,408.1267L550.8612,408.1345"/>
   <path d="M91.8000,91.8000L110.1600,120.5807L128.5200,146.8460L146.8800,170.8270L165.2400,192.7211L183.6000,212.7240L201.9600,231.0086L220.3200,247.7289L238.6800,263.0249L257.0400,277.0239
            L275.4000,289.8418L293.7600,301.5839L312.1200,312.3461L330.4800,322.2155L348.8400,331.2714L367.2000,339.5860L385.5600,347.2248L403.9200,354.2476L422.2800,360.7088L440.6400,366.6576
            L459.0000,372.1392L477.3600,377.1944L495.7200,381.8606L514.0800,386.1717L532.4400,390.1585L550.8000,393.8491L550.8612,393.8605"/>
   <path d="M91.8000,91.8000L110.1600,116.3773L128.5200,139.2618L146.8800,160.5843L165.2400,180.4555L183.6000,198.9898L201.9600,216.2897L220.3200,232.4475L238.6800,247.5488L257.0400,261.6727
            L275.4000,274.8923L293.7600,287.2753L312.1200,298.8843L330.4800,309.7773L348.8400,320.0078L367.2000,329.6255L385.5600,338.6763L403.9200,347.2025L422.2800,355.2435L440.6400,362.8355
            L459.0000,370.0123L477.3600,376.8048L495.7200,383.2419L514.0800,389.3502L532.4400,395.1542L550.8000,400.6768L550.8612,400.6943"/>
   <path d="M91.8000,91.8000L110.1600,112.0997L128.5200,131.1328L146.8800,148.9841L165.2400,165.7250L183.6000,181.4306L201.9600,196.1690L220.3200,210.0023L238.6800,222.9882L257.0400,235.1810
            L275.4000,246.6312L293.7600,257.3861L312.1200,267.4901L330.4800,276.9846L348.8400,285.9082L367.2000,294.2973L385.5600,302.1858L403.9200,309.6053L422.2800,316.5856L440.6400,323.1545
            L459.0000,329.3379L477.3600,335.1601L495.7200,340.6441L514.0800,345.8110L532.4400,350.6808L550.8000,355.2722L550.8612,355.2867"/>
   <path d="M91.8000,91.8000L110.1600,116.6171L128.5200,139.6284L146.8800,160.9772L165.2400,180.7849L183.6000,199.1714L201.9600,216.2478L220.3200,232.1132L238.6800,246.8594L257.0400,260.5709
            L275.4000,273.3259L293.7600,285.1965L312.1200,296.2495L330.4800,306.5464L348.8400,316.1441L367.2000,325.0952L385.5600,333.4481L403.9200,341.2477L422.2800,348.5354L440.6400,355.3493
            L459.0000,361.7249L477.3600,367.6948L495.7200,373.2890L514.0800,378.5354L532.4400,383.4598L550.8000,388.0860L550.8612,388.1005"/>
   <path d="M91.8000,91.8000L110.1600,134.2636L128.5200,171.3477L146.8800,203.7675L165.2400,232.1299L183.6000,256.9998L201.9600,278.8404L220.3200,298.0527L238.6800,314.9845L257.0400,329.9372
            L275.4000,343.1720L293.7600,354.9154L312.1200,365.3634L330.4800,374.6862L348.8400,383.0311L367.2000,390.5259L385.5600,397.2811L403.9200,403.3927L422.2800,408.9438L440.6400,414.0064
            L459.0000,418.6430L477.3600,422.9077L495.7200,426.8474L514.0800,430.5027L532.4400,433.9089L550.8000,437.0967L550.8612,437.1067"/>
   <path d="M91.8000,91.8000L110.1600,125.0991L128.5200,155.0449L146.8800,181.9939L165.2400,206.2477L183.6000,228.0996L201.9600,247.8026L220.3200,265.5801L238.6800,281.6323L257.0400,296.1383
            L275.4000,309.2585L293.7600,321.1365L312.1200,331.9009L330.4800,341.6670L348.8400,350.5379L367.2000,358.6058L385.5600,365.9536L403.9200,372.6552L422.2800,378.7770L440.6400,384.3784
            L459.0000,389.5125L477.3600,394.2271L495.7200,398.5647L514.0800,402.5637L532.4400,406.2583L550.8000,409.6791L550.8612,409.6897"/>
   <path d="M91.8000,91.8000L110.1600,122.3745L128.5200,150.2679L146.8800,175.7343L165.2400,198.9895L183.6000,220.2468L201.9600,239.6940L220.3200,257.4983L238.6800,273.8110L257.0400,288.7693
            L275.4000,302.4979L293.7600,315.1094L312.1200,326.7064L330.4800,337.3815L348.8400,347.2189L367.2000,356.2949L385.5600,364.6785L403.9200,372.4324L422.2800,379.6136L440.6400,386.2734
            L459.0000,392.4586L477.3600,398.2116L495.7200,403.5707L514.0800,408.5708L532.4400,413.2434L550.8000,417.6172L550.8612,417.6309"/>
   <path d="M91.8000,91.8000L110.1600,124.9927L128.5200,154.7356L146.8800,181.3959L165.2400,205.2913L183.6000,226.7310L201.9600,245.9760L220.3200,263.2583L238.6800,278.7851L257.0400,292.7415
            L275.4000,305.2929L293.7600,316.5871L312.1200,326.7562L330.4800,335.9182L348.8400,344.1787L367.2000,351.6319L385.5600,358.3622L403.9200,364.4449L422.2800,369.9475L440.6400,374.9301
            L459.0000,379.4468L477.3600,383.5456L495.7200,387.2698L514.0800,390.6579L532.4400,393.7445L550.8000,396.5604L550.8612,396.5690"/>
   <path d="M91.8000,91.8000L110.1600,125.6204L128.5200,156.0309L146.8800,183.3920L165.2400,208.0214L183.6000,230.2274L201.9600,250.2673L220.3200,268.3707L238.6800,284.7426L257.0400,299.5664
            L275.4000,313.0056L293.7600,325.2064L312.1200,336.2995L330.4800,346.4017L348.8400,355.6173L367.2000,364.0395L385.5600,371.7518L403.9200,378.8287L422.2800,385.3369L440.6400,391.3360
            L459.0000,396.8792L477.3600,402.0144L495.7200,406.7842L514.0800,411.2267L532.4400,415.3761L550.8000,419.2629L550.8612,419.2751"/>
   <path d="M91.8000,91.8000L110.1600,124.3359L128.5200,153.6171L146.8800,179.9868L165.2400,203.7324L183.6000,225.1344L201.9600,244.4359L220.3200,261.8520L238.6800,277.5753L257.0400,291.7785
            L275.4000,304.6168L293.7600,316.2290L312.1200,326.7400L330.4800,336.2615L348.8400,344.8938L367.2000,352.7269L385.5600,359.8415L403.9200,366.3099L422.2800,372.1971L440.6400,377.5613
            L459.0000,382.4547L477.3600,386.9242L495.7200,391.0119L514.0800,394.7554L532.4400,398.1886L550.8000,401.3418L550.8612,401.3515"/>
   <path d="M91.8000,91.8000L110.1600,131.8058L128.5200,166.9386L146.8800,197.8144L165.2400,224.9584L183.6000,248.8641L201.9600,269.9403L220.3200,288.5427L238.6800,304.9823L257.0400,319.5308
            L275.4000,332.4254L293.7600,343.8733L312.1200,354.0557L330.4800,363.1306L348.8400,371.2363L367.2000,378.4935L385.5600,385.0076L403.9200,390.8709L422.2800,396.1638L440.6400,400.9569
            L459.0000,405.3115L477.3600,409.2816L495.7200,412.9141L514.0800,416.2501L532.4400,419.3257L550.8000,422.1723L550.8612,422.1812"/>
   <path d="M91.8000,91.8000L110.1600,124.7516L128.5200,154.5140L146.8800,181.4166L165.2400,205.7428L183.6000,227.7714L201.9600,247.7385L220.3200,265.8550L238.6800,282.3097L257.0400,297.2723
            L275.4000,310.8949L293.7600,323.3140L312.1200,334.6522L330.4800,345.0195L348.8400,354.5143L367.2000,363.2253L385.5600,371.2320L403.9200,378.6054L422.2800,385.4098L440.6400,391.7023
            L459.0000,397.5347L477.3600,402.9531L495.7200,407.9990L514.0800,412.7097L532.4400,417.1187L550.8000,421.2560L550.8612,421.2689"/>
   <path d="M91.8000,91.8000L110.1600,131.0421L128.5200,166.1558L146.8800,197.6297L165.2400,225.8765L183.6000,251.2913L201.9600,274.2053L220.3200,294.9091L238.6800,313.6588L257.0400,330.6801
            L275.4000,346.1715L293.7600,360.3082L312.1200,373.2440L330.4800,385.1143L348.8400,396.0380L367.2000,406.1197L385.5600,415.4511L403.9200,424.1129L422.2800,432.1757L440.6400,439.7014
            L459.0000,446.7445L477.3600,453.3524L495.7200,459.5670L514.0800,465.4248L532.4400,470.9579L550.8000,476.1944L550.8612,476.2109"/>
   <path d="M91.8000,91.8000L110.1600,119.2056L128.5200,144.2497L146.8800,167.1422L165.2400,188.0650L183.6000,207.1996L201.9600,224.7050L220.3200,240.7238L238.6800,255.3860L257.0400,268.8099
            L275.4000,281.1037L293.7600,292.3658L312.1200,302.6862L330.4800,312.1467L348.8400,320.8221L367.2000,328.7805L385.5600,336.0843L403.9200,342.7900L422.2800,348.9495L440.6400,354.6100
            L459.0000,359.8147L477.3600,364.6028L495.7200,369.0104L514.0800,373.0701L532.4400,376.8119L550.8000,380.2631L550.8612,380.2737"/>
   <path d="M91.8000,91.8000L110.1600,119.7473L128.5200,145.6789L146.8800,169.7618L165.2400,192.1368L183.6000,212.9445L201.9600,232.3124L220.3200,250.3544L238.6800,267.1749L257.0400,282.8700
            L275.4000,297.5280L293.7600,311.2297L312.1200,324.0494L330.4800,336.0555L348.8400,347.3106L367.2000,357.8721L385.5600,367.7929L403.9200,377.1215L422.2800,385.9022L440.6400,394.1760
            L459.0000,401.9803L477.3600,409.3495L495.7200,416.3153L514.0800,422.9068L532.4400,429.1505L550.8000,435.0711L550.8612,435.0898"/>
   <path d="M91.8000,91.8000L110.1600,134.9859L128.5200,172.4858L146.8800,205.0760L165.2400,233.4172L183.6000,258.1176L201.9600,279.6743L220.3200,298.5160L238.6800,315.0125L257.0400,329.4833
            L275.4000,342.2037L293.7600,353.4115L312.1200,363.3119L330.4800,372.0818L348.8400,379.8740L367.2000,386.8204L385.5600,393.0348L403.9200,398.6154L422.2800,403.6471L440.6400,408.2030
            L459.0000,412.3463L477.3600,416.1317L495.7200,419.6064L514.0800,422.8109L532.4400,425.7805L550.8000,428.5456L550.8612,428.5543"/>
   <path d="M91.8000,91.8000L110.1600,127.4842L128.5200,159.4682L146.8800,188.1584L165.2400,213.9055L183.6000,237.0497L201.9600,257.8761L220.3200,276.6375L238.6800,293.5592L257.0400,308.8412
            L275.4000,322.6619L293.7600,335.1799L312.1200,346.5363L330.4800,356.8567L348.8400,366.2529L367.2000,374.8244L385.5600,382.6598L403.9200,389.8378L422.2800,396.4287L440.6400,402.4948
            L459.0000,408.0917L477.3600,413.2689L495.7200,418.0705L514.0800,422.5357L532.4400,426.6994L550.8000,430.5926L550.8612,430.6048"/>
   <path d="M91.8000,91.8000L110.1600,129.6636L128.5200,163.2149L146.8800,192.9739L165.2400,219.3802L183.6000,242.8512L201.9600,263.7390L220.3200,282.3513L238.6800,298.9588L257.0400,313.8004
            L275.4000,327.0862L293.7600,339.0014L312.1200,349.7091L330.4800,359.3529L348.8400,368.0594L367.2000,375.9398L385.5600,383.0925L403.9200,389.6038L422.2800,395.5498L440.6400,400.9976
            L459.0000,406.0063L477.3600,410.6277L495.7200,414.9079L514.0800,418.8870L532.4400,422.6007L550.8000,426.0803L550.8612,426.0912"/>
   <path d="M91.8000,91.8000L110.1600,138.2582L128.5200,178.2689L146.8800,212.7670L165.2400,242.5320L183.6000,268.2763L201.9600,290.5790L220.3200,309.9344L238.6800,326.7656L257.0400,341.4342
            L275.4000,354.2494L293.7600,365.4757L312.1200,375.3389L330.4800,384.0323L348.8400,391.7211L367.2000,398.5463L385.5600,404.6288L403.9200,410.0717L422.2800,414.9632L440.6400,419.3787
            L459.0000,423.3827L477.3600,427.0304L495.7200,430.3690L514.0800,433.4389L532.4400,436.2747L550.8000,438.9059L550.8612,438.9141"/>
   <path d="M91.8000,91.8000L110.1600,135.0478L128.5200,172.3600L146.8800,204.5600L165.2400,232.3503L183.6000,256.3722L201.9600,277.1487L220.3200,295.1296L238.6800,310.7018L257.0400,324.1981
            L275.4000,335.9051L293.7600,346.0692L312.1200,354.9024L330.4800,362.5872L348.8400,369.2809L367.2000,375.1186L385.5600,380.2168L403.9200,384.6758L422.2800,388.5820L440.6400,392.0099
            L459.0000,395.0236L477.3600,397.6783L495.7200,400.0217L514.0800,402.0950L532.4400,403.9335L550.8000,405.5679L550.8612,405.5728"/>
   <path d="M91.8000,91.8000L110.1600,126.8551L128.5200,158.1049L146.8800,185.9757L165.2400,210.8322L183.6000,233.0241L201.9600,252.8491L220.3200,270.5688L238.6800,286.4159L257.0400,300.5968
            L275.4000,313.2952L293.7600,324.6742L312.1200,334.8785L330.4800,344.0371L348.8400,352.2643L367.2000,359.6617L385.5600,366.3197L403.9200,372.3187L422.2800,377.7301L440.6400,382.6173
            L459.0000,387.0367L477.3600,391.0386L495.7200,394.6675L514.0800,397.9632L532.4400,400.9611L550.8000,403.6925L550.8612,403.7008"/>
   <path d="M91.8000,91.8000L110.1600,134.6754L128.5200,171.8085L146.8800,203.9889L165.2400,231.8882L183.6000,256.1238L201.9600,277.1995L220.3200,295.5496L238.6800,311.5484L257.0400,325.5186
            L275.4000,337.7383L293.7600,348.4474L312.1200,357.8526L330.4800,366.1321L348.8400,373.4397L367.2000,379.9080L385.5600,385.6514L403.9200,390.7683L422.2800,395.3440L440.6400,399.4519
            L459.0000,403.1552L477.3600,406.5088L495.7200,409.5597L514.0800,412.3488L532.4400,414.9113L550.8000,417.2775L550.8612,417.2848"/>
   <path d="M91.8000,91.8000L110.1600,128.5755L128.5200,161.1746L146.8800,190.0899L165.2400,215.7389L183.6000,238.5218L201.9600,258.7734L220.3200,276.7881L238.6800,292.8256L257.0400,307.1151
            L275.4000,319.8590L293.7600,331.2361L312.1200,341.4041L330.4800,350.5022L348.8400,358.6534L367.2000,365.9663L385.5600,372.5367L403.9200,378.4495L422.2800,383.7793L440.6400,388.5923
            L459.0000,392.9467L477.3600,396.8943L495.7200,400.4806L514.0800,403.7459L532.4400,406.7258L550.8000,409.4519L550.8612,409.4602"/>
   <path d="M91.8000,91.8000L110.1600,120.7812L128.5200,147.1810L146.8800,171.2395L165.2400,193.1631L183.6000,213.1564L201.9600,231.3986L220.3200,248.0496L238.6800,263.2544L257.0400,277.1448
            L275.4000,289.8404L293.7600,301.4498L312.1200,312.0717L330.4800,321.7958L348.8400,330.7032L367.2000,338.8680L385.5600,346.3573L403.9200,353.2319L422.2800,359.5474L440.6400,365.3539
            L459.0000,370.6973L477.3600,375.6191L495.7200,380.1570L514.0800,384.3454L532.4400,388.2153L550.8000,391.7952L550.8612,391.8063"/>
   <path d="M91.8000,91.8000L110.1600,123.0980L128.5200,151.4423L146.8800,177.1253L165.2400,200.3998L183.6000,221.5153L201.9600,240.6850L220.3200,258.0993L238.6800,273.9296L257.0400,288.3305
            L275.4000,301.4412L293.7600,313.3874L312.1200,324.2820L330.4800,334.2271L348.8400,343.3144L367.2000,351.6270L385.5600,359.2393L403.9200,366.2188L422.2800,372.6262L440.6400,378.5162
            L459.0000,383.9382L477.3600,388.9366L495.7200,393.5517L514.0800,397.8198L532.4400,401.7735L550.8000,405.4422L550.8612,405.4536"/>
   <path d="M91.8000,91.8000L110.1600,121.7600L128.5200,149.1232L146.8800,174.1357L165.2400,197.0052L183.6000,217.9366L201.9600,237.1120L220.3200,254.6930L238.6800,270.8263L257.0400,285.6454
            L275.4000,299.2712L293.7600,311.8136L312.1200,323.3726L330.4800,334.0386L348.8400,343.8941L367.2000,353.0138L385.5600,361.4654L403.9200,369.3108L422.2800,376.6057L440.6400,383.4010
            L459.0000,389.7429L477.3600,395.6731L495.7200,401.2298L514.0800,406.4475L532.4400,411.3574L550.8000,415.9882L550.8612,416.0028"/>
   <path d="M91.8000,91.8000L110.1600,123.5411L128.5200,152.1294L146.8800,177.8893L165.2400,201.0980L183.6000,222.0264L201.9600,240.9080L220.3200,257.9494L238.6800,273.3366L257.0400,287.2363
            L275.4000,299.7983L293.7600,311.1572L312.1200,321.4339L330.4800,330.7370L348.8400,339.1640L367.2000,346.8025L385.5600,353.7312L403.9200,360.0209L422.2800,365.7350L440.6400,370.9307
            L459.0000,375.6594L477.3600,379.9672L495.7200,383.8954L514.0800,387.4816L532.4400,390.7590L550.8000,393.7580L550.8612,393.7672"/>
   <path d="M91.8000,91.8000L110.1600,113.2054L128.5200,133.2813L146.8800,152.1190L165.2400,169.7950L183.6000,186.3904L201.9600,201.9779L220.3200,216.6235L238.6800,230.3889L257.0400,243.3317
            L275.4000,255.5056L293.7600,266.9606L312.1200,277.7435L330.4800,287.8980L348.8400,297.4648L367.2000,306.4819L385.5600,314.9849L403.9200,323.0068L422.2800,330.5787L440.6400,337.7294
            L459.0000,344.4859L477.3600,350.8735L495.7200,356.9156L514.0800,362.6342L532.4400,368.0499L550.8000,373.1819L550.8612,373.1982"/>
   <path d="M91.8000,91.8000L110.1600,142.6399L128.5200,185.4062L146.8800,221.4101L165.2400,251.7362L183.6000,277.3421L201.9600,298.9923L220.3200,317.3269L238.6800,332.8821L257.0400,346.1065
            L275.4000,357.3762L293.7600,367.0058L312.1200,375.2588L330.4800,382.3557L348.8400,388.4813L367.2000,393.7904L385.5600,398.4124L403.9200,402.4558L422.2800,406.0116L440.6400,409.1558
            L459.0000,411.9522L477.3600,414.4544L495.7200,416.7071L514.0800,418.7479L532.4400,420.6083L550.8000,422.3149L550.8612,422.3202"/>
   <path d="M91.8000,91.8000L110.1600,126.7142L128.5200,158.0702L146.8800,186.2534L165.2400,211.5992L183.6000,234.4331L201.9600,255.0282L220.3200,273.6275L238.6800,290.4474L257.0400,305.6810
            L275.4000,319.5005L293.7600,332.0594L312.1200,343.4947L330.4800,353.9285L348.8400,363.4697L367.2000,372.2154L385.5600,380.2524L403.9200,387.6578L422.2800,394.5005L440.6400,400.8420
            L459.0000,406.7372L477.3600,412.2349L495.7200,417.3788L514.0800,422.2076L532.4400,426.7562L550.8000,431.0554L550.8612,431.0690"/>
   <path d="M91.8000,91.8000L110.1600,132.2223L128.5200,167.6874L146.8800,198.8246L165.2400,226.1728L183.6000,250.2382L201.9600,271.4367L220.3200,290.1316L238.6800,306.6397L257.0400,321.2375
            L275.4000,334.1663L293.7600,345.6366L312.1200,355.8322L330.4800,364.9134L348.8400,373.0200L367.2000,380.2742L385.5600,386.7825L403.9200,392.6379L422.2800,397.9215L440.6400,402.7042
            L459.0000,407.0478L477.3600,411.0063L495.7200,414.6268L514.0800,417.9504L532.4400,421.0130L550.8000,423.8460L550.8612,423.8548"/>
   <path d="M91.8000,91.8000L110.1600,139.3975L128.5200,180.0468L146.8800,214.7965L165.2400,244.5256L183.6000,270.0246L201.9600,291.9314L220.3200,310.7876L238.6800,327.0532L257.0400,341.1185
            L275.4000,353.3150L293.7600,363.9240L312.1200,373.1843L330.4800,381.2987L348.8400,388.4394L367.2000,394.7526L385.5600,400.3624L403.9200,405.3740L422.2800,409.8772L440.6400,413.9477
            L459.0000,417.6502L477.3600,421.0395L495.7200,424.1623L514.0800,427.0580L532.4400,429.7603L550.8000,432.2979L550.8612,432.3059"/>
   <path d="M91.8000,91.8000L110.1600,127.1098L128.5200,158.8597L146.8800,187.4410L165.2400,213.1906L183.6000,236.4364L201.9600,257.4536L220.3200,276.4865L238.6800,293.7532L257.0400,309.4478
            L275.4000,323.7435L293.7600,336.7947L312.1200,348.7387L330.4800,359.6984L348.8400,369.7829L367.2000,379.0896L385.5600,387.7054L403.9200,395.7077L422.2800,403.1654L440.6400,410.1400
            L459.0000,416.6864L477.3600,422.8534L495.7200,428.6845L514.0800,434.2186L532.4400,439.4902L550.8000,444.5301L550.8612,444.5462"/>
   <path d="M91.8000,91.8000L110.1600,136.8650L128.5200,176.0336L146.8800,210.1340L165.2400,239.8615L183.6000,265.8584L201.9600,288.6482L220.3200,308.6818L238.6800,326.3476L257.0400,341.9797
            L275.4000,355.8663L293.7600,368.2552L312.1200,379.3599L330.4800,389.3641L348.8400,398.4262L367.2000,406.6823L385.5600,414.2498L403.9200,421.2296L422.2800,427.7089L440.6400,433.7623
            L459.0000,439.4545L477.3600,444.8409L495.7200,449.9693L514.0800,454.8811L532.4400,459.6116L550.8000,464.1914L550.8612,464.2062"/>
   <path d="M91.8000,91.8000L110.1600,129.7556L128.5200,163.3187L146.8800,193.0162L165.2400,219.2977L183.6000,242.5877L201.9600,263.2446L220.3200,281.5812L238.6800,297.8726L257.0400,312.3611
            L275.4000,325.2599L293.7600,336.7568L312.1200,347.0170L330.4800,356.1859L348.8400,364.3915L367.2000,371.7464L385.5600,378.3499L403.9200,384.2892L422.2800,389.6413L440.6400,394.4737
            L459.0000,398.8460L477.3600,402.8108L495.7200,406.4141L514.0800,409.6967L532.4400,412.6944L550.8000,415.4388L550.8612,415.4472"/>
   <path d="M91.8000,91.8000L110.1600,124.2022L128.5200,153.7114L146.8800,180.6152L165.2400,205.1629L183.6000,227.5995L201.9600,248.1360L220.3200,266.9606L238.6800,284.2431L257.0400,300.1365
            L275.4000,314.7790L293.7600,328.2951L312.1200,340.7972L330.4800,352.3864L348.8400,363.1542L367.2000,373.1827L385.5600,382.5463L403.9200,391.3117L422.2800,399.5392L440.6400,407.2830
            L459.0000,414.5920L477.3600,421.5102L495.7200,428.0772L514.0800,434.3285L532.4400,440.2963L550.8000,446.0094L550.8612,446.0277"/>
   <path d="M91.8000,91.8000L110.1600,138.8388L128.5200,179.3423L146.8800,214.2624L165.2400,244.4011L183.6000,270.4865L201.9600,293.1085L220.3200,312.7710L238.6800,329.9041L257.0400,344.8753
            L275.4000,357.9980L293.7600,369.5400L312.1200,379.7298L330.4800,388.7625L348.8400,396.8044L367.2000,403.9977L385.5600,410.4636L403.9200,416.3055L422.2800,421.6118L440.6400,426.4578
            L459.0000,430.9078L477.3600,435.0166L495.7200,438.8312L514.0800,442.3915L532.4400,445.7316L550.8000,448.8806L550.8612,448.8906"/>
   <path d="M91.8000,91.8000L110.1600,129.6471L128.5200,163.1756L146.8800,192.9022L165.2400,219.2663L183.6000,242.6854L201.9600,263.5099L220.3200,282.0462L238.6800,298.5644L257.0400,313.3022
            L275.4000,326.4688L293.7600,338.2488L312.1200,348.8042L330.4800,358.2781L348.8400,366.7962L367.2000,374.4695L385.5600,381.3954L403.9200,387.6598L422.2800,393.3385L440.6400,398.4982
            L459.0000,403.1974L477.3600,407.4880L495.7200,411.4155L514.0800,415.0201L532.4400,418.3371L550.8000,421.3977L550.8612,421.4071"/>
   <path d="M91.8000,91.8000L110.1600,127.1125L128.5200,158.8982L146.8800,187.5372L165.2400,213.3598L183.6000,236.6885L201.9600,257.7923L220.3200,276.9109L238.6800,294.2582L257.0400,310.0252
            L275.4000,324.3822L293.7600,337.4811L312.1200,349.4575L330.4800,360.4323L348.8400,370.5134L367.2000,379.7971L385.5600,388.3692L403.9200,396.3063L422.2800,403.6768L440.6400,410.5416
            L459.0000,416.9550L477.3600,422.9656L495.7200,428.6167L514.0800,433.9467L532.4400,438.9901L550.8000,443.7775L550.8612,443.7927"/>
   <path d="M91.8000,91.8000L110.1600,136.4567L128.5200,174.9517L146.8800,208.1539L165.2400,236.8091L183.6000,261.5911L201.9600,283.0487L220.3200,301.6521L238.6800,317.8046L257.0400,331.8520
            L275.4000,344.0910L293.7600,354.7758L312.1200,364.1247L330.4800,372.3248L348.8400,379.5368L367.2000,385.8985L385.5600,391.5281L403.9200,396.5273L422.2800,400.9833L440.6400,404.9710
            L459.0000,408.5547L477.3600,411.7896L495.7200,414.7234L514.0800,417.3968L532.4400,419.8450L550.8000,422.0982L550.8612,422.1051"/>
   <path d="M91.8000,91.8000L110.1600,130.0573L128.5200,164.0639L146.8800,194.3203L165.2400,221.2573L183.6000,245.2842L201.9600,266.7440L220.3200,285.9377L238.6800,303.1308L257.0400,318.5574
            L275.4000,332.4239L293.7600,344.9123L312.1200,356.1831L330.4800,366.3779L348.8400,375.6215L367.2000,384.0237L385.5600,391.6818L403.9200,398.6811L422.2800,405.0972L440.6400,410.9964
            L459.0000,416.4374L477.3600,421.4720L495.7200,426.1456L514.0800,430.4985L532.4400,434.5662L550.8000,438.3798L550.8612,438.3918"/>
   <path d="M91.8000,91.8000L110.1600,139.1973L128.5200,179.5195L146.8800,213.8431L165.2400,243.0684L183.6000,268.0034L201.9600,289.2992L220.3200,307.5075L238.6800,323.0961L257.0400,336.4614
            L275.4000,347.9392L293.7600,357.8143L312.1200,366.3280L330.4800,373.6848L348.8400,380.0582L367.2000,385.5951L385.5600,390.4203L403.9200,394.6394L422.2800,398.3420L440.6400,401.6043
            L459.0000,404.4907L477.3600,407.0559L495.7200,409.3465L514.0800,411.4020L532.4400,413.2557L550.8000,414.9363L550.8612,414.9414"/>
   <path d="M91.8000,91.8000L110.1600,131.0061L128.5200,165.5370L146.8800,195.9716L165.2400,222.8009L183.6000,246.4856L201.9600,267.4139L220.3200,285.9229L238.6800,302.3080L257.0400,316.8282
            L275.4000,329.7105L293.7600,341.1540L312.1200,351.3328L330.4800,360.4000L348.8400,368.4894L367.2000,375.7184L385.5600,382.1899L403.9200,387.9942L422.2800,393.2102L440.6400,397.9073
            L459.0000,402.1461L477.3600,405.9801L495.7200,409.4559L514.0800,412.6145L532.4400,415.4918L550.8000,418.1194L550.8612,418.1274"/>
   <path d="M91.8000,91.8000L110.1600,145.9423L128.5200,190.8861L146.8800,228.2196L165.2400,259.2462L183.6000,285.0946L201.9600,306.6572L220.3200,324.6715L238.6800,339.7474L257.0400,352.3891
            L275.4000,363.0133L293.7600,371.9646L312.1200,379.5279L330.4800,385.9388L348.8400,391.3921L367.2000,396.0490L385.5600,400.0428L403.9200,403.4838L422.2800,406.4634L440.6400,409.0571
            L459.0000,411.3276L477.3600,413.3269L495.7200,415.0980L514.0800,416.6767L532.4400,418.0926L550.8000,419.3706L550.8612,419.3745"/>
   <path d="M91.8000,91.8000L110.1600,130.4944L128.5200,164.8345L146.8800,195.3419L165.2400,222.4659L183.6000,246.6351L201.9600,268.2037L220.3200,287.4838L238.6800,304.7499L257.0400,320.2440
            L275.4000,334.1787L293.7600,346.7416L312.1200,358.0975L330.4800,368.3917L348.8400,377.7520L367.2000,386.2910L385.5600,394.1077L403.9200,401.2895L422.2800,407.9131L440.6400,414.0460
            L459.0000,419.7480L477.3600,425.0713L495.7200,430.0621L514.0800,434.7611L532.4400,439.2040L550.8000,443.4224L550.8612,443.4358"/>
   <path d="M91.8000,91.8000L110.1600,143.9200L128.5200,187.4613L146.8800,223.8646L165.2400,254.3081L183.6000,279.8278L201.9600,301.2460L220.3200,319.2474L238.6800,334.4016L257.0400,347.1831
            L275.4000,357.9865L293.7600,367.1404L312.1200,374.9183L330.4800,381.5477L348.8400,387.2181L367.2000,392.0872L385.5600,396.2862L403.9200,399.9246L422.2800,403.0933L440.6400,405.8680
            L459.0000,408.3120L477.3600,410.4778L495.7200,412.4094L514.0800,414.1432L532.4400,415.7098L550.8000,417.1346L550.8612,417.1390"/>
   <path d="M91.8000,91.8000L110.1600,130.6167L128.5200,164.7851L146.8800,194.8796L165.2400,221.3884L183.6000,244.7698L201.9600,265.4094L220.3200,283.6424L238.6800,299.7625L257.0400,314.0275
            L275.4000,326.6631L293.7600,337.8673L312.1200,347.8136L330.4800,356.6542L348.8400,364.5225L367.2000,371.5354L385.5600,377.7955L403.9200,383.3926L422.2800,388.4057L440.6400,392.9038
            L459.0000,396.9475L477.3600,400.5901L495.7200,403.8782L514.0800,406.8528L532.4400,409.5498L550.8000,412.0007L550.8612,412.0082"/>
   <path d="M91.8000,91.8000L110.1600,129.5367L128.5200,163.3669L146.8800,193.7375L165.2400,221.0276L183.6000,245.6015L201.9600,267.7680L220.3200,287.7986L238.6800,305.9340L257.0400,322.3875
            L275.4000,337.3483L293.7600,350.9840L312.1200,363.4430L330.4800,374.8569L348.8400,385.3421L367.2000,395.0016L385.5600,403.9268L403.9200,412.1984L422.2800,419.8877L440.6400,427.0579
            L459.0000,433.7648L477.3600,440.0578L495.7200,445.9804L514.0800,451.5710L532.4400,456.8638L550.8000,461.8887L550.8612,461.9047"/>
   <path d="M91.8000,91.8000L110.1600,131.8780L128.5200,167.2858L146.8800,198.6068L165.2400,226.3369L183.6000,250.9438L201.9600,272.8170L220.3200,292.2962L238.6800,309.6788L257.0400,325.2254
            L275.4000,339.1642L293.7600,351.6950L312.1200,362.9927L330.4800,373.2105L348.8400,382.4825L367.2000,390.9260L385.5600,398.6439L403.9200,405.7260L422.2800,412.2511L440.6400,418.2880
            L459.0000,423.8970L477.3600,429.1308L495.7200,434.0357L514.0800,438.6519L532.4400,443.0149L550.8000,447.1554L550.8612,447.1686"/>
   <path d="M91.8000,91.8000L110.1600,145.5520L128.5200,190.1543L146.8800,227.1885L165.2400,257.9446L183.6000,283.5444L201.9600,304.8744L220.3200,322.6680L238.6800,337.5316L257.0400,349.9668
            L275.4000,360.3884L293.7600,369.1395L312.1200,376.5038L330.4800,382.7160L348.8400,387.9702L367.2000,392.4269L385.5600,396.2190L403.9200,399.4563L422.2800,402.2298L440.6400,404.6149
            L459.0000,406.6738L477.3600,408.4582L495.7200,410.0108L514.0800,411.3672L532.4400,412.5567L550.8000,413.6038L550.8612,413.6069"/>
   <path d="M91.8000,91.8000L110.1600,129.1421L128.5200,162.2700L146.8800,191.6794L165.2400,217.7919L183.6000,241.0084L201.9600,261.6679L220.3200,280.0669L238.6800,296.4671L257.0400,311.0994
            L275.4000,324.1676L293.7600,335.8518L312.1200,346.3105L330.4800,355.6840L348.8400,364.0958L367.2000,371.6550L385.5600,378.4579L403.9200,384.5893L422.2800,390.1242L440.6400,395.1287
            L459.0000,399.6611L477.3600,403.7728L495.7200,407.5093L514.0800,410.9107L532.4400,414.0122L550.8000,416.8451L550.8612,416.8537"/>
   <path d="M91.8000,91.8000L110.1600,131.6550L128.5200,167.0089L146.8800,198.4045L165.2400,226.3056L183.6000,251.1497L201.9600,273.3042L220.3200,293.0896L238.6800,310.7875L257.0400,326.6451
            L275.4000,340.8797L293.7600,353.6821L312.1200,365.2196L330.4800,375.6395L348.8400,385.0707L367.2000,393.6266L385.5600,401.4069L403.9200,408.4989L422.2800,414.9793L440.6400,420.9155
            L459.0000,426.3668L477.3600,431.3852L495.7200,436.0164L514.0800,440.3008L532.4400,444.2736L550.8000,447.9660L550.8612,447.9775"/>
   <path d="M91.8000,91.8000L110.1600,128.7598L128.5200,161.9385L146.8800,191.7598L165.2400,218.5913L183.6000,242.7858L201.9600,264.6409L220.3200,284.4195L238.6800,302.3551L257.0400,318.6554
            L275.4000,333.5047L293.7600,347.0669L312.1200,359.4875L330.4800,370.8958L348.8400,381.4066L367.2000,391.1219L385.5600,400.1323L403.9200,408.5183L422.2800,416.3512L440.6400,423.6945
            L459.0000,430.6045L477.3600,437.1311L495.7200,443.3188L514.0800,449.2070L532.4400,454.8305L550.8000,460.2204L550.8612,460.2377"/>
   <path d="M91.8000,91.8000L110.1600,121.8253L128.5200,149.4392L146.8800,174.8621L165.2400,198.2848L183.6000,219.8975L201.9600,239.8664L220.3200,258.3407L238.6800,275.4561L257.0400,291.3363
            L275.4000,306.0938L293.7600,319.8313L312.1200,332.6420L330.4800,344.6110L348.8400,355.8158L367.2000,366.3269L385.5600,376.2084L403.9200,385.5189L422.2800,394.3116L440.6400,402.6348
            L459.0000,410.5328L477.3600,418.0456L495.7200,425.2097L514.0800,432.0586L532.4400,438.6223L550.8000,444.9285L550.8612,444.9487"/>
   <path d="M91.8000,91.8000L110.1600,134.3653L128.5200,171.7763L146.8800,204.7053L165.2400,233.7270L183.6000,259.3783L201.9600,282.1003L220.3200,302.2766L238.6800,320.2411L257.0400,336.2839
            L275.4000,350.6574L293.7600,363.5812L312.1200,375.2461L330.4800,385.8180L348.8400,395.4413L367.2000,404.2412L385.5600,412.3266L403.9200,419.7923L422.2800,426.7204L440.6400,433.1823
            L459.0000,439.2401L477.3600,444.9476L495.7200,450.3514L514.0800,455.4921L532.4400,460.4048L550.8000,465.1200L550.8612,465.1351"/>
   <path d="M91.8000,91.8000L110.1600,136.2262L128.5200,174.5803L146.8800,207.7140L165.2400,236.3516L183.6000,261.1535L201.9600,282.6576L220.3200,301.3261L238.6800,317.5557L257.0400,331.6875
            L275.4000,344.0142L293.7600,354.7873L312.1200,364.2230L330.4800,372.5068L348.8400,379.7982L367.2000,386.2342L385.5600,391.9324L403.9200,396.9940L422.2800,401.5059L440.6400,405.5427
            L459.0000,409.1687L477.3600,412.4389L495.7200,415.4008L514.0800,418.0951L532.4400,420.5570L550.8000,422.8164L550.8612,422.8234"/>
   <path d="M91.8000,91.8000L110.1600,136.0759L128.5200,174.2369L146.8800,207.1478L165.2400,235.5346L183.6000,260.0627L201.9600,281.2753L220.3200,299.6381L238.6800,315.5509L257.0400,329.3570
            L275.4000,341.3509L293.7600,351.7859L312.1200,360.8792L330.4800,368.8173L348.8400,375.7604L367.2000,381.8462L385.5600,387.1928L403.9200,391.9016L422.2800,396.0598L440.6400,399.7423
            L459.0000,403.0134L477.3600,405.9285L495.7200,408.5350L514.0800,410.8739L532.4400,412.9802L550.8000,414.8842L550.8612,414.8900"/>
   <path d="M91.8000,91.8000L110.1600,136.7208L128.5200,175.6698L146.8800,209.4776L165.2400,238.8419L183.6000,264.4065L201.9600,286.6960L220.3200,306.1617L238.6800,323.1921L257.0400,338.1216
            L275.4000,351.2375L293.7600,362.7876L312.1200,372.9846L330.4800,382.0118L348.8400,390.0268L367.2000,397.1651L385.5600,403.5436L403.9200,409.2625L422.2800,414.4085L440.6400,419.0558
            L459.0000,423.2685L477.3600,427.1019L495.7200,430.6036L514.0800,433.8144L532.4400,436.7698L550.8000,439.5003L550.8612,439.5087"/>
   <path d="M91.8000,91.8000L110.1600,131.3473L128.5200,166.1600L146.8800,196.8325L165.2400,223.8703L183.6000,247.7503L201.9600,268.8674L220.3200,287.5660L238.6800,304.1476L257.0400,318.8757
            L275.4000,331.9808L293.7600,343.6647L312.1200,354.1036L330.4800,363.4518L348.8400,371.8442L367.2000,379.3989L385.5600,386.2189L403.9200,392.3946L422.2800,398.0049L440.6400,403.1189
            L459.0000,407.7970L477.3600,412.0920L495.7200,416.0501L514.0800,419.7119L532.4400,423.1127L550.8000,426.2835L550.8612,426.2934"/>
   <path d="M91.8000,91.8000L110.1600,139.0488L128.5200,179.4896L146.8800,214.1410L165.2400,243.8522L183.6000,269.3916L201.9600,291.3802L220.3200,310.3464L238.6800,326.7393L257.0400,340.9412
            L275.4000,353.2771L293.7600,364.0232L312.1200,373.4148L330.4800,381.6517L348.8400,388.9039L367.2000,395.3160L385.5600,401.0108L403.9200,406.0931L422.2800,410.6515L440.6400,414.7620
            L459.0000,418.4886L477.3600,421.8862L495.7200,425.0014L514.0800,427.8738L532.4400,430.5371L550.8000,433.0200L550.8612,433.0278"/>
   <path d="M91.8000,91.8000L110.1600,125.9295L128.5200,156.6979L146.8800,184.4617L165.2400,209.5246L183.6000,232.1812L201.9600,252.6857L220.3200,271.2622L238.6800,288.1118L257.0400,303.4141
            L275.4000,317.3301L293.7600,330.0039L312.1200,341.5644L330.4800,352.1270L348.8400,361.7950L367.2000,370.6608L385.5600,378.8071L403.9200,386.3078L422.2800,393.2291L440.6400,399.6303
            L459.0000,405.5644L477.3600,411.0787L495.7200,416.2156L514.0800,421.0131L532.4400,425.5050L550.8000,429.7217L550.8612,429.7349"/>
   <path d="M91.8000,91.8000L91.8000,550.8000L550.8000,550.8000L550.8000,91.8000z"/>
  </g>
 </g>
</svg>
