<?xml version="1.0" encoding="ISO-8859-1"?>
<!DOCTYPE svg PUBLIC "-//W3C//DTD SVG 1.0//EN" "http://www.w3.org/TR/2001/REC-SVG-20010904/DTD/svg10.dtd">
<!-- generated by Grace-5.1.25 -->
<svg xml:space="preserve" width="11.0000in" height="8.5000in" viewBox="0.0000 0.0000 792.0000 612.0000">
 <g transform="translate(0,612.0000) scale(1,-1)">
  <g style="fill:#FFFFFF; fill-rule:nonzero">
   <path  d="M0.0000,0.0000L0.0000,612.0000L792.0000,612.0000L792.0000,0.0000z"/>
  </g>
  <g style="fill:none; stroke:#000000; stroke-width:  0.9180; stroke-linecap:butt; stroke-linejoin:miter; stroke-dasharray:none">
   <path d="M91.8000,91.8000L110.1600,124.3014L128.5200,153.8152L146.8800,180.6483L165.2400,205.0687L183.6000,227.3385L201.9600,247.6766L220.3200,266.2788L238.6800,283.3206L257.0400,298.9588
            L275.4000,313.3341L293.7600,326.5722L312.1200,338.7861L330.4800,350.0767L348.8400,360.5346L367.2000,370.2410L385.5600,379.2686L403.9200,387.6828L422.2800,395.5421L440.6400,402.8990
            L459.0000,409.8007L477.3600,416.2895L495.7200,422.4035L514.0800,428.1769L532.4400,433.6402L550.8000,438.8211L550.8612,438.8376"/>
   <path d="M91.8000,91.8000L110.1600,123.3659L128.5200,152.1752L146.8800,178.4937L165.2400,202.5568L183.6000,224.5974L201.9600,244.8137L220.3200,263.3838L238.6800,280.4691L257.0400,296.2155
            L275.4000,310.7551L293.7600,324.2074L312.1200,336.6806L330.4800,348.2729L348.8400,359.0730L367.2000,369.1612L385.5600,378.6105L403.9200,387.4868L422.2800,395.8500L440.6400,403.7544
            L459.0000,411.2492L477.3600,418.3792L495.7200,425.1847L514.0800,431.7028L532.4400,437.9668L550.8000,444.0072L550.8612,444.0266"/>
   <path d="M91.8000,91.8000L110.1600,116.9224L128.5200,140.2950L146.8800,162.0523L165.2400,182.3077L183.6000,201.1791L201.9600,218.7713L220.3200,235.1790L238.6800,250.4896L257.0400,264.7841
            L275.4000,278.1372L293.7600,290.6182L312.1200,302.2910L330.4800,313.2148L348.8400,323.4441L367.2000,333.0297L385.5600,342.0182L403.9200,350.4528L422.2800,358.3737L440.6400,365.8177
            L459.0000,372.8191L477.3600,379.4095L495.7200,385.6182L514.0800,391.4722L532.4400,396.9968L550.8000,402.2149L550.8612,402.2314"/>
   <path d="M91.8000,91.8000L110.1600,124.1152L128.5200,153.3339L146.8800,179.7686L165.2400,203.6912L183.6000,225.3678L201.9600,245.0254L220.3200,262.8662L238.6800,279.0720L257.0400,293.8059
            L275.4000,307.2147L293.7600,319.4304L312.1200,330.5716L330.4800,340.7447L348.8400,350.0455L367.2000,358.5601L385.5600,366.3659L403.9200,373.5325L422.2800,380.1224L440.6400,386.1919
            L459.0000,391.7916L477.3600,396.9669L495.7200,401.7587L514.0800,406.2038L532.4400,410.3354L550.8000,414.1832L550.8612,414.1952"/>
   <path d="M91.8000,91.8000L110.1600,122.3524L128.5200,150.4647L146.8800,176.3589L165.2400,200.2301L183.6000,222.2754L201.9600,242.6619L220.3200,261.5413L238.6800,279.0514L257.0400,295.3176
            L275.4000,310.4541L293.7600,324.5649L312.1200,337.7443L330.4800,350.0785L348.8400,361.6455L367.2000,372.5167L385.5600,382.7566L403.9200,392.4243L422.2800,401.5731L440.6400,410.2518
            L459.0000,418.5047L477.3600,426.3719L495.7200,433.8900L514.0800,441.0922L532.4400,448.0086L550.8000,454.6667L550.8612,454.6881"/>
   <path d="M91.8000,91.8000L110.1600,114.8267L128.5200,136.4374L146.8800,156.7314L165.2400,175.7926L183.6000,193.7072L201.9600,210.5546L220.3200,226.4063L238.6800,241.3287L257.0400,255.3839
            L275.4000,268.6298L293.7600,281.1200L312.1200,292.9049L330.4800,304.0310L348.8400,314.5420L367.2000,324.4783L385.5600,333.8778L403.9200,342.7755L422.2800,351.2043L440.6400,359.1946
            L459.0000,366.7749L477.3600,373.9717L495.7200,380.8095L514.0800,387.3113L532.4400,393.4986L550.8000,399.3912L550.8612,399.4099"/>
   <path d="M91.8000,91.8000L110.1600,128.5362L128.5200,161.2412L146.8800,190.3741L165.2400,216.3406L183.6000,239.5251L201.9600,260.2470L220.3200,278.7890L238.6800,295.4010L257.0400,310.3040
            L275.4000,323.6937L293.7600,335.7430L312.1200,346.6052L330.4800,356.4156L348.8400,365.2942L367.2000,373.3472L385.5600,380.6683L403.9200,387.3410L422.2800,393.4386L440.6400,399.0266
            L459.0000,404.1624L477.3600,408.8974L495.7200,413.2766L514.0800,417.3403L532.4400,421.1238L550.8000,424.6587L550.8612,424.6697"/>
   <path d="M91.8000,91.8000L110.1600,136.8457L128.5200,175.6980L146.8800,209.2336L165.2400,238.2097L183.6000,263.3048L201.9600,285.0724L220.3200,303.9860L238.6800,320.4517L257.0400,334.8171
            L275.4000,347.3801L293.7600,358.3960L312.1200,368.0836L330.4800,376.6305L348.8400,384.1974L367.2000,390.9223L385.5600,396.9235L403.9200,402.3023L422.2800,407.1457L440.6400,411.5286
            L459.0000,415.5148L477.3600,419.1596L495.7200,422.5099L514.0800,425.6065L532.4400,428.4841L550.8000,431.1727L550.8612,431.1811"/>
   <path d="M91.8000,91.8000L110.1600,123.5587L128.5200,152.5102L146.8800,178.9251L165.2400,203.0442L183.6000,225.1059L201.9600,245.3104L220.3200,263.8381L238.6800,280.8521L257.0400,296.4998
            L275.4000,310.9140L293.7600,324.2149L312.1200,336.5110L330.4800,347.9001L348.8400,358.4709L367.2000,368.3031L385.5600,377.4692L403.9200,386.0342L422.2800,394.0572L440.6400,401.5913
            L459.0000,408.6847L477.3600,415.3808L495.7200,421.7188L514.0800,427.7342L532.4400,433.4589L550.8000,438.9219L550.8612,438.9393"/>
   <path d="M91.8000,91.8000L110.1600,124.3628L128.5200,153.8081L146.8800,180.4492L165.2400,204.5662L183.6000,226.4315L201.9600,246.2737L220.3200,264.2976L238.6800,280.6872L257.0400,295.6078
            L275.4000,309.2076L293.7600,321.6199L312.1200,332.9643L330.4800,343.3485L348.8400,352.8689L367.2000,361.6123L385.5600,369.6568L403.9200,377.0724L422.2800,383.9221L440.6400,390.2625
            L459.0000,396.1445L477.3600,401.6138L495.7200,406.7116L514.0800,411.4747L532.4400,415.9364L550.8000,420.1267L550.8612,420.1398"/>
   <path d="M91.8000,91.8000L110.1600,132.9655L128.5200,169.0033L146.8800,200.5762L165.2400,228.2530L183.6000,252.5645L201.9600,273.9463L220.3200,292.7773L238.6800,309.3872L257.0400,324.0630
            L275.4000,337.0542L293.7600,348.5780L312.1200,358.8231L330.4800,367.9541L348.8400,376.1140L367.2000,383.4271L385.5600,390.0018L403.9200,395.9324L422.2800,401.3008L440.6400,406.1786
            L459.0000,410.6277L477.3600,414.7024L495.7200,418.4497L514.0800,421.9107L532.4400,425.1212L550.8000,428.1121L550.8612,428.1215"/>
   <path d="M91.8000,91.8000L110.1600,118.0917L128.5200,142.5273L146.8800,165.2574L165.2400,186.4115L183.6000,206.1207L201.9600,224.5030L220.3200,241.6641L238.6800,257.7016L257.0400,272.7055
            L275.4000,286.7586L293.7600,299.9374L312.1200,312.3122L330.4800,323.9481L348.8400,334.9047L367.2000,345.2373L385.5600,354.9968L403.9200,364.2299L422.2800,372.9799L440.6400,381.2866
            L459.0000,389.1867L477.3600,396.7139L495.7200,403.8996L514.0800,410.7724L532.4400,417.3588L550.8000,423.6832L550.8612,423.7034"/>
   <path d="M91.8000,91.8000L110.1600,129.8252L128.5200,163.6910L146.8800,193.8877L165.2400,220.8384L183.6000,244.9485L201.9600,266.5536L220.3200,285.9502L238.6800,303.3999L257.0400,319.1335
            L275.4000,333.3550L293.7600,346.2442L312.1200,357.9599L330.4800,368.6424L348.8400,378.4153L367.2000,387.3880L385.5600,395.6567L403.9200,403.3066L422.2800,410.4129L440.6400,417.0418
            L459.0000,423.2518L477.3600,429.0946L495.7200,434.6158L514.0800,439.8556L532.4400,444.8496L550.8000,449.6291L550.8612,449.6444"/>
   <path d="M91.8000,91.8000L110.1600,115.1995L128.5200,137.1559L146.8800,157.7692L165.2400,177.1258L183.6000,195.3166L201.9600,212.4220L220.3200,228.5156L238.6800,243.6655L257.0400,257.9354
            L275.4000,271.3843L293.7600,284.0675L312.1200,296.0361L330.4800,307.3380L348.8400,318.0174L367.2000,328.1159L385.5600,337.6720L403.9200,346.7214L422.2800,355.2976L440.6400,363.4317
            L459.0000,371.1526L477.3600,378.4873L495.7200,385.4609L514.0800,392.0967L532.4400,398.4165L550.8000,404.4406L550.8612,404.4598"/>
   <path d="M91.8000,91.8000L110.1600,117.0602L128.5200,140.6141L146.8800,162.5940L165.2400,183.1132L183.6000,202.2891L201.9600,220.2253L220.3200,237.0159L238.6800,252.7477L257.0400,267.5011
            L275.4000,281.3503L293.7600,294.3639L312.1200,306.6056L330.4800,318.1339L348.8400,329.0030L367.2000,339.2632L385.5600,348.9606L403.9200,358.1382L422.2800,366.8356L440.6400,375.0892
            L459.0000,382.9330L477.3600,390.3981L495.7200,397.5134L514.0800,404.3056L532.4400,410.7993L550.8000,417.0173L550.8612,417.0372"/>
   <path d="M91.8000,91.8000L110.1600,119.9423L128.5200,145.7952L146.8800,169.5591L165.2400,191.4033L183.6000,211.4977L201.9600,229.9936L220.3200,247.0260L238.6800,262.7183L257.0400,277.1832
            L275.4000,290.5239L293.7600,302.8346L312.1200,314.2011L330.4800,324.7024L348.8400,334.4101L367.2000,343.3899L385.5600,351.7020L403.9200,359.4012L422.2800,366.5375L440.6400,373.1568
            L459.0000,379.3009L477.3600,385.0082L495.7200,390.3135L514.0800,395.2488L532.4400,399.8434L550.8000,404.1239L550.8612,404.1372"/>
   <path d="M91.8000,91.8000L110.1600,124.0822L128.5200,153.2079L146.8800,179.4960L165.2400,203.2277L183.6000,224.6799L201.9600,244.0836L220.3200,261.6464L238.6800,277.5546L257.0400,291.9752
            L275.4000,305.0585L293.7600,316.9393L312.1200,327.7385L330.4800,337.5649L348.8400,346.5161L367.2000,354.6799L385.5600,362.1350L403.9200,368.9524L422.2800,375.1955L440.6400,380.9216
            L459.0000,386.1821L477.3600,391.0231L495.7200,395.4863L514.0800,399.6089L532.4400,403.4245L550.8000,406.9634L550.8612,406.9744"/>
   <path d="M91.8000,91.8000L110.1600,125.9173L128.5200,156.5752L146.8800,184.1433L165.2400,208.9400L183.6000,231.2736L201.9600,251.4071L220.3200,269.5734L238.6800,285.9802L257.0400,300.8134
            L275.4000,314.2390L293.7600,326.4053L312.1200,337.4447L330.4800,347.4757L348.8400,356.6040L367.2000,364.9241L385.5600,372.5206L403.9200,379.4689L422.2800,385.8364L440.6400,391.6833
            L459.0000,397.0637L477.3600,402.0255L495.7200,406.6119L514.0800,410.8612L532.4400,414.8080L550.8000,418.4830L550.8612,418.4944"/>
   <path d="M91.8000,91.8000L110.1600,121.2931L128.5200,148.2664L146.8800,172.9487L165.2400,195.5397L183.6000,216.2409L201.9600,235.2238L220.3200,252.6431L238.6800,268.6395L257.0400,283.3411
            L275.4000,296.8639L293.7600,309.3139L312.1200,320.7869L330.4800,331.3705L348.8400,341.1439L367.2000,350.1795L385.5600,358.5428L403.9200,366.2936L422.2800,373.4861L440.6400,380.1698
            L459.0000,386.3894L477.3600,392.1858L495.7200,397.5963L514.0800,402.6544L532.4400,407.3910L550.8000,411.8341L550.8612,411.8480"/>
   <path d="M91.8000,91.8000L110.1600,114.9672L128.5200,136.7211L146.8800,157.1591L165.2400,176.3628L183.6000,194.4177L201.9600,211.4019L220.3200,227.3855L238.6800,242.4343L257.0400,256.6092
            L275.4000,269.9673L293.7600,282.5617L312.1200,294.4420L330.4800,305.6544L348.8400,316.2419L367.2000,326.2448L385.5600,335.7004L403.9200,344.6438L422.2800,353.1074L440.6400,361.1218
            L459.0000,368.7152L477.3600,375.9142L495.7200,382.7433L514.0800,389.2255L532.4400,395.3825L550.8000,401.2342L550.8612,401.2528"/>
   <path d="M91.8000,91.8000L110.1600,117.1374L128.5200,140.6442L146.8800,162.4614L165.2400,182.7118L183.6000,201.5228L201.9600,219.0048L220.3200,235.2585L238.6800,250.3770L257.0400,264.4457
            L275.4000,277.5439L293.7600,289.7444L312.1200,301.1147L330.4800,311.7170L348.8400,321.6086L367.2000,330.8425L385.5600,339.4677L403.9200,347.5292L422.2800,355.0690L440.6400,362.1254
            L459.0000,368.7340L477.3600,374.9278L495.7200,380.7371L514.0800,386.1900L532.4400,391.3123L550.8000,396.1280L550.8612,396.1432"/>
   <path d="M91.8000,91.8000L110.1600,116.0112L128.5200,138.6543L146.8800,159.8487L165.2400,179.6953L183.6000,198.3002L201.9600,215.7568L220.3200,232.1499L238.6800,247.5584L257.0400,262.0551
            L275.4000,275.7077L293.7600,288.5787L312.1200,300.7262L330.4800,312.2039L348.8400,323.0618L367.2000,333.3459L385.5600,343.0991L403.9200,352.3609L422.2800,361.1681L440.6400,369.5548
            L459.0000,377.5524L477.3600,385.1902L495.7200,392.4951L514.0800,399.4923L532.4400,406.2050L550.8000,412.6546L550.8612,412.6753"/>
   <path d="M91.8000,91.8000L110.1600,117.4067L128.5200,141.2833L146.8800,163.5644L165.2400,184.3659L183.6000,203.8073L201.9600,221.9941L220.3200,239.0222L238.6800,254.9800L257.0400,269.9490
            L275.4000,284.0047L293.7600,297.2169L312.1200,309.6498L330.4800,321.3630L348.8400,332.4113L367.2000,342.8455L385.5600,352.7124L403.9200,362.0552L422.2800,370.9139L440.6400,379.3254
            L459.0000,387.3236L477.3600,394.9401L495.7200,402.2038L514.0800,409.1416L532.4400,415.7780L550.8000,422.1359L550.8612,422.1563"/>
   <path d="M91.8000,91.8000L110.1600,126.1105L128.5200,156.8797L146.8800,184.4903L165.2400,209.2719L183.6000,231.5424L201.9600,251.5733L220.3200,269.6042L238.6800,285.8492L257.0400,300.4988
            L275.4000,313.7235L293.7600,325.6751L312.1200,336.4891L330.4800,346.2865L348.8400,355.1753L367.2000,363.2516L385.5600,370.6015L403.9200,377.3016L422.2800,383.4204L440.6400,389.0189
            L459.0000,394.1518L477.3600,398.8677L495.7200,403.2100L514.0800,407.2175L532.4400,410.9249L550.8000,414.3632L550.8612,414.3739"/>
   <path d="M91.8000,91.8000L110.1600,126.1919L128.5200,157.3654L146.8800,185.6578L165.2400,211.3591L183.6000,234.7517L201.9600,256.0781L220.3200,275.5533L238.6800,293.3704L257.0400,309.7023
            L275.4000,324.7042L293.7600,338.5154L312.1200,351.2606L330.4800,363.0518L348.8400,373.9892L367.2000,384.1629L385.5600,393.6533L403.9200,402.5327L422.2800,410.8659L440.6400,418.7108
            L459.0000,426.1193L477.3600,433.1381L495.7200,439.8086L514.0800,446.1683L532.4400,452.2505L550.8000,458.0849L550.8612,458.1036"/>
   <path d="M91.8000,91.8000L110.1600,130.5871L128.5200,164.9514L146.8800,195.4284L165.2400,222.4755L183.6000,246.5250L201.9600,267.9400L220.3200,287.0375L238.6800,304.0965L257.0400,319.3623
            L275.4000,333.0506L293.7600,345.3512L312.1200,356.4308L330.4800,366.4362L348.8400,375.4964L367.2000,383.7247L385.5600,391.2211L403.9200,398.0730L422.2800,404.3577L440.6400,410.1429
            L459.0000,415.4883L477.3600,420.4462L495.7200,425.0626L514.0800,429.3782L532.4400,433.4285L550.8000,437.2448L550.8612,437.2568"/>
   <path d="M91.8000,91.8000L110.1600,120.1671L128.5200,146.4347L146.8800,170.7786L165.2400,193.3531L183.6000,214.3156L201.9600,233.8016L220.3200,251.9340L238.6800,268.8256L257.0400,284.5796
            L275.4000,299.2905L293.7600,313.0449L312.1200,325.9225L330.4800,337.9957L348.8400,349.3314L367.2000,359.9905L385.5600,370.0290L403.9200,379.4981L422.2800,388.4447L440.6400,396.9119
            L459.0000,404.9388L477.3600,412.5616L495.7200,419.8133L514.0800,426.7241L532.4400,433.3215L550.8000,439.6310L550.8612,439.6511"/>
   <path d="M91.8000,91.8000L110.1600,127.0648L128.5200,158.8852L146.8800,187.6322L165.2400,213.6301L183.6000,237.1944L201.9600,258.5887L220.3200,278.0477L238.6800,295.7812L257.0400,311.9761
            L275.4000,326.7995L293.7600,340.4002L312.1200,352.9111L330.4800,364.4509L348.8400,375.1253L367.2000,385.0288L385.5600,394.2456L403.9200,402.8509L422.2800,410.9118L440.6400,418.4881
            L459.0000,425.6331L477.3600,432.3946L495.7200,438.8149L514.0800,444.9321L532.4400,450.7798L550.8000,456.3882L550.8612,456.4062"/>
   <path d="M91.8000,91.8000L110.1600,121.0980L128.5200,147.8740L146.8800,172.3547L165.2400,194.7400L183.6000,215.2310L201.9600,233.9982L220.3200,251.1961L238.6800,266.9649L257.0400,281.4321
            L275.4000,294.7135L293.7600,306.9146L312.1200,318.1312L330.4800,328.4505L348.8400,337.9516L367.2000,346.7068L385.5600,354.7814L403.9200,362.2354L422.2800,369.1228L440.6400,375.4931
            L459.0000,381.3913L477.3600,386.8583L495.7200,391.9314L514.0800,396.6445L532.4400,401.0284L550.8000,405.1114L550.8612,405.1241"/>
   <path d="M91.8000,91.8000L110.1600,134.0079L128.5200,171.0104L146.8800,203.4898L165.2400,232.0353L183.6000,257.1917L201.9600,279.4063L220.3200,299.0676L238.6800,316.5132L257.0400,332.0361
            L275.4000,345.8909L293.7600,358.2986L312.1200,369.4514L330.4800,379.5160L348.8400,388.6374L367.2000,396.9414L385.5600,404.5376L403.9200,411.5209L422.2800,417.9738L440.6400,423.9683
            L459.0000,429.5667L477.3600,434.8232L495.7200,439.7848L514.0800,444.4927L532.4400,448.9824L550.8000,453.2849L550.8612,453.2987"/>
   <path d="M91.8000,91.8000L110.1600,118.5706L128.5200,143.3820L146.8800,166.3926L165.2400,187.7394L183.6000,207.5618L201.9600,225.9831L220.3200,243.1143L238.6800,259.0577L257.0400,273.9072
            L275.4000,287.7491L293.7600,300.6630L312.1200,312.7218L330.4800,323.9929L348.8400,334.5381L367.2000,344.4141L385.5600,353.6733L403.9200,362.3638L422.2800,370.5297L440.6400,378.2118
            L459.0000,385.4474L477.3600,392.2709L495.7200,398.7140L514.0800,404.8058L532.4400,410.5730L550.8000,416.0403L550.8612,416.0576"/>
   <path d="M91.8000,91.8000L110.1600,121.9331L128.5200,149.5361L146.8800,174.8439L165.2400,198.0540L183.6000,219.3630L201.9600,238.9446L220.3200,256.9538L238.6800,273.5311L257.0400,288.8047
            L275.4000,302.8909L293.7600,315.8956L312.1200,327.9148L330.4800,339.0361L348.8400,349.3389L367.2000,358.8956L385.5600,367.7718L403.9200,376.0272L422.2800,383.7161L440.6400,390.8879
            L459.0000,397.5873L477.3600,403.8552L495.7200,409.7286L514.0800,415.2411L532.4400,420.4234L550.8000,425.3034L550.8612,425.3187"/>
   <path d="M91.8000,91.8000L110.1600,121.9322L128.5200,149.4309L146.8800,174.5468L165.2400,197.4907L183.6000,218.4719L201.9600,237.6745L220.3200,255.2625L238.6800,271.3846L257.0400,286.1755
            L275.4000,299.7577L293.7600,312.2421L312.1200,323.7293L330.4800,334.3107L348.8400,344.0690L367.2000,353.0793L385.5600,361.4098L403.9200,369.1223L422.2800,376.2729L440.6400,382.9122
            L459.0000,389.0866L477.3600,394.8377L495.7200,400.2036L514.0800,405.2186L532.4400,409.9140L550.8000,414.3181L550.8612,414.3319"/>
   <path d="M91.8000,91.8000L110.1600,113.1596L128.5200,133.2677L146.8800,152.2061L165.2400,170.0435L183.6000,186.8516L201.9600,202.6968L220.3200,217.6388L238.6800,231.7337L257.0400,245.0340
            L275.4000,257.5888L293.7600,269.4441L312.1200,280.6431L330.4800,291.2261L348.8400,301.2309L367.2000,310.6928L385.5600,319.6452L403.9200,328.1190L422.2800,336.1433L440.6400,343.7454
            L459.0000,350.9508L477.3600,357.7834L495.7200,364.2657L514.0800,370.4187L532.4400,376.2621L550.8000,381.8142L550.8612,381.8318"/>
   <path d="M91.8000,91.8000L110.1600,123.9955L128.5200,153.4266L146.8800,180.3584L165.2400,205.0256L183.6000,227.6621L201.9600,248.4640L220.3200,267.6086L238.6800,285.2560L257.0400,301.5509
            L275.4000,316.6241L293.7600,330.5938L312.1200,343.5667L330.4800,355.6393L348.8400,366.8989L367.2000,377.4242L385.5600,387.2866L403.9200,396.5502L422.2800,405.2733L440.6400,413.5084
            L459.0000,421.3030L477.3600,428.6998L495.7200,435.7376L514.0800,442.4514L532.4400,448.8728L550.8000,455.0302L550.8612,455.0499"/>
   <path d="M91.8000,91.8000L110.1600,117.8900L128.5200,142.0602L146.8800,164.4638L165.2400,185.2336L183.6000,204.5059L201.9600,222.4001L220.3200,239.0242L238.6800,254.4775L257.0400,268.8517
            L275.4000,282.2311L293.7600,294.6931L312.1200,306.3091L330.4800,317.1451L348.8400,327.2613L367.2000,336.7137L385.5600,345.5534L403.9200,353.8278L422.2800,361.5803L440.6400,368.8510
            L459.0000,375.6768L477.3600,382.0916L495.7200,388.1268L514.0800,393.8111L532.4400,399.1711L550.8000,404.2312L550.8612,404.2471"/>
   <path d="M91.8000,91.8000L110.1600,118.5993L128.5200,143.4802L146.8800,166.5965L165.2400,188.0815L183.6000,208.0707L201.9600,226.6844L220.3200,244.0308L238.6800,260.2097L257.0400,275.3128
            L275.4000,289.4246L293.7600,302.6228L312.1200,314.9789L330.4800,326.5588L348.8400,337.4232L367.2000,347.6277L385.5600,357.2237L403.9200,366.2585L422.2800,374.7755L440.6400,382.8147
            L459.0000,390.4128L477.3600,397.6039L495.7200,404.4190L514.0800,410.8868L532.4400,417.0336L550.8000,422.8838L550.8612,422.9024"/>
   <path d="M91.8000,91.8000L110.1600,126.4088L128.5200,157.5134L146.8800,185.4885L165.2400,210.6589L183.6000,233.3410L201.9600,253.8007L220.3200,272.2745L238.6800,288.9736L257.0400,304.0863
            L275.4000,317.7811L293.7600,330.2081L312.1200,341.5015L330.4800,351.7811L348.8400,361.1538L367.2000,369.7151L385.5600,377.5502L403.9200,384.7352L422.2800,391.3383L440.6400,397.4199
            L459.0000,403.0345L477.3600,408.2303L495.7200,413.0507L514.0800,417.5342L532.4400,421.7154L550.8000,425.6250L550.8612,425.6372"/>
   <path d="M91.8000,91.8000L110.1600,138.9051L128.5200,179.2716L146.8800,213.8989L165.2400,243.6319L183.6000,269.2302L201.9600,291.3081L220.3200,310.3883L238.6800,326.9154L257.0400,341.2678
            L275.4000,353.7672L293.7600,364.6876L312.1200,374.2619L330.4800,382.6885L348.8400,390.1359L367.2000,396.7478L385.5600,402.6462L403.9200,407.9353L422.2800,412.7034L440.6400,417.0260
            L459.0000,420.9672L477.3600,424.5815L495.7200,427.9157L514.0800,431.0093L532.4400,433.8960L550.8000,436.6047L550.8612,436.6132"/>
   <path d="M91.8000,91.8000L110.1600,117.9891L128.5200,142.3160L146.8800,164.9307L165.2400,185.9628L183.6000,205.5454L201.9600,223.7952L220.3200,240.8181L238.6800,256.7116L257.0400,271.5654
            L275.4000,285.4622L293.7600,298.4783L312.1200,310.6839L330.4800,322.1438L348.8400,332.9174L367.2000,343.0598L385.5600,352.6215L403.9200,361.6491L422.2800,370.1855L440.6400,378.2704
            L459.0000,385.9400L477.3600,393.2279L495.7200,400.1651L514.0800,406.7800L532.4400,413.0988L550.8000,419.1456L550.8612,419.1650"/>
   <path d="M91.8000,91.8000L110.1600,122.4146L128.5200,150.3640L146.8800,175.8952L165.2400,199.2259L183.6000,220.5745L201.9600,240.1252L220.3200,258.0443L238.6800,274.4825L257.0400,289.5765
            L275.4000,303.4501L293.7600,316.2153L312.1200,327.9739L330.4800,338.8180L348.8400,348.8312L367.2000,358.0892L385.5600,366.6606L403.9200,374.6078L422.2800,381.9870L440.6400,388.8496
            L459.0000,395.2418L477.3600,401.2059L495.7200,406.7800L514.0800,411.9987L532.4400,416.8934L550.8000,421.4927L550.8612,421.5072"/>
   <path d="M91.8000,91.8000L110.1600,125.7357L128.5200,156.3188L146.8800,183.9014L165.2400,208.7902L183.6000,231.2838L201.9600,251.6346L220.3200,270.0670L238.6800,286.7819L257.0400,301.9589
            L275.4000,315.7587L293.7600,328.3251L312.1200,339.7867L330.4800,350.2585L348.8400,359.8436L367.2000,368.6340L385.5600,376.7121L403.9200,384.1516L422.2800,391.0184L440.6400,397.3716
            L459.0000,403.2639L477.3600,408.7427L495.7200,413.8501L514.0800,418.6240L532.4400,423.0982L550.8000,427.3030L550.8612,427.3163"/>
   <path d="M91.8000,91.8000L110.1600,122.4397L128.5200,150.5336L146.8800,176.3198L165.2400,200.0072L183.6000,221.8037L201.9600,241.8880L220.3200,260.4209L238.6800,277.5482L257.0400,293.4026
            L275.4000,308.1045L293.7600,321.7633L312.1200,334.4784L330.4800,346.3401L348.8400,357.4306L367.2000,367.8246L385.5600,377.5899L403.9200,386.7882L422.2800,395.4759L440.6400,403.7039
            L459.0000,411.5189L477.3600,418.9634L495.7200,426.0759L514.0800,432.8918L532.4400,439.4432L550.8000,445.7596L550.8612,445.7799"/>
   <path d="M91.8000,91.8000L110.1600,122.2402L128.5200,149.9974L146.8800,175.3235L165.2400,198.4363L183.6000,219.5517L201.9600,238.8573L220.3200,256.5203L238.6800,272.6927L257.0400,287.5119
            L275.4000,301.1028L293.7600,313.5783L312.1200,325.0410L330.4800,335.5838L348.8400,345.2908L367.2000,354.2385L385.5600,362.4960L403.9200,370.1261L422.2800,377.1857L440.6400,383.7264
            L459.0000,389.7950L477.3600,395.4339L495.7200,400.6815L514.0800,405.5727L532.4400,410.1393L550.8000,414.4099L550.8612,414.4232"/>
   <path d="M91.8000,91.8000L110.1600,114.3287L128.5200,135.4759L146.8800,155.3353L165.2400,173.9858L183.6000,191.5099L201.9600,207.9834L220.3200,223.4744L238.6800,238.0467L257.0400,251.7597
            L275.4000,264.6690L293.7600,276.8262L312.1200,288.2799L330.4800,299.0752L348.8400,309.2544L367.2000,318.8568L385.5600,327.9193L403.9200,336.4763L422.2800,344.5600L440.6400,352.2004
            L459.0000,359.4255L477.3600,366.2616L495.7200,372.7332L514.0800,378.8632L532.4400,384.6732L550.8000,390.1830L550.8612,390.2004"/>
   <path d="M91.8000,91.8000L110.1600,127.1195L128.5200,158.9419L146.8800,187.6417L165.2400,213.5472L183.6000,236.9774L201.9600,258.1980L220.3200,277.4463L238.6800,294.9340L257.0400,310.8499
            L275.4000,325.3623L293.7600,338.6217L312.1200,350.7620L330.4800,361.9029L348.8400,372.1512L367.2000,381.6020L385.5600,390.3404L403.9200,398.4421L422.2800,405.9748L440.6400,412.9988
            L459.0000,419.5679L477.3600,425.7303L495.7200,431.5287L514.0800,437.0014L532.4400,442.1824L550.8000,447.1021L550.8612,447.1178"/>
   <path d="M91.8000,91.8000L110.1600,127.4564L128.5200,159.4086L146.8800,188.0619L165.2400,213.7699L183.6000,236.8739L201.9600,257.6597L220.3200,276.3810L238.6800,293.2634L257.0400,308.5077
            L275.4000,322.2924L293.7600,334.7765L312.1200,346.1014L330.4800,356.3928L348.8400,365.7629L367.2000,374.3111L385.5600,382.1263L403.9200,389.2872L422.2800,395.8641L440.6400,401.9196
            L459.0000,407.5093L477.3600,412.6827L495.7200,417.4840L514.0800,421.9525L532.4400,426.1232L550.8000,430.0271L550.8612,430.0393"/>
   <path d="M91.8000,91.8000L110.1600,117.5418L128.5200,141.4257L146.8800,163.5975L165.2400,184.1839L183.6000,203.3160L201.9600,221.1074L220.3200,237.6616L238.6800,253.0739L257.0400,267.4320
            L275.4000,280.8169L293.7600,293.3032L312.1200,304.9595L330.4800,315.8492L348.8400,326.0308L367.2000,335.5579L385.5600,344.4802L403.9200,352.8434L422.2800,360.6896L440.6400,368.0577
            L459.0000,374.9835L477.3600,381.5000L495.7200,387.6376L514.0800,393.4244L532.4400,398.8863L550.8000,404.0472L550.8612,404.0635"/>
   <path d="M91.8000,91.8000L110.1600,119.0315L128.5200,144.1872L146.8800,167.4367L165.2400,188.9311L183.6000,208.8257L201.9600,227.2519L220.3200,244.3299L238.6800,260.1699L257.0400,274.8730
            L275.4000,288.5318L293.7600,301.2314L312.1200,313.0497L330.4800,324.0584L348.8400,334.3232L367.2000,343.9041L385.5600,352.8567L403.9200,361.2316L422.2800,369.0754L440.6400,376.4308
            L459.0000,383.3372L477.3600,389.8305L495.7200,395.9438L514.0800,401.7075L532.4400,407.1495L550.8000,412.2954L550.8612,412.3117"/>
   <path d="M91.8000,91.8000L110.1600,132.9346L128.5200,169.0920L146.8800,200.9049L165.2400,228.9233L183.6000,253.6574L201.9600,275.5276L220.3200,294.9006L238.6800,312.0957L257.0400,327.3916
            L275.4000,341.0314L293.7600,353.2268L312.1200,364.1625L330.4800,373.9998L348.8400,382.8791L367.2000,390.9230L385.5600,398.2384L403.9200,404.9186L422.2800,411.0448L440.6400,416.6881
            L459.0000,421.9104L477.3600,426.7657L495.7200,431.3012L514.0800,435.5578L532.4400,439.5716L550.8000,443.3739L550.8612,443.3860"/>
   <path d="M91.8000,91.8000L110.1600,121.3976L128.5200,148.6275L146.8800,173.7002L165.2400,196.7996L183.6000,218.1113L201.9600,237.7946L220.3200,255.9934L238.6800,272.8387L257.0400,288.4501
            L275.4000,302.9365L293.7600,316.3970L312.1200,328.9221L330.4800,340.5943L348.8400,351.4886L367.2000,361.6735L385.5600,371.2112L403.9200,380.1586L422.2800,388.5675L440.6400,396.4850
            L459.0000,403.9540L477.3600,411.0137L495.7200,417.6997L514.0800,424.0445L532.4400,430.0776L550.8000,435.8259L550.8612,435.8441"/>
   <path d="M91.8000,91.8000L110.1600,124.1142L128.5200,153.3294L146.8800,179.7563L165.2400,203.6680L183.6000,225.3336L201.9600,244.9783L220.3200,262.8043L238.6800,278.9931L257.0400,293.7081
            L275.4000,307.0958L293.7600,319.2881L312.1200,330.4034L330.4800,340.5483L348.8400,349.8186L367.2000,358.3003L385.5600,366.0709L403.9200,373.2000L422.2800,379.7504L440.6400,385.7783
            L459.0000,391.3344L477.3600,396.4645L495.7200,401.2097L514.0800,405.6067L532.4400,409.6891L550.8000,413.4866L550.8612,413.4984"/>
   <path d="M91.8000,91.8000L110.1600,121.8836L128.5200,149.3989L146.8800,174.5837L165.2400,197.6462L183.6000,218.7960L201.9600,238.2102L220.3200,256.0492L238.6800,272.4583L257.0400,287.5695
            L275.4000,301.5024L293.7600,314.3657L312.1200,326.2579L330.4800,337.2685L348.8400,347.4787L367.2000,356.9621L385.5600,365.7856L403.9200,374.0097L422.2800,381.6897L440.6400,388.8754
            L459.0000,395.6123L477.3600,401.9413L495.7200,407.9000L514.0800,413.5221L532.4400,418.8385L550.8000,423.8770L550.8612,423.8930"/>
   <path d="M91.8000,91.8000L110.1600,120.0407L128.5200,146.0458L146.8800,170.0071L165.2400,192.0912L183.6000,212.4656L201.9600,231.2773L220.3200,248.6583L238.6800,264.7291L257.0400,279.6002
            L275.4000,293.3725L293.7600,306.1381L312.1200,317.9816L330.4800,328.9800L348.8400,339.2039L367.2000,348.7178L385.5600,357.5806L403.9200,365.8464L422.2800,373.5645L440.6400,380.7799
            L459.0000,387.5341L477.3600,393.8647L495.7200,399.8062L514.0800,405.3903L532.4400,410.6458L550.8000,415.5991L550.8612,415.6147"/>
   <path d="M91.8000,91.8000L110.1600,124.8344L128.5200,154.7180L146.8800,181.7717L165.2400,206.2754L183.6000,228.5029L201.9600,248.6867L220.3200,267.0342L238.6800,283.7316L257.0400,298.9460
            L275.4000,312.8274L293.7600,325.5105L312.1200,337.1163L330.4800,347.7535L348.8400,357.5194L367.2000,366.5017L385.5600,374.7790L403.9200,382.4219L422.2800,389.4938L440.6400,396.0515
            L459.0000,402.1463L477.3600,407.8240L495.7200,413.1259L514.0800,418.0890L532.4400,422.7466L550.8000,427.1286L550.8612,427.1424"/>
   <path d="M91.8000,91.8000L110.1600,114.8326L128.5200,136.3937L146.8800,156.5867L165.2400,175.4982L183.6000,193.2193L201.9600,209.8325L220.3200,225.4120L238.6800,240.0273L257.0400,253.7428
            L275.4000,266.6187L293.7600,278.7108L312.1200,290.0713L330.4800,300.7487L348.8400,310.7881L367.2000,320.2318L385.5600,329.1187L403.9200,337.4856L422.2800,345.3663L440.6400,352.7926
            L459.0000,359.7940L477.3600,366.3980L495.7200,372.6302L514.0800,378.5145L532.4400,384.0731L550.8000,389.3268L550.8612,389.3434"/>
   <path d="M91.8000,91.8000L110.1600,120.4717L128.5200,146.8294L146.8800,171.0768L165.2400,193.3907L183.6000,213.9496L201.9600,232.9079L220.3200,250.4047L238.6800,266.5669L257.0400,281.5104
            L275.4000,295.3407L293.7600,308.1543L312.1200,320.0393L330.4800,331.0758L348.8400,341.3370L367.2000,350.8899L385.5600,359.7953L403.9200,368.1089L422.2800,375.8815L440.6400,383.1593
            L459.0000,389.9847L477.3600,396.3961L495.7200,402.4287L514.0800,408.1147L532.4400,413.4834L550.8000,418.5614L550.8612,418.5774"/>
   <path d="M91.8000,91.8000L110.1600,124.5009L128.5200,154.1721L146.8800,181.1224L165.2400,205.6151L183.6000,227.9074L201.9600,248.2228L220.3200,266.7592L238.6800,283.6947L257.0400,299.1894
            L275.4000,313.3875L293.7600,326.4185L312.1200,338.3992L330.4800,349.4344L348.8400,359.6184L367.2000,369.0362L385.5600,377.7639L403.9200,385.8702L422.2800,393.4167L440.6400,400.4591
            L459.0000,407.0471L477.3600,413.2256L495.7200,419.0348L514.0800,424.5111L532.4400,429.6869L550.8000,434.5917L550.8612,434.6072"/>
   <path d="M91.8000,91.8000L110.1600,121.9132L128.5200,149.4219L146.8800,174.5644L165.2400,197.5531L183.6000,218.6004L201.9600,237.8846L220.3200,255.5677L238.6800,271.7964L257.0400,286.7037
            L275.4000,300.4105L293.7600,313.0264L312.1200,324.6507L330.4800,335.3737L348.8400,345.2774L367.2000,354.4360L385.5600,362.9171L403.9200,370.7818L422.2800,378.0859L440.6400,384.8798
            L459.0000,391.2093L477.3600,397.1162L495.7200,402.6382L514.0800,407.8096L532.4400,412.6616L550.8000,417.2226L550.8612,417.2369"/>
   <path d="M91.8000,91.8000L110.1600,127.8885L128.5200,160.1428L146.8800,188.9895L165.2400,214.7956L183.6000,237.9160L201.9600,258.6481L220.3200,277.2554L238.6800,293.9716L257.0400,309.0048
            L275.4000,322.5395L293.7600,334.7397L312.1200,345.7512L330.4800,355.7036L348.8400,364.7119L367.2000,372.8784L385.5600,380.2939L403.9200,387.0392L422.2800,393.1860L440.6400,398.7982
            L459.0000,403.9324L477.3600,408.6392L495.7200,412.9633L514.0800,416.9445L532.4400,420.6185L550.8000,424.0166L550.8612,424.0271"/>
   <path d="M91.8000,91.8000L110.1600,131.0363L128.5200,165.8437L146.8800,196.7542L165.2400,224.2287L183.6000,248.7041L201.9600,270.5418L220.3200,290.0595L238.6800,307.5370L257.0400,323.2198
            L275.4000,337.3243L293.7600,350.0406L312.1200,361.5359L330.4800,371.9571L348.8400,381.4337L367.2000,390.0792L385.5600,397.9938L403.9200,405.2653L422.2800,411.9710L440.6400,418.1790
            L459.0000,423.9490L477.3600,429.3336L495.7200,434.3790L514.0800,439.1258L532.4400,443.6097L550.8000,447.8621L550.8612,447.8756"/>
   <path d="M91.8000,91.8000L110.1600,123.6177L128.5200,152.3879L146.8800,178.4116L165.2400,201.9551L183.6000,223.2809L201.9600,242.6088L220.3200,260.1361L238.6800,276.0406L257.0400,290.4822
            L275.4000,303.6048L293.7600,315.5379L312.1200,326.3979L330.4800,336.2898L348.8400,345.3081L367.2000,353.5378L385.5600,361.0554L403.9200,367.9301L422.2800,374.2238L440.6400,379.9926
            L459.0000,385.2869L477.3600,390.1521L495.7200,394.6293L514.0800,398.7553L532.4400,402.5633L550.8000,406.0835L550.8612,406.0944"/>
   <path d="M91.8000,91.8000L110.1600,126.0695L128.5200,156.8930L146.8800,184.6368L165.2400,209.6180L183.6000,232.1460L201.9600,252.4809L220.3200,270.8543L238.6800,287.4728L257.0400,302.5212
            L275.4000,316.1644L293.7600,328.5496L312.1200,339.8086L330.4800,350.0587L348.8400,359.4050L367.2000,367.9413L385.5600,375.7513L403.9200,382.9098L422.2800,389.4836L440.6400,395.5324
            L459.0000,401.1095L477.3600,406.2625L495.7200,411.0340L514.0800,415.4620L532.4400,419.5803L550.8000,423.4194L550.8612,423.4313"/>
   <path d="M91.8000,91.8000L110.1600,121.5722L128.5200,148.8270L146.8800,173.7912L165.2400,196.6641L183.6000,217.6469L201.9600,236.9098L220.3200,254.6067L238.6800,270.8777L257.0400,285.8499
            L275.4000,299.6390L293.7600,312.3501L312.1200,324.0786L330.4800,334.9113L348.8400,344.9270L367.2000,354.1974L385.5600,362.7876L403.9200,370.7568L422.2800,378.1587L440.6400,385.0423
            L459.0000,391.4518L477.3600,397.4278L495.7200,403.0068L514.0800,408.2221L532.4400,413.1040L550.8000,417.6800L550.8612,417.6943"/>
   <path d="M91.8000,91.8000L110.1600,120.6759L128.5200,147.3112L146.8800,171.8980L165.2400,194.6055L183.6000,215.6049L201.9600,235.0434L220.3200,253.0542L238.6800,269.7592L257.0400,285.2696
            L275.4000,299.6872L293.7600,313.1049L312.1200,325.6078L330.4800,337.2734L348.8400,348.1727L367.2000,358.3705L385.5600,367.9262L403.9200,376.8938L422.2800,385.3228L440.6400,393.2584
            L459.0000,400.7420L477.3600,407.8114L495.7200,414.5009L514.0800,420.8420L532.4400,426.8637L550.8000,432.5922L550.8612,432.6103"/>
   <path d="M91.8000,91.8000L110.1600,123.3568L128.5200,152.0880L146.8800,178.2645L165.2400,202.1196L183.6000,223.8835L201.9600,243.7559L220.3200,261.9148L238.6800,278.5211L257.0400,293.7202
            L275.4000,307.6437L293.7600,320.4106L312.1200,332.1285L330.4800,342.8944L348.8400,352.7965L367.2000,361.9141L385.5600,370.3191L403.9200,378.0766L422.2800,385.2454L440.6400,391.8785
            L459.0000,398.0241L477.3600,403.7256L495.7200,409.0224L514.0800,413.9500L532.4400,418.5408L550.8000,422.8237L550.8612,422.8371"/>
   <path d="M91.8000,91.8000L110.1600,124.8280L128.5200,154.6868L146.8800,181.6949L165.2400,206.1338L183.6000,228.2802L201.9600,248.3655L220.3200,266.5971L238.6800,283.1615L257.0400,298.2259
            L275.4000,311.9406L293.7600,324.4406L312.1200,335.8470L330.4800,346.2687L348.8400,355.8036L367.2000,364.5394L385.5600,372.5552L403.9200,379.9219L422.2800,386.7032L440.6400,392.9565
            L459.0000,398.7333L477.3600,404.0800L495.7200,409.0382L514.0800,413.6454L532.4400,417.9352L550.8000,421.9380L550.8612,421.9505"/>
   <path d="M91.8000,91.8000L110.1600,121.5702L128.5200,148.9756L146.8800,174.2285L165.2400,197.5162L183.6000,219.0278L201.9600,238.9240L220.3200,257.3506L238.6800,274.4402L257.0400,290.3137
            L275.4000,305.0814L293.7600,318.8433L312.1200,331.6910L330.4800,343.7076L348.8400,354.9690L367.2000,365.5442L385.5600,375.4962L403.9200,384.8822L422.2800,393.7545L440.6400,402.1607
            L459.0000,410.1439L477.3600,417.7438L495.7200,424.9963L514.0800,431.9340L532.4400,438.5868L550.8000,444.9818L550.8612,445.0023"/>
   <path d="M91.8000,91.8000L110.1600,131.8212L128.5200,167.0529L146.8800,198.0903L165.2400,225.4455L183.6000,249.6014L201.9600,270.9555L220.3200,289.8554L238.6800,306.6053L257.0400,321.4711
            L275.4000,334.6856L293.7600,346.4521L312.1200,356.9487L330.4800,366.3310L348.8400,374.7352L367.2000,382.2804L385.5600,389.0708L403.9200,395.1974L422.2800,400.7402L440.6400,405.7687
            L459.0000,410.3441L477.3600,414.5197L495.7200,418.3424L514.0800,421.8529L532.4400,425.0872L550.8000,428.0767L550.8612,428.0859"/>
   <path d="M91.8000,91.8000L110.1600,136.9252L128.5200,175.9035L146.8800,209.5993L165.2400,238.7567L183.6000,264.0474L201.9600,286.0186L220.3200,305.1395L238.6800,321.8125L257.0400,336.3829
            L275.4000,349.1468L293.7600,360.3581L312.1200,370.2349L330.4800,378.9641L348.8400,386.7063L367.2000,393.5992L385.5600,399.7610L403.9200,405.2933L422.2800,410.2832L440.6400,414.8056
            L459.0000,418.9249L477.3600,422.6962L495.7200,426.1670L514.0800,429.3783L532.4400,432.3650L550.8000,435.1573L550.8612,435.1661"/>
   <path d="M91.8000,91.8000L110.1600,122.6269L128.5200,150.7701L146.8800,176.4784L165.2400,199.9706L183.6000,221.4645L201.9600,241.1462L220.3200,259.1827L238.6800,275.7255L257.0400,290.9121
            L275.4000,304.8667L293.7600,317.7021L312.1200,329.5205L330.4800,340.4146L348.8400,350.4683L367.2000,359.7577L385.5600,368.3518L403.9200,376.3132L422.2800,383.6987L440.6400,390.5597
            L459.0000,396.9428L477.3600,402.8904L495.7200,408.4409L514.0800,413.6291L532.4400,418.4866L550.8000,423.0422L550.8612,423.0565"/>
   <path d="M91.8000,91.8000L110.1600,124.8386L128.5200,154.7495L146.8800,181.8477L165.2400,206.4134L183.6000,228.7205L201.9600,248.9982L220.3200,267.4525L238.6800,284.2682L257.0400,299.6113
            L275.4000,313.6309L293.7600,326.4609L312.1200,338.2216L330.4800,349.0211L348.8400,358.9565L367.2000,368.1149L385.5600,376.5748L403.9200,384.4066L422.2800,391.6735L440.6400,398.4325
            L459.0000,404.7346L477.3600,410.6258L495.7200,416.1473L514.0800,421.3362L532.4400,426.2259L550.8000,430.8463L550.8612,430.8609"/>
   <path d="M91.8000,91.8000L110.1600,119.3762L128.5200,144.9877L146.8800,168.7945L165.2400,190.9377L183.6000,211.5623L201.9600,230.7927L220.3200,248.7425L238.6800,265.5160L257.0400,281.2090
            L275.4000,295.9095L293.7600,309.6984L312.1200,322.6500L330.4800,334.8327L348.8400,346.3092L367.2000,357.1372L385.5600,367.3697L403.9200,377.0554L422.2800,386.2389L440.6400,394.9614
            L459.0000,403.2606L477.3600,411.1711L495.7200,418.7248L514.0800,425.9508L532.4400,432.8760L550.8000,439.5250L550.8612,439.5463"/>
   <path d="M91.8000,91.8000L110.1600,122.1056L128.5200,149.8377L146.8800,175.2297L165.2400,198.4919L183.6000,219.8335L201.9600,239.4305L220.3200,257.4423L238.6800,274.0138L257.0400,289.2763
            L275.4000,303.3490L293.7600,316.3402L312.1200,328.3481L330.4800,339.4620L348.8400,349.7629L367.2000,359.3243L385.5600,368.2132L403.9200,376.4903L422.2800,384.2107L440.6400,391.4245
            L459.0000,398.1772L477.3600,404.5103L495.7200,410.4613L514.0800,416.0643L532.4400,421.3504L550.8000,426.3478L550.8612,426.3636"/>
   <path d="M91.8000,91.8000L110.1600,126.5780L128.5200,157.7069L146.8800,185.5814L165.2400,210.5456L183.6000,232.9337L201.9600,253.0242L220.3200,271.0650L238.6800,287.2769L257.0400,301.8564
            L275.4000,314.9788L293.7600,326.7999L312.1200,337.4586L330.4800,347.0789L348.8400,355.7711L367.2000,363.6333L385.5600,370.7532L403.9200,377.2088L422.2800,383.0698L440.6400,388.3982
            L459.0000,393.2493L477.3600,397.6725L495.7200,401.7117L514.0800,405.4062L532.4400,408.7910L550.8000,411.8974L550.8612,411.9069"/>
   <path d="M91.8000,91.8000L110.1600,116.3162L128.5200,139.2548L146.8800,160.7290L165.2400,180.8400L183.6000,199.6951L201.9600,217.3844L220.3200,233.9918L238.6800,249.5947L257.0400,264.2650
            L275.4000,278.0694L293.7600,291.0697L312.1200,303.3230L330.4800,314.8825L348.8400,325.7974L367.2000,336.1134L385.5600,345.8730L403.9200,355.1152L422.2800,363.8767L440.6400,372.1911
            L459.0000,380.0898L477.3600,387.6019L495.7200,394.7543L514.0800,401.5720L532.4400,408.0781L550.8000,414.2942L550.8612,414.3140"/>
   <path d="M91.8000,91.8000L110.1600,119.8355L128.5200,145.8527L146.8800,170.0179L165.2400,192.4773L183.6000,213.3809L201.9600,232.8575L220.3200,251.0243L238.6800,267.9888L257.0400,283.8497
            L275.4000,298.6977L293.7600,312.6158L312.1200,325.6804L330.4800,337.9616L348.8400,349.5234L367.2000,360.4249L385.5600,370.7202L403.9200,380.4589L422.2800,389.6865L440.6400,398.4448
            L459.0000,406.7720L477.3600,414.7032L495.7200,422.2707L514.0800,429.5039L532.4400,436.4299L550.8000,443.0734L550.8612,443.0947"/>
   <path d="M91.8000,91.8000L110.1600,122.0276L128.5200,149.7526L146.8800,175.2032L165.2400,198.5799L183.6000,220.0819L201.9600,239.8817L220.3200,258.1339L238.6800,274.9792L257.0400,290.5456
            L275.4000,304.9491L293.7600,318.2954L312.1200,330.6806L330.4800,342.1919L348.8400,352.9086L367.2000,362.9029L385.5600,372.2402L403.9200,380.9803L422.2800,389.1771L440.6400,396.8800
            L459.0000,404.1337L477.3600,410.9789L495.7200,417.4525L514.0800,423.5881L532.4400,429.4164L550.8000,434.9651L550.8612,434.9828"/>
   <path d="M91.8000,91.8000L110.1600,121.7700L128.5200,149.3248L146.8800,174.6814L165.2400,198.0298L183.6000,219.5622L201.9600,239.4418L220.3200,257.8165L238.6800,274.8210L257.0400,290.5777
            L275.4000,305.1981L293.7600,318.7835L312.1200,331.4262L330.4800,343.2104L348.8400,354.2123L367.2000,364.5015L385.5600,374.1413L403.9200,383.1892L422.2800,391.6977L440.6400,399.7143
            L459.0000,407.2825L477.3600,414.4415L495.7200,421.2274L514.0800,427.6725L532.4400,433.8068L550.8000,439.6570L550.8612,439.6756"/>
   <path d="M91.8000,91.8000L110.1600,119.7578L128.5200,145.5625L146.8800,169.3952L165.2400,191.4192L183.6000,211.8002L201.9600,230.6779L220.3200,248.1804L238.6800,264.4245L257.0400,279.5173
            L275.4000,293.5568L293.7600,306.6328L312.1200,318.8274L330.4800,330.2158L348.8400,340.8668L367.2000,350.8437L385.5600,360.2042L403.9200,369.0012L422.2800,377.2832L440.6400,385.0945
            L459.0000,392.4760L477.3600,399.4648L495.7200,406.0951L514.0800,412.3982L532.4400,418.4027L550.8000,424.1348L550.8612,424.1531"/>
   <path d="M91.8000,91.8000L110.1600,122.5903L128.5200,150.8804L146.8800,176.9023L165.2400,200.8593L183.6000,222.9552L201.9600,243.3643L220.3200,262.2440L238.6800,279.7373L257.0400,295.9743
            L275.4000,311.0734L293.7600,325.1419L312.1200,338.2778L330.4800,350.5699L348.8400,362.0992L367.2000,372.9392L385.5600,383.1568L403.9200,392.8128L422.2800,401.9626L440.6400,410.6565
            L459.0000,418.9404L477.3600,426.8558L495.7200,434.4408L514.0800,441.7296L532.4400,448.7538L550.8000,455.5419L550.8612,455.5638"/>
   <path d="M91.8000,91.8000L110.1600,121.3918L128.5200,148.6089L146.8800,173.6592L165.2400,196.7250L183.6000,217.9896L201.9600,237.6111L220.3200,255.7322L238.6800,272.4829L257.0400,287.9818
            L275.4000,302.3371L293.7600,315.6475L312.1200,328.0030L330.4800,339.4856L348.8400,350.1702L367.2000,360.1252L385.5600,369.4129L403.9200,378.0900L422.2800,386.2086L440.6400,393.8158
            L459.0000,400.9549L477.3600,407.6654L495.7200,413.9830L514.0800,419.9408L532.4400,425.5687L550.8000,430.8940L550.8612,430.9109"/>
   <path d="M91.8000,91.8000L110.1600,127.6798L128.5200,160.0580L146.8800,189.3081L165.2400,215.7549L183.6000,239.7129L201.9600,261.4485L220.3200,281.1976L238.6800,299.1712L257.0400,315.5573
            L275.4000,330.5240L293.7600,344.2211L312.1200,356.7824L330.4800,368.3271L348.8400,378.9618L367.2000,388.7814L385.5600,397.8705L403.9200,406.3047L422.2800,414.1513L440.6400,421.4703
            L459.0000,428.3151L477.3600,434.7335L495.7200,440.7679L514.0800,446.4562L532.4400,451.8319L550.8000,456.9251L550.8612,456.9412"/>
   <path d="M91.8000,91.8000L110.1600,123.0172L128.5200,151.5273L146.8800,177.5852L165.2400,201.4112L183.6000,223.2224L201.9600,243.2083L220.3200,261.5380L238.6800,278.3643L257.0400,293.8258
            L275.4000,308.0480L293.7600,321.1447L312.1200,333.2187L330.4800,344.3634L348.8400,354.6631L367.2000,364.1944L385.5600,373.0264L403.9200,381.2218L422.2800,388.8374L440.6400,395.9247
            L459.0000,402.5301L477.3600,408.6958L495.7200,414.4599L514.0800,419.8571L532.4400,424.9186L550.8000,429.6727L550.8612,429.6876"/>
   <path d="M91.8000,91.8000L110.1600,124.7026L128.5200,154.5424L146.8800,181.6213L165.2400,206.2042L183.6000,228.5527L201.9600,248.8871L220.3200,267.4050L238.6800,284.2842L257.0400,299.6847
            L275.4000,313.7504L293.7600,326.6109L312.1200,338.3828L330.4800,349.1710L348.8400,359.0699L367.2000,368.1645L385.5600,376.5312L403.9200,384.2390L422.2800,391.3497L440.6400,397.9191
            L459.0000,403.9975L477.3600,409.6301L495.7200,414.8577L514.0800,419.7168L532.4400,424.2406L550.8000,428.4587L550.8612,428.4718"/>
   <path d="M91.8000,91.8000L110.1600,133.0889L128.5200,169.3248L146.8800,201.1539L165.2400,229.1370L183.6000,253.7943L201.9600,275.5539L220.3200,294.7888L238.6800,311.8237L257.0400,326.9416
            L275.4000,340.3891L293.7600,352.3809L312.1200,363.1041L330.4800,372.7217L348.8400,381.3758L367.2000,389.1901L385.5600,396.2726L403.9200,402.7172L422.2800,408.6058L440.6400,414.0099
            L459.0000,418.9916L477.3600,423.6053L495.7200,427.8982L514.0800,431.9116L532.4400,435.6814L550.8000,439.2390L550.8612,439.2502"/>
   <path d="M91.8000,91.8000L110.1600,120.0505L128.5200,146.0875L146.8800,170.0988L165.2400,192.2498L183.6000,212.7106L201.9600,231.6245L220.3200,249.1223L238.6800,265.3235L257.0400,280.3375
            L275.4000,294.2644L293.7600,307.1957L312.1200,319.2150L330.4800,330.3988L348.8400,340.8171L367.2000,350.5340L385.5600,359.6080L403.9200,368.0927L422.2800,376.0371L440.6400,383.4860
            L459.0000,390.4805L477.3600,397.0581L495.7200,403.2531L514.0800,409.0970L532.4400,414.6185L550.8000,419.8438L550.8612,419.8603"/>
   <path d="M91.8000,91.8000L110.1600,121.9861L128.5200,149.5066L146.8800,174.6081L165.2400,197.5096L183.6000,218.4307L201.9600,237.5557L220.3200,255.0514L238.6800,271.0689L257.0400,285.7453
            L275.4000,299.2048L293.7600,311.5600L312.1200,322.9128L330.4800,333.3559L348.8400,342.9730L367.2000,351.8403L385.5600,360.0268L403.9200,367.5950L422.2800,374.6017L440.6400,381.0985
            L459.0000,387.1321L477.3600,392.7449L495.7200,397.9754L514.0800,402.8585L532.4400,407.4259L550.8000,411.7065L550.8612,411.7199"/>
   <path d="M91.8000,91.8000L110.1600,122.7800L128.5200,151.1414L146.8800,177.1300L165.2400,200.9607L183.6000,222.8500L201.9600,242.9801L220.3200,261.5156L238.6800,278.6061L257.0400,294.3868
            L275.4000,308.9805L293.7600,322.4983L312.1200,335.0409L330.4800,346.6998L348.8400,357.5576L367.2000,367.6893L385.5600,377.1628L403.9200,386.0399L422.2800,394.3761L440.6400,402.2221
            L459.0000,409.6238L477.3600,416.6225L495.7200,423.2559L514.0800,429.5581L532.4400,435.5598L550.8000,441.2890L550.8612,441.3073"/>
   <path d="M91.8000,91.8000L110.1600,122.4139L128.5200,150.3412L146.8800,175.8332L165.2400,199.1139L183.6000,220.4066L201.9600,239.8988L220.3200,257.7601L238.6800,274.1439L257.0400,289.1894
            L275.4000,303.0222L293.7600,315.7565L312.1200,327.4953L330.4800,338.3321L348.8400,348.3516L367.2000,357.6305L385.5600,366.2381L403.9200,374.2375L422.2800,381.6856L440.6400,388.6341
            L459.0000,395.1298L477.3600,401.2150L495.7200,406.9283L514.0800,412.3044L532.4400,417.3748L550.8000,422.1682L550.8612,422.1833"/>
   <path d="M91.8000,91.8000L110.1600,121.2292L128.5200,148.3203L146.8800,173.2806L165.2400,196.2920L183.6000,217.5361L201.9600,237.1711L220.3200,255.3390L238.6800,272.1697L257.0400,287.7811
            L275.4000,302.2813L293.7600,315.7685L312.1200,328.3323L330.4800,340.0545L348.8400,351.0096L367.2000,361.2657L385.5600,370.8846L403.9200,379.9229L422.2800,388.4320L440.6400,396.4589
            L459.0000,404.0464L477.3600,411.2336L495.7200,418.0558L514.0800,424.5456L532.4400,430.7325L550.8000,436.6433L550.8612,436.6621"/>
   <path d="M91.8000,91.8000L91.8000,550.8000L550.8000,550.8000L550.8000,91.8000z"/>
  </g>
 </g>
</svg>
