<?xml version="1.0" encoding="ISO-8859-1"?>
<!DOCTYPE svg PUBLIC "-//W3C//DTD SVG 1.0//EN" "http://www.w3.org/TR/2001/REC-SVG-20010904/DTD/svg10.dtd">
<!-- generated by Grace-5.1.25 -->
<svg xml:space="preserve" width="11.0000in" height="8.5000in" viewBox="0.0000 0.0000 792.0000 612.0000">
 <g transform="translate(0,612.0000) scale(1,-1)">
  <g style="fill:#FFFFFF; fill-rule:nonzero">
   <path  d="M0.0000,0.0000L0.0000,612.0000L792.0000,612.0000L792.0000,0.0000z"/>
  </g>
  <g style="fill:none; stroke:#000000; stroke-width:  0.9180; stroke-linecap:butt; stroke-linejoin:miter; stroke-dasharray:none">
   <path d="M91.8000,91.8000L110.1600,129.9280L128.5200,163.7317L146.8800,193.7218L165.2400,220.3434L183.6000,244.0185L201.9600,265.0961L220.3200,283.8839L238.6800,300.6527L257.0400,315.6409
            L275.4000,329.0589L293.7600,341.0915L312.1200,351.9019L330.4800,361.6337L348.8400,370.4134L367.2000,378.3525L385.5600,385.5494L403.9200,392.0904L422.2800,398.0520L440.6400,403.5013
            L459.0000,408.4977L477.3600,413.0934L495.7200,417.3345L514.0800,421.2615L532.4400,424.9103L550.8000,428.3124L550.8612,428.3230"/>
   <path d="M91.8000,91.8000L110.1600,128.6442L128.5200,161.5383L146.8800,190.9281L165.2400,217.1993L183.6000,240.7244L201.9600,261.8125L220.3200,280.7374L238.6800,297.7420L257.0400,313.0415
            L275.4000,326.8265L293.7600,339.2661L312.1200,350.5102L330.4800,360.6915L348.8400,369.9277L367.2000,378.3232L385.5600,385.9704L403.9200,392.9512L422.2800,399.3384L440.6400,405.1964
            L459.0000,410.5823L477.3600,415.5466L495.7200,420.1343L514.0800,424.3852L532.4400,428.3346L550.8000,432.0138L550.8612,432.0252"/>
   <path d="M91.8000,91.8000L110.1600,136.4453L128.5200,175.1738L146.8800,208.8090L165.2400,238.0469L183.6000,263.5277L201.9600,285.7733L220.3200,305.2331L238.6800,322.2939L257.0400,337.2887
            L275.4000,350.5041L293.7600,362.1867L312.1200,372.5489L330.4800,381.7734L348.8400,390.0174L367.2000,397.4162L385.5600,404.0864L403.9200,410.1280L422.2800,415.6272L440.6400,420.6583
            L459.0000,425.2850L477.3600,429.5623L495.7200,433.5373L514.0800,437.2507L532.4400,440.7375L550.8000,444.0277L550.8612,444.0381"/>
   <path d="M91.8000,91.8000L110.1600,124.8381L128.5200,154.6832L146.8800,181.6603L165.2400,206.0526L183.6000,228.1393L201.9600,248.1549L220.3200,266.3092L238.6800,282.7908L257.0400,297.7687
            L275.4000,311.3947L293.7600,323.8051L312.1200,335.1222L330.4800,345.4559L348.8400,354.9047L367.2000,363.5571L385.5600,371.4925L403.9200,378.7823L422.2800,385.4905L440.6400,391.6746
            L459.0000,397.3862L477.3600,402.6717L495.7200,407.5727L514.0800,412.1266L532.4400,416.3669L550.8000,420.3237L550.8612,420.3361"/>
   <path d="M91.8000,91.8000L110.1600,134.0474L128.5200,170.9163L146.8800,203.1237L165.2400,231.2744L183.6000,255.9281L201.9600,277.5505L220.3200,296.5427L238.6800,313.2527L257.0400,327.9824
            L275.4000,340.9935L293.7600,352.5133L312.1200,362.7387L330.4800,371.8405L348.8400,379.9668L367.2000,387.2460L385.5600,393.7897L403.9200,399.6945L422.2800,405.0440L440.6400,409.9110
            L459.0000,414.3586L477.3600,418.4414L495.7200,422.2067L514.0800,425.6959L532.4400,428.9445L550.8000,431.9835L550.8612,431.9930"/>
   <path d="M91.8000,91.8000L110.1600,134.2040L128.5200,171.1749L146.8800,203.4335L165.2400,231.5959L183.6000,256.2332L201.9600,277.8131L220.3200,296.7407L238.6800,313.3674L257.0400,327.9973
            L275.4000,340.8944L293.7600,352.2870L312.1200,362.3733L330.4800,371.3249L348.8400,379.2905L367.2000,386.3989L385.5600,392.7619L403.9200,398.4763L422.2800,403.6260L440.6400,408.2836
            L459.0000,412.5123L477.3600,416.3667L495.7200,419.8941L514.0800,423.1356L532.4400,426.1269L550.8000,428.8987L550.8612,428.9073"/>
   <path d="M91.8000,91.8000L110.1600,126.4883L128.5200,157.6025L146.8800,185.5264L165.2400,210.5973L183.6000,233.1417L201.9600,253.4315L220.3200,271.7094L238.6800,288.1915L257.0400,303.0707
            L275.4000,316.5186L293.7600,328.6886L312.1200,339.7174L330.4800,349.7267L348.8400,358.8253L367.2000,367.1102L385.5600,374.6678L403.9200,381.5754L422.2800,387.9018L440.6400,393.7084
            L459.0000,399.0501L477.3600,403.9758L495.7200,408.5292L514.0800,412.7493L532.4400,416.6709L550.8000,420.3250L550.8612,420.3363"/>
   <path d="M91.8000,91.8000L110.1600,128.7335L128.5200,161.6137L146.8800,190.9040L165.2400,217.0106L183.6000,240.3199L201.9600,261.1531L220.3200,279.7943L238.6800,296.4945L257.0400,311.4759
            L275.4000,324.9350L293.7600,337.0457L312.1200,347.9618L330.4800,357.8194L348.8400,366.7388L367.2000,374.8267L385.5600,382.1774L403.9200,388.8745L422.2800,394.9917L440.6400,400.5946
            L459.0000,405.7410L477.3600,410.4823L495.7200,414.8638L514.0800,418.9259L532.4400,422.7040L550.8000,426.2299L550.8612,426.2409"/>
   <path d="M91.8000,91.8000L110.1600,132.1396L128.5200,167.7285L146.8800,199.1542L165.2400,226.9293L183.6000,251.5318L201.9600,273.3564L220.3200,292.7483L238.6800,310.0098L257.0400,325.4050
            L275.4000,339.1652L293.7600,351.4928L312.1200,362.5648L330.4800,372.5362L348.8400,381.5424L367.2000,389.7022L385.5600,397.1194L403.9200,403.8847L422.2800,410.0778L440.6400,415.7682
            L459.0000,421.0167L477.3600,425.8768L495.7200,430.3950L514.0800,434.6122L532.4400,438.5640L550.8000,442.2818L550.8612,442.2935"/>
   <path d="M91.8000,91.8000L110.1600,127.7732L128.5200,159.9361L146.8800,188.7123L165.2400,214.4729L183.6000,237.5742L201.9600,258.3132L220.3200,276.9531L238.6800,293.7280L257.0400,308.8456
            L275.4000,322.4904L293.7600,334.8263L312.1200,345.9986L330.4800,356.1369L348.8400,365.3558L367.2000,373.7574L385.5600,381.4323L403.9200,388.4611L422.2800,394.9153L440.6400,400.8585
            L459.0000,406.3471L477.3600,411.4315L495.7200,416.1561L514.0800,420.5607L532.4400,424.6806L550.8000,428.5470L550.8612,428.5591"/>
   <path d="M91.8000,91.8000L110.1600,134.8687L128.5200,172.3988L146.8800,205.1334L165.2400,233.7098L183.6000,258.7153L201.9600,280.6305L220.3200,299.8712L238.6800,316.7972L257.0400,331.7197
            L275.4000,344.9079L293.7600,356.5947L312.1200,366.9817L330.4800,376.2433L348.8400,384.5302L367.2000,391.9730L385.5600,398.6847L403.9200,404.7629L422.2800,410.2923L440.6400,415.3461
            L459.0000,419.9876L477.3600,424.2718L495.7200,428.2460L514.0800,431.9514L532.4400,435.4236L550.8000,438.6934L550.8612,438.7037"/>
   <path d="M91.8000,91.8000L110.1600,127.8813L128.5200,160.0596L146.8800,188.7741L165.2400,214.4039L183.6000,237.3156L201.9600,257.8141L220.3200,276.1694L238.6800,292.6211L257.0400,307.3818
            L275.4000,320.6398L293.7600,332.5625L312.1200,343.2980L330.4800,352.9778L348.8400,361.7187L367.2000,369.6240L385.5600,376.7856L403.9200,383.2848L422.2800,389.1940L440.6400,394.5771
            L459.0000,399.4911L477.3600,403.9863L495.7200,408.1075L514.0800,411.8944L532.4400,415.3821L550.8000,418.6020L550.8612,418.6119"/>
   <path d="M91.8000,91.8000L110.1600,128.4288L128.5200,161.0445L146.8800,190.1047L165.2400,216.0085L183.6000,239.1374L201.9600,259.8083L220.3200,278.3016L238.6800,294.8655L257.0400,309.7197
            L275.4000,323.0587L293.7600,335.0545L312.1200,345.8596L330.4800,355.6090L348.8400,364.4219L367.2000,372.4044L385.5600,379.6499L403.9200,386.2415L422.2800,392.2526L440.6400,397.7483
            L459.0000,402.7863L477.3600,407.4176L495.7200,411.6875L514.0800,415.6360L532.4400,419.2986L550.8000,422.7069L550.8612,422.7175"/>
   <path d="M91.8000,91.8000L110.1600,125.5964L128.5200,156.0335L146.8800,183.4650L165.2400,208.1935L183.6000,230.5157L201.9600,250.6828L220.3200,268.9185L238.6800,285.4229L257.0400,300.3752
            L275.4000,313.9357L293.7600,326.2482L312.1200,337.4410L330.4800,347.6293L348.8400,356.9161L367.2000,365.3936L385.5600,373.1442L403.9200,380.2418L422.2800,386.7524L440.6400,392.7353
            L459.0000,398.2433L477.3600,403.3238L495.7200,408.0190L514.0800,412.3670L532.4400,416.4016L550.8000,420.1532L550.8612,420.1648"/>
   <path d="M91.8000,91.8000L110.1600,131.2885L128.5200,166.1395L146.8800,196.9202L165.2400,224.1233L183.6000,248.2112L201.9600,269.5661L220.3200,288.5228L238.6800,305.3748L257.0400,320.3796
            L275.4000,333.7627L293.7600,345.7219L312.1200,356.4305L330.4800,366.0405L348.8400,374.6854L367.2000,382.4820L385.5600,389.5328L403.9200,395.9277L422.2800,401.7456L440.6400,407.0556
            L459.0000,411.9185L477.3600,416.3874L495.7200,420.5092L514.0800,424.3246L532.4400,427.8698L550.8000,431.1762L550.8612,431.1865"/>
   <path d="M91.8000,91.8000L110.1600,131.7188L128.5200,167.1153L146.8800,198.5029L165.2400,226.3255L183.6000,251.0104L201.9600,272.9116L220.3200,292.3430L238.6800,309.5825L257.0400,324.8767
            L275.4000,338.4443L293.7600,350.4792L312.1200,361.1537L330.4800,370.6207L348.8400,379.0160L367.2000,386.4600L385.5600,393.0599L403.9200,398.9107L422.2800,404.0968L440.6400,408.6932
            L459.0000,412.7663L477.3600,416.3752L495.7200,419.5723L514.0800,422.4041L532.4400,424.9118L550.8000,427.1319L550.8612,427.1385"/>
   <path d="M91.8000,91.8000L110.1600,124.9329L128.5200,156.0617L146.8800,185.2076L165.2400,212.3699L183.6000,237.5663L201.9600,260.8193L220.3200,282.1664L238.6800,301.6663L257.0400,319.4002
            L275.4000,335.4681L293.7600,349.9847L312.1200,363.0735L330.4800,374.8608L348.8400,385.4715L367.2000,395.0249L385.5600,403.6322L403.9200,411.3957L422.2800,418.4074L440.6400,424.7499
            L459.0000,430.4962L477.3600,435.7109L495.7200,440.4509L514.0800,444.7662L532.4400,448.7007L550.8000,452.2930L550.8612,452.3039"/>
   <path d="M91.8000,91.8000L110.1600,128.7361L128.5200,161.7285L146.8800,191.2252L165.2400,217.6174L183.6000,241.2800L201.9600,262.5246L220.3200,281.6272L238.6800,298.8325L257.0400,314.3571
            L275.4000,328.3931L293.7600,341.1105L312.1200,352.6601L330.4800,363.1756L348.8400,372.7754L367.2000,381.5643L385.5600,389.6354L403.9200,397.0712L422.2800,403.9447L440.6400,410.3206
            L459.0000,416.2565L477.3600,421.8031L495.7200,427.0056L514.0800,431.9040L532.4400,436.5338L550.8000,440.9263L550.8612,440.9403"/>
   <path d="M91.8000,91.8000L110.1600,130.0734L128.5200,163.9098L146.8800,193.8403L165.2400,220.3287L183.6000,243.8114L201.9600,264.6497L220.3200,283.1610L238.6800,299.6243L257.0400,314.2847
            L275.4000,327.3580L293.7600,339.0335L312.1200,349.4780L330.4800,358.8381L348.8400,367.2425L367.2000,374.8049L385.5600,381.6248L403.9200,387.7900L422.2800,393.3777L440.6400,398.4560
            L459.0000,403.0845L477.3600,407.3160L495.7200,411.1967L514.0800,414.7675L532.4400,418.0644L550.8000,421.1188L550.8612,421.1283"/>
   <path d="M91.8000,91.8000L110.1600,128.5989L128.5200,161.4286L146.8800,190.7433L165.2400,216.9327L183.6000,240.3732L201.9600,261.3776L220.3200,280.2229L238.6800,297.1540L257.0400,312.3883
            L275.4000,326.1177L293.7600,338.5127L312.1200,349.7238L330.4800,359.8844L348.8400,369.1128L367.2000,377.5134L385.5600,385.1789L403.9200,392.1911L422.2800,398.6225L440.6400,404.5375
            L459.0000,409.9926L477.3600,415.0382L495.7200,419.7186L514.0800,424.0733L532.4400,428.1370L550.8000,431.9403L550.8612,431.9522"/>
   <path d="M91.8000,91.8000L110.1600,136.5142L128.5200,175.1472L146.8800,208.5495L165.2400,237.4501L183.6000,262.5100L201.9600,284.2682L220.3200,303.1874L238.6800,319.6649L257.0400,334.0417
            L275.4000,346.6108L293.7600,357.6237L312.1200,367.2966L330.4800,375.8150L348.8400,383.3383L367.2000,390.0034L385.5600,395.9279L403.9200,401.2129L422.2800,405.9454L440.6400,410.1998
            L459.0000,414.0403L477.3600,417.5221L495.7200,420.6925L514.0800,423.5924L532.4400,426.2567L550.8000,428.7156L550.8612,428.7232"/>
   <path d="M91.8000,91.8000L110.1600,129.1942L128.5200,162.5780L146.8800,192.4140L165.2400,219.0944L183.6000,242.9942L201.9600,264.4320L220.3200,283.6873L238.6800,301.0073L257.0400,316.6112
            L275.4000,330.6927L293.7600,343.4236L312.1200,354.9557L330.4800,365.4236L348.8400,374.9461L367.2000,383.6286L385.5600,391.5643L403.9200,398.8355L422.2800,405.5151L440.6400,411.6677
            L459.0000,417.3503L477.3600,422.6134L495.7200,427.5017L514.0800,432.0546L532.4400,436.3071L550.8000,440.2901L550.8612,440.3026"/>
   <path d="M91.8000,91.8000L110.1600,129.4892L128.5200,163.0913L146.8800,193.0762L165.2400,219.8517L183.6000,243.8087L201.9600,265.2713L220.3200,284.5263L238.6800,301.8270L257.0400,317.3974
            L275.4000,331.4357L293.7600,344.1168L312.1200,355.5957L330.4800,366.0091L348.8400,375.4780L367.2000,384.1092L385.5600,391.9974L403.9200,399.2259L422.2800,405.8687L440.6400,411.9909
            L459.0000,417.6503L477.3600,422.8976L495.7200,427.7781L514.0800,432.3313L532.4400,436.5926L550.8000,440.5929L550.8612,440.6054"/>
   <path d="M91.8000,91.8000L110.1600,126.3978L128.5200,157.3835L146.8800,185.1508L165.2400,210.0378L183.6000,232.3708L201.9600,252.4277L220.3200,270.4539L238.6800,286.6679L257.0400,301.2647
            L275.4000,314.4182L293.7600,326.2831L312.1200,336.9975L330.4800,346.6847L348.8400,355.4542L367.2000,363.4039L385.5600,370.6210L403.9200,377.1833L422.2800,383.1601L440.6400,388.6133
            L459.0000,393.5979L477.3600,398.1632L495.7200,402.3529L514.0800,406.2063L532.4400,409.7582L550.8000,413.0397L550.8612,413.0498"/>
   <path d="M91.8000,91.8000L110.1600,127.9736L128.5200,160.7530L146.8800,190.4757L165.2400,217.4281L183.6000,241.8909L201.9600,264.1052L220.3200,284.2846L238.6800,302.6209L257.0400,319.2868
            L275.4000,334.4375L293.7600,348.2132L312.1200,360.7403L330.4800,372.1331L348.8400,382.4951L367.2000,391.9198L385.5600,400.4924L403.9200,408.2898L422.2800,415.3822L440.6400,421.8333
            L459.0000,427.7010L477.3600,433.0383L495.7200,437.8929L514.0800,442.3089L532.4400,446.3259L550.8000,449.9803L550.8612,449.9914"/>
   <path d="M91.8000,91.8000L110.1600,125.2841L128.5200,155.4672L146.8800,182.6942L165.2400,207.2610L183.6000,229.4551L201.9600,249.5237L220.3200,267.6858L238.6800,284.1375L257.0400,299.0547
            L275.4000,312.5950L293.7600,324.8994L312.1200,336.0948L330.4800,346.2943L348.8400,355.5996L367.2000,364.1019L385.5600,371.8827L403.9200,379.0152L422.2800,385.5648L440.6400,391.5903
            L459.0000,397.1444L477.3600,402.2741L495.7200,407.0217L514.0800,411.4251L532.4400,415.5182L550.8000,419.3315L550.8612,419.3433"/>
   <path d="M91.8000,91.8000L110.1600,127.8712L128.5200,160.0550L146.8800,188.7869L165.2400,214.4462L183.6000,237.3980L201.9600,257.9457L220.3200,276.3583L238.6800,292.8744L257.0400,307.7058
            L275.4000,321.0403L293.7600,333.0443L312.1200,343.8656L330.4800,353.6355L348.8400,362.4700L367.2000,370.4726L385.5600,377.7348L403.9200,384.3377L422.2800,390.3537L440.6400,395.8467
            L459.0000,400.8734L477.3600,405.4844L495.7200,409.7244L514.0800,413.6332L532.4400,417.2460L550.8000,420.5941L550.8612,420.6045"/>
   <path d="M91.8000,91.8000L110.1600,129.2836L128.5200,162.8519L146.8800,192.9400L165.2400,219.9241L183.6000,244.1688L201.9600,265.9764L220.3200,285.6150L238.6800,303.3225L257.0400,319.3096
            L275.4000,333.7635L293.7600,346.8499L312.1200,358.7160L330.4800,369.4923L348.8400,379.2943L367.2000,388.2248L385.5600,396.3749L403.9200,403.8252L422.2800,410.6477L440.6400,416.9059
            L459.0000,422.6564L477.3600,427.9496L495.7200,432.8301L514.0800,437.3377L532.4400,441.5079L550.8000,445.3720L550.8612,445.3840"/>
   <path d="M91.8000,91.8000L110.1600,128.2987L128.5200,160.8304L146.8800,189.8439L165.2400,215.7309L183.6000,238.8666L201.9600,259.5627L220.3200,278.0953L238.6800,294.7089L257.0400,309.6204
            L275.4000,323.0215L293.7600,335.0823L312.1200,345.9535L330.4800,355.7685L348.8400,364.6458L367.2000,372.6900L385.5600,379.9942L403.9200,386.6406L422.2800,392.7023L440.6400,398.2439
            L459.0000,403.3229L477.3600,407.9900L495.7200,412.2904L514.0800,416.2639L532.4400,419.9461L550.8000,423.3684L550.8612,423.3791"/>
   <path d="M91.8000,91.8000L110.1600,126.4709L128.5200,157.7471L146.8800,185.9800L165.2400,211.4741L183.6000,234.5274L201.9600,255.3909L220.3200,274.2884L238.6800,291.4198L257.0400,306.9643
            L275.4000,321.0821L293.7600,333.9164L312.1200,345.5958L330.4800,356.2350L348.8400,365.9370L367.2000,374.7937L385.5600,382.8878L403.9200,390.2931L422.2800,397.0759L440.6400,403.2954
            L459.0000,409.0051L477.3600,414.2526L495.7200,419.0809L514.0800,423.5285L532.4400,427.6299L550.8000,431.4163L550.8612,431.4280"/>
   <path d="M91.8000,91.8000L110.1600,133.9352L128.5200,170.7935L146.8800,203.0639L165.2400,231.3444L183.6000,256.1850L201.9600,278.0377L220.3200,297.2951L238.6800,314.2979L257.0400,329.3422
            L275.4000,342.6848L293.7600,354.5490L312.1200,365.1284L330.4800,374.5915L348.8400,383.0844L367.2000,390.7342L385.5600,397.6512L403.9200,403.9314L422.2800,409.6579L440.6400,414.9032
            L459.0000,419.7302L477.3600,424.1936L495.7200,428.3409L514.0800,432.2134L532.4400,435.8471L550.8000,439.2732L550.8612,439.2840"/>
   <path d="M91.8000,91.8000L110.1600,137.2444L128.5200,176.2643L146.8800,209.7863L165.2400,238.5999L183.6000,263.4161L201.9600,284.8127L220.3200,303.2833L238.6800,319.2498L257.0400,333.0728
            L275.4000,345.0603L293.7600,355.4758L312.1200,364.5444L330.4800,372.4585L348.8400,379.3829L367.2000,385.4581L385.5600,390.8047L403.9200,395.5255L422.2800,399.7086L440.6400,403.4295
            L459.0000,406.7527L477.3600,409.7332L495.7200,412.4185L514.0800,414.8491L532.4400,417.0595L550.8000,419.0795L550.8612,419.0857"/>
   <path d="M91.8000,91.8000L110.1600,130.5581L128.5200,164.6784L146.8800,194.7287L165.2400,221.1998L183.6000,244.5540L201.9600,265.1730L220.3200,283.3913L238.6800,299.5020L257.0400,313.7623
            L275.4000,326.3973L293.7600,337.6047L312.1200,347.5574L330.4800,356.4075L348.8400,364.2880L367.2000,371.3158L385.5600,377.5931L403.9200,383.2099L422.2800,388.2450L440.6400,392.7675
            L459.0000,396.8382L477.3600,400.5101L495.7200,403.8302L514.0800,406.8394L532.4400,409.5737L550.8000,412.0647L550.8612,412.0723"/>
   <path d="M91.8000,91.8000L110.1600,134.2067L128.5200,171.3142L146.8800,203.8160L165.2400,232.3069L183.6000,257.3390L201.9600,279.3651L220.3200,298.7784L238.6800,315.9204L257.0400,331.0875
            L275.4000,344.5371L293.7600,356.4924L312.1200,367.1476L330.4800,376.6709L348.8400,385.2085L367.2000,392.8873L385.5600,399.8174L403.9200,406.0943L422.2800,411.8011L440.6400,417.0097
            L459.0000,421.7826L477.3600,426.1742L495.7200,430.2314L514.0800,433.9951L532.4400,437.5009L550.8000,440.7793L550.8612,440.7896"/>
   <path d="M91.8000,91.8000L110.1600,126.5660L128.5200,157.7422L146.8800,185.7169L165.2400,210.8273L183.6000,233.4021L201.9600,253.7148L220.3200,272.0094L238.6800,288.5030L257.0400,303.3893
            L275.4000,316.8410L293.7600,329.0119L312.1200,340.0390L330.4800,350.0446L348.8400,359.1376L367.2000,367.4152L385.5600,374.9639L403.9200,381.8609L422.2800,388.1750L440.6400,393.9676
            L459.0000,399.2933L477.3600,404.2008L495.7200,408.7338L514.0800,412.9309L532.4400,416.8267L550.8000,420.4520L550.8612,420.4633"/>
   <path d="M91.8000,91.8000L110.1600,122.5620L128.5200,150.5658L146.8800,176.0745L165.2400,199.3156L183.6000,220.5143L201.9600,239.8653L220.3200,257.5423L238.6800,273.7028L257.0400,288.4891
            L275.4000,302.0301L293.7600,314.4426L312.1200,325.8320L330.4800,336.2940L348.8400,345.9149L367.2000,354.7732L385.5600,362.9395L403.9200,370.4781L422.2800,377.4469L440.6400,383.8985
            L459.0000,389.8805L477.3600,395.4357L495.7200,400.6033L514.0800,405.4184L532.4400,409.9130L550.8000,414.1160L550.8612,414.1291"/>
   <path d="M91.8000,91.8000L110.1600,130.8447L128.5200,165.9531L146.8800,197.5479L165.2400,225.9908L183.6000,251.6344L201.9600,274.7700L220.3200,295.6561L238.6800,314.5222L257.0400,331.5726
            L275.4000,346.9891L293.7600,360.9340L312.1200,373.5525L330.4800,384.9745L348.8400,395.3165L367.2000,404.6832L385.5600,413.1689L403.9200,420.8585L422.2800,427.8288L440.6400,434.1489
            L459.0000,439.8815L477.3600,445.0831L495.7200,449.8050L514.0800,454.0935L532.4400,457.9905L550.8000,461.5340L550.8612,461.5447"/>
   <path d="M91.8000,91.8000L110.1600,135.0630L128.5200,172.6784L146.8800,205.4089L165.2400,233.9072L183.6000,258.7737L201.9600,280.4993L220.3200,299.5081L238.6800,316.1666L257.0400,330.7914
            L275.4000,343.6561L293.7600,354.9968L312.1200,365.0178L330.4800,373.8955L348.8400,381.7823L367.2000,388.8098L385.5600,395.0919L403.9200,400.7268L422.2800,405.7996L440.6400,410.3836
            L459.0000,414.5422L477.3600,418.3303L495.7200,421.7953L514.0800,424.9782L532.4400,427.9142L550.8000,430.6341L550.8612,430.6425"/>
   <path d="M91.8000,91.8000L110.1600,124.3661L128.5200,153.9472L146.8800,180.8413L165.2400,205.3000L183.6000,227.5694L201.9600,247.8659L220.3200,266.3805L238.6800,283.2855L257.0400,298.7364
            L275.4000,312.8731L293.7600,325.8220L312.1200,337.6966L330.4800,348.5997L348.8400,358.6237L367.2000,367.8517L385.5600,376.3589L403.9200,384.2128L422.2800,391.4745L440.6400,398.1989
            L459.0000,404.4353L477.3600,410.2285L495.7200,415.6187L514.0800,420.6420L532.4400,425.3311L550.8000,429.7155L550.8612,429.7292"/>
   <path d="M91.8000,91.8000L110.1600,125.8383L128.5200,156.4976L146.8800,184.1301L165.2400,209.0432L183.6000,231.5383L201.9600,251.8670L220.3200,270.2543L238.6800,286.9016L257.0400,301.9889
            L275.4000,315.6775L293.7600,328.1116L312.1200,339.4203L330.4800,349.7192L348.8400,359.1117L367.2000,367.6902L385.5600,375.5377L403.9200,382.7283L422.2800,389.3284L440.6400,395.3975
            L459.0000,400.9888L477.3600,406.1498L495.7200,410.9234L514.0800,415.3477L532.4400,419.4569L550.8000,423.2818L550.8612,423.2937"/>
   <path d="M91.8000,91.8000L110.1600,132.7535L128.5200,168.8738L146.8800,200.7697L165.2400,228.9610L183.6000,253.9381L201.9600,276.1049L220.3200,295.8144L238.6800,313.3751L257.0400,329.0569
            L275.4000,343.0952L293.7600,355.6960L312.1200,367.0392L330.4800,377.2819L348.8400,386.5614L367.2000,394.9975L385.5600,402.6949L403.9200,409.7449L422.2800,416.2273L440.6400,422.2116
            L459.0000,427.7585L477.3600,432.9210L495.7200,437.7452L514.0800,442.2714L532.4400,446.5345L550.8000,450.5651L550.8612,450.5778"/>
   <path d="M91.8000,91.8000L110.1600,125.7604L128.5200,156.2659L146.8800,183.6828L165.2400,208.3289L183.6000,230.5127L201.9600,250.4955L220.3200,268.5090L238.6800,284.7605L257.0400,299.4352
            L275.4000,312.6984L293.7600,324.6982L312.1200,335.5665L330.4800,345.4215L348.8400,354.3688L367.2000,362.5026L385.5600,369.9072L403.9200,376.6580L422.2800,382.8225L440.6400,388.4606
            L459.0000,393.6264L477.3600,398.3679L495.7200,402.7281L514.0800,406.7455L532.4400,410.4546L550.8000,413.8860L550.8612,413.8966"/>
   <path d="M91.8000,91.8000L110.1600,125.2814L128.5200,155.4517L146.8800,182.6571L165.2400,207.1936L183.6000,229.3508L201.9600,249.3757L220.3200,267.4879L238.6800,283.8837L257.0400,298.7394
            L275.4000,312.2128L293.7600,324.4453L312.1200,335.5637L330.4800,345.6815L348.8400,354.9005L367.2000,363.3118L385.5600,370.9970L403.9200,378.0294L422.2800,384.4745L440.6400,390.3911
            L459.0000,395.8318L477.3600,400.8437L495.7200,405.4692L514.0800,409.7459L532.4400,413.7079L550.8000,417.3856L550.8612,417.3970"/>
   <path d="M91.8000,91.8000L110.1600,142.3386L128.5200,185.0463L146.8800,221.1691L165.2400,251.7573L183.6000,277.7302L201.9600,299.8256L220.3200,318.6627L238.6800,334.7612L257.0400,348.5575
            L275.4000,360.4181L293.7600,370.6504L312.1200,379.5129L330.4800,387.2222L348.8400,393.9606L367.2000,399.8809L385.5600,405.1115L403.9200,409.7604L422.2800,413.9181L440.6400,417.6608
            L459.0000,421.0524L477.3600,424.1467L495.7200,426.9889L514.0800,429.6168L532.4400,432.0625L550.8000,434.3527L550.8612,434.3599"/>
   <path d="M91.8000,91.8000L110.1600,126.4557L128.5200,157.5406L146.8800,185.4384L165.2400,210.4829L183.6000,232.9996L201.9600,253.2597L220.3200,271.5048L238.6800,287.9504L257.0400,302.7890
            L275.4000,316.1918L293.7600,328.3117L312.1200,339.2851L330.4800,349.2335L348.8400,358.2655L367.2000,366.4778L385.5600,373.9565L403.9200,380.7788L422.2800,387.0132L440.6400,392.7209
            L459.0000,397.9567L477.3600,402.7692L495.7200,407.2018L514.0800,411.2934L532.4400,415.0786L550.8000,418.5882L550.8612,418.5991"/>
   <path d="M91.8000,91.8000L110.1600,126.9542L128.5200,158.5994L146.8800,187.1078L165.2400,212.8064L183.6000,236.0126L201.9600,256.9909L220.3200,275.9773L238.6800,293.1824L257.0400,308.7938
            L275.4000,322.9791L293.7600,335.8878L312.1200,347.6531L330.4800,358.3940L348.8400,368.2166L367.2000,377.2157L385.5600,385.4757L403.9200,393.0721L422.2800,400.0721L440.6400,406.5359
            L459.0000,412.5170L477.3600,418.0632L495.7200,423.2174L514.0800,428.0177L532.4400,432.4981L550.8000,436.6891L550.8612,436.7022"/>
   <path d="M91.8000,91.8000L110.1600,122.2761L128.5200,150.2034L146.8800,175.8118L165.2400,199.3035L183.6000,220.8825L201.9600,240.7208L220.3200,258.9744L238.6800,275.7847L257.0400,291.2802
            L275.4000,305.5775L293.7600,318.7826L312.1200,330.9916L330.4800,342.2918L348.8400,352.7626L367.2000,362.4760L385.5600,371.4974L403.9200,379.8861L422.2800,387.6961L440.6400,394.9765
            L459.0000,401.7716L477.3600,408.1220L495.7200,414.0644L514.0800,419.6320L532.4400,424.8554L550.8000,429.7620L550.8612,429.7774"/>
   <path d="M91.8000,91.8000L110.1600,124.8867L128.5200,154.7344L146.8800,181.6767L165.2400,206.0023L183.6000,227.9938L201.9600,247.8914L220.3200,265.9088L238.6800,282.2377L257.0400,297.0503
            L275.4000,310.5007L293.7600,322.7273L312.1200,333.8543L330.4800,343.9930L348.8400,353.2433L367.2000,361.6947L385.5600,369.4276L403.9200,376.5141L422.2800,383.0189L440.6400,388.9998
            L459.0000,394.5090L477.3600,399.5931L495.7200,404.2940L514.0800,408.6492L532.4400,412.6924L550.8000,416.4538L550.8612,416.4655"/>
   <path d="M91.8000,91.8000L110.1600,136.2490L128.5200,175.1821L146.8800,209.3243L165.2400,239.2958L183.6000,265.6705L201.9600,288.9182L220.3200,309.4453L238.6800,327.6038L257.0400,343.6984
            L275.4000,357.9929L293.7600,370.7155L312.1200,382.0641L330.4800,392.2098L348.8400,401.3011L367.2000,409.4666L385.5600,416.8177L403.9200,423.4513L422.2800,429.4514L440.6400,434.8910
            L459.0000,439.8336L477.3600,444.3348L495.7200,448.4426L514.0800,452.1993L532.4400,455.6418L550.8000,458.8023L550.8612,458.8120"/>
   <path d="M91.8000,91.8000L110.1600,134.3550L128.5200,171.6169L146.8800,204.2861L165.2400,232.9521L183.6000,258.1662L201.9600,280.3825L220.3200,299.9947L238.6800,317.3446L257.0400,332.7293
            L275.4000,346.4065L293.7600,358.5999L312.1200,369.5040L330.4800,379.2874L348.8400,388.0963L367.2000,396.0577L385.5600,403.2818L403.9200,409.8641L422.2800,415.8873L440.6400,421.4231
            L459.0000,426.5339L477.3600,431.2734L495.7200,435.6881L514.0800,439.8186L532.4400,443.6995L550.8000,447.3612L550.8612,447.3727"/>
   <path d="M91.8000,91.8000L110.1600,130.3757L128.5200,164.4994L146.8800,194.7062L165.2400,221.4559L183.6000,245.1864L201.9600,266.2596L220.3200,284.9937L238.6800,301.6684L257.0400,316.5297
            L275.4000,329.7939L293.7600,341.6512L312.1200,352.2688L330.4800,361.7937L348.8400,370.3552L367.2000,378.0669L385.5600,385.0288L403.9200,391.3287L422.2800,397.0440L440.6400,402.2425
            L459.0000,406.9840L477.3600,411.3211L495.7200,415.2998L514.0800,418.9609L532.4400,422.3401L550.8000,425.4687L550.8612,425.4784"/>
   <path d="M91.8000,91.8000L110.1600,135.4156L128.5200,173.4669L146.8800,206.6723L165.2400,235.6510L183.6000,260.9769L201.9600,283.1209L220.3200,302.4918L238.6800,319.4452L257.0400,334.2901
            L275.4000,347.2954L293.7600,358.6946L312.1200,368.6915L330.4800,377.4629L348.8400,385.1633L367.2000,391.9270L385.5600,397.8711L403.9200,403.0980L422.2800,407.6965L440.6400,411.7446
            L459.0000,415.3101L477.3600,418.4523L495.7200,421.2231L514.0800,423.6677L532.4400,425.8258L550.8000,427.7320L550.8612,427.7376"/>
   <path d="M91.8000,91.8000L110.1600,126.0103L128.5200,156.8800L146.8800,184.7575L165.2400,209.9476L183.6000,232.7492L201.9600,253.4116L220.3200,272.1580L238.6800,289.1880L257.0400,304.6801
            L275.4000,318.7941L293.7600,331.6731L312.1200,343.4448L330.4800,354.2238L348.8400,364.1123L367.2000,373.2020L385.5600,381.5748L403.9200,389.3040L422.2800,396.4549L440.6400,403.0863
            L459.0000,409.2506L477.3600,414.9946L495.7200,420.3602L514.0800,425.3848L532.4400,430.1020L550.8000,434.5415L550.8612,434.5555"/>
   <path d="M91.8000,91.8000L110.1600,129.5669L128.5200,163.0287L146.8800,192.6866L165.2400,218.9771L183.6000,242.3146L201.9600,263.0429L220.3200,281.4646L238.6800,297.8471L257.0400,312.4258
            L275.4000,325.4088L293.7600,336.9794L312.1200,347.2994L330.4800,356.5116L348.8400,364.7423L367.2000,372.1028L385.5600,378.6914L403.9200,384.5950L422.2800,389.8904L440.6400,394.6454
            L459.0000,398.9201L477.3600,402.7676L495.7200,406.2347L514.0800,409.3631L532.4400,412.1894L550.8000,414.7464L550.8612,414.7541"/>
   <path d="M91.8000,91.8000L110.1600,131.4489L128.5200,166.3579L146.8800,197.1132L165.2400,224.2215L183.6000,248.1586L201.9600,269.3171L220.3200,288.0405L238.6800,304.6295L257.0400,319.3474
            L275.4000,332.4244L293.7600,344.0623L312.1200,354.4376L330.4800,363.7047L348.8400,371.9991L367.2000,379.4392L385.5600,386.1286L403.9200,392.1582L422.2800,397.6075L440.6400,402.5460
            L459.0000,407.0349L477.3600,411.1275L495.7200,414.8704L514.0800,418.3048L532.4400,421.4665L550.8000,424.3869L550.8612,424.3959"/>
   <path d="M91.8000,91.8000L110.1600,126.0240L128.5200,156.8031L146.8800,184.5038L165.2400,209.4398L183.6000,231.9188L201.9600,252.1998L220.3200,270.5133L238.6800,287.0654L257.0400,302.0401
            L275.4000,315.6022L293.7600,327.8985L312.1200,339.0608L330.4800,349.2063L348.8400,358.4401L367.2000,366.8561L385.5600,374.5381L403.9200,381.5610L422.2800,387.9918L440.6400,393.8903
            L459.0000,399.3101L477.3600,404.2988L495.7200,408.8993L514.0800,413.1496L532.4400,417.0839L550.8000,420.7327L550.8612,420.7440"/>
   <path d="M91.8000,91.8000L110.1600,130.1292L128.5200,164.1712L146.8800,194.4322L165.2400,221.3492L183.6000,245.3389L201.9600,266.7468L220.3200,285.8772L238.6800,302.9984L257.0400,318.3469
            L275.4000,332.1312L293.7600,344.5352L312.1200,355.7207L330.4800,365.8307L348.8400,374.9909L367.2000,383.3123L385.5600,390.8928L403.9200,397.8184L422.2800,404.1652L440.6400,410.0000
            L459.0000,415.3820L477.3600,420.3631L495.7200,424.9891L514.0800,429.3003L532.4400,433.3324L550.8000,437.1167L550.8612,437.1286"/>
   <path d="M91.8000,91.8000L110.1600,153.0244L128.5200,202.6540L146.8800,242.9331L165.2400,275.6863L183.6000,302.4202L201.9600,324.3039L220.3200,342.2786L238.6800,357.1016L257.0400,369.3828
            L275.4000,379.6127L293.7600,388.1866L312.1200,395.4224L330.4800,401.5763L348.8400,406.8545L367.2000,411.4231L385.5600,415.4157L403.9200,418.9403L422.2800,422.0837L440.6400,424.9159
            L459.0000,427.4933L477.3600,429.8615L495.7200,432.0572L514.0800,434.1102L532.4400,436.0443L550.8000,437.8790L550.8612,437.8848"/>
   <path d="M91.8000,91.8000L110.1600,126.7520L128.5200,158.0370L146.8800,186.0600L165.2400,211.1658L183.6000,233.6854L201.9600,253.9035L220.3200,272.0700L238.6800,288.4077L257.0400,303.1149
            L275.4000,316.3683L293.7600,328.3251L312.1200,339.1255L330.4800,348.8942L348.8400,357.7424L367.2000,365.7689L385.5600,373.0620L403.9200,379.6999L422.2800,385.7528L440.6400,391.2827
            L459.0000,396.3451L477.3600,400.9894L495.7200,405.2595L514.0800,409.1946L532.4400,412.8297L550.8000,416.1957L550.8612,416.2061"/>
   <path d="M91.8000,91.8000L110.1600,123.7002L128.5200,152.6855L146.8800,179.0419L165.2400,203.0176L183.6000,224.8571L201.9600,244.7703L220.3200,262.9446L238.6800,279.5491L257.0400,294.7362
            L275.4000,308.6437L293.7600,321.3956L312.1200,333.1039L330.4800,343.8698L348.8400,353.7842L367.2000,362.9296L385.5600,371.3800L403.9200,379.2024L422.2800,386.4571L440.6400,393.1986
            L459.0000,399.4761L477.3600,405.3337L495.7200,410.8116L514.0800,415.9457L532.4400,420.7685L550.8000,425.3095L550.8612,425.3237"/>
   <path d="M91.8000,91.8000L110.1600,126.5205L128.5200,158.5410L146.8800,188.0516L165.2400,215.2088L183.6000,240.1743L201.9600,263.0887L220.3200,284.0806L238.6800,303.2725L257.0400,320.7819
            L275.4000,336.7230L293.7600,351.2072L312.1200,364.3429L330.4800,376.2352L348.8400,386.9855L367.2000,396.6909L385.5600,405.4437L403.9200,413.3308L422.2800,420.4333L440.6400,426.8267
            L459.0000,432.5804L477.3600,437.7582L495.7200,442.4181L514.0800,446.6128L532.4400,450.3901L550.8000,453.7929L550.8612,453.8032"/>
   <path d="M91.8000,91.8000L110.1600,130.8010L128.5200,165.2854L146.8800,195.7994L165.2400,222.8150L183.6000,246.7790L201.9600,268.0606L220.3200,286.9839L238.6800,303.8337L257.0400,318.8601
            L275.4000,332.2828L293.7600,344.2946L312.1200,355.0649L330.4800,364.7426L348.8400,373.4583L367.2000,381.3268L385.5600,388.4490L403.9200,394.9134L422.2800,400.7978L440.6400,406.1704
            L459.0000,411.0913L477.3600,415.6133L495.7200,419.7824L514.0800,423.6395L532.4400,427.2202L550.8000,430.5559L550.8612,430.5663"/>
   <path d="M91.8000,91.8000L110.1600,126.3041L128.5200,157.3342L146.8800,185.2583L165.2400,210.3996L183.6000,233.0723L201.9600,253.5386L220.3200,272.0325L238.6800,288.7632L257.0400,303.9172
            L275.4000,317.6611L293.7600,330.1438L312.1200,341.4983L330.4800,351.8432L348.8400,361.2846L367.2000,369.9172L385.5600,377.8255L403.9200,385.0853L422.2800,391.7639L440.6400,397.9216
            L459.0000,403.6124L477.3600,408.8844L495.7200,413.7805L514.0800,418.3393L532.4400,422.5949L550.8000,426.5781L550.8612,426.5906"/>
   <path d="M91.8000,91.8000L110.1600,131.4746L128.5200,166.3779L146.8800,197.1029L165.2400,224.1586L183.6000,248.0248L201.9600,269.0970L220.3200,287.7211L238.6800,304.1999L257.0400,318.7984
            L275.4000,331.7482L293.7600,343.2521L312.1200,353.4877L330.4800,362.6102L348.8400,370.7556L367.2000,378.0426L385.5600,384.5753L403.9200,390.4448L422.2800,395.7308L440.6400,400.5029
            L459.0000,404.8222L477.3600,408.7421L495.7200,412.3092L514.0800,415.5646L532.4400,418.5439L550.8000,421.2785L550.8612,421.2869"/>
   <path d="M91.8000,91.8000L110.1600,128.9823L128.5200,162.0575L146.8800,191.4988L165.2400,217.7172L183.6000,241.1058L201.9600,261.9908L220.3200,280.6605L238.6800,297.3695L257.0400,312.3432
            L275.4000,325.7806L293.7600,337.8577L312.1200,348.7300L330.4800,358.5350L348.8400,367.3944L367.2000,375.4156L385.5600,382.6936L403.9200,389.3124L422.2800,395.3464L440.6400,400.8612
            L459.0000,405.9149L477.3600,410.5588L495.7200,414.8384L514.0800,418.7938L532.4400,422.4606L550.8000,425.8701L550.8612,425.8807"/>
   <path d="M91.8000,91.8000L110.1600,130.6787L128.5200,165.0764L146.8800,195.5318L165.2400,222.5132L183.6000,246.4626L201.9600,267.7456L220.3200,286.6834L238.6800,303.5582L257.0400,318.6178
            L275.4000,332.0801L293.7600,344.1366L312.1200,354.9554L330.4800,364.6843L348.8400,373.4534L367.2000,381.3766L385.5600,388.5545L403.9200,395.0752L422.2800,401.0163L440.6400,406.4459
            L459.0000,411.4239L477.3600,416.0031L495.7200,420.2297L514.0800,424.1445L532.4400,427.7834L550.8000,431.1777L550.8612,431.1883"/>
   <path d="M91.8000,91.8000L110.1600,125.4047L128.5200,155.7476L146.8800,183.1682L165.2400,207.9571L183.6000,230.3980L201.9600,250.7343L220.3200,269.1819L238.6800,285.9343L257.0400,301.1653
            L275.4000,315.0305L293.7600,327.6696L312.1200,339.2078L330.4800,349.7574L348.8400,359.4192L367.2000,368.2833L385.5600,376.4307L403.9200,383.9341L422.2800,390.8585L440.6400,397.2622
            L459.0000,403.1976L477.3600,408.7115L495.7200,413.8459L514.0800,418.6387L532.4400,423.1234L550.8000,427.3304L550.8612,427.3436"/>
   <path d="M91.8000,91.8000L110.1600,127.0216L128.5200,158.6812L146.8800,187.1622L165.2400,212.7988L183.6000,235.9164L201.9600,256.7864L220.3200,275.6506L238.6800,292.7247L257.0400,308.2013
            L275.4000,322.2518L293.7600,335.0293L312.1200,346.6704L330.4800,357.2968L348.8400,367.0170L367.2000,375.9280L385.5600,384.1161L403.9200,391.6584L422.2800,398.6236L440.6400,405.0731
            L459.0000,411.0615L477.3600,416.6376L495.7200,421.8449L514.0800,426.7222L532.4400,431.3041L550.8000,435.6215L550.8612,435.6351"/>
   <path d="M91.8000,91.8000L110.1600,133.3471L128.5200,169.7286L146.8800,201.6147L165.2400,229.5775L183.6000,254.1520L201.9600,275.7771L220.3200,294.8348L238.6800,311.6572L257.0400,326.5333
            L275.4000,339.7144L293.7600,351.4192L312.1200,361.8379L330.4800,371.1358L348.8400,379.4569L367.2000,386.9261L385.5600,393.6523L403.9200,399.7303L422.2800,405.2421L440.6400,410.2596
            L459.0000,414.8449L477.3600,419.0521L495.7200,422.9283L514.0800,426.5146L532.4400,429.8465L550.8000,432.9550L550.8612,432.9647"/>
   <path d="M91.8000,91.8000L110.1600,130.3503L128.5200,164.4336L146.8800,194.5887L165.2400,221.2763L183.6000,244.9318L201.9600,265.9204L220.3200,284.5608L238.6800,301.1337L257.0400,315.8857
            L275.4000,329.0334L293.7600,340.7676L312.1200,351.2558L330.4800,360.6452L348.8400,369.0655L367.2000,376.6304L385.5600,383.4400L403.9200,389.5823L422.2800,395.1346L440.6400,400.1649
            L459.0000,404.7330L477.3600,408.8914L495.7200,412.6864L514.0800,416.1585L532.4400,419.3436L550.8000,422.2730L550.8612,422.2820"/>
   <path d="M91.8000,91.8000L110.1600,142.1425L128.5200,184.6616L146.8800,220.5998L165.2400,251.0067L183.6000,276.7994L201.9600,298.7141L220.3200,317.3690L238.6800,333.2831L257.0400,346.8920
            L275.4000,358.5616L293.7600,368.5994L312.1200,377.2634L330.4800,384.7704L348.8400,391.3025L367.2000,397.0127L385.5600,402.0297L403.9200,406.4615L422.2800,410.3990L440.6400,413.9186
            L459.0000,417.0844L477.3600,419.9505L495.7200,422.5624L514.0800,424.9582L532.4400,427.1702L550.8000,429.2255L550.8612,429.2319"/>
   <path d="M91.8000,91.8000L110.1600,130.4258L128.5200,164.6889L146.8800,195.1132L165.2400,222.1465L183.6000,246.2140L201.9600,267.6717L220.3200,286.8313L238.6800,303.9677L257.0400,319.3225
            L275.4000,333.1086L293.7600,345.5136L312.1200,356.7025L330.4800,366.8205L348.8400,375.9956L367.2000,384.3405L385.5600,391.9541L403.9200,398.9239L422.2800,405.3265L440.6400,411.2296
            L459.0000,416.6928L477.3600,421.7684L495.7200,426.5024L514.0800,430.9356L532.4400,435.1035L550.8000,439.0377L550.8612,439.0501"/>
   <path d="M91.8000,91.8000L110.1600,124.7228L128.5200,154.4731L146.8800,181.3752L165.2400,205.7093L183.6000,227.7481L201.9600,247.7265L220.3200,265.8529L238.6800,282.3144L257.0400,297.2790
            L275.4000,310.8977L293.7600,323.3060L312.1200,334.6256L330.4800,344.9660L348.8400,354.4253L367.2000,363.0917L385.5600,371.0443L403.9200,378.3544L422.2800,385.0857L440.6400,391.2955
            L459.0000,397.0356L477.3600,402.3520L495.7200,407.2863L514.0800,411.8758L532.4400,416.1541L550.8000,420.1512L550.8612,420.1637"/>
   <path d="M91.8000,91.8000L110.1600,138.5909L128.5200,178.8752L146.8800,213.5944L165.2400,243.5422L183.6000,269.4394L201.9600,291.8703L220.3200,311.3342L238.6800,328.2574L257.0400,343.0042
            L275.4000,355.8857L293.7600,367.1674L312.1200,377.0764L330.4800,385.8064L348.8400,393.5228L367.2000,400.3671L385.5600,406.4597L403.9200,411.9040L422.2800,416.7879L440.6400,421.1868
            L459.0000,425.1648L477.3600,428.7771L495.7200,432.0705L514.0800,435.0855L532.4400,437.8564L550.8000,440.4126L550.8612,440.4205"/>
   <path d="M91.8000,91.8000L110.1600,133.8797L128.5200,170.6446L146.8800,202.7921L165.2400,230.9211L183.6000,255.5864L201.9600,277.2431L220.3200,296.2860L238.6800,313.0580L257.0400,327.8565
            L275.4000,340.9397L293.7600,352.5317L312.1200,362.8269L330.4800,371.9941L348.8400,380.1798L367.2000,387.5112L385.5600,394.0986L403.9200,400.0378L422.2800,405.4120L440.6400,410.2934
            L459.0000,414.7446L477.3600,418.8200L495.7200,422.5669L514.0800,426.0262L532.4400,429.2335L550.8000,432.2199L550.8612,432.2292"/>
   <path d="M91.8000,91.8000L110.1600,124.0910L128.5200,153.3486L146.8800,179.8776L165.2400,203.9383L183.6000,225.7865L201.9600,245.6430L220.3200,263.7045L238.6800,280.1477L257.0400,295.1318
            L275.4000,308.8004L293.7600,321.2826L312.1200,332.6948L330.4800,343.1417L348.8400,352.7176L367.2000,361.5075L385.5600,369.5878L403.9200,377.0274L422.2800,383.8883L440.6400,390.2263
            L459.0000,396.0918L477.3600,401.5298L495.7200,406.5812L514.0800,411.2827L532.4400,415.6673L550.8000,419.7647L550.8612,419.7775"/>
   <path d="M91.8000,91.8000L110.1600,130.6329L128.5200,164.9139L146.8800,195.1992L165.2400,221.9630L183.6000,245.6531L201.9600,266.6442L220.3200,285.2633L238.6800,301.7976L257.0400,316.4990
            L275.4000,329.5890L293.7600,341.2618L312.1200,351.6878L330.4800,361.0169L348.8400,369.3805L367.2000,376.8939L385.5600,383.6584L403.9200,389.7629L422.2800,395.2854L440.6400,400.2944
            L459.0000,404.8501L477.3600,409.0052L495.7200,412.8062L514.0800,416.2937L532.4400,419.5034L550.8000,422.4667L550.8612,422.4759"/>
   <path d="M91.8000,91.8000L110.1600,144.0494L128.5200,187.8280L146.8800,224.5407L165.2400,255.3473L183.6000,281.2647L201.9600,303.1021L220.3200,321.5341L238.6800,337.1230L257.0400,350.3376
            L275.4000,361.5686L293.7600,371.1418L312.1200,379.3285L330.4800,386.3550L348.8400,392.4098L367.2000,397.6502L385.5600,402.2071L403.9200,406.1896L422.2800,409.6890L440.6400,412.7809
            L459.0000,415.5287L477.3600,417.9852L495.7200,420.1943L514.0800,422.1929L532.4400,424.0115L550.8000,425.6757L550.8612,425.6808"/>
   <path d="M91.8000,91.8000L110.1600,144.4002L128.5200,188.5245L146.8800,225.5726L165.2400,256.7116L183.6000,282.9573L201.9600,305.1191L220.3200,323.8716L238.6800,339.7770L257.0400,353.3039
            L275.4000,364.8428L293.7600,374.7194L312.1200,383.2049L330.4800,390.5254L348.8400,396.8695L367.2000,402.3944L385.5600,407.2313L403.9200,411.4893L422.2800,415.2598L440.6400,418.6189
            L459.0000,421.6301L477.3600,424.3464L495.7200,426.8123L514.0800,429.0647L532.4400,431.1346L550.8000,433.0481L550.8612,433.0540"/>
   <path d="M91.8000,91.8000L110.1600,139.4874L128.5200,180.1003L146.8800,214.7091L165.2400,244.2158L183.6000,269.4270L201.9600,290.9930L220.3200,309.4652L238.6800,325.3111L257.0400,338.9267
            L275.4000,350.6479L293.7600,360.7595L312.1200,369.5028L330.4800,377.0824L348.8400,383.6718L367.2000,389.4182L385.5600,394.4464L403.9200,398.8622L422.2800,402.7554L440.6400,406.2022
            L459.0000,409.2672L477.3600,412.0053L495.7200,414.4631L514.0800,416.6802L532.4400,418.6902L550.8000,420.5217L550.8612,420.5273"/>
   <path d="M91.8000,91.8000L110.1600,136.3809L128.5200,174.9133L146.8800,208.2410L165.2400,237.0873L183.6000,262.1088L201.9600,283.8406L220.3200,302.7427L238.6800,319.2101L257.0400,333.5820
            L275.4000,346.1501L293.7600,357.1649L312.1200,366.8415L330.4800,375.3649L348.8400,382.8941L367.2000,389.5656L385.5600,395.4969L403.9200,400.7888L422.2800,405.5282L440.6400,409.7897
            L459.0000,413.6373L477.3600,417.1262L495.7200,420.3038L514.0800,423.2111L532.4400,425.8830L550.8000,428.3497L550.8612,428.3573"/>
   <path d="M91.8000,91.8000L110.1600,126.8653L128.5200,158.2098L146.8800,186.2412L165.2400,211.3156L183.6000,233.7769L201.9600,253.9113L220.3200,271.9736L238.6800,288.1901L257.0400,302.7622
            L275.4000,315.8689L293.7600,327.6698L312.1200,338.3064L330.4800,347.9049L348.8400,356.5776L367.2000,364.4243L385.5600,371.5340L403.9200,377.9856L422.2800,383.8496L440.6400,389.1888
            L459.0000,394.0589L477.3600,398.5096L495.7200,402.5852L514.0800,406.3250L532.4400,409.7642L550.8000,412.9340L550.8612,412.9438"/>
   <path d="M91.8000,91.8000L110.1600,124.0395L128.5200,153.2788L146.8800,179.8175L165.2400,203.9132L183.6000,225.8187L201.9600,245.7524L220.3200,263.9082L238.6800,280.4610L257.0400,295.5684
            L275.4000,309.3724L293.7600,322.0007L312.1200,333.5688L330.4800,344.1802L348.8400,353.9285L367.2000,362.8980L385.5600,371.1644L403.9200,378.7960L422.2800,385.8545L440.6400,392.3953
            L459.0000,398.4682L477.3600,404.1182L495.7200,409.3857L514.0800,414.3074L532.4400,418.9159L550.8000,423.2408L550.8612,423.2543"/>
   <path d="M91.8000,91.8000L110.1600,129.7922L128.5200,163.4289L146.8800,193.2262L165.2400,219.6352L183.6000,243.0813L201.9600,263.9171L220.3200,282.4526L238.6800,298.9608L257.0400,313.6819
            L275.4000,326.8274L293.7600,338.5836L312.1200,349.1143L330.4800,358.5639L348.8400,367.0596L367.2000,374.7133L385.5600,381.6238L403.9200,387.8778L422.2800,393.5519L440.6400,398.7137
            L459.0000,403.4225L477.3600,407.7309L495.7200,411.6848L514.0800,415.3252L532.4400,418.6879L550.8000,421.8044L550.8612,421.8141"/>
   <path d="M91.8000,91.8000L110.1600,125.6452L128.5200,156.1421L146.8800,183.6426L165.2400,208.4500L183.6000,230.8599L201.9600,251.1237L220.3200,269.4649L238.6800,286.0833L257.0400,301.1579
            L275.4000,314.8489L293.7600,327.2999L312.1200,338.6391L330.4800,348.9815L348.8400,358.4300L367.2000,367.0767L385.5600,375.0039L403.9200,382.2856L422.2800,388.9876L440.6400,395.1692
            L459.0000,400.8831L477.3600,406.1769L495.7200,411.0927L514.0800,415.6686L532.4400,419.9386L550.8000,423.9329L550.8612,423.9454"/>
   <path d="M91.8000,91.8000L110.1600,140.2579L128.5200,181.7099L146.8800,217.2142L165.2400,247.6579L183.6000,273.8386L201.9600,296.4002L220.3200,315.8889L238.6800,332.7685L257.0400,347.4325
            L275.4000,360.2147L293.7600,371.3984L312.1200,381.2239L330.4800,389.8950L348.8400,397.5847L367.2000,404.4396L385.5600,410.5840L403.9200,416.1233L422.2800,421.1470L440.6400,425.7307
            L459.0000,429.9388L477.3600,433.8257L495.7200,437.4374L514.0800,440.8132L532.4400,443.9860L550.8000,446.9839L550.8612,446.9934"/>
   <path d="M91.8000,91.8000L110.1600,131.7098L128.5200,166.8760L146.8800,197.8914L165.2400,225.2595L183.6000,249.4548L201.9600,270.8724L220.3200,289.8568L238.6800,306.7094L257.0400,321.6941
            L275.4000,335.0419L293.7600,346.9551L312.1200,357.6105L330.4800,367.1631L348.8400,375.7485L367.2000,383.4853L385.5600,390.4773L403.9200,396.8154L422.2800,402.5790L440.6400,407.8377
            L459.0000,412.6525L477.3600,417.0765L495.7200,421.1564L514.0800,424.9329L532.4400,428.4418L550.8000,431.7143L550.8612,431.7245"/>
   <path d="M91.8000,91.8000L110.1600,131.6774L128.5200,166.7752L146.8800,197.6866L165.2400,224.9276L183.6000,248.9800L201.9600,270.2410L220.3200,289.0582L238.6800,305.7355L257.0400,320.5387
            L275.4000,333.7004L293.7600,345.4239L312.1200,355.8871L330.4800,365.2458L348.8400,373.6361L367.2000,381.1773L385.5600,387.9736L403.9200,394.1164L422.2800,399.6857L440.6400,404.7513
            L459.0000,409.3745L477.3600,413.6089L495.7200,417.5015L514.0800,421.0935L532.4400,424.4208L550.8000,427.5150L550.8612,427.5246"/>
   <path d="M91.8000,91.8000L110.1600,136.0872L128.5200,174.5729L146.8800,208.0595L165.2400,237.2213L183.6000,262.6785L201.9600,284.9420L220.3200,304.4504L238.6800,321.5818L257.0400,336.6622
            L275.4000,349.9726L293.7600,361.7550L312.1200,372.2180L330.4800,381.5415L348.8400,389.8803L367.2000,397.3678L385.5600,404.1189L403.9200,410.2324L422.2800,415.7937L440.6400,420.8760
            L459.0000,425.5424L477.3600,429.8475L495.7200,433.8378L514.0800,437.5537L532.4400,441.0299L550.8000,444.2961L550.8612,444.3064"/>
   <path d="M91.8000,91.8000L110.1600,141.2346L128.5200,183.1240L146.8800,218.6487L165.2400,248.7940L183.6000,274.4361L201.9600,296.2786L220.3200,314.9147L238.6800,330.8440L257.0400,344.4881
            L275.4000,356.2020L293.7600,366.2851L312.1200,374.9896L330.4800,382.5282L348.8400,389.0800L367.2000,394.7962L385.5600,399.8040L403.9200,404.2106L422.2800,408.1067L440.6400,411.5684
            L459.0000,414.6599L477.3600,417.4356L495.7200,419.9412L514.0800,422.2151L532.4400,424.2899L550.8000,426.1930L550.8612,426.1989"/>
   <path d="M91.8000,91.8000L110.1600,121.1967L128.5200,148.3377L146.8800,173.4017L165.2400,196.5433L183.6000,217.9218L201.9600,237.6744L220.3200,255.9253L238.6800,272.7889L257.0400,288.3702
            L275.4000,302.7661L293.7600,316.0656L312.1200,328.3511L330.4800,339.6982L348.8400,350.1773L367.2000,359.8532L385.5600,368.7857L403.9200,377.0306L422.2800,384.6393L440.6400,391.6594
            L459.0000,398.1351L477.3600,404.1075L495.7200,409.6145L514.0800,414.6915L532.4400,419.3709L550.8000,423.6832L550.8612,423.6964"/>
   <path d="M91.8000,91.8000L110.1600,137.4706L128.5200,176.7221L146.8800,210.4810L165.2400,239.5284L183.6000,264.5747L201.9600,286.1962L220.3200,304.8855L238.6800,321.0640L257.0400,335.0918
            L275.4000,347.2769L293.7600,357.8826L312.1200,367.1341L330.4800,375.2237L348.8400,382.3162L367.2000,388.5522L385.5600,394.0519L403.9200,398.9184L422.2800,403.2396L440.6400,407.0906
            L459.0000,410.5360L477.3600,413.6306L495.7200,416.4216L514.0800,418.9493L532.4400,421.2482L550.8000,423.3478L550.8612,423.3542"/>
   <path d="M91.8000,91.8000L110.1600,134.1361L128.5200,170.9965L146.8800,203.1102L165.2400,231.1055L183.6000,255.5590L201.9600,276.9437L220.3200,295.6688L238.6800,312.0885L257.0400,326.5094
            L275.4000,339.1969L293.7600,350.3809L312.1200,360.2603L330.4800,369.0075L348.8400,376.7716L367.2000,383.6818L385.5600,389.8502L403.9200,395.3737L422.2800,400.3362L440.6400,404.8107
            L459.0000,408.8600L477.3600,412.5390L495.7200,415.8950L514.0800,418.9691L532.4400,421.7968L550.8000,424.4091L550.8612,424.4172"/>
   <path d="M91.8000,91.8000L110.1600,132.9083L128.5200,168.9277L146.8800,200.5147L165.2400,228.2294L183.6000,252.5959L201.9600,274.0449L220.3200,292.9513L238.6800,309.6417L257.0400,324.4002
            L275.4000,337.4743L293.7600,349.0795L312.1200,359.4032L330.4800,368.6088L348.8400,376.8384L367.2000,384.2158L385.5600,390.8485L403.9200,396.8304L422.2800,402.2431L440.6400,407.1575
            L459.0000,411.6355L477.3600,415.7309L495.7200,419.4904L514.0800,422.9549L532.4400,426.1597L550.8000,429.1357L550.8612,429.1450"/>
   <path d="M91.8000,91.8000L110.1600,123.3242L128.5200,152.0671L146.8800,178.2909L165.2400,202.2236L183.6000,224.0927L201.9600,244.0918L220.3200,262.3947L238.6800,279.1589L257.0400,294.5266
            L275.4000,308.6266L293.7600,321.5753L312.1200,333.4781L330.4800,344.4303L348.8400,354.5181L367.2000,363.8196L385.5600,372.4054L403.9200,380.3393L422.2800,387.6792L440.6400,394.4774
            L459.0000,400.7813L477.3600,406.6338L495.7200,412.0737L514.0800,417.1363L532.4400,421.8533L550.8000,426.2537L550.8612,426.2674"/>
   <path d="M91.8000,91.8000L110.1600,127.4253L128.5200,159.3085L146.8800,187.8666L165.2400,213.4559L183.6000,236.4190L201.9600,257.0477L220.3200,275.5989L238.6800,292.3010L257.0400,307.3572
            L275.4000,320.9482L293.7600,333.2347L312.1200,344.3595L330.4800,354.4496L348.8400,363.6179L367.2000,371.9649L385.5600,379.5798L403.9200,386.5420L422.2800,392.9220L440.6400,398.7826
            L459.0000,404.1794L477.3600,409.1621L495.7200,413.7746L514.0800,418.0562L532.4400,422.0416L550.8000,425.7618L550.8612,425.7734"/>
   <path d="M91.8000,91.8000L110.1600,123.8028L128.5200,152.8967L146.8800,179.3661L165.2400,203.4586L183.6000,225.4190L201.9600,245.4559L220.3200,263.7563L238.6800,280.4886L257.0400,295.8051
            L275.4000,309.8430L293.7600,322.7261L312.1200,334.5661L330.4800,345.4637L348.8400,355.5100L367.2000,364.7869L385.5600,373.3685L403.9200,381.3214L422.2800,388.7059L440.6400,395.5763
            L459.0000,401.9816L477.3600,407.9660L495.7200,413.5692L514.0800,418.8272L532.4400,423.7725L550.8000,428.4342L550.8612,428.4489"/>
   <path d="M91.8000,91.8000L110.1600,124.9186L128.5200,154.7935L146.8800,181.7581L165.2400,206.1027L183.6000,228.1137L201.9600,248.0303L220.3200,266.0668L238.6800,282.4154L257.0400,297.2483
            L275.4000,310.7202L293.7600,322.9696L312.1200,334.1206L330.4800,344.2848L348.8400,353.5620L367.2000,362.0418L385.5600,369.8046L403.9200,376.9226L422.2800,383.4603L440.6400,389.4759
            L459.0000,395.0212L477.3600,400.1431L495.7200,404.8834L514.0800,409.2796L532.4400,413.3655L550.8000,417.1713L550.8612,417.1831"/>
   <path d="M91.8000,91.8000L110.1600,124.5770L128.5200,154.1986L146.8800,180.9843L165.2400,205.2143L183.6000,227.1647L201.9600,247.0664L220.3200,265.1265L238.6800,281.5311L257.0400,296.4472
            L275.4000,310.0250L293.7600,322.3990L312.1200,333.6903L330.4800,344.0077L348.8400,353.4486L367.2000,362.1009L385.5600,370.0434L403.9200,377.3468L422.2800,384.0747L440.6400,390.2843
            L459.0000,396.0271L477.3600,401.3490L495.7200,406.2917L514.0800,410.8923L532.4400,415.1844L550.8000,419.1982L550.8612,419.2108"/>
   <path d="M91.8000,91.8000L110.1600,132.4253L128.5200,168.2232L146.8800,199.8038L165.2400,227.6840L183.6000,252.3519L201.9600,274.2114L220.3200,293.6150L238.6800,310.8706L257.0400,326.2475
            L275.4000,339.9812L293.7600,352.2773L312.1200,363.3158L330.4800,373.2536L348.8400,382.2281L367.2000,390.3593L385.5600,397.7518L403.9200,404.4973L422.2800,410.6757L440.6400,416.3567
            L459.0000,421.6013L477.3600,426.4627L495.7200,430.9873L514.0800,435.2158L532.4400,439.1833L550.8000,442.9207L550.8612,442.9325"/>
   <path d="M91.8000,91.8000L110.1600,141.2662L128.5200,183.4636L146.8800,219.4819L165.2400,250.2431L183.6000,276.5689L201.9600,299.1227L220.3200,318.4669L238.6800,335.0781L257.0400,349.3609
            L275.4000,361.6581L293.7600,372.2609L312.1200,381.4164L330.4800,389.3344L348.8400,396.1932L367.2000,402.1443L385.5600,407.3167L403.9200,411.8200L422.2800,415.7477L440.6400,419.1796
            L459.0000,422.1834L477.3600,424.8174L495.7200,427.1311L514.0800,429.1668L532.4400,430.9611L550.8000,432.5450L550.8612,432.5497"/>
   <path d="M91.8000,91.8000L110.1600,129.1656L128.5200,162.5224L146.8800,192.3245L165.2400,218.9598L183.6000,242.8011L201.9600,264.1624L220.3200,283.3202L238.6800,300.5195L257.0400,315.9776
            L275.4000,329.8869L293.7600,342.4179L312.1200,353.7217L330.4800,363.9322L348.8400,373.1682L367.2000,381.5349L385.5600,389.1254L403.9200,396.0224L422.2800,402.2992L440.6400,408.0207
            L459.0000,413.2446L477.3600,418.0219L495.7200,422.3981L514.0800,426.4133L532.4400,430.1034L550.8000,433.5001L550.8612,433.5106"/>
   <path d="M91.8000,91.8000L110.1600,132.2143L128.5200,167.7278L146.8800,198.9567L165.2400,226.4328L183.6000,250.6537L201.9600,272.0293L220.3200,290.9173L238.6800,307.6301L257.0400,322.4406
            L275.4000,335.5871L293.7600,347.2775L312.1200,357.6935L330.4800,366.9939L348.8400,375.3170L367.2000,382.7841L385.5600,389.5007L403.9200,395.5593L422.2800,401.0405L440.6400,406.0146
            L459.0000,410.5434L477.3600,414.6805L495.7200,418.4729L514.0800,421.9617L532.4400,425.1828L550.8000,428.1675L550.8612,428.1767"/>
   <path d="M91.8000,91.8000L110.1600,126.4675L128.5200,157.6218L146.8800,185.6382L165.2400,210.8384L183.6000,233.5335L201.9600,253.9901L220.3200,272.4434L238.6800,289.1036L257.0400,304.1584
            L275.4000,317.7755L293.7600,330.1045L312.1200,341.2792L330.4800,351.4190L348.8400,360.6307L367.2000,369.0095L385.5600,376.6405L403.9200,383.5997L422.2800,389.9551L440.6400,395.7674
            L459.0000,401.0907L477.3600,405.9735L495.7200,410.4593L514.0800,414.5865L532.4400,418.3900L550.8000,421.9007L550.8612,421.9115"/>
   <path d="M91.8000,91.8000L110.1600,133.1477L128.5200,169.3045L146.8800,200.9461L165.2400,228.6464L183.6000,252.9416L201.9600,274.2736L220.3200,293.0262L238.6800,309.5329L257.0400,324.0840
            L275.4000,336.9320L293.7600,348.2962L312.1200,358.3677L330.4800,367.3125L348.8400,375.2752L367.2000,382.3812L385.5600,388.7399L403.9200,394.4463L422.2800,399.5832L440.6400,404.2225
            L459.0000,408.4268L477.3600,412.2506L495.7200,415.7413L514.0800,418.9402L532.4400,421.8833L550.8000,424.6018L550.8612,424.6102"/>
   <path d="M91.8000,91.8000L110.1600,133.5563L128.5200,170.1066L146.8800,202.1258L165.2400,230.2009L183.6000,254.8718L201.9600,276.5830L220.3200,295.7205L238.6800,312.6199L257.0400,327.5728
            L275.4000,340.8327L293.7600,352.6199L312.1200,363.1259L330.4800,372.5172L348.8400,380.9388L367.2000,388.5164L385.5600,395.3597L403.9200,401.5639L422.2800,407.2118L440.6400,412.3756
            L459.0000,417.1180L477.3600,421.4935L495.7200,425.5496L514.0800,429.3277L532.4400,432.8637L550.8000,436.1889L550.8612,436.1994"/>
   <path d="M91.8000,91.8000L110.1600,131.1779L128.5200,165.9051L146.8800,196.5517L165.2400,223.6108L183.6000,247.5462L201.9600,268.7414L220.3200,287.5321L238.6800,304.2126L257.0400,319.0408
            L275.4000,332.2430L293.7600,344.0172L312.1200,354.5372L330.4800,363.9552L348.8400,372.4049L367.2000,380.0031L385.5600,386.8525L403.9200,393.0431L422.2800,398.6537L440.6400,403.7534
            L459.0000,408.4029L477.3600,412.6554L495.7200,416.5575L514.0800,420.1500L532.4400,423.4688L550.8000,426.5454L550.8612,426.5549"/>
   <path d="M91.8000,91.8000L110.1600,128.2614L128.5200,161.7774L146.8800,192.5307L165.2400,220.6760L183.6000,246.3836L201.9600,269.8001L220.3200,291.0689L238.6800,310.3324L257.0400,327.7329
            L275.4000,343.4123L293.7600,357.5109L312.1200,370.1655L330.4800,381.5080L348.8400,391.6636L367.2000,400.7500L385.5600,408.8764L403.9200,416.1434L422.2800,422.6423L440.6400,428.4559
            L459.0000,433.6589L477.3600,438.3180L495.7200,442.4927L514.0800,446.2362L532.4400,449.5955L550.8000,452.6125L550.8612,452.6216"/>
   <path d="M91.8000,91.8000L110.1600,122.2744L128.5200,150.2001L146.8800,175.8069L165.2400,199.2969L183.6000,220.8743L201.9600,240.7109L220.3200,258.9628L238.6800,275.7714L257.0400,291.2651
            L275.4000,305.5606L293.7600,318.7639L312.1200,330.9710L330.4800,342.2694L348.8400,352.7383L367.2000,362.4497L385.5600,371.4691L403.9200,379.8558L422.2800,387.6638L440.6400,394.9421
            L459.0000,401.7351L477.3600,408.0833L495.7200,414.0235L514.0800,419.5889L532.4400,424.8100L550.8000,429.7144L550.8612,429.7297"/>
   <path d="M91.8000,91.8000L110.1600,124.8470L128.5200,155.9591L146.8800,185.1449L165.2400,212.3888L183.6000,237.6929L201.9600,261.0665L220.3200,282.5358L238.6800,302.1518L257.0400,319.9908
            L275.4000,336.1515L293.7600,350.7494L312.1200,363.9101L330.4800,375.7635L348.8400,386.4376L367.2000,396.0546L385.5600,404.7285L403.9200,412.5633L422.2800,419.6524L440.6400,426.0791
            L459.0000,431.9169L477.3600,437.2301L495.7200,442.0756L514.0800,446.5027L532.4400,450.5549L550.8000,454.2703L550.8612,454.2817"/>
   <path d="M91.8000,91.8000L110.1600,122.0359L128.5200,149.6100L146.8800,174.7706L165.2400,197.7338L183.6000,218.7161L201.9600,237.9017L220.3200,255.4567L238.6800,271.5316L257.0400,286.2628
            L275.4000,299.7739L293.7600,312.1771L312.1200,323.5740L330.4800,334.0569L348.8400,343.7092L367.2000,352.6068L385.5600,360.8184L403.9200,368.4063L422.2800,375.4270L440.6400,381.9317
            L459.0000,387.9669L477.3600,393.5748L495.7200,398.7935L514.0800,403.6578L532.4400,408.1990L550.8000,412.4457L550.8612,412.4589"/>
   <path d="M91.8000,91.8000L110.1600,128.7694L128.5200,161.6885L146.8800,191.0216L165.2400,217.1723L183.6000,240.5270L201.9600,261.4064L220.3200,280.0941L238.6800,296.8410L257.0400,311.8691
            L275.4000,325.3746L293.7600,337.5312L312.1200,348.4926L330.4800,358.3946L348.8400,367.3576L367.2000,375.4880L385.5600,382.8798L403.9200,389.6165L422.2800,395.7717L440.6400,401.4107
            L459.0000,406.5913L477.3600,411.3644L495.7200,415.7755L514.0800,419.8644L532.4400,423.6666L550.8000,427.2135L550.8612,427.2246"/>
   <path d="M91.8000,91.8000L550.8000,91.8000"/>
   <path d="M91.8000,550.8000L550.8000,550.8000"/>
   <path d="M183.6000,91.8000L183.6000,104.0400"/>
   <path d="M183.6000,550.8000L183.6000,538.5600"/>
   <path d="M367.2000,91.8000L367.2000,104.0400"/>
   <path d="M367.2000,550.8000L367.2000,538.5600"/>
   <path d="M550.8000,91.8000L550.8000,104.0400"/>
   <path d="M550.8000,550.8000L550.8000,538.5600"/>
  </g>
  <g style="fill:#000000; fill-rule:nonzero">
   <text   style="font-family:'Times','Nimbus Roman'; font-style:normal; font-weight:normal; font-size:612.0000" transform="matrix(0.0280,0.0000,-0.0000,-0.0280,168.1000,73.6800)">-160</text>
   <text   style="font-family:'Times','Nimbus Roman'; font-style:normal; font-weight:normal; font-size:612.0000" transform="matrix(0.0280,0.0000,-0.0000,-0.0280,351.7000,73.6800)">-140</text>
   <text   style="font-family:'Times','Nimbus Roman'; font-style:normal; font-weight:normal; font-size:612.0000" transform="matrix(0.0280,0.0000,-0.0000,-0.0280,535.3000,73.6800)">-120</text>
  </g>
  <g style="fill:none; stroke:#000000; stroke-width:  0.9180; stroke-linecap:butt; stroke-linejoin:miter; stroke-dasharray:none">
   <path d="M91.8000,91.8000L91.8000,550.8000"/>
   <path d="M550.8000,91.8000L550.8000,550.8000"/>
   <path d="M91.8000,91.8000L104.0400,91.8000"/>
   <path d="M550.8000,91.8000L538.5600,91.8000"/>
   <path d="M91.8000,244.8000L104.0400,244.8000"/>
   <path d="M550.8000,244.8000L538.5600,244.8000"/>
   <path d="M91.8000,397.8000L104.0400,397.8000"/>
   <path d="M550.8000,397.8000L538.5600,397.8000"/>
   <path d="M91.8000,550.8000L104.0400,550.8000"/>
   <path d="M550.8000,550.8000L538.5600,550.8000"/>
  </g>
  <g style="fill:#000000; fill-rule:nonzero">
   <text   style="font-family:'Times','Nimbus Roman'; font-style:normal; font-weight:normal; font-size:612.0000" transform="matrix(0.0280,0.0000,-0.0000,-0.0280,77.6800,86.3000)">0</text>
   <text   style="font-family:'Times','Nimbus Roman'; font-style:normal; font-weight:normal; font-size:612.0000" transform="matrix(0.0280,0.0000,-0.0000,-0.0280,64.6800,238.8000)">0.5</text>
   <text   style="font-family:'Times','Nimbus Roman'; font-style:normal; font-weight:normal; font-size:612.0000" transform="matrix(0.0280,0.0000,-0.0000,-0.0280,78.6800,391.8000)">1</text>
   <text   style="font-family:'Times','Nimbus Roman'; font-style:normal; font-weight:normal; font-size:612.0000" transform="matrix(0.0280,0.0000,-0.0000,-0.0280,64.6800,544.8000)">1.5</text>
  </g>
  <g style="fill:none; stroke:#000000; stroke-width:  0.9180; stroke-linecap:butt; stroke-linejoin:miter; stroke-dasharray:none">
   <path d="M91.8000,91.8000L91.8000,550.8000L550.8000,550.8000L550.8000,91.8000z"/>
  </g>
 </g>
</svg>
