<?xml version="1.0" encoding="ISO-8859-1"?>
<!DOCTYPE svg PUBLIC "-//W3C//DTD SVG 1.0//EN" "http://www.w3.org/TR/2001/REC-SVG-20010904/DTD/svg10.dtd">
<!-- generated by Grace-5.1.25 -->
<svg xml:space="preserve" width="11.0000in" height="8.5000in" viewBox="0.0000 0.0000 792.0000 612.0000">
 <g transform="translate(0,612.0000) scale(1,-1)">
  <g style="fill:#FFFFFF; fill-rule:nonzero">
   <path  d="M0.0000,0.0000L0.0000,612.0000L792.0000,612.0000L792.0000,0.0000z"/>
  </g>
  <g style="fill:none; stroke:#000000; stroke-width:  0.9180; stroke-linecap:butt; stroke-linejoin:miter; stroke-dasharray:none">
   <path d="M91.8000,91.8000L110.1600,137.1611L128.5200,176.4433L146.8800,210.4979L165.2400,240.0523L183.6000,265.7690L201.9600,288.1874L220.3200,307.7711L238.6800,324.9179L257.0400,339.9698
            L275.4000,353.2203L293.7600,364.9216L312.1200,375.2902L330.4800,384.5121L348.8400,392.7470L367.2000,400.1321L385.5600,406.7853L403.9200,412.8076L422.2800,418.2860L440.6400,423.2953
            L459.0000,427.8994L477.3600,432.1535L495.7200,436.1050L514.0800,439.7944L532.4400,443.2568L550.8000,446.5222L550.8612,446.5325"/>
   <path d="M91.8000,91.8000L110.1600,133.0701L128.5200,169.3628L146.8800,201.3101L165.2400,229.4572L183.6000,254.3140L201.9600,276.2998L220.3200,295.7807L238.6800,313.0756L257.0400,328.4629
            L275.4000,342.1854L293.7600,354.4548L312.1200,365.4559L330.4800,375.3498L348.8400,384.2770L367.2000,392.3601L385.5600,399.7060L403.9200,406.4081L422.2800,412.5476L440.6400,418.1956
            L459.0000,423.4141L477.3600,428.2570L495.7200,432.7716L514.0800,436.9989L532.4400,440.9751L550.8000,444.7313L550.8612,444.7432"/>
   <path d="M91.8000,91.8000L110.1600,127.5955L128.5200,159.7107L146.8800,188.5481L165.2400,214.4616L183.6000,237.7925L201.9600,258.8252L220.3200,277.8125L238.6800,294.9795L257.0400,310.5264
            L275.4000,324.6311L293.7600,337.4523L312.1200,349.1309L330.4800,359.7923L348.8400,369.5483L367.2000,378.4982L385.5600,386.7303L403.9200,394.3234L422.2800,401.3475L440.6400,407.8648
            L459.0000,413.9309L477.3600,419.5950L495.7200,424.9010L514.0800,429.8880L532.4400,434.5909L550.8000,439.0404L550.8612,439.0545"/>
   <path d="M91.8000,91.8000L110.1600,133.4050L128.5200,170.0478L146.8800,202.3605L165.2400,230.8857L183.6000,256.1323L201.9600,278.5194L220.3200,298.4123L238.6800,316.1298L257.0400,331.9500
            L275.4000,346.1157L293.7600,358.8384L312.1200,370.3029L330.4800,380.6702L348.8400,390.0807L367.2000,398.6569L385.5600,406.5058L403.9200,413.7205L422.2800,420.3822L440.6400,426.5619
            L459.0000,432.3212L477.3600,437.7142L495.7200,442.7876L514.0800,447.5826L532.4400,452.1347L550.8000,456.4752L550.8612,456.4890"/>
   <path d="M91.8000,91.8000L110.1600,117.2528L128.5200,140.9575L146.8800,163.0452L165.2400,183.6310L183.6000,202.8351L201.9600,220.7612L220.3200,237.5038L238.6800,253.1504L257.0400,267.7820
            L275.4000,281.4731L293.7600,294.2928L312.1200,306.3049L330.4800,317.5683L348.8400,328.1375L367.2000,338.0629L385.5600,347.3911L403.9200,356.1651L422.2800,364.4246L440.6400,372.2065
            L459.0000,379.5448L477.3600,386.4709L495.7200,393.0140L514.0800,399.2008L532.4400,405.0563L550.8000,410.6036L550.8612,410.6211"/>
   <path d="M91.8000,91.8000L110.1600,130.9528L128.5200,165.6978L146.8800,196.5619L165.2400,224.0040L183.6000,248.4584L201.9600,270.2842L220.3200,289.7974L238.6800,307.2757L257.0400,322.9636
            L275.4000,337.0761L293.7600,349.8024L312.1200,361.3087L330.4800,371.7413L348.8400,381.2291L367.2000,389.8851L385.5600,397.8091L403.9200,405.0885L422.2800,411.8005L440.6400,418.0129
            L459.0000,423.7854L477.3600,429.1703L495.7200,434.2138L514.0800,438.9566L532.4400,443.4344L550.8000,447.6786L550.8612,447.6920"/>
   <path d="M91.8000,91.8000L110.1600,140.5410L128.5200,182.1293L146.8800,217.6537L165.2400,248.0322L183.6000,274.0845L201.9600,296.4710L220.3200,315.7514L238.6800,332.3994L257.0400,346.8164
            L275.4000,359.3421L293.7600,370.2643L312.1200,379.8269L330.4800,388.2361L348.8400,395.6668L367.2000,402.2669L385.5600,408.1619L403.9200,413.4578L422.2800,418.2446L440.6400,422.5985
            L459.0000,426.5839L477.3600,430.2556L495.7200,433.6599L514.0800,436.8359L532.4400,439.8170L550.8000,442.6314L550.8612,442.6403"/>
   <path d="M91.8000,91.8000L110.1600,140.3486L128.5200,181.7771L146.8800,217.1652L165.2400,247.4264L183.6000,273.3750L201.9600,295.6678L220.3200,314.8610L238.6800,331.4260L257.0400,345.7621
            L275.4000,358.2076L293.7600,369.0490L312.1200,378.5291L330.4800,386.8536L348.8400,394.1968L367.2000,400.7062L385.5600,406.5069L403.9200,411.7050L422.2800,416.3902L440.6400,420.6386
            L459.0000,424.5148L477.3600,428.0734L495.7200,431.3609L514.0800,434.4164L532.4400,437.2735L550.8000,439.9602L550.8612,439.9687"/>
   <path d="M91.8000,91.8000L110.1600,140.2321L128.5200,181.5605L146.8800,216.8586L165.2400,247.0359L183.6000,272.9026L201.9600,295.1123L220.3200,314.2189L238.6800,330.6920L257.0400,344.9293
            L275.4000,357.2680L293.7600,367.9937L312.1200,377.3485L330.4800,385.5377L348.8400,392.7351L367.2000,399.0883L385.5600,404.7220L403.9200,409.7423L422.2800,414.2391L440.6400,418.2885
            L459.0000,421.9551L477.3600,425.2937L495.7200,428.3510L514.0800,431.1663L532.4400,433.7732L550.8000,436.2002L550.8612,436.2078"/>
   <path d="M91.8000,91.8000L110.1600,138.7030L128.5200,178.9780L146.8800,213.5952L165.2400,243.3765L183.6000,269.0637L201.9600,291.2574L220.3200,310.4697L238.6800,327.1373L257.0400,341.6326
            L275.4000,354.2729L293.7600,365.3289L312.1200,375.0314L330.4800,383.5769L348.8400,391.1333L367.2000,397.8435L385.5600,403.8294L403.9200,409.1948L422.2800,414.0284L440.6400,418.4056
            L459.0000,422.3910L477.3600,426.0393L495.7200,429.3975L514.0800,432.5053L532.4400,435.3970L550.8000,438.1015L550.8612,438.1099"/>
   <path d="M91.8000,91.8000L110.1600,131.9735L128.5200,167.3563L146.8800,198.5420L165.2400,226.0464L183.6000,250.3518L201.9600,271.8561L220.3200,290.9073L238.6800,307.8095L257.0400,322.8289
            L275.4000,336.1982L293.7600,348.1209L312.1200,358.7752L330.4800,368.3166L348.8400,376.8814L367.2000,384.5889L385.5600,391.5434L403.9200,397.8359L422.2800,403.5465L440.6400,408.7449
            L459.0000,413.4923L477.3600,417.8423L495.7200,421.8416L514.0800,425.5313L532.4400,428.9474L550.8000,432.1212L550.8612,432.1310"/>
   <path d="M91.8000,91.8000L110.1600,131.9072L128.5200,167.4037L146.8800,198.8562L165.2400,226.7547L183.6000,251.5621L201.9600,273.6603L220.3200,293.3843L238.6800,311.0278L257.0400,326.8485
            L275.4000,341.0723L293.7600,353.8972L312.1200,365.4971L330.4800,376.0243L348.8400,385.6124L367.2000,394.3785L385.5600,402.4254L403.9200,409.8433L422.2800,416.7110L440.6400,423.0980
            L459.0000,429.0649L477.3600,434.6651L495.7200,439.9453L514.0800,444.9465L532.4400,449.7047L550.8000,454.2514L550.8612,454.2659"/>
   <path d="M91.8000,91.8000L110.1600,138.8190L128.5200,179.1564L146.8800,213.7952L165.2400,243.5691L183.6000,269.2285L201.9600,291.3807L220.3200,310.5434L238.6800,327.1573L257.0400,341.5981
            L275.4000,354.1858L293.7600,365.1930L312.1200,374.8519L330.4800,383.3605L348.8400,390.8872L367.2000,397.5757L385.5600,403.5483L403.9200,408.9093L422.2800,413.7476L440.6400,418.1389
            L459.0000,422.1476L477.3600,425.8288L495.7200,429.2294L514.0800,432.3893L532.4400,435.3426L550.8000,438.1184L550.8612,438.1272"/>
   <path d="M91.8000,91.8000L110.1600,128.9092L128.5200,162.1152L146.8800,191.8635L165.2400,218.5412L183.6000,242.5188L201.9600,264.1074L220.3200,283.5815L238.6800,301.1847L257.0400,317.1332
            L275.4000,331.6184L293.7600,344.8103L312.1200,356.8596L330.4800,367.9001L348.8400,378.0503L367.2000,387.4155L385.5600,396.0891L403.9200,404.1538L422.2800,411.6833L440.6400,418.7427
            L459.0000,425.3900L477.3600,431.6765L495.7200,437.6481L514.0800,443.3452L532.4400,448.8038L550.8000,454.0561L550.8612,454.0730"/>
   <path d="M91.8000,91.8000L110.1600,138.0356L128.5200,177.8861L146.8800,212.2683L165.2400,241.9655L183.6000,267.6849L201.9600,290.0008L220.3200,309.4044L238.6800,326.3157L257.0400,341.0939
            L275.4000,354.0463L293.7600,365.4353L312.1200,375.4858L330.4800,384.3898L348.8400,392.3116L367.2000,399.3918L385.5600,405.7505L403.9200,411.4906L422.2800,416.7000L440.6400,421.4540
            L459.0000,425.8170L477.3600,429.8439L495.7200,433.5821L514.0800,437.0718L532.4400,440.3475L550.8000,443.4389L550.8612,443.4486"/>
   <path d="M91.8000,91.8000L110.1600,131.1463L128.5200,165.9500L146.8800,196.7615L165.2400,224.0583L183.6000,248.2924L201.9600,269.8372L220.3200,289.0211L238.6800,306.1323L257.0400,321.4244
            L275.4000,335.1200L293.7600,347.4149L312.1200,358.4812L330.4800,368.4699L348.8400,377.5139L367.2000,385.7302L385.5600,393.2212L403.9200,400.0772L422.2800,406.3776L440.6400,412.1921
            L459.0000,417.5820L477.3600,422.6011L495.7200,427.2968L514.0800,431.7108L532.4400,435.8797L550.8000,439.8358L550.8612,439.8484"/>
   <path d="M91.8000,91.8000L110.1600,124.8403L128.5200,154.7889L146.8800,181.9519L165.2400,206.5964L183.6000,228.9825L201.9600,249.3392L220.3200,267.8702L238.6800,284.7601L257.0400,300.1762
            L275.4000,314.2697L293.7600,327.1772L312.1200,339.0220L330.4800,349.9153L348.8400,359.9571L367.2000,369.2372L385.5600,377.8365L403.9200,385.8275L422.2800,393.2754L440.6400,400.2386
            L459.0000,406.7695L477.3600,412.9153L495.7200,418.7181L514.0800,424.2158L532.4400,429.4425L550.8000,434.4288L550.8612,434.4447"/>
   <path d="M91.8000,91.8000L110.1600,137.5170L128.5200,177.0803L146.8800,211.3589L165.2400,241.0913L183.6000,266.9512L201.9600,289.4863L220.3200,309.1668L238.6800,326.3959L257.0400,341.5197
            L275.4000,354.8351L293.7600,366.5966L312.1200,377.0227L330.4800,386.3007L348.8400,394.5911L367.2000,402.0318L385.5600,408.7408L403.9200,414.8194L422.2800,420.3545L440.6400,425.4203
            L459.0000,430.0808L477.3600,434.3906L495.7200,438.3964L514.0800,442.1385L532.4400,445.6511L550.8000,448.9638L550.8612,448.9743"/>
   <path d="M91.8000,91.8000L110.1600,140.4103L128.5200,181.8736L146.8800,217.2767L165.2400,247.5404L183.6000,273.4833L201.9600,295.7657L220.3200,314.9466L238.6800,331.4995L257.0400,345.8251
            L275.4000,358.2629L293.7600,369.1002L312.1200,378.5804L330.4800,386.9095L348.8400,394.2622L367.2000,400.7861L385.5600,406.6064L403.9200,411.8293L422.2800,416.5446L440.6400,420.8284
            L459.0000,424.7451L477.3600,428.3496L495.7200,431.6881L514.0800,434.7999L532.4400,437.7183L550.8000,440.4717L550.8612,440.4804"/>
   <path d="M91.8000,91.8000L110.1600,130.5612L128.5200,165.1330L146.8800,196.0121L165.2400,223.6298L183.6000,248.3975L201.9600,270.6561L220.3200,290.7065L238.6800,308.8144L257.0400,325.2139
            L275.4000,340.1119L293.7600,353.6911L312.1200,366.1124L330.4800,377.5181L348.8400,388.0338L367.2000,397.7703L385.5600,406.8257L403.9200,415.2862L422.2800,423.2284L440.6400,430.7198
            L459.0000,437.8199L477.3600,444.5815L495.7200,451.0512L514.0800,457.2703L532.4400,463.2754L550.8000,469.0986L550.8612,469.1175"/>
   <path d="M91.8000,91.8000L110.1600,137.8878L128.5200,177.7523L146.8800,212.2758L165.2400,242.2175L183.6000,268.2618L201.9600,290.9660L220.3200,310.8077L238.6800,328.1962L257.0400,343.4823
            L275.4000,356.9665L293.7600,368.9064L312.1200,379.5227L330.4800,389.0048L348.8400,397.5148L367.2000,405.1918L385.5600,412.1550L403.9200,418.5066L422.2800,424.3342L440.6400,429.7130
            L459.0000,434.7075L477.3600,439.3728L495.7200,443.7565L514.0800,447.8993L532.4400,451.8359L550.8000,455.5965L550.8612,455.6085"/>
   <path d="M91.8000,91.8000L110.1600,119.1712L128.5200,144.4983L146.8800,167.9495L165.2400,189.6721L183.6000,209.8158L201.9600,228.5110L220.3200,245.8757L238.6800,262.0181L257.0400,277.0377
            L275.4000,291.0256L293.7600,304.0655L312.1200,316.2342L330.4800,327.6023L348.8400,338.2346L367.2000,348.1904L385.5600,357.5242L403.9200,366.2861L422.2800,374.5221L440.6400,382.2744
            L459.0000,389.5817L477.3600,396.4794L495.7200,403.0004L514.0800,409.1744L532.4400,415.0291L550.8000,420.5897L550.8612,420.6073"/>
   <path d="M91.8000,91.8000L110.1600,134.3603L128.5200,171.6768L146.8800,204.4336L165.2400,233.2187L183.6000,258.5789L201.9600,280.9628L220.3200,300.7600L238.6800,318.3093L257.0400,333.9049
            L275.4000,347.8023L293.7600,360.2238L312.1200,371.3621L330.4800,381.3850L348.8400,390.4380L367.2000,398.6475L385.5600,406.1235L403.9200,412.9614L422.2800,419.2440L440.6400,425.0435
            L459.0000,430.4223L477.3600,435.4348L495.7200,440.1282L514.0800,444.5436L532.4400,448.7164L550.8000,452.6778L550.8612,452.6904"/>
   <path d="M91.8000,91.8000L110.1600,123.4661L128.5200,152.3367L146.8800,178.6790L165.2400,202.7273L183.6000,224.7135L201.9600,244.8358L220.3200,263.2718L238.6800,280.1822L257.0400,295.7122
            L275.4000,309.9932L293.7600,323.1437L312.1200,335.2711L330.4800,346.4724L348.8400,356.8353L367.2000,366.4390L385.5600,375.3553L403.9200,383.6489L422.2800,391.3783L440.6400,398.5965
            L459.0000,405.3514L477.3600,411.6861L495.7200,417.6398L514.0800,423.2478L532.4400,428.5421L550.8000,433.5514L550.8612,433.5673"/>
   <path d="M91.8000,91.8000L110.1600,121.1057L128.5200,148.0649L146.8800,172.8844L165.2400,195.7459L183.6000,216.8306L201.9600,236.2971L220.3200,254.2878L238.6800,270.9329L257.0400,286.3513
            L275.4000,300.6516L293.7600,313.9330L312.1200,326.2861L330.4800,337.7939L348.8400,348.5320L367.2000,358.5696L385.5600,367.9698L403.9200,376.7905L422.2800,385.0843L440.6400,392.8996
            L459.0000,400.2803L477.3600,407.2667L495.7200,413.8957L514.0800,420.2008L532.4400,426.2127L550.8000,431.9594L550.8612,431.9777"/>
   <path d="M91.8000,91.8000L110.1600,123.1957L128.5200,151.9039L146.8800,178.1787L165.2400,202.2417L183.6000,224.3123L201.9600,244.5799L220.3200,263.2140L238.6800,280.3680L257.0400,296.1813
            L275.4000,310.7797L293.7600,324.2775L312.1200,336.7780L330.4800,348.3749L348.8400,359.1531L367.2000,369.1893L385.5600,378.5531L403.9200,387.3075L422.2800,395.5095L440.6400,403.2108
            L459.0000,410.4581L477.3600,417.2938L495.7200,423.7560L514.0800,429.8796L532.4400,435.6957L550.8000,441.2329L550.8612,441.2505"/>
   <path d="M91.8000,91.8000L110.1600,136.7938L128.5200,175.8278L146.8800,209.7316L165.2400,239.2139L183.6000,264.9224L201.9600,287.3848L220.3200,307.0552L238.6800,324.3243L257.0400,339.5279
            L275.4000,352.9551L293.7600,364.8544L312.1200,375.4395L330.4800,384.8945L348.8400,393.3773L367.2000,401.0241L385.5600,407.9519L403.9200,414.2613L422.2800,420.0389L440.6400,425.3591
            L459.0000,430.2861L477.3600,434.8750L495.7200,439.1731L514.0800,443.2213L532.4400,447.0547L550.8000,450.7035L550.8612,450.7151"/>
   <path d="M91.8000,91.8000L110.1600,131.2923L128.5200,166.2602L146.8800,197.2498L165.2400,224.7340L183.6000,249.1610L201.9600,270.9010L220.3200,290.2795L238.6800,307.5820L257.0400,323.0594
            L275.4000,336.9324L293.7600,349.3945L312.1200,360.6159L330.4800,370.7461L348.8400,379.9166L367.2000,388.2426L385.5600,395.8258L403.9200,402.7553L422.2800,409.1094L440.6400,414.9571
            L459.0000,420.3590L477.3600,425.3685L495.7200,430.0324L514.0800,434.3920L532.4400,438.4837L550.8000,442.3394L550.8612,442.3516"/>
   <path d="M91.8000,91.8000L110.1600,137.9684L128.5200,177.7882L146.8800,212.1699L165.2400,241.8895L183.6000,267.6494L201.9600,290.0204L220.3200,309.4907L238.6800,326.4782L257.0400,341.3404
            L275.4000,354.3831L293.7600,365.8683L312.1200,376.0197L330.4800,385.0290L348.8400,393.0602L367.2000,400.2537L385.5600,406.7294L403.9200,412.5902L422.2800,417.9239L440.6400,422.8057
            L459.0000,427.3002L477.3600,431.4623L495.7200,435.3394L514.0800,438.9717L532.4400,442.3940L550.8000,445.6357L550.8612,445.6460"/>
   <path d="M91.8000,91.8000L110.1600,129.2859L128.5200,162.7736L146.8800,192.7201L165.2400,219.5208L183.6000,243.5545L201.9600,265.1388L220.3200,284.5534L238.6800,302.0466L257.0400,317.8378
            L275.4000,332.1217L293.7600,345.0707L312.1200,356.8373L330.4800,367.5568L348.8400,377.3490L367.2000,386.3200L385.5600,394.5637L403.9200,402.1635L422.2800,409.1931L440.6400,415.7179
            L459.0000,421.7958L477.3600,427.4781L495.7200,432.8104L514.0800,437.8331L532.4400,442.5817L550.8000,447.0881L550.8612,447.1024"/>
   <path d="M91.8000,91.8000L110.1600,141.0346L128.5200,182.9073L146.8800,218.5510L165.2400,248.9249L183.6000,274.8777L201.9600,297.0930L220.3200,316.1478L238.6800,332.5298L257.0400,346.6505
            L275.4000,358.8577L293.7600,369.4451L312.1200,378.6608L330.4800,386.7141L348.8400,393.7823L367.2000,400.0146L385.5600,405.5375L403.9200,410.4577L422.2800,414.8652L440.6400,418.8363
            L459.0000,422.4354L477.3600,425.7168L495.7200,428.7266L514.0800,431.5037L532.4400,434.0810L550.8000,436.4861L550.8612,436.4937"/>
   <path d="M91.8000,91.8000L110.1600,135.7226L128.5200,173.8249L146.8800,206.9049L165.2400,235.6524L183.6000,260.6936L201.9600,282.5406L220.3200,301.6344L238.6800,318.3549L257.0400,333.0291
            L275.4000,345.9392L293.7600,357.3281L312.1200,367.4049L330.4800,376.3502L348.8400,384.3193L367.2000,391.4464L385.5600,397.8468L403.9200,403.6203L422.2800,408.8527L440.6400,413.6180
            L459.0000,417.9801L477.3600,421.9942L495.7200,425.7077L514.0800,429.1617L532.4400,432.3916L550.8000,435.4279L550.8612,435.4375"/>
   <path d="M91.8000,91.8000L110.1600,133.9728L128.5200,170.8935L146.8800,203.2476L165.2400,231.6265L183.6000,256.5781L201.9600,278.5520L220.3200,297.9388L238.6800,315.0776L257.0400,330.2633
            L275.4000,343.7517L293.7600,355.7652L312.1200,366.4969L330.4800,376.1146L348.8400,384.7640L367.2000,392.5718L385.5600,399.6480L403.9200,406.0882L422.2800,411.9753L440.6400,417.3816
            L459.0000,422.3699L477.3600,426.9944L495.7200,431.3028L514.0800,435.3360L532.4400,439.1300L550.8000,442.7157L550.8612,442.7271"/>
   <path d="M91.8000,91.8000L110.1600,134.3694L128.5200,171.6221L146.8800,204.2551L165.2400,232.8710L183.6000,258.0264L201.9600,280.1778L220.3200,299.7215L238.6800,317.0015L257.0400,332.3160
            L275.4000,345.9242L293.7600,358.0507L312.1200,368.8907L330.4800,378.6135L348.8400,387.3659L367.2000,395.2755L385.5600,402.4530L403.9200,408.9945L422.2800,414.9834L440.6400,420.4921
            L459.0000,425.5835L477.3600,430.3122L495.7200,434.7256L514.0800,438.8648L532.4400,442.7656L550.8000,446.4591L550.8612,446.4708"/>
   <path d="M91.8000,91.8000L110.1600,135.3195L128.5200,173.3263L146.8800,206.5615L165.2400,235.6597L183.6000,261.2068L201.9600,283.6825L220.3200,303.5021L238.6800,321.0245L257.0400,336.5609
            L275.4000,350.3802L293.7600,362.7151L312.1200,373.7673L330.4800,383.7108L348.8400,392.6967L367.2000,400.8555L385.5600,408.3001L403.9200,415.1282L422.2800,421.4244L440.6400,427.2620
            L459.0000,432.7043L477.3600,437.8062L495.7200,442.6150L514.0800,447.1719L532.4400,451.5125L550.8000,455.6675L550.8612,455.6809"/>
   <path d="M91.8000,91.8000L110.1600,126.9953L128.5200,158.7132L146.8800,187.3264L165.2400,213.1580L183.6000,236.5200L201.9600,257.6785L220.3200,276.8687L238.6800,294.3010L257.0400,310.1631
            L275.4000,324.6227L293.7600,337.8296L312.1200,349.9177L330.4800,361.0063L348.8400,371.2021L367.2000,380.6004L385.5600,389.2861L403.9200,397.3353L422.2800,404.8156L440.6400,411.7875
            L459.0000,418.3050L477.3600,424.4164L495.7200,430.1645L514.0800,435.5878L532.4400,440.7205L550.8000,445.5932L550.8612,445.6087"/>
   <path d="M91.8000,91.8000L110.1600,128.6893L128.5200,161.6554L146.8800,191.1448L165.2400,217.5457L183.6000,241.2322L201.9600,262.5152L220.3200,281.6703L238.6800,298.9420L257.0400,314.5471
            L275.4000,328.6781L293.7600,341.5057L312.1200,353.1816L330.4800,363.8403L348.8400,373.6012L367.2000,382.5706L385.5600,390.8427L403.9200,398.5012L422.2800,405.6206L440.6400,412.2671
            L459.0000,418.4995L477.3600,424.3701L495.7200,429.9255L514.0800,435.2071L532.4400,440.2518L550.8000,445.0923L550.8612,445.1079"/>
   <path d="M91.8000,91.8000L110.1600,134.8419L128.5200,172.4759L146.8800,205.4181L165.2400,234.2882L183.6000,259.6561L201.9600,281.9892L220.3200,301.6927L238.6800,319.1177L257.0400,334.5685
            L275.4000,348.3087L293.7600,360.5669L312.1200,371.5413L330.4800,381.4035L348.8400,390.3023L367.2000,398.3668L385.5600,405.7089L403.9200,412.4254L422.2800,418.6005L440.6400,424.3072
            L459.0000,429.6085L477.3600,434.5593L495.7200,439.2072L514.0800,443.5934L532.4400,447.7536L550.8000,451.7190L550.8612,451.7316"/>
   <path d="M91.8000,91.8000L110.1600,116.5090L128.5200,139.6206L146.8800,161.2518L165.2400,181.5033L183.6000,200.4792L201.9600,218.2728L220.3200,234.9686L238.6800,250.6447L257.0400,265.3737
            L275.4000,279.2230L293.7600,292.2549L312.1200,304.5274L330.4800,316.0942L348.8400,327.0051L367.2000,337.3063L385.5600,347.0406L403.9200,356.2478L422.2800,364.9648L440.6400,373.2257
            L459.0000,381.0622L477.3600,388.5037L495.7200,395.5775L514.0800,402.3090L532.4400,408.7214L550.8000,414.8367L550.8612,414.8562"/>
   <path d="M91.8000,91.8000L110.1600,136.7273L128.5200,175.6575L146.8800,209.4275L165.2400,238.7506L183.6000,264.2791L201.9600,286.5445L220.3200,306.0038L238.6800,323.0497L257.0400,338.0201
            L275.4000,351.2053L293.7600,362.8552L312.1200,373.1843L330.4800,382.3772L348.8400,390.5927L367.2000,397.9671L385.5600,404.6179L403.9200,410.6459L422.2800,416.1379L440.6400,421.1684
            L459.0000,425.8018L477.3600,430.0931L495.7200,434.0898L514.0800,437.8330L532.4400,441.3576L550.8000,444.6940L550.8612,444.7046"/>
   <path d="M91.8000,91.8000L110.1600,130.5202L128.5200,164.9925L146.8800,195.7191L165.2400,223.1365L183.6000,247.6603L201.9600,269.6347L220.3200,289.3633L238.6800,307.1138L257.0400,323.1223
            L275.4000,337.5969L293.7600,350.7210L312.1200,362.6565L330.4800,373.5461L348.8400,383.5156L367.2000,392.6759L385.5600,401.1250L403.9200,408.9490L422.2800,416.2241L440.6400,423.0173
            L459.0000,429.3879L477.3600,435.3880L495.7200,441.0636L514.0800,446.4553L532.4400,451.5990L550.8000,456.5262L550.8612,456.5420"/>
   <path d="M91.8000,91.8000L110.1600,128.3425L128.5200,161.1364L146.8800,190.5973L165.2400,217.0854L183.6000,240.9484L201.9600,262.4781L220.3200,281.9330L238.6800,299.5429L257.0400,315.5121
            L275.4000,330.0223L293.7600,343.2349L312.1200,355.2936L330.4800,366.3260L348.8400,376.4454L367.2000,385.7528L385.5600,394.3377L403.9200,402.2798L422.2800,409.6499L440.6400,416.5108
            L459.0000,422.9185L477.3600,428.9226L495.7200,434.5673L514.0800,439.8917L532.4400,444.9306L550.8000,449.7151L550.8612,449.7303"/>
   <path d="M91.8000,91.8000L110.1600,125.9366L128.5200,156.8100L146.8800,184.7603L165.2400,210.0845L183.6000,233.0713L201.9600,253.9665L220.3200,272.9885L238.6800,290.3332L257.0400,306.1762
            L275.4000,320.6750L293.7600,333.9707L312.1200,346.1896L330.4800,357.4452L348.8400,367.8392L367.2000,377.4625L385.5600,386.3968L403.9200,394.7154L422.2800,402.4838L440.6400,409.7609
            L459.0000,416.5993L477.3600,423.0462L495.7200,429.1441L514.0800,434.9309L532.4400,440.4406L550.8000,445.7037L550.8612,445.7205"/>
   <path d="M91.8000,91.8000L110.1600,137.6647L128.5200,177.3241L146.8800,211.6560L165.2400,241.4180L183.6000,267.2907L201.9600,289.8290L220.3200,309.5085L238.6800,326.7368L257.0400,341.8632
            L275.4000,355.1870L293.7600,366.9650L312.1200,377.4171L330.4800,386.7320L348.8400,395.0713L367.2000,402.5736L385.5600,409.3580L403.9200,415.5262L422.2800,421.1659L440.6400,426.3519
            L459.0000,431.1486L477.3600,435.6112L495.7200,439.7871L514.0800,443.7167L532.4400,447.4351L550.8000,450.9720L550.8612,450.9833"/>
   <path d="M91.8000,91.8000L110.1600,135.1885L128.5200,173.1169L146.8800,206.3150L165.2400,235.4075L183.6000,260.9729L201.9600,283.4847L220.3200,303.3530L238.6800,320.9334L257.0400,336.5336
            L275.4000,350.4203L293.7600,362.8243L312.1200,373.9458L330.4800,383.9579L348.8400,393.0106L367.2000,401.2341L385.5600,408.7408L403.9200,415.6281L422.2800,421.9806L440.6400,427.8714
            L459.0000,433.3638L477.3600,438.5127L495.7200,443.3656L514.0800,447.9636L532.4400,452.3426L550.8000,456.5333L550.8612,456.5467"/>
   <path d="M91.8000,91.8000L110.1600,139.0638L128.5200,179.6476L146.8800,214.5353L165.2400,244.5600L183.6000,270.4721L201.9600,292.8795L220.3200,312.2995L238.6800,329.1730L257.0400,343.8758
            L275.4000,356.7278L293.7600,368.0016L312.1200,377.9294L330.4800,386.7090L348.8400,394.5091L367.2000,401.4731L385.5600,407.7236L403.9200,413.3648L422.2800,418.4856L440.6400,423.1618
            L459.0000,427.4581L477.3600,431.4297L495.7200,435.1236L514.0800,438.5800L532.4400,441.8331L550.8000,444.9124L550.8612,444.9222"/>
   <path d="M91.8000,91.8000L110.1600,137.3530L128.5200,176.8795L146.8800,211.2239L165.2400,241.1009L183.6000,267.1663L201.9600,289.9549L220.3200,309.9262L238.6800,327.4751L257.0400,342.9413
            L275.4000,356.6169L293.7600,368.7527L312.1200,379.5645L330.4800,389.2378L348.8400,397.9320L367.2000,405.7840L385.5600,412.9115L403.9200,419.4157L422.2800,425.3837L440.6400,430.8901
            L459.0000,435.9993L477.3600,440.7664L495.7200,445.2391L514.0800,449.4581L532.4400,453.4585L550.8000,457.2708L550.8612,457.2829"/>
   <path d="M91.8000,91.8000L110.1600,128.8893L128.5200,162.1212L146.8800,191.9311L165.2400,218.6948L183.6000,242.7738L201.9600,264.4718L220.3200,284.0572L238.6800,301.7681L257.0400,317.8159
            L275.4000,332.3883L293.7600,345.6517L312.1200,357.7538L330.4800,368.8259L348.8400,378.9842L367.2000,388.3319L385.5600,396.9607L403.9200,404.9516L422.2800,412.3768L440.6400,419.3001
            L459.0000,425.7782L477.3600,431.8615L495.7200,437.5943L514.0800,443.0163L532.4400,448.1624L550.8000,453.0637L550.8612,453.0793"/>
   <path d="M91.8000,91.8000L110.1600,131.6178L128.5200,166.8345L146.8800,198.0097L165.2400,225.6309L183.6000,250.1566L201.9600,271.9658L220.3200,291.3909L238.6800,308.7236L257.0400,324.2196
            L275.4000,338.1037L293.7600,350.5730L312.1200,361.8005L330.4800,371.9380L348.8400,381.1191L367.2000,389.4608L385.5600,397.0660L403.9200,404.0252L422.2800,410.4179L440.6400,416.3139
            L459.0000,421.7745L477.3600,426.8540L495.7200,431.5997L514.0800,436.0536L532.4400,440.2525L550.8000,444.2288L550.8612,444.2414"/>
   <path d="M91.8000,91.8000L110.1600,124.5405L128.5200,154.3387L146.8800,181.4877L165.2400,206.2448L183.6000,228.8651L201.9600,249.5632L220.3200,268.5325L238.6800,285.9469L257.0400,301.9635
            L275.4000,316.7240L293.7600,330.3559L312.1200,342.9744L330.4800,354.6833L348.8400,365.5763L367.2000,375.7379L385.5600,385.2443L403.9200,394.1642L422.2800,402.5596L440.6400,410.4865
            L459.0000,417.9956L477.3600,425.1322L495.7200,431.9378L514.0800,438.4493L532.4400,444.7005L550.8000,450.7215L550.8612,450.7409"/>
   <path d="M91.8000,91.8000L110.1600,130.4354L128.5200,164.8147L146.8800,195.4397L165.2400,222.7470L183.6000,247.1523L201.9600,268.9998L220.3200,288.5929L238.6800,306.1993L257.0400,322.0549
            L275.4000,336.3678L293.7600,349.3213L312.1200,361.0773L330.4800,371.7781L348.8400,381.5497L367.2000,390.5028L385.5600,398.7352L403.9200,406.3330L422.2800,413.3723L440.6400,419.9199
            L459.0000,426.0350L477.3600,431.7696L495.7200,437.1697L514.0800,442.2757L532.4400,447.1233L550.8000,451.7441L550.8612,451.7588"/>
   <path d="M91.8000,91.8000L110.1600,133.6979L128.5200,170.3582L146.8800,202.4600L165.2400,230.5930L183.6000,255.3019L201.9600,277.0346L220.3200,296.1800L238.6800,313.0765L257.0400,328.0181
            L275.4000,341.2605L293.7600,353.0260L312.1200,363.5080L330.4800,372.8745L348.8400,381.2718L367.2000,388.8271L385.5600,395.6511L403.9200,401.8401L422.2800,407.4778L440.6400,412.6373
            L459.0000,417.3819L477.3600,421.7670L495.7200,425.8407L514.0800,429.6448L532.4400,433.2160L550.8000,436.5859L550.8612,436.5966"/>
   <path d="M91.8000,91.8000L110.1600,136.4169L128.5200,175.2999L146.8800,209.2337L165.2400,238.8852L183.6000,264.8697L201.9600,287.6898L220.3200,307.7791L238.6800,325.5119L257.0400,341.2111
            L275.4000,355.1556L293.7600,367.5857L312.1200,378.7090L330.4800,388.7044L348.8400,397.7262L367.2000,405.9078L385.5600,413.3638L403.9200,420.1934L422.2800,426.4821L440.6400,432.3033
            L459.0000,437.7207L477.3600,442.7890L495.7200,447.5555L514.0800,452.0608L532.4400,456.3401L550.8000,460.4235L550.8612,460.4366"/>
   <path d="M91.8000,91.8000L110.1600,138.1356L128.5200,177.9256L146.8800,212.1227L165.2400,241.5380L183.6000,266.9021L201.9600,288.8077L220.3200,307.7605L238.6800,324.1920L257.0400,338.4709
            L275.4000,350.9115L293.7600,361.7825L312.1200,371.3129L330.4800,379.6986L348.8400,387.1065L367.2000,393.6795L385.5600,399.5395L403.9200,404.7904L422.2800,409.5214L440.6400,413.8084
            L459.0000,417.7163L477.3600,421.3009L495.7200,424.6095L514.0800,427.6828L532.4400,430.5555L550.8000,433.2575L550.8612,433.2660"/>
   <path d="M91.8000,91.8000L110.1600,136.3614L128.5200,175.1117L146.8800,208.8494L165.2400,238.2600L183.6000,263.9702L201.9600,286.4919L220.3200,306.2661L238.6800,323.6731L257.0400,339.0406
            L275.4000,352.6510L293.7600,364.7478L312.1200,375.5407L330.4800,385.2106L348.8400,393.9133L367.2000,401.7832L385.5600,408.9361L403.9200,415.4718L422.2800,421.4764L440.6400,427.0240
            L459.0000,432.1786L477.3600,436.9954L495.7200,441.5219L514.0800,445.7991L532.4400,449.8624L550.8000,453.7423L550.8612,453.7547"/>
   <path d="M91.8000,91.8000L110.1600,129.6633L128.5200,163.4423L146.8800,193.6140L165.2400,220.5917L183.6000,244.7706L201.9600,266.4801L220.3200,286.0106L238.6800,303.6192L257.0400,319.5330
            L275.4000,333.9530L293.7600,347.0567L312.1200,359.0014L330.4800,369.9260L348.8400,379.9534L367.2000,389.1924L385.5600,397.7391L403.9200,405.6788L422.2800,413.0867L440.6400,420.0296
            L459.0000,426.5665L477.3600,432.7498L495.7200,438.6257L514.0800,444.2354L532.4400,449.6152L550.8000,454.7974L550.8612,454.8142"/>
   <path d="M91.8000,91.8000L110.1600,134.2494L128.5200,171.4429L146.8800,204.0678L165.2400,232.7163L183.6000,257.9378L201.9600,280.1831L220.3200,299.8438L238.6800,317.2599L257.0400,332.7270
            L275.4000,346.5017L293.7600,358.8067L312.1200,369.8359L330.4800,379.7572L348.8400,388.7167L367.2000,396.8414L385.5600,404.2413L403.9200,411.0121L422.2800,417.2371L440.6400,422.9883
            L459.0000,428.3284L477.3600,433.3120L495.7200,437.9863L514.0800,442.3924L532.4400,446.5660L550.8000,450.5380L550.8612,450.5507"/>
   <path d="M91.8000,91.8000L110.1600,138.2767L128.5200,178.3406L146.8800,212.9132L165.2400,242.7920L183.6000,268.6850L201.9600,291.1696L220.3200,310.7391L238.6800,327.8150L257.0400,342.7576
            L275.4000,355.8747L293.7600,367.4297L312.1200,377.6476L330.4800,386.7211L348.8400,394.8147L367.2000,402.0694L385.5600,408.6058L403.9200,414.5269L422.2800,419.9213L440.6400,424.8643
            L459.0000,429.4207L477.3600,433.6460L495.7200,437.5875L514.0800,441.2860L532.4400,444.7762L550.8000,448.0880L550.8612,448.0985"/>
   <path d="M91.8000,91.8000L110.1600,118.9324L128.5200,144.1092L146.8800,167.4885L165.2400,189.2083L183.6000,209.4094L201.9600,228.2150L220.3200,245.7363L238.6800,262.0761L257.0400,277.3283
            L275.4000,291.5798L293.7600,304.9100L312.1200,317.3922L330.4800,329.0938L348.8400,340.0766L367.2000,350.3975L385.5600,360.1089L403.9200,369.2586L422.2800,377.8911L440.6400,386.0468
            L459.0000,393.7632L477.3600,401.0744L495.7200,408.0121L514.0800,414.6052L532.4400,420.8804L550.8000,426.8620L550.8612,426.8810"/>
   <path d="M91.8000,91.8000L110.1600,128.5983L128.5200,161.6425L146.8800,191.3503L165.2400,218.0823L183.6000,242.1854L201.9600,263.9528L220.3200,283.6437L238.6800,301.4884L257.0400,317.6915
            L275.4000,332.4352L293.7600,345.8811L312.1200,358.1730L330.4800,369.4389L348.8400,379.7922L367.2000,389.3337L385.5600,398.1533L403.9200,406.3304L422.2800,413.9357L440.6400,421.0322
            L459.0000,427.6755L477.3600,433.9151L495.7200,439.7950L514.0800,445.3541L532.4400,450.6271L550.8000,455.6446L550.8612,455.6605"/>
   <path d="M91.8000,91.8000L110.1600,122.9323L128.5200,151.3657L146.8800,177.3531L165.2400,201.1147L183.6000,222.8678L201.9600,242.8031L220.3200,261.0910L238.6800,277.8866L257.0400,293.3309
            L275.4000,307.5520L293.7600,320.6666L312.1200,332.7806L330.4800,343.9904L348.8400,354.3834L367.2000,364.0389L385.5600,373.0289L403.9200,381.4189L422.2800,389.2680L440.6400,396.6298
            L459.0000,403.5530L477.3600,410.0815L495.7200,416.2552L514.0800,422.1102L532.4400,427.6790L550.8000,432.9912L550.8612,433.0081"/>
   <path d="M91.8000,91.8000L110.1600,134.7668L128.5200,172.3530L146.8800,205.2703L165.2400,234.1310L183.6000,259.5015L201.9600,281.8459L220.3200,301.5667L238.6800,319.0128L257.0400,334.4870
            L275.4000,348.2515L293.7600,360.5339L312.1200,371.5313L330.4800,381.4148L348.8400,390.3327L367.2000,398.4136L385.5600,405.7688L403.9200,412.4951L422.2800,418.6762L440.6400,424.3848
            L459.0000,429.6840L477.3600,434.6283L495.7200,439.2651L514.0800,443.6355L532.4400,447.7751L550.8000,451.7149L550.8612,451.7274"/>
   <path d="M91.8000,91.8000L110.1600,138.0947L128.5200,177.9885L146.8800,212.4027L165.2400,242.1178L183.6000,267.8427L201.9600,290.1523L220.3200,309.5386L238.6800,326.4223L257.0400,341.1631
            L275.4000,354.0689L293.7600,365.4027L312.1200,375.3895L330.4800,384.2218L348.8400,392.0640L367.2000,399.0569L385.5600,405.3208L403.9200,410.9584L422.2800,416.0578L440.6400,420.6942
            L459.0000,424.9320L477.3600,428.8260L495.7200,432.4235L514.0800,435.7646L532.4400,438.8838L550.8000,441.8105L550.8612,441.8197"/>
   <path d="M91.8000,91.8000L110.1600,133.2102L128.5200,169.6861L146.8800,201.8550L165.2400,230.2605L183.6000,255.4095L201.9600,277.7196L220.3200,297.5550L238.6800,315.2339L257.0400,331.0337
            L275.4000,345.1966L293.7600,357.9339L312.1200,369.4302L330.4800,379.8465L348.8400,389.3232L367.2000,397.9832L385.5600,405.9336L403.9200,413.2677L422.2800,420.0674L440.6400,426.4038
            L459.0000,432.3393L477.3600,437.9283L495.7200,443.2182L514.0800,448.2505L532.4400,453.0616L550.8000,457.6832L550.8612,457.6980"/>
   <path d="M91.8000,91.8000L110.1600,135.6196L128.5200,173.8143L146.8800,207.1447L165.2400,236.2632L183.6000,261.7700L201.9600,284.1560L220.3200,303.8455L238.6800,321.2050L257.0400,336.5513
            L275.4000,350.1581L293.7600,362.2620L312.1200,373.0672L330.4800,382.7504L348.8400,391.4642L367.2000,399.3404L385.5600,406.4930L403.9200,413.0204L422.2800,419.0077L440.6400,424.5284
            L459.0000,429.6461L477.3600,434.4156L495.7200,438.8843L514.0800,443.0934L532.4400,447.0782L550.8000,450.8693L550.8612,450.8814"/>
   <path d="M91.8000,91.8000L110.1600,136.6227L128.5200,175.5598L146.8800,209.4232L165.2400,238.9087L183.6000,264.6522L201.9600,287.1724L220.3200,306.9160L238.6800,324.2677L257.0400,339.5586
            L275.4000,353.0739L293.7600,365.0589L312.1200,375.7251L330.4800,385.2545L348.8400,393.8036L367.2000,401.5074L385.5600,408.4820L403.9200,414.8274L422.2800,420.6297L440.6400,425.9629
            L459.0000,430.8910L477.3600,435.4688L495.7200,439.7437L514.0800,443.7564L532.4400,447.5421L550.8000,451.1309L550.8612,451.1423"/>
   <path d="M91.8000,91.8000L110.1600,124.1142L128.5200,153.5248L146.8800,180.3162L165.2400,204.7369L183.6000,227.0311L201.9600,247.4084L220.3200,266.0562L238.6800,283.1433L257.0400,298.8220
            L275.4000,313.2300L293.7600,326.4911L312.1200,338.7174L330.4800,350.0096L348.8400,360.4589L367.2000,370.1474L385.5600,379.1491L403.9200,387.5308L422.2800,395.3527L440.6400,402.6693
            L459.0000,409.5294L477.3600,415.9772L495.7200,422.0525L514.0800,427.7913L532.4400,433.2259L550.8000,438.3855L550.8612,438.4018"/>
   <path d="M91.8000,91.8000L110.1600,135.0447L128.5200,172.8048L146.8800,205.8117L165.2400,234.6912L183.6000,260.0228L201.9600,282.2808L220.3200,301.8759L238.6800,319.1636L257.0400,334.4519
            L275.4000,348.0073L293.7600,360.0608L312.1200,370.8120L330.4800,380.4340L348.8400,389.0767L367.2000,396.8695L385.5600,403.9247L403.9200,410.3396L422.2800,416.1980L440.6400,421.5729
            L459.0000,426.5271L477.3600,431.1153L495.7200,435.3845L514.0800,439.3757L532.4400,443.1241L550.8000,446.6603L550.8612,446.6715"/>
   <path d="M91.8000,91.8000L110.1600,129.2756L128.5200,162.7674L146.8800,192.7296L165.2400,219.5582L183.6000,243.6331L201.9600,265.2695L220.3200,284.7469L238.6800,302.3124L257.0400,318.1851
            L275.4000,332.5587L293.7600,345.6050L312.1200,357.4759L330.4800,368.3061L348.8400,378.2147L367.2000,387.3073L385.5600,395.6771L403.9200,403.4070L422.2800,410.5703L440.6400,417.2316
            L459.0000,423.4485L477.3600,429.2717L495.7200,434.7463L514.0800,439.9120L532.4400,444.8041L550.8000,449.4538L550.8612,449.4685"/>
   <path d="M91.8000,91.8000L110.1600,123.8380L128.5200,153.0772L146.8800,179.7869L165.2400,204.2029L183.6000,226.5596L201.9600,247.0562L220.3200,265.8715L238.6800,283.1672L257.0400,299.0896
            L275.4000,313.7707L293.7600,327.3302L312.1200,339.8758L330.4800,351.5054L348.8400,362.3070L367.2000,372.3604L385.5600,381.7377L403.9200,390.5041L422.2800,398.7183L440.6400,406.4336
            L459.0000,413.6980L477.3600,420.5551L495.7200,427.0440L514.0800,433.2001L532.4400,439.0556L550.8000,444.6394L550.8612,444.6572"/>
   <path d="M91.8000,91.8000L110.1600,139.7077L128.5200,180.6962L146.8800,215.7983L165.2400,245.8986L183.6000,271.7800L201.9600,294.0769L220.3200,313.3280L238.6800,329.9903L257.0400,344.4522
            L275.4000,357.0434L293.7600,368.0439L312.1200,377.6914L330.4800,386.1882L348.8400,393.7057L367.2000,400.3899L385.5600,406.3648L403.9200,411.7356L422.2800,416.5919L440.6400,421.0098
            L459.0000,425.0542L477.3600,428.7799L495.7200,432.2339L514.0800,435.4560L532.4400,438.4801L550.8000,441.3350L550.8612,441.3441"/>
   <path d="M91.8000,91.8000L110.1600,123.9446L128.5200,153.2063L146.8800,179.8647L165.2400,204.1641L183.6000,226.3467L201.9600,246.6182L220.3200,265.1631L238.6800,282.1480L257.0400,297.7231
            L275.4000,312.0241L293.7600,325.1734L312.1200,337.2816L330.4800,348.4483L348.8400,358.7635L367.2000,368.3084L385.5600,377.1562L403.9200,385.3730L422.2800,393.0186L440.6400,400.1466
            L459.0000,406.8056L477.3600,413.0395L495.7200,418.8877L514.0800,424.3858L532.4400,429.5661L550.8000,434.4573L550.8612,434.4727"/>
   <path d="M91.8000,91.8000L110.1600,124.7178L128.5200,154.6889L146.8800,182.0043L165.2400,206.9171L183.6000,229.6760L201.9600,250.4947L220.3200,269.5636L238.6800,287.0545L257.0400,303.1225
            L275.4000,317.9070L293.7600,331.5340L312.1200,344.1171L330.4800,355.7583L348.8400,366.5501L367.2000,376.5753L385.5600,385.9088L403.9200,394.6181L422.2800,402.7640L440.6400,410.4012
            L459.0000,417.5789L477.3600,424.3415L495.7200,430.7291L514.0800,436.7776L532.4400,442.5194L550.8000,447.9837L550.8612,448.0011"/>
   <path d="M91.8000,91.8000L110.1600,126.1817L128.5200,157.2167L146.8800,185.2536L165.2400,210.6004L183.6000,233.5576L201.9600,254.3756L220.3200,273.2791L238.6800,290.4687L257.0400,306.1241
            L275.4000,320.4063L293.7600,333.4591L312.1200,345.4114L330.4800,356.3787L348.8400,366.4642L367.2000,375.7605L385.5600,384.3503L403.9200,392.3079L422.2800,399.6998L440.6400,406.5854
            L459.0000,413.0181L477.3600,419.0456L495.7200,424.7108L514.0800,430.0520L532.4400,435.1035L550.8000,439.8963L550.8612,439.9115"/>
   <path d="M91.8000,91.8000L110.1600,135.3045L128.5200,173.2691L146.8800,206.4367L165.2400,235.4487L183.6000,260.8937L201.9600,283.2536L220.3200,302.9454L238.6800,320.3297L257.0400,335.7184
            L275.4000,349.3814L293.7600,361.5520L312.1200,372.4322L330.4800,382.1966L348.8400,390.9963L367.2000,398.9619L385.5600,406.2067L403.9200,412.8284L422.2800,418.9117L440.6400,424.5299
            L459.0000,429.7463L477.3600,434.6159L495.7200,439.1861L514.0800,443.4980L532.4400,447.5872L550.8000,451.4845L550.8612,451.4970"/>
   <path d="M91.8000,91.8000L110.1600,123.1250L128.5200,151.7535L146.8800,177.9413L165.2400,201.9115L183.6000,223.8844L201.9600,244.0508L220.3200,262.5812L238.6800,279.6301L257.0400,295.3373
            L275.4000,309.8295L293.7600,323.2216L312.1200,335.6173L330.4800,347.1109L348.8400,357.7876L367.2000,367.7246L385.5600,376.9916L403.9200,385.6521L422.2800,393.7633L440.6400,401.3771
            L459.0000,408.5403L477.3600,415.2956L495.7200,421.6813L514.0800,427.7322L532.4400,433.4799L550.8000,438.9529L550.8612,438.9703"/>
   <path d="M91.8000,91.8000L110.1600,123.3722L128.5200,152.2316L146.8800,178.6352L165.2400,202.8089L183.6000,224.9781L201.9600,245.3338L220.3200,264.0480L238.6800,281.2766L257.0400,297.1607
            L275.4000,311.8278L293.7600,325.3936L312.1200,337.9627L330.4800,349.6297L348.8400,360.4803L367.2000,370.5922L385.5600,380.0356L403.9200,388.8740L422.2800,397.1650L440.6400,404.9606
            L459.0000,412.3079L477.3600,419.2495L495.7200,425.8240L514.0800,432.0664L532.4400,438.0081L550.8000,443.6778L550.8612,443.6958"/>
   <path d="M91.8000,91.8000L110.1600,123.3119L128.5200,152.1185L146.8800,178.4739L165.2400,202.6054L183.6000,224.7385L201.9600,245.0627L220.3200,263.7496L238.6800,280.9543L257.0400,296.8173
            L275.4000,311.4658L293.7600,325.0148L312.1200,337.5688L330.4800,349.2220L348.8400,360.0598L367.2000,370.1598L385.5600,379.5921L403.9200,388.4199L422.2800,396.7010L440.6400,404.4873
            L459.0000,411.8259L477.3600,418.7596L495.7200,425.3270L514.0800,431.5630L532.4400,437.4995L550.8000,443.1650L550.8612,443.1831"/>
   <path d="M91.8000,91.8000L110.1600,130.8465L128.5200,165.3960L146.8800,195.9874L165.2400,223.0961L183.6000,247.1659L201.9600,268.5644L220.3200,287.6141L238.6800,304.5986L257.0400,319.7667
            L275.4000,333.3370L293.7600,345.5015L312.1200,356.4292L330.4800,366.2682L348.8400,375.1489L367.2000,383.1859L385.5600,390.4800L403.9200,397.1196L422.2800,403.1828L440.6400,408.7379
            L459.0000,413.8453L477.3600,418.5579L495.7200,422.9224L514.0800,426.9798L532.4400,430.7663L550.8000,434.3136L550.8612,434.3247"/>
   <path d="M91.8000,91.8000L110.1600,129.1945L128.5200,162.5545L146.8800,192.3397L165.2400,218.9552L183.6000,242.7856L201.9600,264.1508L220.3200,283.3334L238.6800,300.5837L257.0400,316.1228
            L275.4000,330.1467L293.7600,342.8284L312.1200,354.3212L330.4800,364.7609L348.8400,374.2673L367.2000,382.9468L385.5600,390.8933L403.9200,398.1901L422.2800,404.9109L440.6400,411.1208
            L459.0000,416.8776L477.3600,422.2325L495.7200,427.2306L514.0800,431.9121L532.4400,436.3124L550.8000,440.4630L550.8612,440.4761"/>
   <path d="M91.8000,91.8000L110.1600,137.9347L128.5200,177.8132L146.8800,212.3251L165.2400,242.2354L183.6000,268.2331L201.9600,290.8794L220.3200,310.6549L238.6800,327.9711L257.0400,343.1807
            L275.4000,356.5856L293.7600,368.4448L312.1200,378.9797L330.4800,388.3803L348.8400,396.8093L367.2000,404.4062L385.5600,411.2904L403.9200,417.5643L422.2800,423.3156L440.6400,428.6197
            L459.0000,433.5409L477.3600,438.1347L495.7200,442.4483L514.0800,446.5225L532.4400,450.3921L550.8000,454.0870L550.8612,454.0988"/>
   <path d="M91.8000,91.8000L110.1600,138.0809L128.5200,177.9843L146.8800,212.4281L165.2400,242.1937L183.6000,267.9883L201.9600,290.3864L220.3200,309.8791L238.6800,326.8869L257.0400,341.7690
            L275.4000,354.8329L293.7600,366.3416L312.1200,376.5200L330.4800,385.5605L348.8400,393.6276L367.2000,400.8621L385.5600,407.3844L403.9200,413.2975L422.2800,418.6895L440.6400,423.6358
            L459.0000,428.2009L477.3600,432.4401L495.7200,436.4004L514.0800,440.1224L532.4400,443.6407L550.8000,446.9849L550.8612,446.9956"/>
   <path d="M91.8000,91.8000L110.1600,125.2440L128.5200,155.5781L146.8800,183.1181L165.2400,208.1389L183.6000,230.9084L201.9600,251.6566L220.3200,270.5880L238.6800,287.8864L257.0400,303.7172
            L275.4000,318.2287L293.7600,331.5547L312.1200,343.8150L330.4800,355.1174L348.8400,365.5590L367.2000,375.2267L385.5600,384.1987L403.9200,392.5455L422.2800,400.3300L440.6400,407.6091
            L459.0000,414.4336L477.3600,420.8494L495.7200,426.8975L514.0800,432.6148L532.4400,438.0344L550.8000,443.1861L550.8612,443.2025"/>
   <path d="M91.8000,91.8000L110.1600,141.0161L128.5200,182.9185L146.8800,218.6324L165.2400,249.1093L183.6000,275.1927L201.9600,297.5621L220.3200,316.7915L238.6800,333.3659L257.0400,347.6953
            L275.4000,360.1260L293.7600,370.9507L312.1200,380.4167L330.4800,388.7330L348.8400,396.0763L367.2000,402.5958L385.5600,408.4178L403.9200,413.6489L422.2800,418.3794L440.6400,422.6853
            L459.0000,426.6313L477.3600,430.2719L495.7200,433.6532L514.0800,436.8142L532.4400,439.7880L550.8000,442.6026L550.8612,442.6115"/>
   <path d="M91.8000,91.8000L110.1600,126.8154L128.5200,158.4230L146.8800,186.9852L165.2400,212.8170L183.6000,236.2243L201.9600,257.4662L220.3200,276.7730L238.6800,294.3505L257.0400,310.3827
            L275.4000,325.0342L293.7600,338.4520L312.1200,350.7677L330.4800,362.0987L348.8400,372.5502L367.2000,382.2161L385.5600,391.1804L403.9200,399.5179L422.2800,407.2959L440.6400,414.5741
            L459.0000,421.4061L477.3600,427.8397L495.7200,433.9176L514.0800,439.6781L532.4400,445.1551L550.8000,450.3792L550.8612,450.3958"/>
   <path d="M91.8000,91.8000L110.1600,126.2935L128.5200,157.4790L146.8800,185.6993L165.2400,211.2577L183.6000,234.4500L201.9600,255.5234L220.3200,274.6991L238.6800,292.1752L257.0400,308.1292
            L275.4000,322.7199L293.7600,336.0895L312.1200,348.3655L330.4800,359.6618L348.8400,370.0807L367.2000,379.7136L385.5600,388.6424L403.9200,396.9404L422.2800,404.6734L440.6400,411.9002
            L459.0000,418.6734L477.3600,425.0402L495.7200,431.0427L514.0800,436.7188L532.4400,442.1023L550.8000,447.2234L550.8612,447.2397"/>
   <path d="M91.8000,91.8000L110.1600,123.0325L128.5200,151.6039L146.8800,177.7637L165.2400,201.7316L183.6000,223.7269L201.9600,243.9356L220.3200,262.5255L238.6800,279.6486L257.0400,295.4427
            L275.4000,310.0325L293.7600,323.5312L312.1200,336.0412L330.4800,347.6552L348.8400,358.4575L367.2000,368.5242L385.5600,377.9244L403.9200,386.7206L422.2800,394.9694L440.6400,402.7222
            L459.0000,410.0255L477.3600,416.9214L495.7200,423.4480L514.0800,429.6399L532.4400,435.5284L550.8000,441.1417L550.8612,441.1596"/>
   <path d="M91.8000,91.8000L110.1600,140.4935L128.5200,182.0474L146.8800,217.5453L165.2400,247.9058L183.6000,273.9458L201.9600,296.3242L220.3200,315.5993L238.6800,332.2437L257.0400,346.6579
            L275.4000,359.1810L293.7600,370.1002L312.1200,379.6587L330.4800,388.0627L348.8400,395.4866L367.2000,402.0783L385.5600,407.9631L403.9200,413.2471L422.2800,418.0201L440.6400,422.3585
            L459.0000,426.3267L477.3600,429.9796L495.7200,433.3634L514.0800,436.5175L532.4400,439.4754L550.8000,442.2653L550.8612,442.2741"/>
   <path d="M91.8000,91.8000L110.1600,117.8225L128.5200,141.9884L146.8800,164.4417L165.2400,185.3082L183.6000,204.7193L201.9600,222.7875L220.3200,239.6155L238.6800,255.2981L257.0400,269.9228
            L275.4000,283.5699L293.7600,296.3137L312.1200,308.2228L330.4800,319.3602L348.8400,329.7841L367.2000,339.5481L385.5600,348.7018L403.9200,357.2909L422.2800,365.3573L440.6400,372.9401
            L459.0000,380.0749L477.3600,386.7949L495.7200,393.1306L514.0800,399.1101L532.4400,404.7593L550.8000,410.1023L550.8612,410.1192"/>
   <path d="M91.8000,91.8000L110.1600,126.8553L128.5200,158.4544L146.8800,186.9638L165.2400,212.7085L183.6000,236.0026L201.9600,257.1084L220.3200,276.2603L238.6800,293.6675L257.0400,309.5168
            L275.4000,323.9752L293.7600,337.1917L312.1200,349.2995L330.4800,360.4176L348.8400,370.6523L367.2000,380.0986L385.5600,388.8413L403.9200,396.9563L422.2800,404.5112L440.6400,411.5668
            L459.0000,418.1769L477.3600,424.3901L495.7200,430.2495L514.0800,435.7937L532.4400,441.0572L550.8000,446.0708L550.8612,446.0868"/>
   <path d="M91.8000,91.8000L110.1600,131.4220L128.5200,166.4764L146.8800,197.5215L165.2400,225.0359L183.6000,249.4698L201.9600,271.2015L220.3200,290.5607L238.6800,307.8373L257.0400,323.2858
            L275.4000,337.1299L293.7600,349.5660L312.1200,360.7668L330.4800,370.8840L348.8400,380.0511L367.2000,388.3851L385.5600,395.9890L403.9200,402.9534L422.2800,409.3580L440.6400,415.2726
            L459.0000,420.7588L477.3600,425.8709L495.7200,430.6563L514.0800,435.1571L532.4400,439.4100L550.8000,443.4476L550.8612,443.4604"/>
   <path d="M91.8000,91.8000L110.1600,127.1956L128.5200,159.0758L146.8800,187.8174L165.2400,213.7535L183.6000,237.2062L201.9600,258.4442L220.3200,277.7072L238.6800,295.2092L257.0400,311.1410
            L275.4000,325.6728L293.7600,338.9566L312.1200,351.1279L330.4800,362.3077L348.8400,372.6039L367.2000,382.1130L385.5600,390.9209L403.9200,399.1044L422.2800,406.7320L440.6400,413.8650
            L459.0000,420.5578L477.3600,426.8593L495.7200,432.8129L514.0800,438.4574L532.4400,443.8276L550.8000,448.9545L550.8612,448.9708"/>
   <path d="M91.8000,91.8000L110.1600,138.6285L128.5200,178.9225L146.8800,213.6333L165.2400,243.5755L183.6000,269.4790L201.9600,291.9364L220.3200,311.4533L238.6800,328.4611L257.0400,343.3278
            L275.4000,356.3675L293.7600,367.8481L312.1200,377.9985L330.4800,387.0137L348.8400,395.0604L367.2000,402.2807L385.5600,408.7960L403.9200,414.7100L422.2800,420.1111L440.6400,425.0748
            L459.0000,429.6658L477.3600,433.9391L495.7200,437.9417L514.0800,441.7141L532.4400,445.2904L550.8000,448.7002L550.8612,448.7111"/>
   <path d="M91.8000,91.8000L110.1600,130.8625L128.5200,165.5362L146.8800,196.3488L165.2400,223.7599L183.6000,248.2040L201.9600,270.0407L220.3200,289.5863L238.6800,307.1194L257.0400,322.8846
            L275.4000,337.0974L293.7600,349.9473L312.1200,361.6012L330.4800,372.2058L348.8400,381.8901L367.2000,390.7679L385.5600,398.9391L403.9200,406.4918L422.2800,413.5036L440.6400,420.0426
            L459.0000,426.1689L477.3600,431.9355L495.7200,437.3890L514.0800,442.5704L532.4400,447.5159L550.8000,452.2575L550.8612,452.2727"/>
   <path d="M91.8000,91.8000L110.1600,131.5206L128.5200,166.6938L146.8800,197.8739L165.2400,225.5376L183.6000,250.1343L201.9600,272.0392L220.3200,291.5802L238.6800,309.0454L257.0400,324.6877
            L275.4000,338.7291L293.7600,351.3646L312.1200,362.7654L330.4800,373.0818L348.8400,382.4459L367.2000,390.9736L385.5600,398.7665L403.9200,405.9141L422.2800,412.4949L440.6400,418.5776
            L459.0000,424.2230L477.3600,429.4840L495.7200,434.4075L514.0800,439.0344L532.4400,443.4008L550.8000,447.5383L550.8612,447.5514"/>
   <path d="M91.8000,91.8000L110.1600,122.7516L128.5200,151.1181L146.8800,177.1402L165.2400,201.0287L183.6000,222.9934L201.9600,243.2148L220.3200,261.8547L238.6800,279.0604L257.0400,294.9652
            L275.4000,309.6904L293.7600,323.3458L312.1200,336.0311L330.4800,347.8369L348.8400,358.8452L367.2000,369.1306L385.5600,378.7605L403.9200,387.7964L422.2800,396.2937L440.6400,404.3030
            L459.0000,411.8700L477.3600,419.0361L495.7200,425.8390L514.0800,432.3127L532.4400,438.4883L550.8000,444.3936L550.8612,444.4125"/>
   <path d="M91.8000,91.8000L110.1600,131.3940L128.5200,166.5753L146.8800,197.8758L165.2400,225.7535L183.6000,250.6415L201.9600,272.9019L220.3200,292.8518L238.6800,310.7703L257.0400,326.9026
            L275.4000,341.4647L293.7600,354.6465L312.1200,366.6149L330.4800,377.5167L348.8400,387.4812L367.2000,396.6218L385.5600,405.0383L403.9200,412.8184L422.2800,420.0394L440.6400,426.7689
            L459.0000,433.0664L477.3600,438.9843L495.7200,444.5686L514.0800,449.8596L532.4400,454.8927L550.8000,459.6990L550.8612,459.7143"/>
   <path d="M91.8000,91.8000L110.1600,135.9638L128.5200,174.4298L146.8800,207.9767L165.2400,237.2686L183.6000,262.9173L201.9600,285.4225L220.3200,305.2156L238.6800,322.6690L257.0400,338.1042
            L275.4000,351.7988L293.7600,363.9920L312.1200,374.8908L330.4800,384.6736L348.8400,393.4943L367.2000,401.4858L385.5600,408.7630L403.9200,415.4248L422.2800,421.5567L440.6400,427.2325
            L459.0000,432.5158L477.3600,437.4616L495.7200,442.1174L514.0800,446.5242L532.4400,450.7172L550.8000,454.7272L550.8612,454.7400"/>
   <path d="M91.8000,91.8000L110.1600,138.4448L128.5200,178.6223L146.8800,213.2715L165.2400,243.1876L183.6000,269.0913L201.9600,291.5667L220.3200,311.1132L238.6800,328.1571L257.0400,343.0627
            L275.4000,356.1414L293.7600,367.6590L312.1200,377.8425L330.4800,386.8859L348.8400,394.9550L367.2000,402.1912L385.5600,408.7153L403.9200,414.6308L422.2800,420.0257L440.6400,424.9754
            L459.0000,429.5443L477.3600,433.7874L495.7200,437.7516L514.0800,441.4770L532.4400,444.9980L550.8000,448.3439L550.8612,448.3546"/>
   <path d="M91.8000,91.8000L110.1600,125.3367L128.5200,155.7724L146.8800,183.4229L165.2400,208.5655L183.6000,231.4737L201.9600,252.3767L220.3200,271.4804L238.6800,288.9698L257.0400,305.0112
            L275.4000,319.7539L293.7600,333.3323L312.1200,345.8671L330.4800,357.4668L348.8400,368.2288L367.2000,378.2408L385.5600,387.5817L403.9200,396.3223L422.2800,404.5262L440.6400,412.2508
            L459.0000,419.5474L477.3600,426.4624L495.7200,433.0374L514.0800,439.3097L532.4400,445.3131L550.8000,451.0777L550.8612,451.0962"/>
   <path d="M91.8000,91.8000L110.1600,134.2131L128.5200,171.3110L146.8800,203.7887L165.2400,232.2524L183.6000,257.2584L201.9600,279.2639L220.3200,298.6659L238.6800,315.8088L257.0400,330.9917
            L275.4000,344.4744L293.7600,356.4824L312.1200,367.2117L330.4800,376.8325L348.8400,385.4927L367.2000,393.3209L385.5600,400.4289L403.9200,406.9138L422.2800,412.8600L440.6400,418.3412
            L459.0000,423.4212L477.3600,428.1557L495.7200,432.5932L514.0800,436.7758L532.4400,440.7402L550.8000,444.5186L550.8612,444.5307"/>
   <path d="M91.8000,91.8000L110.1600,125.7885L128.5200,156.5480L146.8800,184.4120L165.2400,209.6734L183.6000,232.6178L201.9600,253.4870L220.3200,272.4967L238.6800,289.8406L257.0400,305.6923
            L275.4000,320.2075L293.7600,333.5261L312.1200,345.7736L330.4800,357.0624L348.8400,367.4937L367.2000,377.1580L385.5600,386.1369L403.9200,394.5033L422.2800,402.3230L440.6400,409.6547
            L459.0000,416.5514L477.3600,423.0607L495.7200,429.2251L514.0800,435.0832L532.4400,440.6692L550.8000,446.0144L550.8612,446.0315"/>
   <path d="M91.8000,91.8000L110.1600,135.4275L128.5200,173.5159L146.8800,206.8075L165.2400,235.9419L183.6000,261.5071L201.9600,283.9848L220.3200,303.7914L238.6800,321.2873L257.0400,336.7843
            L275.4000,350.5521L293.7600,362.8240L312.1200,373.8020L330.4800,383.6606L348.8400,392.5509L367.2000,400.6037L385.5600,407.9321L403.9200,414.6339L422.2800,420.7937L440.6400,426.4849
            L459.0000,431.7707L477.3600,436.7062L495.7200,441.3387L514.0800,445.7094L532.4400,449.8537L550.8000,453.8025L550.8612,453.8151"/>
   <path d="M91.8000,91.8000L110.1600,122.4668L128.5200,150.5775L146.8800,176.3676L165.2400,200.0421L183.6000,221.8054L201.9600,241.8342L220.3200,260.2871L238.6800,277.3081L257.0400,293.0280
            L275.4000,307.5657L293.7600,321.0293L312.1200,333.5168L330.4800,345.1172L348.8400,355.9116L367.2000,365.9735L385.5600,375.3695L403.9200,384.1605L422.2800,392.4013L440.6400,400.1421
            L459.0000,407.4282L477.3600,414.3010L495.7200,420.7978L514.0800,426.9527L532.4400,432.7965L550.8000,438.3573L550.8612,438.3750"/>
   <path d="M91.8000,91.8000L110.1600,122.5571L128.5200,150.6037L146.8800,176.1929L165.2400,199.5475L183.6000,220.8910L201.9600,240.4115L220.3200,258.2788L238.6800,274.6470L257.0400,289.6552
            L275.4000,303.4297L293.7600,316.0848L312.1200,327.7239L330.4800,338.4409L348.8400,348.3208L367.2000,357.4403L385.5600,365.8693L403.9200,373.6709L422.2800,380.9023L440.6400,387.6154
            L459.0000,393.8572L477.3600,399.6703L495.7200,405.0933L514.0800,410.1612L532.4400,414.9057L550.8000,419.3556L550.8612,419.3696"/>
   <path d="M91.8000,91.8000L110.1600,142.2519L128.5200,184.9599L146.8800,221.1463L165.2400,251.8423L183.6000,277.9536L201.9600,300.2074L220.3200,319.2147L238.6800,335.4890L257.0400,349.4623
            L275.4000,361.4976L293.7600,371.8999L312.1200,380.9259L330.4800,388.7911L348.8400,395.6770L367.2000,401.7360L385.5600,407.0962L403.9200,411.8656L422.2800,416.1348L440.6400,419.9801
            L459.0000,423.4657L477.3600,426.6455L495.7200,429.5651L514.0800,432.2626L532.4400,434.7702L550.8000,437.1152L550.8612,437.1225"/>
   <path d="M91.8000,91.8000L110.1600,136.1172L128.5200,174.6631L146.8800,208.2276L165.2400,237.4887L183.6000,263.0672L201.9600,285.4701L220.3200,305.1348L238.6800,322.4383L257.0400,337.7058
            L275.4000,351.2178L293.7600,363.2159L312.1200,373.9088L330.4800,383.4762L348.8400,392.0732L367.2000,399.8336L385.5600,406.8727L403.9200,413.2900L422.2800,419.1712L440.6400,424.5903
            L459.0000,429.6112L477.3600,434.2889L495.7200,438.6710L514.0800,442.7984L532.4400,446.7064L550.8000,450.4256L550.8612,450.4374"/>
   <path d="M91.8000,91.8000L110.1600,132.9868L128.5200,169.1684L146.8800,200.9766L165.2400,228.9550L183.6000,253.6131L201.9600,275.3743L220.3200,294.6080L238.6800,311.6376L257.0400,326.7462
            L275.4000,340.1813L293.7600,352.1597L312.1200,362.8710L330.4800,372.4808L348.8400,381.1339L367.2000,388.9569L385.5600,396.0601L403.9200,402.5401L422.2800,408.4809L440.6400,413.9560
            L459.0000,419.0295L477.3600,423.7573L495.7200,428.1881L514.0800,432.3646L532.4400,436.3238L550.8000,440.0981L550.8612,440.1102"/>
   <path d="M91.8000,91.8000L110.1600,137.3669L128.5200,176.9039L146.8800,211.2564L165.2400,241.1395L183.6000,267.2097L201.9600,290.0019L220.3200,309.9760L238.6800,327.5272L257.0400,342.9955
            L275.4000,356.6729L293.7600,368.8105L312.1200,379.6243L330.4800,389.2996L348.8400,397.9960L367.2000,405.8503L385.5600,412.9805L403.9200,419.4878L422.2800,425.4590L440.6400,430.9690
            L459.0000,436.0820L477.3600,440.8534L495.7200,445.3305L514.0800,449.5543L532.4400,453.5599L550.8000,457.3776L550.8612,457.3898"/>
   <path d="M91.8000,91.8000L110.1600,121.5703L128.5200,148.8611L146.8800,173.8940L165.2400,196.8627L183.6000,217.9600L201.9600,237.3581L220.3200,255.2117L238.6800,271.6626L257.0400,286.8411
            L275.4000,300.8661L293.7600,313.8464L312.1200,325.8813L330.4800,337.0610L348.8400,347.4677L367.2000,357.1760L385.5600,366.2536L403.9200,374.7619L422.2800,382.7565L440.6400,390.2879
            L459.0000,397.4018L477.3600,404.1398L495.7200,410.5393L514.0800,416.6346L532.4400,422.4565L550.8000,428.0330L550.8612,428.0509"/>
   <path d="M91.8000,91.8000L110.1600,133.0541L128.5200,169.3951L146.8800,201.4469L165.2400,229.7439L183.6000,254.7866L201.9600,276.9895L220.3200,296.7139L238.6800,314.2748L257.0400,329.9476
            L275.4000,343.9725L293.7600,356.5595L312.1200,367.8915L330.4800,378.1286L348.8400,387.4104L367.2000,395.8585L385.5600,403.5794L403.9200,410.6659L422.2800,417.1990L440.6400,423.2493
            L459.0000,428.8786L477.3600,434.1406L495.7200,439.0823L514.0800,443.7448L532.4400,448.1636L550.8000,452.3701L550.8612,452.3836"/>
   <path d="M91.8000,91.8000L110.1600,136.8162L128.5200,175.8552L146.8800,209.7501L165.2400,239.2131L183.6000,264.8944L201.9600,287.3237L220.3200,306.9566L238.6800,324.1847L257.0400,339.3451
            L275.4000,352.7272L293.7600,364.5802L312.1200,375.1181L330.4800,384.5250L348.8400,392.9593L367.2000,400.5571L385.5600,407.4353L403.9200,413.6947L422.2800,419.4218L440.6400,424.6909
            L459.0000,429.5661L477.3600,434.1023L495.7200,438.3471L514.0800,442.3409L532.4400,446.1189L550.8000,449.7112L550.8612,449.7227"/>
   <path d="M91.8000,91.8000L550.8000,91.8000"/>
   <path d="M91.8000,550.8000L550.8000,550.8000"/>
   <path d="M183.6000,91.8000L183.6000,104.0400"/>
   <path d="M183.6000,550.8000L183.6000,538.5600"/>
   <path d="M367.2000,91.8000L367.2000,104.0400"/>
   <path d="M367.2000,550.8000L367.2000,538.5600"/>
   <path d="M550.8000,91.8000L550.8000,104.0400"/>
   <path d="M550.8000,550.8000L550.8000,538.5600"/>
  </g>
  <g style="fill:#000000; fill-rule:nonzero">
   <text   style="font-family:'Times','Nimbus Roman'; font-style:normal; font-weight:normal; font-size:612.0000" transform="matrix(0.0280,0.0000,-0.0000,-0.0280,168.1000,73.6800)">-160</text>
   <text   style="font-family:'Times','Nimbus Roman'; font-style:normal; font-weight:normal; font-size:612.0000" transform="matrix(0.0280,0.0000,-0.0000,-0.0280,351.7000,73.6800)">-140</text>
   <text   style="font-family:'Times','Nimbus Roman'; font-style:normal; font-weight:normal; font-size:612.0000" transform="matrix(0.0280,0.0000,-0.0000,-0.0280,535.3000,73.6800)">-120</text>
  </g>
  <g style="fill:none; stroke:#000000; stroke-width:  0.9180; stroke-linecap:butt; stroke-linejoin:miter; stroke-dasharray:none">
   <path d="M91.8000,91.8000L91.8000,550.8000"/>
   <path d="M550.8000,91.8000L550.8000,550.8000"/>
   <path d="M91.8000,91.8000L104.0400,91.8000"/>
   <path d="M550.8000,91.8000L538.5600,91.8000"/>
   <path d="M91.8000,244.8000L104.0400,244.8000"/>
   <path d="M550.8000,244.8000L538.5600,244.8000"/>
   <path d="M91.8000,397.8000L104.0400,397.8000"/>
   <path d="M550.8000,397.8000L538.5600,397.8000"/>
   <path d="M91.8000,550.8000L104.0400,550.8000"/>
   <path d="M550.8000,550.8000L538.5600,550.8000"/>
  </g>
  <g style="fill:#000000; fill-rule:nonzero">
   <text   style="font-family:'Times','Nimbus Roman'; font-style:normal; font-weight:normal; font-size:612.0000" transform="matrix(0.0280,0.0000,-0.0000,-0.0280,77.6800,85.8000)">0</text>
   <text   style="font-family:'Times','Nimbus Roman'; font-style:normal; font-weight:normal; font-size:612.0000" transform="matrix(0.0280,0.0000,-0.0000,-0.0280,64.6800,238.8000)">0.5</text>
   <text   style="font-family:'Times','Nimbus Roman'; font-style:normal; font-weight:normal; font-size:612.0000" transform="matrix(0.0280,0.0000,-0.0000,-0.0280,78.6800,391.8000)">1</text>
   <text   style="font-family:'Times','Nimbus Roman'; font-style:normal; font-weight:normal; font-size:612.0000" transform="matrix(0.0280,0.0000,-0.0000,-0.0280,64.6800,544.8000)">1.5</text>
  </g>
  <g style="fill:none; stroke:#000000; stroke-width:  0.9180; stroke-linecap:butt; stroke-linejoin:miter; stroke-dasharray:none">
   <path d="M91.8000,91.8000L91.8000,550.8000L550.8000,550.8000L550.8000,91.8000z"/>
  </g>
 </g>
</svg>
