<?xml version="1.0" encoding="ISO-8859-1"?>
<!DOCTYPE svg PUBLIC "-//W3C//DTD SVG 1.0//EN" "http://www.w3.org/TR/2001/REC-SVG-20010904/DTD/svg10.dtd">
<!-- generated by Grace-5.1.25 -->
<svg xml:space="preserve" width="11.0000in" height="8.5000in" viewBox="0.0000 0.0000 792.0000 612.0000">
 <g transform="translate(0,612.0000) scale(1,-1)">
  <g style="fill:#FFFFFF; fill-rule:nonzero">
   <path  d="M0.0000,0.0000L0.0000,612.0000L792.0000,612.0000L792.0000,0.0000z"/>
  </g>
  <g style="fill:none; stroke:#000000; stroke-width:  0.9180; stroke-linecap:butt; stroke-linejoin:miter; stroke-dasharray:none">
   <path d="M91.8000,497.3531L105.7091,488.1928L119.6182,478.8824L133.5273,469.4174L147.4364,459.7957L161.3455,450.0188L175.2545,440.0922L189.1636,430.0259L203.0727,419.8350L216.9818,409.5401
            L230.8909,399.1673L244.8000,388.7484L258.7091,378.3199L272.6182,367.9227L286.5273,357.6006L300.4364,347.3988L314.3455,337.3624L328.2545,327.5349L342.1636,317.9562L356.0727,308.6614
            L369.9818,299.6795L383.8909,291.0331L397.8000,282.7377L411.7091,274.8019L425.6182,267.2282L439.5273,260.0129L453.4364,253.1476L467.3455,246.6201L481.2545,240.4150L495.1636,234.5148
            L509.0727,228.9007L522.9818,223.5533L536.8909,218.4530L550.8000,213.5807"/>
   <path d="M91.8000,497.1191L105.7091,489.6080L119.6182,481.7006L133.5273,473.3902L147.4364,464.6742L161.3455,455.5553L175.2545,446.0426L189.1636,436.1523L203.0727,425.9090L216.9818,415.3461
            L230.8909,404.5066L244.8000,393.4430L258.7091,382.2171L272.6182,370.8989L286.5273,359.5650L300.4364,348.2968L314.3455,337.1778L328.2545,326.2908L342.1636,315.7151L356.0727,305.5233
            L369.9818,295.7793L383.8909,286.5362L397.8000,277.8349L411.7091,269.7038L425.6182,262.1587L439.5273,255.2040L453.4364,248.8332L467.3455,243.0311L481.2545,237.7751L495.1636,233.0370
            L509.0727,228.7849L522.9818,224.9842L536.8909,221.5993L550.8000,218.5945"/>
   <path d="M91.8000,495.6912L105.7091,488.5154L119.6182,480.9192L133.5273,472.8901L147.4364,464.4196L161.3455,455.5044L175.2545,446.1478L189.1636,436.3611L203.0727,426.1654L216.9818,415.5922
            L230.8909,404.6854L244.8000,393.5014L258.7091,382.1098L272.6182,370.5921L286.5273,359.0410L300.4364,347.5571L314.3455,336.2459L328.2545,325.2130L342.1636,314.5597L356.0727,304.3781
            L369.9818,294.7468L383.8909,285.7277L397.8000,277.3639L411.7091,269.6796L425.6182,262.6806L439.5273,256.3565L453.4364,250.6837L467.3455,245.6280L481.2545,241.1482L495.1636,237.1986
            L509.0727,233.7317L522.9818,230.6997L536.8909,228.0567L550.8000,225.7589"/>
   <path d="M91.8000,497.4036L105.7091,488.6621L119.6182,479.7560L133.5273,470.6838L147.4364,461.4439L161.3455,452.0357L175.2545,442.4593L189.1636,432.7163L203.0727,422.8099L216.9818,412.7460
            L230.8909,402.5330L244.8000,392.1830L258.7091,381.7116L272.6182,371.1385L286.5273,360.4879L300.4364,349.7885L314.3455,339.0729L328.2545,328.3777L342.1636,317.7426L356.0727,307.2093
            L369.9818,296.8206L383.8909,286.6188L397.8000,276.6445L411.7091,266.9353L425.6182,257.5246L439.5273,248.4403L453.4364,239.7047L467.3455,231.3337L481.2545,223.3370L495.1636,215.7182
            L509.0727,208.4755L522.9818,201.6023L536.8909,195.0879L550.8000,188.9185"/>
   <path d="M91.8000,498.4586L105.7091,489.1801L119.6182,479.7710L133.5273,470.2280L147.4364,460.5503L161.3455,450.7400L175.2545,440.8021L189.1636,430.7457L203.0727,420.5839L216.9818,410.3346
            L230.8909,400.0202L244.8000,389.6676L258.7091,379.3085L272.6182,368.9780L286.5273,358.7144L300.4364,348.5575L314.3455,338.5478L328.2545,328.7247L342.1636,319.1254L356.0727,309.7832
            L369.9818,300.7266L383.8909,291.9785L397.8000,283.5557L411.7091,275.4687L425.6182,267.7220L439.5273,260.3147L453.4364,253.2408L467.3455,246.4906L481.2545,240.0509L495.1636,233.9061
            L509.0727,228.0392L522.9818,222.4322L536.8909,217.0668L550.8000,211.9249"/>
   <path d="M91.8000,479.3003L105.7091,471.4057L119.6182,463.3343L133.5273,455.0795L147.4364,446.6355L161.3455,437.9970L175.2545,429.1598L189.1636,420.1212L203.0727,410.8806L216.9818,401.4395
            L230.8909,391.8024L244.8000,381.9773L258.7091,371.9756L272.6182,361.8134L286.5273,351.5106L300.4364,341.0920L314.3455,330.5865L328.2545,320.0271L342.1636,309.4501L356.0727,298.8946
            L369.9818,288.4009L383.8909,278.0098L397.8000,267.7613L411.7091,257.6930L425.6182,247.8394L439.5273,238.2306L453.4364,228.8916L467.3455,219.8420L481.2545,211.0960L495.1636,202.6618
            L509.0727,194.5428L522.9818,186.7372L536.8909,179.2396L550.8000,172.0408"/>
   <path d="M91.8000,494.6788L105.7091,487.6338L119.6182,480.1586L133.5273,472.2406L147.4364,463.8709L161.3455,455.0463L175.2545,445.7704L189.1636,436.0547L203.0727,425.9200L216.9818,415.3977
            L230.8909,404.5306L244.8000,393.3730L258.7091,381.9910L272.6182,370.4615L286.5273,358.8709L300.4364,347.3122L314.3455,335.8828L328.2545,324.6802L342.1636,313.7989L356.0727,303.3262
            L369.9818,293.3388L383.8909,283.9000L397.8000,275.0580L411.7091,266.8450L425.6182,259.2773L439.5273,252.3561L453.4364,246.0699L467.3455,240.3961L481.2545,235.3039L495.1636,230.7564
            L509.0727,226.7131L522.9818,223.1315L536.8909,219.9690L550.8000,217.1840"/>
   <path d="M91.8000,498.8249L105.7091,490.3071L119.6182,481.4877L133.5273,472.3728L147.4364,462.9720L161.3455,453.2988L175.2545,443.3710L189.1636,433.2115L203.0727,422.8485L216.9818,412.3157
            L230.8909,401.6524L244.8000,390.9031L258.7091,380.1170L272.6182,369.3468L286.5273,358.6478L300.4364,348.0758L314.3455,337.6859L328.2545,327.5301L342.1636,317.6564L356.0727,308.1064
            L369.9818,298.9150L383.8909,290.1093L397.8000,281.7085L411.7091,273.7238L425.6182,266.1592L439.5273,259.0122L453.4364,252.2746L467.3455,245.9336L481.2545,239.9730L495.1636,234.3741
            L509.0727,229.1165L522.9818,224.1790L536.8909,219.5402L550.8000,215.1789"/>
   <path d="M91.8000,499.1254L105.7091,489.9244L119.6182,480.5830L133.5273,471.0969L147.4364,461.4641L161.3455,451.6858L175.2545,441.7668L189.1636,431.7161L203.0727,421.5471L216.9818,411.2779
            L230.8909,400.9320L244.8000,390.5374L258.7091,380.1266L272.6182,369.7363L286.5273,359.4059L300.4364,349.1769L314.3455,339.0912L328.2545,329.1902L342.1636,319.5131L356.0727,310.0958
            L369.9818,300.9698L383.8909,292.1616L397.8000,283.6917L411.7091,275.5750L425.6182,267.8205L439.5273,260.4317L453.4364,253.4070L467.3455,246.7405L481.2545,240.4227L495.1636,234.4410
            L509.0727,228.7807L522.9818,223.4255L536.8909,218.3580L550.8000,213.5605"/>
   <path d="M91.8000,495.4893L105.7091,487.4910L119.6182,479.1236L133.5273,470.3909L147.4364,461.3017L161.3455,451.8704L175.2545,442.1176L189.1636,432.0711L203.0727,421.7653L216.9818,411.2422
            L230.8909,400.5502L244.8000,389.7444L258.7091,378.8845L272.6182,368.0339L286.5273,357.2578L300.4364,346.6212L314.3455,336.1869L328.2545,326.0133L342.1636,316.1530L356.0727,306.6513
            L369.9818,297.5456L383.8909,288.8643L397.8000,280.6277L411.7091,272.8476L425.6182,265.5285L439.5273,258.6683L453.4364,252.2594L467.3455,246.2896L481.2545,240.7433L495.1636,235.6021
            L509.0727,230.8461L522.9818,226.4541L536.8909,222.4045L550.8000,218.6757"/>
   <path d="M91.8000,493.4582L105.7091,485.5111L119.6182,477.2132L133.5273,468.5684L147.4364,459.5846L161.3455,450.2741L175.2545,440.6545L189.1636,430.7485L203.0727,420.5842L216.9818,410.1957
            L230.8909,399.6222L244.8000,388.9082L258.7091,378.1028L272.6182,367.2585L286.5273,356.4308L300.4364,345.6761L314.3455,335.0515L328.2545,324.6122L342.1636,314.4111L356.0727,304.4971
            L369.9818,294.9139L383.8909,285.6997L397.8000,276.8860L411.7091,268.4977L425.6182,260.5530L439.5273,253.0635L453.4364,246.0345L467.3455,239.4658L481.2545,233.3522L495.1636,227.6841
            L509.0727,222.4484L522.9818,217.6292L536.8909,213.2083L550.8000,209.1659"/>
   <path d="M91.8000,498.1018L105.7091,489.3474L119.6182,480.3337L133.5273,471.0685L147.4364,461.5623L161.3455,451.8282L175.2545,441.8827L189.1636,431.7458L203.0727,421.4417L216.9818,410.9987
            L230.8909,400.4495L244.8000,389.8311L258.7091,379.1844L272.6182,368.5534L286.5273,357.9849L300.4364,347.5266L314.3455,337.2264L328.2545,327.1306L342.1636,317.2828L356.0727,307.7221
            L369.9818,298.4824L383.8909,289.5914L397.8000,281.0701L411.7091,272.9327L425.6182,265.1869L439.5273,257.8340L453.4364,250.8703L467.3455,244.2873L481.2545,238.0726L495.1636,232.2113
            L509.0727,226.6864L522.9818,221.4795L536.8909,216.5719L550.8000,211.9444"/>
   <path d="M91.8000,481.8725L105.7091,475.0735L119.6182,467.9782L133.5273,460.5805L147.4364,452.8761L161.3455,444.8629L175.2545,436.5416L189.1636,427.9160L203.0727,418.9938L216.9818,409.7867
            L230.8909,400.3108L244.8000,390.5871L258.7091,380.6413L272.6182,370.5037L286.5273,360.2089L300.4364,349.7952L314.3455,339.3034L328.2545,328.7761L342.1636,318.2562L356.0727,307.7858
            L369.9818,297.4046L383.8909,287.1492L397.8000,277.0518L411.7091,267.1396L425.6182,257.4346L439.5273,247.9533L453.4364,238.7073L467.3455,229.7033L481.2545,220.9438L495.1636,212.4279
            L509.0727,204.1520L522.9818,196.1105L536.8909,188.2964L550.8000,180.7017"/>
   <path d="M91.8000,498.9249L105.7091,490.1410L119.6182,481.1212L133.5273,471.8722L147.4364,462.4027L161.3455,452.7240L175.2545,442.8503L189.1636,432.7992L203.0727,422.5923L216.9818,412.2552
            L230.8909,401.8178L244.8000,391.3143L258.7091,380.7827L272.6182,370.2645L286.5273,359.8038L300.4364,349.4458L314.3455,339.2362L328.2545,329.2190L342.1636,319.4358L356.0727,309.9241
            L369.9818,300.7160L383.8909,291.8381L397.8000,283.3102L411.7091,275.1458L425.6182,267.3520L439.5273,259.9302L453.4364,252.8766L467.3455,246.1829L481.2545,239.8376L495.1636,233.8264
            L509.0727,228.1333L522.9818,222.7408L536.8909,217.6315L550.8000,212.7874"/>
   <path d="M91.8000,494.7995L105.7091,486.8065L119.6182,478.4835L133.5273,469.8330L147.4364,460.8606L161.3455,451.5756L175.2545,441.9916L189.1636,432.1271L203.0727,422.0054L216.9818,411.6553
            L230.8909,401.1110L244.8000,390.4122L258.7091,379.6035L272.6182,368.7340L286.5273,357.8566L300.4364,347.0262L314.3455,336.2992L328.2545,325.7312L342.1636,315.3756L356.0727,305.2822
            L369.9818,295.4955L383.8909,286.0539L397.8000,276.9885L411.7091,268.3227L425.6182,260.0726L439.5273,252.2465L453.4364,244.8463L467.3455,237.8677L481.2545,231.3014L495.1636,225.1339
            L509.0727,219.3488L522.9818,213.9272L536.8909,208.8489L550.8000,204.0932"/>
   <path d="M91.8000,495.0279L105.7091,486.4646L119.6182,477.6608L133.5273,468.6206L147.4364,459.3498L161.3455,449.8562L175.2545,440.1502L189.1636,430.2450L203.0727,420.1569L216.9818,409.9064
            L230.8909,399.5175L244.8000,389.0186L258.7091,378.4424L272.6182,367.8255L286.5273,357.2079L300.4364,346.6326L314.3455,336.1443L328.2545,325.7884L342.1636,315.6097L356.0727,305.6508
            L369.9818,295.9512L383.8909,286.5455L397.8000,277.4632L411.7091,268.7273L425.6182,260.3546L439.5273,252.3556L453.4364,244.7344L467.3455,237.4898L481.2545,230.6156L495.1636,224.1017
            L509.0727,217.9348L522.9818,212.0992L536.8909,206.5778L550.8000,201.3523"/>
   <path d="M91.8000,496.9398L105.7091,488.8129L119.6182,480.3233L133.5273,471.4754L147.4364,462.2782L161.3455,452.7460L175.2545,442.8992L189.1636,432.7644L203.0727,422.3751L216.9818,411.7718
            L230.8909,401.0014L244.8000,390.1171L258.7091,379.1773L272.6182,368.2441L286.5273,357.3820L300.4364,346.6557L314.3455,336.1284L328.2545,325.8595L342.1636,315.9032L356.0727,306.3066
            L369.9818,297.1090L383.8909,288.3413L397.8000,280.0254L411.7091,272.1751L425.6182,264.7962L439.5273,257.8877L453.4364,251.4423L467.3455,245.4481L481.2545,239.8892L495.1636,234.7469
            L509.0727,230.0003L522.9818,225.6273L536.8909,221.6053L550.8000,217.9115"/>
   <path d="M91.8000,500.5153L105.7091,491.7099L119.6182,482.6615L133.5273,473.3757L147.4364,463.8602L161.3455,454.1254L175.2545,444.1848L189.1636,434.0558L203.0727,423.7600L216.9818,413.3237
            L230.8909,402.7781L244.8000,392.1593L258.7091,381.5081L272.6182,370.8690L286.5273,360.2896L300.4364,349.8193L314.3455,339.5076L328.2545,329.4023L342.1636,319.5486L356.0727,309.9867
            L369.9818,300.7512L383.8909,291.8701L397.8000,283.3641L411.7091,275.2469L425.6182,267.5251L439.5273,260.1992L453.4364,253.2639L467.3455,246.7095L481.2545,240.5226L495.1636,234.6870
            L509.0727,229.1847L522.9818,223.9968L536.8909,219.1037L550.8000,214.4860"/>
   <path d="M91.8000,490.6319L105.7091,483.4612L119.6182,475.8962L133.5273,467.9256L147.4364,459.5414L161.3455,450.7400L175.2545,441.5236L189.1636,431.9010L203.0727,421.8889L216.9818,411.5135
            L230.8909,400.8109L244.8000,389.8282L258.7091,378.6237L272.6182,367.2661L286.5273,355.8338L300.4364,344.4128L314.3455,333.0940L328.2545,321.9699L342.1636,311.1311L356.0727,300.6624
            L369.9818,290.6396L383.8909,281.1263L397.8000,272.1725L411.7091,263.8132L425.6182,256.0686L439.5273,248.9451L453.4364,242.4364L467.3455,236.5258L481.2545,231.1884L495.1636,226.3927
            L509.0727,222.1034L522.9818,218.2826L536.8909,214.8912L550.8000,211.8905"/>
   <path d="M91.8000,496.1954L105.7091,488.2365L119.6182,479.9107L133.5273,471.2195L147.4364,462.1690L161.3455,452.7702L175.2545,443.0404L189.1636,433.0028L203.0727,422.6880L216.9818,412.1331
            L230.8909,401.3826L244.8000,390.4873L258.7091,379.5041L272.6182,368.4943L286.5273,357.5227L300.4364,346.6556L314.3455,335.9586L328.2545,325.4952L342.1636,315.3243L356.0727,305.4990
            L369.9818,296.0651L383.8909,287.0601L397.8000,278.5125L411.7091,270.4425L425.6182,262.8614L439.5273,255.7730L453.4364,249.1738L467.3455,243.0545L481.2545,237.4010L495.1636,232.1952
            L509.0727,227.4159L522.9818,223.0403L536.8909,219.0440L550.8000,215.4021"/>
   <path d="M91.8000,495.8992L105.7091,487.6859L119.6182,479.1429L133.5273,470.2753L147.4364,461.0921L161.3455,451.6064L175.2545,441.8360L189.1636,431.8038L203.0727,421.5382L216.9818,411.0731
            L230.8909,400.4483L244.8000,389.7087L258.7091,378.9039L272.6182,368.0875L286.5273,357.3156L300.4364,346.6453L314.3455,336.1335L328.2545,325.8349L342.1636,315.8004L356.0727,306.0759
            L369.9818,296.7010L383.8909,287.7083L397.8000,279.1230L411.7091,270.9627L425.6182,263.2379L439.5273,255.9523L453.4364,249.1036L467.3455,242.6848L481.2545,236.6843L495.1636,231.0875
            L509.0727,225.8771L522.9818,221.0343L536.8909,216.5393L550.8000,212.3716"/>
   <path d="M91.8000,484.9861L105.7091,477.6248L119.6182,469.9675L133.5273,462.0115L147.4364,453.7565L161.3455,445.2040L175.2545,436.3586L189.1636,427.2275L203.0727,417.8218L216.9818,408.1562
            L230.8909,398.2499L244.8000,388.1263L258.7091,377.8136L272.6182,367.3448L286.5273,356.7570L300.4364,346.0916L314.3455,335.3932L328.2545,324.7089L342.1636,314.0870L356.0727,303.5760
            L369.9818,293.2234L383.8909,283.0738L397.8000,273.1684L411.7091,263.5437L425.6182,254.2306L439.5273,245.2543L453.4364,236.6338L467.3455,228.3821L481.2545,220.5065L495.1636,213.0094
            L509.0727,205.8885L522.9818,199.1377L536.8909,192.7481L550.8000,186.7081"/>
   <path d="M91.8000,498.2823L105.7091,489.0237L119.6182,479.6272L133.5273,470.0911L147.4364,460.4160L161.3455,450.6046L175.2545,440.6632L189.1636,430.6013L203.0727,420.4328L216.9818,410.1756
            L230.8909,399.8527L244.8000,389.4913L258.7091,379.1231L272.6182,368.7834L286.5273,358.5106L300.4364,348.3446L314.3455,338.3260L328.2545,328.4943L342.1636,318.8868L356.0727,309.5369
            L369.9818,300.4733L383.8909,291.7191L397.8000,283.2913L411.7091,275.2007L425.6182,267.4520L439.5273,260.0444L453.4364,252.9724L467.3455,246.2261L481.2545,239.7928L495.1636,233.6569
            L509.0727,227.8017L522.9818,222.2093L536.8909,216.8614L550.8000,211.7400"/>
   <path d="M91.8000,496.8280L105.7091,488.6833L119.6182,480.1891L133.5273,471.3495L147.4364,462.1732L161.3455,452.6734L175.2545,442.8687L189.1636,432.7834L203.0727,422.4478L216.9818,411.8986
            L230.8909,401.1784L244.8000,390.3356L258.7091,379.4236L272.6182,368.4997L286.5273,357.6241L300.4364,346.8580L314.3455,336.2622L328.2545,325.8950L342.1636,315.8108L356.0727,306.0583
            L369.9818,296.6796L383.8909,287.7091L397.8000,279.1734L411.7091,271.0906L425.6182,263.4713L439.5273,256.3190L453.4364,249.6306L467.3455,243.3976L481.2545,237.6072L495.1636,232.2427
            L509.0727,227.2853L522.9818,222.7140L536.8909,218.5067L550.8000,214.6411"/>
   <path d="M91.8000,490.0629L105.7091,482.5791L119.6182,474.7856L133.5273,466.6798L147.4364,458.2615L161.3455,449.5330L175.2545,440.4999L189.1636,431.1717L203.0727,421.5619L216.9818,411.6890
            L230.8909,401.5769L244.8000,391.2547L258.7091,380.7572L272.6182,370.1246L286.5273,359.4021L300.4364,348.6389L314.3455,337.8874L328.2545,327.2016L342.1636,316.6354L356.0727,306.2416
            L369.9818,296.0693L383.8909,286.1636L397.8000,276.5633L411.7091,267.3009L425.6182,258.4017L439.5273,249.8839L453.4364,241.7588L467.3455,234.0312L481.2545,226.7004L495.1636,219.7609
            L509.0727,213.2031L522.9818,207.0147L536.8909,201.1809L550.8000,195.6855"/>
   <path d="M91.8000,487.7066L105.7091,479.9422L119.6182,471.9072L133.5273,463.6005L147.4364,455.0233L161.3455,446.1792L175.2545,437.0748L189.1636,427.7202L203.0727,418.1293L216.9818,408.3207
            L230.8909,398.3171L244.8000,388.1465L258.7091,377.8413L272.6182,367.4384L286.5273,356.9783L300.4364,346.5044L314.3455,336.0620L328.2545,325.6967L342.1636,315.4530L356.0727,305.3730
            L369.9818,295.4949L383.8909,285.8520L397.8000,276.4718L411.7091,267.3755L425.6182,258.5779L439.5273,250.0876L453.4364,241.9072L467.3455,234.0344L481.2545,226.4625L495.1636,219.1814
            L509.0727,212.1781L522.9818,205.4380L536.8909,198.9454L550.8000,192.6839"/>
   <path d="M91.8000,497.2153L105.7091,489.7112L119.6182,481.8077L133.5273,473.4980L147.4364,464.7798L161.3455,455.6559L175.2545,446.1360L189.1636,436.2369L203.0727,425.9841L216.9818,415.4120
            L230.8909,404.5650L244.8000,393.4969L258.7091,382.2709L272.6182,370.9586L286.5273,359.6381L300.4364,348.3921L314.3455,337.3050L328.2545,326.4605L342.1636,315.9382L356.0727,305.8108
            L369.9818,296.1419L383.8909,286.9837L397.8000,278.3762L411.7091,270.3465L425.6182,262.9089L439.5273,256.0660L453.4364,249.8098L467.3455,244.1235L481.2545,238.9830L495.1636,234.3587
            L509.0727,230.2175L522.9818,226.5239L536.8909,223.2414L550.8000,220.3338"/>
   <path d="M91.8000,492.0077L105.7091,484.0883L119.6182,475.8516L133.5273,467.3013L147.4364,458.4438L161.3455,449.2889L175.2545,439.8503L189.1636,430.1454L203.0727,420.1959L216.9818,410.0279
            L230.8909,399.6721L244.8000,389.1636L258.7091,378.5415L272.6182,367.8489L286.5273,357.1319L300.4364,346.4388L314.3455,335.8194L328.2545,325.3237L342.1636,315.0010L356.0727,304.8982
            L369.9818,295.0595L383.8909,285.5247L397.8000,276.3289L411.7091,267.5016L425.6182,259.0667L439.5273,251.0420L453.4364,243.4396L467.3455,236.2659L481.2545,229.5222L495.1636,223.2053
            L509.0727,217.3080L522.9818,211.8195L536.8909,206.7266L550.8000,202.0137"/>
   <path d="M91.8000,493.2687L105.7091,484.1288L119.6182,474.8327L133.5273,465.3797L147.4364,455.7709L161.3455,446.0105L175.2545,436.1060L189.1636,426.0687L203.0727,415.9142L216.9818,405.6627
            L230.8909,395.3391L244.8000,384.9731L258.7091,374.5985L272.6182,364.2527L286.5273,353.9758L300.4364,343.8093L314.3455,333.7946L328.2545,323.9718L342.1636,314.3781L356.0727,305.0465
            L369.9818,296.0045L383.8909,287.2741L397.8000,278.8705L411.7091,270.8029L425.6182,263.0744L439.5273,255.6825L453.4364,248.6201L467.3455,241.8763L481.2545,235.4372L495.1636,229.2866
            L509.0727,223.4070L522.9818,217.7803L536.8909,212.3882L550.8000,207.2127"/>
   <path d="M91.8000,497.4650L105.7091,488.2638L119.6182,478.9325L133.5273,469.4637L147.4364,459.8523L161.3455,450.0961L175.2545,440.1962L189.1636,430.1579L203.0727,419.9910L216.9818,409.7106
            L230.8909,399.3374L244.8000,388.8975L258.7091,378.4225L272.6182,367.9489L286.5273,357.5173L300.4364,347.1712L314.3455,336.9553L328.2545,326.9143L342.1636,317.0908L356.0727,307.5242
            L369.9818,298.2486L383.8909,289.2924L397.8000,280.6776L411.7091,272.4188L425.6182,264.5243L439.5273,256.9959L453.4364,249.8295L467.3455,243.0166L481.2545,236.5444L495.1636,230.3974
            L509.0727,224.5580L522.9818,219.0071L536.8909,213.7252L550.8000,208.6927"/>
   <path d="M91.8000,496.4945L105.7091,488.5230L119.6182,480.2405L133.5273,471.6488L147.4364,462.7524L161.3455,453.5590L175.2545,444.0800L189.1636,434.3311L203.0727,424.3328L216.9818,414.1107
            L230.8909,403.6959L244.8000,393.1253L258.7091,382.4409L272.6182,371.6898L286.5273,360.9234L300.4364,350.1960L314.3455,339.5634L328.2545,329.0815L342.1636,318.8044L356.0727,308.7827
            L369.9818,299.0621L383.8909,289.6819L397.8000,280.6742L411.7091,272.0635L425.6182,263.8668L439.5273,256.0933L453.4364,248.7457L467.3455,241.8205L481.2545,235.3094L495.1636,229.1999
            L509.0727,223.4764L522.9818,218.1211L536.8909,213.1149L550.8000,208.4379"/>
   <path d="M91.8000,496.2197L105.7091,487.9507L119.6182,479.3576L133.5273,470.4465L147.4364,461.2273L161.3455,451.7140L175.2545,441.9251L189.1636,431.8843L203.0727,421.6204L216.9818,411.1677
            L230.8909,400.5658L244.8000,389.8592L258.7091,379.0969L272.6182,368.3314L286.5273,357.6175L300.4364,347.0110L314.3455,336.5671L328.2545,326.3388L342.1636,316.3753L356.0727,306.7207
            L369.9818,297.4129L383.8909,288.4828L397.8000,279.9539L411.7091,271.8425L425.6182,264.1575L439.5273,256.9016L453.4364,250.0718L467.3455,243.6602L481.2545,237.6550L495.1636,232.0414
            L509.0727,226.8023L522.9818,221.9193L536.8909,217.3732L550.8000,213.1442"/>
   <path d="M91.8000,496.8161L105.7091,487.4804L119.6182,478.0222L133.5273,468.4372L147.4364,458.7236L161.3455,448.8825L175.2545,438.9184L189.1636,428.8399L203.0727,418.6599L216.9818,408.3960
            L230.8909,398.0711L244.8000,387.7125L258.7091,377.3525L272.6182,367.0269L286.5273,356.7747L300.4364,346.6366L314.3455,336.6537L328.2545,326.8658L342.1636,317.3102L356.0727,308.0201
            L369.9818,299.0237L383.8909,290.3432L397.8000,281.9946L411.7091,273.9875L425.6182,266.3253L439.5273,259.0061L453.4364,252.0229L467.3455,245.3649L481.2545,239.0182L495.1636,232.9665
            L509.0727,227.1923L522.9818,221.6770L536.8909,216.4021L550.8000,211.3490"/>
   <path d="M91.8000,487.3127L105.7091,479.2828L119.6182,470.9905L133.5273,462.4356L147.4364,453.6199L161.3455,444.5479L175.2545,435.2269L189.1636,425.6681L203.0727,415.8864L216.9818,405.9016
            L230.8909,395.7379L244.8000,385.4247L258.7091,374.9959L272.6182,364.4900L286.5273,353.9493L300.4364,343.4190L314.3455,332.9462L328.2545,322.5785L342.1636,312.3625L356.0727,302.3428
            L369.9818,292.5607L383.8909,283.0525L397.8000,273.8495L411.7091,264.9770L425.6182,256.4541L439.5273,248.2937L453.4364,240.5029L467.3455,233.0835L481.2545,226.0325L495.1636,219.3428
            L509.0727,213.0042L522.9818,207.0037L536.8909,201.3267L550.8000,195.9570"/>
   <path d="M91.8000,496.7703L105.7091,488.2895L119.6182,479.5133L133.5273,470.4493L147.4364,461.1082L161.3455,451.5042L175.2545,441.6551L189.1636,431.5834L203.0727,421.3156L216.9818,410.8834
            L230.8909,400.3228L244.8000,389.6744L258.7091,378.9830L272.6182,368.2967L286.5273,357.6657L300.4364,347.1415L314.3455,336.7752L328.2545,326.6164L342.1636,316.7109L356.0727,307.1005
            L369.9818,297.8209L383.8909,288.9015L397.8000,280.3649L411.7091,272.2267L425.6182,264.4955L439.5273,257.1742L453.4364,250.2598L467.3455,243.7450L481.2545,237.6184L495.1636,231.8658
            L509.0727,226.4712L522.9818,221.4167L536.8909,216.6840L550.8000,212.2546"/>
   <path d="M91.8000,498.0359L105.7091,489.2550L119.6182,480.2449L133.5273,471.0101L147.4364,461.5569L161.3455,451.8943L175.2545,442.0342L189.1636,431.9917L203.0727,421.7860L216.9818,411.4405
            L230.8909,400.9828L244.8000,390.4452L258.7091,379.8640L272.6182,369.2793L286.5273,358.7340L300.4364,348.2732L314.3455,337.9428L328.2545,327.7880L342.1636,317.8524L356.0727,308.1766
            L369.9818,298.7968L383.8909,289.7442L397.8000,281.0441L411.7091,272.7158L425.6182,264.7725L439.5273,257.2212L453.4364,250.0635L467.3455,243.2961L481.2545,236.9113L495.1636,230.8978
            L509.0727,225.2418L522.9818,219.9273L536.8909,214.9366L550.8000,210.2516"/>
   <path d="M91.8000,485.9523L105.7091,477.9759L119.6182,469.7777L133.5273,461.3566L147.4364,452.7124L161.3455,443.8461L175.2545,434.7604L189.1636,425.4596L203.0727,415.9508L216.9818,406.2435
            L230.8909,396.3505L244.8000,386.2880L258.7091,376.0755L272.6182,365.7369L286.5273,355.2992L300.4364,344.7936L314.3455,334.2542L328.2545,323.7181L342.1636,313.2243L356.0727,302.8133
            L369.9818,292.5259L383.8909,282.4023L397.8000,272.4811L411.7091,262.7985L425.6182,253.3873L439.5273,244.2763L453.4364,235.4900L467.3455,227.0478L481.2545,218.9645L495.1636,211.2498
            L509.0727,203.9090L522.9818,196.9431L536.8909,190.3492L550.8000,184.1211"/>
   <path d="M91.8000,490.2921L105.7091,482.4244L119.6182,474.2664L133.5273,465.8202L147.4364,457.0902L161.3455,448.0836L175.2545,438.8107L189.1636,429.2851L203.0727,419.5243L216.9818,409.5500
            L230.8909,399.3882L244.8000,389.0693L258.7091,378.6282L272.6182,368.1038L286.5273,357.5387L300.4364,346.9783L314.3455,336.4699L328.2545,326.0617L342.1636,315.8013L356.0727,305.7345
            L369.9818,295.9039L383.8909,286.3480L397.8000,277.1002L411.7091,268.1878L425.6182,259.6322L439.5273,251.4484L453.4364,243.6455L467.3455,236.2271L481.2545,229.1918L495.1636,222.5339
            L509.0727,216.2443L522.9818,210.3111L536.8909,204.7206L550.8000,199.4574"/>
   <path d="M91.8000,495.1782L105.7091,486.8652L119.6182,478.2631L133.5273,469.3752L147.4364,460.2069L161.3455,450.7663L175.2545,441.0647L189.1636,431.1166L203.0727,420.9412L216.9818,410.5618
            L230.8909,400.0070L244.8000,389.3104L258.7091,378.5108L272.6182,367.6519L286.5273,356.7817L300.4364,345.9514L314.3455,335.2146L328.2545,324.6252L342.1636,314.2362L356.0727,304.0980
            L369.9818,294.2566L383.8909,284.7524L397.8000,275.6190L411.7091,266.8830L425.6182,258.5631L439.5273,250.6705L453.4364,243.2096L467.3455,236.1784L481.2545,229.5693L495.1636,223.3704
            L509.0727,217.5662L522.9818,212.1386L536.8909,207.0678L550.8000,202.3331"/>
   <path d="M91.8000,492.9680L105.7091,484.0260L119.6182,474.9008L133.5273,465.5955L147.4364,456.1151L161.3455,446.4673L175.2545,436.6629L189.1636,426.7158L203.0727,416.6437L216.9818,406.4682
            L230.8909,396.2144L244.8000,385.9113L258.7091,375.5912L272.6182,365.2894L286.5273,355.0429L300.4364,344.8906L314.3455,334.8713L328.2545,325.0234L342.1636,315.3836L356.0727,305.9861
            L369.9818,296.8615L383.8909,288.0365L397.8000,279.5333L411.7091,271.3692L425.6182,263.5565L439.5273,256.1031L453.4364,249.0122L467.3455,242.2827L481.2545,235.9102L495.1636,229.8870
            L509.0727,224.2030L522.9818,218.8459L536.8909,213.8021L550.8000,209.0567"/>
   <path d="M91.8000,495.6447L105.7091,487.4650L119.6182,478.9498L133.5273,470.1044L147.4364,460.9382L161.3455,451.4652L175.2545,441.7042L189.1636,431.6793L203.0727,421.4201L216.9818,410.9621
            L230.8909,400.3461L244.8000,389.6183L258.7091,378.8294L272.6182,368.0337L286.5273,357.2882L300.4364,346.6504L314.3455,336.1776L328.2545,325.9244L342.1636,315.9419L356.0727,306.2756
            L369.9818,296.9647L383.8909,288.0412L397.8000,279.5296L411.7091,271.4466L425.6182,263.8018L439.5273,256.5979L453.4364,249.8319L467.3455,243.4957L481.2545,237.5770L495.1636,232.0606
            L509.0727,226.9286L522.9818,222.1619L536.8909,217.7403L550.8000,213.6432"/>
   <path d="M91.8000,495.2201L105.7091,486.8439L119.6182,478.2073L133.5273,469.3159L147.4364,460.1768L161.3455,450.7997L175.2545,441.1969L189.1636,431.3835L203.0727,421.3779L216.9818,411.2024
            L230.8909,400.8828L244.8000,390.4492L258.7091,379.9354L272.6182,369.3791L286.5273,358.8211L300.4364,348.3048L314.3455,337.8750L328.2545,327.5773L342.1636,317.4562L356.0727,307.5543
            L369.9818,297.9110L383.8909,288.5611L397.8000,279.5342L411.7091,270.8543L425.6182,262.5388L439.5273,254.5993L453.4364,247.0416L467.3455,239.8658L481.2545,233.0675L495.1636,226.6385
            L509.0727,220.5672L522.9818,214.8395L536.8909,209.4398L550.8000,204.3514"/>
   <path d="M91.8000,498.4232L105.7091,489.6568L119.6182,480.6905L133.5273,471.5270L147.4364,462.1692L161.3455,452.6212L175.2545,442.8879L189.1636,432.9761L203.0727,422.8945L216.9818,412.6548
            L230.8909,402.2713L244.8000,391.7624L258.7091,381.1501L272.6182,370.4608L286.5273,359.7250L300.4364,348.9774L314.3455,338.2564L328.2545,327.6033L342.1636,317.0614L356.0727,306.6749
            L369.9818,296.4873L383.8909,286.5405L397.8000,276.8727L411.7091,267.5179L425.6182,258.5047L439.5273,249.8554L453.4364,241.5860L467.3455,233.7060L481.2545,226.2188L495.1636,219.1224
            L509.0727,212.4098L522.9818,206.0700L536.8909,200.0888L550.8000,194.4497"/>
   <path d="M91.8000,495.6003L105.7091,487.5950L119.6182,479.2319L133.5273,470.5140L147.4364,461.4487L161.3455,452.0486L175.2545,442.3318L189.1636,432.3229L203.0727,422.0530L216.9818,411.5600
            L230.8909,400.8884L244.8000,390.0890L258.7091,379.2178L272.6182,368.3351L286.5273,357.5037L300.4364,346.7872L314.3455,336.2481L328.2545,325.9458L342.1636,315.9346L356.0727,306.2627
            L369.9818,296.9705L383.8909,288.0903L397.8000,279.6462L411.7091,271.6535L425.6182,264.1203L439.5273,257.0475L453.4364,250.4299L467.3455,244.2574L481.2545,238.5160L495.1636,233.1884
            L509.0727,228.2555L522.9818,223.6964L536.8909,219.4898L550.8000,215.6138"/>
   <path d="M91.8000,499.5504L105.7091,490.9080L119.6182,482.0045L133.5273,472.8455L147.4364,463.4388L161.3455,453.7950L175.2545,443.9281L189.1636,433.8554L203.0727,423.5989L216.9818,413.1849
            L230.8909,402.6450L244.8000,392.0154L258.7091,381.3371L272.6182,370.6554L286.5273,360.0187L300.4364,349.4777L314.3455,339.0836L328.2545,328.8870L342.1636,318.9355L356.0727,309.2730
            L369.9818,299.9375L383.8909,290.9609L397.8000,282.3676L411.7091,274.1747L425.6182,266.3920L439.5273,259.0224L453.4364,252.0628L467.3455,245.5048L481.2545,239.3357L495.1636,233.5395
            L509.0727,228.0982L522.9818,222.9917L536.8909,218.1997L550.8000,213.7013"/>
   <path d="M91.8000,493.6926L105.7091,484.8087L119.6182,475.6844L133.5273,466.3272L147.4364,456.7476L161.3455,446.9599L175.2545,436.9824L189.1636,426.8385L203.0727,416.5561L216.9818,406.1683
            L230.8909,395.7127L244.8000,385.2314L258.7091,374.7693L272.6182,364.3741L286.5273,354.0939L300.4364,343.9765L314.3455,334.0674L328.2545,324.4086L342.1636,315.0375L356.0727,305.9855
            L369.9818,297.2780L383.8909,288.9335L397.8000,280.9640L411.7091,273.3753L425.6182,266.1673L439.5273,259.3352L453.4364,252.8698L467.3455,246.7586L481.2545,240.9868L495.1636,235.5375
            L509.0727,230.3929L522.9818,225.5345L536.8909,220.9440L550.8000,216.6031"/>
   <path d="M91.8000,495.7440L105.7091,487.2225L119.6182,478.4157L133.5273,469.3307L147.4364,459.9776L161.3455,450.3698L175.2545,440.5249L189.1636,430.4646L203.0727,420.2156L216.9818,409.8089
            L230.8909,399.2806L244.8000,388.6715L258.7091,378.0261L272.6182,367.3926L286.5273,356.8210L300.4364,346.3625L314.3455,336.0674L328.2545,325.9843L342.1636,316.1578L356.0727,306.6275
            L369.9818,297.4272L383.8909,288.5838L397.8000,280.1168L411.7091,272.0388L425.6182,264.3556L439.5273,257.0666L453.4364,250.1661L467.3455,243.6437L481.2545,237.4855L495.1636,231.6752
            L509.0727,226.1945L522.9818,221.0243L536.8909,216.1449L550.8000,211.5369"/>
   <path d="M91.8000,501.3633L105.7091,493.1352L119.6182,484.5645L133.5273,475.6557L147.4364,466.4166L161.3455,456.8594L175.2545,447.0009L189.1636,436.8630L203.0727,426.4731L216.9818,415.8640
            L230.8909,405.0745L244.8000,394.1487L258.7091,383.1357L272.6182,372.0891L286.5273,361.0655L300.4364,350.1236L314.3455,339.3224L328.2545,328.7197L342.1636,318.3701L356.0727,308.3238
            L369.9818,298.6249L383.8909,289.3107L397.8000,280.4105L411.7091,271.9457L425.6182,263.9301L439.5273,256.3698L453.4364,249.2641L467.3455,242.6069L481.2545,236.3867L495.1636,230.5886
            L509.0727,225.1945L522.9818,220.1845L536.8909,215.5373L550.8000,211.2312"/>
   <path d="M91.8000,494.9686L105.7091,487.1005L119.6182,478.8811L133.5273,470.3113L147.4364,461.3962L161.3455,452.1446L175.2545,442.5704L189.1636,432.6925L203.0727,422.5355L216.9818,412.1299
            L230.8909,401.5120L244.8000,390.7243L258.7091,379.8145L272.6182,368.8351L286.5273,357.8427L300.4364,346.8964L314.3455,336.0562L328.2545,325.3819L342.1636,314.9309L356.0727,304.7569
            L369.9818,294.9081L383.8909,285.4263L397.8000,276.3460L411.7091,267.6937L425.6182,259.4880L439.5273,251.7399L453.4364,244.4533L467.3455,237.6256L481.2545,231.2489L495.1636,225.3107
            L509.0727,219.7950L522.9818,214.6831L536.8909,209.9545L550.8000,205.5877"/>
   <path d="M91.8000,495.3265L105.7091,488.3127L119.6182,480.8698L133.5273,472.9820L147.4364,464.6371L161.3455,455.8280L175.2545,446.5538L189.1636,436.8222L203.0727,426.6507L216.9818,416.0683
            L230.8909,405.1175L244.8000,393.8548L258.7091,382.3511L272.6182,370.6915L286.5273,358.9728L300.4364,347.3007L314.3455,335.7858L328.2545,324.5381L342.1636,313.6621L356.0727,303.2516
            L369.9818,293.3852L383.8909,284.1238L397.8000,275.5091L411.7091,267.5639L425.6182,260.2933L439.5273,253.6874L453.4364,247.7237L467.3455,242.3708L481.2545,237.5902L495.1636,233.3400
            L509.0727,229.5760L522.9818,226.2541L536.8909,223.3311L550.8000,220.7657"/>
   <path d="M91.8000,492.1507L105.7091,483.9056L119.6182,475.3866L133.5273,466.5984L147.4364,457.5474L161.3455,448.2425L175.2545,438.6945L189.1636,428.9172L203.0727,418.9271L216.9818,408.7441
            L230.8909,398.3918L244.8000,387.8972L258.7091,377.2914L272.6182,366.6092L286.5273,355.8889L300.4364,345.1722L314.3455,334.5029L328.2545,323.9270L342.1636,313.4906L356.0727,303.2397
            L369.9818,293.2183L383.8909,283.4674L397.8000,274.0239L411.7091,264.9196L425.6182,256.1806L439.5273,247.8268L453.4364,239.8719L467.3455,232.3233L481.2545,225.1831L495.1636,218.4478
            L509.0727,212.1098L522.9818,206.1577L536.8909,200.5773L550.8000,195.3524"/>
   <path d="M91.8000,497.1619L105.7091,488.2569L119.6182,479.1362L133.5273,469.8054L147.4364,460.2717L161.3455,450.5446L175.2545,440.6366L189.1636,430.5631L203.0727,420.3433L216.9818,410.0004
            L230.8909,399.5619L244.8000,389.0594L258.7091,378.5285L272.6182,368.0086L286.5273,357.5415L300.4364,347.1711L314.3455,336.9417L328.2545,326.8968L342.1636,317.0777L356.0727,307.5220
            L369.9818,298.2627L383.8909,289.3269L397.8000,280.7359L411.7091,272.5040L425.6182,264.6397L439.5273,257.1452L453.4364,250.0175L467.3455,243.2488L481.2545,236.8279L495.1636,230.7405
            L509.0727,224.9704L522.9818,219.5001L536.8909,214.3111L550.8000,209.3853"/>
   <path d="M91.8000,490.6806L105.7091,483.7952L119.6182,476.4933L133.5273,468.7631L147.4364,460.5967L161.3455,451.9911L175.2545,442.9489L189.1636,433.4801L203.0727,423.6024L216.9818,413.3428
            L230.8909,402.7378L244.8000,391.8341L258.7091,380.6885L272.6182,369.3669L286.5273,357.9436L300.4364,346.4992L314.3455,335.1186L328.2545,323.8879L342.1636,312.8915L356.0727,302.2094
            L369.9818,291.9143L383.8909,282.0690L397.8000,272.7250L411.7091,263.9214L425.6182,255.6843L439.5273,248.0277L453.4364,240.9537L467.3455,234.4548L481.2545,228.5145L495.1636,223.1098
            L509.0727,218.2125L522.9818,213.7910L536.8909,209.8116L550.8000,206.2399"/>
   <path d="M91.8000,495.2302L105.7091,488.1928L119.6182,480.7040L133.5273,472.7507L147.4364,464.3246L161.3455,455.4241L175.2545,446.0552L189.1636,436.2333L203.0727,425.9848L216.9818,415.3480
            L230.8909,404.3739L244.8000,393.1267L258.7091,381.6833L272.6182,370.1315L286.5273,358.5686L300.4364,347.0980L314.3455,335.8250L328.2545,324.8535L342.1636,314.2807L356.0727,304.1935
            L369.9818,294.6645L383.8909,285.7500L397.8000,277.4884L411.7091,269.8999L425.6182,262.9878L439.5273,256.7405L453.4364,251.1338L467.3455,246.1338L481.2545,241.7002L495.1636,237.7881
            L509.0727,234.3511L522.9818,231.3426L536.8909,228.7174L550.8000,226.4326"/>
   <path d="M91.8000,498.3357L105.7091,491.0858L119.6182,483.4002L133.5273,475.2655L147.4364,466.6728L161.3455,457.6188L175.2545,448.1073L189.1636,438.1509L203.0727,427.7725L216.9818,417.0064
            L230.8909,405.8997L244.8000,394.5127L258.7091,382.9184L272.6182,371.2016L286.5273,359.4570L300.4364,347.7854L314.3455,336.2906L328.2545,325.0746L342.1636,314.2331L356.0727,303.8517
            L369.9818,294.0021L383.8909,284.7403L397.8000,276.1051L411.7091,268.1186L425.6182,260.7871L439.5273,254.1030L453.4364,248.0474L467.3455,242.5920L481.2545,237.7023L495.1636,233.3395
            L509.0727,229.4622L522.9818,226.0286L536.8909,222.9973L550.8000,220.3283"/>
   <path d="M91.8000,485.5587L105.7091,478.5859L119.6182,471.2170L133.5273,463.4416L147.4364,455.2533L161.3455,446.6504L175.2545,437.6369L189.1636,428.2239L203.0727,418.4303L216.9818,408.2839
            L230.8909,397.8221L244.8000,387.0921L258.7091,376.1505L272.6182,365.0632L286.5273,353.9033L300.4364,342.7501L314.3455,331.6861L328.2545,320.7946L342.1636,310.1567L356.0727,299.8484
            L369.9818,289.9383L383.8909,280.4854L397.8000,271.5372L411.7091,263.1293L425.6182,255.2852L439.5273,248.0163L453.4364,241.3234L467.3455,235.1973L481.2545,229.6211L495.1636,224.5713
            L509.0727,220.0196L522.9818,215.9343L536.8909,212.2817L550.8000,209.0274"/>
   <path d="M91.8000,483.5297L105.7091,476.8399L119.6182,469.7371L133.5273,462.2094L147.4364,454.2487L161.3455,445.8517L175.2545,437.0208L189.1636,427.7658L203.0727,418.1043L216.9818,408.0630
            L230.8909,397.6784L244.8000,386.9968L258.7091,376.0746L272.6182,364.9776L286.5273,353.7795L300.4364,342.5602L314.3455,331.4036L328.2545,320.3947L342.1636,309.6171L356.0727,299.1495
            L369.9818,289.0638L383.8909,279.4224L397.8000,270.2767L411.7091,261.6663L425.6182,253.6183L439.5273,246.1479L453.4364,239.2594L467.3455,232.9466L481.2545,227.1952L495.1636,221.9837
            L509.0727,217.2854L522.9818,213.0695L536.8909,209.3030L550.8000,205.9514"/>
   <path d="M91.8000,490.9282L105.7091,484.1126L119.6182,476.8810L133.5273,469.2200L147.4364,461.1197L161.3455,452.5748L175.2545,443.5858L189.1636,434.1603L203.0727,424.3141L216.9818,414.0727
            L230.8909,403.4717L244.8000,392.5580L258.7091,381.3899L272.6182,370.0364L286.5273,358.5768L300.4364,347.0985L314.3455,335.6946L328.2545,324.4610L342.1636,313.4926L356.0727,302.8794
            L369.9818,292.7032L383.8909,283.0338L397.8000,273.9273L411.7091,265.4239L425.6182,257.5476L439.5273,250.3074L453.4364,243.6979L467.3455,237.7019L481.2545,232.2926L495.1636,227.4362
            L509.0727,223.0941L522.9818,219.2252L536.8909,215.7873L550.8000,212.7392"/>
   <path d="M91.8000,494.1725L105.7091,486.9243L119.6182,479.2729L133.5273,471.2074L147.4364,462.7204L161.3455,453.8094L175.2545,444.4776L189.1636,434.7357L203.0727,424.6026L216.9818,414.1067
            L230.8909,403.2873L244.8000,392.1945L258.7091,380.8897L272.6182,369.4453L286.5273,357.9429L300.4364,346.4717L314.3455,335.1258L328.2545,324.0002L342.1636,313.1877L356.0727,302.7746
            L369.9818,292.8373L383.8909,283.4394L397.8000,274.6299L411.7091,266.4418L425.6182,258.8925L439.5273,251.9847L453.4364,245.7081L467.3455,240.0418L481.2545,234.9561L495.1636,230.4156
            L509.0727,226.3808L522.9818,222.8102L536.8909,219.6620L550.8000,216.8951"/>
   <path d="M91.8000,483.4886L105.7091,477.3179L119.6182,470.7180L133.5273,463.6669L147.4364,456.1450L161.3455,448.1360L175.2545,439.6288L189.1636,430.6187L203.0727,421.1098L216.9818,411.1168
            L230.8909,400.6673L244.8000,389.8037L258.7091,378.5845L272.6182,367.0854L286.5273,355.3984L300.4364,343.6301L314.3455,331.8980L328.2545,320.3256L342.1636,309.0359L356.0727,298.1451
            L369.9818,287.7559L383.8909,277.9529L397.8000,268.7987L411.7091,260.3334L425.6182,252.5749L439.5273,245.5211L453.4364,239.1540L467.3455,233.4426L481.2545,228.3471L495.1636,223.8223
            L509.0727,219.8202L522.9818,216.2923L536.8909,213.1912L550.8000,210.4716"/>
   <path d="M91.8000,508.5040L105.7091,501.1241L119.6182,493.2937L133.5273,485.0011L147.4364,476.2395L161.3455,467.0080L175.2545,457.3134L189.1636,447.1709L203.0727,436.6061L216.9818,425.6555
            L230.8909,414.3673L244.8000,402.8018L258.7091,391.0301L272.6182,379.1339L286.5273,367.2026L300.4364,355.3310L314.3455,343.6157L328.2545,332.1520L342.1636,321.0298L356.0727,310.3306
            L369.9818,300.1245L383.8909,290.4683L397.8000,281.4045L411.7091,272.9609L425.6182,265.1511L439.5273,257.9756L453.4364,251.4240L467.3455,245.4762L481.2545,240.1049L495.1636,235.2772
            L509.0727,230.9570L522.9818,227.1058L536.8909,223.6847L550.8000,220.6550"/>
   <path d="M91.8000,492.3331L105.7091,484.1199L119.6182,475.6383L133.5273,466.8912L147.4364,457.8839L161.3455,448.6240L175.2545,439.1221L189.1636,429.3924L203.0727,419.4525L216.9818,409.3246
            L230.8909,399.0348L244.8000,388.6141L258.7091,378.0975L272.6182,367.5242L286.5273,356.9369L300.4364,346.3807L314.3455,335.9022L328.2545,325.5484L342.1636,315.3650L356.0727,305.3950
            L369.9818,295.6778L383.8909,286.2477L397.8000,277.1332L411.7091,268.3564L425.6182,259.9332L439.5273,251.8728L453.4364,244.1786L467.3455,236.8488L481.2545,229.8767L495.1636,223.2521
            L509.0727,216.9619L522.9818,210.9907L536.8909,205.3219L550.8000,199.9381"/>
   <path d="M91.8000,496.1703L105.7091,488.0398L119.6182,479.5418L133.5273,470.6795L147.4364,461.4612L161.3455,451.9000L175.2545,442.0149L189.1636,431.8314L203.0727,421.3813L216.9818,410.7036
            L230.8909,399.8438L244.8000,388.8537L258.7091,377.7911L272.6182,366.7179L286.5273,355.6994L300.4364,344.8023L314.3455,334.0927L328.2545,323.6343L342.1636,313.4863L356.0727,303.7020
            L369.9818,294.3270L383.8909,285.3984L397.8000,276.9443L411.7091,268.9837L425.6182,261.5266L439.5273,254.5750L453.4364,248.1237L467.3455,242.1612L481.2545,236.6710L495.1636,231.6328
            L509.0727,227.0234L522.9818,222.8178L536.8909,218.9898L550.8000,215.5128"/>
   <path d="M91.8000,495.8328L105.7091,488.3346L119.6182,480.4284L133.5273,472.1092L147.4364,463.3768L161.3455,454.2366L175.2545,444.7006L189.1636,434.7881L203.0727,424.5270L216.9818,413.9539
            L230.8909,403.1144L244.8000,392.0637L258.7091,380.8651L272.6182,369.5901L286.5273,358.3160L300.4364,347.1242L314.3455,336.0983L328.2545,325.3203L342.1636,314.8689L356.0727,304.8158
            L369.9818,295.2240L383.8909,286.1454L397.8000,277.6196L411.7091,269.6733L425.6182,262.3206L439.5273,255.5633L453.4364,249.3928L467.3455,243.7912L481.2545,238.7330L495.1636,234.1877
            L509.0727,230.1207L522.9818,226.4953L536.8909,223.2741L550.8000,220.4200"/>
   <path d="M91.8000,496.0284L105.7091,488.4717L119.6182,480.5160L133.5273,472.1588L147.4364,463.4029L161.3455,454.2569L175.2545,444.7363L189.1636,434.8644L203.0727,424.6729L216.9818,414.2024
            L230.8909,403.5022L244.8000,392.6302L258.7091,381.6519L272.6182,370.6390L286.5273,359.6671L300.4364,348.8139L314.3455,338.1556L328.2545,327.7651L342.1636,317.7086L356.0727,308.0435
            L369.9818,298.8168L383.8909,290.0637L397.8000,281.8080L411.7091,274.0615L425.6182,266.8257L439.5273,260.0929L453.4364,253.8475L467.3455,248.0683L481.2545,242.7298L495.1636,237.8037
            L509.0727,233.2603L522.9818,229.0696L536.8909,225.2021L550.8000,221.6294"/>
   <path d="M91.8000,485.0366L105.7091,478.1201L119.6182,470.7922L133.5273,463.0434L147.4364,454.8683L161.3455,446.2666L175.2545,437.2444L189.1636,427.8149L203.0727,417.9998L216.9818,407.8299
            L230.8909,397.3453L244.8000,386.5964L258.7091,375.6426L272.6182,364.5519L286.5273,353.3995L300.4364,342.2655L314.3455,331.2328L328.2545,320.3841L342.1636,309.7991L356.0727,299.5519
            L369.9818,289.7086L383.8909,280.3253L397.8000,271.4468L411.7091,263.1061L425.6182,255.3242L439.5273,248.1109L453.4364,241.4656L467.3455,235.3785L481.2545,229.8323L495.1636,224.8038
            L509.0727,220.2651L522.9818,216.1856L536.8909,212.5325L550.8000,209.2724"/>
   <path d="M91.8000,487.6303L105.7091,480.3785L119.6182,472.7082L133.5273,464.6155L147.4364,456.1019L161.3455,447.1753L175.2545,437.8509L189.1636,428.1524L203.0727,418.1121L216.9818,407.7718
            L230.8909,397.1826L244.8000,386.4044L258.7091,375.5049L272.6182,364.5580L286.5273,353.6422L300.4364,342.8377L314.3455,332.2241L328.2545,321.8778L342.1636,311.8693L356.0727,302.2610
            L369.9818,293.1057L383.8909,284.4454L397.8000,276.3104L411.7091,268.7200L425.6182,261.6825L439.5273,255.1963L453.4364,249.2514L467.3455,243.8306L481.2545,238.9112L495.1636,234.4661
            L509.0727,230.4655L522.9818,226.8777L536.8909,223.6707L550.8000,220.8123"/>
   <path d="M91.8000,486.1656L105.7091,477.5811L119.6182,468.7524L133.5273,459.6839L147.4364,450.3827L161.3455,440.8582L175.2545,431.1232L189.1636,421.1946L203.0727,411.0929L216.9818,400.8433
            L230.8909,390.4757L244.8000,380.0241L258.7091,369.5266L272.6182,359.0251L286.5273,348.5639L300.4364,338.1888L314.3455,327.9459L328.2545,317.8806L342.1636,308.0355L356.0727,298.4499
            L369.9818,289.1585L383.8909,280.1904L397.8000,271.5689L411.7091,263.3111L425.6182,255.4281L439.5273,247.9250L453.4364,240.8018L467.3455,234.0540L481.2545,227.6729L495.1636,221.6468
            L509.0727,215.9615L522.9818,210.6011L536.8909,205.5485L550.8000,200.7861"/>
   <path d="M91.8000,496.4761L105.7091,489.1825L119.6182,481.4691L133.5273,473.3264L147.4364,464.7493L161.3455,455.7386L175.2545,446.3022L189.1636,436.4561L203.0727,426.2259L216.9818,415.6475
            L230.8909,404.7676L244.8000,393.6439L258.7091,382.3449L272.6182,370.9483L286.5273,359.5396L300.4364,348.2094L314.3455,337.0508L328.2545,326.1555L342.1636,315.6109L356.0727,305.4964
            L369.9818,295.8808L383.8909,286.8199L397.8000,278.3549L411.7091,270.5122L425.6182,263.3035L439.5273,256.7271L453.4364,250.7692L467.3455,245.4065L481.2545,240.6078L495.1636,236.3367
            L509.0727,232.5533L522.9818,229.2162L536.8909,226.2839L550.8000,223.7157"/>
   <path d="M91.8000,496.6507L105.7091,488.3636L119.6182,479.7624L133.5273,470.8513L147.4364,461.6380L161.3455,452.1333L175.2545,442.3523L189.1636,432.3139L203.0727,422.0419L216.9818,411.5649
            L230.8909,400.9162L244.8000,390.1346L258.7091,379.2630L272.6182,368.3490L286.5273,357.4435L300.4364,346.5998L314.3455,335.8725L328.2545,325.3161L342.1636,314.9833L356.0727,304.9234
            L369.9818,295.1811L383.8909,285.7954L397.8000,276.7981L411.7091,268.2138L425.6182,260.0595L439.5273,252.3445L453.4364,245.0714L467.3455,238.2362L481.2545,231.8297L495.1636,225.8379
            L509.0727,220.2438L522.9818,215.0273L536.8909,210.1671L550.8000,205.6406"/>
   <path d="M91.8000,492.1859L105.7091,485.5122L119.6182,478.4787L133.5273,471.0750L147.4364,463.2934L161.3455,455.1297L175.2545,446.5840L189.1636,437.6617L203.0727,428.3745L216.9818,418.7407
            L230.8909,408.7865L244.8000,398.5461L258.7091,388.0620L272.6182,377.3851L286.5273,366.5735L300.4364,355.6924L314.3455,344.8118L328.2545,334.0055L342.1636,323.3486L356.0727,312.9152
            L369.9818,302.7763L383.8909,292.9975L397.8000,283.6371L411.7091,274.7442L425.6182,266.3578L439.5273,258.5063L453.4364,251.2068L467.3455,244.4660L481.2545,238.2808L495.1636,232.6397
            L509.0727,227.5236L522.9818,222.9078L536.8909,218.7634L550.8000,215.0584"/>
   <path d="M91.8000,495.1688L105.7091,488.1793L119.6182,480.7432L133.5273,472.8449L147.4364,464.4731L161.3455,455.6222L175.2545,446.2938L189.1636,436.4987L203.0727,426.2585L216.9818,415.6075
            L230.8909,404.5936L244.8000,393.2802L258.7091,381.7453L272.6182,370.0813L286.5273,358.3928L300.4364,346.7931L314.3455,335.3996L328.2545,324.3283L342.1636,313.6880L356.0727,303.5747
            L369.9818,294.0669L383.8909,285.2225L397.8000,277.0777L411.7091,269.6474L425.6182,262.9272L439.5273,256.8963L453.4364,251.5215L467.3455,246.7605L481.2545,242.5655L495.1636,238.8859
            L509.0727,235.6707L522.9818,232.8705L536.8909,230.4384L550.8000,228.3306"/>
   <path d="M91.8000,495.8104L105.7091,488.9667L119.6182,481.6774L133.5273,473.9260L147.4364,465.7001L161.3455,456.9924L175.2545,447.8026L189.1636,438.1385L203.0727,428.0181L216.9818,417.4705
            L230.8909,406.5373L244.8000,395.2737L258.7091,383.7480L272.6182,372.0417L286.5273,360.2477L300.4364,348.4677L314.3455,336.8094L328.2545,325.3819L342.1636,314.2915L356.0727,303.6368
            L369.9818,293.5047L383.8909,283.9663L397.8000,275.0748L411.7091,266.8647L425.6182,259.3512L439.5273,252.5324L453.4364,246.3912L467.3455,240.8987L481.2545,236.0164L495.1636,231.7002
            L509.0727,227.9024L522.9818,224.5742L536.8909,221.6675L550.8000,219.1363"/>
   <path d="M91.8000,492.2324L105.7091,483.7741L119.6182,475.1156L133.5273,466.2591L147.4364,457.2078L161.3455,447.9664L175.2545,438.5412L189.1636,428.9404L203.0727,419.1752L216.9818,409.2590
            L230.8909,399.2091L244.8000,389.0460L258.7091,378.7937L272.6182,368.4802L286.5273,358.1367L300.4364,347.7979L314.3455,337.5005L328.2545,327.2833L342.1636,317.1855L356.0727,307.2462
            L369.9818,297.5026L383.8909,287.9895L397.8000,278.7377L411.7091,269.7738L425.6182,261.1189L439.5273,252.7891L453.4364,244.7947L467.3455,237.1409L481.2545,229.8278L495.1636,222.8514
            L509.0727,216.2038L522.9818,209.8745L536.8909,203.8502L550.8000,198.1164"/>
   <path d="M91.8000,491.5554L105.7091,483.5322L119.6182,475.1719L133.5273,466.4803L147.4364,457.4675L161.3455,448.1478L175.2545,438.5407L189.1636,428.6708L203.0727,418.5678L216.9818,408.2672
            L230.8909,397.8091L244.8000,387.2387L258.7091,376.6047L272.6182,365.9591L286.5273,355.3556L300.4364,344.8486L314.3455,334.4920L328.2545,324.3373L342.1636,314.4329L356.0727,304.8227
            L369.9818,295.5456L383.8909,286.6340L397.8000,278.1146L411.7091,270.0071L425.6182,262.3253L439.5273,255.0768L453.4364,248.2637L467.3455,241.8833L481.2545,235.9285L495.1636,230.3890
            L509.0727,225.2512L522.9818,220.4996L536.8909,216.1169L550.8000,212.0847"/>
   <path d="M91.8000,485.0385L105.7091,477.2248L119.6182,469.1317L133.5273,460.7598L147.4364,452.1116L161.3455,443.1920L175.2545,434.0083L189.1636,424.5710L203.0727,414.8937L216.9818,404.9938
            L230.8909,394.8928L244.8000,384.6159L258.7091,374.1927L272.6182,363.6568L286.5273,353.0454L300.4364,342.3990L314.3455,331.7607L328.2545,321.1754L342.1636,310.6887L356.0727,300.3460
            L369.9818,290.1914L383.8909,280.2665L397.8000,270.6097L411.7091,261.2548L425.6182,252.2312L439.5273,243.5628L453.4364,235.2678L467.3455,227.3592L481.2545,219.8445L495.1636,212.7262
            L509.0727,206.0022L522.9818,199.6668L536.8909,193.7104L550.8000,188.1210"/>
   <path d="M91.8000,494.3752L105.7091,487.2577L119.6182,479.7351L133.5273,471.7943L147.4364,463.4257L161.3455,454.6242L175.2545,445.3900L189.1636,435.7305L203.0727,425.6612L216.9818,415.2074
            L230.8909,404.4048L244.8000,393.3011L258.7091,381.9556L272.6182,370.4398L286.5273,358.8357L300.4364,347.2343L314.3455,335.7327L328.2545,324.4306L342.1636,313.4263L356.0727,302.8124
            L369.9818,292.6714L383.8909,283.0731L397.8000,274.0714L411.7091,265.7033L425.6182,257.9893L439.5273,250.9336L453.4364,244.5265L467.3455,238.7467L481.2545,233.5637L495.1636,228.9406
            L509.0727,224.8365L522.9818,221.2080L536.8909,218.0119L550.8000,215.2054"/>
   <path d="M91.8000,493.9681L105.7091,487.0184L119.6182,479.6281L133.5273,471.7823L147.4364,463.4699L161.3455,454.6855L175.2545,445.4308L189.1636,435.7161L203.0727,425.5619L216.9818,415.0011
            L230.8909,404.0794L244.8000,392.8572L258.7091,381.4092L272.6182,369.8242L286.5273,358.2031L300.4364,346.6563L314.3455,335.2992L328.2545,324.2475L342.1636,313.6108L356.0727,303.4879
            L369.9818,293.9608L383.8909,285.0922L397.8000,276.9224L411.7091,269.4703L425.6182,262.7344L439.5273,256.6960L453.4364,251.3226L467.3455,246.5719L481.2545,242.3952L495.1636,238.7406
            L509.0727,235.5558L522.9818,232.7897L536.8909,230.3939L550.8000,228.3235"/>
   <path d="M91.8000,488.8469L105.7091,481.4121L119.6182,473.5363L133.5273,465.2138L147.4364,456.4448L161.3455,447.2367L175.2545,437.6053L189.1636,427.5762L203.0727,417.1851L216.9818,406.4791
            L230.8909,395.5160L244.8000,384.3645L258.7091,373.1021L272.6182,361.8139L286.5273,350.5893L300.4364,339.5195L314.3455,328.6938L328.2545,318.1962L342.1636,308.1026L356.0727,298.4782
            L369.9818,289.3758L383.8909,280.8344L397.8000,272.8795L411.7091,265.5234L425.6182,258.7663L439.5273,252.5978L453.4364,246.9991L467.3455,241.9443L481.2545,237.4024L495.1636,233.3393
            L509.0727,229.7189L522.9818,226.5044L536.8909,223.6593L550.8000,221.1485"/>
   <path d="M91.8000,493.6445L105.7091,487.2841L119.6182,480.4388L133.5273,473.0810L147.4364,465.1867L161.3455,456.7365L175.2545,447.7188L189.1636,438.1323L203.0727,427.9893L216.9818,417.3189
            L230.8909,406.1702L244.8000,394.6148L258.7091,382.7474L272.6182,370.6849L286.5273,358.5627L300.4364,346.5278L314.3455,334.7310L328.2545,323.3167L342.1636,312.4139L356.0727,302.1286
            L369.9818,292.5394L383.8909,283.6957L397.8000,275.6193L411.7091,268.3079L425.6182,261.7398L439.5273,255.8788L453.4364,250.6793L467.3455,246.0898L481.2545,242.0567L495.1636,238.5260
            L509.0727,235.4455L522.9818,232.7660L536.8909,230.4414L550.8000,228.4294"/>
   <path d="M91.8000,495.8794L105.7091,488.5978L119.6182,480.8960L133.5273,472.7630L147.4364,464.1920L161.3455,455.1821L175.2545,445.7390L189.1636,435.8767L203.0727,425.6189L216.9818,415.0001
            L230.8909,404.0661L244.8000,392.8751L258.7091,381.4969L272.6182,370.0116L286.5273,358.5085L300.4364,347.0825L314.3455,335.8310L328.2545,324.8501L342.1636,314.2303L356.0727,304.0529
            L369.9818,294.3870L383.8909,285.2870L397.8000,276.7920L411.7091,268.9248L425.6182,261.6938L439.5273,255.0937L453.4364,249.1080L467.3455,243.7112L481.2545,238.8710L495.1636,234.5506
            L509.0727,230.7104L522.9818,227.3100L536.8909,224.3088L550.8000,221.6679"/>
   <path d="M91.8000,494.8389L105.7091,487.7058L119.6182,480.1670L133.5273,472.2088L147.4364,463.8211L161.3455,454.9981L175.2545,445.7397L189.1636,436.0531L203.0727,425.9540L216.9818,415.4683
            L230.8909,404.6332L244.8000,393.4983L258.7091,382.1256L272.6182,370.5894L286.5273,358.9751L300.4364,347.3763L314.3455,335.8924L328.2545,324.6238L342.1636,313.6681L356.0727,303.1152
            L369.9818,293.0440L383.8909,283.5189L397.8000,274.5880L411.7091,266.2831L425.6182,258.6196L439.5273,251.5981L453.4364,245.2068L467.3455,239.4234L481.2545,234.2180L495.1636,229.5552
            L509.0727,225.3963L522.9818,221.7008L536.8909,218.4281L550.8000,215.5383"/>
   <path d="M91.8000,495.1526L105.7091,488.0151L119.6182,480.4609L133.5273,472.4772L147.4364,464.0549L161.3455,455.1901L175.2545,445.8852L189.1636,436.1509L203.0727,426.0069L216.9818,415.4841
            L230.8909,404.6249L244.8000,393.4845L258.7091,382.1306L272.6182,370.6425L286.5273,359.1099L300.4364,347.6296L314.3455,336.3022L328.2545,325.2282L342.1636,314.5032L356.0727,304.2137
            L369.9818,294.4340L383.8909,285.2230L397.8000,276.6232L411.7091,268.6601L425.6182,261.3434L439.5273,254.6684L453.4364,248.6183L467.3455,243.1671L481.2545,238.2813L495.1636,233.9230
            L509.0727,230.0513L522.9818,226.6248L536.8909,223.6018L550.8000,220.9425"/>
   <path d="M91.8000,494.5145L105.7091,487.2715L119.6182,479.6205L133.5273,471.5499L147.4364,463.0522L161.3455,454.1246L175.2545,444.7708L189.1636,435.0017L203.0727,424.8375L216.9818,414.3083
            L230.8909,403.4552L244.8000,392.3316L258.7091,381.0027L272.6182,369.5451L286.5273,358.0456L300.4364,346.5991L314.3455,335.3048L328.2545,324.2632L342.1636,313.5711L356.0727,303.3176
            L369.9818,293.5803L383.8909,284.4219L397.8000,275.8882L411.7091,268.0075L425.6182,260.7911L439.5273,254.2345L453.4364,248.3202L467.3455,243.0197L481.2545,238.2971L495.1636,234.1109
            L509.0727,230.4170L522.9818,227.1704L536.8909,224.3265L550.8000,221.8428"/>
   <path d="M91.8000,485.0226L105.7091,478.3406L119.6182,471.2713L133.5273,463.8052L147.4364,455.9357L161.3455,447.6606L175.2545,438.9823L189.1636,429.9092L203.0727,420.4566L216.9818,410.6467
            L230.8909,400.5103L244.8000,390.0863L258.7091,379.4219L272.6182,368.5729L286.5273,357.6021L300.4364,346.5786L314.3455,335.5764L328.2545,324.6717L342.1636,313.9415L356.0727,303.4605
            L369.9818,293.2993L383.8909,283.5220L397.8000,274.1846L411.7091,265.3332L425.6182,257.0037L439.5273,249.2211L453.4364,241.9998L467.3455,235.3444L481.2545,229.2502L495.1636,223.7048
            L509.0727,218.6893L522.9818,214.1796L536.8909,210.1480L550.8000,206.5640"/>
   <path d="M91.8000,500.3271L105.7091,493.4254L119.6182,486.0687L133.5273,478.2436L147.4364,469.9416L161.3455,461.1604L175.2545,451.9051L189.1636,442.1896L203.0727,432.0381L216.9818,421.4860
            L230.8909,410.5807L244.8000,399.3816L258.7091,387.9600L272.6182,376.3974L286.5273,364.7839L300.4364,353.2154L314.3455,341.7903L328.2545,330.6059L342.1636,319.7548L356.0727,309.3214
            L369.9818,299.3791L383.8909,289.9881L397.8000,281.1941L411.7091,273.0276L425.6182,265.5049L439.5273,258.6286L453.4364,252.3895L467.3455,246.7683L481.2545,241.7378L495.1636,237.2647
            L509.0727,233.3119L522.9818,229.8398L536.8909,226.8077L550.8000,224.1753"/>
   <path d="M91.8000,492.5677L105.7091,485.5506L119.6182,478.0988L133.5273,470.2019L147.4364,461.8544L161.3455,453.0565L175.2545,443.8152L189.1636,434.1457L203.0727,424.0722L216.9818,413.6287
            L230.8909,402.8597L244.8000,391.8200L258.7091,380.5742L272.6182,369.1958L286.5273,357.7650L300.4364,346.3671L314.3455,335.0890L328.2545,324.0170L342.1636,313.2332L356.0727,302.8129
            L369.9818,292.8224L383.8909,283.3169L397.8000,274.3394L411.7091,265.9206L425.6182,258.0787L439.5273,250.8202L453.4364,244.1416L467.3455,238.0301L481.2545,232.4658L495.1636,227.4231
            L509.0727,222.8725L522.9818,218.7815L536.8909,215.1164L550.8000,211.8431"/>
   <path d="M91.8000,493.1946L105.7091,485.1242L119.6182,476.7471L133.5273,468.0663L147.4364,459.0872L161.3455,449.8187L175.2545,440.2731L189.1636,430.4670L203.0727,420.4212L216.9818,410.1615
            L230.8909,399.7184L244.8000,389.1276L258.7091,378.4295L272.6182,367.6687L286.5273,356.8939L300.4364,346.1563L314.3455,335.5085L328.2545,325.0036L342.1636,314.6931L356.0727,304.6256
            L369.9818,294.8455L383.8909,285.3914L397.8000,276.2958L411.7091,267.5837L425.6182,259.2729L439.5273,251.3740L453.4364,243.8908L467.3455,236.8210L481.2545,230.1570L495.1636,223.8868
            L509.0727,217.9951L522.9818,212.4641L536.8909,207.2741L550.8000,202.4048"/>
   <path d="M91.8000,494.2205L105.7091,485.7630L119.6182,477.0210L133.5273,468.0004L147.4364,458.7101L161.3455,449.1621L175.2545,439.3722L189.1636,429.3603L203.0727,419.1506L216.9818,408.7719
            L230.8909,398.2577L244.8000,387.6462L258.7091,376.9795L272.6182,366.3034L286.5273,355.6663L300.4364,345.1180L314.3455,334.7086L328.2545,324.4867L342.1636,314.4979L356.0727,304.7839
            L369.9818,295.3807L383.8909,286.3184L397.8000,277.6198L411.7091,269.3011L425.6182,261.3715L439.5273,253.8337L453.4364,246.6850L467.3455,239.9174L481.2545,233.5193L495.1636,227.4759
            L509.0727,221.7702L522.9818,216.3836L536.8909,211.2972L550.8000,206.4916"/>
   <path d="M91.8000,495.4547L105.7091,488.4568L119.6182,481.0303L133.5273,473.1595L147.4364,464.8324L161.3455,456.0420L175.2545,446.7878L189.1636,437.0776L203.0727,426.9289L216.9818,416.3714
            L230.8909,405.4478L244.8000,394.2149L258.7091,382.7443L272.6182,371.1214L286.5273,359.4436L300.4364,347.8167L314.3455,336.3515L328.2545,325.1576L342.1636,314.3390L356.0727,303.9882
            L369.9818,294.1827L383.8909,284.9819L397.8000,276.4262L411.7091,268.5370L425.6182,261.3185L439.5273,254.7600L453.4364,248.8388L467.3455,243.5231L481.2545,238.7749L495.1636,234.5523
            L509.0727,230.8119L522.9818,227.5098L536.8909,224.6034L550.8000,222.0519"/>
   <path d="M91.8000,493.7776L105.7091,486.3825L119.6182,478.5919L133.5273,470.3981L147.4364,461.7977L161.3455,452.7924L175.2545,443.3901L189.1636,433.6060L203.0727,423.4635L216.9818,412.9951
            L230.8909,402.2428L244.8000,391.2585L258.7091,380.1036L272.6182,368.8481L286.5273,357.5691L300.4364,346.3489L314.3455,335.2724L328.2545,324.4241L342.1636,313.8854L356.0727,303.7311
            L369.9818,294.0273L383.8909,284.8291L397.8000,276.1791L411.7091,268.1067L425.6182,260.6286L439.5273,253.7489L453.4364,247.4609L467.3455,241.7483L481.2545,236.5874L495.1636,231.9487
            L509.0727,227.7984L522.9818,224.1007L536.8909,220.8185L550.8000,217.9149"/>
   <path d="M91.8000,494.6562L105.7091,487.5093L119.6182,479.9420L133.5273,471.9430L147.4364,463.5053L161.3455,454.6271L175.2545,445.3138L189.1636,435.5786L203.0727,425.4444L216.9818,414.9442
            L230.8909,404.1226L244.8000,393.0354L258.7091,381.7497L272.6182,370.3424L286.5273,358.8988L300.4364,347.5095L314.3455,336.2674L328.2545,325.2639L342.1636,314.5858L356.0727,304.3112
            L369.9818,294.5074L383.8909,285.2286L397.8000,276.5149L411.7091,268.3921L425.6182,260.8724L439.5273,253.9559L453.4364,247.6316L467.3455,241.8802L481.2545,236.6754L495.1636,231.9861
            L509.0727,227.7779L522.9818,224.0149L536.8909,220.6606L550.8000,217.6788"/>
   <path d="M91.8000,492.5294L105.7091,485.3768L119.6182,477.8511L133.5273,469.9444L147.4364,461.6520L161.3455,452.9733L175.2545,443.9128L189.1636,434.4806L203.0727,424.6940L216.9818,414.5773
            L230.8909,404.1632L244.8000,393.4927L258.7091,382.6151L272.6182,371.5879L286.5273,360.4755L300.4364,349.3482L314.3455,338.2803L328.2545,327.3478L342.1636,316.6262L356.0727,306.1878
            L369.9818,296.0997L383.8909,286.4213L397.8000,277.2027L411.7091,268.4840L425.6182,260.2940L439.5273,252.6509L453.4364,245.5623L467.3455,239.0262L481.2545,233.0325L495.1636,227.5639
            L509.0727,222.5979L522.9818,218.1074L536.8909,214.0627L550.8000,210.4326"/>
   <path d="M91.8000,486.6846L105.7091,478.7880L119.6182,470.6526L133.5273,462.2766L147.4364,453.6604L161.3455,444.8067L175.2545,435.7210L189.1636,426.4122L203.0727,416.8930L216.9818,407.1802
            L230.8909,397.2952L244.8000,387.2637L258.7091,377.1161L272.6182,366.8867L286.5273,356.6134L300.4364,346.3363L314.3455,336.0971L328.2545,325.9377L342.1636,315.8984L356.0727,306.0169
            L369.9818,296.3272L383.8909,286.8581L397.8000,277.6330L411.7091,268.6691L425.6182,259.9777L439.5273,251.5642L453.4364,243.4286L467.3455,235.5664L481.2545,227.9690L495.1636,220.6250
            L509.0727,213.5205L522.9818,206.6402L536.8909,199.9677L550.8000,193.4867"/>
   <path d="M91.8000,499.3581L105.7091,491.3730L119.6182,483.0320L133.5273,474.3361L147.4364,465.2899L161.3455,455.9021L175.2545,446.1857L189.1636,436.1587L203.0727,425.8447L216.9818,415.2727
            L230.8909,404.4778L244.8000,393.5008L258.7091,382.3883L272.6182,371.1922L286.5273,359.9688L300.4364,348.7779L314.3455,337.6814L328.2545,326.7422L342.1636,316.0217L356.0727,305.5791
            L369.9818,295.4687L383.8909,285.7392L397.8000,276.4319L411.7091,267.5798L425.6182,259.2076L439.5273,251.3310L453.4364,243.9571L467.3455,237.0855L481.2545,230.7086L495.1636,224.8127
            L509.0727,219.3795L522.9818,214.3870L536.8909,209.8104L550.8000,205.6232"/>
   <path d="M91.8000,485.8716L105.7091,479.2977L119.6182,472.3176L133.5273,464.9130L147.4364,457.0680L161.3455,448.7701L175.2545,440.0112L189.1636,430.7892L203.0727,421.1092L216.9818,410.9856
            L230.8909,400.4429L244.8000,389.5180L258.7091,378.2605L272.6182,366.7335L286.5273,355.0134L300.4364,343.1888L314.3455,331.3580L328.2545,319.6261L342.1636,308.1004L356.0727,296.8861
            L369.9818,286.0811L383.8909,275.7718L397.8000,266.0293L411.7091,256.9073L425.6182,248.4408L439.5273,240.6470L453.4364,233.5265L467.3455,227.0654L481.2545,221.2388L495.1636,216.0130
            L509.0727,211.3485L522.9818,207.2024L536.8909,203.5305L550.8000,200.2886"/>
   <path d="M91.8000,494.9106L105.7091,487.0160L119.6182,478.7831L133.5273,470.2140L147.4364,461.3143L161.3455,452.0930L175.2545,442.5634L189.1636,432.7430L203.0727,422.6544L216.9818,412.3248
            L230.8909,401.7868L244.8000,391.0783L258.7091,380.2419L272.6182,369.3251L286.5273,358.3796L300.4364,347.4600L314.3455,336.6234L328.2545,325.9276L342.1636,315.4298L356.0727,305.1851
            L369.9818,295.2451L383.8909,285.6562L397.8000,276.4586L411.7091,267.6851L425.6182,259.3610L439.5273,251.5037L453.4364,244.1225L467.3455,237.2197L481.2545,230.7907L495.1636,224.8254
            L509.0727,219.3087L522.9818,214.2219L536.8909,209.5436L550.8000,205.2502"/>
   <path d="M91.8000,492.7699L105.7091,485.8829L119.6182,478.5676L133.5273,470.8092L147.4364,462.5963L161.3455,453.9229L175.2545,444.7887L189.1636,435.2016L203.0727,425.1783L216.9818,414.7465
            L230.8909,403.9459L244.8000,392.8288L258.7091,381.4609L272.6182,369.9210L286.5273,358.2991L300.4364,346.6945L314.3455,335.2125L328.2545,323.9599L342.1636,313.0408L356.0727,302.5515
            L369.9818,292.5761L383.8909,283.1832L397.8000,274.4236L411.7091,266.3295L425.6182,258.9149L439.5273,252.1769L453.4364,246.0987L467.3455,240.6520L481.2545,235.8002L495.1636,231.5010
            L509.0727,227.7092L522.9818,224.3782L536.8909,221.4624L550.8000,218.9176"/>
   <path d="M91.8000,494.0741L105.7091,487.1528L119.6182,479.8176L133.5273,472.0519L147.4364,463.8419L161.3455,455.1776L175.2545,446.0547L189.1636,436.4755L203.0727,426.4511L216.9818,416.0026
            L230.8909,405.1634L244.8000,393.9796L258.7091,382.5116L272.6182,370.8339L286.5273,359.0338L300.4364,347.2096L314.3455,335.4671L328.2545,323.9151L342.1636,312.6606L356.0727,301.8034
            L369.9818,291.4314L383.8909,281.6170L397.8000,272.4149L411.7091,263.8611L425.6182,255.9735L439.5273,248.7535L453.4364,242.1889L467.3455,236.2559L481.2545,230.9225L495.1636,226.1511
            L509.0727,221.9005L522.9818,218.1280L536.8909,214.7907L550.8000,211.8471"/>
   <path d="M91.8000,496.9112L105.7091,489.6110L119.6182,481.9106L133.5273,473.7985L147.4364,465.2664L161.3455,456.3100L175.2545,446.9309L189.1636,437.1367L203.0727,426.9429L216.9818,416.3737
            L230.8909,405.4629L244.8000,394.2548L258.7091,382.8037L272.6182,371.1745L286.5273,359.4407L300.4364,347.6836L314.3455,335.9894L328.2545,324.4468L342.1636,313.1434L356.0727,302.1629
            L369.9818,291.5818L383.8909,281.4668L397.8000,271.8729L411.7091,262.8421L425.6182,254.4031L439.5273,246.5716L453.4364,239.3511L467.3455,232.7344L481.2545,226.7052L495.1636,221.2399
            L509.0727,216.3092L522.9818,211.8801L536.8909,207.9173L550.8000,204.3841"/>
   <path d="M91.8000,489.1360L105.7091,480.6289L119.6182,471.9129L133.5273,462.9885L147.4364,453.8581L161.3455,444.5261L175.2545,434.9993L189.1636,425.2880L203.0727,415.4056L216.9818,405.3698
            L230.8909,395.2023L244.8000,384.9294L258.7091,374.5814L272.6182,364.1929L286.5273,353.8019L300.4364,343.4489L314.3455,333.1758L328.2545,323.0249L342.1636,313.0373L356.0727,303.2517
            L369.9818,293.7029L383.8909,284.4211L397.8000,275.4306L411.7091,266.7500L425.6182,258.3917L439.5273,250.3621L453.4364,242.6622L467.3455,235.2879L481.2545,228.2312L495.1636,221.4807
            L509.0727,215.0227L522.9818,208.8415L536.8909,202.9205L550.8000,197.2427"/>
   <path d="M91.8000,487.9713L105.7091,479.9812L119.6182,471.6536L133.5273,462.9940L147.4364,454.0124L161.3455,444.7233L175.2545,435.1467L189.1636,425.3078L203.0727,415.2379L216.9818,404.9738
            L230.8909,394.5580L244.8000,384.0380L258.7091,373.4657L272.6182,362.8958L286.5273,352.3851L300.4364,341.9906L314.3455,331.7678L328.2545,321.7694L342.1636,312.0434L356.0727,302.6319
            L369.9818,293.5703L383.8909,284.8865L397.8000,276.6008L411.7091,268.7260L425.6182,261.2678L439.5273,254.2256L453.4364,247.5934L467.3455,241.3607L481.2545,235.5131L495.1636,230.0341
            L509.0727,224.9049L522.9818,220.1060L536.8909,215.6172L550.8000,211.4186"/>
   <path d="M91.8000,485.4985L105.7091,478.8208L119.6182,471.7572L133.5273,464.2921L147.4364,456.4117L161.3455,448.1056L175.2545,439.3672L189.1636,430.1953L203.0727,420.5953L216.9818,410.5807
            L230.8909,400.1741L244.8000,389.4089L258.7091,378.3302L272.6182,366.9953L286.5273,355.4740L300.4364,343.8474L314.3455,332.2065L328.2545,320.6491L342.1636,309.2769L356.0727,298.1903
            L369.9818,287.4849L383.8909,277.2461L397.8000,267.5462L411.7091,258.4415L425.6182,249.9706L439.5273,242.1548L453.4364,234.9990L467.3455,228.4938L481.2545,222.6176L495.1636,217.3398
            L509.0727,212.6236L522.9818,208.4278L536.8909,204.7094L550.8000,201.4251"/>
   <path d="M91.8000,486.9302L105.7091,480.6046L119.6182,473.8769L133.5273,466.7285L147.4364,459.1424L161.3455,451.1050L175.2545,442.6064L189.1636,433.6422L203.0727,424.2149L216.9818,414.3346
            L230.8909,404.0208L244.8000,393.3031L258.7091,382.2219L272.6182,370.8285L286.5273,359.1844L300.4364,347.3599L314.3455,335.4324L328.2545,323.4837L342.1636,311.5971L356.0727,299.8549
            L369.9818,288.3351L383.8909,277.1098L397.8000,266.2432L411.7091,255.7907L425.6182,245.7980L439.5273,236.3017L453.4364,227.3292L467.3455,218.8990L481.2545,211.0216L495.1636,203.6998
            L509.0727,196.9297L522.9818,190.7015L536.8909,184.9997L550.8000,179.8045"/>
   <path d="M91.8000,496.9011L105.7091,489.7503L119.6182,482.1591L133.5273,474.1106L147.4364,465.5909L161.3455,456.5916L175.2545,447.1103L189.1636,437.1534L203.0727,426.7371L216.9818,415.8901
            L230.8909,404.6548L244.8000,393.0888L258.7091,381.2654L272.6182,369.2728L286.5273,357.2129L300.4364,345.1973L314.3455,333.3433L328.2545,321.7682L342.1636,310.5831L356.0727,299.8877
            L369.9818,289.7651L383.8909,280.2790L397.8000,271.4720L411.7091,263.3663L425.6182,255.9652L439.5273,249.2557L453.4364,243.2123L467.3455,237.7997L481.2545,232.9763L495.1636,228.6968
            L509.0727,224.9143L522.9818,221.5822L536.8909,218.6552L550.8000,216.0905"/>
   <path d="M91.8000,474.5786L105.7091,467.4527L119.6182,459.9768L133.5273,452.1507L147.4364,443.9787L161.3455,435.4698L175.2545,426.6386L189.1636,417.5061L203.0727,408.0994L216.9818,398.4525
            L230.8909,388.6062L244.8000,378.6074L258.7091,368.5087L272.6182,358.3676L286.5273,348.2446L300.4364,338.2022L314.3455,328.3029L328.2545,318.6076L342.1636,309.1735L356.0727,300.0530
            L369.9818,291.2919L383.8909,282.9287L397.8000,274.9938L411.7091,267.5095L425.6182,260.4897L439.5273,253.9407L453.4364,247.8616L467.3455,242.2454L481.2545,237.0798L495.1636,232.3479
            L509.0727,228.0299L522.9818,224.1033L536.8909,220.5440L550.8000,217.3272"/>
   <path d="M91.8000,486.2854L105.7091,478.4344L119.6182,470.3433L133.5273,462.0102L147.4364,453.4341L161.3455,444.6165L175.2545,435.5608L189.1636,426.2737L203.0727,416.7650L216.9818,407.0483
            L230.8909,397.1417L244.8000,387.0674L258.7091,376.8525L272.6182,366.5283L286.5273,356.1302L300.4364,345.6972L314.3455,335.2706L328.2545,324.8932L342.1636,314.6079L356.0727,304.4563
            L369.9818,294.4773L383.8909,284.7059L397.8000,275.1722L411.7091,265.9006L425.6182,256.9096L439.5273,248.2116L453.4364,239.8128L467.3455,231.7143L481.2545,223.9124L495.1636,216.3992
            L509.0727,209.1639L522.9818,202.1932L536.8909,195.4719L550.8000,188.9843"/>
   <path d="M91.8000,495.9597L105.7091,488.5927L119.6182,480.8075L133.5273,472.5943L147.4364,463.9479L161.3455,454.8688L175.2545,445.3650L189.1636,435.4529L203.0727,425.1592L216.9818,414.5212
            L230.8909,403.5885L244.8000,392.4226L258.7091,381.0967L272.6182,369.6945L286.5273,358.3078L300.4364,347.0338L314.3455,335.9711L328.2545,325.2158L342.1636,314.8571L356.0727,304.9739
            L369.9818,295.6313L383.8909,286.8789L397.8000,278.7499L411.7091,271.2611L425.6182,264.4145L439.5273,258.1986L453.4364,252.5914L467.3455,247.5626L481.2545,243.0757L495.1636,239.0908
            L509.0727,235.5661L522.9818,232.4596L536.8909,229.7303L550.8000,227.3388"/>
   <path d="M91.8000,491.1853L105.7091,484.2697L119.6182,476.9119L133.5273,469.0988L147.4364,460.8223L161.3455,452.0808L175.2545,442.8801L189.1636,433.2359L203.0727,423.1745L216.9818,412.7342
            L230.8909,401.9659L244.8000,390.9329L258.7091,379.7102L272.6182,368.3826L286.5273,357.0420L300.4364,345.7840L314.3455,334.7043L328.2545,323.8944L342.1636,313.4383L356.0727,303.4099
            L369.9818,293.8700L383.8909,284.8662L397.8000,276.4318L411.7091,268.5864L425.6182,261.3376L439.5273,254.6815L453.4364,248.6051L467.3455,243.0878L481.2545,238.1031L495.1636,233.6204
            L509.0727,229.6062L522.9818,226.0254L536.8909,222.8427L550.8000,220.0229"/>
   <path d="M91.8000,495.9204L105.7091,487.9499L119.6182,479.6283L133.5273,470.9585L147.4364,461.9481L161.3455,452.6094L175.2545,442.9608L189.1636,433.0268L203.0727,422.8388L216.9818,412.4347
            L230.8909,401.8595L244.8000,391.1636L258.7091,380.4030L272.6182,369.6372L286.5273,358.9277L300.4364,348.3361L314.3455,337.9223L328.2545,327.7423L342.1636,317.8466L356.0727,308.2789
            L369.9818,299.0754L383.8909,290.2638L397.8000,281.8640L411.7091,273.8880L425.6182,266.3408L439.5273,259.2213L453.4364,252.5231L467.3455,246.2359L481.2545,240.3460L495.1636,234.8375
            L509.0727,229.6929L522.9818,224.8938L536.8909,220.4215L550.8000,216.2571"/>
   <path d="M91.8000,509.1682L105.7091,500.3945L119.6182,491.1988L133.5273,481.5860L147.4364,471.5668L161.3455,461.1585L175.2545,450.3861L189.1636,439.2826L203.0727,427.8894L216.9818,416.2569
            L230.8909,404.4436L244.8000,392.5160L258.7091,380.5472L272.6182,368.6151L286.5273,356.8004L300.4364,345.1841L314.3455,333.8447L328.2545,322.8554L342.1636,312.2818L356.0727,302.1798
            L369.9818,292.5939L383.8909,283.5566L397.8000,275.0881L411.7091,267.1970L425.6182,259.8810L439.5273,253.1286L453.4364,246.9207L467.3455,241.2320L481.2545,236.0332L495.1636,231.2920
            L509.0727,226.9748L522.9818,223.0475L536.8909,219.4765L550.8000,216.2297"/>
   <path d="M91.8000,491.1069L105.7091,484.3232L119.6182,477.1108L133.5273,469.4544L147.4364,461.3422L161.3455,452.7671L175.2545,443.7284L189.1636,434.2331L203.0727,424.2974L216.9818,413.9487
            L230.8909,403.2268L244.8000,392.1850L258.7091,380.8913L272.6182,369.4276L286.5273,357.8889L300.4364,346.3809L314.3455,335.0163L328.2545,323.9102L342.1636,313.1743L356.0727,302.9113
            L369.9818,293.2094L383.8909,284.1383L397.8000,275.7467L411.7091,268.0613L425.6182,261.0881L439.5273,254.8150L453.4364,249.2147L467.3455,244.2489L481.2545,239.8717L495.1636,236.0329
            L509.0727,232.6811L522.9818,229.7652L536.8909,227.2362L550.8000,225.0484"/>
   <path d="M91.8000,477.2920L105.7091,471.3977L119.6182,465.0722L133.5273,458.2897L147.4364,451.0261L161.3455,443.2602L175.2545,434.9758L189.1636,426.1630L203.0727,416.8214L216.9818,406.9627
            L230.8909,396.6135L244.8000,385.8180L258.7091,374.6407L272.6182,363.1665L286.5273,351.5008L300.4364,339.7657L314.3455,328.0951L328.2545,316.6270L342.1636,305.4949L356.0727,294.8196
            L369.9818,284.7019L383.8909,275.2180L397.8000,266.4180L411.7091,258.3264L425.6182,250.9457L439.5273,244.2598L453.4364,238.2394L467.3455,232.8456L481.2545,228.0339L495.1636,223.7573
            L509.0727,219.9682L522.9818,216.6203L536.8909,213.6692L550.8000,211.0734"/>
   <path d="M91.8000,491.5080L105.7091,483.3478L119.6182,474.8959L133.5273,466.1571L147.4364,457.1387L161.3455,447.8507L175.2545,438.3061L189.1636,428.5214L203.0727,418.5165L216.9818,408.3155
            L230.8909,397.9465L244.8000,387.4420L258.7091,376.8388L272.6182,366.1777L286.5273,355.5037L300.4364,344.8648L314.3455,334.3115L328.2545,323.8961L342.1636,313.6709L356.0727,303.6872
            L369.9818,293.9938L383.8909,284.6358L397.8000,275.6527L411.7091,267.0783L425.6182,258.9388L439.5273,251.2535L453.4364,244.0336L467.3455,237.2834L481.2545,231.0003L495.1636,225.1755
            L509.0727,219.7953L522.9818,214.8416L536.8909,210.2932L550.8000,206.1269"/>
   <path d="M91.8000,489.7204L105.7091,482.6672L119.6182,475.2309L133.5273,467.4014L147.4364,459.1718L161.3455,450.5394L175.2545,441.5066L189.1636,432.0820L203.0727,422.2814L216.9818,412.1284
            L230.8909,401.6557L244.8000,390.9048L258.7091,379.9270L272.6182,368.7822L286.5273,357.5390L300.4364,346.2725L314.3455,335.0632L328.2545,323.9943L342.1636,313.1492L356.0727,302.6088
            L369.9818,292.4483L383.8909,282.7351L397.8000,273.5260L411.7091,264.8660L425.6182,256.7874L439.5273,249.3089L453.4364,242.4368L467.3455,236.1659L481.2545,230.4805L495.1636,225.3570
            L509.0727,220.7653L522.9818,216.6706L536.8909,213.0356L550.8000,209.8216"/>
   <path d="M91.8000,491.6456L105.7091,485.1233L119.6182,478.1763L133.5273,470.7828L147.4364,462.9232L161.3455,454.5817L175.2545,445.7480L189.1636,436.4190L203.0727,426.6010L216.9818,416.3120
            L230.8909,405.5832L244.8000,394.4612L258.7091,383.0077L272.6182,371.2992L286.5273,359.4251L300.4364,347.4833L314.3455,335.5759L328.2545,323.8034L342.1636,312.2598L356.0727,301.0279
            L369.9818,290.1766L383.8909,279.7603L397.8000,269.8187L411.7091,260.3790L425.6182,251.4577L439.5273,243.0630L453.4364,235.1965L467.3455,227.8551L481.2545,221.0313L495.1636,214.7147
            L509.0727,208.8915L522.9818,203.5454L536.8909,198.6575L550.8000,194.2065"/>
   <path d="M91.8000,497.6415L105.7091,488.5390L119.6182,479.2313L133.5273,469.7242L147.4364,460.0257L161.3455,450.1470L175.2545,440.1028L189.1636,429.9118L203.0727,419.5972L216.9818,409.1868
            L230.8909,398.7131L244.8000,388.2127L258.7091,377.7263L272.6182,367.2970L286.5273,356.9698L300.4364,346.7897L314.3455,336.8005L328.2545,327.0430L342.1636,317.5538L356.0727,308.3639
            L369.9818,299.4984L383.8909,290.9753L397.8000,282.8060L411.7091,274.9955L425.6182,267.5428L439.5273,260.4418L453.4364,253.6822L467.3455,247.2503L481.2545,241.1302L495.1636,235.3043
            L509.0727,229.7541L522.9818,224.4609L536.8909,219.4065L550.8000,214.5728"/>
   <path d="M91.8000,490.4264L105.7091,483.3075L119.6182,475.8734L133.5273,468.1191L147.4364,460.0419L161.3455,451.6416L175.2545,442.9207L189.1636,433.8853L203.0727,424.5455L216.9818,414.9156
            L230.8909,405.0147L244.8000,394.8669L258.7091,384.5019L272.6182,373.9543L286.5273,363.2641L300.4364,352.4759L314.3455,341.6386L328.2545,330.8039L342.1636,320.0258L356.0727,309.3589
            L369.9818,298.8571L383.8909,288.5719L397.8000,278.5515L411.7091,268.8393L425.6182,259.4728L439.5273,250.4832L453.4364,241.8950L467.3455,233.7257L481.2545,225.9862L495.1636,218.6815
            L509.0727,211.8108L522.9818,205.3685L536.8909,199.3451L550.8000,193.7275"/>
   <path d="M91.8000,483.6815L105.7091,476.3923L119.6182,468.7336L133.5273,460.6983L147.4364,452.2832L161.3455,443.4890L175.2545,434.3215L189.1636,424.7923L203.0727,414.9195L216.9818,404.7287
            L230.8909,394.2532L244.8000,383.5342L258.7091,372.6210L272.6182,361.5702L286.5273,350.4451L300.4364,339.3142L314.3455,328.2495L328.2545,317.3242L342.1636,306.6111L356.0727,296.1795
            L369.9818,286.0937L383.8909,276.4106L397.8000,267.1786L411.7091,258.4362L425.6182,250.2116L439.5273,242.5229L453.4364,235.3781L467.3455,228.7764L481.2545,222.7087L495.1636,217.1594
            L509.0727,212.1076L522.9818,207.5278L536.8909,203.3922L550.8000,199.6706"/>
   <path d="M91.8000,482.9730L105.7091,475.4002L119.6182,467.5282L133.5273,459.3578L147.4364,450.8922L161.3455,442.1380L175.2545,433.1049L189.1636,423.8071L203.0727,414.2626L216.9818,404.4945
            L230.8909,394.5306L244.8000,384.4033L258.7091,374.1500L272.6182,363.8120L286.5273,353.4343L300.4364,343.0642L314.3455,332.7504L328.2545,322.5416L342.1636,312.4851L356.0727,302.6255
            L369.9818,293.0033L383.8909,283.6541L397.8000,274.6077L411.7091,265.8877L425.6182,257.5115L439.5273,249.4904L453.4364,241.8300L467.3455,234.5308L481.2545,227.5891L495.1636,220.9973
            L509.0727,214.7453L522.9818,208.8208L536.8909,203.2099L550.8000,197.8978"/>
   <path d="M91.8000,495.8354L105.7091,488.5480L119.6182,480.8305L133.5273,472.6714L147.4364,464.0638L161.3455,455.0068L175.2545,445.5065L189.1636,435.5782L203.0727,425.2472L216.9818,414.5500
            L230.8909,403.5357L244.8000,392.2654L258.7091,380.8128L272.6182,369.2620L286.5273,357.7061L300.4364,346.2438L314.3455,334.9757L328.2545,324.0005L342.1636,313.4103L356.0727,303.2872
            L369.9818,293.6999L383.8909,284.7017L397.8000,276.3293L411.7091,268.6028L425.6182,261.5271L439.5273,255.0934L453.4364,249.2814L467.3455,244.0621L481.2545,239.3999L495.1636,235.2550
            L509.0727,231.5855L522.9818,228.3489L536.8909,225.5034L550.8000,223.0087"/>
   <path d="M91.8000,487.9638L105.7091,481.4637L119.6182,474.5653L133.5273,467.2512L147.4364,459.5067L161.3455,451.3203L175.2545,442.6857L189.1636,433.6026L203.0727,424.0789L216.9818,414.1322
            L230.8909,403.7916L244.8000,393.0994L258.7091,382.1119L272.6182,370.9002L286.5273,359.5490L300.4364,348.1549L314.3455,336.8230L328.2545,325.6623L342.1636,314.7807L356.0727,304.2791
            L369.9818,294.2463L383.8909,284.7551L397.8000,275.8598L411.7091,267.5953L425.6182,259.9781L439.5273,253.0080L453.4364,246.6711L467.3455,240.9426L481.2545,235.7899L495.1636,231.1753
            L509.0727,227.0583L522.9818,223.3975L536.8909,220.1514L550.8000,217.2805"/>
   <path d="M91.8000,494.9350L105.7091,486.3558L119.6182,477.5558L133.5273,468.5376L147.4364,459.3053L161.3455,449.8646L175.2545,440.2236L189.1636,430.3929L203.0727,420.3862L216.9818,410.2211
            L230.8909,399.9186L244.8000,389.5044L258.7091,379.0080L272.6182,368.4633L286.5273,357.9078L300.4364,347.3822L314.3455,336.9293L328.2545,326.5930L342.1636,316.4171L356.0727,306.4439
            L369.9818,296.7125L383.8909,287.2582L397.8000,278.1110L411.7091,269.2951L425.6182,260.8283L439.5273,252.7223L453.4364,244.9825L467.3455,237.6089L481.2545,230.5963L495.1636,223.9355
            L509.0727,217.6140L522.9818,211.6168L536.8909,205.9270L550.8000,200.5268"/>
   <path d="M91.8000,498.4821L105.7091,490.4158L119.6182,481.9907L133.5273,473.2094L147.4364,464.0786L161.3455,454.6099L175.2545,444.8204L189.1636,434.7330L203.0727,424.3771L216.9818,413.7885
            L230.8909,403.0094L244.8000,392.0882L258.7091,381.0790L272.6182,370.0402L286.5273,359.0337L300.4364,348.1228L314.3455,337.3711L328.2545,326.8399L342.1636,316.5869L356.0727,306.6646
            L369.9818,297.1183L383.8909,287.9861L397.8000,279.2974L411.7091,271.0733L425.6182,263.3266L439.5273,256.0626L453.4364,249.2794L467.3455,242.9692L481.2545,237.1195L495.1636,231.7134
            L509.0727,226.7314L522.9818,222.1516L536.8909,217.9510L550.8000,214.1058"/>
   <path d="M91.8000,490.4866L105.7091,482.2357L119.6182,473.7179L133.5273,464.9381L147.4364,455.9040L161.3455,446.6258L175.2545,437.1176L189.1636,427.3968L203.0727,417.4854L216.9818,407.4093
            L230.8909,397.1993L244.8000,386.8904L258.7091,376.5216L272.6182,366.1354L286.5273,355.7770L300.4364,345.4930L314.3455,335.3305L328.2545,325.3351L342.1636,315.5503L356.0727,306.0153
            L369.9818,296.7646L383.8909,287.8268L397.8000,279.2244L411.7091,270.9729L425.6182,263.0818L439.5273,255.5545L453.4364,248.3891L467.3455,241.5791L481.2545,235.1141L495.1636,228.9812
            L509.0727,223.1651L522.9818,217.6492L536.8909,212.4163L550.8000,207.4488"/>
   <path d="M91.8000,493.5873L105.7091,486.0814L119.6182,478.1746L133.5273,469.8621L147.4364,461.1437L161.3455,452.0249L175.2545,442.5179L189.1636,432.6428L203.0727,422.4277L216.9818,411.9101
            L230.8909,401.1366L244.8000,390.1628L258.7091,379.0528L272.6182,367.8776L286.5273,356.7139L300.4364,345.6414L314.3455,334.7404L328.2545,324.0893L342.1636,313.7616L356.0727,303.8239
            L369.9818,294.3335L383.8909,285.3370L397.8000,276.8697L411.7091,268.9551L425.6182,261.6054L439.5273,254.8225L453.4364,248.5986L467.3455,242.9184L481.2545,237.7599L495.1636,233.0967
            L509.0727,228.8985L522.9818,225.1333L536.8909,221.7679L550.8000,218.7690"/>
   <path d="M91.8000,481.4608L105.7091,473.8119L119.6182,465.9082L133.5273,457.7490L147.4364,449.3348L161.3455,440.6679L175.2545,431.7518L189.1636,422.5923L203.0727,413.1976L216.9818,403.5785
            L230.8909,393.7487L244.8000,383.7253L258.7091,373.5292L272.6182,363.1848L286.5273,352.7204L300.4364,342.1682L314.3455,331.5639L328.2545,320.9462L342.1636,310.3562L356.0727,299.8368
            L369.9818,289.4313L383.8909,279.1827L397.8000,269.1320L411.7091,259.3177L425.6182,249.7743L439.5273,240.5317L453.4364,231.6146L467.3455,223.0416L481.2545,214.8261L495.1636,206.9754
            L509.0727,199.4916L522.9818,192.3723L536.8909,185.6107L550.8000,179.1967"/>
   <path d="M91.8000,499.3393L105.7091,491.6949L119.6182,483.6447L133.5273,475.1846L147.4364,466.3154L161.3455,457.0436L175.2545,447.3829L189.1636,437.3544L203.0727,426.9875L216.9818,416.3205
            L230.8909,405.4005L244.8000,394.2831L258.7091,383.0313L272.6182,371.7149L286.5273,360.4079L300.4364,349.1872L314.3455,338.1300L328.2545,327.3112L342.1636,316.8016L356.0727,306.6657
            L369.9818,296.9595L383.8909,287.7299L397.8000,279.0134L411.7091,270.8360L425.6182,263.2134L439.5273,256.1511L453.4364,249.6458L467.3455,243.6862L481.2545,238.2544L495.1636,233.3273
            L509.0727,228.8775L522.9818,224.8751L536.8909,221.2884L550.8000,218.0850"/>
   <path d="M91.8000,494.3341L105.7091,486.7502L119.6182,478.8060L133.5273,470.5025L147.4364,461.8449L161.3455,452.8430L175.2545,443.5118L189.1636,433.8721L203.0727,423.9504L216.9818,413.7794
            L230.8909,403.3978L244.8000,392.8501L258.7091,382.1857L272.6182,371.4585L286.5273,360.7255L300.4364,350.0458L314.3455,339.4791L328.2545,329.0838L342.1636,318.9164L356.0727,309.0294
            L369.9818,299.4701L383.8909,290.2802L397.8000,281.4943L411.7091,273.1402L425.6182,265.2384L439.5273,257.8019L453.4364,250.8375L467.3455,244.3453L481.2545,238.3201L495.1636,232.7516
            L509.0727,227.6259L522.9818,222.9255L536.8909,218.6306L550.8000,214.7196"/>
   <path d="M91.8000,470.8958L105.7091,464.4924L119.6182,457.7303L133.5273,450.5994L147.4364,443.0926L161.3455,435.2056L175.2545,426.9386L189.1636,418.2962L203.0727,409.2887L216.9818,399.9327
            L230.8909,390.2514L244.8000,380.2755L258.7091,370.0430L272.6182,359.5991L286.5273,348.9960L300.4364,338.2918L314.3455,327.5490L328.2545,316.8336L342.1636,306.2124L356.0727,295.7513
            L369.9818,285.5133L383.8909,275.5563L397.8000,265.9316L411.7091,256.6826L425.6182,247.8438L439.5273,239.4404L453.4364,231.4888L467.3455,223.9968L481.2545,216.9644L495.1636,210.3850
            L509.0727,204.2465L522.9818,198.5323L536.8909,193.2228L550.8000,188.2961"/>
   <path d="M91.8000,499.9138L105.7091,492.1238L119.6182,484.0147L133.5273,475.5887L147.4364,466.8510L161.3455,457.8103L175.2545,448.4794L189.1636,438.8752L203.0727,429.0192L216.9818,418.9381
            L230.8909,408.6633L244.8000,398.2317L258.7091,387.6846L272.6182,377.0680L286.5273,366.4315L300.4364,355.8275L314.3455,345.3102L328.2545,334.9340L342.1636,324.7521L356.0727,314.8152
            L369.9818,305.1700L383.8909,295.8576L397.8000,286.9131L411.7091,278.3644L425.6182,270.2322L439.5273,262.5297L453.4364,255.2629L467.3455,248.4315L481.2545,242.0294L495.1636,236.0455
            L509.0727,230.4647L522.9818,225.2691L536.8909,220.4383L550.8000,215.9509"/>
   <path d="M91.8000,491.4669L105.7091,484.5803L119.6182,477.2762L133.5273,469.5404L147.4364,461.3621L161.3455,452.7351L175.2545,443.6596L189.1636,434.1430L203.0727,424.2017L216.9818,413.8624
            L230.8909,403.1629L244.8000,392.1533L258.7091,380.8954L272.6182,369.4624L286.5273,357.9375L300.4364,346.4109L314.3455,334.9774L328.2545,323.7323L342.1636,312.7677L356.0727,302.1687
            L369.9818,292.0103L383.8909,282.3553L397.8000,273.2521L411.7091,264.7349L425.6182,256.8235L439.5273,249.5247L453.4364,242.8334L467.3455,236.7350L481.2545,231.2067L495.1636,226.2198
            L509.0727,221.7415L522.9818,217.7362L536.8909,214.1671L550.8000,210.9973"/>
   <path d="M91.8000,494.5464L105.7091,487.3466L119.6182,479.7305L133.5273,471.6863L147.4364,463.2063L161.3455,454.2877L175.2545,444.9345L189.1636,435.1585L203.0727,424.9807L216.9818,414.4327
            L230.8909,403.5580L244.8000,392.4124L258.7091,381.0643L272.6182,369.5944L286.5273,358.0935L300.4364,346.6611L314.3455,335.4010L328.2545,324.4180L342.1636,313.8123L356.0727,303.6757
            L369.9818,294.0865L383.8909,285.1069L397.8000,276.7803L411.7091,269.1314L425.6182,262.1664L439.5273,255.8754L453.4364,250.2349L467.3455,245.2108L481.2545,240.7621L495.1636,236.8428
            L509.0727,233.4053L522.9818,230.4018L536.8909,227.7861L550.8000,225.5143"/>
   <path d="M91.8000,494.1222L105.7091,487.1096L119.6182,479.6525L133.5273,471.7363L147.4364,463.3507L161.3455,454.4915L175.2545,445.1617L189.1636,435.3739L203.0727,425.1511L216.9818,414.5294
            L230.8909,403.5581L244.8000,392.3015L258.7091,380.8381L272.6182,369.2595L286.5273,357.6685L300.4364,346.1755L314.3455,334.8935L328.2545,323.9334L342.1636,313.3984L356.0727,303.3788
            L369.9818,293.9484L383.8909,285.1615L397.8000,277.0521L411.7091,269.6347L425.6182,262.9057L439.5273,256.8467L453.4364,251.4274L467.3455,246.6089L481.2545,242.3467L495.1636,238.5936
            L509.0727,235.3017L522.9818,232.4238L536.8909,229.9150L550.8000,227.7333"/>
   <path d="M91.8000,496.0621L105.7091,489.0241L119.6182,481.5510L133.5273,473.6305L147.4364,465.2547L161.3455,456.4215L175.2545,447.1357L189.1636,437.4104L203.0727,427.2683L216.9818,416.7425
            L230.8909,405.8773L244.8000,394.7282L258.7091,383.3615L272.6182,371.8532L286.5273,360.2875L300.4364,348.7540L314.3455,337.3453L328.2545,326.1534L342.1636,315.2666L356.0727,304.7665
            L369.9818,294.7251L383.8909,285.2026L397.8000,276.2461L411.7091,267.8886L425.6182,260.1496L439.5273,253.0351L453.4364,246.5394L467.3455,240.6468L481.2545,235.3328L495.1636,230.5669
            L509.0727,226.3140L522.9818,222.5359L536.8909,219.1935L550.8000,216.2474"/>
   <path d="M91.8000,494.6575L105.7091,487.8406L119.6182,480.5852L133.5273,472.8719L147.4364,464.6845L161.3455,456.0112L175.2545,446.8469L189.1636,437.1944L203.0727,427.0675L216.9818,416.4922
            L230.8909,405.5097L244.8000,394.1774L258.7091,382.5695L272.6182,370.7771L286.5273,358.9053L300.4364,347.0699L314.3455,335.3921L328.2545,323.9916L342.1636,312.9805L356.0727,302.4574
            L369.9818,292.5022L383.8909,283.1741L397.8000,274.5105L411.7091,266.5288L425.6182,259.2280L439.5273,252.5929L453.4364,246.5969L467.3455,241.2052L481.2545,236.3782L495.1636,232.0733
            L509.0727,228.2471L522.9818,224.8565L536.8909,221.8598L550.8000,219.2176"/>
   <path d="M91.8000,501.3435L105.7091,492.6272L119.6182,483.6535L133.5273,474.4287L147.4364,464.9607L161.3455,455.2595L175.2545,445.3380L189.1636,435.2117L203.0727,424.8996L216.9818,414.4245
            L230.8909,403.8132L244.8000,393.0966L258.7091,382.3101L272.6182,371.4931L286.5273,360.6883L300.4364,349.9416L314.3455,339.3005L328.2545,328.8135L342.1636,318.5279L356.0727,308.4891
            L369.9818,298.7389L383.8909,289.3141L397.8000,280.2458L411.7091,271.5584L425.6182,263.2695L439.5273,255.3899L453.4364,247.9238L467.3455,240.8692L481.2545,234.2194L495.1636,227.9628
            L509.0727,222.0850L522.9818,216.5684L536.8909,211.3943L550.8000,206.5427"/>
   <path d="M91.8000,91.8000L550.8000,91.8000"/>
   <path d="M91.8000,550.8000L550.8000,550.8000"/>
   <path d="M133.5273,91.8000L133.5273,104.0400"/>
   <path d="M133.5273,550.8000L133.5273,538.5600"/>
   <path d="M272.6182,91.8000L272.6182,104.0400"/>
   <path d="M272.6182,550.8000L272.6182,538.5600"/>
   <path d="M411.7091,91.8000L411.7091,104.0400"/>
   <path d="M411.7091,550.8000L411.7091,538.5600"/>
   <path d="M550.8000,91.8000L550.8000,104.0400"/>
   <path d="M550.8000,550.8000L550.8000,538.5600"/>
  </g>
  <g style="fill:#000000; fill-rule:nonzero">
   <text   style="font-family:'Times','Nimbus Roman'; font-style:normal; font-weight:normal; font-size:612.0000" transform="matrix(0.0280,0.0000,-0.0000,-0.0280,118.0273,74.6800)">-300</text>
   <text   style="font-family:'Times','Nimbus Roman'; font-style:normal; font-weight:normal; font-size:612.0000" transform="matrix(0.0280,0.0000,-0.0000,-0.0280,257.1182,74.6800)">-200</text>
   <text   style="font-family:'Times','Nimbus Roman'; font-style:normal; font-weight:normal; font-size:612.0000" transform="matrix(0.0280,0.0000,-0.0000,-0.0280,396.2091,73.6800)">-100</text>
   <text   style="font-family:'Times','Nimbus Roman'; font-style:normal; font-weight:normal; font-size:612.0000" transform="matrix(0.0280,0.0000,-0.0000,-0.0280,546.8000,74.6800)">0</text>
  </g>
  <g style="fill:none; stroke:#000000; stroke-width:  0.9180; stroke-linecap:butt; stroke-linejoin:miter; stroke-dasharray:none">
   <path d="M91.8000,91.8000L91.8000,550.8000"/>
   <path d="M550.8000,91.8000L550.8000,550.8000"/>
   <path d="M91.8000,91.8000L104.0400,91.8000"/>
   <path d="M550.8000,91.8000L538.5600,91.8000"/>
   <path d="M91.8000,206.5500L104.0400,206.5500"/>
   <path d="M550.8000,206.5500L538.5600,206.5500"/>
   <path d="M91.8000,321.3000L104.0400,321.3000"/>
   <path d="M550.8000,321.3000L538.5600,321.3000"/>
   <path d="M91.8000,436.0500L104.0400,436.0500"/>
   <path d="M550.8000,436.0500L538.5600,436.0500"/>
   <path d="M91.8000,550.8000L104.0400,550.8000"/>
   <path d="M550.8000,550.8000L538.5600,550.8000"/>
  </g>
  <g style="fill:#000000; fill-rule:nonzero">
   <text   style="font-family:'Times','Nimbus Roman'; font-style:normal; font-weight:normal; font-size:612.0000" transform="matrix(0.0280,0.0000,-0.0000,-0.0280,56.6800,85.8000)">0.75</text>
   <text   style="font-family:'Times','Nimbus Roman'; font-style:normal; font-weight:normal; font-size:612.0000" transform="matrix(0.0280,0.0000,-0.0000,-0.0280,65.6800,201.0500)">0.8</text>
   <text   style="font-family:'Times','Nimbus Roman'; font-style:normal; font-weight:normal; font-size:612.0000" transform="matrix(0.0280,0.0000,-0.0000,-0.0280,56.6800,315.3000)">0.85</text>
   <text   style="font-family:'Times','Nimbus Roman'; font-style:normal; font-weight:normal; font-size:612.0000" transform="matrix(0.0280,0.0000,-0.0000,-0.0280,64.6800,430.5500)">0.9</text>
   <text   style="font-family:'Times','Nimbus Roman'; font-style:normal; font-weight:normal; font-size:612.0000" transform="matrix(0.0280,0.0000,-0.0000,-0.0280,56.6800,544.8000)">0.95</text>
  </g>
  <g style="fill:none; stroke:#000000; stroke-width:  0.9180; stroke-linecap:butt; stroke-linejoin:miter; stroke-dasharray:none">
   <path d="M91.8000,91.8000L91.8000,550.8000L550.8000,550.8000L550.8000,91.8000z"/>
  </g>
 </g>
</svg>
