<?xml version="1.0" encoding="ISO-8859-1"?>
<!DOCTYPE svg PUBLIC "-//W3C//DTD SVG 1.0//EN" "http://www.w3.org/TR/2001/REC-SVG-20010904/DTD/svg10.dtd">
<!-- generated by Grace-5.1.25 -->
<svg xml:space="preserve" width="11.0000in" height="8.5000in" viewBox="0.0000 0.0000 792.0000 612.0000">
 <g transform="translate(0,612.0000) scale(1,-1)">
  <g style="fill:#FFFFFF; fill-rule:nonzero">
   <path  d="M0.0000,0.0000L0.0000,612.0000L792.0000,612.0000L792.0000,0.0000z"/>
  </g>
  <g style="fill:none; stroke:#000000; stroke-width:  0.9180; stroke-linecap:butt; stroke-linejoin:miter; stroke-dasharray:none">
   <path d="M91.8000,229.2995L105.7091,236.8058L119.6182,244.2200L133.5273,251.5422L147.4364,258.7724L161.3455,265.9108L175.2545,272.9572L189.1636,279.9120L203.0727,286.7751L216.9818,293.5468
            L230.8909,300.2274L244.8000,306.8175L258.7091,313.3174L272.6182,319.7280L286.5273,326.0501L300.4364,332.2849L314.3455,338.4334L328.2545,344.4971L342.1636,350.4776L356.0727,356.3766
            L369.9818,362.1958L383.8909,367.9371L397.8000,373.6025L411.7091,379.1940L425.6182,384.7136L439.5273,390.1632L453.4364,395.5447L467.3455,400.8601L481.2545,406.1112L495.1636,411.2996
            L509.0727,416.4270L522.9818,421.4949L536.8909,426.5049L550.8000,431.4582"/>
   <path d="M91.8000,229.2995L105.7091,234.4734L119.6182,239.9061L133.5273,245.6024L147.4364,251.5644L161.3455,257.7912L175.2545,264.2778L189.1636,271.0147L203.0727,277.9874L216.9818,285.1753
            L230.8909,292.5518L244.8000,300.0838L258.7091,307.7319L272.6182,315.4506L286.5273,323.1896L300.4364,330.8947L314.3455,338.5093L328.2545,345.9766L342.1636,353.2415L356.0727,360.2526
            L369.9818,366.9639L383.8909,373.3365L397.8000,379.3399L411.7091,384.9520L425.6182,390.1599L439.5273,394.9587L453.4364,399.3517L467.3455,403.3483L481.2545,406.9638L495.1636,410.2174
            L509.0727,413.1315L522.9818,415.7302L536.8909,418.0387L550.8000,420.0823"/>
   <path d="M91.8000,229.2995L105.7091,233.9774L119.6182,238.9367L133.5273,244.1907L147.4364,249.7510L161.3455,255.6266L175.2545,261.8229L189.1636,268.3406L203.0727,275.1742L216.9818,282.3106
            L230.8909,289.7276L244.8000,297.3924L258.7091,305.2610L272.6182,313.2775L286.5273,321.3746L300.4364,329.4754L314.3455,337.4957L328.2545,345.3478L342.1636,352.9452L356.0727,360.2069
            L369.9818,367.0623L383.8909,373.4549L397.8000,379.3443L411.7091,384.7078L425.6182,389.5390L439.5273,393.8467L453.4364,397.6520L467.3455,400.9851L481.2545,403.8829L495.1636,406.3853
            L509.0727,408.5338L522.9818,410.3690L536.8909,411.9298L550.8000,413.2523"/>
   <path d="M91.8000,229.2995L105.7091,236.6010L119.6182,243.8752L133.5273,251.1140L147.4364,258.3094L161.3455,265.4541L175.2545,272.5414L189.1636,279.5650L203.0727,286.5190L216.9818,293.3981
            L230.8909,300.1974L244.8000,306.9123L258.7091,313.5386L272.6182,320.0727L286.5273,326.5114L300.4364,332.8517L314.3455,339.0913L328.2545,345.2281L342.1636,351.2607L356.0727,357.1879
            L369.9818,363.0090L383.8909,368.7239L397.8000,374.3325L411.7091,379.8356L425.6182,385.2340L439.5273,390.5287L453.4364,395.7214L467.3455,400.8136L481.2545,405.8072L495.1636,410.7041
            L509.0727,415.5064L522.9818,420.2163L536.8909,424.8357L550.8000,429.3668"/>
   <path d="M91.8000,229.2995L105.7091,236.8110L119.6182,244.2302L133.5273,251.5572L147.4364,258.7920L161.3455,265.9347L175.2545,272.9853L189.1636,279.9440L203.0727,286.8110L216.9818,293.5864
            L230.8909,300.2707L244.8000,306.8642L258.7091,313.3675L272.6182,319.7814L286.5273,326.1065L300.4364,332.3440L314.3455,338.4949L328.2545,344.5606L342.1636,350.5425L356.0727,356.4422
            L369.9818,362.2613L383.8909,368.0017L397.8000,373.6652L411.7091,379.2537L425.6182,384.7691L439.5273,390.2132L453.4364,395.5880L467.3455,400.8953L481.2545,406.1368L495.1636,411.3142
            L509.0727,416.4292L522.9818,421.4833L536.8909,426.4778L550.8000,431.4143"/>
   <path d="M91.8000,229.2995L105.7091,236.0491L119.6182,242.8007L133.5273,249.5518L147.4364,256.2996L161.3455,263.0417L175.2545,269.7757L189.1636,276.4993L203.0727,283.2103L216.9818,289.9066
            L230.8909,296.5862L244.8000,303.2473L258.7091,309.8879L272.6182,316.5066L286.5273,323.1017L300.4364,329.6717L314.3455,336.2156L328.2545,342.7320L342.1636,349.2202L356.0727,355.6794
            L369.9818,362.1089L383.8909,368.5084L397.8000,374.8777L411.7091,381.2167L425.6182,387.5256L439.5273,393.8045L453.4364,400.0539L467.3455,406.2743L481.2545,412.4662L495.1636,418.6303
            L509.0727,424.7672L522.9818,430.8777L536.8909,436.9624L550.8000,443.0222"/>
   <path d="M91.8000,229.2995L105.7091,234.1117L119.6182,239.1884L133.5273,244.5399L147.4364,250.1745L161.3455,256.0983L175.2545,262.3142L189.1636,268.8207L203.0727,275.6115L216.9818,282.6743
            L230.8909,289.9892L244.8000,297.5290L258.7091,305.2573L272.6182,313.1293L286.5273,321.0915L300.4364,329.0829L314.3455,337.0364L328.2545,344.8813L342.1636,352.5458L356.0727,359.9607
            L369.9818,367.0618L383.8909,373.7937L397.8000,380.1113L411.7091,385.9819L425.6182,391.3852L439.5273,396.3137L453.4364,400.7710L467.3455,404.7704L481.2545,408.3331L495.1636,411.4861
            L509.0727,414.2601L522.9818,416.6877L536.8909,418.8024L550.8000,420.6369"/>
   <path d="M91.8000,229.2995L105.7091,235.9826L119.6182,242.7726L133.5273,249.6550L147.4364,256.6140L161.3455,263.6333L175.2545,270.6958L189.1636,277.7837L203.0727,284.8793L216.9818,291.9643
            L230.8909,299.0210L244.8000,306.0319L258.7091,312.9802L272.6182,319.8500L286.5273,326.6268L300.4364,333.2972L314.3455,339.8495L328.2545,346.2737L342.1636,352.5616L356.0727,358.7066
            L369.9818,364.7038L383.8909,370.5502L397.8000,376.2440L411.7091,381.7846L425.6182,387.1729L439.5273,392.4103L453.4364,397.4994L467.3455,402.4430L481.2545,407.2445L495.1636,411.9075
            L509.0727,416.4359L522.9818,420.8337L536.8909,425.1046L550.8000,429.2525"/>
   <path d="M91.8000,229.2995L105.7091,236.8364L119.6182,244.2747L133.5273,251.6148L147.4364,258.8573L161.3455,266.0028L175.2545,273.0519L189.1636,280.0054L203.0727,286.8639L216.9818,293.6284
            L230.8909,300.2996L244.8000,306.8788L258.7091,313.3669L272.6182,319.7652L286.5273,326.0750L300.4364,332.2979L314.3455,338.4353L328.2545,344.4890L342.1636,350.4606L356.0727,356.3521
            L369.9818,362.1654L383.8909,367.9024L397.8000,373.5652L411.7091,379.1556L425.6182,384.6758L439.5273,390.1277L453.4364,395.5131L467.3455,400.8340L481.2545,406.0921L495.1636,411.2893
            L509.0727,416.4270L522.9818,421.5070L536.8909,426.5306L550.8000,431.4993"/>
   <path d="M91.8000,229.2995L105.7091,235.1728L119.6182,241.2320L133.5273,247.4683L147.4364,253.8707L161.3455,260.4262L175.2545,267.1197L189.1636,273.9339L203.0727,280.8500L216.9818,287.8473
            L230.8909,294.9039L244.8000,301.9968L258.7091,309.1022L272.6182,316.1961L286.5273,323.2545L300.4364,330.2538L314.3455,337.1712L328.2545,343.9852L342.1636,350.6753L356.0727,357.2229
            L369.9818,363.6112L383.8909,369.8251L397.8000,375.8517L411.7091,381.6800L425.6182,387.3012L439.5273,392.7083L453.4364,397.8963L467.3455,402.8620L481.2545,407.6036L495.1636,412.1214
            L509.0727,416.4166L522.9818,420.4920L536.8909,424.3513L550.8000,427.9992"/>
   <path d="M91.8000,229.2995L105.7091,235.1607L119.6182,241.2019L133.5273,247.4144L147.4364,253.7881L161.3455,260.3104L175.2545,266.9673L189.1636,273.7425L203.0727,280.6183L216.9818,287.5752
            L230.8909,294.5926L244.8000,301.6487L258.7091,308.7208L272.6182,315.7861L286.5273,322.8215L300.4364,329.8040L314.3455,336.7116L328.2545,343.5227L342.1636,350.2173L356.0727,356.7765
            L369.9818,363.1833L383.8909,369.4223L397.8000,375.4800L411.7091,381.3450L425.6182,387.0076L439.5273,392.4602L453.4364,397.6973L467.3455,402.7148L481.2545,407.5105L495.1636,412.0839
            L509.0727,416.4358L522.9818,420.5683L536.8909,424.4847L550.8000,428.1893"/>
   <path d="M91.8000,229.2995L105.7091,236.1382L119.6182,243.0557L133.5273,250.0371L147.4364,257.0669L161.3455,264.1298L175.2545,271.2101L189.1636,278.2925L203.0727,285.3616L216.9818,292.4025
            L230.8909,299.4009L244.8000,306.3429L258.7091,313.2155L272.6182,320.0066L286.5273,326.7050L300.4364,333.3007L314.3455,339.7848L328.2545,346.1495L342.1636,352.3883L356.0727,358.4957
            L369.9818,364.4676L383.8909,370.3007L397.8000,375.9930L411.7091,381.5430L425.6182,386.9502L439.5273,392.2149L453.4364,397.3377L467.3455,402.3198L481.2545,407.1629L495.1636,411.8687
            L509.0727,416.4395L522.9818,420.8776L536.8909,425.1853L550.8000,429.3652"/>
   <path d="M91.8000,229.2995L105.7091,233.8000L119.6182,238.4439L133.5273,243.2330L147.4364,248.1687L161.3455,253.2518L175.2545,258.4828L189.1636,263.8620L203.0727,269.3887L216.9818,275.0623
            L230.8909,280.8812L244.8000,286.8435L258.7091,292.9469L272.6182,299.1882L286.5273,305.5640L300.4364,312.0702L314.3455,318.7023L328.2545,325.4551L342.1636,332.3232L356.0727,339.3006
            L369.9818,346.3807L383.8909,353.5567L397.8000,360.8213L411.7091,368.1667L425.6182,375.5849L439.5273,383.0674L453.4364,390.6052L467.3455,398.1892L481.2545,405.8100L495.1636,413.4576
            L509.0727,421.1222L522.9818,428.7934L536.8909,436.4608L550.8000,444.1141"/>
   <path d="M91.8000,229.2995L105.7091,236.1614L119.6182,243.0703L133.5273,250.0132L147.4364,256.9772L161.3455,263.9499L175.2545,270.9190L189.1636,277.8731L203.0727,284.8008L216.9818,291.6918
            L230.8909,298.5361L244.8000,305.3244L258.7091,312.0484L272.6182,318.7001L286.5273,325.2724L300.4364,331.7592L314.3455,338.1548L328.2545,344.4542L342.1636,350.6533L356.0727,356.7486
            L369.9818,362.7370L383.8909,368.6162L397.8000,374.3842L411.7091,380.0396L425.6182,385.5813L439.5273,391.0085L453.4364,396.3209L467.3455,401.5184L481.2545,406.6009L495.1636,411.5688
            L509.0727,416.4225L522.9818,421.1627L536.8909,425.7901L550.8000,430.3057"/>
   <path d="M91.8000,229.2995L105.7091,235.2384L119.6182,241.3530L133.5273,247.6339L147.4364,254.0699L161.3455,260.6476L175.2545,267.3519L189.1636,274.1657L203.0727,281.0700L216.9818,288.0446
            L230.8909,295.0676L244.8000,302.1167L258.7091,309.1684L272.6182,316.1997L286.5273,323.1873L300.4364,330.1090L314.3455,336.9436L328.2545,343.6717L342.1636,350.2754L356.0727,356.7394
            L369.9818,363.0503L383.8909,369.1975L397.8000,375.1725L411.7091,380.9693L425.6182,386.5839L439.5273,392.0144L453.4364,397.2606L467.3455,402.3237L481.2545,407.2062L495.1636,411.9115
            L509.0727,416.4437L522.9818,420.8076L536.8909,425.0081L550.8000,429.0506"/>
   <path d="M91.8000,229.2995L105.7091,236.0650L119.6182,242.8919L133.5273,249.7675L147.4364,256.6795L161.3455,263.6151L175.2545,270.5620L189.1636,277.5076L203.0727,284.4400L216.9818,291.3471
            L230.8909,298.2176L244.8000,305.0403L258.7091,311.8048L272.6182,318.5013L286.5273,325.1206L300.4364,331.6543L314.3455,338.0950L328.2545,344.4361L342.1636,350.6719L356.0727,356.7977
            L369.9818,362.8095L383.8909,368.7046L397.8000,374.4809L411.7091,380.1370L425.6182,385.6722L439.5273,391.0867L453.4364,396.3809L467.3455,401.5558L481.2545,406.6126L495.1636,411.5530
            L509.0727,416.3787L522.9818,421.0917L536.8909,425.6939L550.8000,430.1875"/>
   <path d="M91.8000,229.2995L105.7091,235.3798L119.6182,241.6458L133.5273,248.0870L147.4364,254.6905L161.3455,261.4413L175.2545,268.3220L189.1636,275.3135L203.0727,282.3946L216.9818,289.5427
            L230.8909,296.7338L244.8000,303.9430L258.7091,311.1448L272.6182,318.3139L286.5273,325.4249L300.4364,332.4534L314.3455,339.3758L328.2545,346.1702L342.1636,352.8162L356.0727,359.2954
            L369.9818,365.5914L383.8909,371.6900L397.8000,377.5794L411.7091,383.2499L425.6182,388.6941L439.5273,393.9065L453.4364,398.8840L467.3455,403.6252L481.2545,408.1303L495.1636,412.4012
            L509.0727,416.4413L522.9818,420.2551L536.8909,423.8481L550.8000,427.2268"/>
   <path d="M91.8000,229.2995L105.7091,236.3576L119.6182,243.4526L133.5273,250.5701L147.4364,257.6965L161.3455,264.8182L175.2545,271.9223L189.1636,278.9966L203.0727,286.0295L216.9818,293.0099
            L230.8909,299.9278L244.8000,306.7738L258.7091,313.5392L272.6182,320.2165L286.5273,326.7986L300.4364,333.2796L314.3455,339.6543L328.2545,345.9183L342.1636,352.0679L356.0727,358.1003
            L369.9818,364.0131L383.8909,369.8046L397.8000,375.4739L411.7091,381.0200L425.6182,386.4429L439.5273,391.7427L453.4364,396.9195L467.3455,401.9743L481.2545,406.9076L495.1636,411.7207
            L509.0727,416.4147L522.9818,420.9908L536.8909,425.4505L550.8000,429.7952"/>
   <path d="M91.8000,229.2995L105.7091,234.2500L119.6182,239.4704L133.5273,244.9696L147.4364,250.7541L161.3455,256.8272L175.2545,263.1884L189.1636,269.8322L203.0727,276.7469L216.9818,283.9139
            L230.8909,291.3066L244.8000,298.8895L258.7091,306.6185L272.6182,314.4406L286.5273,322.2950L300.4364,330.1148L314.3455,337.8289L328.2545,345.3656L342.1636,352.6553L356.0727,359.6338
            L369.9818,366.2455L383.8909,372.4458L397.8000,378.2021L411.7091,383.4951L425.6182,388.3178L439.5273,392.6745L453.4364,396.5794L467.3455,400.0541L481.2545,403.1259L495.1636,405.8257
            L509.0727,408.1862L522.9818,410.2408L536.8909,412.0219L550.8000,413.5605"/>
   <path d="M91.8000,229.2995L105.7091,235.0215L119.6182,240.9591L133.5273,247.1072L147.4364,253.4575L161.3455,259.9994L175.2545,266.7192L189.1636,273.5999L203.0727,280.6220L216.9818,287.7626
            L230.8909,294.9964L244.8000,302.2956L258.7091,309.6302L272.6182,316.9690L286.5273,324.2797L300.4364,331.5300L314.3455,338.6876L328.2545,345.7215L342.1636,352.6022L356.0727,359.3027
            L369.9818,365.7984L383.8909,372.0679L397.8000,378.0929L411.7091,383.8590L425.6182,389.3548L439.5273,394.5727L453.4364,399.5083L467.3455,404.1602L481.2545,408.5298L495.1636,412.6212
            L509.0727,416.4405L522.9818,419.9956L536.8909,423.2959L550.8000,426.3521"/>
   <path d="M91.8000,229.2995L105.7091,235.6327L119.6182,242.1065L133.5273,248.7076L147.4364,255.4214L161.3455,262.2321L175.2545,269.1228L189.1636,276.0758L203.0727,283.0729L216.9818,290.0953
            L230.8909,297.1240L244.8000,304.1401L258.7091,311.1253L272.6182,318.0613L286.5273,324.9311L300.4364,331.7184L314.3455,338.4079L328.2545,344.9858L342.1636,351.4394L356.0727,357.7576
            L369.9818,363.9305L383.8909,369.9497L397.8000,375.8081L411.7091,381.4999L425.6182,387.0206L439.5273,392.3667L453.4364,397.5360L467.3455,402.5271L481.2545,407.3395L495.1636,411.9735
            L509.0727,416.4302L522.9818,420.7112L536.8909,424.8189L550.8000,428.7559"/>
   <path d="M91.8000,229.2995L105.7091,234.7671L119.6182,240.3853L133.5273,246.1490L147.4364,252.0525L161.3455,258.0888L175.2545,264.2499L189.1636,270.5269L203.0727,276.9098L216.9818,283.3879
            L230.8909,289.9496L244.8000,296.5824L258.7091,303.2735L272.6182,310.0093L286.5273,316.7762L300.4364,323.5599L314.3455,330.3464L328.2545,337.1216L342.1636,343.8717L356.0727,350.5831
            L369.9818,357.2427L383.8909,363.8381L397.8000,370.3573L411.7091,376.7891L425.6182,383.1230L439.5273,389.3495L453.4364,395.4595L467.3455,401.4453L481.2545,407.2995L495.1636,413.0159
            L509.0727,418.5890L522.9818,424.0141L536.8909,429.2873L550.8000,434.4054"/>
   <path d="M91.8000,229.2995L105.7091,236.7863L119.6182,244.1904L133.5273,251.5099L147.4364,258.7432L161.3455,265.8888L175.2545,272.9458L189.1636,279.9132L203.0727,286.7905L216.9818,293.5773
            L230.8909,300.2733L244.8000,306.8787L258.7091,313.3937L272.6182,319.8186L286.5273,326.1542L300.4364,332.4013L314.3455,338.5608L328.2545,344.6340L342.1636,350.6222L356.0727,356.5267
            L369.9818,362.3492L383.8909,368.0913L397.8000,373.7547L411.7091,379.3410L425.6182,384.8520L439.5273,390.2894L453.4364,395.6549L467.3455,400.9501L481.2545,406.1766L495.1636,411.3359
            L509.0727,416.4295L522.9818,421.4587L536.8909,426.4249L550.8000,431.3294"/>
   <path d="M91.8000,229.2995L105.7091,235.2831L119.6182,241.4619L133.5273,247.8265L147.4364,254.3654L161.3455,261.0644L175.2545,267.9068L189.1636,274.8740L203.0727,281.9448L216.9818,289.0962
            L230.8909,296.3037L244.8000,303.5412L258.7091,310.7819L272.6182,317.9986L286.5273,325.1641L300.4364,332.2517L314.3455,339.2357L328.2545,346.0916L342.1636,352.7969L356.0727,359.3310
            L369.9818,365.6756L383.8909,371.8148L397.8000,377.7353L411.7091,383.4264L425.6182,388.8799L439.5273,394.0898L453.4364,399.0529L467.3455,403.7677L481.2545,408.2350L495.1636,412.4571
            L509.0727,416.4382L522.9818,420.1835L536.8909,423.6996L550.8000,426.9939"/>
   <path d="M91.8000,229.2995L105.7091,234.9425L119.6182,240.7237L133.5273,246.6362L147.4364,252.6725L161.3455,258.8238L175.2545,265.0807L189.1636,271.4328L203.0727,277.8690L216.9818,284.3775
            L230.8909,290.9461L244.8000,297.5621L258.7091,304.2124L272.6182,310.8837L286.5273,317.5628L300.4364,324.2366L314.3455,330.8921L328.2545,337.5167L342.1636,344.0982L356.0727,350.6250
            L369.9818,357.0860L383.8909,363.4709L397.8000,369.7700L411.7091,375.9745L425.6182,382.0760L439.5273,388.0672L453.4364,393.9413L467.3455,399.6924L481.2545,405.3151L495.1636,410.8050
            L509.0727,416.1579L522.9818,421.3708L536.8909,426.4408L550.8000,431.3659"/>
   <path d="M91.8000,229.2995L105.7091,234.9289L119.6182,240.6545L133.5273,246.4712L147.4364,252.3734L161.3455,258.3554L175.2545,264.4111L189.1636,270.5343L203.0727,276.7185L216.9818,282.9570
            L230.8909,289.2432L244.8000,295.5703L258.7091,301.9315L272.6182,308.3204L286.5273,314.7304L300.4364,321.1554L314.3455,327.5895L328.2545,334.0273L342.1636,340.4636L356.0727,346.8939
            L369.9818,353.3139L383.8909,359.7198L397.8000,366.1084L411.7091,372.4768L425.6182,378.8224L439.5273,385.1430L453.4364,391.4366L467.3455,397.7016L481.2545,403.9363L495.1636,410.1394
            L509.0727,416.3095L522.9818,422.4454L536.8909,428.5459L550.8000,434.6099"/>
   <path d="M91.8000,229.2995L105.7091,234.4000L119.6182,239.7610L133.5273,245.3884L147.4364,251.2855L161.3455,257.4525L175.2545,263.8859L189.1636,270.5778L203.0727,277.5151L216.9818,284.6788
            L230.8909,292.0435L244.8000,299.5775L258.7091,307.2420L272.6182,314.9922L286.5273,322.7775L300.4364,330.5432L314.3455,338.2313L328.2545,345.7834L342.1636,353.1420L356.0727,360.2529
            L369.9818,367.0674L383.8909,373.5439L397.8000,379.6489L411.7091,385.3582L425.6182,390.6567L439.5273,395.5382L453.4364,400.0048L467.3455,404.0656L481.2545,407.7358L495.1636,411.0348
            L509.0727,413.9856L522.9818,416.6131L536.8909,418.9432L550.8000,421.0023"/>
   <path d="M91.8000,229.2995L105.7091,235.3983L119.6182,241.6450L133.5273,248.0285L147.4364,254.5365L161.3455,261.1552L175.2545,267.8697L189.1636,274.6640L203.0727,281.5212L216.9818,288.4239
            L230.8909,295.3540L244.8000,302.2931L258.7091,309.2231L272.6182,316.1257L286.5273,322.9832L300.4364,329.7786L314.3455,336.4954L328.2545,343.1183L342.1636,349.6331L356.0727,356.0267
            L369.9818,362.2874L383.8909,368.4047L397.8000,374.3696L411.7091,380.1743L425.6182,385.8123L439.5273,391.2786L453.4364,396.5691L467.3455,401.6809L481.2545,406.6124L495.1636,411.3627
            L509.0727,415.9318L522.9818,420.3206L536.8909,424.5308L550.8000,428.5644"/>
   <path d="M91.8000,229.2995L105.7091,236.5725L119.6182,243.7834L133.5273,250.9300L147.4364,258.0102L161.3455,265.0220L175.2545,271.9637L189.1636,278.8338L203.0727,285.6307L216.9818,292.3535
            L230.8909,299.0010L244.8000,305.5725L258.7091,312.0673L272.6182,318.4852L286.5273,324.8260L300.4364,331.0898L314.3455,337.2769L328.2545,343.3878L342.1636,349.4234L356.0727,355.3846
            L369.9818,361.2724L383.8909,367.0882L397.8000,372.8332L411.7091,378.5089L425.6182,384.1168L439.5273,389.6583L453.4364,395.1350L467.3455,400.5483L481.2545,405.8997L495.1636,411.1904
            L509.0727,416.4220L522.9818,421.5955L536.8909,426.7123L550.8000,431.7733"/>
   <path d="M91.8000,229.2995L105.7091,236.9825L119.6182,244.5513L133.5273,252.0074L147.4364,259.3523L161.3455,266.5871L175.2545,273.7134L189.1636,280.7323L203.0727,287.6454L216.9818,294.4538
            L230.8909,301.1592L244.8000,307.7628L258.7091,314.2663L272.6182,320.6713L286.5273,326.9796L300.4364,333.1928L314.3455,339.3130L328.2545,345.3422L342.1636,351.2824L356.0727,357.1358
            L369.9818,362.9046L383.8909,368.5911L397.8000,374.1975L411.7091,379.7262L425.6182,385.1793L439.5273,390.5590L453.4364,395.8675L467.3455,401.1068L481.2545,406.2789L495.1636,411.3856
            L509.0727,416.4288L522.9818,421.4101L536.8909,426.3311L550.8000,431.1933"/>
   <path d="M91.8000,229.2995L105.7091,235.4015L119.6182,241.6314L133.5273,247.9777L147.4364,254.4278L161.3455,260.9680L175.2545,267.5839L189.1636,274.2604L203.0727,280.9817L216.9818,287.7318
            L230.8909,294.4944L244.8000,301.2533L258.7091,307.9922L272.6182,314.6956L286.5273,321.3483L300.4364,327.9359L314.3455,334.4448L328.2545,340.8623L342.1636,347.1771L356.0727,353.3787
            L369.9818,359.4577L383.8909,365.4062L397.8000,371.2171L411.7091,376.8845L425.6182,382.4035L439.5273,387.7703L453.4364,392.9819L467.3455,398.0361L481.2545,402.9316L495.1636,407.6677
            L509.0727,412.2443L522.9818,416.6619L536.8909,420.9216L550.8000,425.0249"/>
   <path d="M91.8000,229.2995L105.7091,235.4377L119.6182,241.7384L133.5273,248.1900L147.4364,254.7792L161.3455,261.4910L175.2545,268.3089L189.1636,275.2151L203.0727,282.1903L216.9818,289.2148
            L230.8909,296.2678L244.8000,303.3283L258.7091,310.3752L272.6182,317.3875L286.5273,324.3448L300.4364,331.2276L314.3455,338.0172L328.2545,344.6962L342.1636,351.2487L356.0727,357.6603
            L369.9818,363.9181L383.8909,370.0110L397.8000,375.9293L411.7091,381.6652L425.6182,387.2125L439.5273,392.5661L453.4364,397.7229L467.3455,402.6806L481.2545,407.4385L495.1636,411.9967
            L509.0727,416.3564L522.9818,420.5200L536.8909,424.4901L550.8000,428.2706"/>
   <path d="M91.8000,229.2995L105.7091,236.9162L119.6182,244.4241L133.5273,251.8245L147.4364,259.1185L161.3455,266.3071L175.2545,273.3915L189.1636,280.3729L203.0727,287.2526L216.9818,294.0316
            L230.8909,300.7114L244.8000,307.2933L258.7091,313.7788L272.6182,320.1694L286.5273,326.4668L300.4364,332.6727L314.3455,338.7890L328.2545,344.8176L342.1636,350.7604L356.0727,356.6195
            L369.9818,362.3971L383.8909,368.0953L397.8000,373.7161L411.7091,379.2617L425.6182,384.7343L439.5273,390.1357L453.4364,395.4680L467.3455,400.7331L481.2545,405.9327L495.1636,411.0686
            L509.0727,416.1425L522.9818,421.1559L536.8909,426.1102L550.8000,431.0068"/>
   <path d="M91.8000,229.2995L105.7091,235.5038L119.6182,241.7708L133.5273,248.0925L147.4364,254.4614L161.3455,260.8696L175.2545,267.3095L189.1636,273.7737L203.0727,280.2549L216.9818,286.7458
            L230.8909,293.2398L244.8000,299.7300L258.7091,306.2103L272.6182,312.6747L286.5273,319.1175L300.4364,325.5336L314.3455,331.9181L328.2545,338.2666L342.1636,344.5750L356.0727,350.8397
            L369.9818,357.0574L383.8909,363.2253L397.8000,369.3406L411.7091,375.4012L425.6182,381.4051L439.5273,387.3504L453.4364,393.2356L467.3455,399.0594L481.2545,404.8205L495.1636,410.5179
            L509.0727,416.1506L522.9818,421.7177L536.8909,427.2185L550.8000,432.6523"/>
   <path d="M91.8000,229.2995L105.7091,235.7465L119.6182,242.3191L133.5273,249.0034L147.4364,255.7844L161.3455,262.6461L175.2545,269.5719L189.1636,276.5447L203.0727,283.5471L216.9818,290.5615
            L230.8909,297.5705L244.8000,304.5568L258.7091,311.5038L272.6182,318.3953L286.5273,325.2162L300.4364,331.9520L314.3455,338.5895L328.2545,345.1164L342.1636,351.5218L356.0727,357.7957
            L369.9818,363.9296L383.8909,369.9158L397.8000,375.7482L411.7091,381.4214L425.6182,386.9312L439.5273,392.2743L453.4364,397.4484L467.3455,402.4521L481.2545,407.2845L495.1636,411.9456
            L509.0727,416.4361L522.9818,420.7573L536.8909,424.9108L550.8000,428.8988"/>
   <path d="M91.8000,229.2995L105.7091,236.4479L119.6182,243.6178L133.5273,250.7966L147.4364,257.9720L161.3455,265.1321L175.2545,272.2653L189.1636,279.3607L203.0727,286.4077L216.9818,293.3965
            L230.8909,300.3176L244.8000,307.1625L258.7091,313.9230L272.6182,320.5920L286.5273,327.1630L300.4364,333.6304L314.3455,339.9894L328.2545,346.2360L342.1636,352.3671L356.0727,358.3803
            L369.9818,364.2742L383.8909,370.0478L397.8000,375.7010L411.7091,381.2342L425.6182,386.6484L439.5273,391.9448L453.4364,397.1252L467.3455,402.1916L481.2545,407.1463L495.1636,411.9915
            L509.0727,416.7297L522.9818,421.3636L536.8909,425.8955L550.8000,430.3282"/>
   <path d="M91.8000,229.2995L105.7091,235.7282L119.6182,242.1987L133.5273,248.7031L147.4364,255.2342L161.3455,261.7845L175.2545,268.3470L189.1636,274.9148L203.0727,281.4815L216.9818,288.0407
            L230.8909,294.5863L244.8000,301.1128L258.7091,307.6145L272.6182,314.0866L286.5273,320.5242L300.4364,326.9229L314.3455,333.2788L328.2545,339.5881L342.1636,345.8476L356.0727,352.0542
            L369.9818,358.2055L383.8909,364.2992L397.8000,370.3333L411.7091,376.3062L425.6182,382.2166L439.5273,388.0635L453.4364,393.8460L467.3455,399.5636L481.2545,405.2156L495.1636,410.8020
            L509.0727,416.3225L522.9818,421.7771L536.8909,427.1659L550.8000,432.4889"/>
   <path d="M91.8000,229.2995L105.7091,235.2118L119.6182,241.2602L133.5273,247.4358L147.4364,253.7285L161.3455,260.1272L175.2545,266.6200L189.1636,273.1942L203.0727,279.8363L216.9818,286.5325
            L230.8909,293.2683L244.8000,300.0291L258.7091,306.8002L272.6182,313.5668L286.5273,320.3144L300.4364,327.0289L314.3455,333.6965L328.2545,340.3041L342.1636,346.8393L356.0727,353.2905
            L369.9818,359.6467L383.8909,365.8982L397.8000,372.0358L411.7091,378.0514L425.6182,383.9379L439.5273,389.6890L453.4364,395.2991L467.3455,400.7638L481.2545,406.0793L495.1636,411.2425
            L509.0727,416.2512L522.9818,421.1038L536.8909,425.7994L550.8000,430.3375"/>
   <path d="M91.8000,229.2995L105.7091,235.9894L119.6182,242.7770L133.5273,249.6475L147.4364,256.5851L161.3455,263.5738L175.2545,270.5970L189.1636,277.6383L203.0727,284.6808L216.9818,291.7082
            L230.8909,298.7042L244.8000,305.6531L258.7091,312.5399L272.6182,319.3503L286.5273,326.0711L300.4364,332.6901L314.3455,339.1962L328.2545,345.5798L342.1636,351.8323L356.0727,357.9465
            L369.9818,363.9168L383.8909,369.7383L397.8000,375.4078L411.7091,380.9229L425.6182,386.2823L439.5273,391.4856L453.4364,396.5330L467.3455,401.4255L481.2545,406.1648L495.1636,410.7526
            L509.0727,415.1915L522.9818,419.4840L536.8909,423.6331L550.8000,427.6416"/>
   <path d="M91.8000,229.2995L105.7091,236.3426L119.6182,243.3589L133.5273,250.3428L147.4364,257.2892L161.3455,264.1933L175.2545,271.0507L189.1636,277.8575L203.0727,284.6102L216.9818,291.3056
            L230.8909,297.9410L244.8000,304.5138L258.7091,311.0220L272.6182,317.4637L286.5273,323.8377L300.4364,330.1426L314.3455,336.3778L328.2545,342.5426L342.1636,348.6367L356.0727,354.6601
            L369.9818,360.6129L383.8909,366.4955L397.8000,372.3083L411.7091,378.0521L425.6182,383.7274L439.5273,389.3352L453.4364,394.8763L467.3455,400.3516L481.2545,405.7622L495.1636,411.1089
            L509.0727,416.3928L522.9818,421.6147L536.8909,426.7756L550.8000,431.8765"/>
   <path d="M91.8000,229.2995L105.7091,235.3298L119.6182,241.5390L133.5273,247.9162L147.4364,254.4488L161.3455,261.1218L175.2545,267.9184L189.1636,274.8201L203.0727,281.8066L216.9818,288.8563
            L230.8909,295.9466L244.8000,303.0541L258.7091,310.1550L272.6182,317.2256L286.5273,324.2425L300.4364,331.1833L314.3455,338.0263L328.2545,344.7517L342.1636,351.3408L356.0727,357.7771
            L369.9818,364.0458L383.8909,370.1345L397.8000,376.0323L411.7091,381.7308L425.6182,387.2231L439.5273,392.5046L453.4364,397.5721L467.3455,402.4241L481.2545,407.0604L495.1636,411.4825
            L509.0727,415.6925L522.9818,419.6939L536.8909,423.4909L550.8000,427.0885"/>
   <path d="M91.8000,229.2995L105.7091,235.8603L119.6182,242.5154L133.5273,249.2514L147.4364,256.0544L161.3455,262.9102L175.2545,269.8045L189.1636,276.7229L203.0727,283.6510L216.9818,290.5747
            L230.8909,297.4803L244.8000,304.3543L258.7091,311.1841L272.6182,317.9573L286.5273,324.6628L300.4364,331.2897L314.3455,337.8285L328.2545,344.2702L342.1636,350.6069L356.0727,356.8317
            L369.9818,362.9383L383.8909,368.9216L397.8000,374.7771L411.7091,380.5012L425.6182,386.0910L439.5273,391.5443L453.4364,396.8596L467.3455,402.0356L481.2545,407.0719L495.1636,411.9683
            L509.0727,416.7251L522.9818,421.3430L536.8909,425.8228L550.8000,430.1659"/>
   <path d="M91.8000,229.2995L105.7091,236.5020L119.6182,243.7153L133.5273,250.9260L147.4364,258.1214L161.3455,265.2895L175.2545,272.4187L189.1636,279.4985L203.0727,286.5191L216.9818,293.4713
            L230.8909,300.3467L244.8000,307.1377L258.7091,313.8375L272.6182,320.4400L286.5273,326.9398L300.4364,333.3322L314.3455,339.6134L328.2545,345.7800L342.1636,351.8295L356.0727,357.7598
            L369.9818,363.5695L383.8909,369.2577L397.8000,374.8240L411.7091,380.2683L425.6182,385.5911L439.5273,390.7931L453.4364,395.8751L467.3455,400.8384L481.2545,405.6844L495.1636,410.4145
            L509.0727,415.0305L522.9818,419.5341L536.8909,423.9269L550.8000,428.2109"/>
   <path d="M91.8000,229.2995L105.7091,235.1893L119.6182,241.2644L133.5273,247.5164L147.4364,253.9344L161.3455,260.5057L175.2545,267.2154L189.1636,274.0465L203.0727,280.9802L216.9818,287.9961
            L230.8909,295.0721L244.8000,302.1852L258.7091,309.3114L272.6182,316.4264L286.5273,323.5057L300.4364,330.5252L314.3455,337.4615L328.2545,344.2922L342.1636,350.9962L356.0727,357.5539
            L369.9818,363.9477L383.8909,370.1619L397.8000,376.1828L411.7091,381.9989L425.6182,387.6006L439.5273,392.9808L453.4364,398.1342L467.3455,403.0573L481.2545,407.7487L495.1636,412.2085
            L509.0727,416.4385L522.9818,420.4417L536.8909,424.2224L550.8000,427.7858"/>
   <path d="M91.8000,229.2995L105.7091,236.2353L119.6182,243.2340L133.5273,250.2803L147.4364,257.3586L161.3455,264.4531L175.2545,271.5484L189.1636,278.6291L203.0727,285.6800L216.9818,292.6866
            L230.8909,299.6349L244.8000,306.5116L258.7091,313.3043L272.6182,320.0014L286.5273,326.5925L300.4364,333.0683L314.3455,339.4206L328.2545,345.6427L342.1636,351.7290L356.0727,357.6751
            L369.9818,363.4777L383.8909,369.1348L397.8000,374.6454L411.7091,380.0091L425.6182,385.2268L439.5273,390.2995L453.4364,395.2292L467.3455,400.0180L481.2545,404.6685L495.1636,409.1836
            L509.0727,413.5662L522.9818,417.8195L536.8909,421.9465L550.8000,425.9504"/>
   <path d="M91.8000,229.2995L105.7091,236.2322L119.6182,243.1875L133.5273,250.1543L147.4364,257.1220L161.3455,264.0804L175.2545,271.0196L189.1636,277.9303L203.0727,284.8034L216.9818,291.6308
            L230.8909,298.4047L244.8000,305.1179L258.7091,311.7639L272.6182,318.3372L286.5273,324.8325L300.4364,331.2455L314.3455,337.5727L328.2545,343.8109L342.1636,349.9581L356.0727,356.0124
            L369.9818,361.9727L383.8909,367.8383L397.8000,373.6092L411.7091,379.2853L425.6182,384.8672L439.5273,390.3555L453.4364,395.7512L467.3455,401.0552L481.2545,406.2687L495.1636,411.3930
            L509.0727,416.4292L522.9818,421.3786L536.8909,426.2425L550.8000,431.0221"/>
   <path d="M91.8000,229.2995L105.7091,235.8096L119.6182,242.4298L133.5273,249.1467L147.4364,255.9462L161.3455,262.8128L175.2545,269.7310L189.1636,276.6841L203.0727,283.6555L216.9818,290.6281
            L230.8909,297.5851L244.8000,304.5099L258.7091,311.3862L272.6182,318.1988L286.5273,324.9332L300.4364,331.5763L314.3455,338.1161L328.2545,344.5423L342.1636,350.8461L356.0727,357.0201
            L369.9818,363.0588L383.8909,368.9578L397.8000,374.7144L411.7091,380.3269L425.6182,385.7950L439.5273,391.1191L453.4364,396.3003L467.3455,401.3407L481.2545,406.2425L495.1636,411.0083
            L509.0727,415.6411L522.9818,420.1440L536.8909,424.5200L550.8000,428.7724"/>
   <path d="M91.8000,229.2995L105.7091,235.5040L119.6182,241.8913L133.5273,248.4498L147.4364,255.1654L161.3455,262.0220L175.2545,269.0014L189.1636,276.0836L203.0727,283.2470L216.9818,290.4684
            L230.8909,297.7238L244.8000,304.9885L258.7091,312.2375L272.6182,319.4460L286.5273,326.5896L300.4364,333.6453L314.3455,340.5911L328.2545,347.4067L342.1636,354.0741L356.0727,360.5769
            L369.9818,366.9013L383.8909,373.0357L397.8000,378.9707L411.7091,384.6990L425.6182,390.2156L439.5273,395.5171L453.4364,400.6022L467.3455,405.4707L481.2545,410.1241L495.1636,414.5649
            L509.0727,418.7967L522.9818,422.8239L536.8909,426.6514L550.8000,430.2849"/>
   <path d="M91.8000,229.2995L105.7091,235.0618L119.6182,241.0278L133.5273,247.1901L147.4364,253.5388L161.3455,260.0616L175.2545,266.7435L189.1636,273.5672L203.0727,280.5131L216.9818,287.5593
            L230.8909,294.6821L244.8000,301.8560L258.7091,309.0547L272.6182,316.2508L286.5273,323.4171L300.4364,330.5262L314.3455,337.5520L328.2545,344.4693L342.1636,351.2547L356.0727,357.8869
            L369.9818,364.3467L383.8909,370.6175L397.8000,376.6854L411.7091,382.5389L425.6182,388.1692L439.5273,393.5699L453.4364,398.7370L467.3455,403.6684L481.2545,408.3641L495.1636,412.8259
            L509.0727,417.0568L522.9818,421.0612L536.8909,424.8447L550.8000,428.4135"/>
   <path d="M91.8000,229.2995L105.7091,234.0369L119.6182,239.0704L133.5273,244.4128L147.4364,250.0748L161.3455,256.0631L175.2545,262.3802L189.1636,269.0218L203.0727,275.9761L216.9818,283.2216
            L230.8909,290.7258L244.8000,298.4440L258.7091,306.3192L272.6182,314.2821L286.5273,322.2529L300.4364,330.1443L314.3455,337.8654L328.2545,345.3268L342.1636,352.4453L356.0727,359.1494
            L369.9818,365.3825L383.8909,371.1058L397.8000,376.2986L411.7091,380.9574L425.6182,385.0940L439.5273,388.7323L453.4364,391.9053L467.3455,394.6517L481.2545,397.0131L495.1636,399.0317
            L509.0727,400.7485L522.9818,402.2025L536.8909,403.4292L550.8000,404.4608"/>
   <path d="M91.8000,229.2995L105.7091,235.8457L119.6182,242.5113L133.5273,249.2822L147.4364,256.1430L161.3455,263.0777L175.2545,270.0698L189.1636,277.1021L203.0727,284.1572L216.9818,291.2175
            L230.8909,298.2657L244.8000,305.2844L258.7091,312.2571L272.6182,319.1676L286.5273,326.0005L300.4364,332.7415L314.3455,339.3775L328.2545,345.8961L342.1636,352.2866L356.0727,358.5395
            L369.9818,364.6465L383.8909,370.6008L397.8000,376.3966L411.7091,382.0298L425.6182,387.4971L439.5273,392.7964L453.4364,397.9265L467.3455,402.8873L481.2545,407.6792L495.1636,412.3035
            L509.0727,416.7621L522.9818,421.0571L536.8909,425.1913L550.8000,429.1679"/>
   <path d="M91.8000,229.2995L105.7091,236.3666L119.6182,243.4559L133.5273,250.5551L147.4364,257.6526L161.3455,264.7369L175.2545,271.7970L189.1636,278.8225L203.0727,285.8037L216.9818,292.7310
            L230.8909,299.5958L244.8000,306.3899L258.7091,313.1061L272.6182,319.7375L286.5273,326.2782L300.4364,332.7229L314.3455,339.0672L328.2545,345.3074L342.1636,351.4406L356.0727,357.4643
            L369.9818,363.3771L383.8909,369.1778L397.8000,374.8661L411.7091,380.4420L425.6182,385.9059L439.5273,391.2586L453.4364,396.5012L467.3455,401.6348L481.2545,406.6610L495.1636,411.5813
            L509.0727,416.3973L522.9818,421.1107L536.8909,425.7232L550.8000,430.2365"/>
   <path d="M91.8000,229.2995L105.7091,234.0618L119.6182,239.0897L133.5273,244.3915L147.4364,249.9733L161.3455,255.8386L175.2545,261.9873L189.1636,268.4155L203.0727,275.1139L216.9818,282.0678
            L230.8909,289.2561L244.8000,296.6506L258.7091,304.2165L272.6182,311.9115L286.5273,319.6871L300.4364,327.4894L314.3455,335.2603L328.2545,342.9393L342.1636,350.4660L356.0727,357.7820
            L369.9818,364.8331L383.8909,371.5717L397.8000,377.9577L411.7091,383.9603L425.6182,389.5579L439.5273,394.7386L453.4364,399.4993L467.3455,403.8446L481.2545,407.7862L495.1636,411.3412
            L509.0727,414.5306L522.9818,417.3783L536.8909,419.9101L550.8000,422.1522"/>
   <path d="M91.8000,229.2995L105.7091,233.9300L119.6182,238.8465L133.5273,244.0620L147.4364,249.5874L161.3455,255.4310L175.2545,261.5975L189.1636,268.0867L203.0727,274.8924L216.9818,282.0010
            L230.8909,289.3904L244.8000,297.0285L258.7091,304.8730L272.6182,312.8709L286.5273,320.9590L300.4364,329.0653L314.3455,337.1116L328.2545,345.0162L342.1636,352.6981L356.0727,360.0808
            L369.9818,367.0961L383.8909,373.6877L397.8000,379.8129L411.7091,385.4443L425.6182,390.5694L439.5273,395.1894L453.4364,399.3176L467.3455,402.9766L481.2545,406.1963L495.1636,409.0108
            L509.0727,411.4570L522.9818,413.5721L536.8909,415.3929L550.8000,416.9541"/>
   <path d="M91.8000,229.2995L105.7091,234.4662L119.6182,239.9304L133.5273,245.7012L147.4364,251.7848L161.3455,258.1830L175.2545,264.8924L189.1636,271.9031L203.0727,279.1975L216.9818,286.7489
            L230.8909,294.5206L244.8000,302.4657L258.7091,310.5272L272.6182,318.6386L286.5273,326.7260L300.4364,334.7105L314.3455,342.5122L328.2545,350.0533L342.1636,357.2626L356.0727,364.0786
            L369.9818,370.4524L383.8909,376.3497L397.8000,381.7504L411.7091,386.6491L425.6182,391.0528L439.5273,394.9789L453.4364,398.4532L467.3455,401.5071L481.2545,404.1754L495.1636,406.4946
            L509.0727,408.5009L522.9818,410.2297L536.8909,411.7140L550.8000,412.9847"/>
   <path d="M91.8000,229.2995L105.7091,234.0896L119.6182,239.1118L133.5273,244.3711L147.4364,249.8701L161.3455,255.6093L175.2545,261.5858L189.1636,267.7937L203.0727,274.2224L216.9818,280.8573
            L230.8909,287.6783L244.8000,294.6604L258.7091,301.7729L272.6182,308.9803L286.5273,316.2419L300.4364,323.5133L314.3455,330.7470L328.2545,337.8939L342.1636,344.9047L356.0727,351.7318
            L369.9818,358.3306L383.8909,364.6609L397.8000,370.6887L411.7091,376.3864L425.6182,381.7338L439.5273,386.7179L453.4364,391.3330L467.3455,395.5799L481.2545,399.4651L495.1636,403.0003
            L509.0727,406.2009L522.9818,409.0851L536.8909,411.6733L550.8000,413.9871"/>
   <path d="M91.8000,229.2995L105.7091,233.7241L119.6182,238.4503L133.5273,243.4870L147.4364,248.8395L161.3455,254.5094L175.2545,260.4932L189.1636,266.7818L203.0727,273.3592L216.9818,280.2022
            L230.8909,287.2797L244.8000,294.5526L258.7091,301.9743L272.6182,309.4913L286.5273,317.0444L300.4364,324.5707L314.3455,332.0057L328.2545,339.2852L342.1636,346.3485L356.0727,353.1400
            L369.9818,359.6113L383.8909,365.7229L397.8000,371.4446L411.7091,376.7565L425.6182,381.6481L439.5273,386.1178L453.4364,390.1721L467.3455,393.8239L481.2545,397.0918L495.1636,399.9978
            L509.0727,402.5669L522.9818,404.8256L536.8909,406.8009L550.8000,408.5195"/>
   <path d="M91.8000,229.2995L105.7091,233.8967L119.6182,238.7544L133.5273,243.8842L147.4364,249.2962L161.3455,254.9987L175.2545,260.9972L189.1636,267.2936L203.0727,273.8853L216.9818,280.7639
            L230.8909,287.9145L244.8000,295.3143L258.7091,302.9320L272.6182,310.7271L286.5273,318.6498L300.4364,326.6418L314.3455,334.6372L328.2545,342.5649L342.1636,350.3507L356.0727,357.9213
            L369.9818,365.2069L383.8909,372.1450L397.8000,378.6832L411.7091,384.7812L425.6182,390.4117L439.5273,395.5610L453.4364,400.2276L467.3455,404.4214L481.2545,408.1610L495.1636,411.4722
            L509.0727,414.3854L522.9818,416.9340L536.8909,419.1523L550.8000,421.0747"/>
   <path d="M91.8000,229.2995L105.7091,234.1554L119.6182,239.2807L133.5273,244.6853L147.4364,250.3773L161.3455,256.3622L175.2545,262.6418L189.1636,269.2133L203.0727,276.0686L216.9818,283.1926
            L230.8909,290.5628L244.8000,298.1479L258.7091,305.9077L272.6182,313.7927L286.5273,321.7451L300.4364,329.6994L314.3455,337.5849L328.2545,345.3282L342.1636,352.8565L356.0727,360.1008
            L369.9818,366.9993L383.8909,373.5002L397.8000,379.5636L411.7091,385.1628L425.6182,390.2843L439.5273,394.9269L453.4364,399.1004L467.3455,402.8234L481.2545,406.1214L495.1636,409.0245
            L509.0727,411.5658L522.9818,413.7792L536.8909,415.6987L550.8000,417.3570"/>
   <path d="M91.8000,229.2995L105.7091,233.1825L119.6182,237.3730L133.5273,241.8920L147.4364,246.7596L161.3455,251.9943L175.2545,257.6114L189.1636,263.6220L203.0727,270.0305L216.9818,276.8328
            L230.8909,284.0140L244.8000,291.5457L258.7091,299.3844L272.6182,307.4702L286.5273,315.7262L300.4364,324.0606L314.3455,332.3694L328.2545,340.5419L342.1636,348.4668L356.0727,356.0395
            L369.9818,363.1689L383.8909,369.7827L397.8000,375.8308L411.7091,381.2864L425.6182,386.1447L439.5273,390.4200L453.4364,394.1416L467.3455,397.3496L481.2545,400.0908L495.1636,402.4147
            L509.0727,404.3711L522.9818,406.0079L536.8909,407.3695L550.8000,408.4964"/>
   <path d="M91.8000,229.2995L105.7091,234.5646L119.6182,240.1270L133.5273,245.9917L147.4364,252.1603L161.3455,258.6297L175.2545,265.3915L189.1636,272.4315L203.0727,279.7283L216.9818,287.2530
            L230.8909,294.9694L244.8000,302.8332L258.7091,310.7934L272.6182,318.7930L286.5273,326.7705L300.4364,334.6620L314.3455,342.4037L328.2545,349.9339L342.1636,357.1958L356.0727,364.1391
            L369.9818,370.7224L383.8909,376.9132L397.8000,382.6894L411.7091,388.0385L425.6182,392.9573L439.5273,397.4506L453.4364,401.5305L467.3455,405.2141L481.2545,408.5232L495.1636,411.4820
            L509.0727,414.1167L522.9818,416.4539L536.8909,418.5205L550.8000,420.3422"/>
   <path d="M91.8000,229.2995L105.7091,235.6371L119.6182,242.0732L133.5273,248.5975L147.4364,255.1989L161.3455,261.8659L175.2545,268.5866L189.1636,275.3488L203.0727,282.1400L216.9818,288.9476
            L230.8909,295.7591L244.8000,302.5619L258.7091,309.3441L272.6182,316.0937L286.5273,322.7995L300.4364,329.4510L314.3455,336.0384L328.2545,342.5527L342.1636,348.9861L356.0727,355.3315
            L369.9818,361.5830L383.8909,367.7356L397.8000,373.7853L411.7091,379.7291L425.6182,385.5646L439.5273,391.2905L453.4364,396.9058L467.3455,402.4101L481.2545,407.8037L495.1636,413.0870
            L509.0727,418.2609L522.9818,423.3262L536.8909,428.2842L550.8000,433.1360"/>
   <path d="M91.8000,229.2995L105.7091,235.3489L119.6182,241.6060L133.5273,248.0603L147.4364,254.6983L161.3455,261.5034L175.2545,268.4559L189.1636,275.5331L203.0727,282.7097L216.9818,289.9578
            L230.8909,297.2475L244.8000,304.5474L258.7091,311.8251L272.6182,319.0480L286.5273,326.1840L300.4364,333.2020L314.3455,340.0724L328.2545,346.7682L342.1636,353.2649L356.0727,359.5412
            L369.9818,365.5790L383.8909,371.3638L397.8000,376.8843L411.7091,382.1330L425.6182,387.1053L439.5273,391.7997L453.4364,396.2174L467.3455,400.3620L481.2545,404.2392L495.1636,407.8565
            L509.0727,411.2227L522.9818,414.3478L536.8909,417.2428L550.8000,419.9190"/>
   <path d="M91.8000,229.2995L105.7091,234.2892L119.6182,239.5372L133.5273,245.0509L147.4364,250.8353L161.3455,256.8928L175.2545,263.2225L189.1636,269.8193L203.0727,276.6732L216.9818,283.7688
            L230.8909,291.0841L244.8000,298.5908L258.7091,306.2532L272.6182,314.0290L286.5273,321.8694L300.4364,329.7200L314.3455,337.5226L328.2545,345.2167L342.1636,352.7415L356.0727,360.0388
            L369.9818,367.0545L383.8909,373.7415L397.8000,380.0604L411.7091,385.9817L425.6182,391.4851L439.5273,396.5605L453.4364,401.2067L467.3455,405.4307L481.2545,409.2463L495.1636,412.6728
            L509.0727,415.7332L522.9818,418.4534L536.8909,420.8607L550.8000,422.9826"/>
   <path d="M91.8000,229.2995L105.7091,234.5169L119.6182,240.0038L133.5273,245.7641L147.4364,251.7987L161.3455,258.1043L175.2545,264.6730L189.1636,271.4911L203.0727,278.5385L216.9818,285.7882
            L230.8909,293.2058L244.8000,300.7494L258.7091,308.3703L272.6182,316.0136L286.5273,323.6199L300.4364,331.1272L314.3455,338.4729L328.2545,345.5967L342.1636,352.4427L356.0727,358.9622
            L369.9818,365.1148L383.8909,370.8701L397.8000,376.2080L411.7091,381.1188L425.6182,385.6021L439.5273,389.6661L453.4364,393.3256L467.3455,396.6013L481.2545,399.5172L495.1636,402.1003
            L509.0727,404.3784L522.9818,406.3797L536.8909,408.1318L550.8000,409.6610"/>
   <path d="M91.8000,229.2995L105.7091,233.9643L119.6182,238.9303L133.5273,244.2050L147.4364,249.7926L161.3455,255.6929L175.2545,261.9012L189.1636,268.4066L203.0727,275.1918L216.9818,282.2323
            L230.8909,289.4960L244.8000,296.9432L258.7091,304.5271L272.6182,312.1945L286.5273,319.8872L300.4364,327.5437L314.3455,335.1014L328.2545,342.4988L342.1636,349.6778L356.0727,356.5855
            L369.9818,363.1763L383.8909,369.4133L397.8000,375.2684L411.7091,380.7231L425.6182,385.7680L439.5273,390.4019L453.4364,394.6310L467.3455,398.4678L481.2545,401.9294L495.1636,405.0368
            L509.0727,407.8131L522.9818,410.2833L536.8909,412.4725L550.8000,414.4058"/>
   <path d="M91.8000,229.2995L105.7091,234.2333L119.6182,239.4676L133.5273,245.0044L147.4364,250.8411L161.3455,256.9703L175.2545,263.3791L189.1636,270.0482L203.0727,276.9517L216.9818,284.0572
            L230.8909,291.3254L244.8000,298.7112L258.7091,306.1643L272.6182,313.6306L286.5273,321.0538L300.4364,328.3772L314.3455,335.5454L328.2545,342.5067L342.1636,349.2142L356.0727,355.6274
            L369.9818,361.7133L383.8909,367.4469L397.8000,372.8111L411.7091,377.7969L425.6182,382.4022L439.5273,386.6316L453.4364,390.4949L467.3455,394.0063L481.2545,397.1834L495.1636,400.0462
            L509.0727,402.6160L522.9818,404.9151L536.8909,406.9656L550.8000,408.7894"/>
   <path d="M91.8000,229.2995L105.7091,236.1515L119.6182,243.0450L133.5273,249.9686L147.4364,256.9110L161.3455,263.8611L175.2545,270.8079L189.1636,277.7411L203.0727,284.6505L216.9818,291.5263
            L230.8909,298.3594L244.8000,305.1411L258.7091,311.8632L272.6182,318.5185L286.5273,325.1000L300.4364,331.6019L314.3455,338.0189L328.2545,344.3463L342.1636,350.5806L356.0727,356.7186
            L369.9818,362.7581L383.8909,368.6972L397.8000,374.5350L411.7091,380.2708L425.6182,385.9046L439.5273,391.4367L453.4364,396.8676L467.3455,402.1984L481.2545,407.4300L495.1636,412.5639
            L509.0727,417.6014L522.9818,422.5440L536.8909,427.3933L550.8000,432.1507"/>
   <path d="M91.8000,229.2995L105.7091,234.1586L119.6182,239.2806L133.5273,244.6747L147.4364,250.3486L161.3455,256.3072L175.2545,262.5523L189.1636,269.0817L203.0727,275.8880L216.9818,282.9578
            L230.8909,290.2711L244.8000,297.8002L258.7091,305.5092L272.6182,313.3539L286.5273,321.2824L300.4364,329.2358L314.3455,337.1495L328.2545,344.9559L342.1636,352.5864L356.0727,359.9747
            L369.9818,367.0595L383.8909,373.7874L397.8000,380.1148L411.7091,386.0091L425.6182,391.4499L439.5273,396.4285L453.4364,400.9466L467.3455,405.0156L481.2545,408.6543L495.1636,411.8874
            L509.0727,414.7434L522.9818,417.2532L536.8909,419.4485L550.8000,421.3610"/>
   <path d="M91.8000,229.2995L105.7091,235.6985L119.6182,242.2562L133.5273,248.9597L147.4364,255.7943L161.3455,262.7432L175.2545,269.7879L189.1636,276.9085L203.0727,284.0833L216.9818,291.2895
            L230.8909,298.5034L244.8000,305.7007L258.7091,312.8570L272.6182,319.9480L286.5273,326.9504L300.4364,333.8418L314.3455,340.6015L328.2545,347.2108L342.1636,353.6531L356.0727,359.9147
            L369.9818,365.9842L383.8909,371.8532L397.8000,377.5157L411.7091,382.9686L425.6182,388.2109L439.5273,393.2437L453.4364,398.0701L467.3455,402.6947L481.2545,407.1230L495.1636,411.3617
            L509.0727,415.4181L522.9818,419.2998L536.8909,423.0148L550.8000,426.5708"/>
   <path d="M91.8000,229.2995L105.7091,233.5852L119.6182,238.0838L133.5273,242.8036L147.4364,247.7522L161.3455,252.9360L175.2545,258.3598L189.1636,264.0265L203.0727,269.9364L216.9818,276.0865
            L230.8909,282.4704L244.8000,289.0771L258.7091,295.8907L272.6182,302.8902L286.5273,310.0486L300.4364,317.3329L314.3455,324.7047L328.2545,332.1200L342.1636,339.5304L356.0727,346.8843
            L369.9818,354.1283L383.8909,361.2091L397.8000,368.0751L411.7091,374.6788L425.6182,380.9783L439.5273,386.9386L453.4364,392.5328L467.3455,397.7424L481.2545,402.5575L495.1636,406.9762
            L509.0727,411.0039L522.9818,414.6522L536.8909,417.9377L550.8000,420.8807"/>
   <path d="M91.8000,229.2995L105.7091,233.7838L119.6182,238.5747L133.5273,243.6888L147.4364,249.1406L161.3455,254.9420L175.2545,261.1006L189.1636,267.6182L203.0727,274.4891L216.9818,281.6985
            L230.8909,289.2199L244.8000,297.0141L258.7091,305.0281L272.6182,313.1943L286.5273,321.4322L300.4364,329.6505L314.3455,337.7511L328.2545,345.6339L342.1636,353.2033L356.0727,360.3733
            L369.9818,367.0732L383.8909,373.2506L397.8000,378.8734L411.7091,383.9295L425.6182,388.4249L439.5273,392.3805L453.4364,395.8289L467.3455,398.8099L481.2545,401.3682L495.1636,403.5494
            L509.0727,405.3987L522.9818,406.9591L536.8909,408.2702L550.8000,409.3679"/>
   <path d="M91.8000,229.2995L105.7091,233.7768L119.6182,238.5330L133.5273,243.5825L147.4364,248.9385L161.3455,254.6119L175.2545,260.6109L189.1636,266.9400L203.0727,273.5981L216.9818,280.5779
            L230.8909,287.8640L244.8000,295.4317L258.7091,303.2459L272.6182,311.2604L286.5273,319.4175L300.4364,327.6490L314.3455,335.8778L328.2545,344.0206L342.1636,351.9916L356.0727,359.7065
            L369.9818,367.0871L383.8909,374.0653L397.8000,380.5864L411.7091,386.6112L425.6182,392.1170L439.5273,397.0965L453.4364,401.5568L467.3455,405.5168L481.2545,409.0042L495.1636,412.0533
            L509.0727,414.7021L522.9818,416.9901L536.8909,418.9566L550.8000,420.6394"/>
   <path d="M91.8000,229.2995L105.7091,236.1528L119.6182,243.0336L133.5273,249.9317L147.4364,256.8375L161.3455,263.7417L175.2545,270.6351L189.1636,277.5091L203.0727,284.3555L216.9818,291.1664
            L230.8909,297.9344L244.8000,304.6524L258.7091,311.3140L272.6182,317.9130L286.5273,324.4441L300.4364,330.9021L314.3455,337.2826L328.2545,343.5818L342.1636,349.7961L356.0727,355.9228
            L369.9818,361.9596L383.8909,367.9047L397.8000,373.7566L411.7091,379.5146L425.6182,385.1780L439.5273,390.7467L453.4364,396.2210L467.3455,401.6011L481.2545,406.8876L495.1636,412.0814
            L509.0727,417.1833L522.9818,422.1944L536.8909,427.1157L550.8000,431.9483"/>
   <path d="M91.8000,229.2995L105.7091,235.1861L119.6182,241.2357L133.5273,247.4393L147.4364,253.7860L161.3455,260.2635L175.2545,266.8581L189.1636,273.5546L203.0727,280.3368L216.9818,287.1871
            L230.8909,294.0874L244.8000,301.0189L258.7091,307.9623L272.6182,314.8983L286.5273,321.8079L300.4364,328.6723L314.3455,335.4734L328.2545,342.1939L342.1636,348.8177L356.0727,355.3296
            L369.9818,361.7159L383.8909,367.9642L397.8000,374.0635L411.7091,380.0042L425.6182,385.7782L439.5273,391.3788L453.4364,396.8005L467.3455,402.0393L481.2545,407.0923L495.1636,411.9576
            L509.0727,416.6347L522.9818,421.1237L536.8909,425.4259L550.8000,429.5430"/>
   <path d="M91.8000,229.2995L105.7091,235.4298L119.6182,241.6667L133.5273,248.0009L147.4364,254.4224L161.3455,260.9204L175.2545,267.4836L189.1636,274.1002L203.0727,280.7578L216.9818,287.4437
            L230.8909,294.1449L244.8000,300.8484L258.7091,307.5412L272.6182,314.2103L286.5273,320.8432L300.4364,327.4277L314.3455,333.9525L328.2545,340.4068L342.1636,346.7807L356.0727,353.0656
            L369.9818,359.2537L383.8909,365.3384L397.8000,371.3144L411.7091,377.1775L425.6182,382.9246L439.5273,388.5537L453.4364,394.0639L467.3455,399.4551L481.2545,404.7280L495.1636,409.8842
            L509.0727,414.9258L522.9818,419.8552L536.8909,424.6754L550.8000,429.3897"/>
   <path d="M91.8000,229.2995L105.7091,234.0307L119.6182,239.0355L133.5273,244.3257L147.4364,249.9114L161.3455,255.8002L175.2545,261.9964L189.1636,268.4996L203.0727,275.3042L216.9818,282.3975
            L230.8909,289.7586L244.8000,297.3577L258.7091,305.1550L272.6182,313.1003L286.5273,321.1337L300.4364,329.1865L314.3455,337.1833L328.2545,345.0452L342.1636,352.6931L356.0727,360.0514
            L369.9818,367.0525L383.8909,373.6395L397.8000,379.7689L411.7091,385.4118L425.6182,390.5541L439.5273,395.1955L453.4364,399.3478L467.3455,403.0322L481.2545,406.2776L495.1636,409.1175
            L509.0727,411.5880L522.9818,413.7261L536.8909,415.5683L550.8000,417.1492"/>
   <path d="M91.8000,229.2995L105.7091,233.7126L119.6182,238.4230L133.5273,243.4474L147.4364,248.8014L161.3455,254.4981L175.2545,260.5472L189.1636,266.9536L203.0727,273.7155L216.9818,280.8228
            L230.8909,288.2548L244.8000,295.9790L258.7091,303.9490L272.6182,312.1042L286.5273,320.3698L300.4364,328.6587L314.3455,336.8745L328.2545,344.9166L342.1636,352.6850L356.0727,360.0871
            L369.9818,367.0434L383.8909,373.4916L397.8000,379.3895L411.7091,384.7158L425.6182,389.4690L439.5273,393.6642L453.4364,397.3302L467.3455,400.5052L481.2545,403.2334L495.1636,405.5615
            L509.0727,407.5361L522.9818,409.2022L536.8909,410.6019L550.8000,411.7731"/>
   <path d="M91.8000,229.2995L105.7091,234.3232L119.6182,239.6648L133.5273,245.3287L147.4364,251.3147L161.3455,257.6174L175.2545,264.2245L189.1636,271.1166L203.0727,278.2663L216.9818,285.6375
            L230.8909,293.1859L244.8000,300.8592L258.7091,308.5986L272.6182,316.3401L286.5273,324.0167L300.4364,331.5613L314.3455,338.9088L328.2545,345.9991L342.1636,352.7792L356.0727,359.2049
            L369.9818,365.2423L383.8909,370.8678L397.8000,376.0681L411.7091,380.8397L425.6182,385.1876L439.5273,389.1241L453.4364,392.6670L467.3455,395.8386L481.2545,398.6637L495.1636,401.1692
            L509.0727,403.3823L522.9818,405.3301L536.8909,407.0389L550.8000,408.5337"/>
   <path d="M91.8000,229.2995L105.7091,233.0767L119.6182,237.2348L133.5273,241.8044L147.4364,246.8141L161.3455,252.2892L175.2545,258.2489L189.1636,264.7032L203.0727,271.6492L216.9818,279.0675
            L230.8909,286.9180L244.8000,295.1369L258.7091,303.6355L272.6182,312.3012L286.5273,321.0012L300.4364,329.5902L314.3455,337.9203L328.2545,345.8517L342.1636,353.2641L356.0727,360.0642
            L369.9818,366.1910L383.8909,371.6164L397.8000,376.3424L411.7091,380.3958L425.6182,383.8218L439.5273,386.6777L453.4364,389.0268L467.3455,390.9337L481.2545,392.4611L495.1636,393.6673
            L509.0727,394.6050L522.9818,395.3210L536.8909,395.8557L550.8000,396.2437"/>
   <path d="M91.8000,229.2995L105.7091,234.3083L119.6182,239.6043L133.5273,245.1957L147.4364,251.0882L161.3455,257.2830L175.2545,263.7770L189.1636,270.5607L203.0727,277.6175L216.9818,284.9226
            L230.8909,292.4424L244.8000,300.1337L258.7091,307.9443L272.6182,315.8132L286.5273,323.6727L300.4364,331.4504L314.3455,339.0721L328.2545,346.4654L342.1636,353.5628L356.0727,360.3049
            L369.9818,366.6431L383.8909,372.5413L397.8000,377.9766L411.7091,382.9390L425.6182,387.4302L439.5273,391.4624L453.4364,395.0559L467.3455,398.2370L481.2545,401.0361L495.1636,403.4861
            L509.0727,405.6203L522.9818,407.4716L536.8909,409.0718L550.8000,410.4505"/>
   <path d="M91.8000,229.2995L105.7091,234.2171L119.6182,239.4146L133.5273,244.9027L147.4364,250.6892L161.3455,256.7788L175.2545,263.1718L189.1636,269.8627L203.0727,276.8393L216.9818,284.0810
            L230.8909,291.5577L244.8000,299.2290L258.7091,307.0439L272.6182,314.9410L286.5273,322.8498L300.4364,330.6932L314.3455,338.3900L328.2545,345.8594L342.1636,353.0253L356.0727,359.8197
            L369.9818,366.1869L383.8909,372.0854L397.8000,377.4895L411.7091,382.3887L425.6182,386.7867L439.5273,390.6993L453.4364,394.1515L467.3455,397.1750L481.2545,399.8058L495.1636,402.0818
            L509.0727,404.0410L522.9818,405.7201L536.8909,407.1538L550.8000,408.3741"/>
   <path d="M91.8000,229.2995L105.7091,234.2360L119.6182,239.4512L133.5273,244.9544L147.4364,250.7522L161.3455,256.8479L175.2545,263.2399L189.1636,269.9211L203.0727,276.8774L216.9818,284.0862
            L230.8909,291.5161L244.8000,299.1256L258.7091,306.8634L272.6182,314.6685L286.5273,322.4721L300.4364,330.1992L314.3455,337.7726L328.2545,345.1156L342.1636,352.1565L356.0727,358.8321
            L369.9818,365.0905L383.8909,370.8938L397.8000,376.2181L411.7091,381.0541L425.6182,385.4055L439.5273,389.2869L453.4364,392.7220L467.3455,395.7404L481.2545,398.3759L495.1636,400.6643
            L509.0727,402.6415L522.9818,404.3426L536.8909,405.8007L550.8000,407.0466"/>
   <path d="M91.8000,229.2995L105.7091,234.0870L119.6182,239.1463L133.5273,244.4888L147.4364,250.1241L161.3455,256.0594L175.2545,262.2982L189.1636,268.8395L203.0727,275.6764L216.9818,282.7950
            L230.8909,290.1730L244.8000,297.7787L258.7091,305.5702L272.6182,313.4951L286.5273,321.4909L300.4364,329.4869L314.3455,337.4055L328.2545,345.1662L342.1636,352.6893L356.0727,359.8995
            L369.9818,366.7306L383.8909,373.1282L397.8000,379.0522L411.7091,384.4779L425.6182,389.3959L439.5273,393.8104L453.4364,397.7377L467.3455,401.2029L481.2545,404.2380L495.1636,406.8791
            L509.0727,409.1640L522.9818,411.1308L536.8909,412.8164L550.8000,414.2555"/>
   <path d="M91.8000,229.2995L105.7091,233.8082L119.6182,238.5941L133.5273,243.6633L147.4364,249.0193L161.3455,254.6623L175.2545,260.5887L189.1636,266.7902L203.0727,273.2536L216.9818,279.9597
            L230.8909,286.8837L244.8000,293.9945L258.7091,301.2548L272.6182,308.6219L286.5273,316.0479L300.4364,323.4811L314.3455,330.8672L328.2545,338.1508L342.1636,345.2772L356.0727,352.1941
            L369.9818,358.8532L383.8909,365.2116L397.8000,371.2333L411.7091,376.8894L425.6182,382.1591L439.5273,387.0292L453.4364,391.4944L467.3455,395.5559L481.2545,399.2213L495.1636,402.5030
            L509.0727,405.4179L522.9818,407.9857L536.8909,410.2285L550.8000,412.1694"/>
   <path d="M91.8000,229.2995L105.7091,233.8122L119.6182,238.6594L133.5273,243.8522L147.4364,249.3983L161.3455,255.3007L175.2545,261.5563L189.1636,268.1554L203.0727,275.0802L216.9818,282.3038
            L230.8909,289.7900L244.8000,297.4932L258.7091,305.3582L272.6182,313.3220L286.5273,321.3148L300.4364,329.2629L314.3455,337.0906L328.2545,344.7239L342.1636,352.0928L356.0727,359.1344
            L369.9818,365.7953L383.8909,372.0324L397.8000,377.8149L411.7091,383.1234L425.6182,387.9501L439.5273,392.2974L453.4364,396.1767L467.3455,399.6064L481.2545,402.6109L495.1636,405.2183
            L509.0727,407.4591L522.9818,409.3653L536.8909,410.9689L550.8000,412.3010"/>
   <path d="M91.8000,229.2995L105.7091,233.8880L119.6182,238.7911L133.5273,244.0178L147.4364,249.5740L161.3455,255.4615L175.2545,261.6770L189.1636,268.2116L203.0727,275.0497L216.9818,282.1687
            L230.8909,289.5380L244.8000,297.1197L258.7091,304.8685L272.6182,312.7323L286.5273,320.6539L300.4364,328.5725L314.3455,336.4253L328.2545,344.1503L342.1636,351.6879L356.0727,358.9833
            L369.9818,365.9881L383.8909,372.6616L397.8000,378.9720L411.7091,384.8961L425.6182,390.4198L439.5273,395.5372L453.4364,400.2499L467.3455,404.5658L481.2545,408.4983L495.1636,412.0647
            L509.0727,415.2854L522.9818,418.1827L536.8909,420.7802L550.8000,423.1015"/>
   <path d="M91.8000,229.2995L105.7091,235.3909L119.6182,241.6290L133.5273,248.0029L147.4364,254.5006L161.3455,261.1081L175.2545,267.8105L189.1636,274.5911L203.0727,281.4323L216.9818,288.3153
            L230.8909,295.2209L244.8000,302.1289L258.7091,309.0193L272.6182,315.8722L286.5273,322.6679L300.4364,329.3880L314.3455,336.0147L328.2545,342.5322L342.1636,348.9260L356.0727,355.1837
            L369.9818,361.2949L383.8909,367.2512L397.8000,373.0463L411.7091,378.6758L425.6182,384.1372L439.5273,389.4297L453.4364,394.5536L467.3455,399.5109L481.2545,404.3042L495.1636,408.9370
            L509.0727,413.4136L522.9818,417.7383L536.8909,421.9159L550.8000,425.9515"/>
   <path d="M91.8000,229.2995L105.7091,235.7813L119.6182,242.3779L133.5273,249.0765L147.4364,255.8635L161.3455,262.7243L175.2545,269.6434L189.1636,276.6050L203.0727,283.5924L216.9818,290.5891
            L230.8909,297.5780L244.8000,304.5426L258.7091,311.4665L272.6182,318.3340L286.5273,325.1304L300.4364,331.8417L314.3455,338.4556L328.2545,344.9608L342.1636,351.3480L356.0727,357.6089
            L369.9818,363.7373L383.8909,369.7283L397.8000,375.5783L411.7091,381.2854L425.6182,386.8486L439.5273,392.2681L453.4364,397.5449L467.3455,402.6805L481.2545,407.6774L495.1636,412.5382
            L509.0727,417.2657L522.9818,421.8632L536.8909,426.3338L550.8000,430.6809"/>
   <path d="M91.8000,229.2995L105.7091,233.9471L119.6182,238.9018L133.5273,244.1778L147.4364,249.7867L161.3455,255.7368L175.2545,262.0310L189.1636,268.6658L203.0727,275.6295L216.9818,282.9001
            L230.8909,290.4440L244.8000,298.2148L258.7091,306.1530L272.6182,314.1861L286.5273,322.2308L300.4364,330.1961L314.3455,337.9877L328.2545,345.5129L342.1636,352.6862L356.0727,359.4345
            L369.9818,365.7008L383.8909,371.4461L397.8000,376.6507L411.7091,381.3124L425.6182,385.4444L439.5273,389.0723L453.4364,392.2304L467.3455,394.9586L481.2545,397.2998L495.1636,399.2971
            L509.0727,400.9921L522.9818,402.4243L536.8909,403.6297L550.8000,404.6408"/>
   <path d="M91.8000,229.2995L105.7091,234.2732L119.6182,239.5037L133.5273,244.9980L147.4364,250.7606L161.3455,256.7932L175.2545,263.0941L189.1636,269.6572L203.0727,276.4716L216.9818,283.5205
            L230.8909,290.7809L244.8000,298.2228L258.7091,305.8095L272.6182,313.4974L286.5273,321.2367L300.4364,328.9726L314.3455,336.6465L328.2545,344.1984L342.1636,351.5686L356.0727,358.7003
            L369.9818,365.5417L383.8909,372.0480L397.8000,378.1828L411.7091,383.9191L425.6182,389.2399L439.5273,394.1375L453.4364,398.6129L467.3455,402.6749L481.2545,406.3387L495.1636,409.6244
            L509.0727,412.5558L522.9818,415.1586L536.8909,417.4599L550.8000,419.4870"/>
   <path d="M91.8000,229.2995L105.7091,234.5701L119.6182,240.1197L133.5273,245.9534L147.4364,252.0730L161.3455,258.4760L175.2545,265.1545L189.1636,272.0946L203.0727,279.2753L216.9818,286.6676
            L230.8909,294.2343L244.8000,301.9298L258.7091,309.7004L272.6182,317.4859L286.5273,325.2207L300.4364,332.8367L314.3455,340.2657L328.2545,347.4426L342.1636,354.3082L356.0727,360.8118
            L369.9818,366.9133L383.8909,372.5838L397.8000,377.8066L411.7091,382.5763L425.6182,386.8975L439.5273,390.7838L453.4364,394.2557L467.3455,397.3385L481.2545,400.0609L495.1636,402.4535
            L509.0727,404.5472L522.9818,406.3725L536.8909,407.9585L550.8000,409.3326"/>
   <path d="M91.8000,229.2995L105.7091,234.2641L119.6182,239.4720L133.5273,244.9273L147.4364,250.6312L161.3455,256.5826L175.2545,262.7765L189.1636,269.2042L203.0727,275.8524L216.9818,282.7028
            L230.8909,289.7318L244.8000,296.9105L258.7091,304.2044L272.6182,311.5743L286.5273,318.9763L300.4364,326.3635L314.3455,333.6865L328.2545,340.8957L342.1636,347.9419L356.0727,354.7791
            L369.9818,361.3647L383.8909,367.6621L397.8000,373.6406L411.7091,379.2769L425.6182,384.5547L439.5273,389.4649L453.4364,394.0053L467.3455,398.1796L481.2545,401.9968L495.1636,405.4701
            L509.0727,408.6160L522.9818,411.4536L536.8909,414.0033L550.8000,416.2864"/>
   <path d="M91.8000,229.2995L105.7091,235.1010L119.6182,240.9599L133.5273,246.8728L147.4364,252.8364L161.3455,258.8473L175.2545,264.9024L189.1636,270.9983L203.0727,277.1320L216.9818,283.3003
            L230.8909,289.5004L244.8000,295.7292L258.7091,301.9841L272.6182,308.2625L286.5273,314.5619L300.4364,320.8802L314.3455,327.2152L328.2545,333.5652L342.1636,339.9286L356.0727,346.3038
            L369.9818,352.6897L383.8909,359.0853L397.8000,365.4897L411.7091,371.9022L425.6182,378.3222L439.5273,384.7492L453.4364,391.1827L467.3455,397.6225L481.2545,404.0681L495.1636,410.5194
            L509.0727,416.9759L522.9818,423.4375L536.8909,429.9037L550.8000,436.3742"/>
   <path d="M91.8000,229.2995L105.7091,235.3756L119.6182,241.6657L133.5273,248.1597L147.4364,254.8444L161.3455,261.7038L175.2545,268.7184L189.1636,275.8659L203.0727,283.1208L216.9818,290.4550
            L230.8909,297.8377L244.8000,305.2364L258.7091,312.6172L272.6182,319.9454L286.5273,327.1863L300.4364,334.3061L314.3455,341.2726L328.2545,348.0559L342.1636,354.6291L356.0727,360.9688
            L369.9818,367.0558L383.8909,372.8750L397.8000,378.4157L411.7091,383.6714L425.6182,388.6395L439.5273,393.3214L453.4364,397.7215L467.3455,401.8471L481.2545,405.7076L495.1636,409.3141
            L509.0727,412.6792L522.9818,415.8162L536.8909,418.7386L550.8000,421.4604"/>
   <path d="M91.8000,229.2995L105.7091,233.7816L119.6182,238.5311L133.5273,243.5616L147.4364,248.8855L161.3455,254.5136L175.2545,260.4538L189.1636,266.7104L203.0727,273.2828L216.9818,280.1642
            L230.8909,287.3400L244.8000,294.7869L258.7091,302.4712L272.6182,310.3480L286.5273,318.3615L300.4364,326.4450L314.3455,334.5228L328.2545,342.5128L342.1636,350.3300L356.0727,357.8909
            L369.9818,365.1178L383.8909,371.9432L397.8000,378.3130L411.7091,384.1890L425.6182,389.5491L439.5273,394.3874L453.4364,398.7120L467.3455,402.5429L481.2545,405.9088L495.1636,408.8447
            L509.0727,411.3890L522.9818,413.5815L536.8909,415.4615L550.8000,417.0667"/>
   <path d="M91.8000,229.2995L105.7091,235.2808L119.6182,241.4555L133.5273,247.8119L147.4364,254.3360L161.3455,261.0106L175.2545,267.8162L189.1636,274.7307L203.0727,281.7298L216.9818,288.7871
            L230.8909,295.8747L244.8000,302.9634L258.7091,310.0236L272.6182,317.0253L286.5273,323.9393L300.4364,330.7375L314.3455,337.3933L328.2545,343.8825L342.1636,350.1833L356.0727,356.2770
            L369.9818,362.1479L383.8909,367.7838L397.8000,373.1757L411.7091,378.3176L425.6182,383.2068L439.5273,387.8432L453.4364,392.2290L467.3455,396.3688L481.2545,400.2687L495.1636,403.9362
            L509.0727,407.3800L522.9818,410.6096L536.8909,413.6349L550.8000,416.4661"/>
   <path d="M91.8000,229.2995L105.7091,233.6587L119.6182,238.3176L133.5273,243.2922L147.4364,248.5966L161.3455,254.2429L175.2545,260.2393L189.1636,266.5895L203.0727,273.2907L216.9818,280.3324
            L230.8909,287.6945L244.8000,295.3464L258.7091,303.2452L272.6182,311.3362L286.5273,319.5522L300.4364,327.8159L314.3455,336.0419L328.2545,344.1402L342.1636,352.0211L356.0727,359.5994
            L369.9818,366.7992L383.8909,373.5577L397.8000,379.8277L411.7091,385.5791L425.6182,390.7985L439.5273,395.4877L453.4364,399.6619L467.3455,403.3465L481.2545,406.5741L495.1636,409.3823
            L509.0727,411.8109L522.9818,413.9001L536.8909,415.6889L550.8000,417.2142"/>
   <path d="M91.8000,229.2995L105.7091,233.9496L119.6182,238.8906L133.5273,244.1365L147.4364,249.6993L161.3455,255.5882L175.2545,261.8084L189.1636,268.3596L203.0727,275.2344L216.9818,282.4171
            L230.8909,289.8814L244.8000,297.5896L258.7091,305.4915L272.6182,313.5242L286.5273,321.6132L300.4364,329.6743L314.3455,337.6174L328.2545,345.3506L342.1636,352.7854L356.0727,359.8420
            L369.9818,366.4538L383.8909,372.5707L397.8000,378.1606L411.7091,383.2097L425.6182,387.7212L439.5273,391.7121L453.4364,395.2107L467.3455,398.2529L481.2545,400.8795L495.1636,403.1329
            L509.0727,405.0557L522.9818,406.6885L536.8909,408.0696L550.8000,409.2335"/>
   <path d="M91.8000,229.2995L105.7091,234.5073L119.6182,239.9907L133.5273,245.7565L147.4364,251.8086L161.3455,258.1474L175.2545,264.7692L189.1636,271.6646L203.0727,278.8184L216.9818,286.2085
            L230.8909,293.8049L244.8000,301.5699L258.7091,309.4580L272.6182,317.4162L286.5273,325.3853L300.4364,333.3016L314.3455,341.0989L328.2545,348.7114L342.1636,356.0761L356.0727,363.1355
            L369.9818,369.8402L383.8909,376.1502L397.8000,382.0366L411.7091,387.4813L425.6182,392.4770L439.5273,397.0264L453.4364,401.1404L467.3455,404.8368L481.2545,408.1388L495.1636,411.0729
            L509.0727,413.6679L522.9818,415.9532L536.8909,417.9584L550.8000,419.7121"/>
   <path d="M91.8000,229.2995L105.7091,235.9524L119.6182,242.6229L133.5273,249.3043L147.4364,255.9900L161.3455,262.6736L175.2545,269.3492L189.1636,276.0110L203.0727,282.6536L216.9818,289.2717
            L230.8909,295.8606L244.8000,302.4156L258.7091,308.9327L272.6182,315.4078L286.5273,321.8376L300.4364,328.2190L314.3455,334.5492L328.2545,340.8258L342.1636,347.0470L356.0727,353.2111
            L369.9818,359.3169L383.8909,365.3635L397.8000,371.3502L411.7091,377.2766L425.6182,383.1426L439.5273,388.9482L453.4364,394.6935L467.3455,400.3789L481.2545,406.0046L495.1636,411.5710
            L509.0727,417.0786L522.9818,422.5279L536.8909,427.9192L550.8000,433.2530"/>
   <path d="M91.8000,229.2995L105.7091,235.1087L119.6182,241.1080L133.5273,247.2879L147.4364,253.6363L161.3455,260.1389L175.2545,266.7791L189.1636,273.5379L203.0727,280.3943L216.9818,287.3255
            L230.8909,294.3074L244.8000,301.3148L258.7091,308.3218L272.6182,315.3030L286.5273,322.2332L300.4364,329.0882L314.3455,335.8458L328.2545,342.4852L342.1636,348.9884L356.0727,355.3396
            L369.9818,361.5257L383.8909,367.5363L397.8000,373.3635L411.7091,379.0018L425.6182,384.4479L439.5273,389.7006L453.4364,394.7600L467.3455,399.6280L481.2545,404.3075L495.1636,408.8021
            L509.0727,413.1165L522.9818,417.2554L536.8909,421.2243L550.8000,425.0285"/>
   <path d="M91.8000,229.2995L105.7091,233.7365L119.6182,238.4364L133.5273,243.4131L147.4364,248.6795L161.3455,254.2466L175.2545,260.1234L189.1636,266.3154L203.0727,272.8237L216.9818,279.6437
            L230.8909,286.7636L244.8000,294.1631L258.7091,301.8123L272.6182,309.6703L286.5273,317.6853L300.4364,325.7944L314.3455,333.9248L328.2545,341.9966L342.1636,349.9253L356.0727,357.6265
            L369.9818,365.0198L383.8909,372.0335L397.8000,378.6083L411.7091,384.6997L425.6182,390.2798L439.5273,395.3365L453.4364,399.8731L467.3455,403.9054L481.2545,407.4592L495.1636,410.5676
            L509.0727,413.2680L522.9818,415.6001L536.8909,417.6036L550.8000,419.3171"/>
   <path d="M91.8000,229.2995L105.7091,233.7571L119.6182,238.5246L133.5273,243.6153L147.4364,249.0394L161.3455,254.8039L175.2545,260.9108L189.1636,267.3557L203.0727,274.1270L216.9818,281.2041
            L230.8909,288.5564L244.8000,296.1426L258.7091,303.9106L272.6182,311.7975L286.5273,319.7319L300.4364,327.6352L314.3455,335.4252L328.2545,343.0200L342.1636,350.3412L356.0727,357.3183
            L369.9818,363.8914L383.8909,370.0142L397.8000,375.6542L411.7091,380.7937L425.6182,385.4289L439.5273,389.5678L453.4364,393.2285L467.3455,396.4370L481.2545,399.2249L495.1636,401.6268
            L509.0727,403.6793L522.9818,405.4191L536.8909,406.8817L550.8000,408.1010"/>
   <path d="M91.8000,229.2995L105.7091,234.1351L119.6182,239.2864L133.5273,244.7689L147.4364,250.5960L161.3455,256.7773L175.2545,263.3178L189.1636,270.2160L203.0727,277.4619L216.9818,285.0350
            L230.8909,292.9028L244.8000,301.0191L258.7091,309.3234L272.6182,317.7408L286.5273,326.1841L300.4364,334.5567L314.3455,342.7573L328.2545,350.6852L342.1636,358.2470L356.0727,365.3619
            L369.9818,371.9662L383.8909,378.0165L397.8000,383.4900L411.7091,388.3837L425.6182,392.7120L439.5273,396.5026L453.4364,399.7931L467.3455,402.6273L481.2545,405.0519L495.1636,407.1136
            L509.0727,408.8579L522.9818,410.3271L536.8909,411.5598L550.8000,412.5909"/>
   <path d="M91.8000,229.2995L105.7091,234.4359L119.6182,239.7604L133.5273,245.2668L147.4364,250.9464L161.3455,256.7873L175.2545,262.7743L189.1636,268.8893L203.0727,275.1107L216.9818,281.4138
            L230.8909,287.7712L244.8000,294.1529L258.7091,300.5273L272.6182,306.8613L286.5273,313.1216L300.4364,319.2751L314.3455,325.2902L328.2545,331.1372L342.1636,336.7891L356.0727,342.2224
            L369.9818,347.4172L383.8909,352.3580L397.8000,357.0331L411.7091,361.4352L425.6182,365.5609L439.5273,369.4104L453.4364,372.9872L467.3455,376.2976L481.2545,379.3502L495.1636,382.1555
            L509.0727,384.7253L522.9818,387.0727L536.8909,389.2111L550.8000,391.1544"/>
   <path d="M91.8000,229.2995L105.7091,235.1952L119.6182,241.1518L133.5273,247.1646L147.4364,253.2291L161.3455,259.3406L175.2545,265.4947L189.1636,271.6869L203.0727,277.9128L216.9818,284.1682
            L230.8909,290.4489L244.8000,296.7508L258.7091,303.0701L272.6182,309.4031L286.5273,315.7462L300.4364,322.0962L314.3455,328.4499L328.2545,334.8046L342.1636,341.1576L356.0727,347.5065
            L369.9818,353.8493L383.8909,360.1840L397.8000,366.5088L411.7091,372.8224L425.6182,379.1233L439.5273,385.4103L453.4364,391.6824L467.3455,397.9386L481.2545,404.1780L495.1636,410.3996
            L509.0727,416.6027L522.9818,422.7866L536.8909,428.9504L550.8000,435.0934"/>
   <path d="M91.8000,229.2995L105.7091,234.3552L119.6182,239.6883L133.5273,245.3067L147.4364,251.2154L161.3455,257.4155L175.2545,263.9033L189.1636,270.6693L203.0727,277.6968L216.9818,284.9611
            L230.8909,292.4287L244.8000,300.0564L258.7091,307.7920L272.6182,315.5747L286.5273,323.3367L300.4364,331.0054L314.3455,338.5066L328.2545,345.7678L342.1636,352.7217L356.0727,359.3097
            L369.9818,365.4843L383.8909,371.2109L397.8000,376.4685L411.7091,381.2494L425.6182,385.5580L439.5273,389.4089L453.4364,392.8248L467.3455,395.8342L481.2545,398.4694L495.1636,400.7644
            L509.0727,402.7537L522.9818,404.4709L536.8909,405.9478L550.8000,407.2142"/>
   <path d="M91.8000,229.2995L105.7091,234.1240L119.6182,239.2745L133.5273,244.7586L147.4364,250.5793L161.3455,256.7336L175.2545,263.2108L189.1636,269.9914L203.0727,277.0458L216.9818,284.3332
            L230.8909,291.8019L244.8000,299.3893L258.7091,307.0238L272.6182,314.6267L286.5273,322.1159L300.4364,329.4098L314.3455,336.4311L328.2545,343.1108L342.1636,349.3917L356.0727,355.2301
            L369.9818,360.5974L383.8909,365.4796L397.8000,369.8763L411.7091,373.7989L425.6182,377.2680L439.5273,380.3117L453.4364,382.9622L467.3455,385.2547L481.2545,387.2252L495.1636,388.9089
            L509.0727,390.3399L522.9818,391.5498L536.8909,392.5679L550.8000,393.4205"/>
   <path d="M91.8000,229.2995L105.7091,235.0474L119.6182,240.9638L133.5273,247.0412L147.4364,253.2704L161.3455,259.6409L175.2545,266.1403L189.1636,272.7550L203.0727,279.4698L216.9818,286.2683
            L230.8909,293.1332L244.8000,300.0461L258.7091,306.9881L272.6182,313.9399L286.5273,320.8818L300.4364,327.7945L314.3455,334.6590L328.2545,341.4566L342.1636,348.1696L356.0727,354.7811
            L369.9818,361.2754L383.8909,367.6380L397.8000,373.8555L411.7091,379.9160L425.6182,385.8092L439.5273,391.5261L453.4364,397.0589L467.3455,402.4017L481.2545,407.5496L495.1636,412.4994
            L509.0727,417.2489L522.9818,421.7972L536.8909,426.1446L550.8000,430.2924"/>
   <path d="M91.8000,229.2995L105.7091,235.8924L119.6182,242.7292L133.5273,249.7950L147.4364,257.0709L161.3455,264.5336L175.2545,272.1552L189.1636,279.9036L203.0727,287.7429L216.9818,295.6338
            L230.8909,303.5343L244.8000,311.4009L258.7091,319.1893L272.6182,326.8560L286.5273,334.3595L300.4364,341.6612L314.3455,348.7265L328.2545,355.5263L342.1636,362.0365L356.0727,368.2396
            L369.9818,374.1237L383.8909,379.6829L397.8000,384.9165L411.7091,389.8287L425.6182,394.4276L439.5273,398.7245L453.4364,402.7332L467.3455,406.4692L481.2545,409.9490L495.1636,413.1896
            L509.0727,416.2080L522.9818,419.0209L536.8909,421.6444L550.8000,424.0937"/>
   <path d="M91.8000,229.2995L105.7091,233.4256L119.6182,237.8548L133.5273,242.6060L147.4364,247.6972L161.3455,253.1445L175.2545,258.9607L189.1636,265.1543L203.0727,271.7277L216.9818,278.6747
            L230.8909,285.9791L244.8000,293.6125L258.7091,301.5323L272.6182,309.6807L286.5273,317.9850L300.4364,326.3585L314.3455,334.7035L328.2545,342.9158L342.1636,350.8904L356.0727,358.5279
            L369.9818,365.7407L383.8909,372.4579L397.8000,378.6289L411.7091,384.2246L425.6182,389.2367L439.5273,393.6755L453.4364,397.5658L467.3455,400.9440L481.2545,403.8530L495.1636,406.3398
            L509.0727,408.4520L522.9818,410.2360L536.8909,411.7356L550.8000,412.9907"/>
   <path d="M91.8000,229.2995L105.7091,232.8348L119.6182,236.7069L133.5273,240.9431L147.4364,245.5707L161.3455,250.6149L175.2545,256.0976L189.1636,262.0352L203.0727,268.4355L216.9818,275.2947
            L230.8909,282.5938L244.8000,290.2951L258.7091,298.3398L272.6182,306.6461L286.5273,315.1100L300.4364,323.6090L314.3455,332.0079L328.2545,340.1681L342.1636,347.9575L356.0727,355.2603
            L369.9818,361.9856L383.8909,368.0719L397.8000,373.4884L411.7091,378.2334L425.6182,382.3290L439.5273,385.8160L453.4364,388.7469L467.3455,391.1811L481.2545,393.1798L495.1636,394.8028
            L509.0727,396.1059L522.9818,397.1402L536.8909,397.9508L550.8000,398.5771"/>
   <path d="M91.8000,229.2995L105.7091,235.7220L119.6182,242.2815L133.5273,248.9624L147.4364,255.7470L161.3455,262.6161L175.2545,269.5483L189.1636,276.5211L203.0727,283.5104L216.9818,290.4910
            L230.8909,297.4373L244.8000,304.3228L258.7091,311.1214L272.6182,317.8073L286.5273,324.3557L300.4364,330.7431L314.3455,336.9477L328.2545,342.9502L342.1636,348.7338L356.0727,354.2844
            L369.9818,359.5913L383.8909,364.6466L397.8000,369.4458L411.7091,373.9874L425.6182,378.2729L439.5273,382.3060L453.4364,386.0931L467.3455,389.6422L481.2545,392.9630L495.1636,396.0663
            L509.0727,398.9636L522.9818,401.6670L536.8909,404.1887L550.8000,406.5408"/>
   <path d="M91.8000,229.2995L105.7091,233.8337L119.6182,238.6071L133.5273,243.6297L147.4364,248.9103L161.3455,254.4565L175.2545,260.2734L189.1636,266.3637L203.0727,272.7266L216.9818,279.3568
            L230.8909,286.2443L244.8000,293.3728L258.7091,300.7197L272.6182,308.2548L286.5273,315.9408L300.4364,323.7326L314.3455,331.5784L328.2545,339.4203L342.1636,347.1962L356.0727,354.8419
            L369.9818,362.2934L383.8909,369.4895L397.8000,376.3747L411.7091,382.9010L425.6182,389.0302L439.5273,394.7346L453.4364,399.9975L467.3455,404.8128L481.2545,409.1843L495.1636,413.1242
            L509.0727,416.6512L522.9818,419.7894L536.8909,422.5663L550.8000,425.0112"/>
   <path d="M91.8000,229.2995L105.7091,233.9458L119.6182,238.9271L133.5273,244.2605L147.4364,249.9605L161.3455,256.0368L175.2545,262.4931L189.1636,269.3243L203.0727,276.5144L216.9818,284.0344
            L230.8909,291.8395L244.8000,299.8687L258.7091,308.0438L272.6182,316.2713L286.5273,324.4459L300.4364,332.4558L314.3455,340.1895L328.2545,347.5434L342.1636,354.4286L356.0727,360.7769
            L369.9818,366.5433L383.8909,371.7071L397.8000,376.2698L411.7091,380.2520L425.6182,383.6884L439.5273,386.6236L453.4364,389.1073L467.3455,391.1912L481.2545,392.9262L495.1636,394.3603
            L509.0727,395.5375L522.9818,396.4975L536.8909,397.2751L550.8000,397.9008"/>
   <path d="M91.8000,229.2995L105.7091,236.4115L119.6182,243.5212L133.5273,250.6192L147.4364,257.6966L161.3455,264.7447L175.2545,271.7555L189.1636,278.7216L203.0727,285.6359L216.9818,292.4919
            L230.8909,299.2838L244.8000,306.0061L258.7091,312.6541L272.6182,319.2237L286.5273,325.7111L300.4364,332.1134L314.3455,338.4281L328.2545,344.6533L342.1636,350.7878L356.0727,356.8306
            L369.9818,362.7813L383.8909,368.6398L397.8000,374.4063L411.7091,380.0815L425.6182,385.6659L439.5273,391.1607L453.4364,396.5666L467.3455,401.8849L481.2545,407.1167L495.1636,412.2631
            L509.0727,417.3253L522.9818,422.3045L536.8909,427.2018L550.8000,432.0184"/>
   <path d="M91.8000,229.2995L105.7091,234.4431L119.6182,239.7640L133.5273,245.2602L147.4364,250.9282L161.3455,256.7628L175.2545,262.7575L189.1636,268.9040L203.0727,275.1923L216.9818,281.6104
            L230.8909,288.1450L244.8000,294.7808L258.7091,301.5011L272.6182,308.2877L286.5273,315.1212L300.4364,321.9814L314.3455,328.8471L328.2545,335.6969L342.1636,342.5092L356.0727,349.2626
            L369.9818,355.9364L383.8909,362.5104L397.8000,368.9658L411.7091,375.2848L425.6182,381.4512L439.5273,387.4507L453.4364,393.2703L467.3455,398.8993L481.2545,404.3285L495.1636,409.5509
            L509.0727,414.5610L522.9818,419.3553L536.8909,423.9317L550.8000,428.2900"/>
   <path d="M91.8000,229.2995L105.7091,234.5783L119.6182,240.1075L133.5273,245.8892L147.4364,251.9226L161.3455,258.2037L175.2545,264.7245L189.1636,271.4725L203.0727,278.4301L216.9818,285.5746
            L230.8909,292.8776L244.8000,300.3051L258.7091,307.8179L272.6182,315.3722L286.5273,322.9203L300.4364,330.4124L314.3455,337.7972L328.2545,345.0243L342.1636,352.0456L356.0727,358.8169
            L369.9818,365.2992L383.8909,371.4600L397.8000,377.2740L411.7091,382.7233L425.6182,387.7975L439.5273,392.4932L453.4364,396.8134L467.3455,400.7665L481.2545,404.3657L495.1636,407.6274
            L509.0727,410.5709L522.9818,413.2170L536.8909,415.5876L550.8000,417.7046"/>
   <path d="M91.8000,229.2995L105.7091,234.9257L119.6182,240.6945L133.5273,246.5993L147.4364,252.6322L161.3455,258.7844L175.2545,265.0461L189.1636,271.4065L203.0727,277.8541L216.9818,284.3765
            L230.8909,290.9609L244.8000,297.5938L258.7091,304.2614L272.6182,310.9499L286.5273,317.6453L300.4364,324.3338L314.3455,331.0020L328.2545,337.6369L342.1636,344.2261L356.0727,350.7578
            L369.9818,357.2211L383.8909,363.6059L397.8000,369.9029L411.7091,376.1036L425.6182,382.2005L439.5273,388.1868L453.4364,394.0566L467.3455,399.8048L481.2545,405.4267L495.1636,410.9188
            L509.0727,416.2778L522.9818,421.5011L536.8909,426.5868L550.8000,431.5332"/>
   <path d="M91.8000,229.2995L105.7091,234.3007L119.6182,239.5773L133.5273,245.1369L147.4364,250.9847L161.3455,257.1220L175.2545,263.5456L189.1636,270.2466L203.0727,277.2094L216.9818,284.4109
            L230.8909,291.8192L244.8000,299.3937L258.7091,307.0848L272.6182,314.8347L286.5273,322.5787L300.4364,330.2473L314.3455,337.7689L328.2545,345.0728L342.1636,352.0928L356.0727,358.7699
            L369.9818,365.0554L383.8909,370.9124L397.8000,376.3166L411.7091,381.2565L425.6182,385.7323L439.5273,389.7546L453.4364,393.3423L467.3455,396.5206L481.2545,399.3189L495.1636,401.7693
            L509.0727,403.9046L522.9818,405.7575L536.8909,407.3592L550.8000,408.7395"/>
   <path d="M91.8000,229.2995L105.7091,233.5826L119.6182,238.1612L133.5273,243.0523L147.4364,248.2710L161.3455,253.8304L175.2545,259.7399L189.1636,266.0038L203.0727,272.6193L216.9818,279.5752
            L230.8909,286.8496L244.8000,294.4077L258.7091,302.2014L272.6182,310.1678L286.5273,318.2303L300.4364,326.3003L314.3455,334.2810L328.2545,342.0720L342.1636,349.5755L356.0727,356.7023
            L369.9818,363.3769L383.8909,369.5423L397.8000,375.1616L411.7091,380.2185L425.6182,384.7158L439.5273,388.6719L453.4364,392.1178L467.3455,395.0929L481.2545,397.6413L495.1636,399.8093
            L509.0727,401.6424L522.9818,403.1841L536.8909,404.4748L550.8000,405.5508"/>
   <path d="M91.8000,229.2995L105.7091,236.1113L119.6182,242.9589L133.5273,249.8315L147.4364,256.7185L161.3455,263.6092L175.2545,270.4936L189.1636,277.3616L203.0727,284.2036L216.9818,291.0103
            L230.8909,297.7729L244.8000,304.4828L258.7091,311.1323L272.6182,317.7138L286.5273,324.2207L300.4364,330.6468L314.3455,336.9867L328.2545,343.2356L342.1636,349.3895L356.0727,355.4451
            L369.9818,361.3999L383.8909,367.2519L397.8000,373.0000L411.7091,378.6434L425.6182,384.1820L439.5273,389.6162L453.4364,394.9467L467.3455,400.1745L481.2545,405.3009L495.1636,410.3273
            L509.0727,415.2553L522.9818,420.0866L536.8909,424.8229L550.8000,429.4660"/>
   <path d="M91.8000,229.2995L105.7091,235.1833L119.6182,241.2737L133.5273,247.5630L147.4364,254.0411L161.3455,260.6951L175.2545,267.5094L189.1636,274.4659L203.0727,281.5437L216.9818,288.7195
            L230.8909,295.9679L244.8000,303.2617L258.7091,310.5724L272.6182,317.8706L286.5273,325.1264L300.4364,332.3105L314.3455,339.3940L328.2545,346.3495L342.1636,353.1514L356.0727,359.7760
            L369.9818,366.2025L383.8909,372.4127L397.8000,378.3912L411.7091,384.1256L425.6182,389.6067L439.5273,394.8278L453.4364,399.7854L467.3455,404.4780L481.2545,408.9069L495.1636,413.0752
            L509.0727,416.9880L522.9818,420.6517L536.8909,424.0741L550.8000,427.2642"/>
   <path d="M91.8000,229.2995L105.7091,235.5312L119.6182,241.8576L133.5273,248.2678L147.4364,254.7505L161.3455,261.2935L175.2545,267.8847L189.1636,274.5112L203.0727,281.1602L216.9818,287.8189
            L230.8909,294.4744L244.8000,301.1140L258.7091,307.7256L272.6182,314.2974L286.5273,320.8182L300.4364,327.2778L314.3455,333.6667L328.2545,339.9764L342.1636,346.1993L356.0727,352.3291
            L369.9818,358.3603L383.8909,364.2884L397.8000,370.1099L411.7091,375.8223L425.6182,381.4235L439.5273,386.9124L453.4364,392.2883L467.3455,397.5513L481.2545,402.7014L495.1636,407.7392
            L509.0727,412.6657L522.9818,417.4818L536.8909,422.1886L550.8000,426.7873"/>
   <path d="M91.8000,229.2995L105.7091,234.4044L119.6182,239.7726L133.5273,245.4083L147.4364,251.3126L161.3455,257.4834L175.2545,263.9148L189.1636,270.5961L203.0727,277.5115L216.9818,284.6398
            L230.8909,291.9538L244.8000,299.4204L258.7091,307.0008L272.6182,314.6512L286.5273,322.3233L300.4364,329.9658L314.3455,337.5258L328.2545,344.9504L342.1636,352.1885L356.0727,359.1923
            L369.9818,365.9191L383.8909,372.3326L397.8000,378.4034L411.7091,384.1098L425.6182,389.4377L439.5273,394.3806L453.4364,398.9388L467.3455,403.1184L481.2545,406.9309L495.1636,410.3917
            L509.0727,413.5193L522.9818,416.3344L536.8909,418.8588L550.8000,421.1150"/>
   <path d="M91.8000,229.2995L105.7091,235.3342L119.6182,241.4810L133.5273,247.7319L147.4364,254.0779L161.3455,260.5094L175.2545,267.0162L189.1636,273.5875L203.0727,280.2119L216.9818,286.8777
            L230.8909,293.5725L244.8000,300.2838L258.7091,306.9990L272.6182,313.7052L286.5273,320.3897L300.4364,327.0401L314.3455,333.6442L328.2545,340.1904L342.1636,346.6677L356.0727,353.0661
            L369.9818,359.3763L383.8909,365.5901L397.8000,371.7005L411.7091,377.7014L425.6182,383.5879L439.5273,389.3565L453.4364,395.0045L467.3455,400.5303L481.2545,405.9330L495.1636,411.2129
            L509.0727,416.3707L522.9818,421.4077L536.8909,426.3257L550.8000,431.1269"/>
   <path d="M91.8000,229.2995L105.7091,235.0864L119.6182,241.1449L133.5273,247.4699L147.4364,254.0518L161.3455,260.8752L175.2545,267.9185L189.1636,275.1536L203.0727,282.5456L216.9818,290.0528
            L230.8909,297.6277L244.8000,305.2177L258.7091,312.7664L272.6182,320.2159L286.5273,327.5084L300.4364,334.5886L314.3455,341.4057L328.2545,347.9153L342.1636,354.0808L356.0727,359.8742
            L369.9818,365.2768L383.8909,370.2785L397.8000,374.8777L411.7091,379.0801L425.6182,382.8976L439.5273,386.3468L453.4364,389.4482L467.3455,392.2247L481.2545,394.7005L495.1636,396.9004
            L509.0727,398.8491L522.9818,400.5705L536.8909,402.0875L550.8000,403.4213"/>
   <path d="M91.8000,229.2995L105.7091,234.8773L119.6182,240.6592L133.5273,246.6396L147.4364,252.8104L161.3455,259.1611L175.2545,265.6780L189.1636,272.3452L203.0727,279.1435L216.9818,286.0514
            L230.8909,293.0445L244.8000,300.0966L258.7091,307.1795L272.6182,314.2637L286.5273,321.3188L300.4364,328.3143L314.3455,335.2202L328.2545,342.0072L342.1636,348.6478L356.0727,355.1166
            L369.9818,361.3904L383.8909,367.4493L397.8000,373.2762L411.7091,378.8573L425.6182,384.1821L439.5273,389.2433L453.4364,394.0366L467.3455,398.5606L481.2545,402.8166L495.1636,406.8081
            L509.0727,410.5406L522.9818,414.0215L536.8909,417.2593L550.8000,420.2638"/>
   <path d="M91.8000,229.2995L105.7091,233.6326L119.6182,238.1937L133.5273,242.9894L147.4364,248.0246L161.3455,253.3023L175.2545,258.8225L189.1636,264.5825L203.0727,270.5755L216.9818,276.7904
            L230.8909,283.2113L244.8000,289.8168L258.7091,296.5802L272.6182,303.4689L286.5273,310.4452L300.4364,317.4665L314.3455,324.4863L328.2545,331.4554L342.1636,338.3234L356.0727,345.0404
            L369.9818,351.5589L383.8909,357.8351L397.8000,363.8307L411.7091,369.5138L425.6182,374.8600L439.5273,379.8523L453.4364,384.4815L467.3455,388.7453L481.2545,392.6478L495.1636,396.1987
            L509.0727,399.4120L522.9818,402.3052L536.8909,404.8981L550.8000,407.2120"/>
   <path d="M91.8000,229.2995L105.7091,235.1872L119.6182,241.2527L133.5273,247.4863L147.4364,253.8764L161.3455,260.4088L175.2545,267.0673L189.1636,273.8334L203.0727,280.6868L216.9818,287.6050
            L230.8909,294.5642L244.8000,301.5392L258.7091,308.5040L272.6182,315.4324L286.5273,322.2981L300.4364,329.0755L314.3455,335.7405L328.2545,342.2704L342.1636,348.6449L356.0727,354.8460
            L369.9818,360.8586L383.8909,366.6708L397.8000,372.2734L411.7091,377.6603L425.6182,382.8282L439.5273,387.7766L453.4364,392.5070L467.3455,397.0230L481.2545,401.3298L495.1636,405.4342
            L509.0727,409.3435L522.9818,413.0660L536.8909,416.6103L550.8000,419.9854"/>
   <path d="M91.8000,229.2995L105.7091,234.0710L119.6182,239.1352L133.5273,244.5012L147.4364,250.1749L161.3455,256.1583L175.2545,262.4481L189.1636,269.0343L203.0727,275.8994L216.9818,283.0173
            L230.8909,290.3522L244.8000,297.8583L258.7091,305.4803L272.6182,313.1543L286.5273,320.8096L300.4364,328.3710L314.3455,335.7628L328.2545,342.9116L342.1636,349.7505L356.0727,356.2218
            L369.9818,362.2797L383.8909,367.8917L397.8000,373.0388L411.7091,377.7153L425.6182,381.9268L439.5273,385.6890L453.4364,389.0250L467.3455,391.9634L481.2545,394.5359L495.1636,396.7760
            L509.0727,398.7174L522.9818,400.3929L536.8909,401.8334L550.8000,403.0678"/>
   <path d="M91.8000,229.2995L105.7091,233.9380L119.6182,238.8571L133.5273,244.0701L147.4364,249.5892L161.3455,255.4238L175.2545,261.5801L189.1636,268.0596L203.0727,274.8579L216.9818,281.9629
            L230.8909,289.3537L244.8000,296.9990L258.7091,304.8561L272.6182,312.8705L286.5273,320.9759L300.4364,329.0960L314.3455,337.1469L328.2545,345.0404L342.1636,352.6889L356.0727,360.0098
            L369.9818,366.9305L383.8909,373.3920L397.8000,379.3517L411.7091,384.7846L425.6182,389.6824L439.5273,394.0525L453.4364,397.9149L467.3455,401.2993L481.2545,404.2422L495.1636,406.7838
            L509.0727,408.9658L522.9818,410.8295L536.8909,412.4140L550.8000,413.7561"/>
   <path d="M91.8000,229.2995L105.7091,233.8532L119.6182,238.7134L133.5273,243.8950L147.4364,249.4106L161.3455,255.2691L175.2545,261.4752L189.1636,268.0273L203.0727,274.9157L216.9818,282.1214
            L230.8909,289.6142L244.8000,297.3517L258.7091,305.2781L272.6182,313.3252L286.5273,321.4134L300.4364,329.4545L314.3455,337.3558L328.2545,345.0244L342.1636,352.3731L356.0727,359.3249
            L369.9818,365.8174L383.8909,371.8055L397.8000,377.2624L411.7091,382.1791L425.6182,386.5627L439.5273,390.4333L453.4364,393.8213L467.3455,396.7638L481.2545,399.3016L495.1636,401.4772
            L509.0727,403.3323L522.9818,404.9068L536.8909,406.2377L550.8000,407.3589"/>
   <path d="M91.8000,229.2995L105.7091,233.9589L119.6182,238.8778L133.5273,244.0654L147.4364,249.5294L161.3455,255.2753L175.2545,261.3055L189.1636,267.6190L203.0727,274.2102L216.9818,281.0686
            L230.8909,288.1776L244.8000,295.5139L258.7091,303.0477L272.6182,310.7414L286.5273,318.5510L300.4364,326.4258L314.3455,334.3099L328.2545,342.1435L342.1636,349.8651L356.0727,357.4136
            L369.9818,364.7303L383.8909,371.7615L397.8000,378.4605L411.7091,384.7888L425.6182,390.7175L439.5273,396.2275L453.4364,401.3092L467.3455,405.9621L481.2545,410.1936L495.1636,414.0178
            L509.0727,417.4541L522.9818,420.5255L536.8909,423.2578L550.8000,425.6780"/>
   <path d="M91.8000,229.2995L105.7091,233.8598L119.6182,238.7515L133.5273,243.9930L147.4364,249.6006L161.3455,255.5869L175.2545,261.9589L189.1636,268.7166L203.0727,275.8500L216.9818,283.3369
            L230.8909,291.1412L244.8000,299.2102L258.7091,307.4744L272.6182,315.8481L286.5273,324.2313L300.4364,332.5144L314.3455,340.5844L328.2545,348.3316L342.1636,355.6575L356.0727,362.4808
            L369.9818,368.7423L383.8909,374.4067L397.8000,379.4625L411.7091,383.9191L425.6182,387.8029L439.5273,391.1532L453.4364,394.0169L467.3455,396.4449L481.2545,398.4890L495.1636,400.1992
            L509.0727,401.6222L522.9818,402.8003L536.8909,403.7716L550.8000,404.5692"/>
   <path d="M91.8000,229.2995L105.7091,236.2420L119.6182,243.2625L133.5273,250.3450L147.4364,257.4733L161.3455,264.6309L175.2545,271.8013L189.1636,278.9680L203.0727,286.1149L216.9818,293.2261
            L230.8909,300.2861L244.8000,307.2803L258.7091,314.1948L272.6182,321.0164L286.5273,327.7332L300.4364,334.3342L314.3455,340.8097L328.2545,347.1514L342.1636,353.3520L356.0727,359.4058
            L369.9818,365.3081L383.8909,371.0557L397.8000,376.6464L411.7091,382.0791L425.6182,387.3537L439.5273,392.4709L453.4364,397.4320L467.3455,402.2391L481.2545,406.8947L495.1636,411.4017
            L509.0727,415.7631L522.9818,419.9825L536.8909,424.0632L550.8000,428.0089"/>
   <path d="M91.8000,91.8000L550.8000,91.8000"/>
   <path d="M91.8000,550.8000L550.8000,550.8000"/>
   <path d="M133.5273,91.8000L133.5273,104.0400"/>
   <path d="M133.5273,550.8000L133.5273,538.5600"/>
   <path d="M272.6182,91.8000L272.6182,104.0400"/>
   <path d="M272.6182,550.8000L272.6182,538.5600"/>
   <path d="M411.7091,91.8000L411.7091,104.0400"/>
   <path d="M411.7091,550.8000L411.7091,538.5600"/>
   <path d="M550.8000,91.8000L550.8000,104.0400"/>
   <path d="M550.8000,550.8000L550.8000,538.5600"/>
  </g>
  <g style="fill:#000000; fill-rule:nonzero">
   <text   style="font-family:'Times','Nimbus Roman'; font-style:normal; font-weight:normal; font-size:612.0000" transform="matrix(0.0280,0.0000,-0.0000,-0.0280,118.0273,74.6800)">-300</text>
   <text   style="font-family:'Times','Nimbus Roman'; font-style:normal; font-weight:normal; font-size:612.0000" transform="matrix(0.0280,0.0000,-0.0000,-0.0280,257.1182,74.6800)">-200</text>
   <text   style="font-family:'Times','Nimbus Roman'; font-style:normal; font-weight:normal; font-size:612.0000" transform="matrix(0.0280,0.0000,-0.0000,-0.0280,396.2091,73.6800)">-100</text>
   <text   style="font-family:'Times','Nimbus Roman'; font-style:normal; font-weight:normal; font-size:612.0000" transform="matrix(0.0280,0.0000,-0.0000,-0.0280,546.8000,74.6800)">0</text>
  </g>
  <g style="fill:none; stroke:#000000; stroke-width:  0.9180; stroke-linecap:butt; stroke-linejoin:miter; stroke-dasharray:none">
   <path d="M91.8000,91.8000L91.8000,550.8000"/>
   <path d="M550.8000,91.8000L550.8000,550.8000"/>
   <path d="M91.8000,91.8000L104.0400,91.8000"/>
   <path d="M550.8000,91.8000L538.5600,91.8000"/>
   <path d="M91.8000,244.8000L104.0400,244.8000"/>
   <path d="M550.8000,244.8000L538.5600,244.8000"/>
   <path d="M91.8000,397.8000L104.0400,397.8000"/>
   <path d="M550.8000,397.8000L538.5600,397.8000"/>
  </g>
  <g style="fill:#000000; fill-rule:nonzero">
   <text   style="font-family:'Times','Nimbus Roman'; font-style:normal; font-weight:normal; font-size:612.0000" transform="matrix(0.0280,0.0000,-0.0000,-0.0280,77.6800,86.3000)">0</text>
   <text   style="font-family:'Times','Nimbus Roman'; font-style:normal; font-weight:normal; font-size:612.0000" transform="matrix(0.0280,0.0000,-0.0000,-0.0280,56.6800,238.8000)">0.05</text>
   <text   style="font-family:'Times','Nimbus Roman'; font-style:normal; font-weight:normal; font-size:612.0000" transform="matrix(0.0280,0.0000,-0.0000,-0.0280,65.6800,391.8000)">0.1</text>
  </g>
  <g style="fill:none; stroke:#000000; stroke-width:  0.9180; stroke-linecap:butt; stroke-linejoin:miter; stroke-dasharray:none">
   <path d="M91.8000,91.8000L91.8000,550.8000L550.8000,550.8000L550.8000,91.8000z"/>
  </g>
 </g>
</svg>
