<?xml version="1.0" encoding="ISO-8859-1"?>
<!DOCTYPE svg PUBLIC "-//W3C//DTD SVG 1.0//EN" "http://www.w3.org/TR/2001/REC-SVG-20010904/DTD/svg10.dtd">
<!-- generated by Grace-5.1.25 -->
<svg xml:space="preserve" width="11.0000in" height="8.5000in" viewBox="0.0000 0.0000 792.0000 612.0000">
 <g transform="translate(0,612.0000) scale(1,-1)">
  <g style="fill:#FFFFFF; fill-rule:nonzero">
   <path  d="M0.0000,0.0000L0.0000,612.0000L792.0000,612.0000L792.0000,0.0000z"/>
  </g>
  <g style="fill:none; stroke:#000000; stroke-width:  0.9180; stroke-linecap:butt; stroke-linejoin:miter; stroke-dasharray:none">
   <path d="M91.8000,190.2824L105.7091,194.9899L119.6182,199.9895L133.5273,205.2874L147.4364,210.8861L161.3455,216.7836L175.2545,222.9725L189.1636,229.4396L203.0727,236.1643L216.9818,243.1192
            L230.8909,250.2689L244.8000,257.5708L258.7091,264.9755L272.6182,272.4278L286.5273,279.8685L300.4364,287.2363L314.3455,294.4695L328.2545,301.5091L342.1636,308.3002L356.0727,314.7944
            L369.9818,320.9510L383.8909,326.7383L397.8000,332.1334L411.7091,337.1228L425.6182,341.7016L439.5273,345.8725L453.4364,349.6445L467.3455,353.0325L481.2545,356.0549L495.1636,358.7334
            L509.0727,361.0915L522.9818,363.1535L536.8909,364.9439L550.8000,366.4869"/>
   <path d="M91.8000,190.2824L105.7091,195.1234L119.6182,200.2339L133.5273,205.6182L147.4364,211.2775L161.3455,217.2092L175.2545,223.4062L189.1636,229.8563L203.0727,236.5414L216.9818,243.4373
            L230.8909,250.5135L244.8000,257.7329L258.7091,265.0527L272.6182,272.4250L286.5273,279.7979L300.4364,287.1171L314.3455,294.3278L328.2545,301.3764L342.1636,308.2124L356.0727,314.7904
            L369.9818,321.0712L383.8909,327.0227L397.8000,332.6211L411.7091,337.8504L425.6182,342.7026L439.5273,347.1767L453.4364,351.2781L467.3455,355.0176L481.2545,358.4102L495.1636,361.4740
            L509.0727,364.2295L522.9818,366.6984L536.8909,368.9031L550.8000,370.8658"/>
   <path d="M91.8000,190.2824L105.7091,195.1723L119.6182,200.3412L133.5273,205.7927L147.4364,211.5265L161.3455,217.5379L175.2545,223.8171L189.1636,230.3482L203.0727,237.1089L216.9818,244.0700
            L230.8909,251.1954L244.8000,258.4426L258.7091,265.7629L272.6182,273.1033L286.5273,280.4077L300.4364,287.6187L314.3455,294.6801L328.2545,301.5385L342.1636,308.1455L356.0727,314.4593
            L369.9818,320.4455L383.8909,326.0785L397.8000,331.3407L411.7091,336.2230L425.6182,340.7238L439.5273,344.8482L453.4364,348.6067L467.3455,352.0144L481.2545,355.0898L495.1636,357.8535
            L509.0727,360.3276L522.9818,362.5350L536.8909,364.4982L550.8000,366.2395"/>
   <path d="M91.8000,190.2824L105.7091,194.6363L119.6182,199.2368L133.5273,204.0944L147.4364,209.2188L161.3455,214.6183L175.2545,220.2996L189.1636,226.2668L203.0727,232.5212L216.9818,239.0607
            L230.8909,245.8786L244.8000,252.9638L258.7091,260.2994L272.6182,267.8627L286.5273,275.6248L300.4364,283.5504L314.3455,291.5982L328.2545,299.7216L342.1636,307.8692L356.0727,315.9864
            L369.9818,324.0169L383.8909,331.9045L397.8000,339.5949L411.7091,347.0374L425.6182,354.1867L439.5273,361.0043L453.4364,367.4591L467.3455,373.5282L481.2545,379.1969L495.1636,384.4584
            L509.0727,389.3129L522.9818,393.7674L536.8909,397.8338L550.8000,401.5286"/>
   <path d="M91.8000,190.2824L105.7091,195.1422L119.6182,200.2686L133.5273,205.6655L147.4364,211.3343L161.3455,217.2721L175.2545,223.4720L189.1636,229.9218L203.0727,236.6038L216.9818,243.4942
            L230.8909,250.5625L244.8000,257.7724L258.7091,265.0812L272.6182,272.4414L286.5273,279.8011L300.4364,287.1062L314.3455,294.3015L328.2545,301.3332L342.1636,308.1503L356.0727,314.7069
            L369.9818,320.9632L383.8909,326.8870L397.8000,332.4539L411.7091,337.6482L425.6182,342.4617L439.5273,346.8940L453.4364,350.9509L467.3455,354.6440L481.2545,357.9888L495.1636,361.0044
            L509.0727,363.7120L522.9818,366.1339L536.8909,368.2932L550.8000,370.2126"/>
   <path d="M91.8000,190.2824L105.7091,194.0590L119.6182,198.0693L133.5273,202.3246L147.4364,206.8354L161.3455,211.6113L175.2545,216.6603L189.1636,221.9881L203.0727,227.5980L216.9818,233.4898
            L230.8909,239.6596L244.8000,246.0988L258.7091,252.7936L272.6182,259.7246L286.5273,266.8666L300.4364,274.1880L314.3455,281.6515L328.2545,289.2142L342.1636,296.8286L356.0727,304.4436
            L369.9818,312.0056L383.8909,319.4608L397.8000,326.7562L411.7091,333.8416L425.6182,340.6709L439.5273,347.2038L453.4364,353.4064L467.3455,359.2520L481.2545,364.7215L495.1636,369.8030
            L509.0727,374.4915L522.9818,378.7884L536.8909,382.7005L550.8000,386.2392"/>
   <path d="M91.8000,190.2824L105.7091,194.8636L119.6182,199.7537L133.5273,204.9596L147.4364,210.4846L161.3455,216.3269L175.2545,222.4789L189.1636,228.9267L203.0727,235.6488L216.9818,242.6157
            L230.8909,249.7903L244.8000,257.1274L258.7091,264.5751L272.6182,272.0756L286.5273,279.5676L300.4364,286.9878L314.3455,294.2736L328.2545,301.3654L342.1636,308.2092L356.0727,314.7580
            L369.9818,320.9734L383.8909,326.8266L397.8000,332.2983L411.7091,337.3784L425.6182,342.0654L439.5273,346.3652L453.4364,350.2895L467.3455,353.8552L481.2545,357.0820L495.1636,359.9923
            L509.0727,362.6095L522.9818,364.9573L536.8909,367.0593L550.8000,368.9381"/>
   <path d="M91.8000,190.2824L105.7091,194.9563L119.6182,199.9255L133.5273,205.1964L147.4364,210.7717L161.3455,216.6501L175.2545,222.8247L189.1636,229.2827L203.0727,236.0045L216.9818,242.9631
            L230.8909,250.1242L244.8000,257.4457L258.7091,264.8790L272.6182,272.3693L286.5273,279.8580L300.4364,287.2835L314.3455,294.5845L328.2545,301.7012L342.1636,308.5784L356.0727,315.1667
            L369.9818,321.4246L383.8909,327.3191L397.8000,332.8265L411.7091,337.9321L425.6182,342.6299L439.5273,346.9218L453.4364,350.8163L467.3455,354.3273L481.2545,357.4733L495.1636,360.2754
            L509.0727,362.7571L522.9818,364.9427L536.8909,366.8569L550.8000,368.5240"/>
   <path d="M91.8000,190.2824L105.7091,195.0135L119.6182,200.0305L133.5273,205.3386L147.4364,210.9398L161.3455,216.8320L175.2545,223.0081L189.1636,229.4557L203.0727,236.1559L216.9818,243.0836
            L230.8909,250.2069L244.8000,257.4873L258.7091,264.8802L272.6182,272.3356L286.5273,279.7996L300.4364,287.2155L314.3455,294.5256L328.2545,301.6733L342.1636,308.6045L356.0727,315.2694
            L369.9818,321.6240L383.8909,327.6314L397.8000,333.2618L411.7091,338.4936L425.6182,343.3127L439.5273,347.7126L453.4364,351.6935L467.3455,355.2612L481.2545,358.4269L495.1636,361.2053
            L509.0727,363.6146L522.9818,365.6750L536.8909,367.4080L550.8000,368.8359"/>
   <path d="M91.8000,190.2824L105.7091,195.0736L119.6182,200.1709L133.5273,205.5782L147.4364,211.2947L161.3455,217.3143L175.2545,223.6245L189.1636,230.2056L203.0727,237.0305L216.9818,244.0641
            L230.8909,251.2634L244.8000,258.5783L258.7091,265.9528L272.6182,273.3264L286.5273,280.6361L300.4364,287.8189L314.3455,294.8139L328.2545,301.5648L342.1636,308.0217L356.0727,314.1430
            L369.9818,319.8958L383.8909,325.2569L397.8000,330.2124L411.7091,334.7576L425.6182,338.8951L439.5273,342.6349L453.4364,345.9921L467.3455,348.9862L481.2545,351.6397L495.1636,353.9768
            L509.0727,356.0229L522.9818,357.8035L536.8909,359.3437L550.8000,360.6675"/>
   <path d="M91.8000,190.2824L105.7091,195.0173L119.6182,200.0401L133.5273,205.3539L147.4364,210.9587L161.3455,216.8502L175.2545,223.0195L189.1636,229.4524L203.0727,236.1289L216.9818,243.0234
            L230.8909,250.1040L244.8000,257.3332L258.7091,264.6683L272.6182,272.0620L286.5273,279.4637L300.4364,286.8206L314.3455,294.0793L328.2545,301.1872L342.1636,308.0940L356.0727,314.7535
            L369.9818,321.1243L383.8909,327.1709L397.8000,332.8648L411.7091,338.1842L425.6182,343.1145L439.5273,347.6479L453.4364,351.7829L467.3455,355.5236L481.2545,358.8794L495.1636,361.8635
            L509.0727,364.4925L522.9818,366.7857L536.8909,368.7638L550.8000,370.4490"/>
   <path d="M91.8000,190.2824L105.7091,195.1163L119.6182,200.2171L133.5273,205.5893L147.4364,211.2344L161.3455,217.1503L175.2545,223.3306L189.1636,229.7641L203.0727,236.4338L216.9818,243.3169
            L230.8909,250.3841L244.8000,257.5999L258.7091,264.9230L272.6182,272.3065L286.5273,279.6995L300.4364,287.0481L314.3455,294.2977L328.2545,301.3940L342.1636,308.2857L356.0727,314.9258
            L369.9818,321.2735L383.8909,327.2950L397.8000,332.9646L411.7091,338.2644L425.6182,343.1850L439.5273,347.7241L453.4364,351.8862L467.3455,355.6815L481.2545,359.1247L495.1636,362.2339
            L509.0727,365.0297L522.9818,367.5341L536.8909,369.7699L550.8000,371.7599"/>
   <path d="M91.8000,190.2824L105.7091,194.8474L119.6182,199.6638L133.5273,204.7383L147.4364,210.0751L161.3455,215.6763L175.2545,221.5403L189.1636,227.6619L203.0727,234.0314L216.9818,240.6341
            L230.8909,247.4497L244.8000,254.4523L258.7091,261.6100L272.6182,268.8855L286.5273,276.2360L300.4364,283.6148L314.3455,290.9718L328.2545,298.2554L342.1636,305.4138L356.0727,312.3970
            L369.9818,319.1584L383.8909,325.6562L397.8000,331.8549L411.7091,337.7258L425.6182,343.2476L439.5273,348.4068L453.4364,353.1970L467.3455,357.6183L481.2545,361.6770L495.1636,365.3838
            L509.0727,368.7537L522.9818,371.8045L536.8909,374.5560L550.8000,377.0290"/>
   <path d="M91.8000,190.2824L105.7091,195.1325L119.6182,200.2499L133.5273,205.6390L147.4364,211.3009L161.3455,217.2332L175.2545,223.4290L189.1636,229.8764L203.0727,236.5578L216.9818,243.4497
            L230.8909,250.5219L244.8000,257.7383L258.7091,265.0565L272.6182,272.4290L286.5273,279.8043L300.4364,287.1281L314.3455,294.3455L328.2545,301.4022L342.1636,308.2473L356.0727,314.8344
            L369.9818,321.1234L383.8909,327.0815L397.8000,332.6840L411.7091,337.9145L425.6182,342.7645L439.5273,347.2329L453.4364,351.3254L467.3455,355.0528L481.2545,358.4307L495.1636,361.4778
            L509.0727,364.2149L522.9818,366.6646L536.8909,368.8496L550.8000,370.7929"/>
   <path d="M91.8000,190.2824L105.7091,195.0010L119.6182,199.9836L133.5273,205.2367L147.4364,210.7640L161.3455,216.5663L175.2545,222.6406L189.1636,228.9795L203.0727,235.5708L216.9818,242.3964
            L230.8909,249.4323L244.8000,256.6484L258.7091,264.0083L272.6182,271.4696L286.5273,278.9853L300.4364,286.5040L314.3455,293.9721L328.2545,301.3347L342.1636,308.5385L356.0727,315.5324
            L369.9818,322.2703L383.8909,328.7120L397.8000,334.8242L411.7091,340.5818L425.6182,345.9674L439.5273,350.9716L453.4364,355.5923L467.3455,359.8340L481.2545,363.7066L495.1636,367.2246
            L509.0727,370.4059L522.9818,373.2709L536.8909,375.8413L550.8000,378.1398"/>
   <path d="M91.8000,190.2824L105.7091,194.9346L119.6182,199.8462L133.5273,205.0242L147.4364,210.4733L161.3455,216.1957L175.2545,222.1902L189.1636,228.4515L203.0727,234.9699L216.9818,241.7302
            L230.8909,248.7116L244.8000,255.8873L258.7091,263.2244L272.6182,270.6838L286.5273,278.2213L300.4364,285.7880L314.3455,293.3317L328.2545,300.7985L342.1636,308.1343L356.0727,315.2870
            L369.9818,322.2080L383.8909,328.8538L397.8000,335.1873L411.7091,341.1791L425.6182,346.8074L439.5273,352.0583L453.4364,356.9257L467.3455,361.4103L481.2545,365.5191L495.1636,369.2639
            L509.0727,372.6607L522.9818,375.7284L536.8909,378.4881L550.8000,380.9619"/>
   <path d="M91.8000,190.2824L105.7091,195.0380L119.6182,200.0913L133.5273,205.4474L147.4364,211.1068L161.3455,217.0657L175.2545,223.3140L189.1636,229.8356L203.0727,236.6068L216.9818,243.5966
            L230.8909,250.7660L244.8000,258.0692L258.7091,265.4538L272.6182,272.8623L286.5273,280.2341L300.4364,287.5073L314.3455,294.6213L328.2545,301.5187L342.1636,308.1478L356.0727,314.4641
            L369.9818,320.4315L383.8909,326.0232L397.8000,331.2216L411.7091,336.0182L425.6182,340.4126L439.5273,344.4115L453.4364,348.0279L467.3455,351.2790L481.2545,354.1857L495.1636,356.7712
            L509.0727,359.0600L522.9818,361.0768L536.8909,362.8465L550.8000,364.3928"/>
   <path d="M91.8000,190.2824L105.7091,194.9648L119.6182,199.9344L133.5273,205.1979L147.4364,210.7589L161.3455,216.6169L175.2545,222.7669L189.1636,229.1979L203.0727,235.8928L216.9818,242.8274
            L230.8909,249.9703L244.8000,257.2827L258.7091,264.7190L272.6182,272.2272L286.5273,279.7508L300.4364,287.2302L314.3455,294.6045L328.2545,301.8142L342.1636,308.8029L356.0727,315.5198
            L369.9818,321.9210L383.8909,327.9709L397.8000,333.6430L411.7091,338.9197L425.6182,343.7925L439.5273,348.2607L453.4364,352.3309L467.3455,356.0154L481.2545,359.3312L495.1636,362.2989
            L509.0727,364.9413L522.9818,367.2824L536.8909,369.3469L550.8000,371.1591"/>
   <path d="M91.8000,190.2824L105.7091,194.8929L119.6182,199.7591L133.5273,204.8874L147.4364,210.2819L161.3455,215.9438L175.2545,221.8711L189.1636,228.0576L203.0727,234.4923L216.9818,241.1592
            L230.8909,248.0367L244.8000,255.0973L258.7091,262.3077L272.6182,269.6291L286.5273,277.0177L300.4364,284.4260L314.3455,291.8036L328.2545,299.0989L342.1636,306.2610L356.0727,313.2407
            L369.9818,319.9928L383.8909,326.4769L397.8000,332.6590L411.7091,338.5117L425.6182,344.0151L439.5273,349.1564L453.4364,353.9298L467.3455,358.3359L481.2545,362.3808L495.1636,366.0751
            L509.0727,369.4336L522.9818,372.4736L536.8909,375.2144L550.8000,377.6766"/>
   <path d="M91.8000,190.2824L105.7091,195.1723L119.6182,200.3357L133.5273,205.7759L147.4364,211.4930L161.3455,217.4827L175.2545,223.7361L189.1636,230.2387L203.0727,236.9698L216.9818,243.9023
            L230.8909,251.0026L244.8000,258.2305L258.7091,265.5402L272.6182,272.8811L286.5273,280.1990L300.4364,287.4384L314.3455,294.5434L328.2545,301.4608L342.1636,308.1411L356.0727,314.5410
            L369.9818,320.6238L383.8909,326.3612L397.8000,331.7328L411.7091,336.7268L425.6182,341.3391L439.5273,345.5725L453.4364,349.4358L467.3455,352.9429L481.2545,356.1112L495.1636,358.9610
            L509.0727,361.5140L522.9818,363.7932L536.8909,365.8213L550.8000,367.6209"/>
   <path d="M91.8000,190.2824L105.7091,194.9002L119.6182,199.8172L133.5273,205.0396L147.4364,210.5700L161.3455,216.4069L175.2545,222.5434L189.1636,228.9666L203.0727,235.6571L216.9818,242.5881
            L230.8909,249.7258L244.8000,257.0292L258.7091,264.4504L272.6182,271.9362L286.5273,279.4290L300.4364,286.8688L314.3455,294.1950L328.2545,301.3486L342.1636,308.2743L356.0727,314.9221
            L369.9818,321.2491L383.8909,327.2201L397.8000,332.8088L411.7091,337.9974L425.6182,342.7765L439.5273,347.1445L453.4364,351.1067L467.3455,354.6740L481.2545,357.8623L495.1636,360.6908
            L509.0727,363.1812L522.9818,365.3572L536.8909,367.2429L550.8000,368.8627"/>
   <path d="M91.8000,190.2824L105.7091,194.6299L119.6182,199.2216L133.5273,204.0657L147.4364,209.1689L161.3455,214.5359L175.2545,220.1688L189.1636,226.0665L203.0727,232.2246L216.9818,238.6339
            L230.8909,245.2807L244.8000,252.1460L258.7091,259.2051L272.6182,266.4277L286.5273,273.7779L300.4364,281.2147L314.3455,288.6928L328.2545,296.1634L342.1636,303.5758L356.0727,310.8790
            L369.9818,318.0229L383.8909,324.9603L397.8000,331.6482L411.7091,338.0494L425.6182,344.1329L439.5273,349.8749L453.4364,355.2588L467.3455,360.2754L481.2545,364.9219L495.1636,369.2017
            L509.0727,373.1231L522.9818,376.6990L536.8909,379.9454L550.8000,382.8806"/>
   <path d="M91.8000,190.2824L105.7091,195.1405L119.6182,200.2651L133.5273,205.6603L147.4364,211.3272L161.3455,217.2634L175.2545,223.4616L189.1636,229.9100L203.0727,236.5908L216.9818,243.4803
            L230.8909,250.5481L244.8000,257.7579L258.7091,265.0672L272.6182,272.4285L286.5273,279.7901L300.4364,287.0977L314.3455,294.2963L328.2545,301.3320L342.1636,308.1539L356.0727,314.7158
            L369.9818,320.9781L383.8909,326.9082L397.8000,332.4819L411.7091,337.6831L425.6182,342.5037L439.5273,346.9430L453.4364,351.0069L467.3455,354.7067L481.2545,358.0581L495.1636,361.0799
            L509.0727,363.7932L522.9818,366.2206L536.8909,368.3850L550.8000,370.3091"/>
   <path d="M91.8000,190.2824L105.7091,195.1585L119.6182,200.3054L133.5273,205.7267L147.4364,211.4229L161.3455,217.3904L175.2545,223.6209L189.1636,230.1008L203.0727,236.8107L216.9818,243.7249
            L230.8909,250.8110L244.8000,258.0306L258.7091,265.3393L272.6182,272.6878L286.5273,280.0231L300.4364,287.2902L314.3455,294.4340L328.2545,301.4010L342.1636,308.1414L356.0727,314.6106
            L369.9818,320.7709L383.8909,326.5923L397.8000,332.0528L411.7091,337.1388L425.6182,341.8444L439.5273,346.1708L453.4364,350.1257L467.3455,353.7215L481.2545,356.9748L495.1636,359.9052
            L509.0727,362.5340L522.9818,364.8838L536.8909,366.9774L550.8000,368.8373"/>
   <path d="M91.8000,190.2824L105.7091,194.6178L119.6182,199.2280L133.5273,204.1231L147.4364,209.3112L161.3455,214.7979L175.2545,220.5851L189.1636,226.6708L203.0727,233.0476L216.9818,239.7029
            L230.8909,246.6171L244.8000,253.7641L258.7091,261.1105L272.6182,268.6159L286.5273,276.2335L300.4364,283.9105L314.3455,291.5904L328.2545,299.2136L342.1636,306.7203L356.0727,314.0521
            L369.9818,321.1540L383.8909,327.9768L397.8000,334.4780L411.7091,340.6235L425.6182,346.3875L439.5273,351.7534L453.4364,356.7128L467.3455,361.2651L481.2545,365.4167L495.1636,369.1796
            L509.0727,372.5703L522.9818,375.6087L536.8909,378.3171L550.8000,380.7192"/>
   <path d="M91.8000,190.2824L105.7091,195.0055L119.6182,199.9934L133.5273,205.2523L147.4364,210.7863L161.3455,216.5964L175.2545,222.6799L189.1636,229.0295L203.0727,235.6332L216.9818,242.4729
            L230.8909,249.5247L244.8000,256.7584L258.7091,264.1375L272.6182,271.6192L286.5273,279.1561L300.4364,286.6962L314.3455,294.1853L328.2545,301.5679L342.1636,308.7898L356.0727,315.7996
            L369.9818,322.5504L383.8909,329.0016L397.8000,335.1199L411.7091,340.8799L425.6182,346.2645L439.5273,351.2644L453.4364,355.8779L467.3455,360.1100L481.2545,363.9711L495.1636,367.4763
            L509.0727,370.6439L522.9818,373.4947L536.8909,376.0510L550.8000,378.3357"/>
   <path d="M91.8000,190.2824L105.7091,195.1874L119.6182,200.3643L133.5273,205.8165L147.4364,211.5438L161.3455,217.5419L175.2545,223.8017L189.1636,230.3085L203.0727,237.0418L216.9818,243.9742
            L230.8909,251.0721L244.8000,258.2957L258.7091,265.5990L272.6182,272.9319L286.5273,280.2406L300.4364,287.4697L314.3455,294.5643L328.2545,301.4715L342.1636,308.1427L356.0727,314.5349
            L369.9818,320.6123L383.8909,326.3468L397.8000,331.7184L411.7091,336.7155L425.6182,341.3338L439.5273,345.5762L453.4364,349.4511L467.3455,352.9719L481.2545,356.1558L495.1636,359.0225
            L509.0727,361.5933L522.9818,363.8907L536.8909,365.9372L550.8000,367.7549"/>
   <path d="M91.8000,190.2824L105.7091,194.7429L119.6182,199.4784L133.5273,204.4953L147.4364,209.7973L161.3455,215.3850L175.2545,221.2554L189.1636,227.4010L203.0727,233.8098L216.9818,240.4644
            L230.8909,247.3421L244.8000,254.4143L258.7091,261.6471L272.6182,269.0012L286.5273,276.4331L300.4364,283.8953L314.3455,291.3377L328.2545,298.7089L342.1636,305.9578L356.0727,313.0345
            L369.9818,319.8921L383.8909,326.4879L397.8000,332.7841L411.7091,338.7491L425.6182,344.3576L439.5273,349.5909L453.4364,354.4370L467.3455,358.8901L481.2545,362.9502L495.1636,366.6224
            L509.0727,369.9165L522.9818,372.8455L536.8909,375.4260L550.8000,377.6762"/>
   <path d="M91.8000,190.2824L105.7091,195.1961L119.6182,200.3799L133.5273,205.8373L147.4364,211.5689L161.3455,217.5709L175.2545,223.8352L189.1636,230.3483L203.0727,237.0906L216.9818,244.0366
            L230.8909,251.1538L244.8000,258.4036L258.7091,265.7416L272.6182,273.1181L286.5273,280.4799L300.4364,287.7715L314.3455,294.9373L328.2545,301.9234L342.1636,308.6793L356.0727,315.1604
            L369.9818,321.3285L383.8909,327.1533L397.8000,332.6130L411.7091,337.6941L425.6182,342.3910L439.5273,346.7053L453.4364,350.6451L467.3455,354.2235L481.2545,357.4577L495.1636,360.3678
            L509.0727,362.9756L522.9818,365.3043L536.8909,367.3770L550.8000,369.2167"/>
   <path d="M91.8000,190.2824L105.7091,194.8677L119.6182,199.7406L133.5273,204.9095L147.4364,210.3799L161.3455,216.1533L175.2545,222.2269L189.1636,228.5924L203.0727,235.2352L216.9818,242.1339
            L230.8909,249.2595L244.8000,256.5758L258.7091,264.0389L272.6182,271.5987L286.5273,279.1992L300.4364,286.7808L314.3455,294.2818L328.2545,301.6406L342.1636,308.7984L356.0727,315.7006
            L369.9818,322.2992L383.8909,328.5542L397.8000,334.4343L411.7091,339.9173L425.6182,344.9901L439.5273,349.6483L453.4364,353.8950L467.3455,357.7396L481.2545,361.1971L495.1636,364.2864
            L509.0727,367.0291L522.9818,369.4490L536.8909,371.5705L550.8000,373.4184"/>
   <path d="M91.8000,190.2824L105.7091,194.8092L119.6182,199.6226L133.5273,204.7319L147.4364,210.1437L161.3455,215.8613L175.2545,221.8841L189.1636,228.2061L203.0727,234.8159L216.9818,241.6953
            L230.8909,248.8190L244.8000,256.1544L258.7091,263.6613L272.6182,271.2926L286.5273,278.9951L300.4364,286.7108L314.3455,294.3788L328.2545,301.9370L342.1636,309.3251L356.0727,316.4857
            L369.9818,323.3675L383.8909,329.9260L397.8000,336.1254L411.7091,341.9388L425.6182,347.3488L439.5273,352.3467L453.4364,356.9319L467.3455,361.1112L481.2545,364.8971L495.1636,368.3071
            L509.0727,371.3619L522.9818,374.0846L536.8909,376.4998L550.8000,378.6326"/>
   <path d="M91.8000,190.2824L105.7091,195.1696L119.6182,200.3264L133.5273,205.7561L147.4364,211.4592L161.3455,217.4318L175.2545,223.6658L189.1636,230.1474L203.0727,236.8573L216.9818,243.7698
            L230.8909,250.8527L244.8000,258.0677L258.7091,265.3706L272.6182,272.7123L286.5273,280.0401L300.4364,287.2993L314.3455,294.4349L328.2545,301.3936L342.1636,308.1257L356.0727,314.5869
            L369.9818,320.7395L383.8909,326.5535L397.8000,332.0070L411.7091,337.0864L425.6182,341.7858L439.5273,346.1066L453.4364,350.0562L467.3455,353.6473L481.2545,356.8964L495.1636,359.8230
            L509.0727,362.4487L522.9818,364.7958L536.8909,366.8871L550.8000,368.7453"/>
   <path d="M91.8000,190.2824L105.7091,195.1133L119.6182,200.2163L133.5273,205.5959L147.4364,211.2534L161.3455,217.1863L175.2545,223.3872L189.1636,229.8439L203.0727,236.5376L216.9818,243.4437
            L230.8909,250.5305L244.8000,257.7600L258.7091,265.0880L272.6182,272.4648L286.5273,279.8369L300.4364,287.1484L314.3455,294.3427L328.2545,301.3647L342.1636,308.1627L356.0727,314.6903
            L369.9818,320.9079L383.8909,326.7838L397.8000,332.2944L411.7091,337.4250L425.6182,342.1687L439.5273,346.5263L453.4364,350.5049L467.3455,354.1171L481.2545,357.3798L495.1636,360.3127
            L509.0727,362.9378L522.9818,365.2782L536.8909,367.3571L550.8000,369.1979"/>
   <path d="M91.8000,190.2824L105.7091,194.7846L119.6182,199.5741L133.5273,204.6589L147.4364,210.0443L161.3455,215.7321L175.2545,221.7201L189.1636,228.0010L203.0727,234.5620L216.9818,241.3842
            L230.8909,248.4418L244.8000,255.7026L258.7091,263.1274L272.6182,270.6709L286.5273,278.2823L300.4364,285.9065L314.3455,293.4858L328.2545,300.9610L342.1636,308.2739L356.0727,315.3687
            L369.9818,322.1939L383.8909,328.7036L397.8000,334.8588L411.7091,340.6282L425.6182,345.9883L439.5273,350.9235L453.4364,355.4260L467.3455,359.4947L481.2545,363.1350L495.1636,366.3572
            L509.0727,369.1761L522.9818,371.6095L536.8909,373.6781L550.8000,375.4038"/>
   <path d="M91.8000,190.2824L105.7091,195.1433L119.6182,200.2722L133.5273,205.6732L147.4364,211.3470L161.3455,217.2908L175.2545,223.4970L189.1636,229.9532L203.0727,236.6411L216.9818,243.5364
            L230.8909,250.6083L244.8000,257.8197L258.7091,265.1279L272.6182,272.4848L286.5273,279.8387L300.4364,287.1351L314.3455,294.3193L328.2545,301.3375L342.1636,308.1394L356.0727,314.6794
            L369.9818,320.9183L383.8909,326.8245L397.8000,332.3743L411.7091,337.5521L425.6182,342.3505L439.5273,346.7692L453.4364,350.8142L467.3455,354.4970L481.2545,357.8334L495.1636,360.8423
            L509.0727,363.5447L522.9818,365.9629L536.8909,368.1196L550.8000,370.0375"/>
   <path d="M91.8000,190.2824L105.7091,194.8418L119.6182,199.6854L133.5273,204.8197L147.4364,210.2486L161.3455,215.9719L175.2545,221.9856L189.1636,228.2802L203.0727,234.8407L216.9818,241.6460
            L230.8909,248.6684L244.8000,255.8737L258.7091,263.2214L272.6182,270.6654L286.5273,278.1547L300.4364,285.6350L314.3455,293.0500L328.2545,300.3431L342.1636,307.4594L356.0727,314.3473
            L369.9818,320.9599L383.8909,327.2564L397.8000,333.2034L411.7091,338.7745L425.6182,343.9515L439.5273,348.7234L453.4364,353.0865L467.3455,357.0433L481.2545,360.6018L495.1636,363.7745
            L509.0727,366.5776L522.9818,369.0299L536.8909,371.1521L550.8000,372.9661"/>
   <path d="M91.8000,190.2824L105.7091,194.4889L119.6182,198.9494L133.5273,203.6730L147.4364,208.6676L161.3455,213.9390L175.2545,219.4909L189.1636,225.3240L203.0727,231.4358L216.9818,237.8196
            L230.8909,244.4646L244.8000,251.3550L258.7091,258.4698L272.6182,265.7826L286.5273,273.2619L300.4364,280.8706L314.3455,288.5672L328.2545,296.3061L342.1636,304.0383L356.0727,311.7130
            L369.9818,319.2782L383.8909,326.6827L397.8000,333.8769L411.7091,340.8141L425.6182,347.4519L439.5273,353.7530L453.4364,359.6856L467.3455,365.2244L481.2545,370.3501L495.1636,375.0499
            L509.0727,379.3171L522.9818,383.1504L536.8909,386.5535L550.8000,389.5346"/>
   <path d="M91.8000,190.2824L105.7091,194.8604L119.6182,199.6893L133.5273,204.7753L147.4364,210.1226L161.3455,215.7326L175.2545,221.6038L189.1636,227.7304L203.0727,234.1027L216.9818,240.7056
            L230.8909,247.5188L244.8000,254.5165L258.7091,261.6670L272.6182,268.9329L286.5273,276.2721L300.4364,283.6382L314.3455,290.9817L328.2545,298.2517L342.1636,305.3970L356.0727,312.3683
            L369.9818,319.1194L383.8909,325.6091L397.8000,331.8020L411.7091,337.6695L425.6182,343.1906L439.5273,348.3512L453.4364,353.1449L467.3455,357.5714L481.2545,361.6364L495.1636,365.3504
            L509.0727,368.7278L522.9818,371.7861L536.8909,374.5446L550.8000,377.0240"/>
   <path d="M91.8000,190.2824L105.7091,194.6765L119.6182,199.3584L133.5273,204.3385L147.4364,209.6253L161.3455,215.2240L175.2545,221.1363L189.1636,227.3591L203.0727,233.8838L216.9818,240.6956
            L230.8909,247.7727L244.8000,255.0860L258.7091,262.5987L272.6182,270.2668L286.5273,278.0396L300.4364,285.8609L314.3455,293.6705L328.2545,301.4062L342.1636,309.0057L356.0727,316.4090
            L369.9818,323.5607L383.8909,330.4114L397.8000,336.9197L411.7091,343.0526L425.6182,348.7865L439.5273,354.1066L453.4364,359.0071L467.3455,363.4895L481.2545,367.5624L495.1636,371.2397
            L509.0727,374.5398L522.9818,377.4841L536.8909,380.0961L550.8000,382.4004"/>
   <path d="M91.8000,190.2824L105.7091,195.1620L119.6182,200.3126L133.5273,205.7358L147.4364,211.4300L161.3455,217.3896L175.2545,223.6048L189.1636,230.0607L203.0727,236.7374L216.9818,243.6094
            L230.8909,250.6458L244.8000,257.8104L258.7091,265.0623L272.6182,272.3564L286.5273,279.6444L300.4364,286.8759L314.3455,293.9998L328.2545,300.9655L342.1636,307.7245L356.0727,314.2311
            L369.9818,320.4444L383.8909,326.3285L397.8000,331.8532L411.7091,336.9950L425.6182,341.7365L439.5273,346.0666L453.4364,349.9801L467.3455,353.4774L481.2545,356.5635L495.1636,359.2477
            L509.0727,361.5425L522.9818,363.4634L536.8909,365.0276L550.8000,366.2539"/>
   <path d="M91.8000,190.2824L105.7091,195.1583L119.6182,200.3029L133.5273,205.7195L147.4364,211.4085L161.3455,217.3661L175.2545,223.5841L189.1636,230.0490L203.0727,236.7414L216.9818,243.6358
            L230.8909,250.7001L244.8000,257.8964L258.7091,265.1807L272.6182,272.5043L286.5273,279.8147L300.4364,287.0577L314.3455,294.1784L328.2545,301.1240L342.1636,307.8449L356.0727,314.2970
            L369.9818,320.4428L383.8909,326.2521L397.8000,331.7031L411.7091,336.7820L425.6182,341.4827L439.5273,345.8064L453.4364,349.7602L467.3455,353.3565L481.2545,356.6117L495.1636,359.5450
            L509.0727,362.1776L522.9818,364.5318L536.8909,366.6303L550.8000,368.4954"/>
   <path d="M91.8000,190.2824L105.7091,194.8899L119.6182,199.7502L133.5273,204.8695L147.4364,210.2520L161.3455,215.8989L175.2545,221.8084L189.1636,227.9746L203.0727,234.3872L216.9818,241.0309
            L230.8909,247.8847L244.8000,254.9222L258.7091,262.1108L272.6182,269.4126L286.5273,276.7845L300.4364,284.1793L314.3455,291.5469L328.2545,298.8355L342.1636,305.9936L356.0727,312.9713
            L369.9818,319.7225L383.8909,326.2058L397.8000,332.3861L411.7091,338.2353L425.6182,343.7327L439.5273,348.8653L453.4364,353.6271L467.3455,358.0188L481.2545,362.0469L495.1636,365.7225
            L509.0727,369.0608L522.9818,372.0798L536.8909,374.7995L550.8000,377.2410"/>
   <path d="M91.8000,190.2824L105.7091,194.7685L119.6182,199.5102L133.5273,204.5175L147.4364,209.7991L161.3455,215.3618L175.2545,221.2103L189.1636,227.3462L203.0727,233.7677L216.9818,240.4685
            L230.8909,247.4377L244.8000,254.6586L258.7091,262.1085L272.6182,269.7584L286.5273,277.5731L300.4364,285.5107L314.3455,293.5242L328.2545,301.5618L342.1636,309.5682L356.0727,317.4866
            L369.9818,325.2602L383.8909,332.8345L397.8000,340.1586L411.7091,347.1873L425.6182,353.8821L439.5273,360.2126L453.4364,366.1565L467.3455,371.6998L481.2545,376.8367L495.1636,381.5684
            L509.0727,385.9026L522.9818,389.8522L536.8909,393.4342L550.8000,396.6690"/>
   <path d="M91.8000,190.2824L105.7091,195.0664L119.6182,200.1420L133.5273,205.5139L147.4364,211.1830L161.3455,217.1452L175.2545,223.3912L189.1636,229.9052L203.0727,236.6647L216.9818,243.6395
            L230.8909,250.7923L244.8000,258.0785L258.7091,265.4472L272.6182,272.8425L286.5273,280.2050L300.4364,287.4741L314.3455,294.5899L328.2545,301.4957L342.1636,308.1400L356.0727,314.4782
            L369.9818,320.4740L383.8909,326.1000L397.8000,331.3380L411.7091,336.1788L425.6182,340.6213L439.5273,344.6715L453.4364,348.3417L467.3455,351.6485L481.2545,354.6124L495.1636,357.2559
            L509.0727,359.6032L522.9818,361.6787L536.8909,363.5069L550.8000,365.1114"/>
   <path d="M91.8000,190.2824L105.7091,194.8699L119.6182,199.7425L133.5273,204.9083L147.4364,210.3722L161.3455,216.1360L175.2545,222.1967L189.1636,228.5463L203.0727,235.1708L216.9818,242.0493
            L230.8909,249.1543L244.8000,256.4504L258.7091,263.8954L272.6182,271.4406L286.5273,279.0318L300.4364,286.6107L314.3455,294.1171L328.2545,301.4905L342.1636,308.6728L356.0727,315.6102
            L369.9818,322.2548L383.8909,328.5665L397.8000,334.5137L411.7091,340.0738L425.6182,345.2331L439.5273,349.9864L453.4364,354.3363L467.3455,358.2915L481.2545,361.8665L495.1636,365.0795
            L509.0727,367.9521L522.9818,370.5075L536.8909,372.7699L550.8000,374.7638"/>
   <path d="M91.8000,190.2824L105.7091,195.1950L119.6182,200.4054L133.5273,205.9148L147.4364,211.7199L161.3455,217.8118L175.2545,224.1759L189.1636,230.7905L203.0727,237.6272L216.9818,244.6502
            L230.8909,251.8171L244.8000,259.0791L258.7091,266.3823L272.6182,273.6694L286.5273,280.8810L300.4364,287.9579L314.3455,294.8429L328.2545,301.4830L342.1636,307.8307L356.0727,313.8457
            L369.9818,319.4954L383.8909,324.7557L397.8000,329.6109L411.7091,334.0531L425.6182,338.0819L439.5273,341.7030L453.4364,344.9279L467.3455,347.7720L481.2545,350.2543L495.1636,352.3958
            L509.0727,354.2191L522.9818,355.7475L536.8909,357.0043L550.8000,358.0125"/>
   <path d="M91.8000,190.2824L105.7091,195.1344L119.6182,200.2566L133.5273,205.6529L147.4364,211.3244L161.3455,217.2681L175.2545,223.4765L189.1636,229.9370L203.0727,236.6311L216.9818,243.5340
            L230.8909,250.6147L244.8000,257.8355L258.7091,265.1529L272.6182,272.5184L286.5273,279.8794L300.4364,287.1811L314.3455,294.3679L328.2545,301.3859L342.1636,308.1842L356.0727,314.7171
            L369.9818,320.9455L383.8909,326.8378L397.8000,332.3706L411.7091,337.5287L425.6182,342.3049L439.5273,346.6994L453.4364,350.7188L467.3455,354.3750L481.2545,357.6841L495.1636,360.6654
            L509.0727,363.3401L522.9818,365.7309L536.8909,367.8608L550.8000,369.7524"/>
   <path d="M91.8000,190.2824L105.7091,195.0488L119.6182,200.0889L133.5273,205.4089L147.4364,211.0121L161.3455,216.8985L175.2545,223.0637L189.1636,229.4987L203.0727,236.1886L216.9818,243.1126
            L230.8909,250.2432L244.8000,257.5462L258.7091,264.9812L272.6182,272.5016L286.5273,280.0560L300.4364,287.5896L314.3455,295.0454L328.2545,302.3667L342.1636,309.4988L356.0727,316.3911
            L369.9818,322.9984L383.8909,329.2831L397.8000,335.2150L411.7091,340.7730L425.6182,345.9439L439.5273,350.7228L453.4364,355.1120L467.3455,359.1198L481.2545,362.7600L495.1636,366.0500
            L509.0727,369.0103L522.9818,371.6631L536.8909,374.0318L550.8000,376.1399"/>
   <path d="M91.8000,190.2824L105.7091,195.0110L119.6182,200.0042L133.5273,205.2682L147.4364,210.8063L161.3455,216.6190L175.2545,222.7027L189.1636,229.0495L203.0727,235.6463L216.9818,242.4743
            L230.8909,249.5086L244.8000,256.7183L258.7091,264.0661L272.6182,271.5091L286.5273,278.9994L300.4364,286.4854L314.3455,293.9131L328.2545,301.2283L342.1636,308.3775L356.0727,315.3107
            L369.9818,321.9826L383.8909,328.3541L397.8000,334.3933L411.7091,340.0763L425.6182,345.3869L439.5273,350.3170L453.4364,354.8654L467.3455,359.0376L481.2545,362.8441L495.1636,366.2999
            L509.0727,369.4233L522.9818,372.2347L536.8909,374.7560L550.8000,377.0096"/>
   <path d="M91.8000,190.2824L105.7091,194.8968L119.6182,199.7872L133.5273,204.9618L147.4364,210.4263L161.3455,216.1835L175.2545,222.2320L189.1636,228.5658L203.0727,235.1736L216.9818,242.0379
            L230.8909,249.1349L244.8000,256.4336L258.7091,263.8965L272.6182,271.4798L286.5273,279.1340L300.4364,286.8054L314.3455,294.4375L328.2545,301.9731L342.1636,309.3558L356.0727,316.5325
            L369.9818,323.4546L383.8909,330.0798L397.8000,336.3732L411.7091,342.3081L425.6182,347.8656L439.5273,353.0351L453.4364,357.8136L467.3455,362.2045L481.2545,366.2172L495.1636,369.8656
            L509.0727,373.1674L522.9818,376.1426L536.8909,378.8133L550.8000,381.2022"/>
   <path d="M91.8000,190.2824L105.7091,194.7298L119.6182,199.4228L133.5273,204.3697L147.4364,209.5767L161.3455,215.0485L175.2545,220.7871L189.1636,226.7913L203.0727,233.0563L216.9818,239.5732
            L230.8909,246.3282L244.8000,253.3022L258.7091,260.4706L272.6182,267.8031L286.5273,275.2639L300.4364,282.8118L314.3455,290.4016L328.2545,297.9842L342.1636,305.5088L356.0727,312.9238
            L369.9818,320.1787L383.8909,327.2257L397.8000,334.0212L411.7091,340.5270L425.6182,346.7118L439.5273,352.5509L453.4364,358.0273L467.3455,363.1312L481.2545,367.8596L495.1636,372.2157
            L509.0727,376.2079L522.9818,379.8490L536.8909,383.1552L550.8000,386.1453"/>
   <path d="M91.8000,190.2824L105.7091,195.0887L119.6182,200.1603L133.5273,205.5021L147.4364,211.1163L161.3455,217.0015L175.2545,223.1521L189.1636,229.5578L203.0727,236.2031L216.9818,243.0663
            L230.8909,250.1195L244.8000,257.3287L258.7091,264.6537L272.6182,272.0489L286.5273,279.4643L300.4364,286.8468L314.3455,294.1416L328.2545,301.2946L342.1636,308.2536L356.0727,314.9708
            L369.9818,321.4039L383.8909,327.5174L397.8000,333.2839L411.7091,338.6837L425.6182,343.7056L439.5273,348.3455L453.4364,352.6067L467.3455,356.4979L481.2545,360.0330L495.1636,363.2291
            L509.0727,366.1066L522.9818,368.6870L536.8909,370.9931L550.8000,373.0476"/>
   <path d="M91.8000,190.2824L105.7091,194.7007L119.6182,199.4087L133.5273,204.4138L147.4364,209.7205L161.3455,215.3294L175.2545,221.2369L189.1636,227.4338L203.0727,233.9057L216.9818,240.6313
            L230.8909,247.5830L244.8000,254.7266L258.7091,262.0216L272.6182,269.4221L286.5273,276.8775L300.4364,284.3343L314.3455,291.7377L328.2545,299.0330L342.1636,306.1681L356.0727,313.0949
            L369.9818,319.7706L383.8909,326.1591L397.8000,332.2317L411.7091,337.9673L425.6182,343.3524L439.5273,348.3806L453.4364,353.0519L467.3455,357.3718L481.2545,361.3506L495.1636,365.0019
            L509.0727,368.3422L522.9818,371.3898L536.8909,374.1638L550.8000,376.6841"/>
   <path d="M91.8000,190.2824L105.7091,195.0352L119.6182,200.1038L133.5273,205.4927L147.4364,211.2020L161.3455,217.2258L175.2545,223.5512L189.1636,230.1578L203.0727,237.0168L216.9818,244.0906
            L230.8909,251.3333L244.8000,258.6914L258.7091,266.1049L272.6182,273.5093L286.5273,280.8384L300.4364,288.0263L314.3455,295.0106L328.2545,301.7347L342.1636,308.1498L356.0727,314.2168
            L369.9818,319.9068L383.8909,325.2012L397.8000,330.0915L411.7091,334.5781L425.6182,338.6691L439.5273,342.3789L453.4364,345.7263L467.3455,348.7339L481.2545,351.4258L495.1636,353.8273
            L509.0727,355.9638L522.9818,357.8600L536.8909,359.5395L550.8000,361.0247"/>
   <path d="M91.8000,190.2824L105.7091,194.7823L119.6182,199.5656L133.5273,204.6410L147.4364,210.0144L161.3455,215.6883L175.2545,221.6608L189.1636,227.9252L203.0727,234.4688L216.9818,241.2722
            L230.8909,248.3094L244.8000,255.5469L258.7091,262.9445L272.6182,270.4554L286.5273,278.0277L300.4364,285.6052L314.3455,293.1299L328.2545,300.5435L342.1636,307.7895L356.0727,314.8154
            L369.9818,321.5743L383.8909,328.0262L397.8000,334.1390L411.7091,339.8890L425.6182,345.2607L439.5273,350.2466L453.4364,354.8466L467.3455,359.0665L481.2545,362.9177L495.1636,366.4157
            L509.0727,369.5791L522.9818,372.4284L536.8909,374.9858L550.8000,377.2738"/>
   <path d="M91.8000,190.2824L105.7091,194.7895L119.6182,199.5925L133.5273,204.7004L147.4364,210.1190L161.3455,215.8505L175.2545,221.8919L189.1636,228.2348L203.0727,234.8642L216.9818,241.7578
            L230.8909,248.8858L244.8000,256.2105L258.7091,263.6866L272.6182,271.2624L286.5273,278.8806L300.4364,286.4801L314.3455,293.9984L328.2545,301.3736L342.1636,308.5467L356.0727,315.4639
            L369.9818,322.0786L383.8909,328.3522L397.8000,334.2553L411.7091,339.7681L425.6182,344.8795L439.5273,349.5873L453.4364,353.8961L467.3455,357.8173L481.2545,361.3670L495.1636,364.5648
            L509.0727,367.4333L522.9818,369.9962L536.8909,372.2780L550.8000,374.3033"/>
   <path d="M91.8000,190.2824L105.7091,194.7775L119.6182,199.5216L133.5273,204.5219L147.4364,209.7837L161.3455,215.3099L175.2545,221.1005L189.1636,227.1519L203.0727,233.4565L216.9818,240.0019
            L230.8909,246.7707L244.8000,253.7399L258.7091,260.8810L272.6182,268.1601L286.5273,275.5378L300.4364,282.9705L314.3455,290.4111L328.2545,297.8100L342.1636,305.1169L356.0727,312.2822
            L369.9818,319.2584L383.8909,326.0021L397.8000,332.4746L411.7091,338.6433L425.6182,344.4824L439.5273,349.9731L453.4364,355.1036L467.3455,359.8687L481.2545,364.2694L495.1636,368.3120
            L509.0727,372.0074L522.9818,375.3699L536.8909,378.4167L550.8000,381.1668"/>
   <path d="M91.8000,190.2824L105.7091,194.7728L119.6182,199.5572L133.5273,204.6420L147.4364,210.0304L161.3455,215.7211L175.2545,221.7079L189.1636,227.9789L203.0727,234.5155L216.9818,241.2921
            L230.8909,248.2762L244.8000,255.4279L258.7091,262.7011L272.6182,270.0440L286.5273,277.4007L300.4364,284.7132L314.3455,291.9229L328.2545,298.9734L342.1636,305.8121L356.0727,312.3924
            L369.9818,318.6752L383.8909,324.6294L397.8000,330.2332L411.7091,335.4732L425.6182,340.3443L439.5273,344.8487L453.4364,348.9947L467.3455,352.7956L481.2545,356.2684L495.1636,359.4324
            L509.0727,362.3087L522.9818,364.9187L536.8909,367.2842L550.8000,369.4259"/>
   <path d="M91.8000,190.2824L105.7091,195.0909L119.6182,200.1675L133.5273,205.5169L147.4364,211.1408L161.3455,217.0373L175.2545,223.2001L189.1636,229.6177L203.0727,236.2733L216.9818,243.1437
            L230.8909,250.1995L244.8000,257.4048L258.7091,264.7180L272.6182,272.0923L286.5273,279.4764L300.4364,286.8170L314.3455,294.0594L328.2545,301.1502L342.1636,308.0385L356.0727,314.6784
            L369.9818,321.0297L383.8909,327.0593L397.8000,332.7419L411.7091,338.0601L425.6182,343.0044L439.5273,347.5721L453.4364,351.7674L467.3455,355.5996L481.2545,359.0825L495.1636,362.2334
            L509.0727,365.0719L522.9818,367.6192L536.8909,369.8973L550.8000,371.9282"/>
   <path d="M91.8000,190.2824L105.7091,194.6271L119.6182,199.2365L133.5273,204.1190L147.4364,209.2806L161.3455,214.7245L175.2545,220.4503L189.1636,226.4532L203.0727,232.7232L216.9818,239.2449
            L230.8909,245.9964L244.8000,252.9496L258.7091,260.0697L272.6182,267.3160L286.5273,274.6427L300.4364,281.9994L314.3455,289.3333L328.2545,296.5908L342.1636,303.7188L356.0727,310.6672
            L369.9818,317.3900L383.8909,323.8469L397.8000,330.0043L411.7091,335.8358L425.6182,341.3223L439.5273,346.4520L453.4364,351.2199L467.3455,355.6271L481.2545,359.6798L495.1636,363.3890
            L509.0727,366.7687L522.9818,369.8358L536.8909,372.6091L550.8000,375.1082"/>
   <path d="M91.8000,190.2824L105.7091,194.8573L119.6182,199.7354L133.5273,204.9274L147.4364,210.4410L161.3455,216.2803L175.2545,222.4446L189.1636,228.9279L203.0727,235.7176L216.9818,242.7936
            L230.8909,250.1281L244.8000,257.6851L258.7091,265.4204L272.6182,273.2824L286.5273,281.2133L300.4364,289.1507L314.3455,297.0293L328.2545,304.7841L342.1636,312.3518L356.0727,319.6741
            L369.9818,326.6990L383.8909,333.3831L397.8000,339.6919L411.7091,345.6009L425.6182,351.0953L439.5273,356.1691L453.4364,360.8248L467.3455,365.0715L481.2545,368.9243L495.1636,372.4023
            L509.0727,375.5280L522.9818,378.3257L536.8909,380.8206L550.8000,383.0384"/>
   <path d="M91.8000,190.2824L105.7091,194.8958L119.6182,199.7685L133.5273,204.9070L147.4364,210.3153L161.3455,215.9949L175.2545,221.9433L189.1636,228.1541L203.0727,234.6161L216.9818,241.3124
            L230.8909,248.2206L244.8000,255.3121L258.7091,262.5521L272.6182,269.9001L286.5273,277.3108L300.4364,284.7342L314.3455,292.1181L328.2545,299.4088L342.1636,306.5534L356.0727,313.5013
            L369.9818,320.2061L383.8909,326.6270L397.8000,332.7299L411.7091,338.4885L425.6182,343.8839L439.5273,348.9052L453.4364,353.5488L467.3455,357.8176L481.2545,361.7201L495.1636,365.2696
            L509.0727,368.4828L522.9818,371.3790L536.8909,373.9794L550.8000,376.3060"/>
   <path d="M91.8000,190.2824L105.7091,195.0736L119.6182,200.1473L133.5273,205.5092L147.4364,211.1624L161.3455,217.1056L175.2545,223.3332L189.1636,229.8340L203.0727,236.5908L216.9818,243.5797
            L230.8909,250.7698L244.8000,258.1233L258.7091,265.5958L272.6182,273.1371L286.5273,280.6924L300.4364,288.2039L314.3455,295.6130L328.2545,302.8617L342.1636,309.8956L356.0727,316.6651
            L369.9818,323.1273L383.8909,329.2474L397.8000,334.9989L411.7091,340.3644L425.6182,345.3349L439.5273,349.9093L453.4364,354.0934L467.3455,357.8988L481.2545,361.3418L495.1636,364.4421
            L509.0727,367.2217L522.9818,369.7041L536.8909,371.9132L550.8000,373.8729"/>
   <path d="M91.8000,190.2824L105.7091,195.2904L119.6182,200.5839L133.5273,206.1625L147.4364,212.0213L161.3455,218.1507L175.2545,224.5357L189.1636,231.1556L203.0727,237.9831L216.9818,244.9851
            L230.8909,252.1223L244.8000,259.3500L258.7091,266.6189L272.6182,273.8765L286.5273,281.0684L300.4364,288.1400L314.3455,295.0387L328.2545,301.7152L342.1636,308.1256L356.0727,314.2325
            L369.9818,320.0058L383.8909,325.4237L397.8000,330.4725L411.7091,335.1463L425.6182,339.4465L439.5273,343.3808L453.4364,346.9619L467.3455,350.2068L481.2545,353.1353L495.1636,355.7693
            L509.0727,358.1316L522.9818,360.2452L536.8909,362.1329L550.8000,363.8163"/>
   <path d="M91.8000,190.2824L105.7091,195.1405L119.6182,200.2613L133.5273,205.6439L147.4364,211.2839L161.3455,217.1730L175.2545,223.2984L189.1636,229.6428L203.0727,236.1840L216.9818,242.8950
            L230.8909,249.7444L244.8000,256.6968L258.7091,263.7136L272.6182,270.7542L286.5273,277.7770L300.4364,284.7407L314.3455,291.6060L328.2545,298.3362L342.1636,304.8988L356.0727,311.2662
            L369.9818,317.4160L383.8909,323.3314L397.8000,329.0011L411.7091,334.4189L425.6182,339.5833L439.5273,344.4965L453.4364,349.1641L467.3455,353.5941L481.2545,357.7961L495.1636,361.7812
            L509.0727,365.5609L522.9818,369.1472L536.8909,372.5519L550.8000,375.7863"/>
   <path d="M91.8000,190.2824L105.7091,194.8397L119.6182,199.6441L133.5273,204.7011L147.4364,210.0138L161.3455,215.5823L175.2545,221.4037L189.1636,227.4710L203.0727,233.7725L216.9818,240.2920
            L230.8909,247.0076L244.8000,253.8923L258.7091,260.9135L272.6182,268.0337L286.5273,275.2110L300.4364,282.3997L314.3455,289.5522L328.2545,296.6197L342.1636,303.5541L356.0727,310.3094
            L369.9818,316.8429L383.8909,323.1171L397.8000,329.1000L411.7091,334.7662L425.6182,340.0972L439.5273,345.0810L453.4364,349.7123L467.3455,353.9917L481.2545,357.9250L495.1636,361.5223
            L509.0727,364.7974L522.9818,367.7667L536.8909,370.4483L550.8000,372.8618"/>
   <path d="M91.8000,190.2824L105.7091,195.0178L119.6182,200.0105L133.5273,205.2641L147.4364,210.7788L161.3455,216.5517L175.2545,222.5754L189.1636,228.8378L203.0727,235.3213L216.9818,242.0028
            L230.8909,248.8535L244.8000,255.8387L258.7091,262.9183L272.6182,270.0477L286.5273,277.1790L300.4364,284.2616L314.3455,291.2448L328.2545,298.0786L342.1636,304.7159L356.0727,311.1137
            L369.9818,317.2348L383.8909,323.0483L397.8000,328.5307L411.7091,333.6655L425.6182,338.4436L439.5273,342.8625L453.4364,346.9257L467.3455,350.6420L481.2545,354.0241L495.1636,357.0881
            L509.0727,359.8524L522.9818,362.3370L536.8909,364.5626L550.8000,366.5500"/>
   <path d="M91.8000,190.2824L105.7091,194.8765L119.6182,199.7546L133.5273,204.9222L147.4364,210.3815L161.3455,216.1308L175.2545,222.1638L189.1636,228.4689L203.0727,235.0284L216.9818,241.8186
            L230.8909,248.8091L244.8000,255.9629L258.7091,263.2373L272.6182,270.5841L286.5273,277.9509L300.4364,285.2825L314.3455,292.5226L328.2545,299.6156L342.1636,306.5081L356.0727,313.1508
            L369.9818,319.5000L383.8909,325.5183L397.8000,331.1759L411.7091,336.4504L425.6182,341.3274L439.5273,345.7994L453.4364,349.8660L467.3455,353.5324L481.2545,356.8088L495.1636,359.7098
            L509.0727,362.2527L522.9818,364.4573L536.8909,366.3448L550.8000,367.9373"/>
   <path d="M91.8000,190.2824L105.7091,195.1482L119.6182,200.3107L133.5273,205.7735L147.4364,211.5358L161.3455,217.5914L175.2545,223.9282L189.1636,230.5269L203.0727,237.3609L216.9818,244.3956
            L230.8909,251.5888L244.8000,258.8913L258.7091,266.2477L272.6182,273.5985L286.5273,280.8816L300.4364,288.0351L314.3455,294.9996L328.2545,301.7203L342.1636,308.1492L356.0727,314.2469
            L369.9818,319.9828L383.8909,325.3361L397.8000,330.2955L411.7091,334.8581L425.6182,339.0288L439.5273,342.8188L453.4364,346.2445L467.3455,349.3259L481.2545,352.0854L495.1636,354.5472
            L509.0727,356.7357L522.9818,358.6753L536.8909,360.3897L550.8000,361.9015"/>
   <path d="M91.8000,190.2824L105.7091,194.9328L119.6182,199.8435L133.5273,205.0214L147.4364,210.4713L161.3455,216.1952L175.2545,222.1918L189.1636,228.4557L203.0727,234.9770L216.9818,241.7402
            L230.8909,248.7245L244.8000,255.9027L258.7091,263.2419L272.6182,270.7028L286.5273,278.2411L300.4364,285.8080L314.3455,293.3513L328.2545,300.8172L342.1636,308.1520L356.0727,315.3036
            L369.9818,322.2238L383.8909,328.8691L397.8000,335.2030L411.7091,341.1958L425.6182,346.8260L439.5273,352.0797L453.4364,356.9508L467.3455,361.4399L481.2545,365.5537L495.1636,369.3039
            L509.0727,372.7064L522.9818,375.7799L536.8909,378.5453L550.8000,381.0246"/>
   <path d="M91.8000,190.2824L105.7091,194.8951L119.6182,199.7745L133.5273,204.9262L147.4364,210.3531L161.3455,216.0542L175.2545,222.0246L189.1636,228.2543L203.0727,234.7275L216.9818,241.4224
            L230.8909,248.3108L244.8000,255.3580L258.7091,262.5230L272.6182,269.7594L286.5273,277.0165L300.4364,284.2404L314.3455,291.3760L328.2545,298.3691L342.1636,305.1679L356.0727,311.7252
            L369.9818,317.9997L383.8909,323.9574L397.8000,329.5720L411.7091,334.8254L425.6182,339.7077L439.5273,344.2161L453.4364,348.3546L467.3455,352.1328L481.2545,355.5645L495.1636,358.6674
            L509.0727,361.4611L522.9818,363.9672L536.8909,366.2076L550.8000,368.2046"/>
   <path d="M91.8000,190.2824L105.7091,195.1174L119.6182,200.2413L133.5273,205.6583L147.4364,211.3689L161.3455,217.3687L175.2545,223.6480L189.1636,230.1906L203.0727,236.9732L216.9818,243.9653
            L230.8909,251.1289L244.8000,258.4193L258.7091,265.7852L272.6182,273.1709L286.5273,280.5177L300.4364,287.7656L314.3455,294.8564L328.2545,301.7353L342.1636,308.3530L356.0727,314.6674
            L369.9818,320.6446L383.8909,326.2598L397.8000,331.4967L411.7091,336.3477L425.6182,340.8126L439.5273,344.8981L453.4364,348.6161L467.3455,351.9830L481.2545,355.0182L495.1636,357.7431
            L509.0727,360.1807L522.9818,362.3538L536.8909,364.2856L550.8000,365.9983"/>
   <path d="M91.8000,190.2824L105.7091,194.9301L119.6182,199.8930L133.5273,205.1786L147.4364,210.7906L161.3455,216.7275L175.2545,222.9815L189.1636,229.5378L203.0727,236.3736L216.9818,243.4573
            L230.8909,250.7488L244.8000,258.1993L258.7091,265.7526L272.6182,273.3465L286.5273,280.9149L300.4364,288.3900L314.3455,295.7056L328.2545,302.7994L342.1636,309.6156L356.0727,316.1069
            L369.9818,322.2359L383.8909,327.9756L397.8000,333.3097L411.7091,338.2318L425.6182,342.7440L439.5273,346.8562L453.4364,350.5841L467.3455,353.9476L481.2545,356.9698L495.1636,359.6756
            L509.0727,362.0906L522.9818,364.2402L536.8909,366.1493L550.8000,367.8415"/>
   <path d="M91.8000,190.2824L105.7091,194.7068L119.6182,199.3708L133.5273,204.2814L147.4364,209.4439L161.3455,214.8616L175.2545,220.5352L189.1636,226.4621L203.0727,232.6361L216.9818,239.0467
            L230.8909,245.6786L244.8000,252.5115L258.7091,259.5196L272.6182,266.6719L286.5273,273.9321L300.4364,281.2593L314.3455,288.6085L328.2545,295.9323L342.1636,303.1816L356.0727,310.3074
            L369.9818,317.2620L383.8909,324.0012L397.8000,330.4849L411.7091,336.6789L425.6182,342.5553L439.5273,348.0929L453.4364,353.2779L467.3455,358.1029L481.2545,362.5672L495.1636,366.6753
            L509.0727,370.4367L522.9818,373.8648L536.8909,376.9759L550.8000,379.7883"/>
   <path d="M91.8000,190.2824L105.7091,195.0935L119.6182,200.1910L133.5273,205.5762L147.4364,211.2466L161.3455,217.1953L175.2545,223.4101L189.1636,229.8736L203.0727,236.5620L216.9818,243.4458
            L230.8909,250.4896L244.8000,257.6521L258.7091,264.8873L272.6182,272.1455L286.5273,279.3739L300.4364,286.5187L314.3455,293.5265L328.2545,300.3456L342.1636,306.9277L356.0727,313.2293
            L369.9818,319.2125L383.8909,324.8463L397.8000,330.1063L411.7091,334.9755L425.6182,339.4439L439.5273,343.5080L453.4364,347.1704L467.3455,350.4389L481.2545,353.3255L495.1636,355.8463
            L509.0727,358.0196L522.9818,359.8660L536.8909,361.4075L550.8000,362.6666"/>
   <path d="M91.8000,190.2824L105.7091,194.5704L119.6182,199.1243L133.5273,203.9526L147.4364,209.0620L161.3455,214.4568L175.2545,220.1385L189.1636,226.1051L203.0727,232.3506L216.9818,238.8645
            L230.8909,245.6313L244.8000,252.6303L258.7091,259.8351L272.6182,267.2138L286.5273,274.7295L300.4364,282.3401L314.3455,289.9998L328.2545,297.6593L342.1636,305.2676L356.0727,312.7729
            L369.9818,320.1243L383.8909,327.2728L397.8000,334.1726L411.7091,340.7826L425.6182,347.0670L439.5273,352.9958L453.4364,358.5456L467.3455,363.6992L481.2545,368.4459L495.1636,372.7808
            L509.0727,376.7045L522.9818,380.2224L536.8909,383.3440L550.8000,386.0822"/>
   <path d="M91.8000,190.2824L105.7091,195.0412L119.6182,200.0666L133.5273,205.3641L147.4364,210.9365L161.3455,216.7831L175.2545,222.8992L189.1636,229.2753L203.0727,235.8963L216.9818,242.7415
            L230.8909,249.7838L244.8000,256.9897L258.7091,264.3197L272.6182,271.7288L286.5273,279.1676L300.4364,286.5834L314.3455,293.9220L328.2545,301.1295L342.1636,308.1540L356.0727,314.9476
            L369.9818,321.4678L383.8909,327.6785L397.8000,333.5515L411.7091,339.0659L425.6182,344.2090L439.5273,348.9752L453.4364,353.3658L467.3455,357.3877L481.2545,361.0530L495.1636,364.3772
            L509.0727,367.3789L522.9818,370.0787L536.8909,372.4981L550.8000,374.6592"/>
   <path d="M91.8000,190.2824L105.7091,195.1356L119.6182,200.2789L133.5273,205.7156L147.4364,211.4449L161.3455,217.4607L175.2545,223.7512L189.1636,230.2977L203.0727,237.0747L216.9818,244.0485
            L230.8909,251.1787L244.8000,258.4174L258.7091,265.7114L272.6182,273.0030L286.5273,280.2322L300.4364,287.3390L314.3455,294.2659L328.2545,300.9596L342.1636,307.3734L356.0727,313.4685
            L369.9818,319.2149L383.8909,324.5916L397.8000,329.5868L411.7091,334.1966L425.6182,338.4246L439.5273,342.2806L453.4364,345.7791L467.3455,348.9383L481.2545,351.7791L495.1636,354.3239
            L509.0727,356.5957L522.9818,358.6176L536.8909,360.4124L550.8000,362.0016"/>
   <path d="M91.8000,190.2824L105.7091,195.1717L119.6182,200.3312L133.5273,205.7641L147.4364,211.4700L161.3455,217.4449L175.2545,223.6795L189.1636,230.1596L203.0727,236.8647L216.9818,243.7683
            L230.8909,250.8373L244.8000,258.0326L258.7091,265.3097L272.6182,272.6192L286.5273,279.9086L300.4364,287.1238L314.3455,294.2107L328.2545,301.1172L342.1636,307.7952L356.0727,314.2019
            L369.9818,320.3011L383.8909,326.0641L397.8000,331.4703L411.7091,336.5069L425.6182,341.1685L439.5273,345.4566L453.4364,349.3786L467.3455,352.9469L481.2545,356.1775L495.1636,359.0895
            L509.0727,361.7036L522.9818,364.0419L536.8909,366.1265L550.8000,367.9794"/>
   <path d="M91.8000,190.2824L105.7091,194.9858L119.6182,199.9548L133.5273,205.1956L147.4364,210.7117L161.3455,216.5035L175.2545,222.5674L189.1636,228.8950L203.0727,235.4730L216.9818,242.2819
            L230.8909,249.2964L244.8000,256.4847L258.7091,263.8093L272.6182,271.2269L286.5273,278.6899L300.4364,286.1474L314.3455,293.5464L328.2545,300.8340L342.1636,307.9588L356.0727,314.8723
            L369.9818,321.5311L383.8909,327.8973L397.8000,333.9399L411.7091,339.6350L425.6182,344.9665L439.5273,349.9252L453.4364,354.5088L467.3455,358.7211L481.2545,362.5713L495.1636,366.0728
            L509.0727,369.2423L522.9818,372.0990L536.8909,374.6638L550.8000,376.9584"/>
   <path d="M91.8000,190.2824L105.7091,194.9824L119.6182,199.9555L133.5273,205.2081L147.4364,210.7436L161.3455,216.5619L175.2545,222.6587L189.1636,229.0248L203.0727,235.6450L216.9818,242.4984
            L230.8909,249.5572L244.8000,256.7872L258.7091,264.1477L272.6182,271.5924L286.5273,279.0704L300.4364,286.5274L314.3455,293.9076L328.2545,301.1555L342.1636,308.2180L356.0727,315.0458
            L369.9818,321.5954L383.8909,327.8304L397.8000,333.7219L411.7091,339.2490L425.6182,344.3991L439.5273,349.1671L453.4364,353.5545L467.3455,357.5692L481.2545,361.2236L495.1636,364.5343
            L509.0727,367.5203L522.9818,370.2029L536.8909,372.6042L550.8000,374.7468"/>
   <path d="M91.8000,190.2824L105.7091,194.8757L119.6182,199.7299L133.5273,204.8527L147.4364,210.2498L161.3455,215.9242L175.2545,221.8758L189.1636,228.1004L203.0727,234.5892L216.9818,241.3285
            L230.8909,248.2986L244.8000,255.4738L258.7091,262.8225L272.6182,270.3070L286.5273,277.8840L300.4364,285.5056L314.3455,293.1208L328.2545,300.6760L342.1636,308.1178L356.0727,315.3938
            L369.9818,322.4550L383.8909,329.2567L397.8000,335.7604L411.7091,341.9343L425.6182,347.7543L439.5273,353.2037L453.4364,358.2734L467.3455,362.9610L481.2545,367.2707L495.1636,371.2118
            L509.0727,374.7978L522.9818,378.0461L536.8909,380.9760L550.8000,383.6087"/>
   <path d="M91.8000,190.2824L105.7091,194.8626L119.6182,199.7196L133.5273,204.8614L147.4364,210.2933L161.3455,216.0174L175.2545,222.0318L189.1636,228.3297L203.0727,234.8988L216.9818,241.7204
            L230.8909,248.7694L244.8000,256.0137L258.7091,263.4146L272.6182,270.9268L286.5273,278.5001L300.4364,286.0800L314.3455,293.6098L328.2545,301.0321L342.1636,308.2913L356.0727,315.3350
            L369.9818,322.1162L383.8909,328.5942L397.8000,334.7363L411.7091,340.5178L425.6182,345.9221L439.5273,350.9406L453.4364,355.5723L467.3455,359.8222L481.2545,363.7010L495.1636,367.2238
            L509.0727,370.4087L522.9818,373.2764L536.8909,375.8489L550.8000,378.1487"/>
   <path d="M91.8000,190.2824L105.7091,195.1522L119.6182,200.2943L133.5273,205.7126L147.4364,211.4076L161.3455,217.3757L175.2545,223.6087L189.1636,230.0927L203.0727,236.8081L216.9818,243.7285
            L230.8909,250.8212L244.8000,258.0470L258.7091,265.3608L272.6182,272.7128L286.5273,280.0495L300.4364,287.3156L314.3455,294.4560L328.2545,301.4174L342.1636,308.1506L356.0727,314.6116
            L369.9818,320.7636L383.8909,326.5773L397.8000,332.0315L411.7091,337.1134L425.6182,341.8173L439.5273,346.1448L453.4364,350.1034L467.3455,353.7054L481.2545,356.9671L495.1636,359.9076
            L509.0727,362.5479L522.9818,364.9100L536.8909,367.0162L550.8000,368.8888"/>
   <path d="M91.8000,190.2824L105.7091,194.6831L119.6182,199.3229L133.5273,204.2085L147.4364,209.3452L161.3455,214.7357L175.2545,220.3804L189.1636,226.2763L203.0727,232.4165L216.9818,238.7901
            L230.8909,245.3813L244.8000,252.1693L258.7091,259.1281L272.6182,266.2264L286.5273,273.4282L300.4364,280.6929L314.3455,287.9764L328.2545,295.2324L342.1636,302.4130L356.0727,309.4707
            L369.9818,316.3599L383.8909,323.0378L397.8000,329.4661L411.7091,335.6119L425.6182,341.4482L439.5273,346.9548L453.4364,352.1180L467.3455,356.9304L481.2545,361.3907L495.1636,365.5028
            L509.0727,369.2752L522.9818,372.7202L536.8909,375.8530L550.8000,378.6907"/>
   <path d="M91.8000,190.2824L105.7091,194.9720L119.6182,199.9339L133.5273,205.1745L147.4364,210.6977L161.3455,216.5036L175.2545,222.5883L189.1636,228.9432L203.0727,235.5538L216.9818,242.3997
            L230.8909,249.4538L244.8000,256.6828L258.7091,264.0466L272.6182,271.4997L286.5273,278.9915L300.4364,286.4680L314.3455,293.8738L328.2545,301.1531L342.1636,308.2523L356.0727,315.1218
            L369.9818,321.7174L383.8909,328.0015L397.8000,333.9445L411.7091,339.5246L425.6182,344.7281L439.5273,349.5492L453.4364,353.9888L467.3455,358.0540L481.2545,361.7569L495.1636,365.1136
            L509.0727,368.1431L522.9818,370.8664L536.8909,373.3056L550.8000,375.4833"/>
   <path d="M91.8000,190.2824L105.7091,195.0500L119.6182,200.0828L133.5273,205.3852L147.4364,210.9590L161.3455,216.8021L175.2545,222.9083L189.1636,229.2664L203.0727,235.8596L216.9818,242.6653
            L230.8909,249.6546L244.8000,256.7925L258.7091,264.0381L272.6182,271.3456L286.5273,278.6650L300.4364,285.9437L314.3455,293.1282L328.2545,300.1659L342.1636,307.0067L356.0727,313.6050
            L369.9818,319.9209L383.8909,325.9214L397.8000,331.5810L411.7091,336.8819L425.6182,341.8142L439.5273,346.3747L453.4364,350.5669L467.3455,354.3997L481.2545,357.8862L495.1636,361.0434
            L509.0727,363.8902L522.9818,366.4475L536.8909,368.7368L550.8000,370.7799"/>
   <path d="M91.8000,190.2824L105.7091,194.9516L119.6182,199.8829L133.5273,205.0834L147.4364,210.5579L161.3455,216.3083L175.2545,222.3334L189.1636,228.6277L203.0727,235.1809L216.9818,241.9774
            L230.8909,248.9960L244.8000,256.2090L258.7091,263.5828L272.6182,271.0776L286.5273,278.6482L300.4364,286.2451L314.3455,293.8153L328.2545,301.3044L342.1636,308.6580L356.0727,315.8236
            L369.9818,322.7526L383.8909,329.4016L397.8000,335.7341L411.7091,341.7207L425.6182,347.3403L439.5273,352.5798L453.4364,357.4334L467.3455,361.9025L481.2545,365.9946L495.1636,369.7219
            L509.0727,373.1010L522.9818,376.1511L536.8909,378.8934L550.8000,381.3503"/>
   <path d="M91.8000,190.2824L105.7091,195.0772L119.6182,200.1367L133.5273,205.4655L147.4364,211.0657L161.3455,216.9356L175.2545,223.0696L189.1636,229.4572L203.0727,236.0827L216.9818,242.9243
            L230.8909,249.9543L244.8000,257.1384L258.7091,264.4368L272.6182,271.8041L286.5273,279.1906L300.4364,286.5435L314.3455,293.8089L328.2545,300.9329L342.1636,307.8641L356.0727,314.5552
            L369.9818,320.9643L383.8909,327.0565L397.8000,332.8045L411.7091,338.1890L425.6182,343.1987L439.5273,347.8295L453.4364,352.0845L467.3455,355.9722L481.2545,359.5061L495.1636,362.7032
            L509.0727,365.5833L522.9818,368.1679L536.8909,370.4791L550.8000,372.5396"/>
   <path d="M91.8000,190.2824L105.7091,194.9654L119.6182,199.9128L133.5273,205.1312L147.4364,210.6250L161.3455,216.3955L175.2545,222.4402L189.1636,228.7523L203.0727,235.3202L216.9818,242.1262
            L230.8909,249.1472L244.8000,256.3536L258.7091,263.7095L272.6182,271.1736L286.5273,278.6994L300.4364,286.2365L314.3455,293.7319L328.2545,301.1319L342.1636,308.3834L356.0727,315.4362
            L369.9818,322.2439L383.8909,328.7663L397.8000,334.9693L411.7091,340.8265L425.6182,346.3192L439.5273,351.4360L453.4364,356.1729L467.3455,360.5322L481.2545,364.5219L495.1636,368.1548
            L509.0727,371.4470L522.9818,374.4176L536.8909,377.0874L550.8000,379.4782"/>
   <path d="M91.8000,190.2824L105.7091,195.1689L119.6182,200.3258L133.5273,205.7565L147.4364,211.4611L161.3455,217.4356L175.2545,223.6711L189.1636,230.1535L203.0727,236.8624L216.9818,243.7714
            L230.8909,250.8474L244.8000,258.0512L258.7091,265.3377L272.6182,272.6572L286.5273,279.9565L300.4364,287.1810L314.3455,294.2757L328.2545,301.1882L342.1636,307.8696L356.0727,314.2770
            L369.9818,320.3739L383.8909,326.1320L397.8000,331.5305L411.7091,336.5573L425.6182,341.2073L439.5273,345.4827L453.4364,349.3914L467.3455,352.9461L481.2545,356.1634L495.1636,359.0627
            L509.0727,361.6651L522.9818,363.9925L536.8909,366.0674L550.8000,367.9118"/>
   <path d="M91.8000,190.2824L105.7091,194.5410L119.6182,199.0811L133.5273,203.9127L147.4364,209.0435L161.3455,214.4781L175.2545,220.2174L189.1636,226.2575L203.0727,232.5891L216.9818,239.1970
            L230.8909,246.0591L244.8000,253.1465L258.7091,260.4235L272.6182,267.8477L286.5273,275.3710L300.4364,282.9408L314.3455,290.5013L328.2545,297.9957L342.1636,305.3676L356.0727,312.5634
            L369.9818,319.5337L383.8909,326.2349L397.8000,332.6304L411.7091,338.6912L425.6182,344.3961L439.5273,349.7319L453.4364,354.6923L467.3455,359.2781L481.2545,363.4954L495.1636,367.3552
            L509.0727,370.8724L522.9818,374.0645L536.8909,376.9509L550.8000,379.5525"/>
   <path d="M91.8000,190.2824L105.7091,194.8547L119.6182,199.6809L133.5273,204.7679L147.4364,210.1205L161.3455,215.7407L175.2545,221.6276L189.1636,227.7760L203.0727,234.1767L216.9818,240.8152
            L230.8909,247.6717L244.8000,254.7204L258.7091,261.9299L272.6182,269.2630L286.5273,276.6775L300.4364,284.1267L314.3455,291.5608L328.2545,298.9284L342.1636,306.1776L356.0727,313.2583
            L369.9818,320.1234L383.8909,326.7306L397.8000,333.0435L411.7091,339.0322L425.6182,344.6744L439.5273,349.9550L453.4364,354.8661L467.3455,359.4066L481.2545,363.5810L495.1636,367.3991
            L509.0727,370.8746L522.9818,374.0244L536.8909,376.8675L550.8000,379.4246"/>
   <path d="M91.8000,190.2824L105.7091,195.0096L119.6182,199.9981L133.5273,205.2531L147.4364,210.7778L161.3455,216.5718L175.2545,222.6310L189.1636,228.9468L203.0727,235.5054L216.9818,242.2874
            L230.8909,249.2675L244.8000,256.4139L258.7091,263.6892L272.6182,271.0499L286.5273,278.4483L300.4364,285.8329L314.3455,293.1500L328.2545,300.3459L342.1636,307.3684L356.0727,314.1684
            L369.9818,320.7021L383.8909,326.9319L397.8000,332.8277L411.7091,338.3670L425.6182,343.5356L439.5273,348.3267L453.4364,352.7406L467.3455,356.7838L481.2545,360.4679L495.1636,363.8087
            L509.0727,366.8248L522.9818,369.5371L536.8909,371.9674L550.8000,374.1383"/>
   <path d="M91.8000,190.2824L105.7091,194.8532L119.6182,199.6844L133.5273,204.7850L147.4364,210.1618L161.3455,215.8195L175.2545,221.7601L189.1636,227.9819L203.0727,234.4790L216.9818,241.2409
            L230.8909,248.2514L244.8000,255.4887L258.7091,262.9245L272.6182,270.5244L286.5273,278.2481L300.4364,286.0495L314.3455,293.8782L328.2545,301.6807L342.1636,309.4014L356.0727,316.9852
            L369.9818,324.3787L383.8909,331.5321L397.8000,338.4013L411.7091,344.9483L425.6182,351.1431L439.5273,356.9634L453.4364,362.3951L467.3455,367.4317L481.2545,372.0738L495.1636,376.3284
            L509.0727,380.2075L522.9818,383.7273L536.8909,386.9070L550.8000,389.7681"/>
   <path d="M91.8000,190.2824L105.7091,194.5655L119.6182,199.1229L133.5273,203.9652L147.4364,209.1012L161.3455,214.5370L175.2545,220.2754L189.1636,226.3148L203.0727,232.6490L216.9818,239.2659
            L230.8909,246.1468L244.8000,253.2665L258.7091,260.5923L272.6182,268.0848L286.5273,275.6981L300.4364,283.3808L314.3455,291.0773L328.2545,298.7299L342.1636,306.2803L356.0727,313.6718
            L369.9818,320.8516L383.8909,327.7719L397.8000,334.3921L411.7091,340.6788L425.6182,346.6073L439.5273,352.1607L453.4364,357.3302L467.3455,362.1141L481.2545,366.5170L495.1636,370.5488
            L509.0727,374.2238L522.9818,377.5594L536.8909,380.5753L550.8000,383.2927"/>
   <path d="M91.8000,190.2824L105.7091,194.8272L119.6182,199.6298L133.5273,204.6988L147.4364,210.0411L161.3455,215.6615L175.2545,221.5621L189.1636,227.7413L203.0727,234.1937L216.9818,240.9092
            L230.8909,247.8723L244.8000,255.0616L258.7091,262.4500L272.6182,270.0040L286.5273,277.6840L300.4364,285.4453L314.3455,293.2382L328.2545,301.0102L342.1636,308.7064L356.0727,316.2723
            L369.9818,323.6546L383.8909,330.8039L397.8000,337.6757L411.7091,344.2317L425.6182,350.4412L439.5273,356.2813L453.4364,361.7370L467.3455,366.8010L481.2545,371.4731L495.1636,375.7594
            L509.0727,379.6712L522.9818,383.2239L536.8909,386.4365L550.8000,389.3297"/>
   <path d="M91.8000,190.2824L105.7091,195.1058L119.6182,200.2006L133.5273,205.5707L147.4364,211.2167L161.3455,217.1351L175.2545,223.3175L189.1636,229.7501L203.0727,236.4133L216.9818,243.2807
            L230.8909,250.3194L244.8000,257.4904L258.7091,264.7486L272.6182,272.0443L286.5273,279.3241L300.4364,286.5332L314.3455,293.6166L328.2545,300.5217L342.1636,307.1996L356.0727,313.6071
            L369.9818,319.7078L383.8909,325.4732L397.8000,330.8826L411.7091,335.9233L425.6182,340.5902L439.5273,344.8849L453.4364,348.8149L467.3455,352.3926L481.2545,355.6341L495.1636,358.5581
            L509.0727,361.1853L522.9818,363.5374L536.8909,365.6364L550.8000,367.5041"/>
   <path d="M91.8000,190.2824L105.7091,194.8607L119.6182,199.7000L133.5273,204.8083L147.4364,210.1923L161.3455,215.8557L175.2545,221.7994L189.1636,228.0205L203.0727,234.5116L216.9818,241.2601
            L230.8909,248.2482L244.8000,255.4517L258.7091,262.8405L272.6182,270.3781L286.5273,278.0226L300.4364,285.7270L314.3455,293.4406L328.2545,301.1100L342.1636,308.6812L356.0727,316.1009
            L369.9818,323.3185L383.8909,330.2875L397.8000,336.9670L411.7091,343.3229L425.6182,349.3283L439.5273,354.9640L453.4364,360.2183L467.3455,365.0867L481.2545,369.5712L495.1636,373.6797
            L509.0727,377.4244L522.9818,380.8216L536.8909,383.8902L550.8000,386.6512"/>
   <path d="M91.8000,190.2824L105.7091,194.8083L119.6182,199.5920L133.5273,204.6424L147.4364,209.9665L161.3455,215.5694L175.2545,221.4532L189.1636,227.6168L203.0727,234.0546L216.9818,240.7569
            L230.8909,247.7081L244.8000,254.8872L258.7091,262.2672L272.6182,269.8147L286.5273,277.4907L300.4364,285.2506L314.3455,293.0454L328.2545,300.8231L342.1636,308.5296L356.0727,316.1108
            L369.9818,323.5142L383.8909,330.6909L397.8000,337.5964L411.7091,344.1929L425.6182,350.4491L439.5273,356.3417L453.4364,361.8550L467.3455,366.9808L481.2545,371.7177L495.1636,376.0708
            L509.0727,380.0501L522.9818,383.6702L536.8909,386.9487L550.8000,389.9059"/>
   <path d="M91.8000,190.2824L105.7091,194.9723L119.6182,199.9231L133.5273,205.1409L147.4364,210.6291L161.3455,216.3882L175.2545,222.4150L189.1636,228.7016L203.0727,235.2355L216.9818,241.9985
            L230.8909,248.9663L244.8000,256.1085L258.7091,263.3888L272.6182,270.7649L286.5273,278.1897L300.4364,285.6125L314.3455,292.9797L328.2545,300.2376L342.1636,307.3331L356.0727,314.2165
            L369.9818,320.8424L383.8909,327.1717L397.8000,333.1723L411.7091,338.8199L425.6182,344.0983L439.5273,348.9989L453.4364,353.5202L467.3455,357.6673L481.2545,361.4505L495.1636,364.8847
            L509.0727,367.9878L522.9818,370.7801L536.8909,373.2834L550.8000,375.5200"/>
   <path d="M91.8000,190.2824L105.7091,195.1266L119.6182,200.2308L133.5273,205.5971L147.4364,211.2242L161.3455,217.1069L175.2545,223.2356L189.1636,229.5953L203.0727,236.1655L216.9818,242.9197
            L230.8909,249.8256L244.8000,256.8448L258.7091,263.9342L272.6182,271.0463L286.5273,278.1304L300.4364,285.1346L314.3455,292.0074L328.2545,298.6991L342.1636,305.1640L356.0727,311.3615
            L369.9818,317.2575L383.8909,322.8253L397.8000,328.0457L411.7091,332.9072L425.6182,337.4053L439.5273,341.5422L453.4364,345.3257L467.3455,348.7681L481.2545,351.8853L495.1636,354.6961
            L509.0727,357.2206L522.9818,359.4802L536.8909,361.4964L550.8000,363.2903"/>
   <path d="M91.8000,190.2824L105.7091,194.7491L119.6182,199.4672L133.5273,204.4440L147.4364,209.6848L161.3455,215.1926L175.2545,220.9670L189.1636,227.0042L203.0727,233.2958L216.9818,239.8287
            L230.8909,246.5843L244.8000,253.5384L258.7091,260.6608L272.6182,267.9158L286.5273,275.2626L300.4364,282.6557L314.3455,290.0465L328.2545,297.3845L342.1636,304.6188L356.0727,311.6997
            L369.9818,318.5803L383.8909,325.2183L397.8000,331.5767L411.7091,337.6249L425.6182,343.3394L439.5273,348.7037L453.4364,353.7081L467.3455,358.3495L481.2545,362.6306L495.1636,366.5592
            L509.0727,370.1471L522.9818,373.4095L536.8909,376.3638L550.8000,379.0294"/>
   <path d="M91.8000,190.2824L105.7091,194.2591L119.6182,198.4617L133.5273,202.9024L147.4364,207.5929L161.3455,212.5450L175.2545,217.7697L189.1636,223.2769L203.0727,229.0754L216.9818,235.1721
            L230.8909,241.5715L244.8000,248.2755L258.7091,255.2825L272.6182,262.5867L286.5273,270.1779L300.4364,278.0406L314.3455,286.1538L328.2545,294.4907L342.1636,303.0182L356.0727,311.6975
            L369.9818,320.4840L383.8909,329.3283L397.8000,338.1771L411.7091,346.9743L425.6182,355.6627L439.5273,364.1855L453.4364,372.4881L467.3455,380.5199L481.2545,388.2353L495.1636,395.5958
            L509.0727,402.5700L522.9818,409.1345L536.8909,415.2743L550.8000,420.9820"/>
   <path d="M91.8000,190.2824L105.7091,194.9813L119.6182,199.9515L133.5273,205.2004L147.4364,210.7329L161.3455,216.5507L175.2545,222.6518L189.1636,229.0296L203.0727,235.6721L216.9818,242.5617
            L230.8909,249.6742L244.8000,256.9792L258.7091,264.4396L272.6182,272.0122L286.5273,279.6489L300.4364,287.2970L314.3455,294.9018L328.2545,302.4073L342.1636,309.7589L356.0727,316.9046
            L369.9818,323.7971L383.8909,330.3950L397.8000,336.6641L411.7091,342.5780L425.6182,348.1179L439.5273,353.2733L453.4364,358.0406L467.3455,362.4232L481.2545,366.4298L495.1636,370.0741
            L509.0727,373.3731L522.9818,376.3468L536.8909,379.0167L550.8000,381.4052"/>
   <path d="M91.8000,190.2824L105.7091,194.6473L119.6182,199.2908L133.5273,204.2191L147.4364,209.4355L161.3455,214.9399L175.2545,220.7276L189.1636,226.7894L203.0727,233.1103L216.9818,239.6697
            L230.8909,246.4407L244.8000,253.3907L258.7091,260.4812L272.6182,267.6687L286.5273,274.9058L300.4364,282.1421L314.3455,289.3261L328.2545,296.4062L342.1636,303.3330L356.0727,310.0605
            L369.9818,316.5471L383.8909,322.7573L397.8000,328.6620L411.7091,334.2390L425.6182,339.4730L439.5273,344.3555L453.4364,348.8841L467.3455,353.0619L481.2545,356.8969L495.1636,360.4008
            L509.0727,363.5883L522.9818,366.4764L536.8909,369.0837L550.8000,371.4295"/>
   <path d="M91.8000,190.2824L105.7091,194.8548L119.6182,199.6863L133.5273,204.7844L147.4364,210.1546L161.3455,215.7999L175.2545,221.7200L189.1636,227.9107L203.0727,234.3631L216.9818,241.0632
            L230.8909,247.9914L244.8000,255.1218L258.7091,262.4224L272.6182,269.8551L286.5273,277.3760L300.4364,284.9368L314.3455,292.4852L328.2545,299.9670L342.1636,307.3277L356.0727,314.5143
            L369.9818,321.4768L383.8909,328.1707L397.8000,334.5575L411.7091,340.6060L425.6182,346.2930L439.5273,351.6035L453.4364,356.5297L467.3455,361.0715L481.2545,365.2348L495.1636,369.0307
            L509.0727,372.4746L522.9818,375.5851L536.8909,378.3829L550.8000,380.8901"/>
   <path d="M91.8000,190.2824L105.7091,195.0494L119.6182,200.0965L133.5273,205.4290L147.4364,211.0490L161.3455,216.9543L175.2545,223.1383L189.1636,229.5883L203.0727,236.2858L216.9818,243.2055
            L230.8909,250.3149L244.8000,257.5751L258.7091,264.9406L272.6182,272.3609L286.5273,279.7811L300.4364,287.1444L314.3455,294.3934L328.2545,301.4727L342.1636,308.3303L356.0727,314.9200
            L369.9818,321.2022L383.8909,327.1455L397.8000,332.7266L411.7091,337.9306L425.6182,342.7509L439.5273,347.1878L453.4364,351.2481L467.3455,354.9439L481.2545,358.2913L495.1636,361.3095
            L509.0727,364.0197L522.9818,366.4445L536.8909,368.6067L550.8000,370.5290"/>
   <path d="M91.8000,190.2824L105.7091,194.6787L119.6182,199.3387L133.5273,204.2721L147.4364,209.4866L161.3455,214.9878L175.2545,220.7781L189.1636,226.8564L203.0727,233.2172L216.9818,239.8502
            L230.8909,246.7393L244.8000,253.8625L258.7091,261.1917L272.6182,268.6923L286.5273,276.3238L300.4364,284.0405L314.3455,291.7922L328.2545,299.5257L342.1636,307.1863L356.0727,314.7191
            L369.9818,322.0716L383.8909,329.1945L397.8000,336.0437L411.7091,342.5816L425.6182,348.7775L439.5273,354.6087L453.4364,360.0600L467.3455,365.1239L481.2545,369.7997L495.1636,374.0929
            L509.0727,378.0143L522.9818,381.5787L536.8909,384.8042L550.8000,387.7112"/>
   <path d="M91.8000,190.2824L105.7091,195.1619L119.6182,200.3410L133.5273,205.8232L147.4364,211.6079L161.3455,217.6891L175.2545,224.0545L189.1636,230.6851L203.0727,237.5544L216.9818,244.6278
            L230.8909,251.8633L244.8000,259.2115L258.7091,266.6170L272.6182,274.0197L286.5273,281.3571L300.4364,288.5665L314.3455,295.5871L328.2545,302.3629L342.1636,308.8442L356.0727,314.9895
            L369.9818,320.7666L383.8909,326.1528L397.8000,331.1350L411.7091,335.7091L425.6182,339.8788L439.5273,343.6547L453.4364,347.0527L467.3455,350.0929L481.2545,352.7982L495.1636,355.1931
            L509.0727,357.3031L522.9818,359.1536L536.8909,360.7693L550.8000,362.1740"/>
   <path d="M91.8000,190.2824L105.7091,195.3878L119.6182,200.8120L133.5273,206.5633L147.4364,212.6463L161.3455,219.0613L175.2545,225.8029L189.1636,232.8592L203.0727,240.2108L216.9818,247.8300
            L230.8909,255.6805L244.8000,263.7175L258.7091,271.8875L272.6182,280.1301L286.5273,288.3795L300.4364,296.5663L314.3455,304.6202L328.2545,312.4729L342.1636,320.0607L356.0727,327.3270
            L369.9818,334.2241L383.8909,340.7147L397.8000,346.7723L411.7091,352.3816L425.6182,357.5374L439.5273,362.2437L453.4364,366.5122L467.3455,370.3611L481.2545,373.8130L495.1636,376.8940
            L509.0727,379.6319L522.9818,382.0554L536.8909,384.1932L550.8000,386.0730"/>
   <path d="M91.8000,190.2824L105.7091,195.2012L119.6182,200.3886L133.5273,205.8459L147.4364,211.5710L161.3455,217.5572L175.2545,223.7926L189.1636,230.2594L203.0727,236.9336L216.9818,243.7849
            L230.8909,250.7764L244.8000,257.8653L258.7091,265.0038L272.6182,272.1403L286.5273,279.2209L300.4364,286.1915L314.3455,292.9992L328.2545,299.5951L342.1636,305.9350L356.0727,311.9815
            L369.9818,317.7046L383.8909,323.0822L397.8000,328.1001L411.7091,332.7516L425.6182,337.0370L439.5273,340.9624L453.4364,344.5391L467.3455,347.7821L481.2545,350.7093L495.1636,353.3408
            L509.0727,355.6977L522.9818,357.8016L536.8909,359.6740L550.8000,361.3359"/>
   <path d="M91.8000,190.2824L105.7091,194.6062L119.6182,199.1682L133.5273,203.9753L147.4364,209.0326L161.3455,214.3428L175.2545,219.9060L189.1636,225.7188L203.0727,231.7739L216.9818,238.0597
            L230.8909,244.5596L244.8000,251.2522L258.7091,258.1106L272.6182,265.1033L286.5273,272.1936L300.4364,279.3414L314.3455,286.5033L328.2545,293.6339L342.1636,300.6873L356.0727,307.6181
            L369.9818,314.3832L383.8909,320.9421L397.8000,327.2590L411.7091,333.3028L425.6182,339.0481L439.5273,344.4756L453.4364,349.5718L467.3455,354.3294L481.2545,358.7463L495.1636,362.8255
            L509.0727,366.5744L522.9818,370.0041L536.8909,373.1282L550.8000,375.9630"/>
   <path d="M91.8000,190.2824L105.7091,194.7403L119.6182,199.4501L133.5273,204.4209L147.4364,209.6607L161.3455,215.1757L175.2545,220.9696L189.1636,227.0431L203.0727,233.3937L216.9818,240.0144
            L230.8909,246.8934L244.8000,254.0139L258.7091,261.3529L272.6182,268.8817L286.5273,276.5654L300.4364,284.3633L314.3455,292.2296L328.2545,300.1143L342.1636,307.9644L356.0727,315.7253
            L369.9818,323.3429L383.8909,330.7651L397.8000,337.9432L411.7091,344.8342L425.6182,351.4014L439.5273,357.6154L453.4364,363.4548L467.3455,368.9059L481.2545,373.9626L495.1636,378.6257
            L509.0727,382.9021L522.9818,386.8036L536.8909,390.3464L550.8000,393.5494"/>
   <path d="M91.8000,190.2824L105.7091,195.1526L119.6182,200.2942L133.5273,205.7110L147.4364,211.4032L161.3455,217.3669L175.2545,223.5937L189.1636,230.0695L203.0727,236.7742L216.9818,243.6811
            L230.8909,250.7574L244.8000,257.9633L258.7091,265.2536L272.6182,272.5780L286.5273,279.8831L300.4364,287.1133L314.3455,294.2133L328.2545,301.1299L342.1636,307.8140L356.0727,314.2222
            L369.9818,320.3181L383.8909,326.0729L397.8000,331.4666L411.7091,336.4868L425.6182,341.1291L439.5273,345.3961L453.4364,349.2959L467.3455,352.8419L481.2545,356.0508L495.1636,358.9423
            L509.0727,361.5377L522.9818,363.8591L536.8909,365.9289L550.8000,367.7692"/>
   <path d="M91.8000,190.2824L105.7091,194.3325L119.6182,198.6139L133.5273,203.1385L147.4364,207.9180L161.3455,212.9637L175.2545,218.2857L189.1636,223.8932L203.0727,229.7937L216.9818,235.9925
            L230.8909,242.4923L244.8000,249.2925L258.7091,256.3888L272.6182,263.7725L286.5273,271.4301L300.4364,279.3426L314.3455,287.4855L328.2545,295.8282L342.1636,304.3344L356.0727,312.9621
            L369.9818,321.6640L383.8909,330.3887L397.8000,339.0814L411.7091,347.6854L425.6182,356.1441L439.5273,364.4019L453.4364,372.4068L467.3455,380.1115L481.2545,387.4748L495.1636,394.4629
            L509.0727,401.0499L522.9818,407.2181L536.8909,412.9577L550.8000,418.2667"/>
   <path d="M91.8000,190.2824L105.7091,195.3072L119.6182,200.6076L133.5273,206.1857L147.4364,212.0397L161.3455,218.1632L175.2545,224.5447L189.1636,231.1666L203.0727,238.0051L216.9818,245.0296
            L230.8909,252.2027L244.8000,259.4808L258.7091,266.8147L272.6182,274.1509L286.5273,281.4331L300.4364,288.6043L314.3455,295.6085L328.2545,302.3932L342.1636,308.9111L356.0727,315.1214
            L369.9818,320.9915L383.8909,326.4971L397.8000,331.6230L411.7091,336.3618L425.6182,340.7143L439.5273,344.6876L453.4364,348.2944L467.3455,351.5520L481.2545,354.4803L495.1636,357.1018
            L509.0727,359.4399L522.9818,361.5182L536.8909,363.3602L550.8000,364.9885"/>
   <path d="M91.8000,190.2824L105.7091,194.6307L119.6182,199.2220L133.5273,204.0648L147.4364,209.1665L161.3455,214.5323L175.2545,220.1654L189.1636,226.0660L203.0727,232.2309L216.9818,238.6526
            L230.8909,245.3193L244.8000,252.2138L258.7091,259.3136L272.6182,266.5905L286.5273,274.0106L300.4364,281.5346L314.3455,289.1187L328.2545,296.7151L342.1636,304.2736L356.0727,311.7426
            L369.9818,319.0713L383.8909,326.2108L397.8000,333.1160L411.7091,339.7467L425.6182,346.0689L439.5273,352.0556L453.4364,357.6869L467.3455,362.9504L481.2545,367.8403L495.1636,372.3575
            L509.0727,376.5084L522.9818,380.3038L536.8909,383.7587L550.8000,386.8905"/>
   <path d="M91.8000,190.2824L105.7091,194.7224L119.6182,199.4050L133.5273,204.3369L147.4364,209.5237L161.3455,214.9681L175.2545,220.6707L189.1636,226.6284L203.0727,232.8344L216.9818,239.2776
            L230.8909,245.9420L244.8000,252.8065L258.7091,259.8447L272.6182,267.0248L286.5273,274.3100L300.4364,281.6592L314.3455,289.0274L328.2545,296.3673L342.1636,303.6302L356.0727,310.7677
            L369.9818,317.7332L383.8909,324.4831L397.8000,330.9784L411.7091,337.1857L425.6182,343.0776L439.5273,348.6335L453.4364,353.8397L467.3455,358.6889L481.2545,363.1800L495.1636,367.3172
            L509.0727,371.1096L522.9818,374.5697L536.8909,377.7134L550.8000,380.5585"/>
   <path d="M91.8000,190.2824L105.7091,194.7533L119.6182,199.4805L133.5273,204.4696L147.4364,209.7241L161.3455,215.2443L175.2545,221.0266L189.1636,227.0634L203.0727,233.3417L216.9818,239.8433
            L230.8909,246.5443L244.8000,253.4144L258.7091,260.4178L272.6182,267.5133L286.5273,274.6549L300.4364,281.7932L314.3455,288.8768L328.2545,295.8536L342.1636,302.6730L356.0727,309.2875
            L369.9818,315.6537L383.8909,321.7345L397.8000,327.4995L411.7091,332.9254L425.6182,337.9968L439.5273,342.7052L453.4364,347.0493L467.3455,351.0334L481.2545,354.6671L495.1636,357.9640
            L509.0727,360.9410L522.9818,363.6171L536.8909,366.0127L550.8000,368.1489"/>
   <path d="M91.8000,190.2824L105.7091,194.9977L119.6182,200.0112L133.5273,205.3303L147.4364,210.9593L161.3455,216.8981L175.2545,223.1415L189.1636,229.6782L203.0727,236.4901L216.9818,243.5515
            L230.8909,250.8290L244.8000,258.2815L258.7091,265.8607L272.6182,273.5118L286.5273,281.1756L300.4364,288.7900L314.3455,296.2926L328.2545,303.6223L342.1636,310.7226L356.0727,317.5429
            L369.9818,324.0404L383.8909,330.1811L397.8000,335.9402L411.7091,341.3022L425.6182,346.2606L439.5273,350.8166L453.4364,354.9782L467.3455,358.7591L481.2545,362.1770L495.1636,365.2532
            L509.0727,368.0105L522.9818,370.4731L536.8909,372.6653L550.8000,374.6113"/>
   <path d="M91.8000,190.2824L105.7091,194.6660L119.6182,199.2853L133.5273,204.1464L147.4364,209.2538L161.3455,214.6095L175.2545,220.2128L189.1636,226.0597L203.0727,232.1424L216.9818,238.4488
            L230.8909,244.9620L244.8000,251.6601L258.7091,258.5163L272.6182,265.4988L286.5273,272.5713L300.4364,279.6935L314.3455,286.8221L328.2545,293.9119L342.1636,300.9171L356.0727,307.7925
            L369.9818,314.4949L383.8909,320.9845L397.8000,327.2256L411.7091,333.1880L425.6182,338.8471L439.5273,344.1844L453.4364,349.1877L467.3455,353.8506L481.2545,358.1725L495.1636,362.1573
            L509.0727,365.8135L522.9818,369.1529L536.8909,372.1903L550.8000,374.9422"/>
   <path d="M91.8000,190.2824L105.7091,194.9097L119.6182,199.7954L133.5273,204.9470L147.4364,210.3698L161.3455,216.0666L175.2545,222.0370L189.1636,228.2766L203.0727,234.7768L216.9818,241.5236
            L230.8909,248.4976L244.8000,255.6733L258.7091,263.0190L272.6182,270.4971L286.5273,278.0642L300.4364,285.6722L314.3455,293.2696L328.2545,300.8024L342.1636,308.2164L356.0727,315.4584
            L369.9818,322.4788L383.8909,329.2325L397.8000,335.6807L411.7091,341.7919L425.6182,347.5422L439.5273,352.9160L453.4364,357.9052L467.3455,362.5090L481.2545,366.7327L495.1636,370.5874
            L509.0727,374.0880L522.9818,377.2531L536.8909,380.1032L550.8000,382.6603"/>
   <path d="M91.8000,190.2824L105.7091,195.1537L119.6182,200.2968L133.5273,205.7159L147.4364,211.4122L161.3455,217.3832L175.2545,223.6215L189.1636,230.1148L203.0727,236.8449L216.9818,243.7873
            L230.8909,250.9111L244.8000,258.1788L258.7091,265.5471L272.6182,272.9673L286.5273,280.3868L300.4364,287.7505L314.3455,295.0026L328.2545,302.0887L342.1636,308.9575L356.0727,315.5627
            L369.9818,321.8645L383.8909,327.8306L397.8000,333.4371L411.7091,338.6681L425.6182,343.5159L439.5273,347.9801L453.4364,352.0669L467.3455,355.7877L481.2545,359.1585L495.1636,362.1983
            L509.0727,364.9283L522.9818,367.3709L536.8909,369.5492L550.8000,371.4860"/>
   <path d="M91.8000,190.2824L105.7091,195.0520L119.6182,200.0827L133.5273,205.3787L147.4364,210.9416L161.3455,216.7694L175.2545,222.8560L189.1636,229.1905L203.0727,235.7567L216.9818,242.5327
            L230.8909,249.4906L244.8000,256.5962L258.7091,263.8097L272.6182,271.0862L286.5273,278.3766L300.4364,285.6289L314.3455,292.7901L328.2545,299.8075L342.1636,306.6311L356.0727,313.2146
            L369.9818,319.5177L383.8909,325.5065L397.8000,331.1550L411.7091,336.4446L425.6182,341.3649L439.5273,345.9124L453.4364,350.0903L467.3455,353.9074L481.2545,357.3772L495.1636,360.5165
            L509.0727,363.3449L522.9818,365.8834L536.8909,368.1538L550.8000,370.1784"/>
   <path d="M91.8000,190.2824L105.7091,195.1854L119.6182,200.3595L133.5273,205.8072L147.4364,211.5274L161.3455,217.5150L175.2545,223.7596L189.1636,230.2452L203.0727,236.9499L216.9818,243.8451
            L230.8909,250.8958L244.8000,258.0609L258.7091,265.2938L272.6182,272.5436L286.5273,279.7565L300.4364,286.8773L314.3455,293.8519L328.2545,300.6288L342.1636,307.1610L356.0727,313.4075
            L369.9818,319.3345L383.8909,324.9164L397.8000,330.1354L411.7091,334.9818L425.6182,339.4534L439.5273,343.5544L453.4364,347.2948L467.3455,350.6888L481.2545,353.7542L495.1636,356.5110
            L509.0727,358.9809L522.9818,361.1862L536.8909,363.1490L550.8000,364.8913"/>
   <path d="M91.8000,190.2824L105.7091,194.4462L119.6182,198.8377L133.5273,203.4658L147.4364,208.3387L161.3455,213.4631L175.2545,218.8444L189.1636,224.4857L203.0727,230.3875L216.9818,236.5473
            L230.8909,242.9589L244.8000,249.6120L258.7091,256.4917L272.6182,263.5781L286.5273,270.8460L300.4364,278.2652L314.3455,285.8003L328.2545,293.4110L342.1636,301.0536L356.0727,308.6811
            L369.9818,316.2449L383.8909,323.6959L397.8000,330.9865L411.7091,338.0714L425.6182,344.9093L439.5273,351.4641L453.4364,357.7057L467.3455,363.6105L481.2545,369.1618L495.1636,374.3496
            L509.0727,379.1701L522.9818,383.6255L536.8909,387.7230L550.8000,391.4738"/>
   <path d="M91.8000,190.2824L105.7091,194.6880L119.6182,199.3632L133.5273,204.3182L147.4364,209.5620L161.3455,215.1009L175.2545,220.9386L189.1636,227.0749L203.0727,233.5054L216.9818,240.2208
            L230.8909,247.2059L244.8000,254.4392L258.7091,261.8928L272.6182,269.5319L286.5273,277.3154L300.4364,285.1961L314.3455,293.1220L328.2545,301.0375L342.1636,308.8847L356.0727,316.6059
            L369.9818,324.1449L383.8909,331.4493L397.8000,338.4721L411.7091,345.1728L425.6182,351.5189L439.5273,357.4861L453.4364,363.0584L467.3455,368.2281L481.2545,372.9946L495.1636,377.3642
            L509.0727,381.3485L522.9818,384.9637L536.8909,388.2290L550.8000,391.1663"/>
   <path d="M91.8000,190.2824L105.7091,194.8165L119.6182,199.6269L133.5273,204.7178L147.4364,210.0905L161.3455,215.7424L175.2545,221.6670L189.1636,227.8528L203.0727,234.2834L216.9818,240.9369
            L230.8909,247.7858L244.8000,254.7973L258.7091,261.9336L272.6182,269.1524L286.5273,276.4079L300.4364,283.6520L314.3455,290.8352L328.2545,297.9084L342.1636,304.8244L356.0727,311.5384
            L369.9818,318.0102L383.8909,324.2046L397.8000,330.0921L411.7091,335.6498L425.6182,340.8608L439.5273,345.7149L453.4364,350.2075L467.3455,354.3397L481.2545,358.1174L495.1636,361.5505
            L509.0727,364.6523L522.9818,367.4386L536.8909,369.9273L550.8000,372.1375"/>
   <path d="M91.8000,190.2824L105.7091,194.4872L119.6182,198.9422L133.5273,203.6543L147.4364,208.6283L161.3455,213.8666L175.2545,219.3690L189.1636,225.1322L203.0727,231.1491L216.9818,237.4089
            L230.8909,243.8964L244.8000,250.5921L258.7091,257.4721L272.6182,264.5086L286.5273,271.6697L300.4364,278.9208L314.3455,286.2246L328.2545,293.5428L342.1636,300.8364L356.0727,308.0675
            L369.9818,315.1997L383.8909,322.1994L397.8000,329.0367L411.7091,335.6856L425.6182,342.1246L439.5273,348.3368L453.4364,354.3097L467.3455,360.0353L481.2545,365.5093L495.1636,370.7309
            L509.0727,375.7023L522.9818,380.4280L536.8909,384.9144L550.8000,389.1694"/>
   <path d="M91.8000,190.2824L105.7091,194.7815L119.6182,199.5281L133.5273,204.5292L147.4364,209.7894L161.3455,215.3112L175.2545,221.0939L189.1636,227.1334L203.0727,233.4214L216.9818,239.9447
            L230.8909,246.6851L244.8000,253.6190L258.7091,260.7169L272.6182,267.9441L286.5273,275.2604L300.4364,282.6215L314.3455,289.9796L328.2545,297.2847L342.1636,304.4861L356.0727,311.5341
            L369.9818,318.3818L383.8909,324.9862L397.8000,331.3096L411.7091,337.3209L425.6182,342.9959L439.5273,348.3176L453.4364,353.2763L467.3455,357.8687L481.2545,362.0980L495.1636,365.9723
            L509.0727,369.5040L522.9818,372.7090L536.8909,375.6057L550.8000,378.2138"/>
   <path d="M91.8000,190.2824L105.7091,194.6931L119.6182,199.3677L133.5273,204.3161L147.4364,209.5468L161.3455,215.0660L175.2545,220.8770L189.1636,226.9796L203.0727,233.3695L216.9818,240.0374
            L230.8909,246.9684L244.8000,254.1418L258.7091,261.5303L272.6182,269.1002L286.5273,276.8116L300.4364,284.6189L314.3455,292.4718L328.2545,300.3164L342.1636,308.0971L356.0727,315.7579
            L369.9818,323.2444L383.8909,330.5058L397.8000,337.4963L411.7091,344.1761L425.6182,350.5130L439.5273,356.4826L453.4364,362.0682L467.3455,367.2611L481.2545,372.0597L495.1636,376.4688
            L509.0727,380.4984L522.9818,384.1634L536.8909,387.4816L550.8000,390.4736"/>
   <path d="M91.8000,190.2824L105.7091,195.2437L119.6182,200.4795L133.5273,205.9920L147.4364,211.7796L161.3455,217.8364L175.2545,224.1510L189.1636,230.7062L203.0727,237.4784L216.9818,244.4374
            L230.8909,251.5462L244.8000,258.7617L258.7091,266.0353L272.6182,273.3142L286.5273,280.5433L300.4364,287.6664L314.3455,294.6289L328.2545,301.3795L342.1636,307.8719L356.0727,314.0665
            L369.9818,319.9314L383.8909,325.4427L397.8000,330.5850L411.7091,335.3508L425.6182,339.7396L439.5273,343.7575L453.4364,347.4158L467.3455,350.7301L481.2545,353.7189L495.1636,356.4030
            L509.0727,358.8043L522.9818,360.9453L536.8909,362.8484L550.8000,364.5354"/>
   <path d="M91.8000,190.2824L105.7091,195.0789L119.6182,200.1615L133.5273,205.5349L147.4364,211.2001L161.3455,217.1539L175.2545,223.3874L189.1636,229.8859L203.0727,236.6278L216.9818,243.5844
            L230.8909,250.7198L244.8000,257.9912L258.7091,265.3494L272.6182,272.7404L286.5273,280.1068L300.4364,287.3898L314.3455,294.5312L328.2545,301.4760L342.1636,308.1741L356.0727,314.5816
            L369.9818,320.6630L383.8909,326.3908L397.8000,331.7464L411.7091,336.7196L425.6182,341.3080L439.5273,345.5160L453.4364,349.3537L467.3455,352.8360L481.2545,355.9810L495.1636,358.8096
            L509.0727,361.3438L522.9818,363.6064L536.8909,365.6205L550.8000,367.4083"/>
   <path d="M91.8000,190.2824L105.7091,195.0070L119.6182,200.0522L133.5273,205.4253L147.4364,211.1290L161.3455,217.1608L175.2545,223.5117L189.1636,230.1653L203.0727,237.0968L216.9818,244.2728
            L230.8909,251.6507L244.8000,259.1799L258.7091,266.8018L272.6182,274.4524L286.5273,282.0638L300.4364,289.5669L314.3455,296.8945L328.2545,303.9834L342.1636,310.7774L356.0727,317.2291
            L369.9818,323.3010L383.8909,328.9664L397.8000,334.2095L411.7091,339.0244L425.6182,343.4144L439.5273,347.3905L453.4364,350.9696L467.3455,354.1736L481.2545,357.0274L495.1636,359.5576
            L509.0727,361.7920L522.9818,363.7580L536.8909,365.4822L550.8000,366.9901"/>
   <path d="M91.8000,190.2824L105.7091,194.8113L119.6182,199.5935L133.5273,204.6364L147.4364,209.9454L161.3455,215.5235L175.2545,221.3705L189.1636,227.4828L203.0727,233.8521L216.9818,240.4654
            L230.8909,247.3044L244.8000,254.3453L258.7091,261.5581L272.6182,268.9077L286.5273,276.3536L300.4364,283.8510L314.3455,291.3515L328.2545,298.8050L342.1636,306.1604L356.0727,313.3680
            L369.9818,320.3801L383.8909,327.1531L397.8000,333.6487L411.7091,339.8346L425.6182,345.6850L439.5273,351.1815L453.4364,356.3126L467.3455,361.0734L481.2545,365.4653L495.1636,369.4950
            L509.0727,373.1737L522.9818,376.5163L536.8909,379.5406L550.8000,382.2660"/>
   <path d="M91.8000,190.2824L105.7091,194.9616L119.6182,199.9060L133.5273,205.1233L147.4364,210.6191L161.3455,216.3963L175.2545,222.4546L189.1636,228.7896L203.0727,235.3922L216.9818,242.2478
            L230.8909,249.3363L244.8000,256.6308L258.7091,264.0983L272.6182,271.6995L286.5273,279.3891L300.4364,287.1170L314.3455,294.8295L328.2545,302.4706L342.1636,309.9841L356.0727,317.3153
            L369.9818,324.4133L383.8909,331.2321L397.8000,337.7325L411.7091,343.8829L425.6182,349.6601L439.5273,355.0491L453.4364,360.0429L467.3455,364.6418L481.2545,368.8527L495.1636,372.6878
            L509.0727,376.1635L522.9818,379.2995L536.8909,382.1176L550.8000,384.6408"/>
   <path d="M91.8000,91.8000L550.8000,91.8000"/>
   <path d="M91.8000,550.8000L550.8000,550.8000"/>
   <path d="M133.5273,91.8000L133.5273,104.0400"/>
   <path d="M133.5273,550.8000L133.5273,538.5600"/>
   <path d="M272.6182,91.8000L272.6182,104.0400"/>
   <path d="M272.6182,550.8000L272.6182,538.5600"/>
   <path d="M411.7091,91.8000L411.7091,104.0400"/>
   <path d="M411.7091,550.8000L411.7091,538.5600"/>
   <path d="M550.8000,91.8000L550.8000,104.0400"/>
   <path d="M550.8000,550.8000L550.8000,538.5600"/>
  </g>
  <g style="fill:#000000; fill-rule:nonzero">
   <text   style="font-family:'Times','Nimbus Roman'; font-style:normal; font-weight:normal; font-size:612.0000" transform="matrix(0.0280,0.0000,-0.0000,-0.0280,118.0273,74.6800)">-300</text>
   <text   style="font-family:'Times','Nimbus Roman'; font-style:normal; font-weight:normal; font-size:612.0000" transform="matrix(0.0280,0.0000,-0.0000,-0.0280,257.1182,74.6800)">-200</text>
   <text   style="font-family:'Times','Nimbus Roman'; font-style:normal; font-weight:normal; font-size:612.0000" transform="matrix(0.0280,0.0000,-0.0000,-0.0280,396.2091,73.6800)">-100</text>
   <text   style="font-family:'Times','Nimbus Roman'; font-style:normal; font-weight:normal; font-size:612.0000" transform="matrix(0.0280,0.0000,-0.0000,-0.0280,546.8000,74.6800)">0</text>
  </g>
  <g style="fill:none; stroke:#000000; stroke-width:  0.9180; stroke-linecap:butt; stroke-linejoin:miter; stroke-dasharray:none">
   <path d="M91.8000,91.8000L91.8000,550.8000"/>
   <path d="M550.8000,91.8000L550.8000,550.8000"/>
   <path d="M91.8000,91.8000L104.0400,91.8000"/>
   <path d="M550.8000,91.8000L538.5600,91.8000"/>
   <path d="M91.8000,244.8000L104.0400,244.8000"/>
   <path d="M550.8000,244.8000L538.5600,244.8000"/>
   <path d="M91.8000,397.8000L104.0400,397.8000"/>
   <path d="M550.8000,397.8000L538.5600,397.8000"/>
  </g>
  <g style="fill:#000000; fill-rule:nonzero">
   <text   style="font-family:'Times','Nimbus Roman'; font-style:normal; font-weight:normal; font-size:612.0000" transform="matrix(0.0280,0.0000,-0.0000,-0.0280,77.6800,86.3000)">0</text>
   <text   style="font-family:'Times','Nimbus Roman'; font-style:normal; font-weight:normal; font-size:612.0000" transform="matrix(0.0280,0.0000,-0.0000,-0.0280,56.6800,238.8000)">0.05</text>
   <text   style="font-family:'Times','Nimbus Roman'; font-style:normal; font-weight:normal; font-size:612.0000" transform="matrix(0.0280,0.0000,-0.0000,-0.0280,65.6800,391.8000)">0.1</text>
  </g>
  <g style="fill:none; stroke:#000000; stroke-width:  0.9180; stroke-linecap:butt; stroke-linejoin:miter; stroke-dasharray:none">
   <path d="M91.8000,91.8000L91.8000,550.8000L550.8000,550.8000L550.8000,91.8000z"/>
  </g>
 </g>
</svg>
