<?xml version="1.0" encoding="ISO-8859-1"?>
<!DOCTYPE svg PUBLIC "-//W3C//DTD SVG 1.0//EN" "http://www.w3.org/TR/2001/REC-SVG-20010904/DTD/svg10.dtd">
<!-- generated by Grace-5.1.25 -->
<svg xml:space="preserve" width="11.0000in" height="8.5000in" viewBox="0.0000 0.0000 792.0000 612.0000">
 <g transform="translate(0,612.0000) scale(1,-1)">
  <g style="fill:#FFFFFF; fill-rule:nonzero">
   <path  d="M0.0000,0.0000L0.0000,612.0000L792.0000,612.0000L792.0000,0.0000z"/>
  </g>
  <g style="fill:none; stroke:#000000; stroke-width:  0.9180; stroke-linecap:butt; stroke-linejoin:miter; stroke-dasharray:none">
   <path d="M91.8000,330.0896L105.7091,330.0896L119.6182,330.0896L133.5273,330.0896L147.4364,330.0896L161.3455,330.0896L175.2545,330.0896L189.1636,330.0896L203.0727,330.0896L216.9818,330.0896
            L230.8909,330.0896L244.8000,330.0896L258.7091,330.0896L272.6182,330.0896L286.5273,330.0896L300.4364,330.0896L314.3455,330.0896L328.2545,330.0896L342.1636,330.0896L356.0727,330.0896
            L369.9818,330.0896L383.8909,330.0896L397.8000,330.0896L411.7091,330.0896L425.6182,330.0896L439.5273,330.0896L453.4364,330.0896L467.3455,330.0896L481.2545,330.0896L495.1636,330.0896
            L509.0727,330.0896L522.9818,330.0896L536.8909,330.0896L550.8000,330.0896"/>
   <path d="M91.8000,329.8556L105.7091,329.8556L119.6182,329.8556L133.5273,329.8556L147.4364,329.8556L161.3455,329.8556L175.2545,329.8556L189.1636,329.8556L203.0727,329.8556L216.9818,329.8556
            L230.8909,329.8556L244.8000,329.8556L258.7091,329.8556L272.6182,329.8556L286.5273,329.8556L300.4364,329.8556L314.3455,329.8556L328.2545,329.8556L342.1636,329.8556L356.0727,329.8556
            L369.9818,329.8556L383.8909,329.8556L397.8000,329.8556L411.7091,329.8556L425.6182,329.8556L439.5273,329.8556L453.4364,329.8556L467.3455,329.8556L481.2545,329.8556L495.1636,329.8556
            L509.0727,329.8556L522.9818,329.8556L536.8909,329.8556L550.8000,329.8556"/>
   <path d="M91.8000,328.4277L105.7091,328.4277L119.6182,328.4277L133.5273,328.4277L147.4364,328.4277L161.3455,328.4277L175.2545,328.4277L189.1636,328.4277L203.0727,328.4277L216.9818,328.4277
            L230.8909,328.4277L244.8000,328.4277L258.7091,328.4277L272.6182,328.4277L286.5273,328.4277L300.4364,328.4277L314.3455,328.4277L328.2545,328.4277L342.1636,328.4277L356.0727,328.4277
            L369.9818,328.4277L383.8909,328.4277L397.8000,328.4277L411.7091,328.4277L425.6182,328.4277L439.5273,328.4277L453.4364,328.4277L467.3455,328.4277L481.2545,328.4277L495.1636,328.4277
            L509.0727,328.4277L522.9818,328.4277L536.8909,328.4277L550.8000,328.4277"/>
   <path d="M91.8000,330.1401L105.7091,330.1401L119.6182,330.1401L133.5273,330.1401L147.4364,330.1401L161.3455,330.1401L175.2545,330.1401L189.1636,330.1401L203.0727,330.1401L216.9818,330.1401
            L230.8909,330.1401L244.8000,330.1401L258.7091,330.1401L272.6182,330.1401L286.5273,330.1401L300.4364,330.1401L314.3455,330.1401L328.2545,330.1401L342.1636,330.1401L356.0727,330.1401
            L369.9818,330.1401L383.8909,330.1401L397.8000,330.1401L411.7091,330.1401L425.6182,330.1401L439.5273,330.1401L453.4364,330.1401L467.3455,330.1401L481.2545,330.1401L495.1636,330.1401
            L509.0727,330.1401L522.9818,330.1401L536.8909,330.1401L550.8000,330.1401"/>
   <path d="M91.8000,331.1951L105.7091,331.1951L119.6182,331.1951L133.5273,331.1951L147.4364,331.1951L161.3455,331.1951L175.2545,331.1951L189.1636,331.1951L203.0727,331.1951L216.9818,331.1951
            L230.8909,331.1951L244.8000,331.1951L258.7091,331.1951L272.6182,331.1951L286.5273,331.1951L300.4364,331.1951L314.3455,331.1951L328.2545,331.1951L342.1636,331.1951L356.0727,331.1951
            L369.9818,331.1951L383.8909,331.1951L397.8000,331.1951L411.7091,331.1951L425.6182,331.1951L439.5273,331.1951L453.4364,331.1951L467.3455,331.1951L481.2545,331.1951L495.1636,331.1951
            L509.0727,331.1951L522.9818,331.1951L536.8909,331.1951L550.8000,331.1951"/>
   <path d="M91.8000,312.0368L105.7091,312.0368L119.6182,312.0368L133.5273,312.0368L147.4364,312.0368L161.3455,312.0368L175.2545,312.0368L189.1636,312.0368L203.0727,312.0368L216.9818,312.0368
            L230.8909,312.0368L244.8000,312.0368L258.7091,312.0368L272.6182,312.0368L286.5273,312.0368L300.4364,312.0368L314.3455,312.0368L328.2545,312.0368L342.1636,312.0368L356.0727,312.0368
            L369.9818,312.0368L383.8909,312.0368L397.8000,312.0368L411.7091,312.0368L425.6182,312.0368L439.5273,312.0368L453.4364,312.0368L467.3455,312.0368L481.2545,312.0368L495.1636,312.0368
            L509.0727,312.0368L522.9818,312.0368L536.8909,312.0368L550.8000,312.0368"/>
   <path d="M91.8000,327.4152L105.7091,327.4152L119.6182,327.4152L133.5273,327.4152L147.4364,327.4152L161.3455,327.4152L175.2545,327.4152L189.1636,327.4152L203.0727,327.4152L216.9818,327.4152
            L230.8909,327.4152L244.8000,327.4152L258.7091,327.4152L272.6182,327.4152L286.5273,327.4152L300.4364,327.4152L314.3455,327.4152L328.2545,327.4152L342.1636,327.4152L356.0727,327.4152
            L369.9818,327.4152L383.8909,327.4152L397.8000,327.4152L411.7091,327.4152L425.6182,327.4152L439.5273,327.4152L453.4364,327.4152L467.3455,327.4152L481.2545,327.4152L495.1636,327.4152
            L509.0727,327.4152L522.9818,327.4152L536.8909,327.4152L550.8000,327.4152"/>
   <path d="M91.8000,331.5613L105.7091,331.5613L119.6182,331.5613L133.5273,331.5613L147.4364,331.5613L161.3455,331.5613L175.2545,331.5613L189.1636,331.5613L203.0727,331.5613L216.9818,331.5613
            L230.8909,331.5613L244.8000,331.5613L258.7091,331.5613L272.6182,331.5613L286.5273,331.5613L300.4364,331.5613L314.3455,331.5613L328.2545,331.5613L342.1636,331.5613L356.0727,331.5613
            L369.9818,331.5613L383.8909,331.5613L397.8000,331.5613L411.7091,331.5613L425.6182,331.5613L439.5273,331.5613L453.4364,331.5613L467.3455,331.5613L481.2545,331.5613L495.1636,331.5613
            L509.0727,331.5613L522.9818,331.5613L536.8909,331.5613L550.8000,331.5613"/>
   <path d="M91.8000,331.8619L105.7091,331.8619L119.6182,331.8619L133.5273,331.8619L147.4364,331.8619L161.3455,331.8619L175.2545,331.8619L189.1636,331.8619L203.0727,331.8619L216.9818,331.8619
            L230.8909,331.8619L244.8000,331.8619L258.7091,331.8619L272.6182,331.8619L286.5273,331.8619L300.4364,331.8619L314.3455,331.8619L328.2545,331.8619L342.1636,331.8619L356.0727,331.8619
            L369.9818,331.8619L383.8909,331.8619L397.8000,331.8619L411.7091,331.8619L425.6182,331.8619L439.5273,331.8619L453.4364,331.8619L467.3455,331.8619L481.2545,331.8619L495.1636,331.8619
            L509.0727,331.8619L522.9818,331.8619L536.8909,331.8619L550.8000,331.8619"/>
   <path d="M91.8000,328.2257L105.7091,328.2257L119.6182,328.2257L133.5273,328.2257L147.4364,328.2257L161.3455,328.2257L175.2545,328.2257L189.1636,328.2257L203.0727,328.2257L216.9818,328.2257
            L230.8909,328.2257L244.8000,328.2257L258.7091,328.2257L272.6182,328.2257L286.5273,328.2257L300.4364,328.2257L314.3455,328.2257L328.2545,328.2257L342.1636,328.2257L356.0727,328.2257
            L369.9818,328.2257L383.8909,328.2257L397.8000,328.2257L411.7091,328.2257L425.6182,328.2257L439.5273,328.2257L453.4364,328.2257L467.3455,328.2257L481.2545,328.2257L495.1636,328.2257
            L509.0727,328.2257L522.9818,328.2257L536.8909,328.2257L550.8000,328.2257"/>
   <path d="M91.8000,326.1946L105.7091,326.1946L119.6182,326.1946L133.5273,326.1946L147.4364,326.1946L161.3455,326.1946L175.2545,326.1946L189.1636,326.1946L203.0727,326.1946L216.9818,326.1946
            L230.8909,326.1946L244.8000,326.1946L258.7091,326.1946L272.6182,326.1946L286.5273,326.1946L300.4364,326.1946L314.3455,326.1946L328.2545,326.1946L342.1636,326.1946L356.0727,326.1946
            L369.9818,326.1946L383.8909,326.1946L397.8000,326.1946L411.7091,326.1946L425.6182,326.1946L439.5273,326.1946L453.4364,326.1946L467.3455,326.1946L481.2545,326.1946L495.1636,326.1946
            L509.0727,326.1946L522.9818,326.1946L536.8909,326.1946L550.8000,326.1946"/>
   <path d="M91.8000,330.8383L105.7091,330.8383L119.6182,330.8383L133.5273,330.8383L147.4364,330.8383L161.3455,330.8383L175.2545,330.8383L189.1636,330.8383L203.0727,330.8383L216.9818,330.8383
            L230.8909,330.8383L244.8000,330.8383L258.7091,330.8383L272.6182,330.8383L286.5273,330.8383L300.4364,330.8383L314.3455,330.8383L328.2545,330.8383L342.1636,330.8383L356.0727,330.8383
            L369.9818,330.8383L383.8909,330.8383L397.8000,330.8383L411.7091,330.8383L425.6182,330.8383L439.5273,330.8383L453.4364,330.8383L467.3455,330.8383L481.2545,330.8383L495.1636,330.8383
            L509.0727,330.8383L522.9818,330.8383L536.8909,330.8383L550.8000,330.8383"/>
   <path d="M91.8000,314.6090L105.7091,314.6090L119.6182,314.6090L133.5273,314.6090L147.4364,314.6090L161.3455,314.6090L175.2545,314.6090L189.1636,314.6090L203.0727,314.6090L216.9818,314.6090
            L230.8909,314.6090L244.8000,314.6090L258.7091,314.6090L272.6182,314.6090L286.5273,314.6090L300.4364,314.6090L314.3455,314.6090L328.2545,314.6090L342.1636,314.6090L356.0727,314.6090
            L369.9818,314.6090L383.8909,314.6090L397.8000,314.6090L411.7091,314.6090L425.6182,314.6090L439.5273,314.6090L453.4364,314.6090L467.3455,314.6090L481.2545,314.6090L495.1636,314.6090
            L509.0727,314.6090L522.9818,314.6090L536.8909,314.6090L550.8000,314.6090"/>
   <path d="M91.8000,331.6613L105.7091,331.6613L119.6182,331.6613L133.5273,331.6613L147.4364,331.6613L161.3455,331.6613L175.2545,331.6613L189.1636,331.6613L203.0727,331.6613L216.9818,331.6613
            L230.8909,331.6613L244.8000,331.6613L258.7091,331.6613L272.6182,331.6613L286.5273,331.6613L300.4364,331.6613L314.3455,331.6613L328.2545,331.6613L342.1636,331.6613L356.0727,331.6613
            L369.9818,331.6613L383.8909,331.6613L397.8000,331.6613L411.7091,331.6613L425.6182,331.6613L439.5273,331.6613L453.4364,331.6613L467.3455,331.6613L481.2545,331.6613L495.1636,331.6613
            L509.0727,331.6613L522.9818,331.6613L536.8909,331.6613L550.8000,331.6613"/>
   <path d="M91.8000,327.5360L105.7091,327.5360L119.6182,327.5360L133.5273,327.5360L147.4364,327.5360L161.3455,327.5360L175.2545,327.5360L189.1636,327.5360L203.0727,327.5360L216.9818,327.5360
            L230.8909,327.5360L244.8000,327.5360L258.7091,327.5360L272.6182,327.5360L286.5273,327.5360L300.4364,327.5360L314.3455,327.5360L328.2545,327.5360L342.1636,327.5360L356.0727,327.5360
            L369.9818,327.5360L383.8909,327.5360L397.8000,327.5360L411.7091,327.5360L425.6182,327.5360L439.5273,327.5360L453.4364,327.5360L467.3455,327.5360L481.2545,327.5360L495.1636,327.5360
            L509.0727,327.5360L522.9818,327.5360L536.8909,327.5360L550.8000,327.5360"/>
   <path d="M91.8000,327.7643L105.7091,327.7643L119.6182,327.7643L133.5273,327.7643L147.4364,327.7643L161.3455,327.7643L175.2545,327.7643L189.1636,327.7643L203.0727,327.7643L216.9818,327.7643
            L230.8909,327.7643L244.8000,327.7643L258.7091,327.7643L272.6182,327.7643L286.5273,327.7643L300.4364,327.7643L314.3455,327.7643L328.2545,327.7643L342.1636,327.7643L356.0727,327.7643
            L369.9818,327.7643L383.8909,327.7643L397.8000,327.7643L411.7091,327.7643L425.6182,327.7643L439.5273,327.7643L453.4364,327.7643L467.3455,327.7643L481.2545,327.7643L495.1636,327.7643
            L509.0727,327.7643L522.9818,327.7643L536.8909,327.7643L550.8000,327.7643"/>
   <path d="M91.8000,329.6762L105.7091,329.6762L119.6182,329.6762L133.5273,329.6762L147.4364,329.6762L161.3455,329.6762L175.2545,329.6762L189.1636,329.6762L203.0727,329.6762L216.9818,329.6762
            L230.8909,329.6762L244.8000,329.6762L258.7091,329.6762L272.6182,329.6762L286.5273,329.6762L300.4364,329.6762L314.3455,329.6762L328.2545,329.6762L342.1636,329.6762L356.0727,329.6762
            L369.9818,329.6762L383.8909,329.6762L397.8000,329.6762L411.7091,329.6762L425.6182,329.6762L439.5273,329.6762L453.4364,329.6762L467.3455,329.6762L481.2545,329.6762L495.1636,329.6762
            L509.0727,329.6762L522.9818,329.6762L536.8909,329.6762L550.8000,329.6762"/>
   <path d="M91.8000,333.2517L105.7091,333.2517L119.6182,333.2517L133.5273,333.2517L147.4364,333.2517L161.3455,333.2517L175.2545,333.2517L189.1636,333.2517L203.0727,333.2517L216.9818,333.2517
            L230.8909,333.2517L244.8000,333.2517L258.7091,333.2517L272.6182,333.2517L286.5273,333.2517L300.4364,333.2517L314.3455,333.2517L328.2545,333.2517L342.1636,333.2517L356.0727,333.2517
            L369.9818,333.2517L383.8909,333.2517L397.8000,333.2517L411.7091,333.2517L425.6182,333.2517L439.5273,333.2517L453.4364,333.2517L467.3455,333.2517L481.2545,333.2517L495.1636,333.2517
            L509.0727,333.2517L522.9818,333.2517L536.8909,333.2517L550.8000,333.2517"/>
   <path d="M91.8000,323.3683L105.7091,323.3683L119.6182,323.3683L133.5273,323.3683L147.4364,323.3683L161.3455,323.3683L175.2545,323.3683L189.1636,323.3683L203.0727,323.3683L216.9818,323.3683
            L230.8909,323.3683L244.8000,323.3683L258.7091,323.3683L272.6182,323.3683L286.5273,323.3683L300.4364,323.3683L314.3455,323.3683L328.2545,323.3683L342.1636,323.3683L356.0727,323.3683
            L369.9818,323.3683L383.8909,323.3683L397.8000,323.3683L411.7091,323.3683L425.6182,323.3683L439.5273,323.3683L453.4364,323.3683L467.3455,323.3683L481.2545,323.3683L495.1636,323.3683
            L509.0727,323.3683L522.9818,323.3683L536.8909,323.3683L550.8000,323.3683"/>
   <path d="M91.8000,328.9318L105.7091,328.9318L119.6182,328.9318L133.5273,328.9318L147.4364,328.9318L161.3455,328.9318L175.2545,328.9318L189.1636,328.9318L203.0727,328.9318L216.9818,328.9318
            L230.8909,328.9318L244.8000,328.9318L258.7091,328.9318L272.6182,328.9318L286.5273,328.9318L300.4364,328.9318L314.3455,328.9318L328.2545,328.9318L342.1636,328.9318L356.0727,328.9318
            L369.9818,328.9318L383.8909,328.9318L397.8000,328.9318L411.7091,328.9318L425.6182,328.9318L439.5273,328.9318L453.4364,328.9318L467.3455,328.9318L481.2545,328.9318L495.1636,328.9318
            L509.0727,328.9318L522.9818,328.9318L536.8909,328.9318L550.8000,328.9318"/>
   <path d="M91.8000,328.6357L105.7091,328.6357L119.6182,328.6357L133.5273,328.6357L147.4364,328.6357L161.3455,328.6357L175.2545,328.6357L189.1636,328.6357L203.0727,328.6357L216.9818,328.6357
            L230.8909,328.6357L244.8000,328.6357L258.7091,328.6357L272.6182,328.6357L286.5273,328.6357L300.4364,328.6357L314.3455,328.6357L328.2545,328.6357L342.1636,328.6357L356.0727,328.6357
            L369.9818,328.6357L383.8909,328.6357L397.8000,328.6357L411.7091,328.6357L425.6182,328.6357L439.5273,328.6357L453.4364,328.6357L467.3455,328.6357L481.2545,328.6357L495.1636,328.6357
            L509.0727,328.6357L522.9818,328.6357L536.8909,328.6357L550.8000,328.6357"/>
   <path d="M91.8000,317.7226L105.7091,317.7226L119.6182,317.7226L133.5273,317.7226L147.4364,317.7226L161.3455,317.7226L175.2545,317.7226L189.1636,317.7226L203.0727,317.7226L216.9818,317.7226
            L230.8909,317.7226L244.8000,317.7226L258.7091,317.7226L272.6182,317.7226L286.5273,317.7226L300.4364,317.7226L314.3455,317.7226L328.2545,317.7226L342.1636,317.7226L356.0727,317.7226
            L369.9818,317.7226L383.8909,317.7226L397.8000,317.7226L411.7091,317.7226L425.6182,317.7226L439.5273,317.7226L453.4364,317.7226L467.3455,317.7226L481.2545,317.7226L495.1636,317.7226
            L509.0727,317.7226L522.9818,317.7226L536.8909,317.7226L550.8000,317.7226"/>
   <path d="M91.8000,331.0188L105.7091,331.0188L119.6182,331.0188L133.5273,331.0188L147.4364,331.0188L161.3455,331.0188L175.2545,331.0188L189.1636,331.0188L203.0727,331.0188L216.9818,331.0188
            L230.8909,331.0188L244.8000,331.0188L258.7091,331.0188L272.6182,331.0188L286.5273,331.0188L300.4364,331.0188L314.3455,331.0188L328.2545,331.0188L342.1636,331.0188L356.0727,331.0188
            L369.9818,331.0188L383.8909,331.0188L397.8000,331.0188L411.7091,331.0188L425.6182,331.0188L439.5273,331.0188L453.4364,331.0188L467.3455,331.0188L481.2545,331.0188L495.1636,331.0188
            L509.0727,331.0188L522.9818,331.0188L536.8909,331.0188L550.8000,331.0188"/>
   <path d="M91.8000,329.5645L105.7091,329.5645L119.6182,329.5645L133.5273,329.5645L147.4364,329.5645L161.3455,329.5645L175.2545,329.5645L189.1636,329.5645L203.0727,329.5645L216.9818,329.5645
            L230.8909,329.5645L244.8000,329.5645L258.7091,329.5645L272.6182,329.5645L286.5273,329.5645L300.4364,329.5645L314.3455,329.5645L328.2545,329.5645L342.1636,329.5645L356.0727,329.5645
            L369.9818,329.5645L383.8909,329.5645L397.8000,329.5645L411.7091,329.5645L425.6182,329.5645L439.5273,329.5645L453.4364,329.5645L467.3455,329.5645L481.2545,329.5645L495.1636,329.5645
            L509.0727,329.5645L522.9818,329.5645L536.8909,329.5645L550.8000,329.5645"/>
   <path d="M91.8000,322.7993L105.7091,322.7993L119.6182,322.7993L133.5273,322.7993L147.4364,322.7993L161.3455,322.7993L175.2545,322.7993L189.1636,322.7993L203.0727,322.7993L216.9818,322.7993
            L230.8909,322.7993L244.8000,322.7993L258.7091,322.7993L272.6182,322.7993L286.5273,322.7993L300.4364,322.7993L314.3455,322.7993L328.2545,322.7993L342.1636,322.7993L356.0727,322.7993
            L369.9818,322.7993L383.8909,322.7993L397.8000,322.7993L411.7091,322.7993L425.6182,322.7993L439.5273,322.7993L453.4364,322.7993L467.3455,322.7993L481.2545,322.7993L495.1636,322.7993
            L509.0727,322.7993L522.9818,322.7993L536.8909,322.7993L550.8000,322.7993"/>
   <path d="M91.8000,320.4431L105.7091,320.4431L119.6182,320.4431L133.5273,320.4431L147.4364,320.4431L161.3455,320.4431L175.2545,320.4431L189.1636,320.4431L203.0727,320.4431L216.9818,320.4431
            L230.8909,320.4431L244.8000,320.4431L258.7091,320.4431L272.6182,320.4431L286.5273,320.4431L300.4364,320.4431L314.3455,320.4431L328.2545,320.4431L342.1636,320.4431L356.0727,320.4431
            L369.9818,320.4431L383.8909,320.4431L397.8000,320.4431L411.7091,320.4431L425.6182,320.4431L439.5273,320.4431L453.4364,320.4431L467.3455,320.4431L481.2545,320.4431L495.1636,320.4431
            L509.0727,320.4431L522.9818,320.4431L536.8909,320.4431L550.8000,320.4431"/>
   <path d="M91.8000,329.9517L105.7091,329.9517L119.6182,329.9517L133.5273,329.9517L147.4364,329.9517L161.3455,329.9517L175.2545,329.9517L189.1636,329.9517L203.0727,329.9517L216.9818,329.9517
            L230.8909,329.9517L244.8000,329.9517L258.7091,329.9517L272.6182,329.9517L286.5273,329.9517L300.4364,329.9517L314.3455,329.9517L328.2545,329.9517L342.1636,329.9517L356.0727,329.9517
            L369.9818,329.9517L383.8909,329.9517L397.8000,329.9517L411.7091,329.9517L425.6182,329.9517L439.5273,329.9517L453.4364,329.9517L467.3455,329.9517L481.2545,329.9517L495.1636,329.9517
            L509.0727,329.9517L522.9818,329.9517L536.8909,329.9517L550.8000,329.9517"/>
   <path d="M91.8000,324.7441L105.7091,324.7441L119.6182,324.7441L133.5273,324.7441L147.4364,324.7441L161.3455,324.7441L175.2545,324.7441L189.1636,324.7441L203.0727,324.7441L216.9818,324.7441
            L230.8909,324.7441L244.8000,324.7441L258.7091,324.7441L272.6182,324.7441L286.5273,324.7441L300.4364,324.7441L314.3455,324.7441L328.2545,324.7441L342.1636,324.7441L356.0727,324.7441
            L369.9818,324.7441L383.8909,324.7441L397.8000,324.7441L411.7091,324.7441L425.6182,324.7441L439.5273,324.7441L453.4364,324.7441L467.3455,324.7441L481.2545,324.7441L495.1636,324.7441
            L509.0727,324.7441L522.9818,324.7441L536.8909,324.7441L550.8000,324.7441"/>
   <path d="M91.8000,326.0052L105.7091,326.0052L119.6182,326.0052L133.5273,326.0052L147.4364,326.0052L161.3455,326.0052L175.2545,326.0052L189.1636,326.0052L203.0727,326.0052L216.9818,326.0052
            L230.8909,326.0052L244.8000,326.0052L258.7091,326.0052L272.6182,326.0052L286.5273,326.0052L300.4364,326.0052L314.3455,326.0052L328.2545,326.0052L342.1636,326.0052L356.0727,326.0052
            L369.9818,326.0052L383.8909,326.0052L397.8000,326.0052L411.7091,326.0052L425.6182,326.0052L439.5273,326.0052L453.4364,326.0052L467.3455,326.0052L481.2545,326.0052L495.1636,326.0052
            L509.0727,326.0052L522.9818,326.0052L536.8909,326.0052L550.8000,326.0052"/>
   <path d="M91.8000,330.2014L105.7091,330.2014L119.6182,330.2014L133.5273,330.2014L147.4364,330.2014L161.3455,330.2014L175.2545,330.2014L189.1636,330.2014L203.0727,330.2014L216.9818,330.2014
            L230.8909,330.2014L244.8000,330.2014L258.7091,330.2014L272.6182,330.2014L286.5273,330.2014L300.4364,330.2014L314.3455,330.2014L328.2545,330.2014L342.1636,330.2014L356.0727,330.2014
            L369.9818,330.2014L383.8909,330.2014L397.8000,330.2014L411.7091,330.2014L425.6182,330.2014L439.5273,330.2014L453.4364,330.2014L467.3455,330.2014L481.2545,330.2014L495.1636,330.2014
            L509.0727,330.2014L522.9818,330.2014L536.8909,330.2014L550.8000,330.2014"/>
   <path d="M91.8000,329.2310L105.7091,329.2310L119.6182,329.2310L133.5273,329.2310L147.4364,329.2310L161.3455,329.2310L175.2545,329.2310L189.1636,329.2310L203.0727,329.2310L216.9818,329.2310
            L230.8909,329.2310L244.8000,329.2310L258.7091,329.2310L272.6182,329.2310L286.5273,329.2310L300.4364,329.2310L314.3455,329.2310L328.2545,329.2310L342.1636,329.2310L356.0727,329.2310
            L369.9818,329.2310L383.8909,329.2310L397.8000,329.2310L411.7091,329.2310L425.6182,329.2310L439.5273,329.2310L453.4364,329.2310L467.3455,329.2310L481.2545,329.2310L495.1636,329.2310
            L509.0727,329.2310L522.9818,329.2310L536.8909,329.2310L550.8000,329.2310"/>
   <path d="M91.8000,328.9561L105.7091,328.9561L119.6182,328.9561L133.5273,328.9561L147.4364,328.9561L161.3455,328.9561L175.2545,328.9561L189.1636,328.9561L203.0727,328.9561L216.9818,328.9561
            L230.8909,328.9561L244.8000,328.9561L258.7091,328.9561L272.6182,328.9561L286.5273,328.9561L300.4364,328.9561L314.3455,328.9561L328.2545,328.9561L342.1636,328.9561L356.0727,328.9561
            L369.9818,328.9561L383.8909,328.9561L397.8000,328.9561L411.7091,328.9561L425.6182,328.9561L439.5273,328.9561L453.4364,328.9561L467.3455,328.9561L481.2545,328.9561L495.1636,328.9561
            L509.0727,328.9561L522.9818,328.9561L536.8909,328.9561L550.8000,328.9561"/>
   <path d="M91.8000,329.5525L105.7091,329.5525L119.6182,329.5525L133.5273,329.5525L147.4364,329.5525L161.3455,329.5525L175.2545,329.5525L189.1636,329.5525L203.0727,329.5525L216.9818,329.5525
            L230.8909,329.5525L244.8000,329.5525L258.7091,329.5525L272.6182,329.5525L286.5273,329.5525L300.4364,329.5525L314.3455,329.5525L328.2545,329.5525L342.1636,329.5525L356.0727,329.5525
            L369.9818,329.5525L383.8909,329.5525L397.8000,329.5525L411.7091,329.5525L425.6182,329.5525L439.5273,329.5525L453.4364,329.5525L467.3455,329.5525L481.2545,329.5525L495.1636,329.5525
            L509.0727,329.5525L522.9818,329.5525L536.8909,329.5525L550.8000,329.5525"/>
   <path d="M91.8000,320.0491L105.7091,320.0491L119.6182,320.0491L133.5273,320.0491L147.4364,320.0491L161.3455,320.0491L175.2545,320.0491L189.1636,320.0491L203.0727,320.0491L216.9818,320.0491
            L230.8909,320.0491L244.8000,320.0491L258.7091,320.0491L272.6182,320.0491L286.5273,320.0491L300.4364,320.0491L314.3455,320.0491L328.2545,320.0491L342.1636,320.0491L356.0727,320.0491
            L369.9818,320.0491L383.8909,320.0491L397.8000,320.0491L411.7091,320.0491L425.6182,320.0491L439.5273,320.0491L453.4364,320.0491L467.3455,320.0491L481.2545,320.0491L495.1636,320.0491
            L509.0727,320.0491L522.9818,320.0491L536.8909,320.0491L550.8000,320.0491"/>
   <path d="M91.8000,329.5068L105.7091,329.5068L119.6182,329.5068L133.5273,329.5068L147.4364,329.5068L161.3455,329.5068L175.2545,329.5068L189.1636,329.5068L203.0727,329.5068L216.9818,329.5068
            L230.8909,329.5068L244.8000,329.5068L258.7091,329.5068L272.6182,329.5068L286.5273,329.5068L300.4364,329.5068L314.3455,329.5068L328.2545,329.5068L342.1636,329.5068L356.0727,329.5068
            L369.9818,329.5068L383.8909,329.5068L397.8000,329.5068L411.7091,329.5068L425.6182,329.5068L439.5273,329.5068L453.4364,329.5068L467.3455,329.5068L481.2545,329.5068L495.1636,329.5068
            L509.0727,329.5068L522.9818,329.5068L536.8909,329.5068L550.8000,329.5068"/>
   <path d="M91.8000,330.7723L105.7091,330.7723L119.6182,330.7723L133.5273,330.7723L147.4364,330.7723L161.3455,330.7723L175.2545,330.7723L189.1636,330.7723L203.0727,330.7723L216.9818,330.7723
            L230.8909,330.7723L244.8000,330.7723L258.7091,330.7723L272.6182,330.7723L286.5273,330.7723L300.4364,330.7723L314.3455,330.7723L328.2545,330.7723L342.1636,330.7723L356.0727,330.7723
            L369.9818,330.7723L383.8909,330.7723L397.8000,330.7723L411.7091,330.7723L425.6182,330.7723L439.5273,330.7723L453.4364,330.7723L467.3455,330.7723L481.2545,330.7723L495.1636,330.7723
            L509.0727,330.7723L522.9818,330.7723L536.8909,330.7723L550.8000,330.7723"/>
   <path d="M91.8000,318.6888L105.7091,318.6888L119.6182,318.6888L133.5273,318.6888L147.4364,318.6888L161.3455,318.6888L175.2545,318.6888L189.1636,318.6888L203.0727,318.6888L216.9818,318.6888
            L230.8909,318.6888L244.8000,318.6888L258.7091,318.6888L272.6182,318.6888L286.5273,318.6888L300.4364,318.6888L314.3455,318.6888L328.2545,318.6888L342.1636,318.6888L356.0727,318.6888
            L369.9818,318.6888L383.8909,318.6888L397.8000,318.6888L411.7091,318.6888L425.6182,318.6888L439.5273,318.6888L453.4364,318.6888L467.3455,318.6888L481.2545,318.6888L495.1636,318.6888
            L509.0727,318.6888L522.9818,318.6888L536.8909,318.6888L550.8000,318.6888"/>
   <path d="M91.8000,323.0285L105.7091,323.0285L119.6182,323.0285L133.5273,323.0285L147.4364,323.0285L161.3455,323.0285L175.2545,323.0285L189.1636,323.0285L203.0727,323.0285L216.9818,323.0285
            L230.8909,323.0285L244.8000,323.0285L258.7091,323.0285L272.6182,323.0285L286.5273,323.0285L300.4364,323.0285L314.3455,323.0285L328.2545,323.0285L342.1636,323.0285L356.0727,323.0285
            L369.9818,323.0285L383.8909,323.0285L397.8000,323.0285L411.7091,323.0285L425.6182,323.0285L439.5273,323.0285L453.4364,323.0285L467.3455,323.0285L481.2545,323.0285L495.1636,323.0285
            L509.0727,323.0285L522.9818,323.0285L536.8909,323.0285L550.8000,323.0285"/>
   <path d="M91.8000,327.9147L105.7091,327.9147L119.6182,327.9147L133.5273,327.9147L147.4364,327.9147L161.3455,327.9147L175.2545,327.9147L189.1636,327.9147L203.0727,327.9147L216.9818,327.9147
            L230.8909,327.9147L244.8000,327.9147L258.7091,327.9147L272.6182,327.9147L286.5273,327.9147L300.4364,327.9147L314.3455,327.9147L328.2545,327.9147L342.1636,327.9147L356.0727,327.9147
            L369.9818,327.9147L383.8909,327.9147L397.8000,327.9147L411.7091,327.9147L425.6182,327.9147L439.5273,327.9147L453.4364,327.9147L467.3455,327.9147L481.2545,327.9147L495.1636,327.9147
            L509.0727,327.9147L522.9818,327.9147L536.8909,327.9147L550.8000,327.9147"/>
   <path d="M91.8000,325.7045L105.7091,325.7045L119.6182,325.7045L133.5273,325.7045L147.4364,325.7045L161.3455,325.7045L175.2545,325.7045L189.1636,325.7045L203.0727,325.7045L216.9818,325.7045
            L230.8909,325.7045L244.8000,325.7045L258.7091,325.7045L272.6182,325.7045L286.5273,325.7045L300.4364,325.7045L314.3455,325.7045L328.2545,325.7045L342.1636,325.7045L356.0727,325.7045
            L369.9818,325.7045L383.8909,325.7045L397.8000,325.7045L411.7091,325.7045L425.6182,325.7045L439.5273,325.7045L453.4364,325.7045L467.3455,325.7045L481.2545,325.7045L495.1636,325.7045
            L509.0727,325.7045L522.9818,325.7045L536.8909,325.7045L550.8000,325.7045"/>
   <path d="M91.8000,328.3811L105.7091,328.3811L119.6182,328.3811L133.5273,328.3811L147.4364,328.3811L161.3455,328.3811L175.2545,328.3811L189.1636,328.3811L203.0727,328.3811L216.9818,328.3811
            L230.8909,328.3811L244.8000,328.3811L258.7091,328.3811L272.6182,328.3811L286.5273,328.3811L300.4364,328.3811L314.3455,328.3811L328.2545,328.3811L342.1636,328.3811L356.0727,328.3811
            L369.9818,328.3811L383.8909,328.3811L397.8000,328.3811L411.7091,328.3811L425.6182,328.3811L439.5273,328.3811L453.4364,328.3811L467.3455,328.3811L481.2545,328.3811L495.1636,328.3811
            L509.0727,328.3811L522.9818,328.3811L536.8909,328.3811L550.8000,328.3811"/>
   <path d="M91.8000,327.9566L105.7091,327.9566L119.6182,327.9566L133.5273,327.9566L147.4364,327.9566L161.3455,327.9566L175.2545,327.9566L189.1636,327.9566L203.0727,327.9566L216.9818,327.9566
            L230.8909,327.9566L244.8000,327.9566L258.7091,327.9566L272.6182,327.9566L286.5273,327.9566L300.4364,327.9566L314.3455,327.9566L328.2545,327.9566L342.1636,327.9566L356.0727,327.9566
            L369.9818,327.9566L383.8909,327.9566L397.8000,327.9566L411.7091,327.9566L425.6182,327.9566L439.5273,327.9566L453.4364,327.9566L467.3455,327.9566L481.2545,327.9566L495.1636,327.9566
            L509.0727,327.9566L522.9818,327.9566L536.8909,327.9566L550.8000,327.9566"/>
   <path d="M91.8000,331.1596L105.7091,331.1596L119.6182,331.1596L133.5273,331.1596L147.4364,331.1596L161.3455,331.1596L175.2545,331.1596L189.1636,331.1596L203.0727,331.1596L216.9818,331.1596
            L230.8909,331.1596L244.8000,331.1596L258.7091,331.1596L272.6182,331.1596L286.5273,331.1596L300.4364,331.1596L314.3455,331.1596L328.2545,331.1596L342.1636,331.1596L356.0727,331.1596
            L369.9818,331.1596L383.8909,331.1596L397.8000,331.1596L411.7091,331.1596L425.6182,331.1596L439.5273,331.1596L453.4364,331.1596L467.3455,331.1596L481.2545,331.1596L495.1636,331.1596
            L509.0727,331.1596L522.9818,331.1596L536.8909,331.1596L550.8000,331.1596"/>
   <path d="M91.8000,328.3367L105.7091,328.3367L119.6182,328.3367L133.5273,328.3367L147.4364,328.3367L161.3455,328.3367L175.2545,328.3367L189.1636,328.3367L203.0727,328.3367L216.9818,328.3367
            L230.8909,328.3367L244.8000,328.3367L258.7091,328.3367L272.6182,328.3367L286.5273,328.3367L300.4364,328.3367L314.3455,328.3367L328.2545,328.3367L342.1636,328.3367L356.0727,328.3367
            L369.9818,328.3367L383.8909,328.3367L397.8000,328.3367L411.7091,328.3367L425.6182,328.3367L439.5273,328.3367L453.4364,328.3367L467.3455,328.3367L481.2545,328.3367L495.1636,328.3367
            L509.0727,328.3367L522.9818,328.3367L536.8909,328.3367L550.8000,328.3367"/>
   <path d="M91.8000,332.2869L105.7091,332.2869L119.6182,332.2869L133.5273,332.2869L147.4364,332.2869L161.3455,332.2869L175.2545,332.2869L189.1636,332.2869L203.0727,332.2869L216.9818,332.2869
            L230.8909,332.2869L244.8000,332.2869L258.7091,332.2869L272.6182,332.2869L286.5273,332.2869L300.4364,332.2869L314.3455,332.2869L328.2545,332.2869L342.1636,332.2869L356.0727,332.2869
            L369.9818,332.2869L383.8909,332.2869L397.8000,332.2869L411.7091,332.2869L425.6182,332.2869L439.5273,332.2869L453.4364,332.2869L467.3455,332.2869L481.2545,332.2869L495.1636,332.2869
            L509.0727,332.2869L522.9818,332.2869L536.8909,332.2869L550.8000,332.2869"/>
   <path d="M91.8000,326.4291L105.7091,326.4291L119.6182,326.4291L133.5273,326.4291L147.4364,326.4291L161.3455,326.4291L175.2545,326.4291L189.1636,326.4291L203.0727,326.4291L216.9818,326.4291
            L230.8909,326.4291L244.8000,326.4291L258.7091,326.4291L272.6182,326.4291L286.5273,326.4291L300.4364,326.4291L314.3455,326.4291L328.2545,326.4291L342.1636,326.4291L356.0727,326.4291
            L369.9818,326.4291L383.8909,326.4291L397.8000,326.4291L411.7091,326.4291L425.6182,326.4291L439.5273,326.4291L453.4364,326.4291L467.3455,326.4291L481.2545,326.4291L495.1636,326.4291
            L509.0727,326.4291L522.9818,326.4291L536.8909,326.4291L550.8000,326.4291"/>
   <path d="M91.8000,328.4805L105.7091,328.4805L119.6182,328.4805L133.5273,328.4805L147.4364,328.4805L161.3455,328.4805L175.2545,328.4805L189.1636,328.4805L203.0727,328.4805L216.9818,328.4805
            L230.8909,328.4805L244.8000,328.4805L258.7091,328.4805L272.6182,328.4805L286.5273,328.4805L300.4364,328.4805L314.3455,328.4805L328.2545,328.4805L342.1636,328.4805L356.0727,328.4805
            L369.9818,328.4805L383.8909,328.4805L397.8000,328.4805L411.7091,328.4805L425.6182,328.4805L439.5273,328.4805L453.4364,328.4805L467.3455,328.4805L481.2545,328.4805L495.1636,328.4805
            L509.0727,328.4805L522.9818,328.4805L536.8909,328.4805L550.8000,328.4805"/>
   <path d="M91.8000,334.0997L105.7091,334.0997L119.6182,334.0997L133.5273,334.0997L147.4364,334.0997L161.3455,334.0997L175.2545,334.0997L189.1636,334.0997L203.0727,334.0997L216.9818,334.0997
            L230.8909,334.0997L244.8000,334.0997L258.7091,334.0997L272.6182,334.0997L286.5273,334.0997L300.4364,334.0997L314.3455,334.0997L328.2545,334.0997L342.1636,334.0997L356.0727,334.0997
            L369.9818,334.0997L383.8909,334.0997L397.8000,334.0997L411.7091,334.0997L425.6182,334.0997L439.5273,334.0997L453.4364,334.0997L467.3455,334.0997L481.2545,334.0997L495.1636,334.0997
            L509.0727,334.0997L522.9818,334.0997L536.8909,334.0997L550.8000,334.0997"/>
   <path d="M91.8000,327.7051L105.7091,327.7051L119.6182,327.7051L133.5273,327.7051L147.4364,327.7051L161.3455,327.7051L175.2545,327.7051L189.1636,327.7051L203.0727,327.7051L216.9818,327.7051
            L230.8909,327.7051L244.8000,327.7051L258.7091,327.7051L272.6182,327.7051L286.5273,327.7051L300.4364,327.7051L314.3455,327.7051L328.2545,327.7051L342.1636,327.7051L356.0727,327.7051
            L369.9818,327.7051L383.8909,327.7051L397.8000,327.7051L411.7091,327.7051L425.6182,327.7051L439.5273,327.7051L453.4364,327.7051L467.3455,327.7051L481.2545,327.7051L495.1636,327.7051
            L509.0727,327.7051L522.9818,327.7051L536.8909,327.7051L550.8000,327.7051"/>
   <path d="M91.8000,328.0630L105.7091,328.0630L119.6182,328.0630L133.5273,328.0630L147.4364,328.0630L161.3455,328.0630L175.2545,328.0630L189.1636,328.0630L203.0727,328.0630L216.9818,328.0630
            L230.8909,328.0630L244.8000,328.0630L258.7091,328.0630L272.6182,328.0630L286.5273,328.0630L300.4364,328.0630L314.3455,328.0630L328.2545,328.0630L342.1636,328.0630L356.0727,328.0630
            L369.9818,328.0630L383.8909,328.0630L397.8000,328.0630L411.7091,328.0630L425.6182,328.0630L439.5273,328.0630L453.4364,328.0630L467.3455,328.0630L481.2545,328.0630L495.1636,328.0630
            L509.0727,328.0630L522.9818,328.0630L536.8909,328.0630L550.8000,328.0630"/>
   <path d="M91.8000,324.8872L105.7091,324.8872L119.6182,324.8872L133.5273,324.8872L147.4364,324.8872L161.3455,324.8872L175.2545,324.8872L189.1636,324.8872L203.0727,324.8872L216.9818,324.8872
            L230.8909,324.8872L244.8000,324.8872L258.7091,324.8872L272.6182,324.8872L286.5273,324.8872L300.4364,324.8872L314.3455,324.8872L328.2545,324.8872L342.1636,324.8872L356.0727,324.8872
            L369.9818,324.8872L383.8909,324.8872L397.8000,324.8872L411.7091,324.8872L425.6182,324.8872L439.5273,324.8872L453.4364,324.8872L467.3455,324.8872L481.2545,324.8872L495.1636,324.8872
            L509.0727,324.8872L522.9818,324.8872L536.8909,324.8872L550.8000,324.8872"/>
   <path d="M91.8000,329.8984L105.7091,329.8984L119.6182,329.8984L133.5273,329.8984L147.4364,329.8984L161.3455,329.8984L175.2545,329.8984L189.1636,329.8984L203.0727,329.8984L216.9818,329.8984
            L230.8909,329.8984L244.8000,329.8984L258.7091,329.8984L272.6182,329.8984L286.5273,329.8984L300.4364,329.8984L314.3455,329.8984L328.2545,329.8984L342.1636,329.8984L356.0727,329.8984
            L369.9818,329.8984L383.8909,329.8984L397.8000,329.8984L411.7091,329.8984L425.6182,329.8984L439.5273,329.8984L453.4364,329.8984L467.3455,329.8984L481.2545,329.8984L495.1636,329.8984
            L509.0727,329.8984L522.9818,329.8984L536.8909,329.8984L550.8000,329.8984"/>
   <path d="M91.8000,323.4171L105.7091,323.4171L119.6182,323.4171L133.5273,323.4171L147.4364,323.4171L161.3455,323.4171L175.2545,323.4171L189.1636,323.4171L203.0727,323.4171L216.9818,323.4171
            L230.8909,323.4171L244.8000,323.4171L258.7091,323.4171L272.6182,323.4171L286.5273,323.4171L300.4364,323.4171L314.3455,323.4171L328.2545,323.4171L342.1636,323.4171L356.0727,323.4171
            L369.9818,323.4171L383.8909,323.4171L397.8000,323.4171L411.7091,323.4171L425.6182,323.4171L439.5273,323.4171L453.4364,323.4171L467.3455,323.4171L481.2545,323.4171L495.1636,323.4171
            L509.0727,323.4171L522.9818,323.4171L536.8909,323.4171L550.8000,323.4171"/>
   <path d="M91.8000,327.9667L105.7091,327.9667L119.6182,327.9667L133.5273,327.9667L147.4364,327.9667L161.3455,327.9667L175.2545,327.9667L189.1636,327.9667L203.0727,327.9667L216.9818,327.9667
            L230.8909,327.9667L244.8000,327.9667L258.7091,327.9667L272.6182,327.9667L286.5273,327.9667L300.4364,327.9667L314.3455,327.9667L328.2545,327.9667L342.1636,327.9667L356.0727,327.9667
            L369.9818,327.9667L383.8909,327.9667L397.8000,327.9667L411.7091,327.9667L425.6182,327.9667L439.5273,327.9667L453.4364,327.9667L467.3455,327.9667L481.2545,327.9667L495.1636,327.9667
            L509.0727,327.9667L522.9818,327.9667L536.8909,327.9667L550.8000,327.9667"/>
   <path d="M91.8000,331.0722L105.7091,331.0722L119.6182,331.0722L133.5273,331.0722L147.4364,331.0722L161.3455,331.0722L175.2545,331.0722L189.1636,331.0722L203.0727,331.0722L216.9818,331.0722
            L230.8909,331.0722L244.8000,331.0722L258.7091,331.0722L272.6182,331.0722L286.5273,331.0722L300.4364,331.0722L314.3455,331.0722L328.2545,331.0722L342.1636,331.0722L356.0727,331.0722
            L369.9818,331.0722L383.8909,331.0722L397.8000,331.0722L411.7091,331.0722L425.6182,331.0722L439.5273,331.0722L453.4364,331.0722L467.3455,331.0722L481.2545,331.0722L495.1636,331.0722
            L509.0727,331.0722L522.9818,331.0722L536.8909,331.0722L550.8000,331.0722"/>
   <path d="M91.8000,318.2952L105.7091,318.2952L119.6182,318.2952L133.5273,318.2952L147.4364,318.2952L161.3455,318.2952L175.2545,318.2952L189.1636,318.2952L203.0727,318.2952L216.9818,318.2952
            L230.8909,318.2952L244.8000,318.2952L258.7091,318.2952L272.6182,318.2952L286.5273,318.2952L300.4364,318.2952L314.3455,318.2952L328.2545,318.2952L342.1636,318.2952L356.0727,318.2952
            L369.9818,318.2952L383.8909,318.2952L397.8000,318.2952L411.7091,318.2952L425.6182,318.2952L439.5273,318.2952L453.4364,318.2952L467.3455,318.2952L481.2545,318.2952L495.1636,318.2952
            L509.0727,318.2952L522.9818,318.2952L536.8909,318.2952L550.8000,318.2952"/>
   <path d="M91.8000,316.2661L105.7091,316.2661L119.6182,316.2661L133.5273,316.2661L147.4364,316.2661L161.3455,316.2661L175.2545,316.2661L189.1636,316.2661L203.0727,316.2661L216.9818,316.2661
            L230.8909,316.2661L244.8000,316.2661L258.7091,316.2661L272.6182,316.2661L286.5273,316.2661L300.4364,316.2661L314.3455,316.2661L328.2545,316.2661L342.1636,316.2661L356.0727,316.2661
            L369.9818,316.2661L383.8909,316.2661L397.8000,316.2661L411.7091,316.2661L425.6182,316.2661L439.5273,316.2661L453.4364,316.2661L467.3455,316.2661L481.2545,316.2661L495.1636,316.2661
            L509.0727,316.2661L522.9818,316.2661L536.8909,316.2661L550.8000,316.2661"/>
   <path d="M91.8000,323.6647L105.7091,323.6647L119.6182,323.6647L133.5273,323.6647L147.4364,323.6647L161.3455,323.6647L175.2545,323.6647L189.1636,323.6647L203.0727,323.6647L216.9818,323.6647
            L230.8909,323.6647L244.8000,323.6647L258.7091,323.6647L272.6182,323.6647L286.5273,323.6647L300.4364,323.6647L314.3455,323.6647L328.2545,323.6647L342.1636,323.6647L356.0727,323.6647
            L369.9818,323.6647L383.8909,323.6647L397.8000,323.6647L411.7091,323.6647L425.6182,323.6647L439.5273,323.6647L453.4364,323.6647L467.3455,323.6647L481.2545,323.6647L495.1636,323.6647
            L509.0727,323.6647L522.9818,323.6647L536.8909,323.6647L550.8000,323.6647"/>
   <path d="M91.8000,326.9090L105.7091,326.9090L119.6182,326.9090L133.5273,326.9090L147.4364,326.9090L161.3455,326.9090L175.2545,326.9090L189.1636,326.9090L203.0727,326.9090L216.9818,326.9090
            L230.8909,326.9090L244.8000,326.9090L258.7091,326.9090L272.6182,326.9090L286.5273,326.9090L300.4364,326.9090L314.3455,326.9090L328.2545,326.9090L342.1636,326.9090L356.0727,326.9090
            L369.9818,326.9090L383.8909,326.9090L397.8000,326.9090L411.7091,326.9090L425.6182,326.9090L439.5273,326.9090L453.4364,326.9090L467.3455,326.9090L481.2545,326.9090L495.1636,326.9090
            L509.0727,326.9090L522.9818,326.9090L536.8909,326.9090L550.8000,326.9090"/>
   <path d="M91.8000,316.2251L105.7091,316.2251L119.6182,316.2251L133.5273,316.2251L147.4364,316.2251L161.3455,316.2251L175.2545,316.2251L189.1636,316.2251L203.0727,316.2251L216.9818,316.2251
            L230.8909,316.2251L244.8000,316.2251L258.7091,316.2251L272.6182,316.2251L286.5273,316.2251L300.4364,316.2251L314.3455,316.2251L328.2545,316.2251L342.1636,316.2251L356.0727,316.2251
            L369.9818,316.2251L383.8909,316.2251L397.8000,316.2251L411.7091,316.2251L425.6182,316.2251L439.5273,316.2251L453.4364,316.2251L467.3455,316.2251L481.2545,316.2251L495.1636,316.2251
            L509.0727,316.2251L522.9818,316.2251L536.8909,316.2251L550.8000,316.2251"/>
   <path d="M91.8000,341.2405L105.7091,341.2405L119.6182,341.2405L133.5273,341.2405L147.4364,341.2405L161.3455,341.2405L175.2545,341.2405L189.1636,341.2405L203.0727,341.2405L216.9818,341.2405
            L230.8909,341.2405L244.8000,341.2405L258.7091,341.2405L272.6182,341.2405L286.5273,341.2405L300.4364,341.2405L314.3455,341.2405L328.2545,341.2405L342.1636,341.2405L356.0727,341.2405
            L369.9818,341.2405L383.8909,341.2405L397.8000,341.2405L411.7091,341.2405L425.6182,341.2405L439.5273,341.2405L453.4364,341.2405L467.3455,341.2405L481.2545,341.2405L495.1636,341.2405
            L509.0727,341.2405L522.9818,341.2405L536.8909,341.2405L550.8000,341.2405"/>
   <path d="M91.8000,325.0696L105.7091,325.0696L119.6182,325.0696L133.5273,325.0696L147.4364,325.0696L161.3455,325.0696L175.2545,325.0696L189.1636,325.0696L203.0727,325.0696L216.9818,325.0696
            L230.8909,325.0696L244.8000,325.0696L258.7091,325.0696L272.6182,325.0696L286.5273,325.0696L300.4364,325.0696L314.3455,325.0696L328.2545,325.0696L342.1636,325.0696L356.0727,325.0696
            L369.9818,325.0696L383.8909,325.0696L397.8000,325.0696L411.7091,325.0696L425.6182,325.0696L439.5273,325.0696L453.4364,325.0696L467.3455,325.0696L481.2545,325.0696L495.1636,325.0696
            L509.0727,325.0696L522.9818,325.0696L536.8909,325.0696L550.8000,325.0696"/>
   <path d="M91.8000,328.9067L105.7091,328.9067L119.6182,328.9067L133.5273,328.9067L147.4364,328.9067L161.3455,328.9067L175.2545,328.9067L189.1636,328.9067L203.0727,328.9067L216.9818,328.9067
            L230.8909,328.9067L244.8000,328.9067L258.7091,328.9067L272.6182,328.9067L286.5273,328.9067L300.4364,328.9067L314.3455,328.9067L328.2545,328.9067L342.1636,328.9067L356.0727,328.9067
            L369.9818,328.9067L383.8909,328.9067L397.8000,328.9067L411.7091,328.9067L425.6182,328.9067L439.5273,328.9067L453.4364,328.9067L467.3455,328.9067L481.2545,328.9067L495.1636,328.9067
            L509.0727,328.9067L522.9818,328.9067L536.8909,328.9067L550.8000,328.9067"/>
   <path d="M91.8000,328.5693L105.7091,328.5693L119.6182,328.5693L133.5273,328.5693L147.4364,328.5693L161.3455,328.5693L175.2545,328.5693L189.1636,328.5693L203.0727,328.5693L216.9818,328.5693
            L230.8909,328.5693L244.8000,328.5693L258.7091,328.5693L272.6182,328.5693L286.5273,328.5693L300.4364,328.5693L314.3455,328.5693L328.2545,328.5693L342.1636,328.5693L356.0727,328.5693
            L369.9818,328.5693L383.8909,328.5693L397.8000,328.5693L411.7091,328.5693L425.6182,328.5693L439.5273,328.5693L453.4364,328.5693L467.3455,328.5693L481.2545,328.5693L495.1636,328.5693
            L509.0727,328.5693L522.9818,328.5693L536.8909,328.5693L550.8000,328.5693"/>
   <path d="M91.8000,328.7648L105.7091,328.7648L119.6182,328.7648L133.5273,328.7648L147.4364,328.7648L161.3455,328.7648L175.2545,328.7648L189.1636,328.7648L203.0727,328.7648L216.9818,328.7648
            L230.8909,328.7648L244.8000,328.7648L258.7091,328.7648L272.6182,328.7648L286.5273,328.7648L300.4364,328.7648L314.3455,328.7648L328.2545,328.7648L342.1636,328.7648L356.0727,328.7648
            L369.9818,328.7648L383.8909,328.7648L397.8000,328.7648L411.7091,328.7648L425.6182,328.7648L439.5273,328.7648L453.4364,328.7648L467.3455,328.7648L481.2545,328.7648L495.1636,328.7648
            L509.0727,328.7648L522.9818,328.7648L536.8909,328.7648L550.8000,328.7648"/>
   <path d="M91.8000,317.7731L105.7091,317.7731L119.6182,317.7731L133.5273,317.7731L147.4364,317.7731L161.3455,317.7731L175.2545,317.7731L189.1636,317.7731L203.0727,317.7731L216.9818,317.7731
            L230.8909,317.7731L244.8000,317.7731L258.7091,317.7731L272.6182,317.7731L286.5273,317.7731L300.4364,317.7731L314.3455,317.7731L328.2545,317.7731L342.1636,317.7731L356.0727,317.7731
            L369.9818,317.7731L383.8909,317.7731L397.8000,317.7731L411.7091,317.7731L425.6182,317.7731L439.5273,317.7731L453.4364,317.7731L467.3455,317.7731L481.2545,317.7731L495.1636,317.7731
            L509.0727,317.7731L522.9818,317.7731L536.8909,317.7731L550.8000,317.7731"/>
   <path d="M91.8000,320.3668L105.7091,320.3668L119.6182,320.3668L133.5273,320.3668L147.4364,320.3668L161.3455,320.3668L175.2545,320.3668L189.1636,320.3668L203.0727,320.3668L216.9818,320.3668
            L230.8909,320.3668L244.8000,320.3668L258.7091,320.3668L272.6182,320.3668L286.5273,320.3668L300.4364,320.3668L314.3455,320.3668L328.2545,320.3668L342.1636,320.3668L356.0727,320.3668
            L369.9818,320.3668L383.8909,320.3668L397.8000,320.3668L411.7091,320.3668L425.6182,320.3668L439.5273,320.3668L453.4364,320.3668L467.3455,320.3668L481.2545,320.3668L495.1636,320.3668
            L509.0727,320.3668L522.9818,320.3668L536.8909,320.3668L550.8000,320.3668"/>
   <path d="M91.8000,318.9021L105.7091,318.9021L119.6182,318.9021L133.5273,318.9021L147.4364,318.9021L161.3455,318.9021L175.2545,318.9021L189.1636,318.9021L203.0727,318.9021L216.9818,318.9021
            L230.8909,318.9021L244.8000,318.9021L258.7091,318.9021L272.6182,318.9021L286.5273,318.9021L300.4364,318.9021L314.3455,318.9021L328.2545,318.9021L342.1636,318.9021L356.0727,318.9021
            L369.9818,318.9021L383.8909,318.9021L397.8000,318.9021L411.7091,318.9021L425.6182,318.9021L439.5273,318.9021L453.4364,318.9021L467.3455,318.9021L481.2545,318.9021L495.1636,318.9021
            L509.0727,318.9021L522.9818,318.9021L536.8909,318.9021L550.8000,318.9021"/>
   <path d="M91.8000,329.2126L105.7091,329.2126L119.6182,329.2126L133.5273,329.2126L147.4364,329.2126L161.3455,329.2126L175.2545,329.2126L189.1636,329.2126L203.0727,329.2126L216.9818,329.2126
            L230.8909,329.2126L244.8000,329.2126L258.7091,329.2126L272.6182,329.2126L286.5273,329.2126L300.4364,329.2126L314.3455,329.2126L328.2545,329.2126L342.1636,329.2126L356.0727,329.2126
            L369.9818,329.2126L383.8909,329.2126L397.8000,329.2126L411.7091,329.2126L425.6182,329.2126L439.5273,329.2126L453.4364,329.2126L467.3455,329.2126L481.2545,329.2126L495.1636,329.2126
            L509.0727,329.2126L522.9818,329.2126L536.8909,329.2126L550.8000,329.2126"/>
   <path d="M91.8000,329.3871L105.7091,329.3871L119.6182,329.3871L133.5273,329.3871L147.4364,329.3871L161.3455,329.3871L175.2545,329.3871L189.1636,329.3871L203.0727,329.3871L216.9818,329.3871
            L230.8909,329.3871L244.8000,329.3871L258.7091,329.3871L272.6182,329.3871L286.5273,329.3871L300.4364,329.3871L314.3455,329.3871L328.2545,329.3871L342.1636,329.3871L356.0727,329.3871
            L369.9818,329.3871L383.8909,329.3871L397.8000,329.3871L411.7091,329.3871L425.6182,329.3871L439.5273,329.3871L453.4364,329.3871L467.3455,329.3871L481.2545,329.3871L495.1636,329.3871
            L509.0727,329.3871L522.9818,329.3871L536.8909,329.3871L550.8000,329.3871"/>
   <path d="M91.8000,324.9223L105.7091,324.9223L119.6182,324.9223L133.5273,324.9223L147.4364,324.9223L161.3455,324.9223L175.2545,324.9223L189.1636,324.9223L203.0727,324.9223L216.9818,324.9223
            L230.8909,324.9223L244.8000,324.9223L258.7091,324.9223L272.6182,324.9223L286.5273,324.9223L300.4364,324.9223L314.3455,324.9223L328.2545,324.9223L342.1636,324.9223L356.0727,324.9223
            L369.9818,324.9223L383.8909,324.9223L397.8000,324.9223L411.7091,324.9223L425.6182,324.9223L439.5273,324.9223L453.4364,324.9223L467.3455,324.9223L481.2545,324.9223L495.1636,324.9223
            L509.0727,324.9223L522.9818,324.9223L536.8909,324.9223L550.8000,324.9223"/>
   <path d="M91.8000,327.9053L105.7091,327.9053L119.6182,327.9053L133.5273,327.9053L147.4364,327.9053L161.3455,327.9053L175.2545,327.9053L189.1636,327.9053L203.0727,327.9053L216.9818,327.9053
            L230.8909,327.9053L244.8000,327.9053L258.7091,327.9053L272.6182,327.9053L286.5273,327.9053L300.4364,327.9053L314.3455,327.9053L328.2545,327.9053L342.1636,327.9053L356.0727,327.9053
            L369.9818,327.9053L383.8909,327.9053L397.8000,327.9053L411.7091,327.9053L425.6182,327.9053L439.5273,327.9053L453.4364,327.9053L467.3455,327.9053L481.2545,327.9053L495.1636,327.9053
            L509.0727,327.9053L522.9818,327.9053L536.8909,327.9053L550.8000,327.9053"/>
   <path d="M91.8000,328.5469L105.7091,328.5469L119.6182,328.5469L133.5273,328.5469L147.4364,328.5469L161.3455,328.5469L175.2545,328.5469L189.1636,328.5469L203.0727,328.5469L216.9818,328.5469
            L230.8909,328.5469L244.8000,328.5469L258.7091,328.5469L272.6182,328.5469L286.5273,328.5469L300.4364,328.5469L314.3455,328.5469L328.2545,328.5469L342.1636,328.5469L356.0727,328.5469
            L369.9818,328.5469L383.8909,328.5469L397.8000,328.5469L411.7091,328.5469L425.6182,328.5469L439.5273,328.5469L453.4364,328.5469L467.3455,328.5469L481.2545,328.5469L495.1636,328.5469
            L509.0727,328.5469L522.9818,328.5469L536.8909,328.5469L550.8000,328.5469"/>
   <path d="M91.8000,324.9689L105.7091,324.9689L119.6182,324.9689L133.5273,324.9689L147.4364,324.9689L161.3455,324.9689L175.2545,324.9689L189.1636,324.9689L203.0727,324.9689L216.9818,324.9689
            L230.8909,324.9689L244.8000,324.9689L258.7091,324.9689L272.6182,324.9689L286.5273,324.9689L300.4364,324.9689L314.3455,324.9689L328.2545,324.9689L342.1636,324.9689L356.0727,324.9689
            L369.9818,324.9689L383.8909,324.9689L397.8000,324.9689L411.7091,324.9689L425.6182,324.9689L439.5273,324.9689L453.4364,324.9689L467.3455,324.9689L481.2545,324.9689L495.1636,324.9689
            L509.0727,324.9689L522.9818,324.9689L536.8909,324.9689L550.8000,324.9689"/>
   <path d="M91.8000,324.2919L105.7091,324.2919L119.6182,324.2919L133.5273,324.2919L147.4364,324.2919L161.3455,324.2919L175.2545,324.2919L189.1636,324.2919L203.0727,324.2919L216.9818,324.2919
            L230.8909,324.2919L244.8000,324.2919L258.7091,324.2919L272.6182,324.2919L286.5273,324.2919L300.4364,324.2919L314.3455,324.2919L328.2545,324.2919L342.1636,324.2919L356.0727,324.2919
            L369.9818,324.2919L383.8909,324.2919L397.8000,324.2919L411.7091,324.2919L425.6182,324.2919L439.5273,324.2919L453.4364,324.2919L467.3455,324.2919L481.2545,324.2919L495.1636,324.2919
            L509.0727,324.2919L522.9818,324.2919L536.8909,324.2919L550.8000,324.2919"/>
   <path d="M91.8000,317.7749L105.7091,317.7749L119.6182,317.7749L133.5273,317.7749L147.4364,317.7749L161.3455,317.7749L175.2545,317.7749L189.1636,317.7749L203.0727,317.7749L216.9818,317.7749
            L230.8909,317.7749L244.8000,317.7749L258.7091,317.7749L272.6182,317.7749L286.5273,317.7749L300.4364,317.7749L314.3455,317.7749L328.2545,317.7749L342.1636,317.7749L356.0727,317.7749
            L369.9818,317.7749L383.8909,317.7749L397.8000,317.7749L411.7091,317.7749L425.6182,317.7749L439.5273,317.7749L453.4364,317.7749L467.3455,317.7749L481.2545,317.7749L495.1636,317.7749
            L509.0727,317.7749L522.9818,317.7749L536.8909,317.7749L550.8000,317.7749"/>
   <path d="M91.8000,327.1117L105.7091,327.1117L119.6182,327.1117L133.5273,327.1117L147.4364,327.1117L161.3455,327.1117L175.2545,327.1117L189.1636,327.1117L203.0727,327.1117L216.9818,327.1117
            L230.8909,327.1117L244.8000,327.1117L258.7091,327.1117L272.6182,327.1117L286.5273,327.1117L300.4364,327.1117L314.3455,327.1117L328.2545,327.1117L342.1636,327.1117L356.0727,327.1117
            L369.9818,327.1117L383.8909,327.1117L397.8000,327.1117L411.7091,327.1117L425.6182,327.1117L439.5273,327.1117L453.4364,327.1117L467.3455,327.1117L481.2545,327.1117L495.1636,327.1117
            L509.0727,327.1117L522.9818,327.1117L536.8909,327.1117L550.8000,327.1117"/>
   <path d="M91.8000,326.7046L105.7091,326.7046L119.6182,326.7046L133.5273,326.7046L147.4364,326.7046L161.3455,326.7046L175.2545,326.7046L189.1636,326.7046L203.0727,326.7046L216.9818,326.7046
            L230.8909,326.7046L244.8000,326.7046L258.7091,326.7046L272.6182,326.7046L286.5273,326.7046L300.4364,326.7046L314.3455,326.7046L328.2545,326.7046L342.1636,326.7046L356.0727,326.7046
            L369.9818,326.7046L383.8909,326.7046L397.8000,326.7046L411.7091,326.7046L425.6182,326.7046L439.5273,326.7046L453.4364,326.7046L467.3455,326.7046L481.2545,326.7046L495.1636,326.7046
            L509.0727,326.7046L522.9818,326.7046L536.8909,326.7046L550.8000,326.7046"/>
   <path d="M91.8000,321.5834L105.7091,321.5834L119.6182,321.5834L133.5273,321.5834L147.4364,321.5834L161.3455,321.5834L175.2545,321.5834L189.1636,321.5834L203.0727,321.5834L216.9818,321.5834
            L230.8909,321.5834L244.8000,321.5834L258.7091,321.5834L272.6182,321.5834L286.5273,321.5834L300.4364,321.5834L314.3455,321.5834L328.2545,321.5834L342.1636,321.5834L356.0727,321.5834
            L369.9818,321.5834L383.8909,321.5834L397.8000,321.5834L411.7091,321.5834L425.6182,321.5834L439.5273,321.5834L453.4364,321.5834L467.3455,321.5834L481.2545,321.5834L495.1636,321.5834
            L509.0727,321.5834L522.9818,321.5834L536.8909,321.5834L550.8000,321.5834"/>
   <path d="M91.8000,326.3810L105.7091,326.3810L119.6182,326.3810L133.5273,326.3810L147.4364,326.3810L161.3455,326.3810L175.2545,326.3810L189.1636,326.3810L203.0727,326.3810L216.9818,326.3810
            L230.8909,326.3810L244.8000,326.3810L258.7091,326.3810L272.6182,326.3810L286.5273,326.3810L300.4364,326.3810L314.3455,326.3810L328.2545,326.3810L342.1636,326.3810L356.0727,326.3810
            L369.9818,326.3810L383.8909,326.3810L397.8000,326.3810L411.7091,326.3810L425.6182,326.3810L439.5273,326.3810L453.4364,326.3810L467.3455,326.3810L481.2545,326.3810L495.1636,326.3810
            L509.0727,326.3810L522.9818,326.3810L536.8909,326.3810L550.8000,326.3810"/>
   <path d="M91.8000,328.6158L105.7091,328.6158L119.6182,328.6158L133.5273,328.6158L147.4364,328.6158L161.3455,328.6158L175.2545,328.6158L189.1636,328.6158L203.0727,328.6158L216.9818,328.6158
            L230.8909,328.6158L244.8000,328.6158L258.7091,328.6158L272.6182,328.6158L286.5273,328.6158L300.4364,328.6158L314.3455,328.6158L328.2545,328.6158L342.1636,328.6158L356.0727,328.6158
            L369.9818,328.6158L383.8909,328.6158L397.8000,328.6158L411.7091,328.6158L425.6182,328.6158L439.5273,328.6158L453.4364,328.6158L467.3455,328.6158L481.2545,328.6158L495.1636,328.6158
            L509.0727,328.6158L522.9818,328.6158L536.8909,328.6158L550.8000,328.6158"/>
   <path d="M91.8000,327.5754L105.7091,327.5754L119.6182,327.5754L133.5273,327.5754L147.4364,327.5754L161.3455,327.5754L175.2545,327.5754L189.1636,327.5754L203.0727,327.5754L216.9818,327.5754
            L230.8909,327.5754L244.8000,327.5754L258.7091,327.5754L272.6182,327.5754L286.5273,327.5754L300.4364,327.5754L314.3455,327.5754L328.2545,327.5754L342.1636,327.5754L356.0727,327.5754
            L369.9818,327.5754L383.8909,327.5754L397.8000,327.5754L411.7091,327.5754L425.6182,327.5754L439.5273,327.5754L453.4364,327.5754L467.3455,327.5754L481.2545,327.5754L495.1636,327.5754
            L509.0727,327.5754L522.9818,327.5754L536.8909,327.5754L550.8000,327.5754"/>
   <path d="M91.8000,327.8890L105.7091,327.8890L119.6182,327.8890L133.5273,327.8890L147.4364,327.8890L161.3455,327.8890L175.2545,327.8890L189.1636,327.8890L203.0727,327.8890L216.9818,327.8890
            L230.8909,327.8890L244.8000,327.8890L258.7091,327.8890L272.6182,327.8890L286.5273,327.8890L300.4364,327.8890L314.3455,327.8890L328.2545,327.8890L342.1636,327.8890L356.0727,327.8890
            L369.9818,327.8890L383.8909,327.8890L397.8000,327.8890L411.7091,327.8890L425.6182,327.8890L439.5273,327.8890L453.4364,327.8890L467.3455,327.8890L481.2545,327.8890L495.1636,327.8890
            L509.0727,327.8890L522.9818,327.8890L536.8909,327.8890L550.8000,327.8890"/>
   <path d="M91.8000,327.2509L105.7091,327.2509L119.6182,327.2509L133.5273,327.2509L147.4364,327.2509L161.3455,327.2509L175.2545,327.2509L189.1636,327.2509L203.0727,327.2509L216.9818,327.2509
            L230.8909,327.2509L244.8000,327.2509L258.7091,327.2509L272.6182,327.2509L286.5273,327.2509L300.4364,327.2509L314.3455,327.2509L328.2545,327.2509L342.1636,327.2509L356.0727,327.2509
            L369.9818,327.2509L383.8909,327.2509L397.8000,327.2509L411.7091,327.2509L425.6182,327.2509L439.5273,327.2509L453.4364,327.2509L467.3455,327.2509L481.2545,327.2509L495.1636,327.2509
            L509.0727,327.2509L522.9818,327.2509L536.8909,327.2509L550.8000,327.2509"/>
   <path d="M91.8000,317.7591L105.7091,317.7591L119.6182,317.7591L133.5273,317.7591L147.4364,317.7591L161.3455,317.7591L175.2545,317.7591L189.1636,317.7591L203.0727,317.7591L216.9818,317.7591
            L230.8909,317.7591L244.8000,317.7591L258.7091,317.7591L272.6182,317.7591L286.5273,317.7591L300.4364,317.7591L314.3455,317.7591L328.2545,317.7591L342.1636,317.7591L356.0727,317.7591
            L369.9818,317.7591L383.8909,317.7591L397.8000,317.7591L411.7091,317.7591L425.6182,317.7591L439.5273,317.7591L453.4364,317.7591L467.3455,317.7591L481.2545,317.7591L495.1636,317.7591
            L509.0727,317.7591L522.9818,317.7591L536.8909,317.7591L550.8000,317.7591"/>
   <path d="M91.8000,333.0636L105.7091,333.0636L119.6182,333.0636L133.5273,333.0636L147.4364,333.0636L161.3455,333.0636L175.2545,333.0636L189.1636,333.0636L203.0727,333.0636L216.9818,333.0636
            L230.8909,333.0636L244.8000,333.0636L258.7091,333.0636L272.6182,333.0636L286.5273,333.0636L300.4364,333.0636L314.3455,333.0636L328.2545,333.0636L342.1636,333.0636L356.0727,333.0636
            L369.9818,333.0636L383.8909,333.0636L397.8000,333.0636L411.7091,333.0636L425.6182,333.0636L439.5273,333.0636L453.4364,333.0636L467.3455,333.0636L481.2545,333.0636L495.1636,333.0636
            L509.0727,333.0636L522.9818,333.0636L536.8909,333.0636L550.8000,333.0636"/>
   <path d="M91.8000,325.3042L105.7091,325.3042L119.6182,325.3042L133.5273,325.3042L147.4364,325.3042L161.3455,325.3042L175.2545,325.3042L189.1636,325.3042L203.0727,325.3042L216.9818,325.3042
            L230.8909,325.3042L244.8000,325.3042L258.7091,325.3042L272.6182,325.3042L286.5273,325.3042L300.4364,325.3042L314.3455,325.3042L328.2545,325.3042L342.1636,325.3042L356.0727,325.3042
            L369.9818,325.3042L383.8909,325.3042L397.8000,325.3042L411.7091,325.3042L425.6182,325.3042L439.5273,325.3042L453.4364,325.3042L467.3455,325.3042L481.2545,325.3042L495.1636,325.3042
            L509.0727,325.3042L522.9818,325.3042L536.8909,325.3042L550.8000,325.3042"/>
   <path d="M91.8000,325.9311L105.7091,325.9311L119.6182,325.9311L133.5273,325.9311L147.4364,325.9311L161.3455,325.9311L175.2545,325.9311L189.1636,325.9311L203.0727,325.9311L216.9818,325.9311
            L230.8909,325.9311L244.8000,325.9311L258.7091,325.9311L272.6182,325.9311L286.5273,325.9311L300.4364,325.9311L314.3455,325.9311L328.2545,325.9311L342.1636,325.9311L356.0727,325.9311
            L369.9818,325.9311L383.8909,325.9311L397.8000,325.9311L411.7091,325.9311L425.6182,325.9311L439.5273,325.9311L453.4364,325.9311L467.3455,325.9311L481.2545,325.9311L495.1636,325.9311
            L509.0727,325.9311L522.9818,325.9311L536.8909,325.9311L550.8000,325.9311"/>
   <path d="M91.8000,326.9569L105.7091,326.9569L119.6182,326.9569L133.5273,326.9569L147.4364,326.9569L161.3455,326.9569L175.2545,326.9569L189.1636,326.9569L203.0727,326.9569L216.9818,326.9569
            L230.8909,326.9569L244.8000,326.9569L258.7091,326.9569L272.6182,326.9569L286.5273,326.9569L300.4364,326.9569L314.3455,326.9569L328.2545,326.9569L342.1636,326.9569L356.0727,326.9569
            L369.9818,326.9569L383.8909,326.9569L397.8000,326.9569L411.7091,326.9569L425.6182,326.9569L439.5273,326.9569L453.4364,326.9569L467.3455,326.9569L481.2545,326.9569L495.1636,326.9569
            L509.0727,326.9569L522.9818,326.9569L536.8909,326.9569L550.8000,326.9569"/>
   <path d="M91.8000,328.1912L105.7091,328.1912L119.6182,328.1912L133.5273,328.1912L147.4364,328.1912L161.3455,328.1912L175.2545,328.1912L189.1636,328.1912L203.0727,328.1912L216.9818,328.1912
            L230.8909,328.1912L244.8000,328.1912L258.7091,328.1912L272.6182,328.1912L286.5273,328.1912L300.4364,328.1912L314.3455,328.1912L328.2545,328.1912L342.1636,328.1912L356.0727,328.1912
            L369.9818,328.1912L383.8909,328.1912L397.8000,328.1912L411.7091,328.1912L425.6182,328.1912L439.5273,328.1912L453.4364,328.1912L467.3455,328.1912L481.2545,328.1912L495.1636,328.1912
            L509.0727,328.1912L522.9818,328.1912L536.8909,328.1912L550.8000,328.1912"/>
   <path d="M91.8000,326.5140L105.7091,326.5140L119.6182,326.5140L133.5273,326.5140L147.4364,326.5140L161.3455,326.5140L175.2545,326.5140L189.1636,326.5140L203.0727,326.5140L216.9818,326.5140
            L230.8909,326.5140L244.8000,326.5140L258.7091,326.5140L272.6182,326.5140L286.5273,326.5140L300.4364,326.5140L314.3455,326.5140L328.2545,326.5140L342.1636,326.5140L356.0727,326.5140
            L369.9818,326.5140L383.8909,326.5140L397.8000,326.5140L411.7091,326.5140L425.6182,326.5140L439.5273,326.5140L453.4364,326.5140L467.3455,326.5140L481.2545,326.5140L495.1636,326.5140
            L509.0727,326.5140L522.9818,326.5140L536.8909,326.5140L550.8000,326.5140"/>
   <path d="M91.8000,327.3926L105.7091,327.3926L119.6182,327.3926L133.5273,327.3926L147.4364,327.3926L161.3455,327.3926L175.2545,327.3926L189.1636,327.3926L203.0727,327.3926L216.9818,327.3926
            L230.8909,327.3926L244.8000,327.3926L258.7091,327.3926L272.6182,327.3926L286.5273,327.3926L300.4364,327.3926L314.3455,327.3926L328.2545,327.3926L342.1636,327.3926L356.0727,327.3926
            L369.9818,327.3926L383.8909,327.3926L397.8000,327.3926L411.7091,327.3926L425.6182,327.3926L439.5273,327.3926L453.4364,327.3926L467.3455,327.3926L481.2545,327.3926L495.1636,327.3926
            L509.0727,327.3926L522.9818,327.3926L536.8909,327.3926L550.8000,327.3926"/>
   <path d="M91.8000,325.2658L105.7091,325.2658L119.6182,325.2658L133.5273,325.2658L147.4364,325.2658L161.3455,325.2658L175.2545,325.2658L189.1636,325.2658L203.0727,325.2658L216.9818,325.2658
            L230.8909,325.2658L244.8000,325.2658L258.7091,325.2658L272.6182,325.2658L286.5273,325.2658L300.4364,325.2658L314.3455,325.2658L328.2545,325.2658L342.1636,325.2658L356.0727,325.2658
            L369.9818,325.2658L383.8909,325.2658L397.8000,325.2658L411.7091,325.2658L425.6182,325.2658L439.5273,325.2658L453.4364,325.2658L467.3455,325.2658L481.2545,325.2658L495.1636,325.2658
            L509.0727,325.2658L522.9818,325.2658L536.8909,325.2658L550.8000,325.2658"/>
   <path d="M91.8000,319.4211L105.7091,319.4211L119.6182,319.4211L133.5273,319.4211L147.4364,319.4211L161.3455,319.4211L175.2545,319.4211L189.1636,319.4211L203.0727,319.4211L216.9818,319.4211
            L230.8909,319.4211L244.8000,319.4211L258.7091,319.4211L272.6182,319.4211L286.5273,319.4211L300.4364,319.4211L314.3455,319.4211L328.2545,319.4211L342.1636,319.4211L356.0727,319.4211
            L369.9818,319.4211L383.8909,319.4211L397.8000,319.4211L411.7091,319.4211L425.6182,319.4211L439.5273,319.4211L453.4364,319.4211L467.3455,319.4211L481.2545,319.4211L495.1636,319.4211
            L509.0727,319.4211L522.9818,319.4211L536.8909,319.4211L550.8000,319.4211"/>
   <path d="M91.8000,332.0946L105.7091,332.0946L119.6182,332.0946L133.5273,332.0946L147.4364,332.0946L161.3455,332.0946L175.2545,332.0946L189.1636,332.0946L203.0727,332.0946L216.9818,332.0946
            L230.8909,332.0946L244.8000,332.0946L258.7091,332.0946L272.6182,332.0946L286.5273,332.0946L300.4364,332.0946L314.3455,332.0946L328.2545,332.0946L342.1636,332.0946L356.0727,332.0946
            L369.9818,332.0946L383.8909,332.0946L397.8000,332.0946L411.7091,332.0946L425.6182,332.0946L439.5273,332.0946L453.4364,332.0946L467.3455,332.0946L481.2545,332.0946L495.1636,332.0946
            L509.0727,332.0946L522.9818,332.0946L536.8909,332.0946L550.8000,332.0946"/>
   <path d="M91.8000,318.6081L105.7091,318.6081L119.6182,318.6081L133.5273,318.6081L147.4364,318.6081L161.3455,318.6081L175.2545,318.6081L189.1636,318.6081L203.0727,318.6081L216.9818,318.6081
            L230.8909,318.6081L244.8000,318.6081L258.7091,318.6081L272.6182,318.6081L286.5273,318.6081L300.4364,318.6081L314.3455,318.6081L328.2545,318.6081L342.1636,318.6081L356.0727,318.6081
            L369.9818,318.6081L383.8909,318.6081L397.8000,318.6081L411.7091,318.6081L425.6182,318.6081L439.5273,318.6081L453.4364,318.6081L467.3455,318.6081L481.2545,318.6081L495.1636,318.6081
            L509.0727,318.6081L522.9818,318.6081L536.8909,318.6081L550.8000,318.6081"/>
   <path d="M91.8000,327.6471L105.7091,327.6471L119.6182,327.6471L133.5273,327.6471L147.4364,327.6471L161.3455,327.6471L175.2545,327.6471L189.1636,327.6471L203.0727,327.6471L216.9818,327.6471
            L230.8909,327.6471L244.8000,327.6471L258.7091,327.6471L272.6182,327.6471L286.5273,327.6471L300.4364,327.6471L314.3455,327.6471L328.2545,327.6471L342.1636,327.6471L356.0727,327.6471
            L369.9818,327.6471L383.8909,327.6471L397.8000,327.6471L411.7091,327.6471L425.6182,327.6471L439.5273,327.6471L453.4364,327.6471L467.3455,327.6471L481.2545,327.6471L495.1636,327.6471
            L509.0727,327.6471L522.9818,327.6471L536.8909,327.6471L550.8000,327.6471"/>
   <path d="M91.8000,325.5063L105.7091,325.5063L119.6182,325.5063L133.5273,325.5063L147.4364,325.5063L161.3455,325.5063L175.2545,325.5063L189.1636,325.5063L203.0727,325.5063L216.9818,325.5063
            L230.8909,325.5063L244.8000,325.5063L258.7091,325.5063L272.6182,325.5063L286.5273,325.5063L300.4364,325.5063L314.3455,325.5063L328.2545,325.5063L342.1636,325.5063L356.0727,325.5063
            L369.9818,325.5063L383.8909,325.5063L397.8000,325.5063L411.7091,325.5063L425.6182,325.5063L439.5273,325.5063L453.4364,325.5063L467.3455,325.5063L481.2545,325.5063L495.1636,325.5063
            L509.0727,325.5063L522.9818,325.5063L536.8909,325.5063L550.8000,325.5063"/>
   <path d="M91.8000,326.8106L105.7091,326.8106L119.6182,326.8106L133.5273,326.8106L147.4364,326.8106L161.3455,326.8106L175.2545,326.8106L189.1636,326.8106L203.0727,326.8106L216.9818,326.8106
            L230.8909,326.8106L244.8000,326.8106L258.7091,326.8106L272.6182,326.8106L286.5273,326.8106L300.4364,326.8106L314.3455,326.8106L328.2545,326.8106L342.1636,326.8106L356.0727,326.8106
            L369.9818,326.8106L383.8909,326.8106L397.8000,326.8106L411.7091,326.8106L425.6182,326.8106L439.5273,326.8106L453.4364,326.8106L467.3455,326.8106L481.2545,326.8106L495.1636,326.8106
            L509.0727,326.8106L522.9818,326.8106L536.8909,326.8106L550.8000,326.8106"/>
   <path d="M91.8000,329.6477L105.7091,329.6477L119.6182,329.6477L133.5273,329.6477L147.4364,329.6477L161.3455,329.6477L175.2545,329.6477L189.1636,329.6477L203.0727,329.6477L216.9818,329.6477
            L230.8909,329.6477L244.8000,329.6477L258.7091,329.6477L272.6182,329.6477L286.5273,329.6477L300.4364,329.6477L314.3455,329.6477L328.2545,329.6477L342.1636,329.6477L356.0727,329.6477
            L369.9818,329.6477L383.8909,329.6477L397.8000,329.6477L411.7091,329.6477L425.6182,329.6477L439.5273,329.6477L453.4364,329.6477L467.3455,329.6477L481.2545,329.6477L495.1636,329.6477
            L509.0727,329.6477L522.9818,329.6477L536.8909,329.6477L550.8000,329.6477"/>
   <path d="M91.8000,321.8725L105.7091,321.8725L119.6182,321.8725L133.5273,321.8725L147.4364,321.8725L161.3455,321.8725L175.2545,321.8725L189.1636,321.8725L203.0727,321.8725L216.9818,321.8725
            L230.8909,321.8725L244.8000,321.8725L258.7091,321.8725L272.6182,321.8725L286.5273,321.8725L300.4364,321.8725L314.3455,321.8725L328.2545,321.8725L342.1636,321.8725L356.0727,321.8725
            L369.9818,321.8725L383.8909,321.8725L397.8000,321.8725L411.7091,321.8725L425.6182,321.8725L439.5273,321.8725L453.4364,321.8725L467.3455,321.8725L481.2545,321.8725L495.1636,321.8725
            L509.0727,321.8725L522.9818,321.8725L536.8909,321.8725L550.8000,321.8725"/>
   <path d="M91.8000,320.7077L105.7091,320.7077L119.6182,320.7077L133.5273,320.7077L147.4364,320.7077L161.3455,320.7077L175.2545,320.7077L189.1636,320.7077L203.0727,320.7077L216.9818,320.7077
            L230.8909,320.7077L244.8000,320.7077L258.7091,320.7077L272.6182,320.7077L286.5273,320.7077L300.4364,320.7077L314.3455,320.7077L328.2545,320.7077L342.1636,320.7077L356.0727,320.7077
            L369.9818,320.7077L383.8909,320.7077L397.8000,320.7077L411.7091,320.7077L425.6182,320.7077L439.5273,320.7077L453.4364,320.7077L467.3455,320.7077L481.2545,320.7077L495.1636,320.7077
            L509.0727,320.7077L522.9818,320.7077L536.8909,320.7077L550.8000,320.7077"/>
   <path d="M91.8000,318.2350L105.7091,318.2350L119.6182,318.2350L133.5273,318.2350L147.4364,318.2350L161.3455,318.2350L175.2545,318.2350L189.1636,318.2350L203.0727,318.2350L216.9818,318.2350
            L230.8909,318.2350L244.8000,318.2350L258.7091,318.2350L272.6182,318.2350L286.5273,318.2350L300.4364,318.2350L314.3455,318.2350L328.2545,318.2350L342.1636,318.2350L356.0727,318.2350
            L369.9818,318.2350L383.8909,318.2350L397.8000,318.2350L411.7091,318.2350L425.6182,318.2350L439.5273,318.2350L453.4364,318.2350L467.3455,318.2350L481.2545,318.2350L495.1636,318.2350
            L509.0727,318.2350L522.9818,318.2350L536.8909,318.2350L550.8000,318.2350"/>
   <path d="M91.8000,319.6667L105.7091,319.6667L119.6182,319.6667L133.5273,319.6667L147.4364,319.6667L161.3455,319.6667L175.2545,319.6667L189.1636,319.6667L203.0727,319.6667L216.9818,319.6667
            L230.8909,319.6667L244.8000,319.6667L258.7091,319.6667L272.6182,319.6667L286.5273,319.6667L300.4364,319.6667L314.3455,319.6667L328.2545,319.6667L342.1636,319.6667L356.0727,319.6667
            L369.9818,319.6667L383.8909,319.6667L397.8000,319.6667L411.7091,319.6667L425.6182,319.6667L439.5273,319.6667L453.4364,319.6667L467.3455,319.6667L481.2545,319.6667L495.1636,319.6667
            L509.0727,319.6667L522.9818,319.6667L536.8909,319.6667L550.8000,319.6667"/>
   <path d="M91.8000,329.6376L105.7091,329.6376L119.6182,329.6376L133.5273,329.6376L147.4364,329.6376L161.3455,329.6376L175.2545,329.6376L189.1636,329.6376L203.0727,329.6376L216.9818,329.6376
            L230.8909,329.6376L244.8000,329.6376L258.7091,329.6376L272.6182,329.6376L286.5273,329.6376L300.4364,329.6376L314.3455,329.6376L328.2545,329.6376L342.1636,329.6376L356.0727,329.6376
            L369.9818,329.6376L383.8909,329.6376L397.8000,329.6376L411.7091,329.6376L425.6182,329.6376L439.5273,329.6376L453.4364,329.6376L467.3455,329.6376L481.2545,329.6376L495.1636,329.6376
            L509.0727,329.6376L522.9818,329.6376L536.8909,329.6376L550.8000,329.6376"/>
   <path d="M91.8000,307.3151L105.7091,307.3151L119.6182,307.3151L133.5273,307.3151L147.4364,307.3151L161.3455,307.3151L175.2545,307.3151L189.1636,307.3151L203.0727,307.3151L216.9818,307.3151
            L230.8909,307.3151L244.8000,307.3151L258.7091,307.3151L272.6182,307.3151L286.5273,307.3151L300.4364,307.3151L314.3455,307.3151L328.2545,307.3151L342.1636,307.3151L356.0727,307.3151
            L369.9818,307.3151L383.8909,307.3151L397.8000,307.3151L411.7091,307.3151L425.6182,307.3151L439.5273,307.3151L453.4364,307.3151L467.3455,307.3151L481.2545,307.3151L495.1636,307.3151
            L509.0727,307.3151L522.9818,307.3151L536.8909,307.3151L550.8000,307.3151"/>
   <path d="M91.8000,319.0219L105.7091,319.0219L119.6182,319.0219L133.5273,319.0219L147.4364,319.0219L161.3455,319.0219L175.2545,319.0219L189.1636,319.0219L203.0727,319.0219L216.9818,319.0219
            L230.8909,319.0219L244.8000,319.0219L258.7091,319.0219L272.6182,319.0219L286.5273,319.0219L300.4364,319.0219L314.3455,319.0219L328.2545,319.0219L342.1636,319.0219L356.0727,319.0219
            L369.9818,319.0219L383.8909,319.0219L397.8000,319.0219L411.7091,319.0219L425.6182,319.0219L439.5273,319.0219L453.4364,319.0219L467.3455,319.0219L481.2545,319.0219L495.1636,319.0219
            L509.0727,319.0219L522.9818,319.0219L536.8909,319.0219L550.8000,319.0219"/>
   <path d="M91.8000,328.6962L105.7091,328.6962L119.6182,328.6962L133.5273,328.6962L147.4364,328.6962L161.3455,328.6962L175.2545,328.6962L189.1636,328.6962L203.0727,328.6962L216.9818,328.6962
            L230.8909,328.6962L244.8000,328.6962L258.7091,328.6962L272.6182,328.6962L286.5273,328.6962L300.4364,328.6962L314.3455,328.6962L328.2545,328.6962L342.1636,328.6962L356.0727,328.6962
            L369.9818,328.6962L383.8909,328.6962L397.8000,328.6962L411.7091,328.6962L425.6182,328.6962L439.5273,328.6962L453.4364,328.6962L467.3455,328.6962L481.2545,328.6962L495.1636,328.6962
            L509.0727,328.6962L522.9818,328.6962L536.8909,328.6962L550.8000,328.6962"/>
   <path d="M91.8000,323.9218L105.7091,323.9218L119.6182,323.9218L133.5273,323.9218L147.4364,323.9218L161.3455,323.9218L175.2545,323.9218L189.1636,323.9218L203.0727,323.9218L216.9818,323.9218
            L230.8909,323.9218L244.8000,323.9218L258.7091,323.9218L272.6182,323.9218L286.5273,323.9218L300.4364,323.9218L314.3455,323.9218L328.2545,323.9218L342.1636,323.9218L356.0727,323.9218
            L369.9818,323.9218L383.8909,323.9218L397.8000,323.9218L411.7091,323.9218L425.6182,323.9218L439.5273,323.9218L453.4364,323.9218L467.3455,323.9218L481.2545,323.9218L495.1636,323.9218
            L509.0727,323.9218L522.9818,323.9218L536.8909,323.9218L550.8000,323.9218"/>
   <path d="M91.8000,328.6569L105.7091,328.6569L119.6182,328.6569L133.5273,328.6569L147.4364,328.6569L161.3455,328.6569L175.2545,328.6569L189.1636,328.6569L203.0727,328.6569L216.9818,328.6569
            L230.8909,328.6569L244.8000,328.6569L258.7091,328.6569L272.6182,328.6569L286.5273,328.6569L300.4364,328.6569L314.3455,328.6569L328.2545,328.6569L342.1636,328.6569L356.0727,328.6569
            L369.9818,328.6569L383.8909,328.6569L397.8000,328.6569L411.7091,328.6569L425.6182,328.6569L439.5273,328.6569L453.4364,328.6569L467.3455,328.6569L481.2545,328.6569L495.1636,328.6569
            L509.0727,328.6569L522.9818,328.6569L536.8909,328.6569L550.8000,328.6569"/>
   <path d="M91.8000,341.9047L105.7091,341.9047L119.6182,341.9047L133.5273,341.9047L147.4364,341.9047L161.3455,341.9047L175.2545,341.9047L189.1636,341.9047L203.0727,341.9047L216.9818,341.9047
            L230.8909,341.9047L244.8000,341.9047L258.7091,341.9047L272.6182,341.9047L286.5273,341.9047L300.4364,341.9047L314.3455,341.9047L328.2545,341.9047L342.1636,341.9047L356.0727,341.9047
            L369.9818,341.9047L383.8909,341.9047L397.8000,341.9047L411.7091,341.9047L425.6182,341.9047L439.5273,341.9047L453.4364,341.9047L467.3455,341.9047L481.2545,341.9047L495.1636,341.9047
            L509.0727,341.9047L522.9818,341.9047L536.8909,341.9047L550.8000,341.9047"/>
   <path d="M91.8000,323.8434L105.7091,323.8434L119.6182,323.8434L133.5273,323.8434L147.4364,323.8434L161.3455,323.8434L175.2545,323.8434L189.1636,323.8434L203.0727,323.8434L216.9818,323.8434
            L230.8909,323.8434L244.8000,323.8434L258.7091,323.8434L272.6182,323.8434L286.5273,323.8434L300.4364,323.8434L314.3455,323.8434L328.2545,323.8434L342.1636,323.8434L356.0727,323.8434
            L369.9818,323.8434L383.8909,323.8434L397.8000,323.8434L411.7091,323.8434L425.6182,323.8434L439.5273,323.8434L453.4364,323.8434L467.3455,323.8434L481.2545,323.8434L495.1636,323.8434
            L509.0727,323.8434L522.9818,323.8434L536.8909,323.8434L550.8000,323.8434"/>
   <path d="M91.8000,310.0285L105.7091,310.0285L119.6182,310.0285L133.5273,310.0285L147.4364,310.0285L161.3455,310.0285L175.2545,310.0285L189.1636,310.0285L203.0727,310.0285L216.9818,310.0285
            L230.8909,310.0285L244.8000,310.0285L258.7091,310.0285L272.6182,310.0285L286.5273,310.0285L300.4364,310.0285L314.3455,310.0285L328.2545,310.0285L342.1636,310.0285L356.0727,310.0285
            L369.9818,310.0285L383.8909,310.0285L397.8000,310.0285L411.7091,310.0285L425.6182,310.0285L439.5273,310.0285L453.4364,310.0285L467.3455,310.0285L481.2545,310.0285L495.1636,310.0285
            L509.0727,310.0285L522.9818,310.0285L536.8909,310.0285L550.8000,310.0285"/>
   <path d="M91.8000,324.2445L105.7091,324.2445L119.6182,324.2445L133.5273,324.2445L147.4364,324.2445L161.3455,324.2445L175.2545,324.2445L189.1636,324.2445L203.0727,324.2445L216.9818,324.2445
            L230.8909,324.2445L244.8000,324.2445L258.7091,324.2445L272.6182,324.2445L286.5273,324.2445L300.4364,324.2445L314.3455,324.2445L328.2545,324.2445L342.1636,324.2445L356.0727,324.2445
            L369.9818,324.2445L383.8909,324.2445L397.8000,324.2445L411.7091,324.2445L425.6182,324.2445L439.5273,324.2445L453.4364,324.2445L467.3455,324.2445L481.2545,324.2445L495.1636,324.2445
            L509.0727,324.2445L522.9818,324.2445L536.8909,324.2445L550.8000,324.2445"/>
   <path d="M91.8000,322.4569L105.7091,322.4569L119.6182,322.4569L133.5273,322.4569L147.4364,322.4569L161.3455,322.4569L175.2545,322.4569L189.1636,322.4569L203.0727,322.4569L216.9818,322.4569
            L230.8909,322.4569L244.8000,322.4569L258.7091,322.4569L272.6182,322.4569L286.5273,322.4569L300.4364,322.4569L314.3455,322.4569L328.2545,322.4569L342.1636,322.4569L356.0727,322.4569
            L369.9818,322.4569L383.8909,322.4569L397.8000,322.4569L411.7091,322.4569L425.6182,322.4569L439.5273,322.4569L453.4364,322.4569L467.3455,322.4569L481.2545,322.4569L495.1636,322.4569
            L509.0727,322.4569L522.9818,322.4569L536.8909,322.4569L550.8000,322.4569"/>
   <path d="M91.8000,324.3821L105.7091,324.3821L119.6182,324.3821L133.5273,324.3821L147.4364,324.3821L161.3455,324.3821L175.2545,324.3821L189.1636,324.3821L203.0727,324.3821L216.9818,324.3821
            L230.8909,324.3821L244.8000,324.3821L258.7091,324.3821L272.6182,324.3821L286.5273,324.3821L300.4364,324.3821L314.3455,324.3821L328.2545,324.3821L342.1636,324.3821L356.0727,324.3821
            L369.9818,324.3821L383.8909,324.3821L397.8000,324.3821L411.7091,324.3821L425.6182,324.3821L439.5273,324.3821L453.4364,324.3821L467.3455,324.3821L481.2545,324.3821L495.1636,324.3821
            L509.0727,324.3821L522.9818,324.3821L536.8909,324.3821L550.8000,324.3821"/>
   <path d="M91.8000,330.3779L105.7091,330.3779L119.6182,330.3779L133.5273,330.3779L147.4364,330.3779L161.3455,330.3779L175.2545,330.3779L189.1636,330.3779L203.0727,330.3779L216.9818,330.3779
            L230.8909,330.3779L244.8000,330.3779L258.7091,330.3779L272.6182,330.3779L286.5273,330.3779L300.4364,330.3779L314.3455,330.3779L328.2545,330.3779L342.1636,330.3779L356.0727,330.3779
            L369.9818,330.3779L383.8909,330.3779L397.8000,330.3779L411.7091,330.3779L425.6182,330.3779L439.5273,330.3779L453.4364,330.3779L467.3455,330.3779L481.2545,330.3779L495.1636,330.3779
            L509.0727,330.3779L522.9818,330.3779L536.8909,330.3779L550.8000,330.3779"/>
   <path d="M91.8000,323.1629L105.7091,323.1629L119.6182,323.1629L133.5273,323.1629L147.4364,323.1629L161.3455,323.1629L175.2545,323.1629L189.1636,323.1629L203.0727,323.1629L216.9818,323.1629
            L230.8909,323.1629L244.8000,323.1629L258.7091,323.1629L272.6182,323.1629L286.5273,323.1629L300.4364,323.1629L314.3455,323.1629L328.2545,323.1629L342.1636,323.1629L356.0727,323.1629
            L369.9818,323.1629L383.8909,323.1629L397.8000,323.1629L411.7091,323.1629L425.6182,323.1629L439.5273,323.1629L453.4364,323.1629L467.3455,323.1629L481.2545,323.1629L495.1636,323.1629
            L509.0727,323.1629L522.9818,323.1629L536.8909,323.1629L550.8000,323.1629"/>
   <path d="M91.8000,316.4179L105.7091,316.4179L119.6182,316.4179L133.5273,316.4179L147.4364,316.4179L161.3455,316.4179L175.2545,316.4179L189.1636,316.4179L203.0727,316.4179L216.9818,316.4179
            L230.8909,316.4179L244.8000,316.4179L258.7091,316.4179L272.6182,316.4179L286.5273,316.4179L300.4364,316.4179L314.3455,316.4179L328.2545,316.4179L342.1636,316.4179L356.0727,316.4179
            L369.9818,316.4179L383.8909,316.4179L397.8000,316.4179L411.7091,316.4179L425.6182,316.4179L439.5273,316.4179L453.4364,316.4179L467.3455,316.4179L481.2545,316.4179L495.1636,316.4179
            L509.0727,316.4179L522.9818,316.4179L536.8909,316.4179L550.8000,316.4179"/>
   <path d="M91.8000,315.7094L105.7091,315.7094L119.6182,315.7094L133.5273,315.7094L147.4364,315.7094L161.3455,315.7094L175.2545,315.7094L189.1636,315.7094L203.0727,315.7094L216.9818,315.7094
            L230.8909,315.7094L244.8000,315.7094L258.7091,315.7094L272.6182,315.7094L286.5273,315.7094L300.4364,315.7094L314.3455,315.7094L328.2545,315.7094L342.1636,315.7094L356.0727,315.7094
            L369.9818,315.7094L383.8909,315.7094L397.8000,315.7094L411.7091,315.7094L425.6182,315.7094L439.5273,315.7094L453.4364,315.7094L467.3455,315.7094L481.2545,315.7094L495.1636,315.7094
            L509.0727,315.7094L522.9818,315.7094L536.8909,315.7094L550.8000,315.7094"/>
   <path d="M91.8000,328.5718L105.7091,328.5718L119.6182,328.5718L133.5273,328.5718L147.4364,328.5718L161.3455,328.5718L175.2545,328.5718L189.1636,328.5718L203.0727,328.5718L216.9818,328.5718
            L230.8909,328.5718L244.8000,328.5718L258.7091,328.5718L272.6182,328.5718L286.5273,328.5718L300.4364,328.5718L314.3455,328.5718L328.2545,328.5718L342.1636,328.5718L356.0727,328.5718
            L369.9818,328.5718L383.8909,328.5718L397.8000,328.5718L411.7091,328.5718L425.6182,328.5718L439.5273,328.5718L453.4364,328.5718L467.3455,328.5718L481.2545,328.5718L495.1636,328.5718
            L509.0727,328.5718L522.9818,328.5718L536.8909,328.5718L550.8000,328.5718"/>
   <path d="M91.8000,320.7002L105.7091,320.7002L119.6182,320.7002L133.5273,320.7002L147.4364,320.7002L161.3455,320.7002L175.2545,320.7002L189.1636,320.7002L203.0727,320.7002L216.9818,320.7002
            L230.8909,320.7002L244.8000,320.7002L258.7091,320.7002L272.6182,320.7002L286.5273,320.7002L300.4364,320.7002L314.3455,320.7002L328.2545,320.7002L342.1636,320.7002L356.0727,320.7002
            L369.9818,320.7002L383.8909,320.7002L397.8000,320.7002L411.7091,320.7002L425.6182,320.7002L439.5273,320.7002L453.4364,320.7002L467.3455,320.7002L481.2545,320.7002L495.1636,320.7002
            L509.0727,320.7002L522.9818,320.7002L536.8909,320.7002L550.8000,320.7002"/>
   <path d="M91.8000,327.6715L105.7091,327.6715L119.6182,327.6715L133.5273,327.6715L147.4364,327.6715L161.3455,327.6715L175.2545,327.6715L189.1636,327.6715L203.0727,327.6715L216.9818,327.6715
            L230.8909,327.6715L244.8000,327.6715L258.7091,327.6715L272.6182,327.6715L286.5273,327.6715L300.4364,327.6715L314.3455,327.6715L328.2545,327.6715L342.1636,327.6715L356.0727,327.6715
            L369.9818,327.6715L383.8909,327.6715L397.8000,327.6715L411.7091,327.6715L425.6182,327.6715L439.5273,327.6715L453.4364,327.6715L467.3455,327.6715L481.2545,327.6715L495.1636,327.6715
            L509.0727,327.6715L522.9818,327.6715L536.8909,327.6715L550.8000,327.6715"/>
   <path d="M91.8000,331.2186L105.7091,331.2186L119.6182,331.2186L133.5273,331.2186L147.4364,331.2186L161.3455,331.2186L175.2545,331.2186L189.1636,331.2186L203.0727,331.2186L216.9818,331.2186
            L230.8909,331.2186L244.8000,331.2186L258.7091,331.2186L272.6182,331.2186L286.5273,331.2186L300.4364,331.2186L314.3455,331.2186L328.2545,331.2186L342.1636,331.2186L356.0727,331.2186
            L369.9818,331.2186L383.8909,331.2186L397.8000,331.2186L411.7091,331.2186L425.6182,331.2186L439.5273,331.2186L453.4364,331.2186L467.3455,331.2186L481.2545,331.2186L495.1636,331.2186
            L509.0727,331.2186L522.9818,331.2186L536.8909,331.2186L550.8000,331.2186"/>
   <path d="M91.8000,323.2231L105.7091,323.2231L119.6182,323.2231L133.5273,323.2231L147.4364,323.2231L161.3455,323.2231L175.2545,323.2231L189.1636,323.2231L203.0727,323.2231L216.9818,323.2231
            L230.8909,323.2231L244.8000,323.2231L258.7091,323.2231L272.6182,323.2231L286.5273,323.2231L300.4364,323.2231L314.3455,323.2231L328.2545,323.2231L342.1636,323.2231L356.0727,323.2231
            L369.9818,323.2231L383.8909,323.2231L397.8000,323.2231L411.7091,323.2231L425.6182,323.2231L439.5273,323.2231L453.4364,323.2231L467.3455,323.2231L481.2545,323.2231L495.1636,323.2231
            L509.0727,323.2231L522.9818,323.2231L536.8909,323.2231L550.8000,323.2231"/>
   <path d="M91.8000,326.3237L105.7091,326.3237L119.6182,326.3237L133.5273,326.3237L147.4364,326.3237L161.3455,326.3237L175.2545,326.3237L189.1636,326.3237L203.0727,326.3237L216.9818,326.3237
            L230.8909,326.3237L244.8000,326.3237L258.7091,326.3237L272.6182,326.3237L286.5273,326.3237L300.4364,326.3237L314.3455,326.3237L328.2545,326.3237L342.1636,326.3237L356.0727,326.3237
            L369.9818,326.3237L383.8909,326.3237L397.8000,326.3237L411.7091,326.3237L425.6182,326.3237L439.5273,326.3237L453.4364,326.3237L467.3455,326.3237L481.2545,326.3237L495.1636,326.3237
            L509.0727,326.3237L522.9818,326.3237L536.8909,326.3237L550.8000,326.3237"/>
   <path d="M91.8000,314.1972L105.7091,314.1972L119.6182,314.1972L133.5273,314.1972L147.4364,314.1972L161.3455,314.1972L175.2545,314.1972L189.1636,314.1972L203.0727,314.1972L216.9818,314.1972
            L230.8909,314.1972L244.8000,314.1972L258.7091,314.1972L272.6182,314.1972L286.5273,314.1972L300.4364,314.1972L314.3455,314.1972L328.2545,314.1972L342.1636,314.1972L356.0727,314.1972
            L369.9818,314.1972L383.8909,314.1972L397.8000,314.1972L411.7091,314.1972L425.6182,314.1972L439.5273,314.1972L453.4364,314.1972L467.3455,314.1972L481.2545,314.1972L495.1636,314.1972
            L509.0727,314.1972L522.9818,314.1972L536.8909,314.1972L550.8000,314.1972"/>
   <path d="M91.8000,332.0757L105.7091,332.0757L119.6182,332.0757L133.5273,332.0757L147.4364,332.0757L161.3455,332.0757L175.2545,332.0757L189.1636,332.0757L203.0727,332.0757L216.9818,332.0757
            L230.8909,332.0757L244.8000,332.0757L258.7091,332.0757L272.6182,332.0757L286.5273,332.0757L300.4364,332.0757L314.3455,332.0757L328.2545,332.0757L342.1636,332.0757L356.0727,332.0757
            L369.9818,332.0757L383.8909,332.0757L397.8000,332.0757L411.7091,332.0757L425.6182,332.0757L439.5273,332.0757L453.4364,332.0757L467.3455,332.0757L481.2545,332.0757L495.1636,332.0757
            L509.0727,332.0757L522.9818,332.0757L536.8909,332.0757L550.8000,332.0757"/>
   <path d="M91.8000,327.0706L105.7091,327.0706L119.6182,327.0706L133.5273,327.0706L147.4364,327.0706L161.3455,327.0706L175.2545,327.0706L189.1636,327.0706L203.0727,327.0706L216.9818,327.0706
            L230.8909,327.0706L244.8000,327.0706L258.7091,327.0706L272.6182,327.0706L286.5273,327.0706L300.4364,327.0706L314.3455,327.0706L328.2545,327.0706L342.1636,327.0706L356.0727,327.0706
            L369.9818,327.0706L383.8909,327.0706L397.8000,327.0706L411.7091,327.0706L425.6182,327.0706L439.5273,327.0706L453.4364,327.0706L467.3455,327.0706L481.2545,327.0706L495.1636,327.0706
            L509.0727,327.0706L522.9818,327.0706L536.8909,327.0706L550.8000,327.0706"/>
   <path d="M91.8000,303.6322L105.7091,303.6322L119.6182,303.6322L133.5273,303.6322L147.4364,303.6322L161.3455,303.6322L175.2545,303.6322L189.1636,303.6322L203.0727,303.6322L216.9818,303.6322
            L230.8909,303.6322L244.8000,303.6322L258.7091,303.6322L272.6182,303.6322L286.5273,303.6322L300.4364,303.6322L314.3455,303.6322L328.2545,303.6322L342.1636,303.6322L356.0727,303.6322
            L369.9818,303.6322L383.8909,303.6322L397.8000,303.6322L411.7091,303.6322L425.6182,303.6322L439.5273,303.6322L453.4364,303.6322L467.3455,303.6322L481.2545,303.6322L495.1636,303.6322
            L509.0727,303.6322L522.9818,303.6322L536.8909,303.6322L550.8000,303.6322"/>
   <path d="M91.8000,332.6503L105.7091,332.6503L119.6182,332.6503L133.5273,332.6503L147.4364,332.6503L161.3455,332.6503L175.2545,332.6503L189.1636,332.6503L203.0727,332.6503L216.9818,332.6503
            L230.8909,332.6503L244.8000,332.6503L258.7091,332.6503L272.6182,332.6503L286.5273,332.6503L300.4364,332.6503L314.3455,332.6503L328.2545,332.6503L342.1636,332.6503L356.0727,332.6503
            L369.9818,332.6503L383.8909,332.6503L397.8000,332.6503L411.7091,332.6503L425.6182,332.6503L439.5273,332.6503L453.4364,332.6503L467.3455,332.6503L481.2545,332.6503L495.1636,332.6503
            L509.0727,332.6503L522.9818,332.6503L536.8909,332.6503L550.8000,332.6503"/>
   <path d="M91.8000,324.2034L105.7091,324.2034L119.6182,324.2034L133.5273,324.2034L147.4364,324.2034L161.3455,324.2034L175.2545,324.2034L189.1636,324.2034L203.0727,324.2034L216.9818,324.2034
            L230.8909,324.2034L244.8000,324.2034L258.7091,324.2034L272.6182,324.2034L286.5273,324.2034L300.4364,324.2034L314.3455,324.2034L328.2545,324.2034L342.1636,324.2034L356.0727,324.2034
            L369.9818,324.2034L383.8909,324.2034L397.8000,324.2034L411.7091,324.2034L425.6182,324.2034L439.5273,324.2034L453.4364,324.2034L467.3455,324.2034L481.2545,324.2034L495.1636,324.2034
            L509.0727,324.2034L522.9818,324.2034L536.8909,324.2034L550.8000,324.2034"/>
   <path d="M91.8000,327.2829L105.7091,327.2829L119.6182,327.2829L133.5273,327.2829L147.4364,327.2829L161.3455,327.2829L175.2545,327.2829L189.1636,327.2829L203.0727,327.2829L216.9818,327.2829
            L230.8909,327.2829L244.8000,327.2829L258.7091,327.2829L272.6182,327.2829L286.5273,327.2829L300.4364,327.2829L314.3455,327.2829L328.2545,327.2829L342.1636,327.2829L356.0727,327.2829
            L369.9818,327.2829L383.8909,327.2829L397.8000,327.2829L411.7091,327.2829L425.6182,327.2829L439.5273,327.2829L453.4364,327.2829L467.3455,327.2829L481.2545,327.2829L495.1636,327.2829
            L509.0727,327.2829L522.9818,327.2829L536.8909,327.2829L550.8000,327.2829"/>
   <path d="M91.8000,326.8587L105.7091,326.8587L119.6182,326.8587L133.5273,326.8587L147.4364,326.8587L161.3455,326.8587L175.2545,326.8587L189.1636,326.8587L203.0727,326.8587L216.9818,326.8587
            L230.8909,326.8587L244.8000,326.8587L258.7091,326.8587L272.6182,326.8587L286.5273,326.8587L300.4364,326.8587L314.3455,326.8587L328.2545,326.8587L342.1636,326.8587L356.0727,326.8587
            L369.9818,326.8587L383.8909,326.8587L397.8000,326.8587L411.7091,326.8587L425.6182,326.8587L439.5273,326.8587L453.4364,326.8587L467.3455,326.8587L481.2545,326.8587L495.1636,326.8587
            L509.0727,326.8587L522.9818,326.8587L536.8909,326.8587L550.8000,326.8587"/>
   <path d="M91.8000,328.7985L105.7091,328.7985L119.6182,328.7985L133.5273,328.7985L147.4364,328.7985L161.3455,328.7985L175.2545,328.7985L189.1636,328.7985L203.0727,328.7985L216.9818,328.7985
            L230.8909,328.7985L244.8000,328.7985L258.7091,328.7985L272.6182,328.7985L286.5273,328.7985L300.4364,328.7985L314.3455,328.7985L328.2545,328.7985L342.1636,328.7985L356.0727,328.7985
            L369.9818,328.7985L383.8909,328.7985L397.8000,328.7985L411.7091,328.7985L425.6182,328.7985L439.5273,328.7985L453.4364,328.7985L467.3455,328.7985L481.2545,328.7985L495.1636,328.7985
            L509.0727,328.7985L522.9818,328.7985L536.8909,328.7985L550.8000,328.7985"/>
   <path d="M91.8000,327.3940L105.7091,327.3940L119.6182,327.3940L133.5273,327.3940L147.4364,327.3940L161.3455,327.3940L175.2545,327.3940L189.1636,327.3940L203.0727,327.3940L216.9818,327.3940
            L230.8909,327.3940L244.8000,327.3940L258.7091,327.3940L272.6182,327.3940L286.5273,327.3940L300.4364,327.3940L314.3455,327.3940L328.2545,327.3940L342.1636,327.3940L356.0727,327.3940
            L369.9818,327.3940L383.8909,327.3940L397.8000,327.3940L411.7091,327.3940L425.6182,327.3940L439.5273,327.3940L453.4364,327.3940L467.3455,327.3940L481.2545,327.3940L495.1636,327.3940
            L509.0727,327.3940L522.9818,327.3940L536.8909,327.3940L550.8000,327.3940"/>
   <path d="M91.8000,334.0799L105.7091,334.0799L119.6182,334.0799L133.5273,334.0799L147.4364,334.0799L161.3455,334.0799L175.2545,334.0799L189.1636,334.0799L203.0727,334.0799L216.9818,334.0799
            L230.8909,334.0799L244.8000,334.0799L258.7091,334.0799L272.6182,334.0799L286.5273,334.0799L300.4364,334.0799L314.3455,334.0799L328.2545,334.0799L342.1636,334.0799L356.0727,334.0799
            L369.9818,334.0799L383.8909,334.0799L397.8000,334.0799L411.7091,334.0799L425.6182,334.0799L439.5273,334.0799L453.4364,334.0799L467.3455,334.0799L481.2545,334.0799L495.1636,334.0799
            L509.0727,334.0799L522.9818,334.0799L536.8909,334.0799L550.8000,334.0799"/>
   <path d="M91.8000,91.8000L550.8000,91.8000"/>
   <path d="M91.8000,550.8000L550.8000,550.8000"/>
   <path d="M133.5273,91.8000L133.5273,104.0400"/>
   <path d="M133.5273,550.8000L133.5273,538.5600"/>
   <path d="M272.6182,91.8000L272.6182,104.0400"/>
   <path d="M272.6182,550.8000L272.6182,538.5600"/>
   <path d="M411.7091,91.8000L411.7091,104.0400"/>
   <path d="M411.7091,550.8000L411.7091,538.5600"/>
   <path d="M550.8000,91.8000L550.8000,104.0400"/>
   <path d="M550.8000,550.8000L550.8000,538.5600"/>
  </g>
  <g style="fill:#000000; fill-rule:nonzero">
   <text   style="font-family:'Times','Nimbus Roman'; font-style:normal; font-weight:normal; font-size:612.0000" transform="matrix(0.0280,0.0000,-0.0000,-0.0280,118.0273,74.6800)">-300</text>
   <text   style="font-family:'Times','Nimbus Roman'; font-style:normal; font-weight:normal; font-size:612.0000" transform="matrix(0.0280,0.0000,-0.0000,-0.0280,257.1182,74.6800)">-200</text>
   <text   style="font-family:'Times','Nimbus Roman'; font-style:normal; font-weight:normal; font-size:612.0000" transform="matrix(0.0280,0.0000,-0.0000,-0.0280,396.2091,73.6800)">-100</text>
   <text   style="font-family:'Times','Nimbus Roman'; font-style:normal; font-weight:normal; font-size:612.0000" transform="matrix(0.0280,0.0000,-0.0000,-0.0280,546.8000,74.6800)">0</text>
  </g>
  <g style="fill:none; stroke:#000000; stroke-width:  0.9180; stroke-linecap:butt; stroke-linejoin:miter; stroke-dasharray:none">
   <path d="M91.8000,91.8000L91.8000,550.8000"/>
   <path d="M550.8000,91.8000L550.8000,550.8000"/>
   <path d="M91.8000,91.8000L104.0400,91.8000"/>
   <path d="M550.8000,91.8000L538.5600,91.8000"/>
   <path d="M91.8000,206.5500L104.0400,206.5500"/>
   <path d="M550.8000,206.5500L538.5600,206.5500"/>
   <path d="M91.8000,321.3000L104.0400,321.3000"/>
   <path d="M550.8000,321.3000L538.5600,321.3000"/>
   <path d="M91.8000,436.0500L104.0400,436.0500"/>
   <path d="M550.8000,436.0500L538.5600,436.0500"/>
   <path d="M91.8000,550.8000L104.0400,550.8000"/>
   <path d="M550.8000,550.8000L538.5600,550.8000"/>
  </g>
  <g style="fill:#000000; fill-rule:nonzero">
   <text   style="font-family:'Times','Nimbus Roman'; font-style:normal; font-weight:normal; font-size:612.0000" transform="matrix(0.0280,0.0000,-0.0000,-0.0280,64.6800,86.3000)">0.9</text>
   <text   style="font-family:'Times','Nimbus Roman'; font-style:normal; font-weight:normal; font-size:612.0000" transform="matrix(0.0280,0.0000,-0.0000,-0.0280,56.6800,200.5500)">0.95</text>
   <text   style="font-family:'Times','Nimbus Roman'; font-style:normal; font-weight:normal; font-size:612.0000" transform="matrix(0.0280,0.0000,-0.0000,-0.0280,78.6800,315.3000)">1</text>
   <text   style="font-family:'Times','Nimbus Roman'; font-style:normal; font-weight:normal; font-size:612.0000" transform="matrix(0.0280,0.0000,-0.0000,-0.0280,56.6800,430.0500)">1.05</text>
   <text   style="font-family:'Times','Nimbus Roman'; font-style:normal; font-weight:normal; font-size:612.0000" transform="matrix(0.0280,0.0000,-0.0000,-0.0280,65.6800,544.8000)">1.1</text>
  </g>
  <g style="fill:none; stroke:#000000; stroke-width:  0.9180; stroke-linecap:butt; stroke-linejoin:miter; stroke-dasharray:none">
   <path d="M91.8000,91.8000L91.8000,550.8000L550.8000,550.8000L550.8000,91.8000z"/>
  </g>
 </g>
</svg>
