<?xml version="1.0" encoding="ISO-8859-1"?>
<!DOCTYPE svg PUBLIC "-//W3C//DTD SVG 1.0//EN" "http://www.w3.org/TR/2001/REC-SVG-20010904/DTD/svg10.dtd">
<!-- generated by Grace-5.1.25 -->
<svg xml:space="preserve" width="11.0000in" height="8.5000in" viewBox="0.0000 0.0000 792.0000 612.0000">
 <g transform="translate(0,612.0000) scale(1,-1)">
  <g style="fill:#FFFFFF; fill-rule:nonzero">
   <path  d="M0.0000,0.0000L0.0000,612.0000L792.0000,612.0000L792.0000,0.0000z"/>
  </g>
  <g style="fill:none; stroke:#000000; stroke-width:  0.9180; stroke-linecap:butt; stroke-linejoin:miter; stroke-dasharray:none">
   <ellipse  rx="6.1200" ry="6.1200" cx="578.7711" cy="120.2237"/>
   <ellipse  rx="6.1200" ry="6.1200" cx="498.5944" cy="169.2047"/>
   <ellipse  rx="6.1200" ry="6.1200" cx="389.5631" cy="106.7190"/>
   <ellipse  rx="6.1200" ry="6.1200" cx="495.9041" cy="97.3042"/>
   <ellipse  rx="6.1200" ry="6.1200" cx="164.7391" cy="112.7800"/>
   <ellipse  rx="6.1200" ry="6.1200" cx="450.3796" cy="99.3759"/>
   <ellipse  rx="6.1200" ry="6.1200" cx="659.5737" cy="93.8553"/>
   <ellipse  rx="6.1200" ry="6.1200" cx="654.8129" cy="176.9861"/>
   <ellipse  rx="6.1200" ry="6.1200" cx="625.3438" cy="111.8377"/>
   <ellipse  rx="6.1200" ry="6.1200" cx="476.2912" cy="127.2771"/>
   <ellipse  rx="6.1200" ry="6.1200" cx="632.6983" cy="102.4939"/>
   <ellipse  rx="6.1200" ry="6.1200" cx="608.3108" cy="95.9288"/>
   <ellipse  rx="6.1200" ry="6.1200" cx="459.8026" cy="485.1470"/>
   <ellipse  rx="6.1200" ry="6.1200" cx="588.5563" cy="131.2924"/>
   <ellipse  rx="6.1200" ry="6.1200" cx="439.8543" cy="95.3317"/>
   <ellipse  rx="6.1200" ry="6.1200" cx="594.6003" cy="95.8076"/>
   <ellipse  rx="6.1200" ry="6.1200" cx="208.9013" cy="220.3411"/>
   <ellipse  rx="6.1200" ry="6.1200" cx="520.2360" cy="168.1656"/>
   <ellipse  rx="6.1200" ry="6.1200" cx="245.1686" cy="439.7079"/>
   <ellipse  rx="6.1200" ry="6.1200" cx="283.8593" cy="93.0233"/>
   <ellipse  rx="6.1200" ry="6.1200" cx="457.5585" cy="288.6680"/>
   <ellipse  rx="6.1200" ry="6.1200" cx="410.7092" cy="327.6186"/>
   <ellipse  rx="6.1200" ry="6.1200" cx="677.2132" cy="109.4136"/>
   <ellipse  rx="6.1200" ry="6.1200" cx="568.1813" cy="102.5713"/>
   <ellipse  rx="6.1200" ry="6.1200" cx="529.8931" cy="152.5886"/>
   <ellipse  rx="6.1200" ry="6.1200" cx="408.2511" cy="462.8625"/>
   <ellipse  rx="6.1200" ry="6.1200" cx="537.5175" cy="98.8004"/>
   <ellipse  rx="6.1200" ry="6.1200" cx="148.5029" cy="237.8845"/>
   <ellipse  rx="6.1200" ry="6.1200" cx="580.6800" cy="152.4923"/>
   <ellipse  rx="6.1200" ry="6.1200" cx="444.2687" cy="164.7706"/>
   <ellipse  rx="6.1200" ry="6.1200" cx="595.1540" cy="106.8893"/>
   <ellipse  rx="6.1200" ry="6.1200" cx="625.1320" cy="254.2296"/>
   <ellipse  rx="6.1200" ry="6.1200" cx="577.3317" cy="265.1379"/>
   <ellipse  rx="6.1200" ry="6.1200" cx="401.0393" cy="112.7853"/>
   <ellipse  rx="6.1200" ry="6.1200" cx="466.0723" cy="322.1566"/>
   <ellipse  rx="6.1200" ry="6.1200" cx="322.2808" cy="125.4953"/>
   <ellipse  rx="6.1200" ry="6.1200" cx="439.9480" cy="93.1725"/>
   <ellipse  rx="6.1200" ry="6.1200" cx="511.6018" cy="400.0532"/>
   <ellipse  rx="6.1200" ry="6.1200" cx="555.6980" cy="219.8171"/>
   <ellipse  rx="6.1200" ry="6.1200" cx="621.5653" cy="300.9061"/>
   <ellipse  rx="6.1200" ry="6.1200" cx="432.3828" cy="157.8889"/>
   <ellipse  rx="6.1200" ry="6.1200" cx="528.3206" cy="103.5767"/>
   <ellipse  rx="6.1200" ry="6.1200" cx="609.4363" cy="105.2976"/>
   <ellipse  rx="6.1200" ry="6.1200" cx="388.4059" cy="114.1617"/>
   <ellipse  rx="6.1200" ry="6.1200" cx="534.3578" cy="104.9812"/>
   <ellipse  rx="6.1200" ry="6.1200" cx="604.7477" cy="175.8269"/>
   <ellipse  rx="6.1200" ry="6.1200" cx="553.2718" cy="94.1678"/>
   <ellipse  rx="6.1200" ry="6.1200" cx="566.3815" cy="107.8530"/>
   <ellipse  rx="6.1200" ry="6.1200" cx="308.8658" cy="100.8452"/>
   <ellipse  rx="6.1200" ry="6.1200" cx="539.1672" cy="119.9298"/>
   <ellipse  rx="6.1200" ry="6.1200" cx="414.1161" cy="107.4492"/>
   <ellipse  rx="6.1200" ry="6.1200" cx="295.8972" cy="146.2892"/>
   <ellipse  rx="6.1200" ry="6.1200" cx="647.3289" cy="97.3671"/>
   <ellipse  rx="6.1200" ry="6.1200" cx="303.6880" cy="119.8267"/>
   <ellipse  rx="6.1200" ry="6.1200" cx="308.7658" cy="101.6323"/>
   <ellipse  rx="6.1200" ry="6.1200" cx="352.3830" cy="227.7335"/>
   <ellipse  rx="6.1200" ry="6.1200" cx="547.8707" cy="98.5402"/>
   <ellipse  rx="6.1200" ry="6.1200" cx="287.0392" cy="98.8194"/>
   <ellipse  rx="6.1200" ry="6.1200" cx="286.8779" cy="92.8089"/>
   <ellipse  rx="6.1200" ry="6.1200" cx="286.8231" cy="93.8430"/>
   <ellipse  rx="6.1200" ry="6.1200" cx="454.2123" cy="176.0932"/>
   <ellipse  rx="6.1200" ry="6.1200" cx="413.2502" cy="95.7089"/>
   <ellipse  rx="6.1200" ry="6.1200" cx="330.0862" cy="109.0101"/>
   <ellipse  rx="6.1200" ry="6.1200" cx="359.8184" cy="100.3272"/>
   <ellipse  rx="6.1200" ry="6.1200" cx="350.9266" cy="117.0457"/>
   <ellipse  rx="6.1200" ry="6.1200" cx="282.1317" cy="102.0501"/>
   <ellipse  rx="6.1200" ry="6.1200" cx="660.6707" cy="106.8199"/>
   <ellipse  rx="6.1200" ry="6.1200" cx="181.0963" cy="229.2362"/>
   <ellipse  rx="6.1200" ry="6.1200" cx="365.9432" cy="92.1710"/>
   <ellipse  rx="6.1200" ry="6.1200" cx="462.5646" cy="470.6908"/>
   <ellipse  rx="6.1200" ry="6.1200" cx="457.4060" cy="106.3825"/>
   <ellipse  rx="6.1200" ry="6.1200" cx="461.0812" cy="261.8146"/>
   <ellipse  rx="6.1200" ry="6.1200" cx="274.6199" cy="99.8376"/>
   <ellipse  rx="6.1200" ry="6.1200" cx="451.0986" cy="114.4522"/>
   <ellipse  rx="6.1200" ry="6.1200" cx="335.3567" cy="109.0169"/>
   <ellipse  rx="6.1200" ry="6.1200" cx="526.1128" cy="334.1344"/>
   <ellipse  rx="6.1200" ry="6.1200" cx="345.7461" cy="241.2139"/>
   <ellipse  rx="6.1200" ry="6.1200" cx="544.2808" cy="99.1349"/>
   <ellipse  rx="6.1200" ry="6.1200" cx="268.1081" cy="247.7014"/>
   <ellipse  rx="6.1200" ry="6.1200" cx="281.2784" cy="133.6561"/>
   <ellipse  rx="6.1200" ry="6.1200" cx="700.7651" cy="109.4122"/>
   <ellipse  rx="6.1200" ry="6.1200" cx="565.1290" cy="95.1827"/>
   <ellipse  rx="6.1200" ry="6.1200" cx="577.6496" cy="265.1379"/>
   <ellipse  rx="6.1200" ry="6.1200" cx="579.8035" cy="95.8544"/>
   <path d="M91.8000,91.8000L91.8000,520.2000L703.8000,520.2000L703.8000,91.8000z"/>
  </g>
 </g>
</svg>
