<?xml version="1.0" encoding="ISO-8859-1"?>
<!DOCTYPE svg PUBLIC "-//W3C//DTD SVG 1.0//EN" "http://www.w3.org/TR/2001/REC-SVG-20010904/DTD/svg10.dtd">
<!-- generated by Grace-5.1.25 -->
<svg xml:space="preserve" width="11.0000in" height="8.5000in" viewBox="0.0000 0.0000 792.0000 612.0000">
 <g transform="translate(0,612.0000) scale(1,-1)">
  <g style="fill:#FFFFFF; fill-rule:nonzero">
   <path  d="M0.0000,0.0000L0.0000,612.0000L792.0000,612.0000L792.0000,0.0000z"/>
  </g>
  <g style="fill:none; stroke:#000000; stroke-width:  0.9180; stroke-linecap:butt; stroke-linejoin:miter; stroke-dasharray:none">
   <ellipse  rx="6.1200" ry="6.1200" cx="334.9392" cy="120.2237"/>
   <ellipse  rx="6.1200" ry="6.1200" cx="307.4435" cy="169.2047"/>
   <ellipse  rx="6.1200" ry="6.1200" cx="425.4975" cy="106.7190"/>
   <ellipse  rx="6.1200" ry="6.1200" cx="257.4726" cy="97.3042"/>
   <ellipse  rx="6.1200" ry="6.1200" cx="397.6118" cy="112.7800"/>
   <ellipse  rx="6.1200" ry="6.1200" cx="399.4838" cy="99.3759"/>
   <ellipse  rx="6.1200" ry="6.1200" cx="315.8711" cy="93.8553"/>
   <ellipse  rx="6.1200" ry="6.1200" cx="361.8409" cy="176.9861"/>
   <ellipse  rx="6.1200" ry="6.1200" cx="303.8143" cy="111.8377"/>
   <ellipse  rx="6.1200" ry="6.1200" cx="407.3165" cy="127.2771"/>
   <ellipse  rx="6.1200" ry="6.1200" cx="315.2412" cy="102.4939"/>
   <ellipse  rx="6.1200" ry="6.1200" cx="349.5861" cy="95.9288"/>
   <ellipse  rx="6.1200" ry="6.1200" cx="335.5096" cy="485.1470"/>
   <ellipse  rx="6.1200" ry="6.1200" cx="315.0200" cy="131.2924"/>
   <ellipse  rx="6.1200" ry="6.1200" cx="310.2906" cy="95.3317"/>
   <ellipse  rx="6.1200" ry="6.1200" cx="431.7466" cy="95.8076"/>
   <ellipse  rx="6.1200" ry="6.1200" cx="314.3377" cy="220.3411"/>
   <ellipse  rx="6.1200" ry="6.1200" cx="319.2712" cy="168.1656"/>
   <ellipse  rx="6.1200" ry="6.1200" cx="266.6820" cy="439.7079"/>
   <ellipse  rx="6.1200" ry="6.1200" cx="265.7831" cy="93.0233"/>
   <ellipse  rx="6.1200" ry="6.1200" cx="305.0437" cy="288.6680"/>
   <ellipse  rx="6.1200" ry="6.1200" cx="272.6134" cy="327.6186"/>
   <ellipse  rx="6.1200" ry="6.1200" cx="392.7288" cy="109.4136"/>
   <ellipse  rx="6.1200" ry="6.1200" cx="450.6382" cy="102.5713"/>
   <ellipse  rx="6.1200" ry="6.1200" cx="391.1127" cy="152.5886"/>
   <ellipse  rx="6.1200" ry="6.1200" cx="305.6361" cy="462.8625"/>
   <ellipse  rx="6.1200" ry="6.1200" cx="409.4983" cy="98.8004"/>
   <ellipse  rx="6.1200" ry="6.1200" cx="242.9070" cy="237.8845"/>
   <ellipse  rx="6.1200" ry="6.1200" cx="268.2828" cy="152.4923"/>
   <ellipse  rx="6.1200" ry="6.1200" cx="368.5559" cy="164.7706"/>
   <ellipse  rx="6.1200" ry="6.1200" cx="528.1940" cy="106.8893"/>
   <ellipse  rx="6.1200" ry="6.1200" cx="280.9680" cy="254.2296"/>
   <ellipse  rx="6.1200" ry="6.1200" cx="211.7449" cy="265.1379"/>
   <ellipse  rx="6.1200" ry="6.1200" cx="264.8727" cy="112.7853"/>
   <ellipse  rx="6.1200" ry="6.1200" cx="402.1506" cy="322.1566"/>
   <ellipse  rx="6.1200" ry="6.1200" cx="395.2890" cy="125.4953"/>
   <ellipse  rx="6.1200" ry="6.1200" cx="340.1723" cy="93.1725"/>
   <ellipse  rx="6.1200" ry="6.1200" cx="393.7813" cy="400.0532"/>
   <ellipse  rx="6.1200" ry="6.1200" cx="275.0917" cy="219.8171"/>
   <ellipse  rx="6.1200" ry="6.1200" cx="328.4173" cy="300.9061"/>
   <ellipse  rx="6.1200" ry="6.1200" cx="275.0915" cy="157.8889"/>
   <ellipse  rx="6.1200" ry="6.1200" cx="330.7542" cy="103.5767"/>
   <ellipse  rx="6.1200" ry="6.1200" cx="688.1677" cy="105.2976"/>
   <ellipse  rx="6.1200" ry="6.1200" cx="240.8123" cy="114.1617"/>
   <ellipse  rx="6.1200" ry="6.1200" cx="345.7447" cy="104.9812"/>
   <ellipse  rx="6.1200" ry="6.1200" cx="281.3129" cy="175.8269"/>
   <ellipse  rx="6.1200" ry="6.1200" cx="319.0413" cy="94.1678"/>
   <ellipse  rx="6.1200" ry="6.1200" cx="342.2311" cy="107.8530"/>
   <ellipse  rx="6.1200" ry="6.1200" cx="261.7624" cy="100.8452"/>
   <ellipse  rx="6.1200" ry="6.1200" cx="283.9021" cy="119.9298"/>
   <ellipse  rx="6.1200" ry="6.1200" cx="386.5480" cy="107.4492"/>
   <ellipse  rx="6.1200" ry="6.1200" cx="343.1922" cy="146.2892"/>
   <ellipse  rx="6.1200" ry="6.1200" cx="523.3070" cy="97.3671"/>
   <ellipse  rx="6.1200" ry="6.1200" cx="339.8534" cy="119.8267"/>
   <ellipse  rx="6.1200" ry="6.1200" cx="258.4932" cy="101.6323"/>
   <ellipse  rx="6.1200" ry="6.1200" cx="455.1479" cy="227.7335"/>
   <ellipse  rx="6.1200" ry="6.1200" cx="391.7174" cy="98.5402"/>
   <ellipse  rx="6.1200" ry="6.1200" cx="245.3121" cy="98.8194"/>
   <ellipse  rx="6.1200" ry="6.1200" cx="346.8580" cy="92.8089"/>
   <ellipse  rx="6.1200" ry="6.1200" cx="551.5165" cy="93.8430"/>
   <ellipse  rx="6.1200" ry="6.1200" cx="549.7549" cy="176.0932"/>
   <ellipse  rx="6.1200" ry="6.1200" cx="484.0362" cy="95.7089"/>
   <ellipse  rx="6.1200" ry="6.1200" cx="245.4736" cy="109.0101"/>
   <ellipse  rx="6.1200" ry="6.1200" cx="270.1353" cy="100.3272"/>
   <ellipse  rx="6.1200" ry="6.1200" cx="485.2016" cy="117.0457"/>
   <ellipse  rx="6.1200" ry="6.1200" cx="358.8127" cy="102.0501"/>
   <ellipse  rx="6.1200" ry="6.1200" cx="362.0640" cy="106.8199"/>
   <ellipse  rx="6.1200" ry="6.1200" cx="426.2991" cy="229.2362"/>
   <ellipse  rx="6.1200" ry="6.1200" cx="508.3718" cy="92.1710"/>
   <ellipse  rx="6.1200" ry="6.1200" cx="181.2479" cy="470.6908"/>
   <ellipse  rx="6.1200" ry="6.1200" cx="381.3172" cy="106.3825"/>
   <ellipse  rx="6.1200" ry="6.1200" cx="227.0158" cy="261.8146"/>
   <ellipse  rx="6.1200" ry="6.1200" cx="296.7782" cy="99.8376"/>
   <ellipse  rx="6.1200" ry="6.1200" cx="239.1643" cy="114.4522"/>
   <ellipse  rx="6.1200" ry="6.1200" cx="364.3560" cy="109.0169"/>
   <ellipse  rx="6.1200" ry="6.1200" cx="485.7051" cy="334.1344"/>
   <ellipse  rx="6.1200" ry="6.1200" cx="307.4843" cy="241.2139"/>
   <ellipse  rx="6.1200" ry="6.1200" cx="366.9849" cy="99.1349"/>
   <ellipse  rx="6.1200" ry="6.1200" cx="281.7953" cy="247.7014"/>
   <ellipse  rx="6.1200" ry="6.1200" cx="382.6063" cy="133.6561"/>
   <ellipse  rx="6.1200" ry="6.1200" cx="389.2134" cy="109.4122"/>
   <ellipse  rx="6.1200" ry="6.1200" cx="353.0327" cy="95.1827"/>
   <ellipse  rx="6.1200" ry="6.1200" cx="211.7449" cy="265.1379"/>
   <ellipse  rx="6.1200" ry="6.1200" cx="315.6767" cy="95.8544"/>
   <path d="M91.8000,91.8000L91.8000,520.2000L703.8000,520.2000L703.8000,91.8000z"/>
  </g>
 </g>
</svg>
