<?xml version="1.0" encoding="ISO-8859-1"?>
<!DOCTYPE svg PUBLIC "-//W3C//DTD SVG 1.0//EN" "http://www.w3.org/TR/2001/REC-SVG-20010904/DTD/svg10.dtd">
<!-- generated by Grace-5.1.25 -->
<svg xml:space="preserve" width="11.0000in" height="8.5000in" viewBox="0.0000 0.0000 792.0000 612.0000">
 <g transform="translate(0,612.0000) scale(1,-1)">
  <g style="fill:#FFFFFF; fill-rule:nonzero">
   <path  d="M0.0000,0.0000L0.0000,612.0000L792.0000,612.0000L792.0000,0.0000z"/>
  </g>
  <g style="fill:none; stroke:#000000; stroke-width:  0.9180; stroke-linecap:butt; stroke-linejoin:miter; stroke-dasharray:none">
   <ellipse  rx="6.1200" ry="6.1200" cx="120.0384" cy="156.5852"/>
   <ellipse  rx="6.1200" ry="6.1200" cx="132.4425" cy="201.1134"/>
   <ellipse  rx="6.1200" ry="6.1200" cx="120.7605" cy="144.3082"/>
   <ellipse  rx="6.1200" ry="6.1200" cx="111.9731" cy="135.7493"/>
   <ellipse  rx="6.1200" ry="6.1200" cx="120.7463" cy="149.8182"/>
   <ellipse  rx="6.1200" ry="6.1200" cx="118.2665" cy="137.6327"/>
   <ellipse  rx="6.1200" ry="6.1200" cx="111.8055" cy="127.5274"/>
   <ellipse  rx="6.1200" ry="6.1200" cx="113.9182" cy="132.6139"/>
   <ellipse  rx="6.1200" ry="6.1200" cx="138.6090" cy="208.1873"/>
   <ellipse  rx="6.1200" ry="6.1200" cx="116.0113" cy="148.9615"/>
   <ellipse  rx="6.1200" ry="6.1200" cx="125.2202" cy="162.9973"/>
   <ellipse  rx="6.1200" ry="6.1200" cx="112.3957" cy="125.7704"/>
   <ellipse  rx="6.1200" ry="6.1200" cx="115.4266" cy="140.4672"/>
   <ellipse  rx="6.1200" ry="6.1200" cx="110.9997" cy="126.9657"/>
   <ellipse  rx="6.1200" ry="6.1200" cx="115.7703" cy="134.4989"/>
   <ellipse  rx="6.1200" ry="6.1200" cx="645.8110" cy="488.3337"/>
   <ellipse  rx="6.1200" ry="6.1200" cx="119.8665" cy="166.6477"/>
   <ellipse  rx="6.1200" ry="6.1200" cx="113.4249" cy="122.7922"/>
   <ellipse  rx="6.1200" ry="6.1200" cx="113.7497" cy="133.9561"/>
   <ellipse  rx="6.1200" ry="6.1200" cx="119.4125" cy="134.3887"/>
   <ellipse  rx="6.1200" ry="6.1200" cx="153.3829" cy="247.6010"/>
   <ellipse  rx="6.1200" ry="6.1200" cx="131.7747" cy="200.1688"/>
   <ellipse  rx="6.1200" ry="6.1200" cx="109.7476" cy="111.6224"/>
   <ellipse  rx="6.1200" ry="6.1200" cx="417.2968" cy="447.0254"/>
   <ellipse  rx="6.1200" ry="6.1200" cx="111.5426" cy="131.8575"/>
   <ellipse  rx="6.1200" ry="6.1200" cx="112.4932" cy="126.5543"/>
   <ellipse  rx="6.1200" ry="6.1200" cx="196.5284" cy="309.7164"/>
   <ellipse  rx="6.1200" ry="6.1200" cx="113.1897" cy="129.3233"/>
   <ellipse  rx="6.1200" ry="6.1200" cx="228.8179" cy="345.1260"/>
   <ellipse  rx="6.1200" ry="6.1200" cx="119.7662" cy="146.7578"/>
   <ellipse  rx="6.1200" ry="6.1200" cx="122.9849" cy="140.5375"/>
   <ellipse  rx="6.1200" ry="6.1200" cx="112.8959" cy="116.0794"/>
   <ellipse  rx="6.1200" ry="6.1200" cx="132.0110" cy="186.0078"/>
   <ellipse  rx="6.1200" ry="6.1200" cx="111.9550" cy="128.4264"/>
   <ellipse  rx="6.1200" ry="6.1200" cx="109.4828" cy="128.4334"/>
   <ellipse  rx="6.1200" ry="6.1200" cx="521.1951" cy="468.0750"/>
   <ellipse  rx="6.1200" ry="6.1200" cx="118.8022" cy="137.1094"/>
   <ellipse  rx="6.1200" ry="6.1200" cx="153.1941" cy="263.5495"/>
   <ellipse  rx="6.1200" ry="6.1200" cx="125.1193" cy="185.9203"/>
   <ellipse  rx="6.1200" ry="6.1200" cx="133.5213" cy="197.0824"/>
   <ellipse  rx="6.1200" ry="6.1200" cx="111.3569" cy="127.0730"/>
   <ellipse  rx="6.1200" ry="6.1200" cx="111.1301" cy="126.9531"/>
   <ellipse  rx="6.1200" ry="6.1200" cx="125.4830" cy="144.4630"/>
   <ellipse  rx="6.1200" ry="6.1200" cx="111.6946" cy="127.3822"/>
   <ellipse  rx="6.1200" ry="6.1200" cx="168.4751" cy="278.4088"/>
   <ellipse  rx="6.1200" ry="6.1200" cx="162.8295" cy="288.3253"/>
   <ellipse  rx="6.1200" ry="6.1200" cx="114.7038" cy="149.8230"/>
   <ellipse  rx="6.1200" ry="6.1200" cx="255.5928" cy="340.1605"/>
   <ellipse  rx="6.1200" ry="6.1200" cx="123.0006" cy="161.3775"/>
   <ellipse  rx="6.1200" ry="6.1200" cx="114.7562" cy="131.9932"/>
   <ellipse  rx="6.1200" ry="6.1200" cx="397.9963" cy="410.9757"/>
   <ellipse  rx="6.1200" ry="6.1200" cx="147.2543" cy="247.1246"/>
   <ellipse  rx="6.1200" ry="6.1200" cx="219.2362" cy="320.8419"/>
   <ellipse  rx="6.1200" ry="6.1200" cx="115.1075" cy="129.6734"/>
   <ellipse  rx="6.1200" ry="6.1200" cx="127.0655" cy="190.8262"/>
   <ellipse  rx="6.1200" ry="6.1200" cx="115.8793" cy="141.4515"/>
   <ellipse  rx="6.1200" ry="6.1200" cx="132.7508" cy="143.0160"/>
   <ellipse  rx="6.1200" ry="6.1200" cx="111.9462" cy="126.9869"/>
   <ellipse  rx="6.1200" ry="6.1200" cx="113.1756" cy="151.0743"/>
   <ellipse  rx="6.1200" ry="6.1200" cx="116.8542" cy="142.7284"/>
   <ellipse  rx="6.1200" ry="6.1200" cx="131.5056" cy="207.1336"/>
   <ellipse  rx="6.1200" ry="6.1200" cx="114.3220" cy="124.6334"/>
   <ellipse  rx="6.1200" ry="6.1200" cx="114.0193" cy="132.8980"/>
   <ellipse  rx="6.1200" ry="6.1200" cx="117.5408" cy="145.3391"/>
   <ellipse  rx="6.1200" ry="6.1200" cx="112.5181" cy="138.9684"/>
   <ellipse  rx="6.1200" ry="6.1200" cx="116.9051" cy="156.3180"/>
   <ellipse  rx="6.1200" ry="6.1200" cx="118.9929" cy="144.9720"/>
   <ellipse  rx="6.1200" ry="6.1200" cx="127.6142" cy="180.2811"/>
   <ellipse  rx="6.1200" ry="6.1200" cx="123.5936" cy="135.8064"/>
   <ellipse  rx="6.1200" ry="6.1200" cx="118.9741" cy="156.2242"/>
   <ellipse  rx="6.1200" ry="6.1200" cx="112.2728" cy="139.6839"/>
   <ellipse  rx="6.1200" ry="6.1200" cx="175.4274" cy="254.3214"/>
   <ellipse  rx="6.1200" ry="6.1200" cx="117.8452" cy="136.8729"/>
   <ellipse  rx="6.1200" ry="6.1200" cx="111.8052" cy="137.1268"/>
   <ellipse  rx="6.1200" ry="6.1200" cx="114.9903" cy="131.6626"/>
   <ellipse  rx="6.1200" ry="6.1200" cx="123.9035" cy="132.6028"/>
   <ellipse  rx="6.1200" ry="6.1200" cx="155.2001" cy="207.3757"/>
   <ellipse  rx="6.1200" ry="6.1200" cx="121.9616" cy="134.2990"/>
   <ellipse  rx="6.1200" ry="6.1200" cx="117.9023" cy="128.1314"/>
   <ellipse  rx="6.1200" ry="6.1200" cx="110.1620" cy="112.4470"/>
   <ellipse  rx="6.1200" ry="6.1200" cx="112.8124" cy="146.3910"/>
   <ellipse  rx="6.1200" ry="6.1200" cx="112.8482" cy="120.5747"/>
   <ellipse  rx="6.1200" ry="6.1200" cx="112.6788" cy="138.4975"/>
   <ellipse  rx="6.1200" ry="6.1200" cx="125.6337" cy="153.6961"/>
   <ellipse  rx="6.1200" ry="6.1200" cx="116.9358" cy="140.0637"/>
   <ellipse  rx="6.1200" ry="6.1200" cx="118.5128" cy="144.3999"/>
   <ellipse  rx="6.1200" ry="6.1200" cx="171.8239" cy="255.6874"/>
   <ellipse  rx="6.1200" ry="6.1200" cx="121.6490" cy="131.0827"/>
   <ellipse  rx="6.1200" ry="6.1200" cx="435.7576" cy="475.1917"/>
   <ellipse  rx="6.1200" ry="6.1200" cx="119.3839" cy="130.2385"/>
   <ellipse  rx="6.1200" ry="6.1200" cx="115.5660" cy="121.4471"/>
   <ellipse  rx="6.1200" ry="6.1200" cx="118.8769" cy="144.0023"/>
   <ellipse  rx="6.1200" ry="6.1200" cx="164.2304" cy="285.3042"/>
   <ellipse  rx="6.1200" ry="6.1200" cx="113.7837" cy="138.0524"/>
   <ellipse  rx="6.1200" ry="6.1200" cx="113.2284" cy="151.3383"/>
   <ellipse  rx="6.1200" ry="6.1200" cx="110.4902" cy="124.8962"/>
   <ellipse  rx="6.1200" ry="6.1200" cx="110.7973" cy="128.3398"/>
   <ellipse  rx="6.1200" ry="6.1200" cx="118.2995" cy="146.3972"/>
   <ellipse  rx="6.1200" ry="6.1200" cx="299.9375" cy="351.0495"/>
   <ellipse  rx="6.1200" ry="6.1200" cx="164.6093" cy="266.5763"/>
   <ellipse  rx="6.1200" ry="6.1200" cx="117.1651" cy="137.4135"/>
   <ellipse  rx="6.1200" ry="6.1200" cx="165.5992" cy="272.4740"/>
   <ellipse  rx="6.1200" ry="6.1200" cx="127.1906" cy="168.7965"/>
   <ellipse  rx="6.1200" ry="6.1200" cx="119.7406" cy="146.7566"/>
   <ellipse  rx="6.1200" ry="6.1200" cx="115.6166" cy="133.8206"/>
   <ellipse  rx="6.1200" ry="6.1200" cx="162.8306" cy="288.3253"/>
   <ellipse  rx="6.1200" ry="6.1200" cx="108.8806" cy="126.0116"/>
   <ellipse  rx="6.1200" ry="6.1200" cx="114.1529" cy="134.4313"/>
   <path d="M91.8000,91.8000L91.8000,520.2000L703.8000,520.2000L703.8000,91.8000z"/>
  </g>
 </g>
</svg>
