<?xml version="1.0" encoding="ISO-8859-1"?>
<!DOCTYPE svg PUBLIC "-//W3C//DTD SVG 1.0//EN" "http://www.w3.org/TR/2001/REC-SVG-20010904/DTD/svg10.dtd">
<!-- generated by Grace-5.1.25 -->
<svg xml:space="preserve" width="11.0000in" height="8.5000in" viewBox="0.0000 0.0000 792.0000 612.0000">
 <g transform="translate(0,612.0000) scale(1,-1)">
  <g style="fill:#FFFFFF; fill-rule:nonzero">
   <path  d="M0.0000,0.0000L0.0000,612.0000L792.0000,612.0000L792.0000,0.0000z"/>
  </g>
  <g style="fill:none; stroke:#000000; stroke-width:  0.9180; stroke-linecap:butt; stroke-linejoin:miter; stroke-dasharray:none">
   <ellipse  rx="6.1200" ry="6.1200" cx="132.1539" cy="156.5852"/>
   <ellipse  rx="6.1200" ry="6.1200" cx="121.5157" cy="201.1134"/>
   <ellipse  rx="6.1200" ry="6.1200" cx="108.9309" cy="144.3082"/>
   <ellipse  rx="6.1200" ry="6.1200" cx="140.6340" cy="135.7493"/>
   <ellipse  rx="6.1200" ry="6.1200" cx="97.4779" cy="149.8182"/>
   <ellipse  rx="6.1200" ry="6.1200" cx="114.9068" cy="137.6327"/>
   <ellipse  rx="6.1200" ry="6.1200" cx="240.4602" cy="208.1873"/>
   <ellipse  rx="6.1200" ry="6.1200" cx="387.2231" cy="148.9615"/>
   <ellipse  rx="6.1200" ry="6.1200" cx="106.2102" cy="162.9973"/>
   <ellipse  rx="6.1200" ry="6.1200" cx="141.8815" cy="125.7704"/>
   <ellipse  rx="6.1200" ry="6.1200" cx="135.2322" cy="488.3337"/>
   <ellipse  rx="6.1200" ry="6.1200" cx="258.1648" cy="122.7922"/>
   <ellipse  rx="6.1200" ry="6.1200" cx="98.8115" cy="247.6010"/>
   <ellipse  rx="6.1200" ry="6.1200" cx="222.7070" cy="200.1688"/>
   <ellipse  rx="6.1200" ry="6.1200" cx="100.1705" cy="111.6224"/>
   <ellipse  rx="6.1200" ry="6.1200" cx="102.7191" cy="447.0254"/>
   <ellipse  rx="6.1200" ry="6.1200" cx="102.0028" cy="131.8575"/>
   <ellipse  rx="6.1200" ry="6.1200" cx="689.0074" cy="126.5543"/>
   <ellipse  rx="6.1200" ry="6.1200" cx="125.8203" cy="309.7164"/>
   <ellipse  rx="6.1200" ry="6.1200" cx="112.3617" cy="345.1260"/>
   <ellipse  rx="6.1200" ry="6.1200" cx="125.2570" cy="140.5375"/>
   <ellipse  rx="6.1200" ry="6.1200" cx="126.0852" cy="116.0794"/>
   <ellipse  rx="6.1200" ry="6.1200" cx="489.1810" cy="128.4264"/>
   <ellipse  rx="6.1200" ry="6.1200" cx="106.1601" cy="128.4334"/>
   <ellipse  rx="6.1200" ry="6.1200" cx="138.1990" cy="468.0750"/>
   <ellipse  rx="6.1200" ry="6.1200" cx="395.6535" cy="137.1094"/>
   <ellipse  rx="6.1200" ry="6.1200" cx="97.9261" cy="263.5495"/>
   <ellipse  rx="6.1200" ry="6.1200" cx="257.8659" cy="185.9203"/>
   <ellipse  rx="6.1200" ry="6.1200" cx="107.0767" cy="127.0730"/>
   <ellipse  rx="6.1200" ry="6.1200" cx="111.5729" cy="126.9531"/>
   <ellipse  rx="6.1200" ry="6.1200" cx="350.2332" cy="144.4630"/>
   <ellipse  rx="6.1200" ry="6.1200" cx="109.9657" cy="149.8230"/>
   <ellipse  rx="6.1200" ry="6.1200" cx="135.6619" cy="340.1605"/>
   <ellipse  rx="6.1200" ry="6.1200" cx="199.4499" cy="161.3775"/>
   <ellipse  rx="6.1200" ry="6.1200" cx="122.1544" cy="131.9932"/>
   <ellipse  rx="6.1200" ry="6.1200" cx="136.8650" cy="410.9757"/>
   <ellipse  rx="6.1200" ry="6.1200" cx="309.9787" cy="320.8419"/>
   <ellipse  rx="6.1200" ry="6.1200" cx="98.7993" cy="126.9869"/>
   <ellipse  rx="6.1200" ry="6.1200" cx="109.9666" cy="151.0743"/>
   <ellipse  rx="6.1200" ry="6.1200" cx="303.6708" cy="132.8980"/>
   <ellipse  rx="6.1200" ry="6.1200" cx="186.5734" cy="145.3391"/>
   <ellipse  rx="6.1200" ry="6.1200" cx="103.8866" cy="138.9684"/>
   <ellipse  rx="6.1200" ry="6.1200" cx="153.0594" cy="156.3180"/>
   <ellipse  rx="6.1200" ry="6.1200" cx="112.4720" cy="144.9720"/>
   <ellipse  rx="6.1200" ry="6.1200" cx="103.5892" cy="180.2811"/>
   <ellipse  rx="6.1200" ry="6.1200" cx="596.7085" cy="135.8064"/>
   <ellipse  rx="6.1200" ry="6.1200" cx="101.4873" cy="156.2242"/>
   <ellipse  rx="6.1200" ry="6.1200" cx="103.0560" cy="139.6839"/>
   <ellipse  rx="6.1200" ry="6.1200" cx="107.3090" cy="254.3214"/>
   <ellipse  rx="6.1200" ry="6.1200" cx="493.6368" cy="136.8729"/>
   <ellipse  rx="6.1200" ry="6.1200" cx="102.6984" cy="137.1268"/>
   <ellipse  rx="6.1200" ry="6.1200" cx="102.6782" cy="131.6626"/>
   <ellipse  rx="6.1200" ry="6.1200" cx="102.4103" cy="132.6028"/>
   <ellipse  rx="6.1200" ry="6.1200" cx="107.7632" cy="207.3757"/>
   <ellipse  rx="6.1200" ry="6.1200" cx="106.1778" cy="134.2990"/>
   <ellipse  rx="6.1200" ry="6.1200" cx="514.1240" cy="112.4470"/>
   <ellipse  rx="6.1200" ry="6.1200" cx="106.8763" cy="146.3910"/>
   <ellipse  rx="6.1200" ry="6.1200" cx="108.3310" cy="138.4975"/>
   <ellipse  rx="6.1200" ry="6.1200" cx="108.3889" cy="153.6961"/>
   <ellipse  rx="6.1200" ry="6.1200" cx="102.4629" cy="140.0637"/>
   <ellipse  rx="6.1200" ry="6.1200" cx="97.5634" cy="255.6874"/>
   <ellipse  rx="6.1200" ry="6.1200" cx="107.3744" cy="131.0827"/>
   <ellipse  rx="6.1200" ry="6.1200" cx="139.1622" cy="475.1917"/>
   <ellipse  rx="6.1200" ry="6.1200" cx="109.6325" cy="130.2385"/>
   <ellipse  rx="6.1200" ry="6.1200" cx="126.7979" cy="285.3042"/>
   <ellipse  rx="6.1200" ry="6.1200" cx="102.8436" cy="138.0524"/>
   <ellipse  rx="6.1200" ry="6.1200" cx="141.3065" cy="151.3383"/>
   <ellipse  rx="6.1200" ry="6.1200" cx="116.6831" cy="146.3972"/>
   <ellipse  rx="6.1200" ry="6.1200" cx="117.8813" cy="266.5763"/>
   <ellipse  rx="6.1200" ry="6.1200" cx="171.3962" cy="137.4135"/>
   <ellipse  rx="6.1200" ry="6.1200" cx="101.1322" cy="272.4740"/>
   <ellipse  rx="6.1200" ry="6.1200" cx="98.8065" cy="168.7965"/>
   <ellipse  rx="6.1200" ry="6.1200" cx="138.6645" cy="126.0116"/>
  </g>
  <g style="fill:#000000; fill-rule:nonzero">
   <text   style="font-family:'Times','Nimbus Roman'; font-style:normal; font-weight:normal; font-size:612.0000" transform="matrix(0.0280,0.0000,-0.0000,-0.0280,78.6800,124.7455)">1</text>
   <text   style="font-family:'Times','Nimbus Roman'; font-style:normal; font-weight:normal; font-size:612.0000" transform="matrix(0.0280,0.0000,-0.0000,-0.0280,64.6800,319.4727)">1.5</text>
   <text   style="font-family:'Times','Nimbus Roman'; font-style:normal; font-weight:normal; font-size:612.0000" transform="matrix(0.0280,0.0000,-0.0000,-0.0280,77.6800,514.7000)">2</text>
  </g>
  <g style="fill:none; stroke:#000000; stroke-width:  0.9180; stroke-linecap:butt; stroke-linejoin:miter; stroke-dasharray:none">
   <path d="M91.8000,91.8000L91.8000,520.2000L703.8000,520.2000L703.8000,91.8000z"/>
  </g>
 </g>
</svg>
