<?xml version="1.0" encoding="ISO-8859-1"?>
<!DOCTYPE svg PUBLIC "-//W3C//DTD SVG 1.0//EN" "http://www.w3.org/TR/2001/REC-SVG-20010904/DTD/svg10.dtd">
<!-- generated by Grace-5.1.25 -->
<svg xml:space="preserve" width="11.0000in" height="8.5000in" viewBox="0.0000 0.0000 792.0000 612.0000">
 <g transform="translate(0,612.0000) scale(1,-1)">
  <g style="fill:#FFFFFF; fill-rule:nonzero">
   <path  d="M0.0000,0.0000L0.0000,612.0000L792.0000,612.0000L792.0000,0.0000z"/>
  </g>
  <g style="fill:none; stroke:#000000; stroke-width:  0.9180; stroke-linecap:butt; stroke-linejoin:miter; stroke-dasharray:none">
   <ellipse  rx="6.1200" ry="6.1200" cx="115.0782" cy="156.5852"/>
   <ellipse  rx="6.1200" ry="6.1200" cx="99.6628" cy="201.1134"/>
   <ellipse  rx="6.1200" ry="6.1200" cx="229.6318" cy="135.7493"/>
   <ellipse  rx="6.1200" ry="6.1200" cx="100.2717" cy="208.1873"/>
   <ellipse  rx="6.1200" ry="6.1200" cx="119.9662" cy="162.9973"/>
   <ellipse  rx="6.1200" ry="6.1200" cx="160.5023" cy="140.4672"/>
   <ellipse  rx="6.1200" ry="6.1200" cx="94.0432" cy="488.3337"/>
   <ellipse  rx="6.1200" ry="6.1200" cx="211.8188" cy="134.3887"/>
   <ellipse  rx="6.1200" ry="6.1200" cx="97.2167" cy="247.6010"/>
   <ellipse  rx="6.1200" ry="6.1200" cx="101.9099" cy="200.1688"/>
   <ellipse  rx="6.1200" ry="6.1200" cx="94.3750" cy="447.0254"/>
   <ellipse  rx="6.1200" ry="6.1200" cx="95.7211" cy="309.7164"/>
   <ellipse  rx="6.1200" ry="6.1200" cx="536.8172" cy="129.3233"/>
   <ellipse  rx="6.1200" ry="6.1200" cx="94.9518" cy="345.1260"/>
   <ellipse  rx="6.1200" ry="6.1200" cx="112.4776" cy="140.5375"/>
   <ellipse  rx="6.1200" ry="6.1200" cx="104.5749" cy="186.0078"/>
   <ellipse  rx="6.1200" ry="6.1200" cx="94.2486" cy="468.0750"/>
   <ellipse  rx="6.1200" ry="6.1200" cx="303.0150" cy="137.1094"/>
   <ellipse  rx="6.1200" ry="6.1200" cx="96.5976" cy="263.5495"/>
   <ellipse  rx="6.1200" ry="6.1200" cx="100.5776" cy="185.9203"/>
   <ellipse  rx="6.1200" ry="6.1200" cx="104.2550" cy="197.0824"/>
   <ellipse  rx="6.1200" ry="6.1200" cx="203.8476" cy="126.9531"/>
   <ellipse  rx="6.1200" ry="6.1200" cx="96.1244" cy="278.4088"/>
   <ellipse  rx="6.1200" ry="6.1200" cx="95.9300" cy="288.3253"/>
   <ellipse  rx="6.1200" ry="6.1200" cx="123.7277" cy="149.8230"/>
   <ellipse  rx="6.1200" ry="6.1200" cx="95.2265" cy="340.1605"/>
   <ellipse  rx="6.1200" ry="6.1200" cx="266.3432" cy="161.3775"/>
   <ellipse  rx="6.1200" ry="6.1200" cx="94.5350" cy="410.9757"/>
   <ellipse  rx="6.1200" ry="6.1200" cx="97.6556" cy="247.1246"/>
   <ellipse  rx="6.1200" ry="6.1200" cx="95.0320" cy="320.8419"/>
   <ellipse  rx="6.1200" ry="6.1200" cx="99.5564" cy="190.8262"/>
   <ellipse  rx="6.1200" ry="6.1200" cx="597.0281" cy="143.0160"/>
   <ellipse  rx="6.1200" ry="6.1200" cx="100.5701" cy="207.1336"/>
   <ellipse  rx="6.1200" ry="6.1200" cx="174.0324" cy="145.3391"/>
   <ellipse  rx="6.1200" ry="6.1200" cx="135.5227" cy="156.3180"/>
   <ellipse  rx="6.1200" ry="6.1200" cx="102.6396" cy="180.2811"/>
   <ellipse  rx="6.1200" ry="6.1200" cx="291.1411" cy="135.8064"/>
   <ellipse  rx="6.1200" ry="6.1200" cx="96.9374" cy="254.3214"/>
   <ellipse  rx="6.1200" ry="6.1200" cx="154.9399" cy="137.1268"/>
   <ellipse  rx="6.1200" ry="6.1200" cx="585.9435" cy="132.6028"/>
   <ellipse  rx="6.1200" ry="6.1200" cx="99.3216" cy="207.3757"/>
   <ellipse  rx="6.1200" ry="6.1200" cx="161.7120" cy="134.2990"/>
   <ellipse  rx="6.1200" ry="6.1200" cx="135.2475" cy="144.3999"/>
   <ellipse  rx="6.1200" ry="6.1200" cx="97.0333" cy="255.6874"/>
   <ellipse  rx="6.1200" ry="6.1200" cx="94.1601" cy="475.1917"/>
   <ellipse  rx="6.1200" ry="6.1200" cx="213.2529" cy="130.2385"/>
   <ellipse  rx="6.1200" ry="6.1200" cx="226.5044" cy="144.0023"/>
   <ellipse  rx="6.1200" ry="6.1200" cx="95.9478" cy="285.3042"/>
   <ellipse  rx="6.1200" ry="6.1200" cx="424.4546" cy="128.3398"/>
   <ellipse  rx="6.1200" ry="6.1200" cx="95.0078" cy="351.0495"/>
   <ellipse  rx="6.1200" ry="6.1200" cx="96.4533" cy="266.5763"/>
   <ellipse  rx="6.1200" ry="6.1200" cx="169.8175" cy="137.4135"/>
   <ellipse  rx="6.1200" ry="6.1200" cx="95.8891" cy="272.4740"/>
   <ellipse  rx="6.1200" ry="6.1200" cx="103.7625" cy="168.7965"/>
   <ellipse  rx="6.1200" ry="6.1200" cx="256.6401" cy="146.7566"/>
   <ellipse  rx="6.1200" ry="6.1200" cx="95.9300" cy="288.3253"/>
  </g>
  <g style="fill:#000000; fill-rule:nonzero">
   <text   style="font-family:'Times','Nimbus Roman'; font-style:normal; font-weight:normal; font-size:612.0000" transform="matrix(0.0280,0.0000,-0.0000,-0.0280,78.6800,124.7455)">1</text>
   <text   style="font-family:'Times','Nimbus Roman'; font-style:normal; font-weight:normal; font-size:612.0000" transform="matrix(0.0280,0.0000,-0.0000,-0.0280,64.6800,319.4727)">1.5</text>
   <text   style="font-family:'Times','Nimbus Roman'; font-style:normal; font-weight:normal; font-size:612.0000" transform="matrix(0.0280,0.0000,-0.0000,-0.0280,77.6800,514.7000)">2</text>
  </g>
  <g style="fill:none; stroke:#000000; stroke-width:  0.9180; stroke-linecap:butt; stroke-linejoin:miter; stroke-dasharray:none">
   <path d="M91.8000,91.8000L91.8000,520.2000L703.8000,520.2000L703.8000,91.8000z"/>
  </g>
 </g>
</svg>
