<?xml version="1.0" encoding="ISO-8859-1"?>
<!DOCTYPE svg PUBLIC "-//W3C//DTD SVG 1.0//EN" "http://www.w3.org/TR/2001/REC-SVG-20010904/DTD/svg10.dtd">
<!-- generated by Grace-5.1.25 -->
<svg xml:space="preserve" width="11.0000in" height="8.5000in" viewBox="0.0000 0.0000 792.0000 612.0000">
 <g transform="translate(0,612.0000) scale(1,-1)">
  <g style="fill:#FFFFFF; fill-rule:nonzero">
   <path  d="M0.0000,0.0000L0.0000,612.0000L792.0000,612.0000L792.0000,0.0000z"/>
  </g>
  <g style="fill:none; stroke:#000000; stroke-width:  0.9180; stroke-linecap:butt; stroke-linejoin:miter; stroke-dasharray:none">
   <ellipse  rx="6.1200" ry="6.1200" cx="119.6414" cy="156.5852"/>
   <ellipse  rx="6.1200" ry="6.1200" cx="122.6015" cy="201.1134"/>
   <ellipse  rx="6.1200" ry="6.1200" cx="191.0290" cy="144.3082"/>
   <ellipse  rx="6.1200" ry="6.1200" cx="129.7578" cy="135.7493"/>
   <ellipse  rx="6.1200" ry="6.1200" cx="160.9192" cy="149.8182"/>
   <ellipse  rx="6.1200" ry="6.1200" cx="114.9755" cy="137.6327"/>
   <ellipse  rx="6.1200" ry="6.1200" cx="118.9830" cy="127.5274"/>
   <ellipse  rx="6.1200" ry="6.1200" cx="119.3551" cy="132.6139"/>
   <ellipse  rx="6.1200" ry="6.1200" cx="116.4954" cy="208.1873"/>
   <ellipse  rx="6.1200" ry="6.1200" cx="111.1331" cy="148.9615"/>
   <ellipse  rx="6.1200" ry="6.1200" cx="147.8924" cy="162.9973"/>
   <ellipse  rx="6.1200" ry="6.1200" cx="114.6420" cy="125.7704"/>
   <ellipse  rx="6.1200" ry="6.1200" cx="137.3140" cy="140.4672"/>
   <ellipse  rx="6.1200" ry="6.1200" cx="119.2877" cy="126.9657"/>
   <ellipse  rx="6.1200" ry="6.1200" cx="116.6293" cy="134.4989"/>
   <ellipse  rx="6.1200" ry="6.1200" cx="126.3529" cy="488.3337"/>
   <ellipse  rx="6.1200" ry="6.1200" cx="139.4590" cy="166.6477"/>
   <ellipse  rx="6.1200" ry="6.1200" cx="173.6396" cy="122.7922"/>
   <ellipse  rx="6.1200" ry="6.1200" cx="357.3384" cy="133.9561"/>
   <ellipse  rx="6.1200" ry="6.1200" cx="121.1053" cy="134.3887"/>
   <ellipse  rx="6.1200" ry="6.1200" cx="239.2920" cy="247.6010"/>
   <ellipse  rx="6.1200" ry="6.1200" cx="121.8826" cy="200.1688"/>
   <ellipse  rx="6.1200" ry="6.1200" cx="132.8607" cy="111.6224"/>
   <ellipse  rx="6.1200" ry="6.1200" cx="276.7192" cy="447.0254"/>
   <ellipse  rx="6.1200" ry="6.1200" cx="116.3153" cy="131.8575"/>
   <ellipse  rx="6.1200" ry="6.1200" cx="120.1633" cy="126.5543"/>
   <ellipse  rx="6.1200" ry="6.1200" cx="113.5698" cy="309.7164"/>
   <ellipse  rx="6.1200" ry="6.1200" cx="117.8367" cy="129.3233"/>
   <ellipse  rx="6.1200" ry="6.1200" cx="181.1208" cy="345.1260"/>
   <ellipse  rx="6.1200" ry="6.1200" cx="115.7588" cy="146.7578"/>
   <ellipse  rx="6.1200" ry="6.1200" cx="185.1008" cy="140.5375"/>
   <ellipse  rx="6.1200" ry="6.1200" cx="112.3051" cy="116.0794"/>
   <ellipse  rx="6.1200" ry="6.1200" cx="112.1020" cy="186.0078"/>
   <ellipse  rx="6.1200" ry="6.1200" cx="224.6317" cy="128.4264"/>
   <ellipse  rx="6.1200" ry="6.1200" cx="124.0183" cy="128.4334"/>
   <ellipse  rx="6.1200" ry="6.1200" cx="634.8653" cy="468.0750"/>
   <ellipse  rx="6.1200" ry="6.1200" cx="115.2390" cy="137.1094"/>
   <ellipse  rx="6.1200" ry="6.1200" cx="114.1771" cy="263.5495"/>
   <ellipse  rx="6.1200" ry="6.1200" cx="122.5348" cy="185.9203"/>
   <ellipse  rx="6.1200" ry="6.1200" cx="172.0150" cy="197.0824"/>
   <ellipse  rx="6.1200" ry="6.1200" cx="116.0815" cy="127.0730"/>
   <ellipse  rx="6.1200" ry="6.1200" cx="120.0788" cy="126.9531"/>
   <ellipse  rx="6.1200" ry="6.1200" cx="195.8176" cy="144.4630"/>
   <ellipse  rx="6.1200" ry="6.1200" cx="115.2875" cy="127.3822"/>
   <ellipse  rx="6.1200" ry="6.1200" cx="290.7796" cy="278.4088"/>
   <ellipse  rx="6.1200" ry="6.1200" cx="145.3157" cy="288.3253"/>
   <ellipse  rx="6.1200" ry="6.1200" cx="114.7744" cy="149.8230"/>
   <ellipse  rx="6.1200" ry="6.1200" cx="194.7548" cy="340.1605"/>
   <ellipse  rx="6.1200" ry="6.1200" cx="108.4578" cy="161.3775"/>
   <ellipse  rx="6.1200" ry="6.1200" cx="115.2379" cy="131.9932"/>
   <ellipse  rx="6.1200" ry="6.1200" cx="114.8504" cy="410.9757"/>
   <ellipse  rx="6.1200" ry="6.1200" cx="172.6391" cy="247.1246"/>
   <ellipse  rx="6.1200" ry="6.1200" cx="112.4633" cy="320.8419"/>
   <ellipse  rx="6.1200" ry="6.1200" cx="116.2777" cy="129.6734"/>
   <ellipse  rx="6.1200" ry="6.1200" cx="223.7791" cy="190.8262"/>
   <ellipse  rx="6.1200" ry="6.1200" cx="115.9362" cy="141.4515"/>
   <ellipse  rx="6.1200" ry="6.1200" cx="138.7082" cy="143.0160"/>
   <ellipse  rx="6.1200" ry="6.1200" cx="162.2599" cy="126.9869"/>
   <ellipse  rx="6.1200" ry="6.1200" cx="116.6381" cy="151.0743"/>
   <ellipse  rx="6.1200" ry="6.1200" cx="113.4554" cy="142.7284"/>
   <ellipse  rx="6.1200" ry="6.1200" cx="109.2427" cy="207.1336"/>
   <ellipse  rx="6.1200" ry="6.1200" cx="114.5166" cy="124.6334"/>
   <ellipse  rx="6.1200" ry="6.1200" cx="117.0401" cy="132.8980"/>
   <ellipse  rx="6.1200" ry="6.1200" cx="120.1529" cy="145.3391"/>
   <ellipse  rx="6.1200" ry="6.1200" cx="117.2081" cy="138.9684"/>
   <ellipse  rx="6.1200" ry="6.1200" cx="116.9460" cy="156.3180"/>
   <ellipse  rx="6.1200" ry="6.1200" cx="149.4895" cy="144.9720"/>
   <ellipse  rx="6.1200" ry="6.1200" cx="112.5890" cy="180.2811"/>
   <ellipse  rx="6.1200" ry="6.1200" cx="135.3087" cy="135.8064"/>
   <ellipse  rx="6.1200" ry="6.1200" cx="132.0396" cy="156.2242"/>
   <ellipse  rx="6.1200" ry="6.1200" cx="117.0109" cy="139.6839"/>
   <ellipse  rx="6.1200" ry="6.1200" cx="190.6170" cy="254.3214"/>
   <ellipse  rx="6.1200" ry="6.1200" cx="173.9515" cy="136.8729"/>
   <ellipse  rx="6.1200" ry="6.1200" cx="117.1926" cy="137.1268"/>
   <ellipse  rx="6.1200" ry="6.1200" cx="174.4428" cy="131.6626"/>
   <ellipse  rx="6.1200" ry="6.1200" cx="117.1052" cy="132.6028"/>
   <ellipse  rx="6.1200" ry="6.1200" cx="121.7406" cy="207.3757"/>
   <ellipse  rx="6.1200" ry="6.1200" cx="114.9369" cy="134.2990"/>
   <ellipse  rx="6.1200" ry="6.1200" cx="121.3293" cy="128.1314"/>
   <ellipse  rx="6.1200" ry="6.1200" cx="116.4662" cy="112.4470"/>
   <ellipse  rx="6.1200" ry="6.1200" cx="110.5332" cy="146.3910"/>
   <ellipse  rx="6.1200" ry="6.1200" cx="154.5349" cy="120.5747"/>
   <ellipse  rx="6.1200" ry="6.1200" cx="175.4847" cy="138.4975"/>
   <ellipse  rx="6.1200" ry="6.1200" cx="114.3706" cy="153.6961"/>
   <ellipse  rx="6.1200" ry="6.1200" cx="188.9941" cy="140.0637"/>
   <ellipse  rx="6.1200" ry="6.1200" cx="117.6276" cy="144.3999"/>
   <ellipse  rx="6.1200" ry="6.1200" cx="213.4958" cy="255.6874"/>
   <ellipse  rx="6.1200" ry="6.1200" cx="118.3043" cy="131.0827"/>
   <ellipse  rx="6.1200" ry="6.1200" cx="179.4573" cy="475.1917"/>
   <ellipse  rx="6.1200" ry="6.1200" cx="144.1910" cy="130.2385"/>
   <ellipse  rx="6.1200" ry="6.1200" cx="238.3002" cy="121.4471"/>
   <ellipse  rx="6.1200" ry="6.1200" cx="239.5638" cy="144.0023"/>
   <ellipse  rx="6.1200" ry="6.1200" cx="125.2804" cy="285.3042"/>
   <ellipse  rx="6.1200" ry="6.1200" cx="207.3113" cy="138.0524"/>
   <ellipse  rx="6.1200" ry="6.1200" cx="115.6533" cy="151.3383"/>
   <ellipse  rx="6.1200" ry="6.1200" cx="201.6807" cy="124.8962"/>
   <ellipse  rx="6.1200" ry="6.1200" cx="200.8573" cy="128.3398"/>
   <ellipse  rx="6.1200" ry="6.1200" cx="247.5371" cy="146.3972"/>
   <ellipse  rx="6.1200" ry="6.1200" cx="115.9070" cy="351.0495"/>
   <ellipse  rx="6.1200" ry="6.1200" cx="114.9484" cy="266.5763"/>
   <ellipse  rx="6.1200" ry="6.1200" cx="119.8023" cy="137.4135"/>
   <ellipse  rx="6.1200" ry="6.1200" cx="114.8330" cy="272.4740"/>
   <ellipse  rx="6.1200" ry="6.1200" cx="138.0477" cy="168.7965"/>
   <ellipse  rx="6.1200" ry="6.1200" cx="119.5504" cy="146.7566"/>
   <ellipse  rx="6.1200" ry="6.1200" cx="114.9283" cy="133.8206"/>
   <ellipse  rx="6.1200" ry="6.1200" cx="145.2414" cy="288.3253"/>
   <ellipse  rx="6.1200" ry="6.1200" cx="115.6252" cy="126.0116"/>
   <ellipse  rx="6.1200" ry="6.1200" cx="171.4391" cy="134.4313"/>
  </g>
  <g style="fill:#000000; fill-rule:nonzero">
   <text   style="font-family:'Times','Nimbus Roman'; font-style:normal; font-weight:normal; font-size:612.0000" transform="matrix(0.0280,0.0000,-0.0000,-0.0280,78.6800,124.7455)">1</text>
   <text   style="font-family:'Times','Nimbus Roman'; font-style:normal; font-weight:normal; font-size:612.0000" transform="matrix(0.0280,0.0000,-0.0000,-0.0280,64.6800,319.4727)">1.5</text>
   <text   style="font-family:'Times','Nimbus Roman'; font-style:normal; font-weight:normal; font-size:612.0000" transform="matrix(0.0280,0.0000,-0.0000,-0.0280,77.6800,514.7000)">2</text>
  </g>
  <g style="fill:none; stroke:#000000; stroke-width:  0.9180; stroke-linecap:butt; stroke-linejoin:miter; stroke-dasharray:none">
   <path d="M91.8000,91.8000L91.8000,520.2000L703.8000,520.2000L703.8000,91.8000z"/>
  </g>
 </g>
</svg>
