<?xml version="1.0" encoding="ISO-8859-1"?>
<!DOCTYPE svg PUBLIC "-//W3C//DTD SVG 1.0//EN" "http://www.w3.org/TR/2001/REC-SVG-20010904/DTD/svg10.dtd">
<!-- generated by Grace-5.1.25 -->
<svg xml:space="preserve" width="11.0000in" height="8.5000in" viewBox="0.0000 0.0000 792.0000 612.0000">
 <g transform="translate(0,612.0000) scale(1,-1)">
  <g style="fill:#FFFFFF; fill-rule:nonzero">
   <path  d="M0.0000,0.0000L0.0000,612.0000L792.0000,612.0000L792.0000,0.0000z"/>
  </g>
  <g style="fill:none; stroke:#000000; stroke-width:  0.9180; stroke-linecap:butt; stroke-linejoin:miter; stroke-dasharray:none">
   <ellipse  rx="6.1200" ry="6.1200" cx="91.8000" cy="156.5852"/>
   <ellipse  rx="6.1200" ry="6.1200" cx="95.6437" cy="201.1134"/>
   <ellipse  rx="6.1200" ry="6.1200" cx="169.6092" cy="144.3082"/>
   <ellipse  rx="6.1200" ry="6.1200" cx="104.5738" cy="135.7493"/>
   <ellipse  rx="6.1200" ry="6.1200" cx="141.8339" cy="149.8182"/>
   <ellipse  rx="6.1200" ry="6.1200" cx="91.8000" cy="137.6327"/>
   <ellipse  rx="6.1200" ry="6.1200" cx="93.4867" cy="127.5274"/>
   <ellipse  rx="6.1200" ry="6.1200" cx="94.5933" cy="132.6139"/>
   <ellipse  rx="6.1200" ry="6.1200" cx="91.8000" cy="208.1873"/>
   <ellipse  rx="6.1200" ry="6.1200" cx="91.8000" cy="148.9615"/>
   <ellipse  rx="6.1200" ry="6.1200" cx="124.3108" cy="162.9973"/>
   <ellipse  rx="6.1200" ry="6.1200" cx="91.8000" cy="125.7704"/>
   <ellipse  rx="6.1200" ry="6.1200" cx="118.4148" cy="140.4672"/>
   <ellipse  rx="6.1200" ry="6.1200" cx="98.6772" cy="126.9657"/>
   <ellipse  rx="6.1200" ry="6.1200" cx="91.8000" cy="134.4989"/>
   <ellipse  rx="6.1200" ry="6.1200" cx="108.6491" cy="488.3337"/>
   <ellipse  rx="6.1200" ry="6.1200" cx="120.0688" cy="166.6477"/>
   <ellipse  rx="6.1200" ry="6.1200" cx="149.9798" cy="122.7922"/>
   <ellipse  rx="6.1200" ry="6.1200" cx="336.4451" cy="133.9561"/>
   <ellipse  rx="6.1200" ry="6.1200" cx="92.9479" cy="134.3887"/>
   <ellipse  rx="6.1200" ry="6.1200" cx="220.4474" cy="247.6010"/>
   <ellipse  rx="6.1200" ry="6.1200" cx="98.8473" cy="200.1688"/>
   <ellipse  rx="6.1200" ry="6.1200" cx="105.4017" cy="111.6224"/>
   <ellipse  rx="6.1200" ry="6.1200" cx="259.3098" cy="447.0254"/>
   <ellipse  rx="6.1200" ry="6.1200" cx="92.1488" cy="131.8575"/>
   <ellipse  rx="6.1200" ry="6.1200" cx="96.1167" cy="126.5543"/>
   <ellipse  rx="6.1200" ry="6.1200" cx="91.8000" cy="309.7164"/>
   <ellipse  rx="6.1200" ry="6.1200" cx="93.6423" cy="129.3233"/>
   <ellipse  rx="6.1200" ry="6.1200" cx="161.2101" cy="345.1260"/>
   <ellipse  rx="6.1200" ry="6.1200" cx="91.8202" cy="146.7578"/>
   <ellipse  rx="6.1200" ry="6.1200" cx="166.3558" cy="140.5375"/>
   <ellipse  rx="6.1200" ry="6.1200" cx="91.9119" cy="116.0794"/>
   <ellipse  rx="6.1200" ry="6.1200" cx="91.8000" cy="186.0078"/>
   <ellipse  rx="6.1200" ry="6.1200" cx="204.0580" cy="128.4264"/>
   <ellipse  rx="6.1200" ry="6.1200" cx="100.3700" cy="128.4334"/>
   <ellipse  rx="6.1200" ry="6.1200" cx="633.9375" cy="468.0750"/>
   <ellipse  rx="6.1200" ry="6.1200" cx="91.8000" cy="137.1094"/>
   <ellipse  rx="6.1200" ry="6.1200" cx="91.8000" cy="263.5495"/>
   <ellipse  rx="6.1200" ry="6.1200" cx="96.8123" cy="185.9203"/>
   <ellipse  rx="6.1200" ry="6.1200" cx="153.5442" cy="197.0824"/>
   <ellipse  rx="6.1200" ry="6.1200" cx="91.8000" cy="127.0730"/>
   <ellipse  rx="6.1200" ry="6.1200" cx="98.4769" cy="126.9531"/>
   <ellipse  rx="6.1200" ry="6.1200" cx="174.9755" cy="144.4630"/>
   <ellipse  rx="6.1200" ry="6.1200" cx="91.8000" cy="127.3822"/>
   <ellipse  rx="6.1200" ry="6.1200" cx="270.9998" cy="278.4088"/>
   <ellipse  rx="6.1200" ry="6.1200" cx="118.7112" cy="288.3253"/>
   <ellipse  rx="6.1200" ry="6.1200" cx="91.9063" cy="149.8230"/>
   <ellipse  rx="6.1200" ry="6.1200" cx="173.9222" cy="340.1605"/>
   <ellipse  rx="6.1200" ry="6.1200" cx="91.8000" cy="161.3775"/>
   <ellipse  rx="6.1200" ry="6.1200" cx="91.8000" cy="131.9932"/>
   <ellipse  rx="6.1200" ry="6.1200" cx="91.8000" cy="410.9757"/>
   <ellipse  rx="6.1200" ry="6.1200" cx="152.9339" cy="247.1246"/>
   <ellipse  rx="6.1200" ry="6.1200" cx="91.9865" cy="320.8419"/>
   <ellipse  rx="6.1200" ry="6.1200" cx="92.1037" cy="129.6734"/>
   <ellipse  rx="6.1200" ry="6.1200" cx="205.2686" cy="190.8262"/>
   <ellipse  rx="6.1200" ry="6.1200" cx="91.8000" cy="141.4515"/>
   <ellipse  rx="6.1200" ry="6.1200" cx="112.7822" cy="143.0160"/>
   <ellipse  rx="6.1200" ry="6.1200" cx="140.5166" cy="126.9869"/>
   <ellipse  rx="6.1200" ry="6.1200" cx="91.9886" cy="151.0743"/>
   <ellipse  rx="6.1200" ry="6.1200" cx="92.7292" cy="142.7284"/>
   <ellipse  rx="6.1200" ry="6.1200" cx="91.8054" cy="207.1336"/>
   <ellipse  rx="6.1200" ry="6.1200" cx="91.8000" cy="124.6334"/>
   <ellipse  rx="6.1200" ry="6.1200" cx="93.2596" cy="132.8980"/>
   <ellipse  rx="6.1200" ry="6.1200" cx="94.0762" cy="145.3391"/>
   <ellipse  rx="6.1200" ry="6.1200" cx="94.6829" cy="138.9684"/>
   <ellipse  rx="6.1200" ry="6.1200" cx="91.8000" cy="156.3180"/>
   <ellipse  rx="6.1200" ry="6.1200" cx="128.1999" cy="144.9720"/>
   <ellipse  rx="6.1200" ry="6.1200" cx="91.8055" cy="180.2811"/>
   <ellipse  rx="6.1200" ry="6.1200" cx="112.0814" cy="135.8064"/>
   <ellipse  rx="6.1200" ry="6.1200" cx="110.9750" cy="156.2242"/>
   <ellipse  rx="6.1200" ry="6.1200" cx="91.8963" cy="139.6839"/>
   <ellipse  rx="6.1200" ry="6.1200" cx="172.5084" cy="254.3214"/>
   <ellipse  rx="6.1200" ry="6.1200" cx="152.1899" cy="136.8729"/>
   <ellipse  rx="6.1200" ry="6.1200" cx="93.5169" cy="137.1268"/>
   <ellipse  rx="6.1200" ry="6.1200" cx="153.1505" cy="131.6626"/>
   <ellipse  rx="6.1200" ry="6.1200" cx="92.1336" cy="132.6028"/>
   <ellipse  rx="6.1200" ry="6.1200" cx="97.0000" cy="207.3757"/>
   <ellipse  rx="6.1200" ry="6.1200" cx="91.8078" cy="134.2990"/>
   <ellipse  rx="6.1200" ry="6.1200" cx="93.0709" cy="128.1314"/>
   <ellipse  rx="6.1200" ry="6.1200" cx="91.8000" cy="112.4470"/>
   <ellipse  rx="6.1200" ry="6.1200" cx="91.8000" cy="146.3910"/>
   <ellipse  rx="6.1200" ry="6.1200" cx="128.3183" cy="120.5747"/>
   <ellipse  rx="6.1200" ry="6.1200" cx="153.7660" cy="138.4975"/>
   <ellipse  rx="6.1200" ry="6.1200" cx="91.8000" cy="153.6961"/>
   <ellipse  rx="6.1200" ry="6.1200" cx="167.5296" cy="140.0637"/>
   <ellipse  rx="6.1200" ry="6.1200" cx="92.7684" cy="144.3999"/>
   <ellipse  rx="6.1200" ry="6.1200" cx="198.6814" cy="255.6874"/>
   <ellipse  rx="6.1200" ry="6.1200" cx="95.0917" cy="131.0827"/>
   <ellipse  rx="6.1200" ry="6.1200" cx="161.1937" cy="475.1917"/>
   <ellipse  rx="6.1200" ry="6.1200" cx="121.6460" cy="130.2385"/>
   <ellipse  rx="6.1200" ry="6.1200" cx="215.9914" cy="121.4471"/>
   <ellipse  rx="6.1200" ry="6.1200" cx="226.7085" cy="144.0023"/>
   <ellipse  rx="6.1200" ry="6.1200" cx="103.3391" cy="285.3042"/>
   <ellipse  rx="6.1200" ry="6.1200" cx="186.4195" cy="138.0524"/>
   <ellipse  rx="6.1200" ry="6.1200" cx="92.5525" cy="151.3383"/>
   <ellipse  rx="6.1200" ry="6.1200" cx="180.0129" cy="124.8962"/>
   <ellipse  rx="6.1200" ry="6.1200" cx="178.0949" cy="128.3398"/>
   <ellipse  rx="6.1200" ry="6.1200" cx="227.5685" cy="146.3972"/>
   <ellipse  rx="6.1200" ry="6.1200" cx="92.4367" cy="351.0495"/>
   <ellipse  rx="6.1200" ry="6.1200" cx="91.8000" cy="266.5763"/>
   <ellipse  rx="6.1200" ry="6.1200" cx="93.0956" cy="137.4135"/>
   <ellipse  rx="6.1200" ry="6.1200" cx="91.8000" cy="272.4740"/>
   <ellipse  rx="6.1200" ry="6.1200" cx="114.2235" cy="168.7965"/>
   <ellipse  rx="6.1200" ry="6.1200" cx="94.2486" cy="146.7566"/>
   <ellipse  rx="6.1200" ry="6.1200" cx="92.2631" cy="133.8206"/>
   <ellipse  rx="6.1200" ry="6.1200" cx="118.7112" cy="288.3253"/>
   <ellipse  rx="6.1200" ry="6.1200" cx="91.8000" cy="126.0116"/>
   <ellipse  rx="6.1200" ry="6.1200" cx="149.2508" cy="134.4313"/>
  </g>
  <g style="fill:#000000; fill-rule:nonzero">
   <text   style="font-family:'Times','Nimbus Roman'; font-style:normal; font-weight:normal; font-size:612.0000" transform="matrix(0.0280,0.0000,-0.0000,-0.0280,78.6800,124.7455)">1</text>
   <text   style="font-family:'Times','Nimbus Roman'; font-style:normal; font-weight:normal; font-size:612.0000" transform="matrix(0.0280,0.0000,-0.0000,-0.0280,64.6800,319.4727)">1.5</text>
   <text   style="font-family:'Times','Nimbus Roman'; font-style:normal; font-weight:normal; font-size:612.0000" transform="matrix(0.0280,0.0000,-0.0000,-0.0280,77.6800,514.7000)">2</text>
  </g>
  <g style="fill:none; stroke:#000000; stroke-width:  0.9180; stroke-linecap:butt; stroke-linejoin:miter; stroke-dasharray:none">
   <path d="M91.8000,91.8000L91.8000,520.2000L703.8000,520.2000L703.8000,91.8000z"/>
  </g>
 </g>
</svg>
