<?xml version="1.0" encoding="ISO-8859-1"?>
<!DOCTYPE svg PUBLIC "-//W3C//DTD SVG 1.0//EN" "http://www.w3.org/TR/2001/REC-SVG-20010904/DTD/svg10.dtd">
<!-- generated by Grace-5.1.25 -->
<svg xml:space="preserve" width="11.0000in" height="8.5000in" viewBox="0.0000 0.0000 792.0000 612.0000">
 <g transform="translate(0,612.0000) scale(1,-1)">
 <desc></desc>
  <g style="fill:#FFFFFF; fill-rule:nonzero">
   <path  d="M0.0000,0.0000L0.0000,612.0000L792.0000,612.0000L792.0000,0.0000z"/>
  </g>
  <g style="fill:none; stroke:#FFA500; stroke-width:  0.9180; stroke-linecap:butt; stroke-linejoin:miter; stroke-dasharray:none">
   <path d="M91.8000,96.0416L104.0400,106.6130L116.2800,120.7784L128.5200,121.9256L140.7600,137.5992L153.0000,136.3121L165.2400,172.7879L177.4800,179.6446L189.7200,173.4438L201.9600,189.6968
            L214.2000,205.4244L226.4400,203.3453L238.6800,210.0448L250.9200,233.3382L263.1600,238.4822L275.4000,224.8356L287.6400,228.1852L299.8800,258.7597L312.1200,236.0944L324.3600,236.7320
            L336.6000,226.7854L348.8400,219.6605L361.0800,208.3335L373.3200,195.1866L385.5600,217.0201L397.8000,228.6697L410.0400,234.3901L422.2800,253.8444L434.5200,272.2986L446.7600,289.2307
            L459.0000,304.4699L471.2400,309.8098L483.4800,297.7768L495.7200,299.8486L507.9600,280.1374L520.2000,309.2759L532.4400,276.5045L544.6800,289.1819L556.9200,318.6822L569.1600,331.7135
            L581.4000,332.0147L593.6400,337.2978L605.8800,360.9499L618.1200,367.8247L630.3600,345.2343L642.6000,388.4165L654.8400,340.8968L667.0800,388.7403L679.3200,372.0650L691.5600,349.5594
            L703.8000,356.5085"/>
   <path d="M91.8000,96.0416L104.0400,136.3459L116.2800,153.0526L128.5200,157.9782L140.7600,154.7424L153.0000,156.1106L165.2400,175.6907L177.4800,185.5548L189.7200,178.2750L201.9600,191.6085
            L214.2000,211.4557L226.4400,251.8852L238.6800,254.6592L250.9200,190.4406L263.1600,178.4603L275.4000,155.4686L287.6400,170.9191L299.8800,175.4449L312.1200,231.3092L324.3600,251.6517
            L336.6000,328.0639L348.8400,352.2065L361.0800,328.8917L373.3200,305.1583L385.5600,294.4610L397.8000,283.8829L410.0400,255.7245L422.2800,287.9254L434.5200,312.3143L446.7600,328.4964
            L459.0000,340.8724L471.2400,349.1108L483.4800,308.0644L495.7200,282.8402L507.9600,266.5019L520.2000,261.2344L532.4400,297.1969L544.6800,362.3640L556.9200,449.0042L569.1600,448.7120
            L581.4000,390.3744L593.6400,397.5174L605.8800,331.3433L618.1200,316.3582L630.3600,376.1137L642.6000,399.0496L654.8400,398.4022L667.0800,386.2603L679.3200,330.1983L691.5600,313.5363
            L703.8000,331.2442"/>
   <path d="M91.8000,96.0416L104.0400,127.5304L116.2800,135.6556L128.5200,150.6334L140.7600,175.9767L153.0000,188.5404L165.2400,200.3521L177.4800,195.7068L189.7200,182.8027L201.9600,171.8334
            L214.2000,198.0038L226.4400,232.0110L238.6800,225.9527L250.9200,222.3659L263.1600,224.4085L275.4000,231.4839L287.6400,237.4318L299.8800,286.2197L312.1200,288.9466L324.3600,304.6199
            L336.6000,321.8819L348.8400,314.0961L361.0800,323.2653L373.3200,331.8353L385.5600,322.4553L397.8000,317.8341L410.0400,348.9266L422.2800,379.4695L434.5200,335.0015L446.7600,337.7514
            L459.0000,342.7151L471.2400,354.4822L483.4800,340.0431L495.7200,343.5879L507.9600,333.9968L520.2000,332.0459L532.4400,349.9619L544.6800,361.7691L556.9200,356.3929L569.1600,358.3338
            L581.4000,381.5689L593.6400,396.5656L605.8800,388.5706L618.1200,421.2710L630.3600,423.2478L642.6000,391.8147L654.8400,407.2188L667.0800,431.2169L679.3200,435.1471L691.5600,415.4391
            L703.8000,387.2723"/>
   <path d="M91.8000,96.0416L104.0400,93.7964L116.2800,106.7331L128.5200,116.0986L140.7600,129.4952L153.0000,125.0665L165.2400,132.1667L177.4800,127.1101L189.7200,136.3396L201.9600,145.2985
            L214.2000,153.9329L226.4400,172.0432L238.6800,188.6398L250.9200,184.8633L263.1600,166.9053L275.4000,171.2156L287.6400,201.6567L299.8800,226.3510L312.1200,231.4324L324.3600,283.5714
            L336.6000,275.8143L348.8400,291.6913L361.0800,295.1422L373.3200,299.4119L385.5600,301.4847L397.8000,281.3075L410.0400,284.0843L422.2800,291.4035L434.5200,283.1225L446.7600,237.5071
            L459.0000,255.5786L471.2400,218.4539L483.4800,225.2878L495.7200,229.0990L507.9600,240.2045L520.2000,257.1664L532.4400,264.0140L544.6800,250.0993L556.9200,248.6053L569.1600,254.6836
            L581.4000,234.4605L593.6400,257.3503L605.8800,253.1341L618.1200,288.9082L630.3600,257.0385L642.6000,282.1616L654.8400,297.2742L667.0800,295.2635L679.3200,297.7588L691.5600,292.6746
            L703.8000,298.4582"/>
   <path d="M91.8000,96.0416L104.0400,115.7558L116.2800,139.5307L128.5200,143.2331L140.7600,137.8186L153.0000,144.3182L165.2400,156.1276L177.4800,211.4570L189.7200,218.8788L201.9600,217.6287
            L214.2000,242.4530L226.4400,236.5921L238.6800,246.6608L250.9200,247.9692L263.1600,230.3176L275.4000,234.2674L287.6400,257.7797L299.8800,248.4033L312.1200,248.4264L324.3600,268.6600
            L336.6000,263.7177L348.8400,254.7160L361.0800,280.4810L373.3200,292.9535L385.5600,286.6950L397.8000,296.2375L410.0400,287.8838L422.2800,314.2663L434.5200,307.1544L446.7600,298.6133
            L459.0000,302.8067L471.2400,285.1454L483.4800,270.3872L495.7200,255.0459L507.9600,268.7386L520.2000,216.3935L532.4400,221.4016L544.6800,202.4508L556.9200,189.9245L569.1600,198.3851
            L581.4000,205.5230L593.6400,231.5666L605.8800,253.1019L618.1200,232.4559L630.3600,238.2308L642.6000,243.2314L654.8400,252.2544L667.0800,261.6990L679.3200,261.8396L691.5600,244.3604
            L703.8000,237.5624"/>
   <path d="M91.8000,96.0416L104.0400,117.2071L116.2800,113.9149L128.5200,125.4858L140.7600,129.9277L153.0000,136.4466L165.2400,143.6708L177.4800,136.2249L189.7200,150.2211L201.9600,168.1981
            L214.2000,177.6994L226.4400,188.4265L238.6800,194.1664L250.9200,199.4876L263.1600,205.4636L275.4000,205.0891L287.6400,215.9164L299.8800,213.2922L312.1200,226.3392L324.3600,237.3310
            L336.6000,234.5125L348.8400,260.0867L361.0800,255.1633L373.3200,253.6037L385.5600,259.0044L397.8000,302.6720L410.0400,274.7903L422.2800,266.2404L434.5200,271.8293L446.7600,266.5568
            L459.0000,273.2845L471.2400,278.4825L483.4800,249.9945L495.7200,285.8678L507.9600,268.2528L520.2000,293.8921L532.4400,320.3824L544.6800,310.3612L556.9200,303.4921L569.1600,288.9817
            L581.4000,285.2864L593.6400,307.8746L605.8800,316.8455L618.1200,320.3768L630.3600,313.9529L642.6000,354.6807L654.8400,367.2837L667.0800,341.0517L679.3200,375.8129L691.5600,372.8912
            L703.8000,345.7135"/>
   <path d="M91.8000,96.0416L104.0400,121.4497L116.2800,139.1889L128.5200,176.2087L140.7600,201.7232L153.0000,185.9181L165.2400,180.3908L177.4800,186.3003L189.7200,180.3087L201.9600,214.4162
            L214.2000,232.2063L226.4400,246.6117L238.6800,286.5880L250.9200,336.2369L263.1600,350.2432L275.4000,322.8615L287.6400,344.2402L299.8800,361.7667L312.1200,305.0681L324.3600,323.2717
            L336.6000,286.7322L348.8400,293.8565L361.0800,302.8757L373.3200,303.4734L385.5600,321.5886L397.8000,337.7387L410.0400,334.4488L422.2800,386.3200L434.5200,424.5241L446.7600,435.7939
            L459.0000,419.1522L471.2400,397.5356L483.4800,369.3601L495.7200,339.0790L507.9600,357.5727L520.2000,391.3845L532.4400,402.9946L544.6800,401.2306L556.9200,381.9054L569.1600,351.4634
            L581.4000,333.9001L593.6400,337.7056L605.8800,360.0943L618.1200,421.9070L630.3600,515.6818L642.6000,377.1193L654.8400,327.6707L667.0800,308.7497L679.3200,324.4489L691.5600,354.9104
            L703.8000,409.8360"/>
   <path d="M91.8000,96.0416L104.0400,115.6132L116.2800,131.4938L128.5200,156.0742L140.7600,171.9045L153.0000,186.2926L165.2400,184.9327L177.4800,199.4021L189.7200,199.2942L201.9600,205.7137
            L214.2000,215.0936L226.4400,247.2077L238.6800,265.1950L250.9200,259.9713L263.1600,269.7626L275.4000,236.5247L287.6400,258.5186L299.8800,300.6589L312.1200,252.5278L324.3600,292.8570
            L336.6000,281.5248L348.8400,280.2171L361.0800,322.0624L373.3200,348.1741L385.5600,343.5137L397.8000,331.1093L410.0400,326.9994L422.2800,330.6043L434.5200,329.6777L446.7600,313.4458
            L459.0000,312.6586L471.2400,329.3653L483.4800,324.1605L495.7200,318.7997L507.9600,294.8446L520.2000,294.8007L532.4400,316.7682L544.6800,297.7828L556.9200,302.7238L569.1600,355.4539
            L581.4000,351.9552L593.6400,358.1197L605.8800,331.2752L618.1200,361.5459L630.3600,333.1118L642.6000,336.4440L654.8400,351.9192L667.0800,360.2436L679.3200,379.8159L691.5600,378.7779
            L703.8000,382.2633"/>
   <path d="M91.8000,96.0416L104.0400,137.0336L116.2800,137.2835L128.5200,157.3939L140.7600,173.0817L153.0000,177.8093L165.2400,188.5115L177.4800,199.5980L189.7200,221.7492L201.9600,233.0919
            L214.2000,225.3950L226.4400,236.5413L238.6800,258.8566L250.9200,269.6665L263.1600,288.8753L275.4000,275.9646L287.6400,257.2295L299.8800,269.0277L312.1200,244.4533L324.3600,306.3188
            L336.6000,309.9284L348.8400,329.5771L361.0800,319.3620L373.3200,295.3893L385.5600,297.6475L397.8000,306.6800L410.0400,329.0684L422.2800,351.3529L434.5200,319.8106L446.7600,381.3340
            L459.0000,399.1097L471.2400,395.6264L483.4800,389.5282L495.7200,371.0440L507.9600,370.6158L520.2000,385.0859L532.4400,387.5089L544.6800,384.7585L556.9200,382.7168L569.1600,377.1725
            L581.4000,392.9912L593.6400,402.4353L605.8800,429.7405L618.1200,411.3004L630.3600,425.9526L642.6000,391.7788L654.8400,368.3524L667.0800,390.2633L679.3200,407.9337L691.5600,442.0990
            L703.8000,427.4844"/>
   <path d="M91.8000,96.0416L104.0400,101.1446L116.2800,128.3937L128.5200,122.8071L140.7600,121.4346L153.0000,152.1182L165.2400,161.0429L177.4800,178.2938L189.7200,178.2552L201.9600,188.6222
            L214.2000,195.0415L226.4400,207.4654L238.6800,218.0093L250.9200,207.4981L263.1600,195.5226L275.4000,207.1731L287.6400,226.9502L299.8800,198.7539L312.1200,201.1517L324.3600,182.4952
            L336.6000,207.2846L348.8400,236.3118L361.0800,212.2454L373.3200,198.6477L385.5600,227.3301L397.8000,254.5870L410.0400,272.2397L422.2800,265.4823L434.5200,258.7068L446.7600,278.7579
            L459.0000,270.7747L471.2400,277.7948L483.4800,310.9606L495.7200,284.5432L507.9600,317.7692L520.2000,331.6480L532.4400,311.9832L544.6800,290.4226L556.9200,289.1938L569.1600,293.5615
            L581.4000,311.6930L593.6400,351.5547L605.8800,355.5056L618.1200,304.8433L630.3600,398.2968L642.6000,292.2418L654.8400,372.7842L667.0800,341.5258L679.3200,315.3313L691.5600,343.1614
            L703.8000,336.3122"/>
  </g>
  <g style="fill:none; stroke:#FFA500; stroke-width:  9.1800; stroke-linecap:butt; stroke-linejoin:miter; stroke-dasharray:none">
   <path d="M91.8000,96.0416L104.0400,117.2490L116.2800,130.6025L128.5200,142.7839L140.7600,153.3704L153.0000,158.8933L165.2400,169.5674L177.4800,179.9292L189.7200,181.9568L201.9600,192.6108
            L214.2000,205.6705L226.4400,222.2129L238.6800,234.8773L250.9200,235.1838L263.1600,234.8441L275.4000,226.4884L287.6400,239.8828L299.8800,253.8678L312.1200,246.5749L324.3600,268.7509
            L336.6000,273.6246L348.8400,283.2420L361.0800,284.7823L373.3200,282.3834L385.5600,287.1200L397.8000,294.0719L410.0400,294.8556L422.2800,312.6909L434.5200,311.4440L446.7600,316.7487
            L459.0000,322.1422L471.2400,319.5807L483.4800,308.5563L495.7200,300.9755L507.9600,299.8634L520.2000,307.2927L532.4400,314.8716L544.6800,315.0421L556.9200,322.2641L569.1600,325.8461
            L581.4000,321.9767L593.6400,337.7987L605.8800,338.0561L618.1200,344.6791L630.3600,362.6861L642.6000,345.6938L654.8400,348.4057L667.0800,350.5014L679.3200,350.0352L691.5600,350.7410
            L703.8000,351.2655"/>
  </g>
  <g style="fill:none; stroke:#000000; stroke-width:  0.9180; stroke-linecap:butt; stroke-linejoin:miter; stroke-dasharray:none">
   <path d="M91.8000,91.8000L703.8000,91.8000"/>
   <path d="M91.8000,520.2000L703.8000,520.2000"/>
   <path d="M153.0000,91.8000L153.0000,97.9200"/>
   <path d="M153.0000,520.2000L153.0000,514.0800"/>
   <path d="M275.4000,91.8000L275.4000,97.9200"/>
   <path d="M275.4000,520.2000L275.4000,514.0800"/>
   <path d="M397.8000,91.8000L397.8000,97.9200"/>
   <path d="M397.8000,520.2000L397.8000,514.0800"/>
   <path d="M520.2000,91.8000L520.2000,97.9200"/>
   <path d="M520.2000,520.2000L520.2000,514.0800"/>
   <path d="M642.6000,91.8000L642.6000,97.9200"/>
   <path d="M642.6000,520.2000L642.6000,514.0800"/>
   <path d="M91.8000,91.8000L91.8000,104.0400"/>
   <path d="M91.8000,520.2000L91.8000,507.9600"/>
   <path d="M214.2000,91.8000L214.2000,104.0400"/>
   <path d="M214.2000,520.2000L214.2000,507.9600"/>
   <path d="M336.6000,91.8000L336.6000,104.0400"/>
   <path d="M336.6000,520.2000L336.6000,507.9600"/>
   <path d="M459.0000,91.8000L459.0000,104.0400"/>
   <path d="M459.0000,520.2000L459.0000,507.9600"/>
   <path d="M581.4000,91.8000L581.4000,104.0400"/>
   <path d="M581.4000,520.2000L581.4000,507.9600"/>
   <path d="M703.8000,91.8000L703.8000,104.0400"/>
   <path d="M703.8000,520.2000L703.8000,507.9600"/>
   <path d="M91.8000,91.8000L91.8000,520.2000"/>
   <path d="M703.8000,91.8000L703.8000,520.2000"/>
   <path d="M91.8000,149.0614L97.9200,149.0614"/>
   <path d="M703.8000,149.0614L697.6800,149.0614"/>
   <path d="M91.8000,255.1010L97.9200,255.1010"/>
   <path d="M703.8000,255.1010L697.6800,255.1010"/>
   <path d="M91.8000,361.1406L97.9200,361.1406"/>
   <path d="M703.8000,361.1406L697.6800,361.1406"/>
   <path d="M91.8000,467.1802L97.9200,467.1802"/>
   <path d="M703.8000,467.1802L697.6800,467.1802"/>
   <path d="M91.8000,96.0416L104.0400,96.0416"/>
   <path d="M703.8000,96.0416L691.5600,96.0416"/>
   <path d="M91.8000,202.0812L104.0400,202.0812"/>
   <path d="M703.8000,202.0812L691.5600,202.0812"/>
   <path d="M91.8000,308.1208L104.0400,308.1208"/>
   <path d="M703.8000,308.1208L691.5600,308.1208"/>
   <path d="M91.8000,414.1604L104.0400,414.1604"/>
   <path d="M703.8000,414.1604L691.5600,414.1604"/>
   <path d="M91.8000,520.2000L104.0400,520.2000"/>
   <path d="M703.8000,520.2000L691.5600,520.2000"/>
   <path d="M91.8000,91.8000L91.8000,520.2000L703.8000,520.2000L703.8000,91.8000z"/>
  </g>
 </g>
</svg>
