<?xml version="1.0" encoding="ISO-8859-1"?>
<!DOCTYPE svg PUBLIC "-//W3C//DTD SVG 1.0//EN" "http://www.w3.org/TR/2001/REC-SVG-20010904/DTD/svg10.dtd">
<!-- generated by Grace-5.1.25 -->
<svg xml:space="preserve" width="11.0000in" height="8.5000in" viewBox="0.0000 0.0000 792.0000 612.0000">
 <g transform="translate(0,612.0000) scale(1,-1)">
 <desc></desc>
  <g style="fill:#FFFFFF; fill-rule:nonzero">
   <path  d="M0.0000,0.0000L0.0000,612.0000L792.0000,612.0000L792.0000,0.0000z"/>
  </g>
  <g style="fill:none; stroke:#008B00; stroke-width:  0.9180; stroke-linecap:butt; stroke-linejoin:miter; stroke-dasharray:none">
   <path d="M91.8000,91.8000L105.4000,100.3417L119.0000,111.7874L132.6000,112.7143L146.2000,125.3786L159.8000,124.3386L173.4000,153.8110L187.0000,159.3513L200.6000,154.3410L214.2000,167.4734
            L227.8000,180.1813L241.4000,178.5014L255.0000,183.9146L268.6000,202.7356L282.2000,206.8920L295.8000,195.8656L309.4000,198.5721L323.0000,223.2763L336.6000,204.9626L350.2000,205.4778
            L363.8000,197.4410L377.4000,191.6841L391.0000,182.5319L404.6000,171.9092L418.2000,189.5507L431.8000,198.9635L445.4000,203.5856L459.0000,219.3047L472.6000,234.2157L486.2000,247.8968
            L499.8000,260.2101L513.4000,264.5247L527.0000,254.8020L540.6000,256.4761L554.2000,240.5494L567.8000,264.0933L581.4000,237.6141L595.0000,247.8574L608.6000,271.6936L622.2000,282.2229
            L635.8000,282.4663L649.4000,286.7350L663.0000,305.8459L676.6000,311.4007L690.2000,293.1477L703.8000,328.0389L703.8612,327.8661"/>
   <path d="M91.8000,91.8000L105.4000,124.3659L119.0000,137.8649L132.6000,141.8448L146.2000,139.2303L159.8000,140.3358L173.4000,156.1565L187.0000,164.1267L200.6000,158.2446L214.2000,169.0180
            L227.8000,185.0546L241.4000,217.7216L255.0000,219.9630L268.6000,168.0744L282.2000,158.3943L295.8000,139.8170L309.4000,152.3010L323.0000,155.9579L336.6000,201.0963L350.2000,217.5330
            L363.8000,279.2740L377.4000,298.7813L391.0000,279.9429L404.6000,260.7663L418.2000,252.1229L431.8000,243.5758L445.4000,220.8238L459.0000,246.8421L472.6000,266.5484L486.2000,279.6235
            L499.8000,289.6233L513.4000,296.2799L527.0000,263.1145L540.6000,242.7333L554.2000,229.5320L567.8000,225.2758L581.4000,254.3335L595.0000,306.9885L608.6000,376.9938L622.2000,376.7577
            L635.8000,329.6209L649.4000,335.3925L663.0000,281.9238L676.6000,269.8158L690.2000,318.0983L703.8000,336.6305L703.8612,336.6281"/>
   <path d="M91.8000,91.8000L105.4000,117.2430L119.0000,123.8081L132.6000,135.9102L146.2000,156.3876L159.8000,166.5390L173.4000,176.0829L187.0000,172.3295L200.6000,161.9030L214.2000,153.0398
            L227.8000,174.1855L241.4000,201.6633L255.0000,196.7681L268.6000,193.8701L282.2000,195.5204L295.8000,201.2374L309.4000,206.0433L323.0000,245.4639L336.6000,247.6672L350.2000,260.3313
            L363.8000,274.2790L377.4000,267.9880L391.0000,275.3967L404.6000,282.3214L418.2000,274.7422L431.8000,271.0083L445.4000,296.1311L459.0000,320.8098L472.6000,284.8796L486.2000,287.1016
            L499.8000,291.1122L513.4000,300.6201L527.0000,288.9532L540.6000,291.8174L554.2000,284.0678L567.8000,282.4915L581.4000,296.9676L595.0000,306.5078L608.6000,302.1639L622.2000,303.7321
            L635.8000,322.5060L649.4000,334.6234L663.0000,328.1634L676.6000,354.5854L690.2000,356.1826L703.8000,330.7847L703.8612,330.8407"/>
   <path d="M91.8000,91.8000L92.2588,91.7388"/>
   <path d="M107.6807,91.7388L119.0000,100.4387L132.6000,108.0061L146.2000,118.8305L159.8000,115.2522L173.4000,120.9891L187.0000,116.9033L200.6000,124.3608L214.2000,131.5996L227.8000,138.5762
            L241.4000,153.2093L255.0000,166.6194L268.6000,163.5680L282.2000,149.0579L295.8000,152.5406L309.4000,177.1370L323.0000,197.0900L336.6000,201.1957L350.2000,243.3241L363.8000,237.0563
            L377.4000,249.8849L391.0000,252.6733L404.6000,256.1232L418.2000,257.7980L431.8000,241.4949L445.4000,243.7385L459.0000,249.6524L472.6000,242.9614L486.2000,206.1041L499.8000,220.7059
            L513.4000,190.7092L527.0000,196.2310L540.6000,199.3104L554.2000,208.2836L567.8000,221.9889L581.4000,227.5217L595.0000,216.2786L608.6000,215.0715L622.2000,219.9827L635.8000,203.6425
            L649.4000,222.1374L663.0000,218.7308L676.6000,247.6363L690.2000,221.8855L703.8000,242.1849L703.8612,242.2399"/>
   <path d="M91.8000,91.8000L105.4000,107.7291L119.0000,126.9392L132.6000,129.9308L146.2000,125.5558L159.8000,130.8075L173.4000,140.3495L187.0000,185.0556L200.6000,191.0525L214.2000,190.0424
            L227.8000,210.1004L241.4000,205.3648L255.0000,213.5003L268.6000,214.5575L282.2000,200.2950L295.8000,203.4864L309.4000,222.4844L323.0000,214.9083L336.6000,214.9270L350.2000,231.2757
            L363.8000,227.2823L377.4000,220.0090L391.0000,240.8270L404.6000,250.9049L418.2000,245.8479L431.8000,253.5583L445.4000,246.8085L459.0000,268.1256L472.6000,262.3792L486.2000,255.4780
            L499.8000,258.8662L513.4000,244.5959L527.0000,232.6713L540.6000,220.2755L554.2000,231.3392L567.8000,189.0444L581.4000,193.0909L595.0000,177.7786L608.6000,167.6574L622.2000,174.4936
            L635.8000,180.2609L649.4000,201.3042L663.0000,218.7047L676.6000,202.0227L690.2000,206.6889L703.8000,210.7293L703.8612,210.7622"/>
   <path d="M91.8000,91.8000L105.4000,108.9017L119.0000,106.2416L132.6000,115.5909L146.2000,119.1800L159.8000,124.4473L173.4000,130.2844L187.0000,124.2681L200.6000,135.5770L214.2000,150.1025
            L227.8000,157.7795L241.4000,166.4470L255.0000,171.0849L268.6000,175.3844L282.2000,180.2130L295.8000,179.9104L309.4000,188.6588L323.0000,186.5385L336.6000,197.0805L350.2000,205.9618
            L363.8000,203.6845L377.4000,224.3485L391.0000,220.3704L404.6000,219.1102L418.2000,223.4740L431.8000,258.7574L445.4000,236.2290L459.0000,229.3207L472.6000,233.8364L486.2000,229.5763
            L499.8000,235.0122L513.4000,239.2123L527.0000,216.1940L540.6000,245.1796L554.2000,230.9466L567.8000,251.6632L581.4000,273.0673L595.0000,264.9703L608.6000,259.4201L622.2000,247.6956
            L635.8000,244.7098L649.4000,262.9610L663.0000,270.2096L676.6000,273.0629L690.2000,267.8723L703.8000,300.7804L703.8612,300.8262"/>
   <path d="M91.8000,91.8000L105.4000,112.3298L119.0000,126.6630L132.6000,156.5750L146.2000,177.1908L159.8000,164.4202L173.4000,159.9542L187.0000,164.7290L200.6000,159.8878L214.2000,187.4467
            L227.8000,201.8211L241.4000,213.4607L255.0000,245.7615L268.6000,285.8778L282.2000,297.1949L295.8000,275.0705L309.4000,292.3445L323.0000,306.5059L336.6000,260.6934L350.2000,275.4019
            L363.8000,245.8780L377.4000,251.6344L391.0000,258.9220L404.6000,259.4049L418.2000,274.0420L431.8000,287.0913L445.4000,284.4330L459.0000,326.3450L472.6000,357.2139L486.2000,366.3199
            L499.8000,352.8734L513.4000,335.4072L527.0000,312.6413L540.6000,288.1743L554.2000,303.1171L567.8000,330.4371L581.4000,339.8180L595.0000,338.3928L608.6000,322.7780L622.2000,298.1808
            L635.8000,283.9897L649.4000,287.0645L663.0000,305.1546L676.6000,355.0993L690.2000,430.8693L703.8000,318.9108L703.8612,318.7310"/>
   <path d="M91.8000,91.8000L105.4000,107.6139L119.0000,120.4454L132.6000,140.3064L146.2000,153.0972L159.8000,164.7228L173.4000,163.6240L187.0000,175.3153L200.6000,175.2281L214.2000,180.4150
            L227.8000,187.9941L241.4000,213.9423L255.0000,228.4760L268.6000,224.2552L282.2000,232.1666L295.8000,205.3103L309.4000,223.0815L323.0000,257.1308L336.6000,218.2408L350.2000,250.8268
            L363.8000,241.6705L377.4000,240.6138L391.0000,274.4248L404.6000,295.5231L418.2000,291.7574L431.8000,281.7347L445.4000,278.4139L459.0000,281.3267L472.6000,280.5780L486.2000,267.4626
            L499.8000,266.8265L513.4000,280.3256L527.0000,276.1201L540.6000,271.7885L554.2000,252.4328L567.8000,252.3974L581.4000,270.1471L595.0000,254.8069L608.6000,258.7993L622.2000,301.4051
            L635.8000,298.5782L649.4000,303.5591L663.0000,281.8688L676.6000,306.3275L690.2000,283.3527L703.8000,286.0451L703.8612,286.1014"/>
   <path d="M91.8000,91.8000L105.4000,124.9216L119.0000,125.1234L132.6000,141.3727L146.2000,154.0484L159.8000,157.8684L173.4000,166.5157L187.0000,175.4736L200.6000,193.3717L214.2000,202.5366
            L227.8000,196.3175L241.4000,205.3238L255.0000,223.3545L268.6000,232.0889L282.2000,247.6097L295.8000,237.1778L309.4000,222.0399L323.0000,231.5728L336.6000,211.7166L350.2000,261.7040
            L363.8000,264.6205L377.4000,280.4967L391.0000,272.2429L404.6000,252.8730L418.2000,254.6976L431.8000,261.9958L445.4000,280.0857L459.0000,298.0916L472.6000,272.6054L486.2000,322.3163
            L499.8000,336.6791L513.4000,333.8645L527.0000,328.9372L540.6000,314.0019L554.2000,313.6560L567.8000,325.3478L581.4000,327.3056L595.0000,325.0833L608.6000,323.4336L622.2000,318.9538
            L635.8000,331.7353L649.4000,339.3662L663.0000,361.4287L676.6000,346.5291L690.2000,358.3681L703.8000,330.7557L703.8612,330.6705"/>
   <path d="M91.8000,91.8000L105.4000,95.9232L119.0000,117.9405L132.6000,113.4265L146.2000,112.3176L159.8000,137.1099L173.4000,144.3211L187.0000,158.2598L200.6000,158.2286L214.2000,166.6052
            L227.8000,171.7919L241.4000,181.8304L255.0000,190.3499L268.6000,181.8568L282.2000,172.1807L295.8000,181.5943L309.4000,197.5742L323.0000,174.7916L336.6000,176.7290L350.2000,161.6545
            L363.8000,181.6844L377.4000,205.1383L391.0000,185.6927L404.6000,174.7057L418.2000,197.8811L431.8000,219.9047L445.4000,234.1681L459.0000,228.7081L472.6000,223.2335L486.2000,239.4348
            L499.8000,232.9844L513.4000,238.6566L527.0000,265.4546L540.6000,244.1093L554.2000,270.9559L567.8000,282.1700L581.4000,266.2808L595.0000,248.8598L608.6000,247.8670L622.2000,251.3961
            L635.8000,266.0463L649.4000,298.2546L663.0000,301.4469L676.6000,260.5118L690.2000,336.0222L703.8000,250.3298L703.8612,250.6226"/>
  </g>
  <g style="fill:none; stroke:#FFA500; stroke-width:  0.9180; stroke-linecap:butt; stroke-linejoin:miter; stroke-dasharray:none">
   <path d="M91.8000,91.8000L105.4000,113.8173L119.0000,122.3505L132.6000,123.9069L146.2000,131.2256L159.8000,146.9798L173.4000,143.4163L187.0000,147.7472L200.6000,151.2224L214.2000,150.8500
            L227.8000,154.0964L241.4000,167.4467L255.0000,162.4494L268.6000,161.6280L282.2000,175.6421L295.8000,193.7740L309.4000,204.9405L323.0000,201.0269L336.6000,191.7646L350.2000,200.9518
            L363.8000,216.0287L377.4000,216.3880L391.0000,228.9196L404.6000,233.9701L418.2000,256.8189L431.8000,258.5440L445.4000,282.9199L459.0000,260.7775L472.6000,274.5819L486.2000,290.7993
            L499.8000,278.8103L513.4000,266.3527L527.0000,279.0745L540.6000,289.4399L554.2000,303.3607L567.8000,300.4257L581.4000,257.7501L595.0000,257.5723L608.6000,247.1115L622.2000,266.7396
            L635.8000,284.6077L649.4000,262.2976L663.0000,274.8856L676.6000,312.8072L690.2000,309.5373L703.8000,319.6276L703.8612,319.6233"/>
   <path d="M91.8000,91.8000L105.4000,112.6133L119.0000,119.2068L132.6000,123.8460L146.2000,124.7004L159.8000,127.7395L173.4000,125.9798L187.0000,133.3995L200.6000,148.4857L214.2000,155.9817
            L227.8000,147.4229L241.4000,139.5632L255.0000,145.7473L268.6000,151.0190L282.2000,161.4815L295.8000,172.6578L309.4000,186.2559L323.0000,180.8952L336.6000,191.8504L350.2000,182.4617
            L363.8000,182.9371L377.4000,196.8922L391.0000,194.1255L404.6000,175.9053L418.2000,177.0487L431.8000,188.0334L445.4000,175.3394L459.0000,219.5382L472.6000,173.5843L486.2000,200.5368
            L499.8000,202.5577L513.4000,207.4696L527.0000,211.9099L540.6000,212.4872L554.2000,199.5133L567.8000,185.4728L581.4000,201.6423L595.0000,203.3428L608.6000,194.3922L622.2000,222.6453
            L635.8000,210.8774L649.4000,225.8414L663.0000,208.2956L676.6000,195.6450L690.2000,182.9453L703.8000,191.4318L703.8612,191.4799"/>
   <path d="M91.8000,91.8000L105.4000,114.5169L119.0000,123.1290L132.6000,137.8678L146.2000,138.0671L159.8000,164.9695L173.4000,164.6843L187.0000,150.4245L200.6000,149.6517L214.2000,164.3450
            L227.8000,179.5895L241.4000,179.4403L255.0000,175.8781L268.6000,192.8889L282.2000,185.5782L295.8000,176.6226L309.4000,205.5031L323.0000,214.0981L336.6000,244.4111L350.2000,233.2055
            L363.8000,223.1282L377.4000,220.4951L391.0000,233.0336L404.6000,250.6308L418.2000,243.0016L431.8000,242.3556L445.4000,270.8670L459.0000,251.0490L472.6000,269.4192L486.2000,323.8549
            L499.8000,303.9417L513.4000,270.2853L527.0000,275.2774L540.6000,299.6531L554.2000,296.2825L567.8000,252.3189L581.4000,207.4246L595.0000,209.0521L608.6000,212.3732L622.2000,184.6733
            L635.8000,265.6620L649.4000,305.6114L663.0000,300.7836L676.6000,300.5811L690.2000,314.0662L703.8000,302.9025L703.8612,302.8023"/>
   <path d="M91.8000,91.8000L105.4000,111.6729L119.0000,102.5538L132.6000,101.8553L146.2000,110.3917L159.8000,126.4214L173.4000,122.5949L187.0000,134.3383L200.6000,128.8238L214.2000,139.9471
            L227.8000,149.7134L241.4000,143.8044L255.0000,149.6215L268.6000,170.0367L282.2000,174.5476L295.8000,158.5958L309.4000,167.9502L323.0000,164.8374L336.6000,149.9885L350.2000,146.1856
            L363.8000,153.3910L377.4000,168.3724L391.0000,198.2911L404.6000,227.7092L418.2000,241.5592L431.8000,239.6475L445.4000,225.3854L459.0000,203.3859L472.6000,185.3581L486.2000,147.2451
            L499.8000,152.6819L513.4000,163.9240L527.0000,156.7827L540.6000,153.9652L554.2000,165.4989L567.8000,171.2828L581.4000,179.2226L595.0000,194.7042L608.6000,176.2562L622.2000,155.2215
            L635.8000,149.9271L649.4000,138.7904L663.0000,156.3795L676.6000,151.9968L690.2000,156.1424L703.8000,153.6751L703.8612,153.6470"/>
   <path d="M91.8000,91.8000L105.4000,95.0031L119.0000,98.2897L132.6000,104.4165L146.2000,105.4571L159.8000,125.0014L173.4000,132.2021L187.0000,139.1472L200.6000,148.7471L214.2000,156.1034
            L227.8000,155.5165L241.4000,157.3615L255.0000,169.9330L268.6000,175.9157L282.2000,171.8677L295.8000,178.6171L309.4000,179.5177L323.0000,186.4110L336.6000,205.3304L350.2000,192.9562
            L363.8000,189.3786L377.4000,193.2492L391.0000,194.8071L404.6000,210.9170L418.2000,212.1348L431.8000,205.3961L445.4000,218.8114L459.0000,234.2707L472.6000,233.3160L486.2000,226.3351
            L499.8000,234.0349L513.4000,228.1598L527.0000,249.0455L540.6000,230.9280L554.2000,222.5036L567.8000,228.2918L581.4000,242.1125L595.0000,253.4609L608.6000,256.4206L622.2000,261.3937
            L635.8000,263.9887L649.4000,253.6280L663.0000,277.3017L676.6000,289.3796L690.2000,276.3471L703.8000,259.1104L703.8612,259.0716"/>
   <path d="M91.8000,91.8000L105.4000,124.8862L119.0000,113.6686L132.6000,138.9020L146.2000,156.8917L159.8000,171.4770L173.4000,176.6734L187.0000,166.4353L200.6000,176.5754L214.2000,190.3870
            L227.8000,197.4956L241.4000,202.4036L255.0000,211.9183L268.6000,222.1210L282.2000,224.2702L295.8000,232.2621L309.4000,223.6655L323.0000,222.9611L336.6000,255.0811L350.2000,272.3895
            L363.8000,246.0010L377.4000,257.2945L391.0000,282.3518L404.6000,268.2213L418.2000,275.7655L431.8000,288.0846L445.4000,297.4769L459.0000,312.2840L472.6000,300.5628L486.2000,268.5879
            L499.8000,312.2966L513.4000,326.5666L527.0000,319.1667L540.6000,274.7717L554.2000,271.7263L567.8000,299.8814L581.4000,331.3336L595.0000,334.2104L608.6000,323.2065L622.2000,327.1820
            L635.8000,318.9317L649.4000,282.2006L663.0000,316.9413L676.6000,342.9182L690.2000,356.6627L703.8000,379.6380L703.8612,379.5167"/>
   <path d="M91.8000,91.8000L105.4000,129.4917L119.0000,170.0226L132.6000,191.8208L146.2000,213.0539L159.8000,212.6805L173.4000,217.0149L187.0000,195.5271L200.6000,227.8217L214.2000,224.4067
            L227.8000,192.4792L241.4000,210.0920L255.0000,228.0389L268.6000,179.6327L282.2000,198.2215L295.8000,213.1871L309.4000,184.5025L323.0000,179.0130L336.6000,190.3696L350.2000,224.3942
            L363.8000,247.5814L377.4000,265.5681L391.0000,302.6087L404.6000,330.2487L418.2000,318.5902L431.8000,347.9212L445.4000,336.0130L459.0000,310.0524L472.6000,306.7149L486.2000,368.7007
            L499.8000,372.7286L513.4000,347.8428L527.0000,322.7637L540.6000,307.0684L554.2000,307.5856L567.8000,304.4615L581.4000,278.0855L595.0000,318.0905L608.6000,276.9902L622.2000,323.9654
            L635.8000,375.9847L649.4000,409.1657L663.0000,399.5647L676.6000,437.4213L690.2000,483.8318L703.8000,465.5779L703.8612,465.3905"/>
   <path d="M91.8000,91.8000L105.4000,111.0111L119.0000,132.1759L132.6000,121.7968L146.2000,157.8073L159.8000,147.2895L173.4000,165.3648L187.0000,170.2480L200.6000,188.5614L214.2000,178.8598
            L227.8000,179.7279L241.4000,187.8030L255.0000,184.0174L268.6000,184.5413L282.2000,192.8169L295.8000,214.6823L309.4000,199.2535L323.0000,203.5770L336.6000,229.2648L350.2000,229.4256
            L363.8000,215.4839L377.4000,219.7743L391.0000,237.7609L404.6000,237.3154L418.2000,229.0952L431.8000,244.3860L445.4000,242.2705L459.0000,333.6911L472.6000,260.0908L486.2000,293.2693
            L499.8000,260.8263L513.4000,254.9664L527.0000,269.4436L540.6000,265.7438L554.2000,255.2767L567.8000,249.3321L581.4000,244.1336L595.0000,262.0298L608.6000,282.9520L622.2000,273.3764
            L635.8000,331.1354L649.4000,332.8138L663.0000,297.3740L676.6000,296.2698L690.2000,308.1034L703.8000,317.2461L703.8612,317.3773"/>
   <path d="M91.8000,91.8000L105.4000,105.1476L119.0000,105.4283L132.6000,114.2171L146.2000,122.4740L159.8000,139.2269L173.4000,133.6819L187.0000,133.0682L200.6000,134.9927L214.2000,145.2669
            L227.8000,156.1996L241.4000,158.6309L255.0000,162.2243L268.6000,173.8674L282.2000,166.1163L295.8000,166.2570L309.4000,171.6381L323.0000,197.3045L336.6000,176.1542L350.2000,200.5162
            L363.8000,217.3251L377.4000,224.0215L391.0000,229.7178L404.6000,229.8116L418.2000,219.7543L431.8000,198.4263L445.4000,204.2056L459.0000,203.9293L472.6000,234.3121L486.2000,255.5033
            L499.8000,238.6660L513.4000,229.2287L527.0000,233.6196L540.6000,239.3746L554.2000,257.9129L567.8000,275.5090L581.4000,250.5551L595.0000,222.3365L608.6000,247.3154L622.2000,323.9972
            L635.8000,282.7047L649.4000,290.9390L663.0000,317.3982L676.6000,318.4606L690.2000,331.3669L703.8000,334.4646L703.8612,334.3652"/>
   <path d="M91.8000,91.8000L105.4000,99.7660L119.0000,103.5550L132.6000,116.2886L146.2000,117.9124L159.8000,125.4906L173.4000,140.1874L187.0000,144.4158L200.6000,145.3122L214.2000,150.9023
            L227.8000,149.9947L241.4000,145.5966L255.0000,150.2759L268.6000,153.8467L282.2000,157.6968L295.8000,174.2309L309.4000,166.0134L323.0000,158.4920L336.6000,190.0531L350.2000,203.5451
            L363.8000,201.7208L377.4000,206.8275L391.0000,219.0258L404.6000,220.4842L418.2000,218.4547L431.8000,233.2510L445.4000,240.2160L459.0000,244.0511L472.6000,246.7208L486.2000,246.3148
            L499.8000,237.3525L513.4000,264.4980L527.0000,259.9822L540.6000,260.8631L554.2000,266.1240L567.8000,263.1098L581.4000,265.0536L595.0000,267.3723L608.6000,256.3917L622.2000,247.9904
            L635.8000,257.4062L649.4000,251.2214L663.0000,236.1444L676.6000,227.5371L690.2000,225.0067L703.8000,242.9245L703.8612,242.9868"/>
  </g>
  <g style="fill:none; stroke:#008B00; stroke-width:  9.1800; stroke-linecap:butt; stroke-linejoin:miter; stroke-dasharray:none">
   <path d="M91.8000,91.8000L105.4000,108.9356L119.0000,119.7252L132.6000,129.5678L146.2000,138.1217L159.8000,142.5842L173.4000,151.2088L187.0000,159.5812L200.6000,161.2195L214.2000,169.8279
            L227.8000,180.3802L241.4000,193.7465L255.0000,203.9792L268.6000,204.2269L282.2000,203.9525L295.8000,197.2010L309.4000,208.0237L323.0000,219.3236L336.6000,213.4309L350.2000,231.3491
            L363.8000,235.2870L377.4000,243.0579L391.0000,244.3025L404.6000,242.3642L418.2000,246.1914L431.8000,251.8085L445.4000,252.4417L459.0000,266.8527L472.6000,265.8452L486.2000,270.1314
            L499.8000,274.4893L513.4000,272.4196L527.0000,263.5119L540.6000,257.3866L554.2000,256.4880L567.8000,262.4909L581.4000,268.6147L595.0000,268.7524L608.6000,274.5878L622.2000,277.4820
            L635.8000,274.3556L649.4000,287.1398L663.0000,287.3477L676.6000,292.6991L690.2000,307.2488L703.8000,293.5190L703.8612,293.5289"/>
  </g>
  <g style="fill:none; stroke:#FFA500; stroke-width:  9.1800; stroke-linecap:butt; stroke-linejoin:miter; stroke-dasharray:none">
   <path d="M91.8000,91.8000L105.4000,111.7926L119.0000,119.0380L132.6000,127.4918L146.2000,137.7981L159.8000,148.7276L173.4000,152.1800L187.0000,151.4751L200.6000,160.0194L214.2000,165.7050
            L227.8000,166.2236L241.4000,169.2142L255.0000,174.0104L268.6000,176.5497L282.2000,180.8239L295.8000,188.0887L309.4000,188.9240L323.0000,190.8616L336.6000,202.4268L350.2000,208.6031
            L363.8000,209.2976L377.4000,216.8883L391.0000,232.0642L404.6000,238.5214L418.2000,239.2223L431.8000,244.6046L445.4000,249.3505L459.0000,257.3029L472.6000,248.4661L486.2000,262.1147
            L499.8000,259.3896L513.4000,255.9294L527.0000,257.7066L540.6000,253.4295L554.2000,254.5785L567.8000,253.0086L581.4000,245.7313L595.0000,252.2172L608.6000,247.3410L622.2000,258.7185
            L635.8000,274.1226L649.4000,275.2509L663.0000,278.5069L676.6000,287.3017L690.2000,294.4010L703.8000,296.6598L703.8612,296.6261"/>
  </g>
  <g style="fill:none; stroke:#000000; stroke-width:  0.9180; stroke-linecap:butt; stroke-linejoin:miter; stroke-dasharray:none">
   <path d="M91.8000,91.8000L703.8000,91.8000"/>
   <path d="M91.8000,520.2000L703.8000,520.2000"/>
   <path d="M159.8000,91.8000L159.8000,97.9200"/>
   <path d="M159.8000,520.2000L159.8000,514.0800"/>
   <path d="M295.8000,91.8000L295.8000,97.9200"/>
   <path d="M295.8000,520.2000L295.8000,514.0800"/>
   <path d="M431.8000,91.8000L431.8000,97.9200"/>
   <path d="M431.8000,520.2000L431.8000,514.0800"/>
   <path d="M567.8000,91.8000L567.8000,97.9200"/>
   <path d="M567.8000,520.2000L567.8000,514.0800"/>
   <path d="M703.8000,91.8000L703.8000,97.9200"/>
   <path d="M703.8000,520.2000L703.8000,514.0800"/>
   <path d="M91.8000,91.8000L91.8000,104.0400"/>
   <path d="M91.8000,520.2000L91.8000,507.9600"/>
   <path d="M227.8000,91.8000L227.8000,104.0400"/>
   <path d="M227.8000,520.2000L227.8000,507.9600"/>
   <path d="M363.8000,91.8000L363.8000,104.0400"/>
   <path d="M363.8000,520.2000L363.8000,507.9600"/>
   <path d="M499.8000,91.8000L499.8000,104.0400"/>
   <path d="M499.8000,520.2000L499.8000,507.9600"/>
   <path d="M635.8000,91.8000L635.8000,104.0400"/>
   <path d="M635.8000,520.2000L635.8000,507.9600"/>
   <path d="M91.8000,91.8000L91.8000,520.2000"/>
   <path d="M703.8000,91.8000L703.8000,520.2000"/>
   <path d="M91.8000,134.6400L97.9200,134.6400"/>
   <path d="M703.8000,134.6400L697.6800,134.6400"/>
   <path d="M91.8000,220.3200L97.9200,220.3200"/>
   <path d="M703.8000,220.3200L697.6800,220.3200"/>
   <path d="M91.8000,306.0000L97.9200,306.0000"/>
   <path d="M703.8000,306.0000L697.6800,306.0000"/>
   <path d="M91.8000,391.6800L97.9200,391.6800"/>
   <path d="M703.8000,391.6800L697.6800,391.6800"/>
   <path d="M91.8000,477.3600L97.9200,477.3600"/>
   <path d="M703.8000,477.3600L697.6800,477.3600"/>
   <path d="M91.8000,91.8000L104.0400,91.8000"/>
   <path d="M703.8000,91.8000L691.5600,91.8000"/>
   <path d="M91.8000,177.4800L104.0400,177.4800"/>
   <path d="M703.8000,177.4800L691.5600,177.4800"/>
   <path d="M91.8000,263.1600L104.0400,263.1600"/>
   <path d="M703.8000,263.1600L691.5600,263.1600"/>
   <path d="M91.8000,348.8400L104.0400,348.8400"/>
   <path d="M703.8000,348.8400L691.5600,348.8400"/>
   <path d="M91.8000,434.5200L104.0400,434.5200"/>
   <path d="M703.8000,434.5200L691.5600,434.5200"/>
   <path d="M91.8000,520.2000L104.0400,520.2000"/>
   <path d="M703.8000,520.2000L691.5600,520.2000"/>
   <path d="M91.8000,91.8000L91.8000,520.2000L703.8000,520.2000L703.8000,91.8000z"/>
  </g>
 </g>
</svg>
