<?xml version="1.0" encoding="ISO-8859-1"?>
<!DOCTYPE svg PUBLIC "-//W3C//DTD SVG 1.0//EN" "http://www.w3.org/TR/2001/REC-SVG-20010904/DTD/svg10.dtd">
<!-- generated by Grace-5.1.25 -->
<svg xml:space="preserve" width="11.0000in" height="8.5000in" viewBox="0.0000 0.0000 792.0000 612.0000">
 <g transform="translate(0,612.0000) scale(1,-1)">
  <g style="fill:#FFFFFF; fill-rule:nonzero">
   <path  d="M0.0000,0.0000L0.0000,612.0000L792.0000,612.0000L792.0000,0.0000z"/>
  </g>
  <g style="fill:none; stroke:#FF0000; stroke-width:  4.5900; stroke-linecap:butt; stroke-linejoin:miter; stroke-dasharray:none">
   <path d="M61.1388,61.1388L159.1200,159.1200L550.8000,550.8000"/>
  </g>
  <g style="fill:none; stroke:#000000; stroke-width:  0.9180; stroke-linecap:butt; stroke-linejoin:miter; stroke-dasharray:none">
   <ellipse  rx="6.1200" ry="6.1200" cx="157.1241" cy="180.5983"/>
   <ellipse  rx="6.1200" ry="6.1200" cx="157.1241" cy="180.5983"/>
   <ellipse  rx="6.1200" ry="6.1200" cx="159.7580" cy="174.6928"/>
   <ellipse  rx="6.1200" ry="6.1200" cx="160.9976" cy="245.1388"/>
   <ellipse  rx="6.1200" ry="6.1200" cx="161.3419" cy="185.8843"/>
   <ellipse  rx="6.1200" ry="6.1200" cx="161.4100" cy="176.4637"/>
   <ellipse  rx="6.1200" ry="6.1200" cx="163.1089" cy="144.9200"/>
   <ellipse  rx="6.1200" ry="6.1200" cx="164.1042" cy="157.7795"/>
   <ellipse  rx="6.1200" ry="6.1200" cx="164.2875" cy="174.1159"/>
   <ellipse  rx="6.1200" ry="6.1200" cx="164.8335" cy="172.0132"/>
   <ellipse  rx="6.1200" ry="6.1200" cx="164.9216" cy="155.8877"/>
   <ellipse  rx="6.1200" ry="6.1200" cx="164.9216" cy="155.8877"/>
   <ellipse  rx="6.1200" ry="6.1200" cx="165.9330" cy="160.2983"/>
   <ellipse  rx="6.1200" ry="6.1200" cx="166.5051" cy="150.7980"/>
   <ellipse  rx="6.1200" ry="6.1200" cx="168.3074" cy="164.4608"/>
   <ellipse  rx="6.1200" ry="6.1200" cx="169.4684" cy="148.8908"/>
   <ellipse  rx="6.1200" ry="6.1200" cx="170.9176" cy="186.8363"/>
   <ellipse  rx="6.1200" ry="6.1200" cx="170.9176" cy="186.8363"/>
   <ellipse  rx="6.1200" ry="6.1200" cx="172.0146" cy="178.5621"/>
   <ellipse  rx="6.1200" ry="6.1200" cx="172.0842" cy="156.9686"/>
   <ellipse  rx="6.1200" ry="6.1200" cx="172.5353" cy="144.1559"/>
   <ellipse  rx="6.1200" ry="6.1200" cx="172.7827" cy="174.8890"/>
   <ellipse  rx="6.1200" ry="6.1200" cx="172.7827" cy="174.8890"/>
   <ellipse  rx="6.1200" ry="6.1200" cx="173.3625" cy="170.9185"/>
   <ellipse  rx="6.1200" ry="6.1200" cx="173.5309" cy="180.6551"/>
   <ellipse  rx="6.1200" ry="6.1200" cx="174.3228" cy="161.0497"/>
   <ellipse  rx="6.1200" ry="6.1200" cx="174.7702" cy="212.2453"/>
   <ellipse  rx="6.1200" ry="6.1200" cx="174.8904" cy="146.4941"/>
   <ellipse  rx="6.1200" ry="6.1200" cx="174.9835" cy="192.8724"/>
   <ellipse  rx="6.1200" ry="6.1200" cx="174.9835" cy="192.8724"/>
   <ellipse  rx="6.1200" ry="6.1200" cx="174.9835" cy="192.8724"/>
   <ellipse  rx="6.1200" ry="6.1200" cx="175.0783" cy="166.4251"/>
   <ellipse  rx="6.1200" ry="6.1200" cx="175.2880" cy="191.2984"/>
   <ellipse  rx="6.1200" ry="6.1200" cx="176.1921" cy="205.7013"/>
   <ellipse  rx="6.1200" ry="6.1200" cx="176.7982" cy="173.8683"/>
   <ellipse  rx="6.1200" ry="6.1200" cx="177.7237" cy="185.6352"/>
   <ellipse  rx="6.1200" ry="6.1200" cx="177.8977" cy="179.9951"/>
   <ellipse  rx="6.1200" ry="6.1200" cx="178.3474" cy="167.1446"/>
   <ellipse  rx="6.1200" ry="6.1200" cx="178.3474" cy="167.1446"/>
   <ellipse  rx="6.1200" ry="6.1200" cx="178.4634" cy="176.1583"/>
   <ellipse  rx="6.1200" ry="6.1200" cx="178.5633" cy="161.6277"/>
   <ellipse  rx="6.1200" ry="6.1200" cx="178.9561" cy="160.6494"/>
   <ellipse  rx="6.1200" ry="6.1200" cx="178.9561" cy="160.6494"/>
   <ellipse  rx="6.1200" ry="6.1200" cx="179.0261" cy="200.0582"/>
   <ellipse  rx="6.1200" ry="6.1200" cx="179.5807" cy="168.1540"/>
   <ellipse  rx="6.1200" ry="6.1200" cx="179.6107" cy="175.8687"/>
   <ellipse  rx="6.1200" ry="6.1200" cx="179.6679" cy="164.0995"/>
   <ellipse  rx="6.1200" ry="6.1200" cx="179.8774" cy="157.1027"/>
   <ellipse  rx="6.1200" ry="6.1200" cx="179.8774" cy="157.1027"/>
   <ellipse  rx="6.1200" ry="6.1200" cx="180.5155" cy="175.8718"/>
   <ellipse  rx="6.1200" ry="6.1200" cx="181.3166" cy="171.1700"/>
   <ellipse  rx="6.1200" ry="6.1200" cx="182.5879" cy="191.4490"/>
   <ellipse  rx="6.1200" ry="6.1200" cx="183.1889" cy="207.4093"/>
   <ellipse  rx="6.1200" ry="6.1200" cx="183.7000" cy="174.7220"/>
   <ellipse  rx="6.1200" ry="6.1200" cx="183.8832" cy="146.2057"/>
   <ellipse  rx="6.1200" ry="6.1200" cx="184.0145" cy="145.0040"/>
   <ellipse  rx="6.1200" ry="6.1200" cx="184.4092" cy="334.4220"/>
   <ellipse  rx="6.1200" ry="6.1200" cx="184.6324" cy="165.1171"/>
   <ellipse  rx="6.1200" ry="6.1200" cx="185.2451" cy="169.2078"/>
   <ellipse  rx="6.1200" ry="6.1200" cx="185.5388" cy="172.5186"/>
   <ellipse  rx="6.1200" ry="6.1200" cx="185.6410" cy="252.2893"/>
   <ellipse  rx="6.1200" ry="6.1200" cx="186.2852" cy="157.2071"/>
   <ellipse  rx="6.1200" ry="6.1200" cx="186.6742" cy="165.7560"/>
   <ellipse  rx="6.1200" ry="6.1200" cx="187.4770" cy="170.9580"/>
   <ellipse  rx="6.1200" ry="6.1200" cx="187.4770" cy="170.9580"/>
   <ellipse  rx="6.1200" ry="6.1200" cx="188.0012" cy="193.7785"/>
   <ellipse  rx="6.1200" ry="6.1200" cx="188.1695" cy="180.6276"/>
   <ellipse  rx="6.1200" ry="6.1200" cx="188.3338" cy="181.8944"/>
   <ellipse  rx="6.1200" ry="6.1200" cx="188.6235" cy="499.5088"/>
   <ellipse  rx="6.1200" ry="6.1200" cx="188.9102" cy="156.6921"/>
   <ellipse  rx="6.1200" ry="6.1200" cx="188.9739" cy="194.8045"/>
   <ellipse  rx="6.1200" ry="6.1200" cx="188.9739" cy="194.8045"/>
   <ellipse  rx="6.1200" ry="6.1200" cx="189.2690" cy="157.1487"/>
   <ellipse  rx="6.1200" ry="6.1200" cx="189.4346" cy="184.1926"/>
   <ellipse  rx="6.1200" ry="6.1200" cx="190.0041" cy="161.9347"/>
   <ellipse  rx="6.1200" ry="6.1200" cx="190.3482" cy="312.5644"/>
   <ellipse  rx="6.1200" ry="6.1200" cx="190.3482" cy="312.5644"/>
   <ellipse  rx="6.1200" ry="6.1200" cx="190.6464" cy="163.0237"/>
   <ellipse  rx="6.1200" ry="6.1200" cx="190.7442" cy="162.9214"/>
   <ellipse  rx="6.1200" ry="6.1200" cx="191.2395" cy="191.5343"/>
   <ellipse  rx="6.1200" ry="6.1200" cx="192.0691" cy="149.1039"/>
   <ellipse  rx="6.1200" ry="6.1200" cx="192.0965" cy="298.6265"/>
   <ellipse  rx="6.1200" ry="6.1200" cx="192.1323" cy="144.6743"/>
   <ellipse  rx="6.1200" ry="6.1200" cx="192.2378" cy="172.8379"/>
   <ellipse  rx="6.1200" ry="6.1200" cx="192.9148" cy="195.9712"/>
   <ellipse  rx="6.1200" ry="6.1200" cx="193.8242" cy="271.1731"/>
   <ellipse  rx="6.1200" ry="6.1200" cx="194.2434" cy="176.4924"/>
   <ellipse  rx="6.1200" ry="6.1200" cx="195.4491" cy="240.7530"/>
   <ellipse  rx="6.1200" ry="6.1200" cx="195.5469" cy="170.7499"/>
   <ellipse  rx="6.1200" ry="6.1200" cx="195.5469" cy="170.7499"/>
   <ellipse  rx="6.1200" ry="6.1200" cx="195.5469" cy="170.7499"/>
   <ellipse  rx="6.1200" ry="6.1200" cx="196.2453" cy="180.5353"/>
   <ellipse  rx="6.1200" ry="6.1200" cx="196.5603" cy="175.6163"/>
   <ellipse  rx="6.1200" ry="6.1200" cx="197.0944" cy="199.4950"/>
   <ellipse  rx="6.1200" ry="6.1200" cx="197.2854" cy="165.0746"/>
   <ellipse  rx="6.1200" ry="6.1200" cx="199.4825" cy="197.8772"/>
   <ellipse  rx="6.1200" ry="6.1200" cx="202.1638" cy="164.8506"/>
   <ellipse  rx="6.1200" ry="6.1200" cx="202.2446" cy="172.5621"/>
   <ellipse  rx="6.1200" ry="6.1200" cx="202.2446" cy="172.5621"/>
   <ellipse  rx="6.1200" ry="6.1200" cx="202.9541" cy="194.2446"/>
   <ellipse  rx="6.1200" ry="6.1200" cx="203.3237" cy="164.3204"/>
   <ellipse  rx="6.1200" ry="6.1200" cx="205.5956" cy="147.3569"/>
   <ellipse  rx="6.1200" ry="6.1200" cx="206.1341" cy="162.8445"/>
   <ellipse  rx="6.1200" ry="6.1200" cx="208.0360" cy="173.4459"/>
   <ellipse  rx="6.1200" ry="6.1200" cx="208.1537" cy="149.8042"/>
   <ellipse  rx="6.1200" ry="6.1200" cx="212.5155" cy="172.5717"/>
   <ellipse  rx="6.1200" ry="6.1200" cx="212.7386" cy="169.9670"/>
   <ellipse  rx="6.1200" ry="6.1200" cx="215.6067" cy="253.0937"/>
   <ellipse  rx="6.1200" ry="6.1200" cx="215.6548" cy="270.3610"/>
   <ellipse  rx="6.1200" ry="6.1200" cx="217.2222" cy="467.4784"/>
   <ellipse  rx="6.1200" ry="6.1200" cx="220.0123" cy="186.9817"/>
   <ellipse  rx="6.1200" ry="6.1200" cx="220.8348" cy="175.4934"/>
   <ellipse  rx="6.1200" ry="6.1200" cx="220.8348" cy="175.4934"/>
   <ellipse  rx="6.1200" ry="6.1200" cx="221.5390" cy="170.4548"/>
   <path d="M61.2000,61.2000L550.8000,61.2000"/>
   <path d="M61.2000,550.8000L550.8000,550.8000"/>
   <path d="M61.2000,61.2000L61.2000,67.3200"/>
   <path d="M61.2000,550.8000L61.2000,544.6800"/>
   <path d="M257.0400,61.2000L257.0400,67.3200"/>
   <path d="M257.0400,550.8000L257.0400,544.6800"/>
   <path d="M452.8800,61.2000L452.8800,67.3200"/>
   <path d="M452.8800,550.8000L452.8800,544.6800"/>
   <path d="M159.1200,61.2000L159.1200,73.4400"/>
   <path d="M159.1200,550.8000L159.1200,538.5600"/>
   <path d="M354.9600,61.2000L354.9600,73.4400"/>
   <path d="M354.9600,550.8000L354.9600,538.5600"/>
   <path d="M550.8000,61.2000L550.8000,73.4400"/>
   <path d="M550.8000,550.8000L550.8000,538.5600"/>
   <path d="M61.2000,61.2000L61.2000,550.8000"/>
   <path d="M550.8000,61.2000L550.8000,550.8000"/>
   <path d="M61.2000,61.2000L67.3200,61.2000"/>
   <path d="M550.8000,61.2000L544.6800,61.2000"/>
   <path d="M61.2000,257.0400L67.3200,257.0400"/>
   <path d="M550.8000,257.0400L544.6800,257.0400"/>
   <path d="M61.2000,452.8800L67.3200,452.8800"/>
   <path d="M550.8000,452.8800L544.6800,452.8800"/>
   <path d="M61.2000,159.1200L73.4400,159.1200"/>
   <path d="M550.8000,159.1200L538.5600,159.1200"/>
   <path d="M61.2000,354.9600L73.4400,354.9600"/>
   <path d="M550.8000,354.9600L538.5600,354.9600"/>
   <path d="M61.2000,550.8000L73.4400,550.8000"/>
   <path d="M550.8000,550.8000L538.5600,550.8000"/>
   <path d="M61.2000,61.2000L550.8000,61.2000"/>
   <path d="M61.2000,550.8000L550.8000,550.8000"/>
   <path d="M61.2000,61.2000L61.2000,67.3200"/>
   <path d="M61.2000,550.8000L61.2000,544.6800"/>
   <path d="M257.0400,61.2000L257.0400,67.3200"/>
   <path d="M257.0400,550.8000L257.0400,544.6800"/>
   <path d="M452.8800,61.2000L452.8800,67.3200"/>
   <path d="M452.8800,550.8000L452.8800,544.6800"/>
   <path d="M159.1200,61.2000L159.1200,73.4400"/>
   <path d="M159.1200,550.8000L159.1200,538.5600"/>
   <path d="M354.9600,61.2000L354.9600,73.4400"/>
   <path d="M354.9600,550.8000L354.9600,538.5600"/>
   <path d="M550.8000,61.2000L550.8000,73.4400"/>
   <path d="M550.8000,550.8000L550.8000,538.5600"/>
   <path d="M61.2000,61.2000L61.2000,550.8000"/>
   <path d="M550.8000,61.2000L550.8000,550.8000"/>
   <path d="M61.2000,61.2000L67.3200,61.2000"/>
   <path d="M550.8000,61.2000L544.6800,61.2000"/>
   <path d="M61.2000,257.0400L67.3200,257.0400"/>
   <path d="M550.8000,257.0400L544.6800,257.0400"/>
   <path d="M61.2000,452.8800L67.3200,452.8800"/>
   <path d="M550.8000,452.8800L544.6800,452.8800"/>
   <path d="M61.2000,159.1200L73.4400,159.1200"/>
   <path d="M550.8000,159.1200L538.5600,159.1200"/>
   <path d="M61.2000,354.9600L73.4400,354.9600"/>
   <path d="M550.8000,354.9600L538.5600,354.9600"/>
   <path d="M61.2000,550.8000L73.4400,550.8000"/>
   <path d="M550.8000,550.8000L538.5600,550.8000"/>
   <path d="M61.2000,61.2000L61.2000,550.8000L550.8000,550.8000L550.8000,61.2000z"/>
  </g>
 </g>
</svg>
