<?xml version="1.0" encoding="ISO-8859-1"?>
<!DOCTYPE svg PUBLIC "-//W3C//DTD SVG 1.0//EN" "http://www.w3.org/TR/2001/REC-SVG-20010904/DTD/svg10.dtd">
<!-- generated by Grace-5.1.25 -->
<svg xml:space="preserve" width="11.0000in" height="8.5000in" viewBox="0.0000 0.0000 792.0000 612.0000">
 <g transform="translate(0,612.0000) scale(1,-1)">
  <g style="fill:#FFFFFF; fill-rule:nonzero">
   <path  d="M0.0000,0.0000L0.0000,612.0000L792.0000,612.0000L792.0000,0.0000z"/>
  </g>
  <g style="fill:none; stroke:#000000; stroke-width:  0.9180; stroke-linecap:butt; stroke-linejoin:miter; stroke-dasharray:none">
   <path d="M195.8400,91.8000L195.8400,106.0800L208.0800,106.0800L208.0800,91.8000z"/>
   <path d="M227.3143,91.8000L227.3143,148.9200L239.5543,148.9200L239.5543,91.8000z"/>
   <path d="M258.7886,91.8000L258.7886,263.1600L271.0286,263.1600L271.0286,91.8000z"/>
   <path d="M290.2629,91.8000L290.2629,263.1600L302.5029,263.1600L302.5029,91.8000z"/>
   <path d="M321.7371,91.8000L321.7371,248.8800L333.9771,248.8800L333.9771,91.8000z"/>
   <path d="M353.2114,91.8000L353.2114,306.0000L365.4514,306.0000L365.4514,91.8000z"/>
   <path d="M384.6857,91.8000L384.6857,306.0000L396.9257,306.0000L396.9257,91.8000z"/>
   <path d="M416.1600,91.8000L416.1600,334.5600L428.4000,334.5600L428.4000,91.8000z"/>
   <path d="M447.6343,91.8000L447.6343,220.3200L459.8743,220.3200L459.8743,91.8000z"/>
   <path d="M479.1086,91.8000L479.1086,134.6400L491.3486,134.6400L491.3486,91.8000z"/>
   <path d="M510.5829,91.8000L510.5829,134.6400L522.8229,134.6400L522.8229,91.8000z"/>
   <path d="M542.0571,91.8000L542.0571,134.6400L554.2971,134.6400L554.2971,91.8000z"/>
   <path d="M573.5314,91.8000L573.5314,148.9200L585.7714,148.9200L585.7714,91.8000z"/>
   <path d="M605.0057,91.8000L605.0057,120.3600L617.2457,120.3600L617.2457,91.8000z"/>
   <path d="M636.4800,91.8000L636.4800,120.3600L648.7200,120.3600L648.7200,91.8000z"/>
   <path d="M667.9543,91.8000L667.9543,106.0800L680.1943,106.0800L680.1943,91.8000z"/>
   <path d="M91.8000,91.8000L703.8000,91.8000"/>
   <path d="M91.8000,520.2000L703.8000,520.2000"/>
   <path d="M91.8000,91.8000L91.8000,104.0400"/>
   <path d="M91.8000,520.2000L91.8000,507.9600"/>
   <path d="M179.2286,91.8000L179.2286,104.0400"/>
   <path d="M179.2286,520.2000L179.2286,507.9600"/>
   <path d="M266.6571,91.8000L266.6571,104.0400"/>
   <path d="M266.6571,520.2000L266.6571,507.9600"/>
   <path d="M354.0857,91.8000L354.0857,104.0400"/>
   <path d="M354.0857,520.2000L354.0857,507.9600"/>
   <path d="M441.5143,91.8000L441.5143,104.0400"/>
   <path d="M441.5143,520.2000L441.5143,507.9600"/>
   <path d="M528.9429,91.8000L528.9429,104.0400"/>
   <path d="M528.9429,520.2000L528.9429,507.9600"/>
   <path d="M616.3714,91.8000L616.3714,104.0400"/>
   <path d="M616.3714,520.2000L616.3714,507.9600"/>
   <path d="M703.8000,91.8000L703.8000,104.0400"/>
   <path d="M703.8000,520.2000L703.8000,507.9600"/>
  </g>
  <g style="fill:#000000; fill-rule:nonzero">
   <text   style="font-family:'Times','Nimbus Roman'; font-style:normal; font-weight:normal; font-size:612.0000" transform="matrix(0.0280,0.0000,-0.0000,-0.0280,81.3000,73.6800)">0.3</text>
   <text   style="font-family:'Times','Nimbus Roman'; font-style:normal; font-weight:normal; font-size:612.0000" transform="matrix(0.0280,0.0000,-0.0000,-0.0280,168.7286,73.6800)">0.4</text>
   <text   style="font-family:'Times','Nimbus Roman'; font-style:normal; font-weight:normal; font-size:612.0000" transform="matrix(0.0280,0.0000,-0.0000,-0.0280,256.1571,73.6800)">0.5</text>
   <text   style="font-family:'Times','Nimbus Roman'; font-style:normal; font-weight:normal; font-size:612.0000" transform="matrix(0.0280,0.0000,-0.0000,-0.0280,343.5857,73.6800)">0.6</text>
   <text   style="font-family:'Times','Nimbus Roman'; font-style:normal; font-weight:normal; font-size:612.0000" transform="matrix(0.0280,0.0000,-0.0000,-0.0280,431.0143,73.6800)">0.7</text>
   <text   style="font-family:'Times','Nimbus Roman'; font-style:normal; font-weight:normal; font-size:612.0000" transform="matrix(0.0280,0.0000,-0.0000,-0.0280,518.4429,73.6800)">0.8</text>
   <text   style="font-family:'Times','Nimbus Roman'; font-style:normal; font-weight:normal; font-size:612.0000" transform="matrix(0.0280,0.0000,-0.0000,-0.0280,605.8714,73.6800)">0.9</text>
   <text   style="font-family:'Times','Nimbus Roman'; font-style:normal; font-weight:normal; font-size:612.0000" transform="matrix(0.0280,0.0000,-0.0000,-0.0280,700.3000,73.6800)">1</text>
  </g>
  <g style="fill:none; stroke:#000000; stroke-width:  0.9180; stroke-linecap:butt; stroke-linejoin:miter; stroke-dasharray:none">
   <path d="M91.8000,91.8000L91.8000,520.2000"/>
   <path d="M703.8000,91.8000L703.8000,520.2000"/>
   <path d="M91.8000,91.8000L104.0400,91.8000"/>
   <path d="M703.8000,91.8000L691.5600,91.8000"/>
   <path d="M91.8000,306.0000L104.0400,306.0000"/>
   <path d="M703.8000,306.0000L691.5600,306.0000"/>
   <path d="M91.8000,520.2000L104.0400,520.2000"/>
   <path d="M703.8000,520.2000L691.5600,520.2000"/>
  </g>
  <g style="fill:#000000; fill-rule:nonzero">
   <text   style="font-family:'Times','Nimbus Roman'; font-style:normal; font-weight:normal; font-size:612.0000" transform="matrix(0.0280,0.0000,-0.0000,-0.0280,77.6800,85.8000)">0</text>
   <text   style="font-family:'Times','Nimbus Roman'; font-style:normal; font-weight:normal; font-size:612.0000" transform="matrix(0.0280,0.0000,-0.0000,-0.0280,69.6800,300.0000)">15</text>
   <text   style="font-family:'Times','Nimbus Roman'; font-style:normal; font-weight:normal; font-size:612.0000" transform="matrix(0.0280,0.0000,-0.0000,-0.0280,68.6800,514.2000)">30</text>
  </g>
  <g style="fill:none; stroke:#000000; stroke-width:  0.9180; stroke-linecap:butt; stroke-linejoin:miter; stroke-dasharray:none">
   <path d="M91.8000,91.8000L91.8000,520.2000L703.8000,520.2000L703.8000,91.8000z"/>
  </g>
 </g>
</svg>
