<?xml version="1.0" encoding="ISO-8859-1"?>
<!DOCTYPE svg PUBLIC "-//W3C//DTD SVG 1.0//EN" "http://www.w3.org/TR/2001/REC-SVG-20010904/DTD/svg10.dtd">
<!-- generated by Grace-5.1.25 -->
<svg xml:space="preserve" width="11.0000in" height="8.5000in" viewBox="0.0000 0.0000 792.0000 612.0000">
 <g transform="translate(0,612.0000) scale(1,-1)">
  <g style="fill:#FFFFFF; fill-rule:nonzero">
   <path  d="M0.0000,0.0000L0.0000,612.0000L792.0000,612.0000L792.0000,0.0000z"/>
  </g>
  <g style="fill:none; stroke:#000000; stroke-width:  0.9180; stroke-linecap:butt; stroke-linejoin:miter; stroke-dasharray:none">
   <path d="M112.9239,91.8000L112.9239,505.9200L125.1639,505.9200L125.1639,91.8000z"/>
   <path d="M140.1677,91.8000L140.1677,206.0400L152.4077,206.0400L152.4077,91.8000z"/>
   <path d="M167.4116,91.8000L167.4116,227.4600L179.6516,227.4600L179.6516,91.8000z"/>
   <path d="M194.6555,91.8000L194.6555,127.5000L206.8955,127.5000L206.8955,91.8000z"/>
   <path d="M221.8994,91.8000L221.8994,148.9200L234.1394,148.9200L234.1394,91.8000z"/>
   <path d="M249.1432,91.8000L249.1432,113.2200L261.3832,113.2200L261.3832,91.8000z"/>
   <path d="M276.3871,91.8000L276.3871,98.9400L288.6271,98.9400L288.6271,91.8000z"/>
   <path d="M303.6310,91.8000L303.6310,98.9400L315.8710,98.9400L315.8710,91.8000z"/>
   <path d="M330.8748,91.8000L330.8748,91.8000L343.1148,91.8000L343.1148,91.8000z"/>
   <path d="M358.1187,91.8000L358.1187,98.9400L370.3587,98.9400L370.3587,91.8000z"/>
   <path d="M385.3626,91.8000L385.3626,91.8000L397.6026,91.8000L397.6026,91.8000z"/>
   <path d="M412.6065,91.8000L412.6065,91.8000L424.8465,91.8000L424.8465,91.8000z"/>
   <path d="M439.8503,91.8000L439.8503,91.8000L452.0903,91.8000L452.0903,91.8000z"/>
   <path d="M467.0942,91.8000L467.0942,98.9400L479.3342,98.9400L479.3342,91.8000z"/>
   <path d="M494.3381,91.8000L494.3381,91.8000L506.5781,91.8000L506.5781,91.8000z"/>
   <path d="M521.5819,91.8000L521.5819,98.9400L533.8219,98.9400L533.8219,91.8000z"/>
   <path d="M91.8000,91.8000L703.8000,91.8000"/>
   <path d="M91.8000,520.2000L703.8000,520.2000"/>
   <path d="M111.5419,91.8000L111.5419,104.0400"/>
   <path d="M111.5419,520.2000L111.5419,507.9600"/>
   <path d="M210.2516,91.8000L210.2516,104.0400"/>
   <path d="M210.2516,520.2000L210.2516,507.9600"/>
   <path d="M308.9613,91.8000L308.9613,104.0400"/>
   <path d="M308.9613,520.2000L308.9613,507.9600"/>
   <path d="M407.6710,91.8000L407.6710,104.0400"/>
   <path d="M407.6710,520.2000L407.6710,507.9600"/>
   <path d="M506.3806,91.8000L506.3806,104.0400"/>
   <path d="M506.3806,520.2000L506.3806,507.9600"/>
   <path d="M605.0903,91.8000L605.0903,104.0400"/>
   <path d="M605.0903,520.2000L605.0903,507.9600"/>
   <path d="M703.8000,91.8000L703.8000,104.0400"/>
   <path d="M703.8000,520.2000L703.8000,507.9600"/>
  </g>
  <g style="fill:#000000; fill-rule:nonzero">
   <text   style="font-family:'Times','Nimbus Roman'; font-style:normal; font-weight:normal; font-size:612.0000" transform="matrix(0.0280,0.0000,-0.0000,-0.0280,107.5419,73.6800)">0</text>
   <text   style="font-family:'Times','Nimbus Roman'; font-style:normal; font-weight:normal; font-size:612.0000" transform="matrix(0.0280,0.0000,-0.0000,-0.0280,201.7516,73.6800)">50</text>
   <text   style="font-family:'Times','Nimbus Roman'; font-style:normal; font-weight:normal; font-size:612.0000" transform="matrix(0.0280,0.0000,-0.0000,-0.0280,296.4613,73.6800)">100</text>
   <text   style="font-family:'Times','Nimbus Roman'; font-style:normal; font-weight:normal; font-size:612.0000" transform="matrix(0.0280,0.0000,-0.0000,-0.0280,395.1710,73.6800)">150</text>
   <text   style="font-family:'Times','Nimbus Roman'; font-style:normal; font-weight:normal; font-size:612.0000" transform="matrix(0.0280,0.0000,-0.0000,-0.0280,493.8806,73.6800)">200</text>
   <text   style="font-family:'Times','Nimbus Roman'; font-style:normal; font-weight:normal; font-size:612.0000" transform="matrix(0.0280,0.0000,-0.0000,-0.0280,592.5903,73.6800)">250</text>
   <text   style="font-family:'Times','Nimbus Roman'; font-style:normal; font-weight:normal; font-size:612.0000" transform="matrix(0.0280,0.0000,-0.0000,-0.0280,691.3000,73.6800)">300</text>
  </g>
  <g style="fill:none; stroke:#000000; stroke-width:  0.9180; stroke-linecap:butt; stroke-linejoin:miter; stroke-dasharray:none">
   <path d="M91.8000,91.8000L91.8000,520.2000"/>
   <path d="M703.8000,91.8000L703.8000,520.2000"/>
   <path d="M91.8000,91.8000L104.0400,91.8000"/>
   <path d="M703.8000,91.8000L691.5600,91.8000"/>
   <path d="M91.8000,163.2000L104.0400,163.2000"/>
   <path d="M703.8000,163.2000L691.5600,163.2000"/>
   <path d="M91.8000,234.6000L104.0400,234.6000"/>
   <path d="M703.8000,234.6000L691.5600,234.6000"/>
   <path d="M91.8000,306.0000L104.0400,306.0000"/>
   <path d="M703.8000,306.0000L691.5600,306.0000"/>
   <path d="M91.8000,377.4000L104.0400,377.4000"/>
   <path d="M703.8000,377.4000L691.5600,377.4000"/>
   <path d="M91.8000,448.8000L104.0400,448.8000"/>
   <path d="M703.8000,448.8000L691.5600,448.8000"/>
   <path d="M91.8000,520.2000L104.0400,520.2000"/>
   <path d="M703.8000,520.2000L691.5600,520.2000"/>
  </g>
  <g style="fill:#000000; fill-rule:nonzero">
   <text   style="font-family:'Times','Nimbus Roman'; font-style:normal; font-weight:normal; font-size:612.0000" transform="matrix(0.0280,0.0000,-0.0000,-0.0280,77.6800,85.8000)">0</text>
   <text   style="font-family:'Times','Nimbus Roman'; font-style:normal; font-weight:normal; font-size:612.0000" transform="matrix(0.0280,0.0000,-0.0000,-0.0280,68.6800,157.2000)">10</text>
   <text   style="font-family:'Times','Nimbus Roman'; font-style:normal; font-weight:normal; font-size:612.0000" transform="matrix(0.0280,0.0000,-0.0000,-0.0280,68.6800,228.6000)">20</text>
   <text   style="font-family:'Times','Nimbus Roman'; font-style:normal; font-weight:normal; font-size:612.0000" transform="matrix(0.0280,0.0000,-0.0000,-0.0280,68.6800,300.0000)">30</text>
   <text   style="font-family:'Times','Nimbus Roman'; font-style:normal; font-weight:normal; font-size:612.0000" transform="matrix(0.0280,0.0000,-0.0000,-0.0280,68.6800,371.4000)">40</text>
   <text   style="font-family:'Times','Nimbus Roman'; font-style:normal; font-weight:normal; font-size:612.0000" transform="matrix(0.0280,0.0000,-0.0000,-0.0280,68.6800,442.8000)">50</text>
   <text   style="font-family:'Times','Nimbus Roman'; font-style:normal; font-weight:normal; font-size:612.0000" transform="matrix(0.0280,0.0000,-0.0000,-0.0280,68.6800,514.2000)">60</text>
  </g>
  <g style="fill:none; stroke:#000000; stroke-width:  0.9180; stroke-linecap:butt; stroke-linejoin:miter; stroke-dasharray:none">
   <path d="M91.8000,91.8000L91.8000,520.2000L703.8000,520.2000L703.8000,91.8000z"/>
  </g>
 </g>
</svg>
