<?xml version="1.0" encoding="ISO-8859-1"?>
<!DOCTYPE svg PUBLIC "-//W3C//DTD SVG 1.0//EN" "http://www.w3.org/TR/2001/REC-SVG-20010904/DTD/svg10.dtd">
<!-- generated by Grace-5.1.25 -->
<svg xml:space="preserve" width="11.0000in" height="8.5000in" viewBox="0.0000 0.0000 792.0000 612.0000">
 <g transform="translate(0,612.0000) scale(1,-1)">
  <g style="fill:#FFFFFF; fill-rule:nonzero">
   <path  d="M0.0000,0.0000L0.0000,612.0000L792.0000,612.0000L792.0000,0.0000z"/>
  </g>
  <g style="fill:none; stroke:#000000; stroke-width:  0.9180; stroke-linecap:butt; stroke-linejoin:miter; stroke-dasharray:none">
   <path d="M114.1648,91.8000L114.1648,451.6560L126.4048,451.6560L126.4048,91.8000z"/>
   <path d="M151.1104,91.8000L151.1104,323.1360L163.3504,323.1360L163.3504,91.8000z"/>
   <path d="M188.0560,91.8000L188.0560,237.4560L200.2960,237.4560L200.2960,91.8000z"/>
   <path d="M225.0017,91.8000L225.0017,203.1840L237.2417,203.1840L237.2417,91.8000z"/>
   <path d="M261.9473,91.8000L261.9473,151.7760L274.1873,151.7760L274.1873,91.8000z"/>
   <path d="M298.8929,91.8000L298.8929,126.0720L311.1329,126.0720L311.1329,91.8000z"/>
   <path d="M335.8385,91.8000L335.8385,91.8000L348.0785,91.8000L348.0785,91.8000z"/>
   <path d="M372.7841,91.8000L372.7841,108.9360L385.0241,108.9360L385.0241,91.8000z"/>
   <path d="M409.7298,91.8000L409.7298,91.8000L421.9698,91.8000L421.9698,91.8000z"/>
   <path d="M446.6754,91.8000L446.6754,91.8000L458.9154,91.8000L458.9154,91.8000z"/>
   <path d="M483.6210,91.8000L483.6210,91.8000L495.8610,91.8000L495.8610,91.8000z"/>
   <path d="M520.5666,91.8000L520.5666,91.8000L532.8066,91.8000L532.8066,91.8000z"/>
   <path d="M557.5123,91.8000L557.5123,91.8000L569.7523,91.8000L569.7523,91.8000z"/>
   <path d="M594.4579,91.8000L594.4579,91.8000L606.6979,91.8000L606.6979,91.8000z"/>
   <path d="M631.4035,91.8000L631.4035,100.3680L643.6435,100.3680L643.6435,91.8000z"/>
   <path d="M668.3491,91.8000L668.3491,100.3680L680.5891,100.3680L680.5891,91.8000z"/>
   <path d="M91.8000,91.8000L703.8000,91.8000"/>
   <path d="M91.8000,520.2000L703.8000,520.2000"/>
   <path d="M111.5419,91.8000L111.5419,104.0400"/>
   <path d="M111.5419,520.2000L111.5419,507.9600"/>
   <path d="M252.5558,91.8000L252.5558,104.0400"/>
   <path d="M252.5558,520.2000L252.5558,507.9600"/>
   <path d="M393.5696,91.8000L393.5696,104.0400"/>
   <path d="M393.5696,520.2000L393.5696,507.9600"/>
   <path d="M534.5834,91.8000L534.5834,104.0400"/>
   <path d="M534.5834,520.2000L534.5834,507.9600"/>
   <path d="M675.5972,91.8000L675.5972,104.0400"/>
   <path d="M675.5972,520.2000L675.5972,507.9600"/>
  </g>
  <g style="fill:#000000; fill-rule:nonzero">
   <text   style="font-family:'Times','Nimbus Roman'; font-style:normal; font-weight:normal; font-size:612.0000" transform="matrix(0.0280,0.0000,-0.0000,-0.0280,107.5419,73.6800)">0</text>
   <text   style="font-family:'Times','Nimbus Roman'; font-style:normal; font-weight:normal; font-size:612.0000" transform="matrix(0.0280,0.0000,-0.0000,-0.0280,244.0558,73.6800)">50</text>
   <text   style="font-family:'Times','Nimbus Roman'; font-style:normal; font-weight:normal; font-size:612.0000" transform="matrix(0.0280,0.0000,-0.0000,-0.0280,381.0696,73.6800)">100</text>
   <text   style="font-family:'Times','Nimbus Roman'; font-style:normal; font-weight:normal; font-size:612.0000" transform="matrix(0.0280,0.0000,-0.0000,-0.0280,522.0834,73.6800)">150</text>
   <text   style="font-family:'Times','Nimbus Roman'; font-style:normal; font-weight:normal; font-size:612.0000" transform="matrix(0.0280,0.0000,-0.0000,-0.0280,663.0972,73.6800)">200</text>
  </g>
  <g style="fill:none; stroke:#000000; stroke-width:  0.9180; stroke-linecap:butt; stroke-linejoin:miter; stroke-dasharray:none">
   <path d="M91.8000,91.8000L91.8000,520.2000"/>
   <path d="M703.8000,91.8000L703.8000,520.2000"/>
   <path d="M91.8000,91.8000L104.0400,91.8000"/>
   <path d="M703.8000,91.8000L691.5600,91.8000"/>
   <path d="M91.8000,306.0000L104.0400,306.0000"/>
   <path d="M703.8000,306.0000L691.5600,306.0000"/>
   <path d="M91.8000,520.2000L104.0400,520.2000"/>
   <path d="M703.8000,520.2000L691.5600,520.2000"/>
  </g>
  <g style="fill:#000000; fill-rule:nonzero">
   <text   style="font-family:'Times','Nimbus Roman'; font-style:normal; font-weight:normal; font-size:612.0000" transform="matrix(0.0280,0.0000,-0.0000,-0.0280,77.6800,85.8000)">0</text>
   <text   style="font-family:'Times','Nimbus Roman'; font-style:normal; font-weight:normal; font-size:612.0000" transform="matrix(0.0280,0.0000,-0.0000,-0.0280,69.6800,300.0000)">25</text>
   <text   style="font-family:'Times','Nimbus Roman'; font-style:normal; font-weight:normal; font-size:612.0000" transform="matrix(0.0280,0.0000,-0.0000,-0.0280,68.6800,514.2000)">50</text>
  </g>
  <g style="fill:none; stroke:#000000; stroke-width:  0.9180; stroke-linecap:butt; stroke-linejoin:miter; stroke-dasharray:none">
   <path d="M91.8000,91.8000L91.8000,520.2000L703.8000,520.2000L703.8000,91.8000z"/>
  </g>
 </g>
</svg>
