<?xml version="1.0" encoding="ISO-8859-1"?>
<!DOCTYPE svg PUBLIC "-//W3C//DTD SVG 1.0//EN" "http://www.w3.org/TR/2001/REC-SVG-20010904/DTD/svg10.dtd">
<!-- generated by Grace-5.1.25 -->
<svg xml:space="preserve" width="11.0000in" height="8.5000in" viewBox="0.0000 0.0000 792.0000 612.0000">
 <g transform="translate(0,612.0000) scale(1,-1)">
  <g style="fill:#FFFFFF; fill-rule:nonzero">
   <path  d="M0.0000,0.0000L0.0000,612.0000L792.0000,612.0000L792.0000,0.0000z"/>
  </g>
  <g style="fill:none; stroke:#000000; stroke-width:  0.9180; stroke-linecap:butt; stroke-linejoin:miter; stroke-dasharray:none">
   <path d="M109.5480,91.8000L109.5480,327.4200L121.7880,327.4200L121.7880,91.8000z"/>
   <path d="M133.4160,91.8000L133.4160,214.9650L145.6560,214.9650L145.6560,91.8000z"/>
   <path d="M157.2840,91.8000L157.2840,150.7050L169.5240,150.7050L169.5240,91.8000z"/>
   <path d="M181.1520,91.8000L181.1520,139.9950L193.3920,139.9950L193.3920,91.8000z"/>
   <path d="M205.0200,91.8000L205.0200,118.5750L217.2600,118.5750L217.2600,91.8000z"/>
   <path d="M228.8880,91.8000L228.8880,113.2200L241.1280,113.2200L241.1280,91.8000z"/>
   <path d="M252.7560,91.8000L252.7560,107.8650L264.9960,107.8650L264.9960,91.8000z"/>
   <path d="M276.6240,91.8000L276.6240,123.9300L288.8640,123.9300L288.8640,91.8000z"/>
   <path d="M300.4920,91.8000L300.4920,107.8650L312.7320,107.8650L312.7320,91.8000z"/>
   <path d="M324.3600,91.8000L324.3600,97.1550L336.6000,97.1550L336.6000,91.8000z"/>
   <path d="M348.2280,91.8000L348.2280,97.1550L360.4680,97.1550L360.4680,91.8000z"/>
   <path d="M372.0960,91.8000L372.0960,97.1550L384.3360,97.1550L384.3360,91.8000z"/>
   <path d="M395.9640,91.8000L395.9640,102.5100L408.2040,102.5100L408.2040,91.8000z"/>
   <path d="M419.8320,91.8000L419.8320,91.8000L432.0720,91.8000L432.0720,91.8000z"/>
   <path d="M443.7000,91.8000L443.7000,91.8000L455.9400,91.8000L455.9400,91.8000z"/>
   <path d="M467.5680,91.8000L467.5680,97.1550L479.8080,97.1550L479.8080,91.8000z"/>
   <path d="M91.8000,91.8000L703.8000,91.8000"/>
   <path d="M91.8000,520.2000L703.8000,520.2000"/>
   <path d="M91.8000,91.8000L91.8000,104.0400"/>
   <path d="M91.8000,520.2000L91.8000,507.9600"/>
   <path d="M244.8000,91.8000L244.8000,104.0400"/>
   <path d="M244.8000,520.2000L244.8000,507.9600"/>
   <path d="M397.8000,91.8000L397.8000,104.0400"/>
   <path d="M397.8000,520.2000L397.8000,507.9600"/>
   <path d="M550.8000,91.8000L550.8000,104.0400"/>
   <path d="M550.8000,520.2000L550.8000,507.9600"/>
   <path d="M703.8000,91.8000L703.8000,104.0400"/>
   <path d="M703.8000,520.2000L703.8000,507.9600"/>
  </g>
  <g style="fill:#000000; fill-rule:nonzero">
   <text   style="font-family:'Times','Nimbus Roman'; font-style:normal; font-weight:normal; font-size:612.0000" transform="matrix(0.0280,0.0000,-0.0000,-0.0280,87.8000,73.6800)">0</text>
   <text   style="font-family:'Times','Nimbus Roman'; font-style:normal; font-weight:normal; font-size:612.0000" transform="matrix(0.0280,0.0000,-0.0000,-0.0280,230.3000,73.6800)">0.05</text>
   <text   style="font-family:'Times','Nimbus Roman'; font-style:normal; font-weight:normal; font-size:612.0000" transform="matrix(0.0280,0.0000,-0.0000,-0.0280,387.8000,73.6800)">0.1</text>
   <text   style="font-family:'Times','Nimbus Roman'; font-style:normal; font-weight:normal; font-size:612.0000" transform="matrix(0.0280,0.0000,-0.0000,-0.0280,536.3000,73.6800)">0.15</text>
   <text   style="font-family:'Times','Nimbus Roman'; font-style:normal; font-weight:normal; font-size:612.0000" transform="matrix(0.0280,0.0000,-0.0000,-0.0280,692.8000,73.6800)">0.2</text>
  </g>
  <g style="fill:none; stroke:#000000; stroke-width:  0.9180; stroke-linecap:butt; stroke-linejoin:miter; stroke-dasharray:none">
   <path d="M91.8000,91.8000L91.8000,520.2000"/>
   <path d="M703.8000,91.8000L703.8000,520.2000"/>
   <path d="M91.8000,91.8000L104.0400,91.8000"/>
   <path d="M703.8000,91.8000L691.5600,91.8000"/>
   <path d="M91.8000,306.0000L104.0400,306.0000"/>
   <path d="M703.8000,306.0000L691.5600,306.0000"/>
   <path d="M91.8000,520.2000L104.0400,520.2000"/>
   <path d="M703.8000,520.2000L691.5600,520.2000"/>
  </g>
  <g style="fill:#000000; fill-rule:nonzero">
   <text   style="font-family:'Times','Nimbus Roman'; font-style:normal; font-weight:normal; font-size:612.0000" transform="matrix(0.0280,0.0000,-0.0000,-0.0280,77.6800,85.8000)">0</text>
   <text   style="font-family:'Times','Nimbus Roman'; font-style:normal; font-weight:normal; font-size:612.0000" transform="matrix(0.0280,0.0000,-0.0000,-0.0280,68.6800,300.0000)">40</text>
   <text   style="font-family:'Times','Nimbus Roman'; font-style:normal; font-weight:normal; font-size:612.0000" transform="matrix(0.0280,0.0000,-0.0000,-0.0280,68.6800,514.2000)">80</text>
  </g>
  <g style="fill:none; stroke:#000000; stroke-width:  0.9180; stroke-linecap:butt; stroke-linejoin:miter; stroke-dasharray:none">
   <path d="M91.8000,91.8000L91.8000,520.2000L703.8000,520.2000L703.8000,91.8000z"/>
  </g>
 </g>
</svg>
