<?xml version="1.0" encoding="ISO-8859-1"?>
<!DOCTYPE svg PUBLIC "-//W3C//DTD SVG 1.0//EN" "http://www.w3.org/TR/2001/REC-SVG-20010904/DTD/svg10.dtd">
<!-- generated by Grace-5.1.25 -->
<svg xml:space="preserve" width="11.0000in" height="8.5000in" viewBox="0.0000 0.0000 792.0000 612.0000">
 <g transform="translate(0,612.0000) scale(1,-1)">
  <g style="fill:#FFFFFF; fill-rule:nonzero">
   <path  d="M0.0000,0.0000L0.0000,612.0000L792.0000,612.0000L792.0000,0.0000z"/>
  </g>
  <g style="fill:none; stroke:#000000; stroke-width:  0.9180; stroke-linecap:butt; stroke-linejoin:miter; stroke-dasharray:none">
   <ellipse  rx="6.1200" ry="6.1200" cx="578.7711" cy="137.9230"/>
   <ellipse  rx="6.1200" ry="6.1200" cx="498.5944" cy="182.3313"/>
   <ellipse  rx="6.1200" ry="6.1200" cx="389.5631" cy="242.1587"/>
   <ellipse  rx="6.1200" ry="6.1200" cx="495.9041" cy="185.9477"/>
   <ellipse  rx="6.1200" ry="6.1200" cx="164.7391" cy="357.5414"/>
   <ellipse  rx="6.1200" ry="6.1200" cx="450.3796" cy="205.1524"/>
   <ellipse  rx="6.1200" ry="6.1200" cx="661.5898" cy="106.6444"/>
   <ellipse  rx="6.1200" ry="6.1200" cx="659.5737" cy="107.3573"/>
   <ellipse  rx="6.1200" ry="6.1200" cx="654.8129" cy="107.2897"/>
   <ellipse  rx="6.1200" ry="6.1200" cx="625.3438" cy="123.6450"/>
   <ellipse  rx="6.1200" ry="6.1200" cx="476.2912" cy="175.8028"/>
   <ellipse  rx="6.1200" ry="6.1200" cx="471.3538" cy="201.9851"/>
   <ellipse  rx="6.1200" ry="6.1200" cx="632.6983" cy="122.0906"/>
   <ellipse  rx="6.1200" ry="6.1200" cx="416.1991" cy="245.0733"/>
   <ellipse  rx="6.1200" ry="6.1200" cx="608.3108" cy="133.0868"/>
   <ellipse  rx="6.1200" ry="6.1200" cx="459.8026" cy="208.6072"/>
   <ellipse  rx="6.1200" ry="6.1200" cx="320.3766" cy="286.8785"/>
   <ellipse  rx="6.1200" ry="6.1200" cx="588.5563" cy="143.9183"/>
   <ellipse  rx="6.1200" ry="6.1200" cx="659.9704" cy="102.5587"/>
   <ellipse  rx="6.1200" ry="6.1200" cx="439.8543" cy="229.5095"/>
   <ellipse  rx="6.1200" ry="6.1200" cx="594.6003" cy="139.8515"/>
   <ellipse  rx="6.1200" ry="6.1200" cx="208.9013" cy="342.2869"/>
   <ellipse  rx="6.1200" ry="6.1200" cx="520.2360" cy="178.8509"/>
   <ellipse  rx="6.1200" ry="6.1200" cx="292.4487" cy="278.9907"/>
   <ellipse  rx="6.1200" ry="6.1200" cx="245.1686" cy="332.3755"/>
   <ellipse  rx="6.1200" ry="6.1200" cx="283.8593" cy="297.1375"/>
   <ellipse  rx="6.1200" ry="6.1200" cx="577.6822" cy="148.9768"/>
   <ellipse  rx="6.1200" ry="6.1200" cx="457.5585" cy="206.1293"/>
   <ellipse  rx="6.1200" ry="6.1200" cx="606.9057" cy="134.6857"/>
   <ellipse  rx="6.1200" ry="6.1200" cx="410.7092" cy="227.3281"/>
   <ellipse  rx="6.1200" ry="6.1200" cx="677.2132" cy="100.5342"/>
   <ellipse  rx="6.1200" ry="6.1200" cx="568.1813" cy="141.6121"/>
   <ellipse  rx="6.1200" ry="6.1200" cx="520.3944" cy="166.2165"/>
   <ellipse  rx="6.1200" ry="6.1200" cx="529.8931" cy="176.8433"/>
   <ellipse  rx="6.1200" ry="6.1200" cx="545.2824" cy="166.6585"/>
   <ellipse  rx="6.1200" ry="6.1200" cx="364.4014" cy="249.5766"/>
   <ellipse  rx="6.1200" ry="6.1200" cx="408.2511" cy="237.9615"/>
   <ellipse  rx="6.1200" ry="6.1200" cx="537.5175" cy="171.3114"/>
   <ellipse  rx="6.1200" ry="6.1200" cx="148.5029" cy="386.6410"/>
   <ellipse  rx="6.1200" ry="6.1200" cx="580.6800" cy="147.0322"/>
   <ellipse  rx="6.1200" ry="6.1200" cx="444.2687" cy="228.6018"/>
   <ellipse  rx="6.1200" ry="6.1200" cx="386.7574" cy="233.3150"/>
   <ellipse  rx="6.1200" ry="6.1200" cx="349.2149" cy="268.9524"/>
   <ellipse  rx="6.1200" ry="6.1200" cx="595.1540" cy="139.2899"/>
   <ellipse  rx="6.1200" ry="6.1200" cx="541.2029" cy="170.3136"/>
   <ellipse  rx="6.1200" ry="6.1200" cx="625.1320" cy="123.7739"/>
   <ellipse  rx="6.1200" ry="6.1200" cx="577.3317" cy="151.3413"/>
   <ellipse  rx="6.1200" ry="6.1200" cx="401.0393" cy="232.7495"/>
   <ellipse  rx="6.1200" ry="6.1200" cx="466.0723" cy="205.7666"/>
   <ellipse  rx="6.1200" ry="6.1200" cx="322.2808" cy="305.0302"/>
   <ellipse  rx="6.1200" ry="6.1200" cx="439.9480" cy="216.4202"/>
   <ellipse  rx="6.1200" ry="6.1200" cx="511.6018" cy="174.9129"/>
   <ellipse  rx="6.1200" ry="6.1200" cx="555.6980" cy="161.4657"/>
   <ellipse  rx="6.1200" ry="6.1200" cx="621.5653" cy="125.8288"/>
   <ellipse  rx="6.1200" ry="6.1200" cx="568.1197" cy="156.0281"/>
   <ellipse  rx="6.1200" ry="6.1200" cx="432.3828" cy="235.2851"/>
   <ellipse  rx="6.1200" ry="6.1200" cx="528.3206" cy="180.5570"/>
   <ellipse  rx="6.1200" ry="6.1200" cx="609.4363" cy="132.1033"/>
   <ellipse  rx="6.1200" ry="6.1200" cx="196.3172" cy="347.7754"/>
   <ellipse  rx="6.1200" ry="6.1200" cx="388.4059" cy="239.0263"/>
   <ellipse  rx="6.1200" ry="6.1200" cx="281.3032" cy="307.4175"/>
   <ellipse  rx="6.1200" ry="6.1200" cx="534.3578" cy="173.5647"/>
   <ellipse  rx="6.1200" ry="6.1200" cx="604.7477" cy="132.7472"/>
   <ellipse  rx="6.1200" ry="6.1200" cx="502.3420" cy="192.9157"/>
   <ellipse  rx="6.1200" ry="6.1200" cx="553.2718" cy="162.1369"/>
   <ellipse  rx="6.1200" ry="6.1200" cx="566.3815" cy="149.7485"/>
   <ellipse  rx="6.1200" ry="6.1200" cx="308.8658" cy="285.5871"/>
   <ellipse  rx="6.1200" ry="6.1200" cx="539.1672" cy="165.4294"/>
   <ellipse  rx="6.1200" ry="6.1200" cx="414.1161" cy="227.1058"/>
   <ellipse  rx="6.1200" ry="6.1200" cx="295.8972" cy="291.9902"/>
   <ellipse  rx="6.1200" ry="6.1200" cx="647.3289" cy="112.6109"/>
   <ellipse  rx="6.1200" ry="6.1200" cx="303.6880" cy="281.2501"/>
   <ellipse  rx="6.1200" ry="6.1200" cx="308.7658" cy="280.3736"/>
   <ellipse  rx="6.1200" ry="6.1200" cx="352.3830" cy="259.9251"/>
   <ellipse  rx="6.1200" ry="6.1200" cx="547.8707" cy="165.8598"/>
   <ellipse  rx="6.1200" ry="6.1200" cx="287.0392" cy="298.8222"/>
   <ellipse  rx="6.1200" ry="6.1200" cx="286.8779" cy="295.4641"/>
   <ellipse  rx="6.1200" ry="6.1200" cx="286.8231" cy="295.4179"/>
   <ellipse  rx="6.1200" ry="6.1200" cx="454.2123" cy="192.4281"/>
   <ellipse  rx="6.1200" ry="6.1200" cx="413.2502" cy="212.9423"/>
   <ellipse  rx="6.1200" ry="6.1200" cx="598.8572" cy="138.6237"/>
   <ellipse  rx="6.1200" ry="6.1200" cx="609.1437" cy="131.8005"/>
   <ellipse  rx="6.1200" ry="6.1200" cx="330.0862" cy="275.3756"/>
   <ellipse  rx="6.1200" ry="6.1200" cx="673.3107" cy="100.1668"/>
   <ellipse  rx="6.1200" ry="6.1200" cx="359.8184" cy="257.5282"/>
   <ellipse  rx="6.1200" ry="6.1200" cx="350.9266" cy="265.3918"/>
   <ellipse  rx="6.1200" ry="6.1200" cx="282.1317" cy="300.1790"/>
   <ellipse  rx="6.1200" ry="6.1200" cx="660.6707" cy="107.2243"/>
   <ellipse  rx="6.1200" ry="6.1200" cx="181.0963" cy="349.4764"/>
   <ellipse  rx="6.1200" ry="6.1200" cx="365.9432" cy="252.1619"/>
   <ellipse  rx="6.1200" ry="6.1200" cx="462.5646" cy="207.7050"/>
   <ellipse  rx="6.1200" ry="6.1200" cx="371.2435" cy="249.7606"/>
   <ellipse  rx="6.1200" ry="6.1200" cx="621.6573" cy="126.4454"/>
   <ellipse  rx="6.1200" ry="6.1200" cx="457.4060" cy="217.8528"/>
   <ellipse  rx="6.1200" ry="6.1200" cx="461.0812" cy="204.5900"/>
   <ellipse  rx="6.1200" ry="6.1200" cx="274.6199" cy="307.6541"/>
   <ellipse  rx="6.1200" ry="6.1200" cx="451.0986" cy="213.6616"/>
   <ellipse  rx="6.1200" ry="6.1200" cx="559.0352" cy="159.4950"/>
   <ellipse  rx="6.1200" ry="6.1200" cx="614.4249" cy="130.2485"/>
   <ellipse  rx="6.1200" ry="6.1200" cx="335.3567" cy="284.7133"/>
   <ellipse  rx="6.1200" ry="6.1200" cx="526.1128" cy="179.2757"/>
   <ellipse  rx="6.1200" ry="6.1200" cx="345.7461" cy="277.5127"/>
   <ellipse  rx="6.1200" ry="6.1200" cx="544.2808" cy="163.5200"/>
   <ellipse  rx="6.1200" ry="6.1200" cx="268.1081" cy="306.4307"/>
   <ellipse  rx="6.1200" ry="6.1200" cx="281.2784" cy="276.0742"/>
   <ellipse  rx="6.1200" ry="6.1200" cx="565.1290" cy="157.3318"/>
   <ellipse  rx="6.1200" ry="6.1200" cx="497.0675" cy="197.2683"/>
   <ellipse  rx="6.1200" ry="6.1200" cx="577.6496" cy="151.3413"/>
   <ellipse  rx="6.1200" ry="6.1200" cx="254.6414" cy="324.2311"/>
   <ellipse  rx="6.1200" ry="6.1200" cx="494.5784" cy="187.8333"/>
   <ellipse  rx="6.1200" ry="6.1200" cx="579.8035" cy="148.9081"/>
   <path d="M91.8000,91.8000L91.8000,520.2000L703.8000,520.2000L703.8000,91.8000z"/>
  </g>
 </g>
</svg>
