<?xml version="1.0" encoding="ISO-8859-1"?>
<!DOCTYPE svg PUBLIC "-//W3C//DTD SVG 1.0//EN" "http://www.w3.org/TR/2001/REC-SVG-20010904/DTD/svg10.dtd">
<!-- generated by Grace-5.1.25 -->
<svg xml:space="preserve" width="11.0000in" height="8.5000in" viewBox="0.0000 0.0000 792.0000 612.0000">
 <g transform="translate(0,612.0000) scale(1,-1)">
  <g style="fill:#FFFFFF; fill-rule:nonzero">
   <path  d="M0.0000,0.0000L0.0000,612.0000L792.0000,612.0000L792.0000,0.0000z"/>
  </g>
  <g style="fill:none; stroke:#000000; stroke-width:  0.9180; stroke-linecap:butt; stroke-linejoin:miter; stroke-dasharray:none">
   <ellipse  rx="6.1200" ry="6.1200" cx="334.9392" cy="137.9230"/>
   <ellipse  rx="6.1200" ry="6.1200" cx="307.4435" cy="182.3313"/>
   <ellipse  rx="6.1200" ry="6.1200" cx="425.4975" cy="242.1587"/>
   <ellipse  rx="6.1200" ry="6.1200" cx="257.4726" cy="185.9477"/>
   <ellipse  rx="6.1200" ry="6.1200" cx="397.6118" cy="357.5414"/>
   <ellipse  rx="6.1200" ry="6.1200" cx="399.4838" cy="205.1524"/>
   <ellipse  rx="6.1200" ry="6.1200" cx="284.8566" cy="106.6444"/>
   <ellipse  rx="6.1200" ry="6.1200" cx="315.8711" cy="107.3573"/>
   <ellipse  rx="6.1200" ry="6.1200" cx="361.8409" cy="107.2897"/>
   <ellipse  rx="6.1200" ry="6.1200" cx="303.8143" cy="123.6450"/>
   <ellipse  rx="6.1200" ry="6.1200" cx="407.3165" cy="175.8028"/>
   <ellipse  rx="6.1200" ry="6.1200" cx="305.3736" cy="201.9851"/>
   <ellipse  rx="6.1200" ry="6.1200" cx="315.2412" cy="122.0906"/>
   <ellipse  rx="6.1200" ry="6.1200" cx="269.1604" cy="245.0733"/>
   <ellipse  rx="6.1200" ry="6.1200" cx="349.5861" cy="133.0868"/>
   <ellipse  rx="6.1200" ry="6.1200" cx="335.5096" cy="208.6072"/>
   <ellipse  rx="6.1200" ry="6.1200" cx="159.3464" cy="286.8785"/>
   <ellipse  rx="6.1200" ry="6.1200" cx="315.0200" cy="143.9183"/>
   <ellipse  rx="6.1200" ry="6.1200" cx="339.3517" cy="102.5587"/>
   <ellipse  rx="6.1200" ry="6.1200" cx="310.2906" cy="229.5095"/>
   <ellipse  rx="6.1200" ry="6.1200" cx="431.7466" cy="139.8515"/>
   <ellipse  rx="6.1200" ry="6.1200" cx="314.3377" cy="342.2869"/>
   <ellipse  rx="6.1200" ry="6.1200" cx="319.2712" cy="178.8509"/>
   <ellipse  rx="6.1200" ry="6.1200" cx="284.2812" cy="278.9907"/>
   <ellipse  rx="6.1200" ry="6.1200" cx="266.6820" cy="332.3755"/>
   <ellipse  rx="6.1200" ry="6.1200" cx="265.7831" cy="297.1375"/>
   <ellipse  rx="6.1200" ry="6.1200" cx="304.2050" cy="148.9768"/>
   <ellipse  rx="6.1200" ry="6.1200" cx="305.0437" cy="206.1293"/>
   <ellipse  rx="6.1200" ry="6.1200" cx="309.1500" cy="134.6857"/>
   <ellipse  rx="6.1200" ry="6.1200" cx="272.6134" cy="227.3281"/>
   <ellipse  rx="6.1200" ry="6.1200" cx="392.7288" cy="100.5342"/>
   <ellipse  rx="6.1200" ry="6.1200" cx="450.6382" cy="141.6121"/>
   <ellipse  rx="6.1200" ry="6.1200" cx="350.8870" cy="166.2165"/>
   <ellipse  rx="6.1200" ry="6.1200" cx="391.1127" cy="176.8433"/>
   <ellipse  rx="6.1200" ry="6.1200" cx="285.8271" cy="166.6585"/>
   <ellipse  rx="6.1200" ry="6.1200" cx="225.7115" cy="249.5766"/>
   <ellipse  rx="6.1200" ry="6.1200" cx="305.6361" cy="237.9615"/>
   <ellipse  rx="6.1200" ry="6.1200" cx="409.4983" cy="171.3114"/>
   <ellipse  rx="6.1200" ry="6.1200" cx="242.9070" cy="386.6410"/>
   <ellipse  rx="6.1200" ry="6.1200" cx="268.2828" cy="147.0322"/>
   <ellipse  rx="6.1200" ry="6.1200" cx="368.5559" cy="228.6018"/>
   <ellipse  rx="6.1200" ry="6.1200" cx="276.6294" cy="233.3150"/>
   <ellipse  rx="6.1200" ry="6.1200" cx="263.4802" cy="268.9524"/>
   <ellipse  rx="6.1200" ry="6.1200" cx="528.1940" cy="139.2899"/>
   <ellipse  rx="6.1200" ry="6.1200" cx="284.2809" cy="170.3136"/>
   <ellipse  rx="6.1200" ry="6.1200" cx="280.9680" cy="123.7739"/>
   <ellipse  rx="6.1200" ry="6.1200" cx="211.7449" cy="151.3413"/>
   <ellipse  rx="6.1200" ry="6.1200" cx="264.8727" cy="232.7495"/>
   <ellipse  rx="6.1200" ry="6.1200" cx="402.1506" cy="205.7666"/>
   <ellipse  rx="6.1200" ry="6.1200" cx="395.2890" cy="305.0302"/>
   <ellipse  rx="6.1200" ry="6.1200" cx="340.1723" cy="216.4202"/>
   <ellipse  rx="6.1200" ry="6.1200" cx="393.7813" cy="174.9129"/>
   <ellipse  rx="6.1200" ry="6.1200" cx="275.0917" cy="161.4657"/>
   <ellipse  rx="6.1200" ry="6.1200" cx="328.4173" cy="125.8288"/>
   <ellipse  rx="6.1200" ry="6.1200" cx="358.3700" cy="156.0281"/>
   <ellipse  rx="6.1200" ry="6.1200" cx="275.0915" cy="235.2851"/>
   <ellipse  rx="6.1200" ry="6.1200" cx="330.7542" cy="180.5570"/>
   <ellipse  rx="6.1200" ry="6.1200" cx="688.1677" cy="132.1033"/>
   <ellipse  rx="6.1200" ry="6.1200" cx="290.2596" cy="347.7754"/>
   <ellipse  rx="6.1200" ry="6.1200" cx="240.8123" cy="239.0263"/>
   <ellipse  rx="6.1200" ry="6.1200" cx="218.6958" cy="307.4175"/>
   <ellipse  rx="6.1200" ry="6.1200" cx="345.7447" cy="173.5647"/>
   <ellipse  rx="6.1200" ry="6.1200" cx="281.3129" cy="132.7472"/>
   <ellipse  rx="6.1200" ry="6.1200" cx="359.6566" cy="192.9157"/>
   <ellipse  rx="6.1200" ry="6.1200" cx="319.0413" cy="162.1369"/>
   <ellipse  rx="6.1200" ry="6.1200" cx="342.2311" cy="149.7485"/>
   <ellipse  rx="6.1200" ry="6.1200" cx="261.7624" cy="285.5871"/>
   <ellipse  rx="6.1200" ry="6.1200" cx="283.9021" cy="165.4294"/>
   <ellipse  rx="6.1200" ry="6.1200" cx="386.5480" cy="227.1058"/>
   <ellipse  rx="6.1200" ry="6.1200" cx="343.1922" cy="291.9902"/>
   <ellipse  rx="6.1200" ry="6.1200" cx="523.3070" cy="112.6109"/>
   <ellipse  rx="6.1200" ry="6.1200" cx="339.8534" cy="281.2501"/>
   <ellipse  rx="6.1200" ry="6.1200" cx="258.4932" cy="280.3736"/>
   <ellipse  rx="6.1200" ry="6.1200" cx="455.1479" cy="259.9251"/>
   <ellipse  rx="6.1200" ry="6.1200" cx="391.7174" cy="165.8598"/>
   <ellipse  rx="6.1200" ry="6.1200" cx="245.3121" cy="298.8222"/>
   <ellipse  rx="6.1200" ry="6.1200" cx="346.8580" cy="295.4641"/>
   <ellipse  rx="6.1200" ry="6.1200" cx="551.5165" cy="295.4179"/>
   <ellipse  rx="6.1200" ry="6.1200" cx="549.7549" cy="192.4281"/>
   <ellipse  rx="6.1200" ry="6.1200" cx="484.0362" cy="212.9423"/>
   <ellipse  rx="6.1200" ry="6.1200" cx="429.7672" cy="138.6237"/>
   <ellipse  rx="6.1200" ry="6.1200" cx="292.2714" cy="131.8005"/>
   <ellipse  rx="6.1200" ry="6.1200" cx="245.4736" cy="275.3756"/>
   <ellipse  rx="6.1200" ry="6.1200" cx="333.4893" cy="100.1668"/>
   <ellipse  rx="6.1200" ry="6.1200" cx="270.1353" cy="257.5282"/>
   <ellipse  rx="6.1200" ry="6.1200" cx="485.2016" cy="265.3918"/>
   <ellipse  rx="6.1200" ry="6.1200" cx="358.8127" cy="300.1790"/>
   <ellipse  rx="6.1200" ry="6.1200" cx="362.0640" cy="107.2243"/>
   <ellipse  rx="6.1200" ry="6.1200" cx="426.2991" cy="349.4764"/>
   <ellipse  rx="6.1200" ry="6.1200" cx="508.3718" cy="252.1619"/>
   <ellipse  rx="6.1200" ry="6.1200" cx="181.2479" cy="207.7050"/>
   <ellipse  rx="6.1200" ry="6.1200" cx="448.9194" cy="249.7606"/>
   <ellipse  rx="6.1200" ry="6.1200" cx="399.0517" cy="126.4454"/>
   <ellipse  rx="6.1200" ry="6.1200" cx="381.3172" cy="217.8528"/>
   <ellipse  rx="6.1200" ry="6.1200" cx="227.0158" cy="204.5900"/>
   <ellipse  rx="6.1200" ry="6.1200" cx="296.7782" cy="307.6541"/>
   <ellipse  rx="6.1200" ry="6.1200" cx="239.1643" cy="213.6616"/>
   <ellipse  rx="6.1200" ry="6.1200" cx="261.3427" cy="159.4950"/>
   <ellipse  rx="6.1200" ry="6.1200" cx="254.9973" cy="130.2485"/>
   <ellipse  rx="6.1200" ry="6.1200" cx="364.3560" cy="284.7133"/>
   <ellipse  rx="6.1200" ry="6.1200" cx="485.7051" cy="179.2757"/>
   <ellipse  rx="6.1200" ry="6.1200" cx="307.4843" cy="277.5127"/>
   <ellipse  rx="6.1200" ry="6.1200" cx="366.9849" cy="163.5200"/>
   <ellipse  rx="6.1200" ry="6.1200" cx="281.7953" cy="306.4307"/>
   <ellipse  rx="6.1200" ry="6.1200" cx="382.6063" cy="276.0742"/>
   <ellipse  rx="6.1200" ry="6.1200" cx="353.0327" cy="157.3318"/>
   <ellipse  rx="6.1200" ry="6.1200" cx="229.7651" cy="197.2683"/>
   <ellipse  rx="6.1200" ry="6.1200" cx="211.7449" cy="151.3413"/>
   <ellipse  rx="6.1200" ry="6.1200" cx="154.8004" cy="324.2311"/>
   <ellipse  rx="6.1200" ry="6.1200" cx="218.3774" cy="187.8333"/>
   <ellipse  rx="6.1200" ry="6.1200" cx="315.6767" cy="148.9081"/>
   <path d="M91.8000,91.8000L91.8000,520.2000L703.8000,520.2000L703.8000,91.8000z"/>
  </g>
 </g>
</svg>
