<?xml version="1.0" encoding="ISO-8859-1"?>
<!DOCTYPE svg PUBLIC "-//W3C//DTD SVG 1.0//EN" "http://www.w3.org/TR/2001/REC-SVG-20010904/DTD/svg10.dtd">
<!-- generated by Grace-5.1.25 -->
<svg xml:space="preserve" width="11.0000in" height="8.5000in" viewBox="0.0000 0.0000 792.0000 612.0000">
 <g transform="translate(0,612.0000) scale(1,-1)">
  <g style="fill:#FFFFFF; fill-rule:nonzero">
   <path  d="M0.0000,0.0000L0.0000,612.0000L792.0000,612.0000L792.0000,0.0000z"/>
  </g>
  <g style="fill:none; stroke:#000000; stroke-width:  0.9180; stroke-linecap:butt; stroke-linejoin:miter; stroke-dasharray:none">
   <ellipse  rx="6.1200" ry="6.1200" cx="120.0384" cy="137.9230"/>
   <ellipse  rx="6.1200" ry="6.1200" cx="132.4425" cy="182.3313"/>
   <ellipse  rx="6.1200" ry="6.1200" cx="120.7605" cy="242.1587"/>
   <ellipse  rx="6.1200" ry="6.1200" cx="111.9731" cy="185.9477"/>
   <ellipse  rx="6.1200" ry="6.1200" cx="120.7463" cy="357.5414"/>
   <ellipse  rx="6.1200" ry="6.1200" cx="118.2665" cy="205.1524"/>
   <ellipse  rx="6.1200" ry="6.1200" cx="111.8055" cy="106.6444"/>
   <ellipse  rx="6.1200" ry="6.1200" cx="113.9182" cy="107.3573"/>
   <ellipse  rx="6.1200" ry="6.1200" cx="138.6090" cy="107.2897"/>
   <ellipse  rx="6.1200" ry="6.1200" cx="116.0113" cy="123.6450"/>
   <ellipse  rx="6.1200" ry="6.1200" cx="125.2202" cy="175.8028"/>
   <ellipse  rx="6.1200" ry="6.1200" cx="112.3957" cy="201.9851"/>
   <ellipse  rx="6.1200" ry="6.1200" cx="115.4266" cy="122.0906"/>
   <ellipse  rx="6.1200" ry="6.1200" cx="110.9997" cy="245.0733"/>
   <ellipse  rx="6.1200" ry="6.1200" cx="115.7703" cy="133.0868"/>
   <ellipse  rx="6.1200" ry="6.1200" cx="645.8110" cy="208.6072"/>
   <ellipse  rx="6.1200" ry="6.1200" cx="119.8665" cy="143.9183"/>
   <ellipse  rx="6.1200" ry="6.1200" cx="113.4249" cy="102.5587"/>
   <ellipse  rx="6.1200" ry="6.1200" cx="113.7497" cy="229.5095"/>
   <ellipse  rx="6.1200" ry="6.1200" cx="119.4125" cy="139.8515"/>
   <ellipse  rx="6.1200" ry="6.1200" cx="153.3829" cy="342.2869"/>
   <ellipse  rx="6.1200" ry="6.1200" cx="131.7747" cy="178.8509"/>
   <ellipse  rx="6.1200" ry="6.1200" cx="109.7476" cy="278.9907"/>
   <ellipse  rx="6.1200" ry="6.1200" cx="417.2968" cy="332.3755"/>
   <ellipse  rx="6.1200" ry="6.1200" cx="111.5426" cy="297.1375"/>
   <ellipse  rx="6.1200" ry="6.1200" cx="112.4932" cy="148.9768"/>
   <ellipse  rx="6.1200" ry="6.1200" cx="196.5284" cy="206.1293"/>
   <ellipse  rx="6.1200" ry="6.1200" cx="113.1897" cy="134.6857"/>
   <ellipse  rx="6.1200" ry="6.1200" cx="228.8179" cy="227.3281"/>
   <ellipse  rx="6.1200" ry="6.1200" cx="119.7662" cy="100.5342"/>
   <ellipse  rx="6.1200" ry="6.1200" cx="122.9849" cy="141.6121"/>
   <ellipse  rx="6.1200" ry="6.1200" cx="112.8959" cy="166.2165"/>
   <ellipse  rx="6.1200" ry="6.1200" cx="132.0110" cy="176.8433"/>
   <ellipse  rx="6.1200" ry="6.1200" cx="111.9550" cy="166.6585"/>
   <ellipse  rx="6.1200" ry="6.1200" cx="109.4828" cy="249.5766"/>
   <ellipse  rx="6.1200" ry="6.1200" cx="521.1951" cy="237.9615"/>
   <ellipse  rx="6.1200" ry="6.1200" cx="118.8022" cy="171.3114"/>
   <ellipse  rx="6.1200" ry="6.1200" cx="153.1941" cy="386.6410"/>
   <ellipse  rx="6.1200" ry="6.1200" cx="125.1193" cy="147.0322"/>
   <ellipse  rx="6.1200" ry="6.1200" cx="133.5213" cy="228.6018"/>
   <ellipse  rx="6.1200" ry="6.1200" cx="111.3569" cy="233.3150"/>
   <ellipse  rx="6.1200" ry="6.1200" cx="111.1301" cy="268.9524"/>
   <ellipse  rx="6.1200" ry="6.1200" cx="125.4830" cy="139.2899"/>
   <ellipse  rx="6.1200" ry="6.1200" cx="111.6946" cy="170.3136"/>
   <ellipse  rx="6.1200" ry="6.1200" cx="168.4751" cy="123.7739"/>
   <ellipse  rx="6.1200" ry="6.1200" cx="162.8295" cy="151.3413"/>
   <ellipse  rx="6.1200" ry="6.1200" cx="114.7038" cy="232.7495"/>
   <ellipse  rx="6.1200" ry="6.1200" cx="255.5928" cy="205.7666"/>
   <ellipse  rx="6.1200" ry="6.1200" cx="123.0006" cy="305.0302"/>
   <ellipse  rx="6.1200" ry="6.1200" cx="114.7562" cy="216.4202"/>
   <ellipse  rx="6.1200" ry="6.1200" cx="397.9963" cy="174.9129"/>
   <ellipse  rx="6.1200" ry="6.1200" cx="147.2543" cy="161.4657"/>
   <ellipse  rx="6.1200" ry="6.1200" cx="219.2362" cy="125.8288"/>
   <ellipse  rx="6.1200" ry="6.1200" cx="115.1075" cy="156.0281"/>
   <ellipse  rx="6.1200" ry="6.1200" cx="127.0655" cy="235.2851"/>
   <ellipse  rx="6.1200" ry="6.1200" cx="115.8793" cy="180.5570"/>
   <ellipse  rx="6.1200" ry="6.1200" cx="132.7508" cy="132.1033"/>
   <ellipse  rx="6.1200" ry="6.1200" cx="111.9462" cy="347.7754"/>
   <ellipse  rx="6.1200" ry="6.1200" cx="113.1756" cy="239.0263"/>
   <ellipse  rx="6.1200" ry="6.1200" cx="116.8542" cy="173.5647"/>
   <ellipse  rx="6.1200" ry="6.1200" cx="131.5056" cy="132.7472"/>
   <ellipse  rx="6.1200" ry="6.1200" cx="114.3220" cy="192.9157"/>
   <ellipse  rx="6.1200" ry="6.1200" cx="114.0193" cy="162.1369"/>
   <ellipse  rx="6.1200" ry="6.1200" cx="117.5408" cy="149.7485"/>
   <ellipse  rx="6.1200" ry="6.1200" cx="112.5181" cy="285.5871"/>
   <ellipse  rx="6.1200" ry="6.1200" cx="116.9051" cy="165.4294"/>
   <ellipse  rx="6.1200" ry="6.1200" cx="118.9929" cy="227.1058"/>
   <ellipse  rx="6.1200" ry="6.1200" cx="127.6142" cy="291.9902"/>
   <ellipse  rx="6.1200" ry="6.1200" cx="123.5936" cy="112.6109"/>
   <ellipse  rx="6.1200" ry="6.1200" cx="118.9741" cy="281.2501"/>
   <ellipse  rx="6.1200" ry="6.1200" cx="112.2728" cy="280.3736"/>
   <ellipse  rx="6.1200" ry="6.1200" cx="175.4274" cy="259.9251"/>
   <ellipse  rx="6.1200" ry="6.1200" cx="117.8452" cy="165.8598"/>
   <ellipse  rx="6.1200" ry="6.1200" cx="111.8052" cy="298.8222"/>
   <ellipse  rx="6.1200" ry="6.1200" cx="114.9903" cy="295.4641"/>
   <ellipse  rx="6.1200" ry="6.1200" cx="123.9035" cy="295.4179"/>
   <ellipse  rx="6.1200" ry="6.1200" cx="155.2001" cy="192.4281"/>
   <ellipse  rx="6.1200" ry="6.1200" cx="121.9616" cy="212.9423"/>
   <ellipse  rx="6.1200" ry="6.1200" cx="117.9023" cy="138.6237"/>
   <ellipse  rx="6.1200" ry="6.1200" cx="110.1620" cy="131.8005"/>
   <ellipse  rx="6.1200" ry="6.1200" cx="112.8124" cy="275.3756"/>
   <ellipse  rx="6.1200" ry="6.1200" cx="112.8482" cy="100.1668"/>
   <ellipse  rx="6.1200" ry="6.1200" cx="112.6788" cy="257.5282"/>
   <ellipse  rx="6.1200" ry="6.1200" cx="125.6337" cy="265.3918"/>
   <ellipse  rx="6.1200" ry="6.1200" cx="116.9358" cy="300.1790"/>
   <ellipse  rx="6.1200" ry="6.1200" cx="118.5128" cy="107.2243"/>
   <ellipse  rx="6.1200" ry="6.1200" cx="171.8239" cy="349.4764"/>
   <ellipse  rx="6.1200" ry="6.1200" cx="121.6490" cy="252.1619"/>
   <ellipse  rx="6.1200" ry="6.1200" cx="435.7576" cy="207.7050"/>
   <ellipse  rx="6.1200" ry="6.1200" cx="119.3839" cy="249.7606"/>
   <ellipse  rx="6.1200" ry="6.1200" cx="115.5660" cy="126.4454"/>
   <ellipse  rx="6.1200" ry="6.1200" cx="118.8769" cy="217.8528"/>
   <ellipse  rx="6.1200" ry="6.1200" cx="164.2304" cy="204.5900"/>
   <ellipse  rx="6.1200" ry="6.1200" cx="113.7837" cy="307.6541"/>
   <ellipse  rx="6.1200" ry="6.1200" cx="113.2284" cy="213.6616"/>
   <ellipse  rx="6.1200" ry="6.1200" cx="110.4902" cy="159.4950"/>
   <ellipse  rx="6.1200" ry="6.1200" cx="110.7973" cy="130.2485"/>
   <ellipse  rx="6.1200" ry="6.1200" cx="118.2995" cy="284.7133"/>
   <ellipse  rx="6.1200" ry="6.1200" cx="299.9375" cy="179.2757"/>
   <ellipse  rx="6.1200" ry="6.1200" cx="164.6093" cy="277.5127"/>
   <ellipse  rx="6.1200" ry="6.1200" cx="117.1651" cy="163.5200"/>
   <ellipse  rx="6.1200" ry="6.1200" cx="165.5992" cy="306.4307"/>
   <ellipse  rx="6.1200" ry="6.1200" cx="127.1906" cy="276.0742"/>
   <ellipse  rx="6.1200" ry="6.1200" cx="115.6166" cy="157.3318"/>
   <ellipse  rx="6.1200" ry="6.1200" cx="162.8306" cy="151.3413"/>
   <ellipse  rx="6.1200" ry="6.1200" cx="108.8806" cy="187.8333"/>
   <ellipse  rx="6.1200" ry="6.1200" cx="114.1529" cy="148.9081"/>
   <path d="M91.8000,91.8000L91.8000,520.2000L703.8000,520.2000L703.8000,91.8000z"/>
  </g>
 </g>
</svg>
