<?xml version="1.0" encoding="ISO-8859-1"?>
<!DOCTYPE svg PUBLIC "-//W3C//DTD SVG 1.0//EN" "http://www.w3.org/TR/2001/REC-SVG-20010904/DTD/svg10.dtd">
<!-- generated by Grace-5.1.25 -->
<svg xml:space="preserve" width="11.0000in" height="8.5000in" viewBox="0.0000 0.0000 792.0000 612.0000">
 <g transform="translate(0,612.0000) scale(1,-1)">
  <g style="fill:#FFFFFF; fill-rule:nonzero">
   <path  d="M0.0000,0.0000L0.0000,612.0000L792.0000,612.0000L792.0000,0.0000z"/>
  </g>
  <g style="fill:none; stroke:#000000; stroke-width:  0.9180; stroke-linecap:butt; stroke-linejoin:miter; stroke-dasharray:none">
   <ellipse  rx="6.1200" ry="6.1200" cx="132.1539" cy="137.9230"/>
   <ellipse  rx="6.1200" ry="6.1200" cx="121.5157" cy="182.3313"/>
   <ellipse  rx="6.1200" ry="6.1200" cx="108.9309" cy="242.1587"/>
   <ellipse  rx="6.1200" ry="6.1200" cx="140.6340" cy="185.9477"/>
   <ellipse  rx="6.1200" ry="6.1200" cx="97.4779" cy="357.5414"/>
   <ellipse  rx="6.1200" ry="6.1200" cx="114.9068" cy="205.1524"/>
   <ellipse  rx="6.1200" ry="6.1200" cx="240.4602" cy="107.2897"/>
   <ellipse  rx="6.1200" ry="6.1200" cx="387.2231" cy="123.6450"/>
   <ellipse  rx="6.1200" ry="6.1200" cx="106.2102" cy="175.8028"/>
   <ellipse  rx="6.1200" ry="6.1200" cx="141.8815" cy="201.9851"/>
   <ellipse  rx="6.1200" ry="6.1200" cx="135.2322" cy="208.6072"/>
   <ellipse  rx="6.1200" ry="6.1200" cx="107.9274" cy="286.8785"/>
   <ellipse  rx="6.1200" ry="6.1200" cx="258.1648" cy="102.5587"/>
   <ellipse  rx="6.1200" ry="6.1200" cx="98.8115" cy="342.2869"/>
   <ellipse  rx="6.1200" ry="6.1200" cx="222.7070" cy="178.8509"/>
   <ellipse  rx="6.1200" ry="6.1200" cx="100.1705" cy="278.9907"/>
   <ellipse  rx="6.1200" ry="6.1200" cx="102.7191" cy="332.3755"/>
   <ellipse  rx="6.1200" ry="6.1200" cx="102.0028" cy="297.1375"/>
   <ellipse  rx="6.1200" ry="6.1200" cx="689.0074" cy="148.9768"/>
   <ellipse  rx="6.1200" ry="6.1200" cx="125.8203" cy="206.1293"/>
   <ellipse  rx="6.1200" ry="6.1200" cx="112.3617" cy="227.3281"/>
   <ellipse  rx="6.1200" ry="6.1200" cx="125.2570" cy="141.6121"/>
   <ellipse  rx="6.1200" ry="6.1200" cx="126.0852" cy="166.2165"/>
   <ellipse  rx="6.1200" ry="6.1200" cx="489.1810" cy="166.6585"/>
   <ellipse  rx="6.1200" ry="6.1200" cx="106.1601" cy="249.5766"/>
   <ellipse  rx="6.1200" ry="6.1200" cx="138.1990" cy="237.9615"/>
   <ellipse  rx="6.1200" ry="6.1200" cx="395.6535" cy="171.3114"/>
   <ellipse  rx="6.1200" ry="6.1200" cx="97.9261" cy="386.6410"/>
   <ellipse  rx="6.1200" ry="6.1200" cx="257.8659" cy="147.0322"/>
   <ellipse  rx="6.1200" ry="6.1200" cx="107.0767" cy="233.3150"/>
   <ellipse  rx="6.1200" ry="6.1200" cx="111.5729" cy="268.9524"/>
   <ellipse  rx="6.1200" ry="6.1200" cx="350.2332" cy="139.2899"/>
   <ellipse  rx="6.1200" ry="6.1200" cx="109.9657" cy="232.7495"/>
   <ellipse  rx="6.1200" ry="6.1200" cx="135.6619" cy="205.7666"/>
   <ellipse  rx="6.1200" ry="6.1200" cx="199.4499" cy="305.0302"/>
   <ellipse  rx="6.1200" ry="6.1200" cx="122.1544" cy="216.4202"/>
   <ellipse  rx="6.1200" ry="6.1200" cx="136.8650" cy="174.9129"/>
   <ellipse  rx="6.1200" ry="6.1200" cx="309.9787" cy="125.8288"/>
   <ellipse  rx="6.1200" ry="6.1200" cx="98.7993" cy="347.7754"/>
   <ellipse  rx="6.1200" ry="6.1200" cx="109.9666" cy="239.0263"/>
   <ellipse  rx="6.1200" ry="6.1200" cx="104.1881" cy="307.4175"/>
   <ellipse  rx="6.1200" ry="6.1200" cx="303.6708" cy="162.1369"/>
   <ellipse  rx="6.1200" ry="6.1200" cx="186.5734" cy="149.7485"/>
   <ellipse  rx="6.1200" ry="6.1200" cx="103.8866" cy="285.5871"/>
   <ellipse  rx="6.1200" ry="6.1200" cx="153.0594" cy="165.4294"/>
   <ellipse  rx="6.1200" ry="6.1200" cx="112.4720" cy="227.1058"/>
   <ellipse  rx="6.1200" ry="6.1200" cx="103.5892" cy="291.9902"/>
   <ellipse  rx="6.1200" ry="6.1200" cx="596.7085" cy="112.6109"/>
   <ellipse  rx="6.1200" ry="6.1200" cx="101.4873" cy="281.2501"/>
   <ellipse  rx="6.1200" ry="6.1200" cx="103.0560" cy="280.3736"/>
   <ellipse  rx="6.1200" ry="6.1200" cx="107.3090" cy="259.9251"/>
   <ellipse  rx="6.1200" ry="6.1200" cx="493.6368" cy="165.8598"/>
   <ellipse  rx="6.1200" ry="6.1200" cx="102.6984" cy="298.8222"/>
   <ellipse  rx="6.1200" ry="6.1200" cx="102.6782" cy="295.4641"/>
   <ellipse  rx="6.1200" ry="6.1200" cx="102.4103" cy="295.4179"/>
   <ellipse  rx="6.1200" ry="6.1200" cx="107.7632" cy="192.4281"/>
   <ellipse  rx="6.1200" ry="6.1200" cx="106.1778" cy="212.9423"/>
   <ellipse  rx="6.1200" ry="6.1200" cx="514.1240" cy="131.8005"/>
   <ellipse  rx="6.1200" ry="6.1200" cx="106.8763" cy="275.3756"/>
   <ellipse  rx="6.1200" ry="6.1200" cx="108.3310" cy="257.5282"/>
   <ellipse  rx="6.1200" ry="6.1200" cx="108.3889" cy="265.3918"/>
   <ellipse  rx="6.1200" ry="6.1200" cx="102.4629" cy="300.1790"/>
   <ellipse  rx="6.1200" ry="6.1200" cx="97.5634" cy="349.4764"/>
   <ellipse  rx="6.1200" ry="6.1200" cx="107.3744" cy="252.1619"/>
   <ellipse  rx="6.1200" ry="6.1200" cx="139.1622" cy="207.7050"/>
   <ellipse  rx="6.1200" ry="6.1200" cx="109.6325" cy="249.7606"/>
   <ellipse  rx="6.1200" ry="6.1200" cx="126.7979" cy="204.5900"/>
   <ellipse  rx="6.1200" ry="6.1200" cx="102.8436" cy="307.6541"/>
   <ellipse  rx="6.1200" ry="6.1200" cx="141.3065" cy="213.6616"/>
   <ellipse  rx="6.1200" ry="6.1200" cx="116.6831" cy="284.7133"/>
   <ellipse  rx="6.1200" ry="6.1200" cx="117.8813" cy="277.5127"/>
   <ellipse  rx="6.1200" ry="6.1200" cx="171.3962" cy="163.5200"/>
   <ellipse  rx="6.1200" ry="6.1200" cx="101.1322" cy="306.4307"/>
   <ellipse  rx="6.1200" ry="6.1200" cx="98.8065" cy="276.0742"/>
   <ellipse  rx="6.1200" ry="6.1200" cx="103.3545" cy="324.2311"/>
   <ellipse  rx="6.1200" ry="6.1200" cx="138.6645" cy="187.8333"/>
  </g>
  <g style="fill:#000000; fill-rule:nonzero">
   <text   style="font-family:'Times','Nimbus Roman'; font-style:normal; font-weight:normal; font-size:612.0000" transform="matrix(0.0280,0.0000,-0.0000,-0.0280,78.6800,85.8000)">1</text>
  </g>
  <g style="fill:none; stroke:#000000; stroke-width:  0.9180; stroke-linecap:butt; stroke-linejoin:miter; stroke-dasharray:none">
   <path d="M91.8000,91.8000L91.8000,520.2000L703.8000,520.2000L703.8000,91.8000z"/>
  </g>
 </g>
</svg>
