<?xml version="1.0" encoding="ISO-8859-1"?>
<!DOCTYPE svg PUBLIC "-//W3C//DTD SVG 1.0//EN" "http://www.w3.org/TR/2001/REC-SVG-20010904/DTD/svg10.dtd">
<!-- generated by Grace-5.1.25 -->
<svg xml:space="preserve" width="11.0000in" height="8.5000in" viewBox="0.0000 0.0000 792.0000 612.0000">
 <g transform="translate(0,612.0000) scale(1,-1)">
  <g style="fill:#FFFFFF; fill-rule:nonzero">
   <path  d="M0.0000,0.0000L0.0000,612.0000L792.0000,612.0000L792.0000,0.0000z"/>
  </g>
  <g style="fill:none; stroke:#000000; stroke-width:  0.9180; stroke-linecap:butt; stroke-linejoin:miter; stroke-dasharray:none">
   <ellipse  rx="6.1200" ry="6.1200" cx="115.0782" cy="150.2545"/>
   <ellipse  rx="6.1200" ry="6.1200" cx="99.6628" cy="193.2303"/>
   <ellipse  rx="6.1200" ry="6.1200" cx="229.6318" cy="196.7300"/>
   <ellipse  rx="6.1200" ry="6.1200" cx="100.2717" cy="120.6094"/>
   <ellipse  rx="6.1200" ry="6.1200" cx="119.9662" cy="186.9123"/>
   <ellipse  rx="6.1200" ry="6.1200" cx="160.5023" cy="134.9328"/>
   <ellipse  rx="6.1200" ry="6.1200" cx="94.0432" cy="218.6586"/>
   <ellipse  rx="6.1200" ry="6.1200" cx="93.6294" cy="294.4050"/>
   <ellipse  rx="6.1200" ry="6.1200" cx="211.8188" cy="152.1208"/>
   <ellipse  rx="6.1200" ry="6.1200" cx="97.2167" cy="348.0260"/>
   <ellipse  rx="6.1200" ry="6.1200" cx="101.9099" cy="189.8622"/>
   <ellipse  rx="6.1200" ry="6.1200" cx="94.3750" cy="338.4344"/>
   <ellipse  rx="6.1200" ry="6.1200" cx="95.7211" cy="216.2606"/>
   <ellipse  rx="6.1200" ry="6.1200" cx="536.8172" cy="147.1216"/>
   <ellipse  rx="6.1200" ry="6.1200" cx="94.9518" cy="236.7756"/>
   <ellipse  rx="6.1200" ry="6.1200" cx="112.4776" cy="153.8246"/>
   <ellipse  rx="6.1200" ry="6.1200" cx="104.5749" cy="187.9193"/>
   <ellipse  rx="6.1200" ry="6.1200" cx="94.2486" cy="247.0660"/>
   <ellipse  rx="6.1200" ry="6.1200" cx="303.0150" cy="182.5659"/>
   <ellipse  rx="6.1200" ry="6.1200" cx="96.5976" cy="390.9494"/>
   <ellipse  rx="6.1200" ry="6.1200" cx="100.5776" cy="159.0699"/>
   <ellipse  rx="6.1200" ry="6.1200" cx="104.2550" cy="238.0082"/>
   <ellipse  rx="6.1200" ry="6.1200" cx="203.8476" cy="277.0572"/>
   <ellipse  rx="6.1200" ry="6.1200" cx="96.1244" cy="136.5618"/>
   <ellipse  rx="6.1200" ry="6.1200" cx="95.9300" cy="163.2400"/>
   <ellipse  rx="6.1200" ry="6.1200" cx="123.7277" cy="242.0221"/>
   <ellipse  rx="6.1200" ry="6.1200" cx="95.2265" cy="215.9096"/>
   <ellipse  rx="6.1200" ry="6.1200" cx="266.3432" cy="311.9712"/>
   <ellipse  rx="6.1200" ry="6.1200" cx="94.5350" cy="186.0512"/>
   <ellipse  rx="6.1200" ry="6.1200" cx="97.6556" cy="173.0378"/>
   <ellipse  rx="6.1200" ry="6.1200" cx="95.0320" cy="138.5505"/>
   <ellipse  rx="6.1200" ry="6.1200" cx="99.5564" cy="244.4759"/>
   <ellipse  rx="6.1200" ry="6.1200" cx="597.0281" cy="144.6225"/>
   <ellipse  rx="6.1200" ry="6.1200" cx="93.6953" cy="314.2815"/>
   <ellipse  rx="6.1200" ry="6.1200" cx="100.5701" cy="145.2457"/>
   <ellipse  rx="6.1200" ry="6.1200" cx="174.0324" cy="161.6986"/>
   <ellipse  rx="6.1200" ry="6.1200" cx="135.5227" cy="176.8736"/>
   <ellipse  rx="6.1200" ry="6.1200" cx="102.6396" cy="299.3518"/>
   <ellipse  rx="6.1200" ry="6.1200" cx="291.1411" cy="125.7589"/>
   <ellipse  rx="6.1200" ry="6.1200" cx="96.9374" cy="268.3211"/>
   <ellipse  rx="6.1200" ry="6.1200" cx="154.9399" cy="305.9634"/>
   <ellipse  rx="6.1200" ry="6.1200" cx="585.9435" cy="302.6689"/>
   <ellipse  rx="6.1200" ry="6.1200" cx="99.3216" cy="203.0014"/>
   <ellipse  rx="6.1200" ry="6.1200" cx="161.7120" cy="222.8539"/>
   <ellipse  rx="6.1200" ry="6.1200" cx="135.2475" cy="120.5461"/>
   <ellipse  rx="6.1200" ry="6.1200" cx="97.0333" cy="354.9836"/>
   <ellipse  rx="6.1200" ry="6.1200" cx="94.1601" cy="217.7855"/>
   <ellipse  rx="6.1200" ry="6.1200" cx="213.2529" cy="258.4844"/>
   <ellipse  rx="6.1200" ry="6.1200" cx="226.5044" cy="227.6060"/>
   <ellipse  rx="6.1200" ry="6.1200" cx="95.9478" cy="214.7710"/>
   <ellipse  rx="6.1200" ry="6.1200" cx="424.4546" cy="142.8276"/>
   <ellipse  rx="6.1200" ry="6.1200" cx="95.0078" cy="190.2733"/>
   <ellipse  rx="6.1200" ry="6.1200" cx="96.4533" cy="285.3413"/>
   <ellipse  rx="6.1200" ry="6.1200" cx="169.8175" cy="175.0258"/>
   <ellipse  rx="6.1200" ry="6.1200" cx="95.8891" cy="313.3265"/>
   <ellipse  rx="6.1200" ry="6.1200" cx="103.7625" cy="283.9492"/>
   <ellipse  rx="6.1200" ry="6.1200" cx="256.6401" cy="102.0536"/>
   <ellipse  rx="6.1200" ry="6.1200" cx="93.6887" cy="207.6854"/>
   <ellipse  rx="6.1200" ry="6.1200" cx="95.9300" cy="163.2400"/>
   <ellipse  rx="6.1200" ry="6.1200" cx="93.6317" cy="330.5527"/>
  </g>
  <g style="fill:#000000; fill-rule:nonzero">
   <text   style="font-family:'Times','Nimbus Roman'; font-style:normal; font-weight:normal; font-size:612.0000" transform="matrix(0.0280,0.0000,-0.0000,-0.0280,78.6800,99.6194)">1</text>
   <text   style="font-family:'Times','Nimbus Roman'; font-style:normal; font-weight:normal; font-size:612.0000" transform="matrix(0.0280,0.0000,-0.0000,-0.0280,56.6800,168.7161)">1.05</text>
   <text   style="font-family:'Times','Nimbus Roman'; font-style:normal; font-weight:normal; font-size:612.0000" transform="matrix(0.0280,0.0000,-0.0000,-0.0280,65.6800,237.8129)">1.1</text>
   <text   style="font-family:'Times','Nimbus Roman'; font-style:normal; font-weight:normal; font-size:612.0000" transform="matrix(0.0280,0.0000,-0.0000,-0.0280,56.6800,306.9097)">1.15</text>
   <text   style="font-family:'Times','Nimbus Roman'; font-style:normal; font-weight:normal; font-size:612.0000" transform="matrix(0.0280,0.0000,-0.0000,-0.0280,64.6800,376.0065)">1.2</text>
   <text   style="font-family:'Times','Nimbus Roman'; font-style:normal; font-weight:normal; font-size:612.0000" transform="matrix(0.0280,0.0000,-0.0000,-0.0280,56.6800,445.1032)">1.25</text>
   <text   style="font-family:'Times','Nimbus Roman'; font-style:normal; font-weight:normal; font-size:612.0000" transform="matrix(0.0280,0.0000,-0.0000,-0.0280,65.6800,514.2000)">1.3</text>
  </g>
  <g style="fill:none; stroke:#000000; stroke-width:  0.9180; stroke-linecap:butt; stroke-linejoin:miter; stroke-dasharray:none">
   <path d="M91.8000,91.8000L91.8000,520.2000L703.8000,520.2000L703.8000,91.8000z"/>
  </g>
 </g>
</svg>
