<?xml version="1.0" encoding="ISO-8859-1"?>
<!DOCTYPE svg PUBLIC "-//W3C//DTD SVG 1.0//EN" "http://www.w3.org/TR/2001/REC-SVG-20010904/DTD/svg10.dtd">
<!-- generated by Grace-5.1.25 -->
<svg xml:space="preserve" width="11.0000in" height="8.5000in" viewBox="0.0000 0.0000 792.0000 612.0000">
 <g transform="translate(0,612.0000) scale(1,-1)">
  <g style="fill:#FFFFFF; fill-rule:nonzero">
   <path  d="M0.0000,0.0000L0.0000,612.0000L792.0000,612.0000L792.0000,0.0000z"/>
  </g>
  <g style="fill:none; stroke:#000000; stroke-width:  0.9180; stroke-linecap:butt; stroke-linejoin:miter; stroke-dasharray:none">
   <ellipse  rx="6.1200" ry="6.1200" cx="119.6414" cy="150.2545"/>
   <ellipse  rx="6.1200" ry="6.1200" cx="122.6015" cy="193.2303"/>
   <ellipse  rx="6.1200" ry="6.1200" cx="191.0290" cy="251.1278"/>
   <ellipse  rx="6.1200" ry="6.1200" cx="129.7578" cy="196.7300"/>
   <ellipse  rx="6.1200" ry="6.1200" cx="160.9192" cy="362.7885"/>
   <ellipse  rx="6.1200" ry="6.1200" cx="114.9755" cy="215.3152"/>
   <ellipse  rx="6.1200" ry="6.1200" cx="118.9830" cy="119.9849"/>
   <ellipse  rx="6.1200" ry="6.1200" cx="119.3551" cy="120.6748"/>
   <ellipse  rx="6.1200" ry="6.1200" cx="116.4954" cy="120.6094"/>
   <ellipse  rx="6.1200" ry="6.1200" cx="111.1331" cy="136.4371"/>
   <ellipse  rx="6.1200" ry="6.1200" cx="147.8924" cy="186.9123"/>
   <ellipse  rx="6.1200" ry="6.1200" cx="114.6420" cy="212.2501"/>
   <ellipse  rx="6.1200" ry="6.1200" cx="137.3140" cy="134.9328"/>
   <ellipse  rx="6.1200" ry="6.1200" cx="119.2877" cy="253.9483"/>
   <ellipse  rx="6.1200" ry="6.1200" cx="116.6293" cy="145.5743"/>
   <ellipse  rx="6.1200" ry="6.1200" cx="126.3529" cy="218.6586"/>
   <ellipse  rx="6.1200" ry="6.1200" cx="250.6079" cy="294.4050"/>
   <ellipse  rx="6.1200" ry="6.1200" cx="139.4590" cy="156.0564"/>
   <ellipse  rx="6.1200" ry="6.1200" cx="173.6396" cy="116.0310"/>
   <ellipse  rx="6.1200" ry="6.1200" cx="357.3384" cy="238.8866"/>
   <ellipse  rx="6.1200" ry="6.1200" cx="121.1053" cy="152.1208"/>
   <ellipse  rx="6.1200" ry="6.1200" cx="239.2920" cy="348.0260"/>
   <ellipse  rx="6.1200" ry="6.1200" cx="121.8826" cy="189.8622"/>
   <ellipse  rx="6.1200" ry="6.1200" cx="132.8607" cy="286.7716"/>
   <ellipse  rx="6.1200" ry="6.1200" cx="276.7192" cy="338.4344"/>
   <ellipse  rx="6.1200" ry="6.1200" cx="116.3153" cy="304.3331"/>
   <ellipse  rx="6.1200" ry="6.1200" cx="120.1633" cy="160.9517"/>
   <ellipse  rx="6.1200" ry="6.1200" cx="113.5698" cy="216.2606"/>
   <ellipse  rx="6.1200" ry="6.1200" cx="117.8367" cy="147.1216"/>
   <ellipse  rx="6.1200" ry="6.1200" cx="181.1208" cy="236.7756"/>
   <ellipse  rx="6.1200" ry="6.1200" cx="115.7588" cy="114.0718"/>
   <ellipse  rx="6.1200" ry="6.1200" cx="185.1008" cy="153.8246"/>
   <ellipse  rx="6.1200" ry="6.1200" cx="112.3051" cy="177.6353"/>
   <ellipse  rx="6.1200" ry="6.1200" cx="112.1020" cy="187.9193"/>
   <ellipse  rx="6.1200" ry="6.1200" cx="224.6317" cy="178.0631"/>
   <ellipse  rx="6.1200" ry="6.1200" cx="124.0183" cy="258.3064"/>
   <ellipse  rx="6.1200" ry="6.1200" cx="634.8653" cy="247.0660"/>
   <ellipse  rx="6.1200" ry="6.1200" cx="115.2390" cy="182.5659"/>
   <ellipse  rx="6.1200" ry="6.1200" cx="114.1771" cy="390.9494"/>
   <ellipse  rx="6.1200" ry="6.1200" cx="122.5348" cy="159.0699"/>
   <ellipse  rx="6.1200" ry="6.1200" cx="172.0150" cy="238.0082"/>
   <ellipse  rx="6.1200" ry="6.1200" cx="116.0815" cy="242.5694"/>
   <ellipse  rx="6.1200" ry="6.1200" cx="120.0788" cy="277.0572"/>
   <ellipse  rx="6.1200" ry="6.1200" cx="195.8176" cy="151.5773"/>
   <ellipse  rx="6.1200" ry="6.1200" cx="115.2875" cy="181.6002"/>
   <ellipse  rx="6.1200" ry="6.1200" cx="290.7796" cy="136.5618"/>
   <ellipse  rx="6.1200" ry="6.1200" cx="145.3157" cy="163.2400"/>
   <ellipse  rx="6.1200" ry="6.1200" cx="114.7744" cy="242.0221"/>
   <ellipse  rx="6.1200" ry="6.1200" cx="194.7548" cy="215.9096"/>
   <ellipse  rx="6.1200" ry="6.1200" cx="108.4578" cy="311.9712"/>
   <ellipse  rx="6.1200" ry="6.1200" cx="115.2379" cy="226.2196"/>
   <ellipse  rx="6.1200" ry="6.1200" cx="114.8504" cy="186.0512"/>
   <ellipse  rx="6.1200" ry="6.1200" cx="172.6391" cy="173.0378"/>
   <ellipse  rx="6.1200" ry="6.1200" cx="112.4633" cy="138.5505"/>
   <ellipse  rx="6.1200" ry="6.1200" cx="116.2777" cy="167.7756"/>
   <ellipse  rx="6.1200" ry="6.1200" cx="223.7791" cy="244.4759"/>
   <ellipse  rx="6.1200" ry="6.1200" cx="115.9362" cy="191.5133"/>
   <ellipse  rx="6.1200" ry="6.1200" cx="138.7082" cy="144.6225"/>
   <ellipse  rx="6.1200" ry="6.1200" cx="162.2599" cy="353.3375"/>
   <ellipse  rx="6.1200" ry="6.1200" cx="116.6381" cy="248.0964"/>
   <ellipse  rx="6.1200" ry="6.1200" cx="281.5265" cy="314.2815"/>
   <ellipse  rx="6.1200" ry="6.1200" cx="113.4554" cy="184.7465"/>
   <ellipse  rx="6.1200" ry="6.1200" cx="109.2427" cy="145.2457"/>
   <ellipse  rx="6.1200" ry="6.1200" cx="114.5166" cy="203.4732"/>
   <ellipse  rx="6.1200" ry="6.1200" cx="117.0401" cy="173.6874"/>
   <ellipse  rx="6.1200" ry="6.1200" cx="120.1529" cy="161.6986"/>
   <ellipse  rx="6.1200" ry="6.1200" cx="117.2081" cy="293.1552"/>
   <ellipse  rx="6.1200" ry="6.1200" cx="116.9460" cy="176.8736"/>
   <ellipse  rx="6.1200" ry="6.1200" cx="149.4895" cy="236.5605"/>
   <ellipse  rx="6.1200" ry="6.1200" cx="112.5890" cy="299.3518"/>
   <ellipse  rx="6.1200" ry="6.1200" cx="135.3087" cy="125.7589"/>
   <ellipse  rx="6.1200" ry="6.1200" cx="132.0396" cy="288.9582"/>
   <ellipse  rx="6.1200" ry="6.1200" cx="117.0109" cy="288.1099"/>
   <ellipse  rx="6.1200" ry="6.1200" cx="190.6170" cy="268.3211"/>
   <ellipse  rx="6.1200" ry="6.1200" cx="173.9515" cy="177.2901"/>
   <ellipse  rx="6.1200" ry="6.1200" cx="117.1926" cy="305.9634"/>
   <ellipse  rx="6.1200" ry="6.1200" cx="174.4428" cy="302.7136"/>
   <ellipse  rx="6.1200" ry="6.1200" cx="117.1052" cy="302.6689"/>
   <ellipse  rx="6.1200" ry="6.1200" cx="121.7406" cy="203.0014"/>
   <ellipse  rx="6.1200" ry="6.1200" cx="114.9369" cy="222.8539"/>
   <ellipse  rx="6.1200" ry="6.1200" cx="121.3293" cy="150.9326"/>
   <ellipse  rx="6.1200" ry="6.1200" cx="116.4662" cy="144.3296"/>
   <ellipse  rx="6.1200" ry="6.1200" cx="110.5332" cy="283.2731"/>
   <ellipse  rx="6.1200" ry="6.1200" cx="154.5349" cy="113.7162"/>
   <ellipse  rx="6.1200" ry="6.1200" cx="175.4847" cy="266.0015"/>
   <ellipse  rx="6.1200" ry="6.1200" cx="114.3706" cy="273.6114"/>
   <ellipse  rx="6.1200" ry="6.1200" cx="188.9941" cy="307.2765"/>
   <ellipse  rx="6.1200" ry="6.1200" cx="117.6276" cy="120.5461"/>
   <ellipse  rx="6.1200" ry="6.1200" cx="213.4958" cy="354.9836"/>
   <ellipse  rx="6.1200" ry="6.1200" cx="118.3043" cy="260.8082"/>
   <ellipse  rx="6.1200" ry="6.1200" cx="179.4573" cy="217.7855"/>
   <ellipse  rx="6.1200" ry="6.1200" cx="144.1910" cy="258.4844"/>
   <ellipse  rx="6.1200" ry="6.1200" cx="238.3002" cy="139.1472"/>
   <ellipse  rx="6.1200" ry="6.1200" cx="239.5638" cy="227.6060"/>
   <ellipse  rx="6.1200" ry="6.1200" cx="125.2804" cy="214.7710"/>
   <ellipse  rx="6.1200" ry="6.1200" cx="207.3113" cy="314.5104"/>
   <ellipse  rx="6.1200" ry="6.1200" cx="115.6533" cy="223.5499"/>
   <ellipse  rx="6.1200" ry="6.1200" cx="201.6807" cy="171.1307"/>
   <ellipse  rx="6.1200" ry="6.1200" cx="200.8573" cy="142.8276"/>
   <ellipse  rx="6.1200" ry="6.1200" cx="247.5371" cy="292.3097"/>
   <ellipse  rx="6.1200" ry="6.1200" cx="115.9070" cy="190.2733"/>
   <ellipse  rx="6.1200" ry="6.1200" cx="114.9484" cy="285.3413"/>
   <ellipse  rx="6.1200" ry="6.1200" cx="119.8023" cy="175.0258"/>
   <ellipse  rx="6.1200" ry="6.1200" cx="114.8330" cy="313.3265"/>
   <ellipse  rx="6.1200" ry="6.1200" cx="138.0477" cy="283.9492"/>
   <ellipse  rx="6.1200" ry="6.1200" cx="119.5504" cy="102.0536"/>
   <ellipse  rx="6.1200" ry="6.1200" cx="114.9283" cy="169.0372"/>
   <ellipse  rx="6.1200" ry="6.1200" cx="226.7648" cy="207.6854"/>
   <ellipse  rx="6.1200" ry="6.1200" cx="145.2414" cy="163.2400"/>
   <ellipse  rx="6.1200" ry="6.1200" cx="468.1653" cy="330.5527"/>
   <ellipse  rx="6.1200" ry="6.1200" cx="115.6252" cy="198.5548"/>
   <ellipse  rx="6.1200" ry="6.1200" cx="171.4391" cy="160.8852"/>
  </g>
  <g style="fill:#000000; fill-rule:nonzero">
   <text   style="font-family:'Times','Nimbus Roman'; font-style:normal; font-weight:normal; font-size:612.0000" transform="matrix(0.0280,0.0000,-0.0000,-0.0280,78.6800,99.6194)">1</text>
   <text   style="font-family:'Times','Nimbus Roman'; font-style:normal; font-weight:normal; font-size:612.0000" transform="matrix(0.0280,0.0000,-0.0000,-0.0280,56.6800,168.7161)">1.05</text>
   <text   style="font-family:'Times','Nimbus Roman'; font-style:normal; font-weight:normal; font-size:612.0000" transform="matrix(0.0280,0.0000,-0.0000,-0.0280,65.6800,237.8129)">1.1</text>
   <text   style="font-family:'Times','Nimbus Roman'; font-style:normal; font-weight:normal; font-size:612.0000" transform="matrix(0.0280,0.0000,-0.0000,-0.0280,56.6800,306.9097)">1.15</text>
   <text   style="font-family:'Times','Nimbus Roman'; font-style:normal; font-weight:normal; font-size:612.0000" transform="matrix(0.0280,0.0000,-0.0000,-0.0280,64.6800,376.0065)">1.2</text>
   <text   style="font-family:'Times','Nimbus Roman'; font-style:normal; font-weight:normal; font-size:612.0000" transform="matrix(0.0280,0.0000,-0.0000,-0.0280,56.6800,445.1032)">1.25</text>
   <text   style="font-family:'Times','Nimbus Roman'; font-style:normal; font-weight:normal; font-size:612.0000" transform="matrix(0.0280,0.0000,-0.0000,-0.0280,65.6800,514.2000)">1.3</text>
  </g>
  <g style="fill:none; stroke:#000000; stroke-width:  0.9180; stroke-linecap:butt; stroke-linejoin:miter; stroke-dasharray:none">
   <path d="M91.8000,91.8000L91.8000,520.2000L703.8000,520.2000L703.8000,91.8000z"/>
  </g>
 </g>
</svg>
