<?xml version="1.0" encoding="ISO-8859-1"?>
<!DOCTYPE svg PUBLIC "-//W3C//DTD SVG 1.0//EN" "http://www.w3.org/TR/2001/REC-SVG-20010904/DTD/svg10.dtd">
<!-- generated by Grace-5.1.25 -->
<svg xml:space="preserve" width="11.0000in" height="8.5000in" viewBox="0.0000 0.0000 792.0000 612.0000">
 <g transform="translate(0,612.0000) scale(1,-1)">
  <g style="fill:#FFFFFF; fill-rule:nonzero">
   <path  d="M0.0000,0.0000L0.0000,612.0000L792.0000,612.0000L792.0000,0.0000z"/>
  </g>
  <g style="fill:none; stroke:#000000; stroke-width:  0.9180; stroke-linecap:butt; stroke-linejoin:miter; stroke-dasharray:none">
   <ellipse  rx="6.1200" ry="6.1200" cx="91.8000" cy="150.2545"/>
   <ellipse  rx="6.1200" ry="6.1200" cx="95.6437" cy="193.2303"/>
   <ellipse  rx="6.1200" ry="6.1200" cx="169.6092" cy="251.1278"/>
   <ellipse  rx="6.1200" ry="6.1200" cx="104.5738" cy="196.7300"/>
   <ellipse  rx="6.1200" ry="6.1200" cx="141.8339" cy="362.7885"/>
   <ellipse  rx="6.1200" ry="6.1200" cx="91.8000" cy="215.3152"/>
   <ellipse  rx="6.1200" ry="6.1200" cx="93.4867" cy="119.9849"/>
   <ellipse  rx="6.1200" ry="6.1200" cx="94.5933" cy="120.6748"/>
   <ellipse  rx="6.1200" ry="6.1200" cx="91.8000" cy="120.6094"/>
   <ellipse  rx="6.1200" ry="6.1200" cx="91.8000" cy="136.4371"/>
   <ellipse  rx="6.1200" ry="6.1200" cx="124.3108" cy="186.9123"/>
   <ellipse  rx="6.1200" ry="6.1200" cx="91.8000" cy="212.2501"/>
   <ellipse  rx="6.1200" ry="6.1200" cx="118.4148" cy="134.9328"/>
   <ellipse  rx="6.1200" ry="6.1200" cx="98.6772" cy="253.9483"/>
   <ellipse  rx="6.1200" ry="6.1200" cx="91.8000" cy="145.5743"/>
   <ellipse  rx="6.1200" ry="6.1200" cx="108.6491" cy="218.6586"/>
   <ellipse  rx="6.1200" ry="6.1200" cx="234.1041" cy="294.4050"/>
   <ellipse  rx="6.1200" ry="6.1200" cx="120.0688" cy="156.0564"/>
   <ellipse  rx="6.1200" ry="6.1200" cx="149.9798" cy="116.0310"/>
   <ellipse  rx="6.1200" ry="6.1200" cx="336.4451" cy="238.8866"/>
   <ellipse  rx="6.1200" ry="6.1200" cx="92.9479" cy="152.1208"/>
   <ellipse  rx="6.1200" ry="6.1200" cx="220.4474" cy="348.0260"/>
   <ellipse  rx="6.1200" ry="6.1200" cx="98.8473" cy="189.8622"/>
   <ellipse  rx="6.1200" ry="6.1200" cx="105.4017" cy="286.7716"/>
   <ellipse  rx="6.1200" ry="6.1200" cx="259.3098" cy="338.4344"/>
   <ellipse  rx="6.1200" ry="6.1200" cx="92.1488" cy="304.3331"/>
   <ellipse  rx="6.1200" ry="6.1200" cx="96.1167" cy="160.9517"/>
   <ellipse  rx="6.1200" ry="6.1200" cx="91.8000" cy="216.2606"/>
   <ellipse  rx="6.1200" ry="6.1200" cx="93.6423" cy="147.1216"/>
   <ellipse  rx="6.1200" ry="6.1200" cx="161.2101" cy="236.7756"/>
   <ellipse  rx="6.1200" ry="6.1200" cx="91.8202" cy="114.0718"/>
   <ellipse  rx="6.1200" ry="6.1200" cx="166.3558" cy="153.8246"/>
   <ellipse  rx="6.1200" ry="6.1200" cx="91.9119" cy="177.6353"/>
   <ellipse  rx="6.1200" ry="6.1200" cx="91.8000" cy="187.9193"/>
   <ellipse  rx="6.1200" ry="6.1200" cx="204.0580" cy="178.0631"/>
   <ellipse  rx="6.1200" ry="6.1200" cx="100.3700" cy="258.3064"/>
   <ellipse  rx="6.1200" ry="6.1200" cx="633.9375" cy="247.0660"/>
   <ellipse  rx="6.1200" ry="6.1200" cx="91.8000" cy="182.5659"/>
   <ellipse  rx="6.1200" ry="6.1200" cx="91.8000" cy="390.9494"/>
   <ellipse  rx="6.1200" ry="6.1200" cx="96.8123" cy="159.0699"/>
   <ellipse  rx="6.1200" ry="6.1200" cx="153.5442" cy="238.0082"/>
   <ellipse  rx="6.1200" ry="6.1200" cx="91.8000" cy="242.5694"/>
   <ellipse  rx="6.1200" ry="6.1200" cx="98.4769" cy="277.0572"/>
   <ellipse  rx="6.1200" ry="6.1200" cx="174.9755" cy="151.5773"/>
   <ellipse  rx="6.1200" ry="6.1200" cx="91.8000" cy="181.6002"/>
   <ellipse  rx="6.1200" ry="6.1200" cx="270.9998" cy="136.5618"/>
   <ellipse  rx="6.1200" ry="6.1200" cx="118.7112" cy="163.2400"/>
   <ellipse  rx="6.1200" ry="6.1200" cx="91.9063" cy="242.0221"/>
   <ellipse  rx="6.1200" ry="6.1200" cx="173.9222" cy="215.9096"/>
   <ellipse  rx="6.1200" ry="6.1200" cx="91.8000" cy="311.9712"/>
   <ellipse  rx="6.1200" ry="6.1200" cx="91.8000" cy="226.2196"/>
   <ellipse  rx="6.1200" ry="6.1200" cx="91.8000" cy="186.0512"/>
   <ellipse  rx="6.1200" ry="6.1200" cx="152.9339" cy="173.0378"/>
   <ellipse  rx="6.1200" ry="6.1200" cx="91.9865" cy="138.5505"/>
   <ellipse  rx="6.1200" ry="6.1200" cx="92.1037" cy="167.7756"/>
   <ellipse  rx="6.1200" ry="6.1200" cx="205.2686" cy="244.4759"/>
   <ellipse  rx="6.1200" ry="6.1200" cx="91.8000" cy="191.5133"/>
   <ellipse  rx="6.1200" ry="6.1200" cx="112.7822" cy="144.6225"/>
   <ellipse  rx="6.1200" ry="6.1200" cx="140.5166" cy="353.3375"/>
   <ellipse  rx="6.1200" ry="6.1200" cx="91.9886" cy="248.0964"/>
   <ellipse  rx="6.1200" ry="6.1200" cx="268.5206" cy="314.2815"/>
   <ellipse  rx="6.1200" ry="6.1200" cx="92.7292" cy="184.7465"/>
   <ellipse  rx="6.1200" ry="6.1200" cx="91.8054" cy="145.2457"/>
   <ellipse  rx="6.1200" ry="6.1200" cx="91.8000" cy="203.4732"/>
   <ellipse  rx="6.1200" ry="6.1200" cx="93.2596" cy="173.6874"/>
   <ellipse  rx="6.1200" ry="6.1200" cx="94.0762" cy="161.6986"/>
   <ellipse  rx="6.1200" ry="6.1200" cx="94.6829" cy="293.1552"/>
   <ellipse  rx="6.1200" ry="6.1200" cx="91.8000" cy="176.8736"/>
   <ellipse  rx="6.1200" ry="6.1200" cx="128.1999" cy="236.5605"/>
   <ellipse  rx="6.1200" ry="6.1200" cx="91.8055" cy="299.3518"/>
   <ellipse  rx="6.1200" ry="6.1200" cx="112.0814" cy="125.7589"/>
   <ellipse  rx="6.1200" ry="6.1200" cx="110.9750" cy="288.9582"/>
   <ellipse  rx="6.1200" ry="6.1200" cx="91.8963" cy="288.1099"/>
   <ellipse  rx="6.1200" ry="6.1200" cx="172.5084" cy="268.3211"/>
   <ellipse  rx="6.1200" ry="6.1200" cx="152.1899" cy="177.2901"/>
   <ellipse  rx="6.1200" ry="6.1200" cx="93.5169" cy="305.9634"/>
   <ellipse  rx="6.1200" ry="6.1200" cx="153.1505" cy="302.7136"/>
   <ellipse  rx="6.1200" ry="6.1200" cx="92.1336" cy="302.6689"/>
   <ellipse  rx="6.1200" ry="6.1200" cx="97.0000" cy="203.0014"/>
   <ellipse  rx="6.1200" ry="6.1200" cx="91.8078" cy="222.8539"/>
   <ellipse  rx="6.1200" ry="6.1200" cx="93.0709" cy="150.9326"/>
   <ellipse  rx="6.1200" ry="6.1200" cx="91.8000" cy="144.3296"/>
   <ellipse  rx="6.1200" ry="6.1200" cx="91.8000" cy="283.2731"/>
   <ellipse  rx="6.1200" ry="6.1200" cx="128.3183" cy="113.7162"/>
   <ellipse  rx="6.1200" ry="6.1200" cx="153.7660" cy="266.0015"/>
   <ellipse  rx="6.1200" ry="6.1200" cx="91.8000" cy="273.6114"/>
   <ellipse  rx="6.1200" ry="6.1200" cx="167.5296" cy="307.2765"/>
   <ellipse  rx="6.1200" ry="6.1200" cx="92.7684" cy="120.5461"/>
   <ellipse  rx="6.1200" ry="6.1200" cx="198.6814" cy="354.9836"/>
   <ellipse  rx="6.1200" ry="6.1200" cx="95.0917" cy="260.8082"/>
   <ellipse  rx="6.1200" ry="6.1200" cx="161.1937" cy="217.7855"/>
   <ellipse  rx="6.1200" ry="6.1200" cx="121.6460" cy="258.4844"/>
   <ellipse  rx="6.1200" ry="6.1200" cx="215.9914" cy="139.1472"/>
   <ellipse  rx="6.1200" ry="6.1200" cx="226.7085" cy="227.6060"/>
   <ellipse  rx="6.1200" ry="6.1200" cx="103.3391" cy="214.7710"/>
   <ellipse  rx="6.1200" ry="6.1200" cx="186.4195" cy="314.5104"/>
   <ellipse  rx="6.1200" ry="6.1200" cx="92.5525" cy="223.5499"/>
   <ellipse  rx="6.1200" ry="6.1200" cx="180.0129" cy="171.1307"/>
   <ellipse  rx="6.1200" ry="6.1200" cx="178.0949" cy="142.8276"/>
   <ellipse  rx="6.1200" ry="6.1200" cx="227.5685" cy="292.3097"/>
   <ellipse  rx="6.1200" ry="6.1200" cx="92.4367" cy="190.2733"/>
   <ellipse  rx="6.1200" ry="6.1200" cx="91.8000" cy="285.3413"/>
   <ellipse  rx="6.1200" ry="6.1200" cx="93.0956" cy="175.0258"/>
   <ellipse  rx="6.1200" ry="6.1200" cx="91.8000" cy="313.3265"/>
   <ellipse  rx="6.1200" ry="6.1200" cx="114.2235" cy="283.9492"/>
   <ellipse  rx="6.1200" ry="6.1200" cx="94.2486" cy="102.0536"/>
   <ellipse  rx="6.1200" ry="6.1200" cx="92.2631" cy="169.0372"/>
   <ellipse  rx="6.1200" ry="6.1200" cx="211.1922" cy="207.6854"/>
   <ellipse  rx="6.1200" ry="6.1200" cx="118.7112" cy="163.2400"/>
   <ellipse  rx="6.1200" ry="6.1200" cx="460.5825" cy="330.5527"/>
   <ellipse  rx="6.1200" ry="6.1200" cx="91.8000" cy="198.5548"/>
   <ellipse  rx="6.1200" ry="6.1200" cx="149.2508" cy="160.8852"/>
  </g>
  <g style="fill:#000000; fill-rule:nonzero">
   <text   style="font-family:'Times','Nimbus Roman'; font-style:normal; font-weight:normal; font-size:612.0000" transform="matrix(0.0280,0.0000,-0.0000,-0.0280,78.6800,99.6194)">1</text>
   <text   style="font-family:'Times','Nimbus Roman'; font-style:normal; font-weight:normal; font-size:612.0000" transform="matrix(0.0280,0.0000,-0.0000,-0.0280,56.6800,168.7161)">1.05</text>
   <text   style="font-family:'Times','Nimbus Roman'; font-style:normal; font-weight:normal; font-size:612.0000" transform="matrix(0.0280,0.0000,-0.0000,-0.0280,65.6800,237.8129)">1.1</text>
   <text   style="font-family:'Times','Nimbus Roman'; font-style:normal; font-weight:normal; font-size:612.0000" transform="matrix(0.0280,0.0000,-0.0000,-0.0280,56.6800,306.9097)">1.15</text>
   <text   style="font-family:'Times','Nimbus Roman'; font-style:normal; font-weight:normal; font-size:612.0000" transform="matrix(0.0280,0.0000,-0.0000,-0.0280,64.6800,376.0065)">1.2</text>
   <text   style="font-family:'Times','Nimbus Roman'; font-style:normal; font-weight:normal; font-size:612.0000" transform="matrix(0.0280,0.0000,-0.0000,-0.0280,56.6800,445.1032)">1.25</text>
   <text   style="font-family:'Times','Nimbus Roman'; font-style:normal; font-weight:normal; font-size:612.0000" transform="matrix(0.0280,0.0000,-0.0000,-0.0280,65.6800,514.2000)">1.3</text>
  </g>
  <g style="fill:none; stroke:#000000; stroke-width:  0.9180; stroke-linecap:butt; stroke-linejoin:miter; stroke-dasharray:none">
   <path d="M91.8000,91.8000L91.8000,520.2000L703.8000,520.2000L703.8000,91.8000z"/>
  </g>
 </g>
</svg>
