<?xml version="1.0" encoding="ISO-8859-1"?>
<!DOCTYPE svg PUBLIC "-//W3C//DTD SVG 1.0//EN" "http://www.w3.org/TR/2001/REC-SVG-20010904/DTD/svg10.dtd">
<!-- generated by Grace-5.1.25 -->
<svg xml:space="preserve" width="11.0000in" height="8.5000in" viewBox="0.0000 0.0000 792.0000 612.0000">
 <g transform="translate(0,612.0000) scale(1,-1)">
  <g style="fill:#FFFFFF; fill-rule:nonzero">
   <path  d="M0.0000,0.0000L0.0000,612.0000L792.0000,612.0000L792.0000,0.0000z"/>
  </g>
  <g style="fill:none; stroke:#000000; stroke-width:  0.9180; stroke-linecap:butt; stroke-linejoin:miter; stroke-dasharray:none">
   <ellipse  rx="6.1200" ry="6.1200" cx="165.4064" cy="156.5852"/>
   <ellipse  rx="6.1200" ry="6.1200" cx="182.7083" cy="201.1134"/>
   <ellipse  rx="6.1200" ry="6.1200" cx="206.0177" cy="144.3082"/>
   <ellipse  rx="6.1200" ry="6.1200" cx="184.1173" cy="135.7493"/>
   <ellipse  rx="6.1200" ry="6.1200" cx="250.9720" cy="149.8182"/>
   <ellipse  rx="6.1200" ry="6.1200" cx="191.5996" cy="137.6327"/>
   <ellipse  rx="6.1200" ry="6.1200" cx="153.2199" cy="127.5274"/>
   <ellipse  rx="6.1200" ry="6.1200" cx="153.4976" cy="132.6139"/>
   <ellipse  rx="6.1200" ry="6.1200" cx="153.4713" cy="208.1873"/>
   <ellipse  rx="6.1200" ry="6.1200" cx="159.8435" cy="148.9615"/>
   <ellipse  rx="6.1200" ry="6.1200" cx="180.1647" cy="162.9973"/>
   <ellipse  rx="6.1200" ry="6.1200" cx="190.3656" cy="125.7704"/>
   <ellipse  rx="6.1200" ry="6.1200" cx="159.2379" cy="140.4672"/>
   <ellipse  rx="6.1200" ry="6.1200" cx="207.1532" cy="126.9657"/>
   <ellipse  rx="6.1200" ry="6.1200" cx="163.5221" cy="134.4989"/>
   <ellipse  rx="6.1200" ry="6.1200" cx="192.9457" cy="488.3337"/>
   <ellipse  rx="6.1200" ry="6.1200" cx="167.7422" cy="166.6477"/>
   <ellipse  rx="6.1200" ry="6.1200" cx="151.6281" cy="122.7922"/>
   <ellipse  rx="6.1200" ry="6.1200" cx="201.0894" cy="133.9561"/>
   <ellipse  rx="6.1200" ry="6.1200" cx="166.1577" cy="134.3887"/>
   <ellipse  rx="6.1200" ry="6.1200" cx="245.0287" cy="247.6010"/>
   <ellipse  rx="6.1200" ry="6.1200" cx="181.3523" cy="200.1688"/>
   <ellipse  rx="6.1200" ry="6.1200" cx="220.3678" cy="111.6224"/>
   <ellipse  rx="6.1200" ry="6.1200" cx="241.1671" cy="447.0254"/>
   <ellipse  rx="6.1200" ry="6.1200" cx="227.4380" cy="131.8575"/>
   <ellipse  rx="6.1200" ry="6.1200" cx="169.7130" cy="126.5543"/>
   <ellipse  rx="6.1200" ry="6.1200" cx="191.9802" cy="309.7164"/>
   <ellipse  rx="6.1200" ry="6.1200" cx="164.1451" cy="129.3233"/>
   <ellipse  rx="6.1200" ry="6.1200" cx="200.2395" cy="345.1260"/>
   <ellipse  rx="6.1200" ry="6.1200" cx="150.8393" cy="146.7578"/>
   <ellipse  rx="6.1200" ry="6.1200" cx="166.8437" cy="140.5375"/>
   <ellipse  rx="6.1200" ry="6.1200" cx="176.4298" cy="116.0794"/>
   <ellipse  rx="6.1200" ry="6.1200" cx="180.5701" cy="186.0078"/>
   <ellipse  rx="6.1200" ry="6.1200" cx="176.6020" cy="128.4264"/>
   <ellipse  rx="6.1200" ry="6.1200" cx="208.9078" cy="128.4334"/>
   <ellipse  rx="6.1200" ry="6.1200" cx="204.3824" cy="468.0750"/>
   <ellipse  rx="6.1200" ry="6.1200" cx="178.4148" cy="137.1094"/>
   <ellipse  rx="6.1200" ry="6.1200" cx="262.3095" cy="263.5495"/>
   <ellipse  rx="6.1200" ry="6.1200" cx="168.9554" cy="185.9203"/>
   <ellipse  rx="6.1200" ry="6.1200" cx="200.7358" cy="197.0824"/>
   <ellipse  rx="6.1200" ry="6.1200" cx="202.5721" cy="127.0730"/>
   <ellipse  rx="6.1200" ry="6.1200" cx="216.4568" cy="126.9531"/>
   <ellipse  rx="6.1200" ry="6.1200" cx="165.9389" cy="144.4630"/>
   <ellipse  rx="6.1200" ry="6.1200" cx="178.0261" cy="127.3822"/>
   <ellipse  rx="6.1200" ry="6.1200" cx="159.8937" cy="278.4088"/>
   <ellipse  rx="6.1200" ry="6.1200" cx="170.6343" cy="288.3253"/>
   <ellipse  rx="6.1200" ry="6.1200" cx="202.3518" cy="149.8230"/>
   <ellipse  rx="6.1200" ry="6.1200" cx="191.8389" cy="340.1605"/>
   <ellipse  rx="6.1200" ry="6.1200" cx="230.5131" cy="161.3775"/>
   <ellipse  rx="6.1200" ry="6.1200" cx="195.9897" cy="131.9932"/>
   <ellipse  rx="6.1200" ry="6.1200" cx="179.8180" cy="410.9757"/>
   <ellipse  rx="6.1200" ry="6.1200" cx="174.5788" cy="247.1246"/>
   <ellipse  rx="6.1200" ry="6.1200" cx="160.6944" cy="320.8419"/>
   <ellipse  rx="6.1200" ry="6.1200" cx="172.4603" cy="129.6734"/>
   <ellipse  rx="6.1200" ry="6.1200" cx="203.3397" cy="190.8262"/>
   <ellipse  rx="6.1200" ry="6.1200" cx="182.0170" cy="141.4515"/>
   <ellipse  rx="6.1200" ry="6.1200" cx="163.1389" cy="143.0160"/>
   <ellipse  rx="6.1200" ry="6.1200" cx="247.1670" cy="126.9869"/>
   <ellipse  rx="6.1200" ry="6.1200" cx="204.7972" cy="151.0743"/>
   <ellipse  rx="6.1200" ry="6.1200" cx="179.2928" cy="142.7284"/>
   <ellipse  rx="6.1200" ry="6.1200" cx="163.3898" cy="207.1336"/>
   <ellipse  rx="6.1200" ry="6.1200" cx="186.8321" cy="124.6334"/>
   <ellipse  rx="6.1200" ry="6.1200" cx="174.8404" cy="132.8980"/>
   <ellipse  rx="6.1200" ry="6.1200" cx="170.0137" cy="145.3391"/>
   <ellipse  rx="6.1200" ry="6.1200" cx="222.9378" cy="138.9684"/>
   <ellipse  rx="6.1200" ry="6.1200" cx="176.1231" cy="156.3180"/>
   <ellipse  rx="6.1200" ry="6.1200" cx="200.1529" cy="144.9720"/>
   <ellipse  rx="6.1200" ry="6.1200" cx="225.4325" cy="180.2811"/>
   <ellipse  rx="6.1200" ry="6.1200" cx="155.5445" cy="135.8064"/>
   <ellipse  rx="6.1200" ry="6.1200" cx="221.2481" cy="156.2242"/>
   <ellipse  rx="6.1200" ry="6.1200" cx="220.9066" cy="139.6839"/>
   <ellipse  rx="6.1200" ry="6.1200" cx="212.9397" cy="254.3214"/>
   <ellipse  rx="6.1200" ry="6.1200" cx="176.2908" cy="136.8729"/>
   <ellipse  rx="6.1200" ry="6.1200" cx="228.0943" cy="137.1268"/>
   <ellipse  rx="6.1200" ry="6.1200" cx="226.7860" cy="131.6626"/>
   <ellipse  rx="6.1200" ry="6.1200" cx="226.7680" cy="132.6028"/>
   <ellipse  rx="6.1200" ry="6.1200" cx="186.6421" cy="207.3757"/>
   <ellipse  rx="6.1200" ry="6.1200" cx="194.6347" cy="134.2990"/>
   <ellipse  rx="6.1200" ry="6.1200" cx="165.6793" cy="128.1314"/>
   <ellipse  rx="6.1200" ry="6.1200" cx="163.0210" cy="112.4470"/>
   <ellipse  rx="6.1200" ry="6.1200" cx="218.9593" cy="146.3910"/>
   <ellipse  rx="6.1200" ry="6.1200" cx="150.6961" cy="120.5747"/>
   <ellipse  rx="6.1200" ry="6.1200" cx="212.0058" cy="138.4975"/>
   <ellipse  rx="6.1200" ry="6.1200" cx="215.0695" cy="153.6961"/>
   <ellipse  rx="6.1200" ry="6.1200" cx="228.6230" cy="140.0637"/>
   <ellipse  rx="6.1200" ry="6.1200" cx="153.4458" cy="144.3999"/>
   <ellipse  rx="6.1200" ry="6.1200" cx="247.8298" cy="255.6874"/>
   <ellipse  rx="6.1200" ry="6.1200" cx="209.9150" cy="131.0827"/>
   <ellipse  rx="6.1200" ry="6.1200" cx="192.5942" cy="475.1917"/>
   <ellipse  rx="6.1200" ry="6.1200" cx="208.9794" cy="130.2385"/>
   <ellipse  rx="6.1200" ry="6.1200" cx="160.9346" cy="121.4471"/>
   <ellipse  rx="6.1200" ry="6.1200" cx="196.5479" cy="144.0023"/>
   <ellipse  rx="6.1200" ry="6.1200" cx="191.3805" cy="285.3042"/>
   <ellipse  rx="6.1200" ry="6.1200" cx="231.5353" cy="138.0524"/>
   <ellipse  rx="6.1200" ry="6.1200" cx="194.9149" cy="151.3383"/>
   <ellipse  rx="6.1200" ry="6.1200" cx="173.8110" cy="124.8962"/>
   <ellipse  rx="6.1200" ry="6.1200" cx="162.4163" cy="128.3398"/>
   <ellipse  rx="6.1200" ry="6.1200" cx="222.5974" cy="146.3972"/>
   <ellipse  rx="6.1200" ry="6.1200" cx="181.5178" cy="351.0495"/>
   <ellipse  rx="6.1200" ry="6.1200" cx="219.7920" cy="266.5763"/>
   <ellipse  rx="6.1200" ry="6.1200" cx="175.3792" cy="137.4135"/>
   <ellipse  rx="6.1200" ry="6.1200" cx="231.0587" cy="272.4740"/>
   <ellipse  rx="6.1200" ry="6.1200" cx="219.2315" cy="168.7965"/>
   <ellipse  rx="6.1200" ry="6.1200" cx="146.0008" cy="146.7566"/>
   <ellipse  rx="6.1200" ry="6.1200" cx="172.9682" cy="133.8206"/>
   <ellipse  rx="6.1200" ry="6.1200" cx="170.6343" cy="288.3253"/>
   <ellipse  rx="6.1200" ry="6.1200" cx="184.8519" cy="126.0116"/>
   <ellipse  rx="6.1200" ry="6.1200" cx="169.6863" cy="134.4313"/>
  </g>
  <g style="fill:#000000; fill-rule:nonzero">
   <text   style="font-family:'Times','Nimbus Roman'; font-style:normal; font-weight:normal; font-size:612.0000" transform="matrix(0.0280,0.0000,-0.0000,-0.0280,78.6800,124.7455)">1</text>
   <text   style="font-family:'Times','Nimbus Roman'; font-style:normal; font-weight:normal; font-size:612.0000" transform="matrix(0.0280,0.0000,-0.0000,-0.0280,64.6800,319.4727)">1.5</text>
   <text   style="font-family:'Times','Nimbus Roman'; font-style:normal; font-weight:normal; font-size:612.0000" transform="matrix(0.0280,0.0000,-0.0000,-0.0280,77.6800,514.7000)">2</text>
  </g>
  <g style="fill:none; stroke:#000000; stroke-width:  0.9180; stroke-linecap:butt; stroke-linejoin:miter; stroke-dasharray:none">
   <path d="M91.8000,91.8000L91.8000,520.2000L703.8000,520.2000L703.8000,91.8000z"/>
  </g>
 </g>
</svg>
