<?xml version="1.0" encoding="ISO-8859-1"?>
<!DOCTYPE svg PUBLIC "-//W3C//DTD SVG 1.0//EN" "http://www.w3.org/TR/2001/REC-SVG-20010904/DTD/svg10.dtd">
<!-- generated by Grace-5.1.25 -->
<svg xml:space="preserve" width="11.0000in" height="8.5000in" viewBox="0.0000 0.0000 792.0000 612.0000">
 <g transform="translate(0,612.0000) scale(1,-1)">
  <g style="fill:#FFFFFF; fill-rule:nonzero">
   <path  d="M0.0000,0.0000L0.0000,612.0000L792.0000,612.0000L792.0000,0.0000z"/>
  </g>
  <g style="fill:none; stroke:#000000; stroke-width:  0.9180; stroke-linecap:butt; stroke-linejoin:miter; stroke-dasharray:none">
   <path d="M122.4000,91.8000L122.4000,514.0800L134.6400,514.0800L134.6400,91.8000z"/>
   <path d="M159.1200,91.8000L159.1200,151.4700L171.3600,151.4700L171.3600,91.8000z"/>
   <path d="M195.8400,91.8000L195.8400,119.3400L208.0800,119.3400L208.0800,91.8000z"/>
   <path d="M232.5600,91.8000L232.5600,105.5700L244.8000,105.5700L244.8000,91.8000z"/>
   <path d="M269.2800,91.8000L269.2800,105.5700L281.5200,105.5700L281.5200,91.8000z"/>
   <path d="M306.0000,91.8000L306.0000,96.3900L318.2400,96.3900L318.2400,91.8000z"/>
   <path d="M342.7200,91.8000L342.7200,105.5700L354.9600,105.5700L354.9600,91.8000z"/>
   <path d="M379.4400,91.8000L379.4400,110.1600L391.6800,110.1600L391.6800,91.8000z"/>
   <path d="M416.1600,91.8000L416.1600,91.8000L428.4000,91.8000L428.4000,91.8000z"/>
   <path d="M452.8800,91.8000L452.8800,105.5700L465.1200,105.5700L465.1200,91.8000z"/>
   <path d="M489.6000,91.8000L489.6000,114.7500L501.8400,114.7500L501.8400,91.8000z"/>
   <path d="M526.3200,91.8000L526.3200,96.3900L538.5600,96.3900L538.5600,91.8000z"/>
   <path d="M563.0400,91.8000L563.0400,91.8000L575.2800,91.8000L575.2800,91.8000z"/>
   <path d="M599.7600,91.8000L599.7600,96.3900L612.0000,96.3900L612.0000,91.8000z"/>
   <path d="M636.4800,91.8000L636.4800,96.3900L648.7200,96.3900L648.7200,91.8000z"/>
   <path d="M673.2000,91.8000L673.2000,96.3900L685.4400,96.3900L685.4400,91.8000z"/>
   <path d="M91.8000,91.8000L734.4000,91.8000"/>
   <path d="M91.8000,550.8000L734.4000,550.8000"/>
   <path d="M137.7000,91.8000L137.7000,97.9200"/>
   <path d="M137.7000,550.8000L137.7000,544.6800"/>
   <path d="M229.5000,91.8000L229.5000,97.9200"/>
   <path d="M229.5000,550.8000L229.5000,544.6800"/>
   <path d="M321.3000,91.8000L321.3000,97.9200"/>
   <path d="M321.3000,550.8000L321.3000,544.6800"/>
   <path d="M413.1000,91.8000L413.1000,97.9200"/>
   <path d="M413.1000,550.8000L413.1000,544.6800"/>
   <path d="M504.9000,91.8000L504.9000,97.9200"/>
   <path d="M504.9000,550.8000L504.9000,544.6800"/>
   <path d="M596.7000,91.8000L596.7000,97.9200"/>
   <path d="M596.7000,550.8000L596.7000,544.6800"/>
   <path d="M688.5000,91.8000L688.5000,97.9200"/>
   <path d="M688.5000,550.8000L688.5000,544.6800"/>
   <path d="M91.8000,91.8000L91.8000,104.0400"/>
   <path d="M91.8000,550.8000L91.8000,538.5600"/>
   <path d="M183.6000,91.8000L183.6000,104.0400"/>
   <path d="M183.6000,550.8000L183.6000,538.5600"/>
   <path d="M275.4000,91.8000L275.4000,104.0400"/>
   <path d="M275.4000,550.8000L275.4000,538.5600"/>
   <path d="M367.2000,91.8000L367.2000,104.0400"/>
   <path d="M367.2000,550.8000L367.2000,538.5600"/>
   <path d="M459.0000,91.8000L459.0000,104.0400"/>
   <path d="M459.0000,550.8000L459.0000,538.5600"/>
   <path d="M550.8000,91.8000L550.8000,104.0400"/>
   <path d="M550.8000,550.8000L550.8000,538.5600"/>
   <path d="M642.6000,91.8000L642.6000,104.0400"/>
   <path d="M642.6000,550.8000L642.6000,538.5600"/>
   <path d="M734.4000,91.8000L734.4000,104.0400"/>
   <path d="M734.4000,550.8000L734.4000,538.5600"/>
  </g>
  <g style="fill:#000000; fill-rule:nonzero">
   <text   style="font-family:'Times','Nimbus Roman'; font-style:normal; font-weight:normal; font-size:612.0000" transform="matrix(0.0280,0.0000,-0.0000,-0.0280,87.8000,74.6800)">0</text>
   <text   style="font-family:'Times','Nimbus Roman'; font-style:normal; font-weight:normal; font-size:612.0000" transform="matrix(0.0280,0.0000,-0.0000,-0.0280,173.6000,73.6800)">0.1</text>
   <text   style="font-family:'Times','Nimbus Roman'; font-style:normal; font-weight:normal; font-size:612.0000" transform="matrix(0.0280,0.0000,-0.0000,-0.0280,264.9000,74.6800)">0.2</text>
   <text   style="font-family:'Times','Nimbus Roman'; font-style:normal; font-weight:normal; font-size:612.0000" transform="matrix(0.0280,0.0000,-0.0000,-0.0280,357.2000,74.6800)">0.3</text>
   <text   style="font-family:'Times','Nimbus Roman'; font-style:normal; font-weight:normal; font-size:612.0000" transform="matrix(0.0280,0.0000,-0.0000,-0.0280,448.5000,74.6800)">0.4</text>
   <text   style="font-family:'Times','Nimbus Roman'; font-style:normal; font-weight:normal; font-size:612.0000" transform="matrix(0.0280,0.0000,-0.0000,-0.0280,540.3000,73.6800)">0.5</text>
   <text   style="font-family:'Times','Nimbus Roman'; font-style:normal; font-weight:normal; font-size:612.0000" transform="matrix(0.0280,0.0000,-0.0000,-0.0280,632.1000,73.6800)">0.6</text>
   <text   style="font-family:'Times','Nimbus Roman'; font-style:normal; font-weight:normal; font-size:612.0000" transform="matrix(0.0280,0.0000,-0.0000,-0.0280,723.9000,74.6800)">0.7</text>
  </g>
  <g style="fill:none; stroke:#000000; stroke-width:  0.9180; stroke-linecap:butt; stroke-linejoin:miter; stroke-dasharray:none">
   <path d="M91.8000,91.8000L91.8000,550.8000"/>
   <path d="M734.4000,91.8000L734.4000,550.8000"/>
   <path d="M91.8000,137.7000L97.9200,137.7000"/>
   <path d="M734.4000,137.7000L728.2800,137.7000"/>
   <path d="M91.8000,229.5000L97.9200,229.5000"/>
   <path d="M734.4000,229.5000L728.2800,229.5000"/>
   <path d="M91.8000,321.3000L97.9200,321.3000"/>
   <path d="M734.4000,321.3000L728.2800,321.3000"/>
   <path d="M91.8000,413.1000L97.9200,413.1000"/>
   <path d="M734.4000,413.1000L728.2800,413.1000"/>
   <path d="M91.8000,504.9000L97.9200,504.9000"/>
   <path d="M734.4000,504.9000L728.2800,504.9000"/>
   <path d="M91.8000,91.8000L104.0400,91.8000"/>
   <path d="M734.4000,91.8000L722.1600,91.8000"/>
   <path d="M91.8000,183.6000L104.0400,183.6000"/>
   <path d="M734.4000,183.6000L722.1600,183.6000"/>
   <path d="M91.8000,275.4000L104.0400,275.4000"/>
   <path d="M734.4000,275.4000L722.1600,275.4000"/>
   <path d="M91.8000,367.2000L104.0400,367.2000"/>
   <path d="M734.4000,367.2000L722.1600,367.2000"/>
   <path d="M91.8000,459.0000L104.0400,459.0000"/>
   <path d="M734.4000,459.0000L722.1600,459.0000"/>
   <path d="M91.8000,550.8000L104.0400,550.8000"/>
   <path d="M734.4000,550.8000L722.1600,550.8000"/>
  </g>
  <g style="fill:#000000; fill-rule:nonzero">
   <text   style="font-family:'Times','Nimbus Roman'; font-style:normal; font-weight:normal; font-size:612.0000" transform="matrix(0.0280,0.0000,-0.0000,-0.0280,77.6800,86.3000)">0</text>
   <text   style="font-family:'Times','Nimbus Roman'; font-style:normal; font-weight:normal; font-size:612.0000" transform="matrix(0.0280,0.0000,-0.0000,-0.0280,68.6800,178.1000)">20</text>
   <text   style="font-family:'Times','Nimbus Roman'; font-style:normal; font-weight:normal; font-size:612.0000" transform="matrix(0.0280,0.0000,-0.0000,-0.0280,68.6800,269.9000)">40</text>
   <text   style="font-family:'Times','Nimbus Roman'; font-style:normal; font-weight:normal; font-size:612.0000" transform="matrix(0.0280,0.0000,-0.0000,-0.0280,68.6800,361.2000)">60</text>
   <text   style="font-family:'Times','Nimbus Roman'; font-style:normal; font-weight:normal; font-size:612.0000" transform="matrix(0.0280,0.0000,-0.0000,-0.0280,68.6800,453.5000)">80</text>
   <text   style="font-family:'Times','Nimbus Roman'; font-style:normal; font-weight:normal; font-size:612.0000" transform="matrix(0.0280,0.0000,-0.0000,-0.0280,60.6800,544.8000)">100</text>
  </g>
  <g style="fill:none; stroke:#000000; stroke-width:  0.9180; stroke-linecap:butt; stroke-linejoin:miter; stroke-dasharray:none">
   <path d="M91.8000,91.8000L91.8000,550.8000L734.4000,550.8000L734.4000,91.8000z"/>
  </g>
 </g>
</svg>
