<?xml version="1.0" encoding="ISO-8859-1"?>
<!DOCTYPE svg PUBLIC "-//W3C//DTD SVG 1.0//EN" "http://www.w3.org/TR/2001/REC-SVG-20010904/DTD/svg10.dtd">
<!-- generated by Grace-5.1.25 -->
<svg xml:space="preserve" width="11.0000in" height="8.5000in" viewBox="0.0000 0.0000 792.0000 612.0000">
 <g transform="translate(0,612.0000) scale(1,-1)">
  <g style="fill:#FFFFFF; fill-rule:nonzero">
   <path  d="M0.0000,0.0000L0.0000,612.0000L792.0000,612.0000L792.0000,0.0000z"/>
  </g>
  <g style="fill:none; stroke:#000000; stroke-width:  0.9180; stroke-linecap:butt; stroke-linejoin:miter; stroke-dasharray:none">
   <path d="M124.2360,91.8000L124.2360,323.5950L136.4760,323.5950L136.4760,91.8000z"/>
   <path d="M162.7920,91.8000L162.7920,119.3400L175.0320,119.3400L175.0320,91.8000z"/>
   <path d="M201.3480,91.8000L201.3480,107.8650L213.5880,107.8650L213.5880,91.8000z"/>
   <path d="M239.9040,91.8000L239.9040,100.9800L252.1440,100.9800L252.1440,91.8000z"/>
   <path d="M278.4600,91.8000L278.4600,100.9800L290.7000,100.9800L290.7000,91.8000z"/>
   <path d="M317.0160,91.8000L317.0160,96.3900L329.2560,96.3900L329.2560,91.8000z"/>
   <path d="M355.5720,91.8000L355.5720,96.3900L367.8120,96.3900L367.8120,91.8000z"/>
   <path d="M394.1280,91.8000L394.1280,91.8000L406.3680,91.8000L406.3680,91.8000z"/>
   <path d="M432.6840,91.8000L432.6840,98.6850L444.9240,98.6850L444.9240,91.8000z"/>
   <path d="M471.2400,91.8000L471.2400,91.8000L483.4800,91.8000L483.4800,91.8000z"/>
   <path d="M509.7960,91.8000L509.7960,91.8000L522.0360,91.8000L522.0360,91.8000z"/>
   <path d="M548.3520,91.8000L548.3520,91.8000L560.5920,91.8000L560.5920,91.8000z"/>
   <path d="M586.9080,91.8000L586.9080,91.8000L599.1480,91.8000L599.1480,91.8000z"/>
   <path d="M625.4640,91.8000L625.4640,91.8000L637.7040,91.8000L637.7040,91.8000z"/>
   <path d="M664.0200,91.8000L664.0200,91.8000L676.2600,91.8000L676.2600,91.8000z"/>
   <path d="M702.5760,91.8000L702.5760,96.3900L714.8160,96.3900L714.8160,91.8000z"/>
   <path d="M91.8000,91.8000L734.4000,91.8000"/>
   <path d="M91.8000,550.8000L734.4000,550.8000"/>
   <path d="M172.1250,91.8000L172.1250,97.9200"/>
   <path d="M172.1250,550.8000L172.1250,544.6800"/>
   <path d="M332.7750,91.8000L332.7750,97.9200"/>
   <path d="M332.7750,550.8000L332.7750,544.6800"/>
   <path d="M493.4250,91.8000L493.4250,97.9200"/>
   <path d="M493.4250,550.8000L493.4250,544.6800"/>
   <path d="M654.0750,91.8000L654.0750,97.9200"/>
   <path d="M654.0750,550.8000L654.0750,544.6800"/>
   <path d="M91.8000,91.8000L91.8000,104.0400"/>
   <path d="M91.8000,550.8000L91.8000,538.5600"/>
   <path d="M252.4500,91.8000L252.4500,104.0400"/>
   <path d="M252.4500,550.8000L252.4500,538.5600"/>
   <path d="M413.1000,91.8000L413.1000,104.0400"/>
   <path d="M413.1000,550.8000L413.1000,538.5600"/>
   <path d="M573.7500,91.8000L573.7500,104.0400"/>
   <path d="M573.7500,550.8000L573.7500,538.5600"/>
   <path d="M734.4000,91.8000L734.4000,104.0400"/>
   <path d="M734.4000,550.8000L734.4000,538.5600"/>
  </g>
  <g style="fill:#000000; fill-rule:nonzero">
   <text   style="font-family:'Times','Nimbus Roman'; font-style:normal; font-weight:normal; font-size:612.0000" transform="matrix(0.0280,0.0000,-0.0000,-0.0280,87.8000,74.6800)">0</text>
   <text   style="font-family:'Times','Nimbus Roman'; font-style:normal; font-weight:normal; font-size:612.0000" transform="matrix(0.0280,0.0000,-0.0000,-0.0280,241.9500,74.6800)">0.2</text>
   <text   style="font-family:'Times','Nimbus Roman'; font-style:normal; font-weight:normal; font-size:612.0000" transform="matrix(0.0280,0.0000,-0.0000,-0.0280,402.6000,74.6800)">0.4</text>
   <text   style="font-family:'Times','Nimbus Roman'; font-style:normal; font-weight:normal; font-size:612.0000" transform="matrix(0.0280,0.0000,-0.0000,-0.0280,563.2500,73.6800)">0.6</text>
   <text   style="font-family:'Times','Nimbus Roman'; font-style:normal; font-weight:normal; font-size:612.0000" transform="matrix(0.0280,0.0000,-0.0000,-0.0280,724.4000,74.6800)">0.8</text>
  </g>
  <g style="fill:none; stroke:#000000; stroke-width:  0.9180; stroke-linecap:butt; stroke-linejoin:miter; stroke-dasharray:none">
   <path d="M91.8000,91.8000L91.8000,550.8000"/>
   <path d="M734.4000,91.8000L734.4000,550.8000"/>
   <path d="M91.8000,149.1750L97.9200,149.1750"/>
   <path d="M734.4000,149.1750L728.2800,149.1750"/>
   <path d="M91.8000,263.9250L97.9200,263.9250"/>
   <path d="M734.4000,263.9250L728.2800,263.9250"/>
   <path d="M91.8000,378.6750L97.9200,378.6750"/>
   <path d="M734.4000,378.6750L728.2800,378.6750"/>
   <path d="M91.8000,493.4250L97.9200,493.4250"/>
   <path d="M734.4000,493.4250L728.2800,493.4250"/>
   <path d="M91.8000,91.8000L104.0400,91.8000"/>
   <path d="M734.4000,91.8000L722.1600,91.8000"/>
   <path d="M91.8000,206.5500L104.0400,206.5500"/>
   <path d="M734.4000,206.5500L722.1600,206.5500"/>
   <path d="M91.8000,321.3000L104.0400,321.3000"/>
   <path d="M734.4000,321.3000L722.1600,321.3000"/>
   <path d="M91.8000,436.0500L104.0400,436.0500"/>
   <path d="M734.4000,436.0500L722.1600,436.0500"/>
   <path d="M91.8000,550.8000L104.0400,550.8000"/>
   <path d="M734.4000,550.8000L722.1600,550.8000"/>
  </g>
  <g style="fill:#000000; fill-rule:nonzero">
   <text   style="font-family:'Times','Nimbus Roman'; font-style:normal; font-weight:normal; font-size:612.0000" transform="matrix(0.0280,0.0000,-0.0000,-0.0280,77.6800,86.3000)">0</text>
   <text   style="font-family:'Times','Nimbus Roman'; font-style:normal; font-weight:normal; font-size:612.0000" transform="matrix(0.0280,0.0000,-0.0000,-0.0280,68.6800,200.5500)">50</text>
   <text   style="font-family:'Times','Nimbus Roman'; font-style:normal; font-weight:normal; font-size:612.0000" transform="matrix(0.0280,0.0000,-0.0000,-0.0280,60.6800,315.3000)">100</text>
   <text   style="font-family:'Times','Nimbus Roman'; font-style:normal; font-weight:normal; font-size:612.0000" transform="matrix(0.0280,0.0000,-0.0000,-0.0280,60.6800,430.0500)">150</text>
   <text   style="font-family:'Times','Nimbus Roman'; font-style:normal; font-weight:normal; font-size:612.0000" transform="matrix(0.0280,0.0000,-0.0000,-0.0280,60.6800,545.3000)">200</text>
  </g>
  <g style="fill:none; stroke:#000000; stroke-width:  0.9180; stroke-linecap:butt; stroke-linejoin:miter; stroke-dasharray:none">
   <path d="M91.8000,91.8000L91.8000,550.8000L734.4000,550.8000L734.4000,91.8000z"/>
  </g>
 </g>
</svg>
