<?xml version="1.0" encoding="ISO-8859-1"?>
<!DOCTYPE svg PUBLIC "-//W3C//DTD SVG 1.0//EN" "http://www.w3.org/TR/2001/REC-SVG-20010904/DTD/svg10.dtd">
<!-- generated by Grace-5.1.25 -->
<svg xml:space="preserve" width="11.0000in" height="8.5000in" viewBox="0.0000 0.0000 792.0000 612.0000">
 <g transform="translate(0,612.0000) scale(1,-1)">
  <g style="fill:#FFFFFF; fill-rule:nonzero">
   <path  d="M0.0000,0.0000L0.0000,612.0000L792.0000,612.0000L792.0000,0.0000z"/>
  </g>
  <g style="fill:none; stroke:#000000; stroke-width:  0.9180; stroke-linecap:butt; stroke-linejoin:miter; stroke-dasharray:none">
   <path d="M122.1914,91.8000L122.1914,550.8000L134.4314,550.8000L134.4314,91.8000z"/>
   <path d="M158.7027,91.8000L158.7027,198.9000L170.9427,198.9000L170.9427,91.8000z"/>
   <path d="M195.2141,91.8000L195.2141,91.8000L207.4541,91.8000L207.4541,91.8000z"/>
   <path d="M231.7255,91.8000L231.7255,107.1000L243.9655,107.1000L243.9655,91.8000z"/>
   <path d="M268.2368,91.8000L268.2368,137.7000L280.4768,137.7000L280.4768,91.8000z"/>
   <path d="M304.7482,91.8000L304.7482,130.0500L316.9882,130.0500L316.9882,91.8000z"/>
   <path d="M341.2595,91.8000L341.2595,107.1000L353.4995,107.1000L353.4995,91.8000z"/>
   <path d="M377.7709,91.8000L377.7709,137.7000L390.0109,137.7000L390.0109,91.8000z"/>
   <path d="M414.2823,91.8000L414.2823,122.4000L426.5223,122.4000L426.5223,91.8000z"/>
   <path d="M450.7936,91.8000L450.7936,91.8000L463.0336,91.8000L463.0336,91.8000z"/>
   <path d="M487.3050,91.8000L487.3050,114.7500L499.5450,114.7500L499.5450,91.8000z"/>
   <path d="M523.8164,91.8000L523.8164,122.4000L536.0564,122.4000L536.0564,91.8000z"/>
   <path d="M560.3277,91.8000L560.3277,130.0500L572.5677,130.0500L572.5677,91.8000z"/>
   <path d="M596.8391,91.8000L596.8391,114.7500L609.0791,114.7500L609.0791,91.8000z"/>
   <path d="M633.3505,91.8000L633.3505,122.4000L645.5905,122.4000L645.5905,91.8000z"/>
   <path d="M669.8618,91.8000L669.8618,122.4000L682.1018,122.4000L682.1018,91.8000z"/>
   <path d="M91.8000,91.8000L734.4000,91.8000"/>
   <path d="M91.8000,550.8000L734.4000,550.8000"/>
   <path d="M150.2182,91.8000L150.2182,97.9200"/>
   <path d="M150.2182,550.8000L150.2182,544.6800"/>
   <path d="M267.0545,91.8000L267.0545,97.9200"/>
   <path d="M267.0545,550.8000L267.0545,544.6800"/>
   <path d="M383.8909,91.8000L383.8909,97.9200"/>
   <path d="M383.8909,550.8000L383.8909,544.6800"/>
   <path d="M500.7273,91.8000L500.7273,97.9200"/>
   <path d="M500.7273,550.8000L500.7273,544.6800"/>
   <path d="M617.5636,91.8000L617.5636,97.9200"/>
   <path d="M617.5636,550.8000L617.5636,544.6800"/>
   <path d="M734.4000,91.8000L734.4000,97.9200"/>
   <path d="M734.4000,550.8000L734.4000,544.6800"/>
   <path d="M91.8000,91.8000L91.8000,104.0400"/>
   <path d="M91.8000,550.8000L91.8000,538.5600"/>
   <path d="M208.6364,91.8000L208.6364,104.0400"/>
   <path d="M208.6364,550.8000L208.6364,538.5600"/>
   <path d="M325.4727,91.8000L325.4727,104.0400"/>
   <path d="M325.4727,550.8000L325.4727,538.5600"/>
   <path d="M442.3091,91.8000L442.3091,104.0400"/>
   <path d="M442.3091,550.8000L442.3091,538.5600"/>
   <path d="M559.1455,91.8000L559.1455,104.0400"/>
   <path d="M559.1455,550.8000L559.1455,538.5600"/>
   <path d="M675.9818,91.8000L675.9818,104.0400"/>
   <path d="M675.9818,550.8000L675.9818,538.5600"/>
  </g>
  <g style="fill:#000000; fill-rule:nonzero">
   <text   style="font-family:'Times','Nimbus Roman'; font-style:normal; font-weight:normal; font-size:612.0000" transform="matrix(0.0280,0.0000,-0.0000,-0.0280,87.8000,74.6800)">0</text>
   <text   style="font-family:'Times','Nimbus Roman'; font-style:normal; font-weight:normal; font-size:612.0000" transform="matrix(0.0280,0.0000,-0.0000,-0.0280,205.1364,73.6800)">1</text>
   <text   style="font-family:'Times','Nimbus Roman'; font-style:normal; font-weight:normal; font-size:612.0000" transform="matrix(0.0280,0.0000,-0.0000,-0.0280,321.4727,74.6800)">2</text>
   <text   style="font-family:'Times','Nimbus Roman'; font-style:normal; font-weight:normal; font-size:612.0000" transform="matrix(0.0280,0.0000,-0.0000,-0.0280,438.8091,74.6800)">3</text>
   <text   style="font-family:'Times','Nimbus Roman'; font-style:normal; font-weight:normal; font-size:612.0000" transform="matrix(0.0280,0.0000,-0.0000,-0.0280,555.1455,74.6800)">4</text>
   <text   style="font-family:'Times','Nimbus Roman'; font-style:normal; font-weight:normal; font-size:612.0000" transform="matrix(0.0280,0.0000,-0.0000,-0.0280,671.9818,73.6800)">5</text>
  </g>
  <g style="fill:none; stroke:#000000; stroke-width:  0.9180; stroke-linecap:butt; stroke-linejoin:miter; stroke-dasharray:none">
   <path d="M91.8000,91.8000L91.8000,550.8000"/>
   <path d="M734.4000,91.8000L734.4000,550.8000"/>
   <path d="M91.8000,130.0500L97.9200,130.0500"/>
   <path d="M734.4000,130.0500L728.2800,130.0500"/>
   <path d="M91.8000,206.5500L97.9200,206.5500"/>
   <path d="M734.4000,206.5500L728.2800,206.5500"/>
   <path d="M91.8000,283.0500L97.9200,283.0500"/>
   <path d="M734.4000,283.0500L728.2800,283.0500"/>
   <path d="M91.8000,359.5500L97.9200,359.5500"/>
   <path d="M734.4000,359.5500L728.2800,359.5500"/>
   <path d="M91.8000,436.0500L97.9200,436.0500"/>
   <path d="M734.4000,436.0500L728.2800,436.0500"/>
   <path d="M91.8000,512.5500L97.9200,512.5500"/>
   <path d="M734.4000,512.5500L728.2800,512.5500"/>
   <path d="M91.8000,91.8000L104.0400,91.8000"/>
   <path d="M734.4000,91.8000L722.1600,91.8000"/>
   <path d="M91.8000,168.3000L104.0400,168.3000"/>
   <path d="M734.4000,168.3000L722.1600,168.3000"/>
   <path d="M91.8000,244.8000L104.0400,244.8000"/>
   <path d="M734.4000,244.8000L722.1600,244.8000"/>
   <path d="M91.8000,321.3000L104.0400,321.3000"/>
   <path d="M734.4000,321.3000L722.1600,321.3000"/>
   <path d="M91.8000,397.8000L104.0400,397.8000"/>
   <path d="M734.4000,397.8000L722.1600,397.8000"/>
   <path d="M91.8000,474.3000L104.0400,474.3000"/>
   <path d="M734.4000,474.3000L722.1600,474.3000"/>
   <path d="M91.8000,550.8000L104.0400,550.8000"/>
   <path d="M734.4000,550.8000L722.1600,550.8000"/>
  </g>
  <g style="fill:#000000; fill-rule:nonzero">
   <text   style="font-family:'Times','Nimbus Roman'; font-style:normal; font-weight:normal; font-size:612.0000" transform="matrix(0.0280,0.0000,-0.0000,-0.0280,77.6800,86.3000)">0</text>
   <text   style="font-family:'Times','Nimbus Roman'; font-style:normal; font-weight:normal; font-size:612.0000" transform="matrix(0.0280,0.0000,-0.0000,-0.0280,68.6800,162.3000)">10</text>
   <text   style="font-family:'Times','Nimbus Roman'; font-style:normal; font-weight:normal; font-size:612.0000" transform="matrix(0.0280,0.0000,-0.0000,-0.0280,68.6800,239.3000)">20</text>
   <text   style="font-family:'Times','Nimbus Roman'; font-style:normal; font-weight:normal; font-size:612.0000" transform="matrix(0.0280,0.0000,-0.0000,-0.0280,68.6800,315.8000)">30</text>
   <text   style="font-family:'Times','Nimbus Roman'; font-style:normal; font-weight:normal; font-size:612.0000" transform="matrix(0.0280,0.0000,-0.0000,-0.0280,68.6800,392.3000)">40</text>
   <text   style="font-family:'Times','Nimbus Roman'; font-style:normal; font-weight:normal; font-size:612.0000" transform="matrix(0.0280,0.0000,-0.0000,-0.0280,68.6800,468.3000)">50</text>
   <text   style="font-family:'Times','Nimbus Roman'; font-style:normal; font-weight:normal; font-size:612.0000" transform="matrix(0.0280,0.0000,-0.0000,-0.0280,68.6800,544.8000)">60</text>
  </g>
  <g style="fill:none; stroke:#000000; stroke-width:  0.9180; stroke-linecap:butt; stroke-linejoin:miter; stroke-dasharray:none">
   <path d="M91.8000,91.8000L91.8000,550.8000L734.4000,550.8000L734.4000,91.8000z"/>
  </g>
 </g>
</svg>
