<?xml version="1.0" encoding="ISO-8859-1"?>
<!DOCTYPE svg PUBLIC "-//W3C//DTD SVG 1.0//EN" "http://www.w3.org/TR/2001/REC-SVG-20010904/DTD/svg10.dtd">
<!-- generated by Grace-5.1.25 -->
<svg xml:space="preserve" width="11.0000in" height="8.5000in" viewBox="0.0000 0.0000 792.0000 612.0000">
 <g transform="translate(0,612.0000) scale(1,-1)">
  <g style="fill:#FFFFFF; fill-rule:nonzero">
   <path  d="M0.0000,0.0000L0.0000,612.0000L792.0000,612.0000L792.0000,0.0000z"/>
  </g>
  <g style="fill:none; stroke:#000000; stroke-width:  0.9180; stroke-linecap:butt; stroke-linejoin:miter; stroke-dasharray:none">
   <path d="M123.1650,91.8000L123.1650,378.6750L135.4050,378.6750L135.4050,91.8000z"/>
   <path d="M160.6500,91.8000L160.6500,112.4550L172.8900,112.4550L172.8900,91.8000z"/>
   <path d="M198.1350,91.8000L198.1350,91.8000L210.3750,91.8000L210.3750,91.8000z"/>
   <path d="M235.6200,91.8000L235.6200,91.8000L247.8600,91.8000L247.8600,91.8000z"/>
   <path d="M273.1050,91.8000L273.1050,94.0950L285.3450,94.0950L285.3450,91.8000z"/>
   <path d="M310.5900,91.8000L310.5900,94.0950L322.8300,94.0950L322.8300,91.8000z"/>
   <path d="M348.0750,91.8000L348.0750,91.8000L360.3150,91.8000L360.3150,91.8000z"/>
   <path d="M385.5600,91.8000L385.5600,91.8000L397.8000,91.8000L397.8000,91.8000z"/>
   <path d="M423.0450,91.8000L423.0450,91.8000L435.2850,91.8000L435.2850,91.8000z"/>
   <path d="M460.5300,91.8000L460.5300,91.8000L472.7700,91.8000L472.7700,91.8000z"/>
   <path d="M498.0150,91.8000L498.0150,91.8000L510.2550,91.8000L510.2550,91.8000z"/>
   <path d="M535.5000,91.8000L535.5000,91.8000L547.7400,91.8000L547.7400,91.8000z"/>
   <path d="M572.9850,91.8000L572.9850,91.8000L585.2250,91.8000L585.2250,91.8000z"/>
   <path d="M610.4700,91.8000L610.4700,91.8000L622.7100,91.8000L622.7100,91.8000z"/>
   <path d="M647.9550,91.8000L647.9550,91.8000L660.1950,91.8000L660.1950,91.8000z"/>
   <path d="M685.4400,91.8000L685.4400,94.0950L697.6800,94.0950L697.6800,91.8000z"/>
   <path d="M91.8000,91.8000L734.4000,91.8000"/>
   <path d="M91.8000,550.8000L734.4000,550.8000"/>
   <path d="M145.3500,91.8000L145.3500,97.9200"/>
   <path d="M145.3500,550.8000L145.3500,544.6800"/>
   <path d="M252.4500,91.8000L252.4500,97.9200"/>
   <path d="M252.4500,550.8000L252.4500,544.6800"/>
   <path d="M359.5500,91.8000L359.5500,97.9200"/>
   <path d="M359.5500,550.8000L359.5500,544.6800"/>
   <path d="M466.6500,91.8000L466.6500,97.9200"/>
   <path d="M466.6500,550.8000L466.6500,544.6800"/>
   <path d="M573.7500,91.8000L573.7500,97.9200"/>
   <path d="M573.7500,550.8000L573.7500,544.6800"/>
   <path d="M680.8500,91.8000L680.8500,97.9200"/>
   <path d="M680.8500,550.8000L680.8500,544.6800"/>
   <path d="M91.8000,91.8000L91.8000,104.0400"/>
   <path d="M91.8000,550.8000L91.8000,538.5600"/>
   <path d="M198.9000,91.8000L198.9000,104.0400"/>
   <path d="M198.9000,550.8000L198.9000,538.5600"/>
   <path d="M306.0000,91.8000L306.0000,104.0400"/>
   <path d="M306.0000,550.8000L306.0000,538.5600"/>
   <path d="M413.1000,91.8000L413.1000,104.0400"/>
   <path d="M413.1000,550.8000L413.1000,538.5600"/>
   <path d="M520.2000,91.8000L520.2000,104.0400"/>
   <path d="M520.2000,550.8000L520.2000,538.5600"/>
   <path d="M627.3000,91.8000L627.3000,104.0400"/>
   <path d="M627.3000,550.8000L627.3000,538.5600"/>
   <path d="M734.4000,91.8000L734.4000,104.0400"/>
   <path d="M734.4000,550.8000L734.4000,538.5600"/>
  </g>
  <g style="fill:#000000; fill-rule:nonzero">
   <text   style="font-family:'Times','Nimbus Roman'; font-style:normal; font-weight:normal; font-size:612.0000" transform="matrix(0.0280,0.0000,-0.0000,-0.0280,87.8000,74.6800)">0</text>
   <text   style="font-family:'Times','Nimbus Roman'; font-style:normal; font-weight:normal; font-size:612.0000" transform="matrix(0.0280,0.0000,-0.0000,-0.0280,195.4000,73.6800)">1</text>
   <text   style="font-family:'Times','Nimbus Roman'; font-style:normal; font-weight:normal; font-size:612.0000" transform="matrix(0.0280,0.0000,-0.0000,-0.0280,302.0000,74.6800)">2</text>
   <text   style="font-family:'Times','Nimbus Roman'; font-style:normal; font-weight:normal; font-size:612.0000" transform="matrix(0.0280,0.0000,-0.0000,-0.0280,409.6000,74.6800)">3</text>
   <text   style="font-family:'Times','Nimbus Roman'; font-style:normal; font-weight:normal; font-size:612.0000" transform="matrix(0.0280,0.0000,-0.0000,-0.0280,516.2000,74.6800)">4</text>
   <text   style="font-family:'Times','Nimbus Roman'; font-style:normal; font-weight:normal; font-size:612.0000" transform="matrix(0.0280,0.0000,-0.0000,-0.0280,623.3000,73.6800)">5</text>
   <text   style="font-family:'Times','Nimbus Roman'; font-style:normal; font-weight:normal; font-size:612.0000" transform="matrix(0.0280,0.0000,-0.0000,-0.0280,730.4000,73.6800)">6</text>
  </g>
  <g style="fill:none; stroke:#000000; stroke-width:  0.9180; stroke-linecap:butt; stroke-linejoin:miter; stroke-dasharray:none">
   <path d="M91.8000,91.8000L91.8000,550.8000"/>
   <path d="M734.4000,91.8000L734.4000,550.8000"/>
   <path d="M91.8000,149.1750L97.9200,149.1750"/>
   <path d="M734.4000,149.1750L728.2800,149.1750"/>
   <path d="M91.8000,263.9250L97.9200,263.9250"/>
   <path d="M734.4000,263.9250L728.2800,263.9250"/>
   <path d="M91.8000,378.6750L97.9200,378.6750"/>
   <path d="M734.4000,378.6750L728.2800,378.6750"/>
   <path d="M91.8000,493.4250L97.9200,493.4250"/>
   <path d="M734.4000,493.4250L728.2800,493.4250"/>
   <path d="M91.8000,91.8000L104.0400,91.8000"/>
   <path d="M734.4000,91.8000L722.1600,91.8000"/>
   <path d="M91.8000,206.5500L104.0400,206.5500"/>
   <path d="M734.4000,206.5500L722.1600,206.5500"/>
   <path d="M91.8000,321.3000L104.0400,321.3000"/>
   <path d="M734.4000,321.3000L722.1600,321.3000"/>
   <path d="M91.8000,436.0500L104.0400,436.0500"/>
   <path d="M734.4000,436.0500L722.1600,436.0500"/>
   <path d="M91.8000,550.8000L104.0400,550.8000"/>
   <path d="M734.4000,550.8000L722.1600,550.8000"/>
  </g>
  <g style="fill:#000000; fill-rule:nonzero">
   <text   style="font-family:'Times','Nimbus Roman'; font-style:normal; font-weight:normal; font-size:612.0000" transform="matrix(0.0280,0.0000,-0.0000,-0.0280,77.6800,86.3000)">0</text>
   <text   style="font-family:'Times','Nimbus Roman'; font-style:normal; font-weight:normal; font-size:612.0000" transform="matrix(0.0280,0.0000,-0.0000,-0.0280,68.6800,200.5500)">50</text>
   <text   style="font-family:'Times','Nimbus Roman'; font-style:normal; font-weight:normal; font-size:612.0000" transform="matrix(0.0280,0.0000,-0.0000,-0.0280,60.6800,315.3000)">100</text>
   <text   style="font-family:'Times','Nimbus Roman'; font-style:normal; font-weight:normal; font-size:612.0000" transform="matrix(0.0280,0.0000,-0.0000,-0.0280,60.6800,430.0500)">150</text>
   <text   style="font-family:'Times','Nimbus Roman'; font-style:normal; font-weight:normal; font-size:612.0000" transform="matrix(0.0280,0.0000,-0.0000,-0.0280,60.6800,545.3000)">200</text>
  </g>
  <g style="fill:none; stroke:#000000; stroke-width:  0.9180; stroke-linecap:butt; stroke-linejoin:miter; stroke-dasharray:none">
   <path d="M91.8000,91.8000L91.8000,550.8000L734.4000,550.8000L734.4000,91.8000z"/>
  </g>
 </g>
</svg>
