<?xml version="1.0" encoding="ISO-8859-1"?>
<!DOCTYPE svg PUBLIC "-//W3C//DTD SVG 1.0//EN" "http://www.w3.org/TR/2001/REC-SVG-20010904/DTD/svg10.dtd">
<!-- generated by Grace-5.1.25 -->
<svg xml:space="preserve" width="11.0000in" height="8.5000in" viewBox="0.0000 0.0000 792.0000 612.0000">
 <g transform="translate(0,612.0000) scale(1,-1)">
  <g style="fill:#FFFFFF; fill-rule:nonzero">
   <path  d="M0.0000,0.0000L0.0000,612.0000L792.0000,612.0000L792.0000,0.0000z"/>
  </g>
  <g style="fill:none; stroke:#000000; stroke-width:  0.9180; stroke-linecap:butt; stroke-linejoin:miter; stroke-dasharray:none">
   <path d="M120.5640,91.8000L120.5640,546.2100L132.8040,546.2100L132.8040,91.8000z"/>
   <path d="M155.4480,91.8000L155.4480,128.5200L167.6880,128.5200L167.6880,91.8000z"/>
   <path d="M190.3320,91.8000L190.3320,119.3400L202.5720,119.3400L202.5720,91.8000z"/>
   <path d="M225.2160,91.8000L225.2160,119.3400L237.4560,119.3400L237.4560,91.8000z"/>
   <path d="M260.1000,91.8000L260.1000,96.3900L272.3400,96.3900L272.3400,91.8000z"/>
   <path d="M294.9840,91.8000L294.9840,100.9800L307.2240,100.9800L307.2240,91.8000z"/>
   <path d="M329.8680,91.8000L329.8680,91.8000L342.1080,91.8000L342.1080,91.8000z"/>
   <path d="M364.7520,91.8000L364.7520,100.9800L376.9920,100.9800L376.9920,91.8000z"/>
   <path d="M399.6360,91.8000L399.6360,100.9800L411.8760,100.9800L411.8760,91.8000z"/>
   <path d="M434.5200,91.8000L434.5200,96.3900L446.7600,96.3900L446.7600,91.8000z"/>
   <path d="M469.4040,91.8000L469.4040,96.3900L481.6440,96.3900L481.6440,91.8000z"/>
   <path d="M504.2880,91.8000L504.2880,96.3900L516.5280,96.3900L516.5280,91.8000z"/>
   <path d="M539.1720,91.8000L539.1720,96.3900L551.4120,96.3900L551.4120,91.8000z"/>
   <path d="M574.0560,91.8000L574.0560,96.3900L586.2960,96.3900L586.2960,91.8000z"/>
   <path d="M608.9400,91.8000L608.9400,105.5700L621.1800,105.5700L621.1800,91.8000z"/>
   <path d="M643.8240,91.8000L643.8240,105.5700L656.0640,105.5700L656.0640,91.8000z"/>
   <path d="M91.8000,91.8000L734.4000,91.8000"/>
   <path d="M91.8000,550.8000L734.4000,550.8000"/>
   <path d="M137.7000,91.8000L137.7000,97.9200"/>
   <path d="M137.7000,550.8000L137.7000,544.6800"/>
   <path d="M229.5000,91.8000L229.5000,97.9200"/>
   <path d="M229.5000,550.8000L229.5000,544.6800"/>
   <path d="M321.3000,91.8000L321.3000,97.9200"/>
   <path d="M321.3000,550.8000L321.3000,544.6800"/>
   <path d="M413.1000,91.8000L413.1000,97.9200"/>
   <path d="M413.1000,550.8000L413.1000,544.6800"/>
   <path d="M504.9000,91.8000L504.9000,97.9200"/>
   <path d="M504.9000,550.8000L504.9000,544.6800"/>
   <path d="M596.7000,91.8000L596.7000,97.9200"/>
   <path d="M596.7000,550.8000L596.7000,544.6800"/>
   <path d="M688.5000,91.8000L688.5000,97.9200"/>
   <path d="M688.5000,550.8000L688.5000,544.6800"/>
   <path d="M91.8000,91.8000L91.8000,104.0400"/>
   <path d="M91.8000,550.8000L91.8000,538.5600"/>
   <path d="M183.6000,91.8000L183.6000,104.0400"/>
   <path d="M183.6000,550.8000L183.6000,538.5600"/>
   <path d="M275.4000,91.8000L275.4000,104.0400"/>
   <path d="M275.4000,550.8000L275.4000,538.5600"/>
   <path d="M367.2000,91.8000L367.2000,104.0400"/>
   <path d="M367.2000,550.8000L367.2000,538.5600"/>
   <path d="M459.0000,91.8000L459.0000,104.0400"/>
   <path d="M459.0000,550.8000L459.0000,538.5600"/>
   <path d="M550.8000,91.8000L550.8000,104.0400"/>
   <path d="M550.8000,550.8000L550.8000,538.5600"/>
   <path d="M642.6000,91.8000L642.6000,104.0400"/>
   <path d="M642.6000,550.8000L642.6000,538.5600"/>
   <path d="M734.4000,91.8000L734.4000,104.0400"/>
   <path d="M734.4000,550.8000L734.4000,538.5600"/>
  </g>
  <g style="fill:#000000; fill-rule:nonzero">
   <text   style="font-family:'Times','Nimbus Roman'; font-style:normal; font-weight:normal; font-size:612.0000" transform="matrix(0.0280,0.0000,-0.0000,-0.0280,87.8000,74.6800)">0</text>
   <text   style="font-family:'Times','Nimbus Roman'; font-style:normal; font-weight:normal; font-size:612.0000" transform="matrix(0.0280,0.0000,-0.0000,-0.0280,180.1000,73.6800)">1</text>
   <text   style="font-family:'Times','Nimbus Roman'; font-style:normal; font-weight:normal; font-size:612.0000" transform="matrix(0.0280,0.0000,-0.0000,-0.0280,271.4000,74.6800)">2</text>
   <text   style="font-family:'Times','Nimbus Roman'; font-style:normal; font-weight:normal; font-size:612.0000" transform="matrix(0.0280,0.0000,-0.0000,-0.0280,363.7000,74.6800)">3</text>
   <text   style="font-family:'Times','Nimbus Roman'; font-style:normal; font-weight:normal; font-size:612.0000" transform="matrix(0.0280,0.0000,-0.0000,-0.0280,455.0000,74.6800)">4</text>
   <text   style="font-family:'Times','Nimbus Roman'; font-style:normal; font-weight:normal; font-size:612.0000" transform="matrix(0.0280,0.0000,-0.0000,-0.0280,546.8000,73.6800)">5</text>
   <text   style="font-family:'Times','Nimbus Roman'; font-style:normal; font-weight:normal; font-size:612.0000" transform="matrix(0.0280,0.0000,-0.0000,-0.0280,638.6000,73.6800)">6</text>
   <text   style="font-family:'Times','Nimbus Roman'; font-style:normal; font-weight:normal; font-size:612.0000" transform="matrix(0.0280,0.0000,-0.0000,-0.0280,730.4000,74.6800)">7</text>
  </g>
  <g style="fill:none; stroke:#000000; stroke-width:  0.9180; stroke-linecap:butt; stroke-linejoin:miter; stroke-dasharray:none">
   <path d="M91.8000,91.8000L91.8000,550.8000"/>
   <path d="M734.4000,91.8000L734.4000,550.8000"/>
   <path d="M91.8000,137.7000L97.9200,137.7000"/>
   <path d="M734.4000,137.7000L728.2800,137.7000"/>
   <path d="M91.8000,229.5000L97.9200,229.5000"/>
   <path d="M734.4000,229.5000L728.2800,229.5000"/>
   <path d="M91.8000,321.3000L97.9200,321.3000"/>
   <path d="M734.4000,321.3000L728.2800,321.3000"/>
   <path d="M91.8000,413.1000L97.9200,413.1000"/>
   <path d="M734.4000,413.1000L728.2800,413.1000"/>
   <path d="M91.8000,504.9000L97.9200,504.9000"/>
   <path d="M734.4000,504.9000L728.2800,504.9000"/>
   <path d="M91.8000,91.8000L104.0400,91.8000"/>
   <path d="M734.4000,91.8000L722.1600,91.8000"/>
   <path d="M91.8000,183.6000L104.0400,183.6000"/>
   <path d="M734.4000,183.6000L722.1600,183.6000"/>
   <path d="M91.8000,275.4000L104.0400,275.4000"/>
   <path d="M734.4000,275.4000L722.1600,275.4000"/>
   <path d="M91.8000,367.2000L104.0400,367.2000"/>
   <path d="M734.4000,367.2000L722.1600,367.2000"/>
   <path d="M91.8000,459.0000L104.0400,459.0000"/>
   <path d="M734.4000,459.0000L722.1600,459.0000"/>
   <path d="M91.8000,550.8000L104.0400,550.8000"/>
   <path d="M734.4000,550.8000L722.1600,550.8000"/>
  </g>
  <g style="fill:#000000; fill-rule:nonzero">
   <text   style="font-family:'Times','Nimbus Roman'; font-style:normal; font-weight:normal; font-size:612.0000" transform="matrix(0.0280,0.0000,-0.0000,-0.0280,77.6800,86.3000)">0</text>
   <text   style="font-family:'Times','Nimbus Roman'; font-style:normal; font-weight:normal; font-size:612.0000" transform="matrix(0.0280,0.0000,-0.0000,-0.0280,68.6800,178.1000)">20</text>
   <text   style="font-family:'Times','Nimbus Roman'; font-style:normal; font-weight:normal; font-size:612.0000" transform="matrix(0.0280,0.0000,-0.0000,-0.0280,68.6800,269.9000)">40</text>
   <text   style="font-family:'Times','Nimbus Roman'; font-style:normal; font-weight:normal; font-size:612.0000" transform="matrix(0.0280,0.0000,-0.0000,-0.0280,68.6800,361.2000)">60</text>
   <text   style="font-family:'Times','Nimbus Roman'; font-style:normal; font-weight:normal; font-size:612.0000" transform="matrix(0.0280,0.0000,-0.0000,-0.0280,68.6800,453.5000)">80</text>
   <text   style="font-family:'Times','Nimbus Roman'; font-style:normal; font-weight:normal; font-size:612.0000" transform="matrix(0.0280,0.0000,-0.0000,-0.0280,60.6800,544.8000)">100</text>
  </g>
  <g style="fill:none; stroke:#000000; stroke-width:  0.9180; stroke-linecap:butt; stroke-linejoin:miter; stroke-dasharray:none">
   <path d="M91.8000,91.8000L91.8000,550.8000L734.4000,550.8000L734.4000,91.8000z"/>
  </g>
 </g>
</svg>
