<?xml version="1.0" encoding="ISO-8859-1"?>
<!DOCTYPE svg PUBLIC "-//W3C//DTD SVG 1.0//EN" "http://www.w3.org/TR/2001/REC-SVG-20010904/DTD/svg10.dtd">
<!-- generated by Grace-5.1.25 -->
<svg xml:space="preserve" width="11.0000in" height="8.5000in" viewBox="0.0000 0.0000 792.0000 612.0000">
 <g transform="translate(0,612.0000) scale(1,-1)">
  <g style="fill:#FFFFFF; fill-rule:nonzero">
   <path  d="M0.0000,0.0000L0.0000,612.0000L792.0000,612.0000L792.0000,0.0000z"/>
  </g>
  <g style="fill:none; stroke:#000000; stroke-width:  0.9180; stroke-linecap:butt; stroke-linejoin:miter; stroke-dasharray:none">
   <path d="M91.7388,100.9800L100.5660,100.9800L100.5660,91.8000L91.7388,91.8000"/>
   <path d="M128.7720,91.8000L128.7720,100.9800L141.0120,100.9800L141.0120,91.8000z"/>
   <path d="M169.2180,91.8000L169.2180,100.9800L181.4580,100.9800L181.4580,91.8000z"/>
   <path d="M209.6640,91.8000L209.6640,100.9800L221.9040,100.9800L221.9040,91.8000z"/>
   <path d="M250.1100,91.8000L250.1100,110.1600L262.3500,110.1600L262.3500,91.8000z"/>
   <path d="M290.5560,91.8000L290.5560,128.5200L302.7960,128.5200L302.7960,91.8000z"/>
   <path d="M331.0020,91.8000L331.0020,211.1400L343.2420,211.1400L343.2420,91.8000z"/>
   <path d="M371.4480,91.8000L371.4480,156.0600L383.6880,156.0600L383.6880,91.8000z"/>
   <path d="M411.8940,91.8000L411.8940,247.8600L424.1340,247.8600L424.1340,91.8000z"/>
   <path d="M452.3400,91.8000L452.3400,312.1200L464.5800,312.1200L464.5800,91.8000z"/>
   <path d="M492.7860,91.8000L492.7860,477.3600L505.0260,477.3600L505.0260,91.8000z"/>
   <path d="M533.2320,91.8000L533.2320,247.8600L545.4720,247.8600L545.4720,91.8000z"/>
   <path d="M573.6780,91.8000L573.6780,137.7000L585.9180,137.7000L585.9180,91.8000z"/>
   <path d="M614.1240,91.8000L614.1240,91.8000L626.3640,91.8000L626.3640,91.8000z"/>
   <path d="M654.5700,91.8000L654.5700,91.8000L666.8100,91.8000L666.8100,91.8000z"/>
   <path d="M695.0160,91.8000L695.0160,110.1600L707.2560,110.1600L707.2560,91.8000z"/>
   <path d="M91.8000,91.8000L734.4000,91.8000"/>
   <path d="M91.8000,550.8000L734.4000,550.8000"/>
   <path d="M261.9000,91.8000L261.9000,97.9200"/>
   <path d="M261.9000,550.8000L261.9000,544.6800"/>
   <path d="M450.9000,91.8000L450.9000,97.9200"/>
   <path d="M450.9000,550.8000L450.9000,544.6800"/>
   <path d="M639.9000,91.8000L639.9000,97.9200"/>
   <path d="M639.9000,550.8000L639.9000,544.6800"/>
   <path d="M167.4000,91.8000L167.4000,104.0400"/>
   <path d="M167.4000,550.8000L167.4000,538.5600"/>
   <path d="M356.4000,91.8000L356.4000,104.0400"/>
   <path d="M356.4000,550.8000L356.4000,538.5600"/>
   <path d="M545.4000,91.8000L545.4000,104.0400"/>
   <path d="M545.4000,550.8000L545.4000,538.5600"/>
   <path d="M734.4000,91.8000L734.4000,104.0400"/>
   <path d="M734.4000,550.8000L734.4000,538.5600"/>
  </g>
  <g style="fill:#000000; fill-rule:nonzero">
   <text   style="font-family:'Times','Nimbus Roman'; font-style:normal; font-weight:normal; font-size:612.0000" transform="matrix(0.0280,0.0000,-0.0000,-0.0280,148.4000,73.6800)">0.995</text>
   <text   style="font-family:'Times','Nimbus Roman'; font-style:normal; font-weight:normal; font-size:612.0000" transform="matrix(0.0280,0.0000,-0.0000,-0.0280,352.9000,73.6800)">1</text>
   <text   style="font-family:'Times','Nimbus Roman'; font-style:normal; font-weight:normal; font-size:612.0000" transform="matrix(0.0280,0.0000,-0.0000,-0.0280,526.4000,73.6800)">1.005</text>
   <text   style="font-family:'Times','Nimbus Roman'; font-style:normal; font-weight:normal; font-size:612.0000" transform="matrix(0.0280,0.0000,-0.0000,-0.0280,720.4000,73.6800)">1.01</text>
  </g>
  <g style="fill:none; stroke:#000000; stroke-width:  0.9180; stroke-linecap:butt; stroke-linejoin:miter; stroke-dasharray:none">
   <path d="M91.8000,91.8000L91.8000,550.8000"/>
   <path d="M734.4000,91.8000L734.4000,550.8000"/>
   <path d="M91.8000,137.7000L97.9200,137.7000"/>
   <path d="M734.4000,137.7000L728.2800,137.7000"/>
   <path d="M91.8000,229.5000L97.9200,229.5000"/>
   <path d="M734.4000,229.5000L728.2800,229.5000"/>
   <path d="M91.8000,321.3000L97.9200,321.3000"/>
   <path d="M734.4000,321.3000L728.2800,321.3000"/>
   <path d="M91.8000,413.1000L97.9200,413.1000"/>
   <path d="M734.4000,413.1000L728.2800,413.1000"/>
   <path d="M91.8000,504.9000L97.9200,504.9000"/>
   <path d="M734.4000,504.9000L728.2800,504.9000"/>
   <path d="M91.8000,91.8000L104.0400,91.8000"/>
   <path d="M734.4000,91.8000L722.1600,91.8000"/>
   <path d="M91.8000,183.6000L104.0400,183.6000"/>
   <path d="M734.4000,183.6000L722.1600,183.6000"/>
   <path d="M91.8000,275.4000L104.0400,275.4000"/>
   <path d="M734.4000,275.4000L722.1600,275.4000"/>
   <path d="M91.8000,367.2000L104.0400,367.2000"/>
   <path d="M734.4000,367.2000L722.1600,367.2000"/>
   <path d="M91.8000,459.0000L104.0400,459.0000"/>
   <path d="M734.4000,459.0000L722.1600,459.0000"/>
   <path d="M91.8000,550.8000L104.0400,550.8000"/>
   <path d="M734.4000,550.8000L722.1600,550.8000"/>
  </g>
  <g style="fill:#000000; fill-rule:nonzero">
   <text   style="font-family:'Times','Nimbus Roman'; font-style:normal; font-weight:normal; font-size:612.0000" transform="matrix(0.0280,0.0000,-0.0000,-0.0280,77.6800,86.3000)">0</text>
   <text   style="font-family:'Times','Nimbus Roman'; font-style:normal; font-weight:normal; font-size:612.0000" transform="matrix(0.0280,0.0000,-0.0000,-0.0280,68.6800,177.6000)">10</text>
   <text   style="font-family:'Times','Nimbus Roman'; font-style:normal; font-weight:normal; font-size:612.0000" transform="matrix(0.0280,0.0000,-0.0000,-0.0280,68.6800,269.9000)">20</text>
   <text   style="font-family:'Times','Nimbus Roman'; font-style:normal; font-weight:normal; font-size:612.0000" transform="matrix(0.0280,0.0000,-0.0000,-0.0280,68.6800,361.7000)">30</text>
   <text   style="font-family:'Times','Nimbus Roman'; font-style:normal; font-weight:normal; font-size:612.0000" transform="matrix(0.0280,0.0000,-0.0000,-0.0280,68.6800,453.5000)">40</text>
   <text   style="font-family:'Times','Nimbus Roman'; font-style:normal; font-weight:normal; font-size:612.0000" transform="matrix(0.0280,0.0000,-0.0000,-0.0280,68.6800,544.8000)">50</text>
  </g>
  <g style="fill:none; stroke:#000000; stroke-width:  0.9180; stroke-linecap:butt; stroke-linejoin:miter; stroke-dasharray:none">
   <path d="M91.8000,91.8000L91.8000,550.8000L734.4000,550.8000L734.4000,91.8000z"/>
  </g>
 </g>
</svg>
