<?xml version="1.0" encoding="ISO-8859-1"?>
<!DOCTYPE svg PUBLIC "-//W3C//DTD SVG 1.0//EN" "http://www.w3.org/TR/2001/REC-SVG-20010904/DTD/svg10.dtd">
<!-- generated by Grace-5.1.25 -->
<svg xml:space="preserve" width="11.0000in" height="8.5000in" viewBox="0.0000 0.0000 792.0000 612.0000">
 <g transform="translate(0,612.0000) scale(1,-1)">
  <g style="fill:#FFFFFF; fill-rule:nonzero">
   <path  d="M0.0000,0.0000L0.0000,612.0000L792.0000,612.0000L792.0000,0.0000z"/>
  </g>
  <g style="fill:none; stroke:#000000; stroke-width:  0.9180; stroke-linecap:butt; stroke-linejoin:miter; stroke-dasharray:none">
   <path d="M213.1800,91.8000L213.1800,91.8000L225.4200,91.8000L225.4200,91.8000z"/>
   <path d="M238.6800,91.8000L238.6800,91.8000L250.9200,91.8000L250.9200,91.8000z"/>
   <path d="M264.1800,91.8000L264.1800,91.8000L276.4200,91.8000L276.4200,91.8000z"/>
   <path d="M289.6800,91.8000L289.6800,91.8000L301.9200,91.8000L301.9200,91.8000z"/>
   <path d="M315.1800,91.8000L315.1800,104.6520L327.4200,104.6520L327.4200,91.8000z"/>
   <path d="M340.6800,91.8000L340.6800,138.9240L352.9200,138.9240L352.9200,91.8000z"/>
   <path d="M366.1800,91.8000L366.1800,126.0720L378.4200,126.0720L378.4200,91.8000z"/>
   <path d="M391.6800,91.8000L391.6800,134.6400L403.9200,134.6400L403.9200,91.8000z"/>
   <path d="M417.1800,91.8000L417.1800,156.0600L429.4200,156.0600L429.4200,91.8000z"/>
   <path d="M442.6800,91.8000L442.6800,318.8520L454.9200,318.8520L454.9200,91.8000z"/>
   <path d="M468.1800,91.8000L468.1800,250.3080L480.4200,250.3080L480.4200,91.8000z"/>
   <path d="M493.6800,91.8000L493.6800,91.8000L505.9200,91.8000L505.9200,91.8000z"/>
   <path d="M519.1800,91.8000L519.1800,91.8000L531.4200,91.8000L531.4200,91.8000z"/>
   <path d="M544.6800,91.8000L544.6800,91.8000L556.9200,91.8000L556.9200,91.8000z"/>
   <path d="M570.1800,91.8000L570.1800,91.8000L582.4200,91.8000L582.4200,91.8000z"/>
   <path d="M595.6800,91.8000L595.6800,91.8000L607.9200,91.8000L607.9200,91.8000z"/>
   <path d="M91.8000,91.8000L703.8000,91.8000"/>
   <path d="M91.8000,520.2000L703.8000,520.2000"/>
   <path d="M91.8000,91.8000L91.8000,104.0400"/>
   <path d="M91.8000,520.2000L91.8000,507.9600"/>
   <path d="M295.8000,91.8000L295.8000,104.0400"/>
   <path d="M295.8000,520.2000L295.8000,507.9600"/>
   <path d="M499.8000,91.8000L499.8000,104.0400"/>
   <path d="M499.8000,520.2000L499.8000,507.9600"/>
   <path d="M703.8000,91.8000L703.8000,104.0400"/>
   <path d="M703.8000,520.2000L703.8000,507.9600"/>
  </g>
  <g style="fill:#000000; fill-rule:nonzero">
   <text   style="font-family:'Times','Nimbus Roman'; font-style:normal; font-weight:normal; font-size:612.0000" transform="matrix(0.0280,0.0000,-0.0000,-0.0280,87.8000,74.6800)">0</text>
   <text   style="font-family:'Times','Nimbus Roman'; font-style:normal; font-weight:normal; font-size:612.0000" transform="matrix(0.0280,0.0000,-0.0000,-0.0280,292.3000,73.6800)">1</text>
   <text   style="font-family:'Times','Nimbus Roman'; font-style:normal; font-weight:normal; font-size:612.0000" transform="matrix(0.0280,0.0000,-0.0000,-0.0280,495.8000,74.6800)">2</text>
   <text   style="font-family:'Times','Nimbus Roman'; font-style:normal; font-weight:normal; font-size:612.0000" transform="matrix(0.0280,0.0000,-0.0000,-0.0280,700.3000,74.6800)">3</text>
  </g>
  <g style="fill:none; stroke:#000000; stroke-width:  0.9180; stroke-linecap:butt; stroke-linejoin:miter; stroke-dasharray:none">
   <path d="M91.8000,91.8000L91.8000,520.2000"/>
   <path d="M703.8000,91.8000L703.8000,520.2000"/>
   <path d="M91.8000,91.8000L104.0400,91.8000"/>
   <path d="M703.8000,91.8000L691.5600,91.8000"/>
   <path d="M91.8000,306.0000L104.0400,306.0000"/>
   <path d="M703.8000,306.0000L691.5600,306.0000"/>
   <path d="M91.8000,520.2000L104.0400,520.2000"/>
   <path d="M703.8000,520.2000L691.5600,520.2000"/>
  </g>
  <g style="fill:#000000; fill-rule:nonzero">
   <text   style="font-family:'Times','Nimbus Roman'; font-style:normal; font-weight:normal; font-size:612.0000" transform="matrix(0.0280,0.0000,-0.0000,-0.0280,77.6800,86.3000)">0</text>
   <text   style="font-family:'Times','Nimbus Roman'; font-style:normal; font-weight:normal; font-size:612.0000" transform="matrix(0.0280,0.0000,-0.0000,-0.0280,68.6800,300.0000)">50</text>
   <text   style="font-family:'Times','Nimbus Roman'; font-style:normal; font-weight:normal; font-size:612.0000" transform="matrix(0.0280,0.0000,-0.0000,-0.0280,60.6800,514.2000)">100</text>
  </g>
  <g style="fill:none; stroke:#000000; stroke-width:  0.9180; stroke-linecap:butt; stroke-linejoin:miter; stroke-dasharray:none">
   <path d="M91.8000,91.8000L91.8000,520.2000L703.8000,520.2000L703.8000,91.8000z"/>
  </g>
 </g>
</svg>
