<?xml version="1.0" encoding="ISO-8859-1"?>
<!DOCTYPE svg PUBLIC "-//W3C//DTD SVG 1.0//EN" "http://www.w3.org/TR/2001/REC-SVG-20010904/DTD/svg10.dtd">
<!-- generated by Grace-5.1.25 -->
<svg xml:space="preserve" width="11.0000in" height="8.5000in" viewBox="0.0000 0.0000 792.0000 612.0000">
 <g transform="translate(0,612.0000) scale(1,-1)">
  <g style="fill:#FFFFFF; fill-rule:nonzero">
   <path  d="M0.0000,0.0000L0.0000,612.0000L792.0000,612.0000L792.0000,0.0000z"/>
  </g>
  <g style="fill:none; stroke:#000000; stroke-width:  0.9180; stroke-linecap:butt; stroke-linejoin:miter; stroke-dasharray:none">
   <path d="M107.7375,91.8000L123.6750,91.8000L139.6125,91.8000L155.5500,91.8000L171.4875,91.8000L187.4250,91.8000L203.3625,91.8000L219.3000,220.3200L235.2375,263.1600L251.1750,263.1600
            L267.1125,263.1600L283.0500,250.9200L298.9875,281.5200L314.9250,134.6400L330.8625,183.6000L346.8000,146.8800L362.7375,153.0000L378.6750,177.4800L394.6125,134.6400L410.5500,97.9200
            L426.4875,91.8000L442.4250,91.8000L458.3625,91.8000L474.3000,91.8000L490.2375,91.8000L506.1750,91.8000L522.1125,91.8000L538.0500,91.8000L553.9875,91.8000L569.9250,91.8000
            L585.8625,91.8000L601.8000,91.8000"/>
  </g>
  <g style="fill:none; stroke:#FF0000; stroke-width:  0.9180; stroke-linecap:butt; stroke-linejoin:miter; stroke-dasharray:none">
   <path d="M107.7375,91.8000L123.6750,91.8000L139.6125,91.8000L155.5500,91.8000L171.4875,91.8000L187.4250,91.8000L203.3625,91.8000L219.3000,514.0800L235.2375,189.7200L251.1750,177.4800
            L267.1125,146.8800L283.0500,195.8400L298.9875,183.6000L314.9250,97.9200L330.8625,91.8000L346.8000,97.9200L362.7375,97.9200L378.6750,97.9200L394.6125,91.8000L410.5500,91.8000
            L426.4875,91.8000L442.4250,91.8000L458.3625,91.8000L474.3000,91.8000L490.2375,97.9200L506.1750,91.8000L522.1125,91.8000L538.0500,91.8000L553.9875,91.8000L569.9250,91.8000
            L585.8625,91.8000L601.8000,91.8000"/>
  </g>
  <g style="fill:none; stroke:#00FF00; stroke-width:  0.9180; stroke-linecap:butt; stroke-linejoin:miter; stroke-dasharray:none">
   <path d="M107.7375,91.8000L123.6750,91.8000L139.6125,91.8000L155.5500,91.8000L171.4875,91.8000L187.4250,91.8000L203.3625,91.8000L219.3000,91.8000L235.2375,91.8000L251.1750,91.8000
            L267.1125,91.8000L283.0500,91.8000L298.9875,104.0400L314.9250,91.8000L330.8625,91.8000L346.8000,91.8000L362.7375,97.9200L378.6750,97.9200L394.6125,91.8000L410.5500,104.0400
            L426.4875,116.2800L442.4250,110.1600L458.3625,153.0000L474.3000,159.1200L490.2375,159.1200L506.1750,226.4400L522.1125,140.7600L538.0500,232.5600L553.9875,214.2000L569.9250,128.5200
            L585.8625,153.0000L601.8000,110.1600"/>
  </g>
  <g style="fill:none; stroke:#000000; stroke-width:  0.9180; stroke-linecap:butt; stroke-linejoin:miter; stroke-dasharray:none">
   <path d="M91.8000,91.8000L703.8000,91.8000"/>
   <path d="M91.8000,520.2000L703.8000,520.2000"/>
   <path d="M91.8000,91.8000L91.8000,104.0400"/>
   <path d="M91.8000,520.2000L91.8000,507.9600"/>
   <path d="M193.8000,91.8000L193.8000,104.0400"/>
   <path d="M193.8000,520.2000L193.8000,507.9600"/>
   <path d="M295.8000,91.8000L295.8000,104.0400"/>
   <path d="M295.8000,520.2000L295.8000,507.9600"/>
   <path d="M397.8000,91.8000L397.8000,104.0400"/>
   <path d="M397.8000,520.2000L397.8000,507.9600"/>
   <path d="M499.8000,91.8000L499.8000,104.0400"/>
   <path d="M499.8000,520.2000L499.8000,507.9600"/>
   <path d="M601.8000,91.8000L601.8000,104.0400"/>
   <path d="M601.8000,520.2000L601.8000,507.9600"/>
   <path d="M703.8000,91.8000L703.8000,104.0400"/>
   <path d="M703.8000,520.2000L703.8000,507.9600"/>
  </g>
  <g style="fill:#000000; fill-rule:nonzero">
   <text   style="font-family:'Times','Nimbus Roman'; font-style:normal; font-weight:normal; font-size:612.0000" transform="matrix(0.0280,0.0000,-0.0000,-0.0280,87.8000,74.6800)">0</text>
   <text   style="font-family:'Times','Nimbus Roman'; font-style:normal; font-weight:normal; font-size:612.0000" transform="matrix(0.0280,0.0000,-0.0000,-0.0280,179.3000,73.6800)">0.05</text>
   <text   style="font-family:'Times','Nimbus Roman'; font-style:normal; font-weight:normal; font-size:612.0000" transform="matrix(0.0280,0.0000,-0.0000,-0.0280,285.8000,73.6800)">0.1</text>
   <text   style="font-family:'Times','Nimbus Roman'; font-style:normal; font-weight:normal; font-size:612.0000" transform="matrix(0.0280,0.0000,-0.0000,-0.0280,383.3000,73.6800)">0.15</text>
   <text   style="font-family:'Times','Nimbus Roman'; font-style:normal; font-weight:normal; font-size:612.0000" transform="matrix(0.0280,0.0000,-0.0000,-0.0280,489.3000,74.6800)">0.2</text>
   <text   style="font-family:'Times','Nimbus Roman'; font-style:normal; font-weight:normal; font-size:612.0000" transform="matrix(0.0280,0.0000,-0.0000,-0.0280,587.3000,73.6800)">0.25</text>
   <text   style="font-family:'Times','Nimbus Roman'; font-style:normal; font-weight:normal; font-size:612.0000" transform="matrix(0.0280,0.0000,-0.0000,-0.0280,693.8000,74.6800)">0.3</text>
  </g>
  <g style="fill:none; stroke:#000000; stroke-width:  0.9180; stroke-linecap:butt; stroke-linejoin:miter; stroke-dasharray:none">
   <path d="M91.8000,91.8000L91.8000,520.2000"/>
   <path d="M703.8000,91.8000L703.8000,520.2000"/>
   <path d="M91.8000,91.8000L104.0400,91.8000"/>
   <path d="M703.8000,91.8000L691.5600,91.8000"/>
   <path d="M91.8000,153.0000L104.0400,153.0000"/>
   <path d="M703.8000,153.0000L691.5600,153.0000"/>
   <path d="M91.8000,214.2000L104.0400,214.2000"/>
   <path d="M703.8000,214.2000L691.5600,214.2000"/>
   <path d="M91.8000,275.4000L104.0400,275.4000"/>
   <path d="M703.8000,275.4000L691.5600,275.4000"/>
   <path d="M91.8000,336.6000L104.0400,336.6000"/>
   <path d="M703.8000,336.6000L691.5600,336.6000"/>
   <path d="M91.8000,397.8000L104.0400,397.8000"/>
   <path d="M703.8000,397.8000L691.5600,397.8000"/>
   <path d="M91.8000,459.0000L104.0400,459.0000"/>
   <path d="M703.8000,459.0000L691.5600,459.0000"/>
   <path d="M91.8000,520.2000L104.0400,520.2000"/>
   <path d="M703.8000,520.2000L691.5600,520.2000"/>
  </g>
  <g style="fill:#000000; fill-rule:nonzero">
   <text   style="font-family:'Times','Nimbus Roman'; font-style:normal; font-weight:normal; font-size:612.0000" transform="matrix(0.0280,0.0000,-0.0000,-0.0280,77.6800,86.3000)">0</text>
   <text   style="font-family:'Times','Nimbus Roman'; font-style:normal; font-weight:normal; font-size:612.0000" transform="matrix(0.0280,0.0000,-0.0000,-0.0280,68.6800,147.0000)">10</text>
   <text   style="font-family:'Times','Nimbus Roman'; font-style:normal; font-weight:normal; font-size:612.0000" transform="matrix(0.0280,0.0000,-0.0000,-0.0280,68.6800,208.7000)">20</text>
   <text   style="font-family:'Times','Nimbus Roman'; font-style:normal; font-weight:normal; font-size:612.0000" transform="matrix(0.0280,0.0000,-0.0000,-0.0280,68.6800,269.9000)">30</text>
   <text   style="font-family:'Times','Nimbus Roman'; font-style:normal; font-weight:normal; font-size:612.0000" transform="matrix(0.0280,0.0000,-0.0000,-0.0280,68.6800,331.1000)">40</text>
   <text   style="font-family:'Times','Nimbus Roman'; font-style:normal; font-weight:normal; font-size:612.0000" transform="matrix(0.0280,0.0000,-0.0000,-0.0280,68.6800,391.8000)">50</text>
   <text   style="font-family:'Times','Nimbus Roman'; font-style:normal; font-weight:normal; font-size:612.0000" transform="matrix(0.0280,0.0000,-0.0000,-0.0280,68.6800,453.0000)">60</text>
   <text   style="font-family:'Times','Nimbus Roman'; font-style:normal; font-weight:normal; font-size:612.0000" transform="matrix(0.0280,0.0000,-0.0000,-0.0280,68.6800,514.7000)">70</text>
  </g>
  <g style="fill:none; stroke:#000000; stroke-width:  0.9180; stroke-linecap:butt; stroke-linejoin:miter; stroke-dasharray:none">
   <path d="M91.8000,91.8000L91.8000,520.2000L703.8000,520.2000L703.8000,91.8000z"/>
  </g>
 </g>
</svg>
