<?xml version="1.0" encoding="ISO-8859-1"?>
<!DOCTYPE svg PUBLIC "-//W3C//DTD SVG 1.0//EN" "http://www.w3.org/TR/2001/REC-SVG-20010904/DTD/svg10.dtd">
<!-- generated by Grace-5.1.25 -->
<svg xml:space="preserve" width="11.0000in" height="8.5000in" viewBox="0.0000 0.0000 792.0000 612.0000">
 <g transform="translate(0,612.0000) scale(1,-1)">
  <g style="fill:#FFFFFF; fill-rule:nonzero">
   <path  d="M0.0000,0.0000L0.0000,612.0000L792.0000,612.0000L792.0000,0.0000z"/>
  </g>
  <g style="fill:none; stroke:#000000; stroke-width:  0.9180; stroke-linecap:butt; stroke-linejoin:miter; stroke-dasharray:none">
   <path d="M107.7375,91.8000L123.6750,91.8000L139.6125,91.8000L155.5500,91.8000L171.4875,91.8000L187.4250,91.8000L203.3625,91.8000L219.3000,91.8000L235.2375,91.8000L251.1750,143.2080
            L267.1125,177.4800L283.0500,194.6160L298.9875,237.4560L314.9250,246.0240L330.8625,263.1600L346.8000,348.8400L362.7375,297.4320L378.6750,348.8400L394.6125,503.0640L410.5500,177.4800
            L426.4875,91.8000L442.4250,91.8000L458.3625,91.8000L474.3000,91.8000L490.2375,91.8000L506.1750,91.8000L522.1125,91.8000L538.0500,91.8000L553.9875,91.8000L569.9250,91.8000
            L585.8625,91.8000L601.8000,91.8000"/>
  </g>
  <g style="fill:none; stroke:#FF0000; stroke-width:  0.9180; stroke-linecap:butt; stroke-linejoin:miter; stroke-dasharray:none">
   <path d="M107.7375,91.8000L123.6750,91.8000L139.6125,91.8000L155.5500,91.8000L171.4875,91.8000L187.4250,91.8000L203.3625,91.8000L219.3000,91.8000L235.2375,108.9360L251.1750,271.7280
            L267.1125,297.4320L283.0500,323.1360L298.9875,340.2720L314.9250,237.4560L330.8625,263.1600L346.8000,126.0720L362.7375,91.8000L378.6750,91.8000L394.6125,91.8000L410.5500,91.8000
            L426.4875,91.8000L442.4250,100.3680L458.3625,91.8000L474.3000,91.8000L490.2375,91.8000L506.1750,91.8000L522.1125,91.8000L538.0500,91.8000L553.9875,91.8000L569.9250,91.8000
            L585.8625,91.8000L601.8000,91.8000"/>
  </g>
  <g style="fill:none; stroke:#00FF00; stroke-width:  0.9180; stroke-linecap:butt; stroke-linejoin:miter; stroke-dasharray:none">
   <path d="M107.7375,91.8000L123.6750,91.8000L139.6125,91.8000L155.5500,91.8000L171.4875,91.8000L187.4250,91.8000L203.3625,91.8000L219.3000,91.8000L235.2375,91.8000L251.1750,91.8000
            L267.1125,91.8000L283.0500,91.8000L298.9875,126.0720L314.9250,168.9120L330.8625,186.0480L346.8000,220.3200L362.7375,246.0240L378.6750,348.8400L394.6125,374.5440L410.5500,177.4800
            L426.4875,108.9360L442.4250,91.8000L458.3625,108.9360L474.3000,91.8000L490.2375,108.9360L506.1750,91.8000L522.1125,91.8000L538.0500,91.8000L553.9875,91.8000L569.9250,91.8000
            L585.8625,91.8000L601.8000,100.3680"/>
  </g>
  <g style="fill:none; stroke:#000000; stroke-width:  0.9180; stroke-linecap:butt; stroke-linejoin:miter; stroke-dasharray:none">
   <path d="M91.8000,91.8000L703.8000,91.8000"/>
   <path d="M91.8000,520.2000L703.8000,520.2000"/>
   <path d="M91.8000,91.8000L91.8000,104.0400"/>
   <path d="M91.8000,520.2000L91.8000,507.9600"/>
   <path d="M193.8000,91.8000L193.8000,104.0400"/>
   <path d="M193.8000,520.2000L193.8000,507.9600"/>
   <path d="M295.8000,91.8000L295.8000,104.0400"/>
   <path d="M295.8000,520.2000L295.8000,507.9600"/>
   <path d="M397.8000,91.8000L397.8000,104.0400"/>
   <path d="M397.8000,520.2000L397.8000,507.9600"/>
   <path d="M499.8000,91.8000L499.8000,104.0400"/>
   <path d="M499.8000,520.2000L499.8000,507.9600"/>
   <path d="M601.8000,91.8000L601.8000,104.0400"/>
   <path d="M601.8000,520.2000L601.8000,507.9600"/>
   <path d="M703.8000,91.8000L703.8000,104.0400"/>
   <path d="M703.8000,520.2000L703.8000,507.9600"/>
  </g>
  <g style="fill:#000000; fill-rule:nonzero">
   <text   style="font-family:'Times','Nimbus Roman'; font-style:normal; font-weight:normal; font-size:612.0000" transform="matrix(0.0280,0.0000,-0.0000,-0.0280,87.8000,74.6800)">0</text>
   <text   style="font-family:'Times','Nimbus Roman'; font-style:normal; font-weight:normal; font-size:612.0000" transform="matrix(0.0280,0.0000,-0.0000,-0.0280,179.3000,73.6800)">0.05</text>
   <text   style="font-family:'Times','Nimbus Roman'; font-style:normal; font-weight:normal; font-size:612.0000" transform="matrix(0.0280,0.0000,-0.0000,-0.0280,285.8000,73.6800)">0.1</text>
   <text   style="font-family:'Times','Nimbus Roman'; font-style:normal; font-weight:normal; font-size:612.0000" transform="matrix(0.0280,0.0000,-0.0000,-0.0280,383.3000,73.6800)">0.15</text>
   <text   style="font-family:'Times','Nimbus Roman'; font-style:normal; font-weight:normal; font-size:612.0000" transform="matrix(0.0280,0.0000,-0.0000,-0.0280,489.3000,74.6800)">0.2</text>
   <text   style="font-family:'Times','Nimbus Roman'; font-style:normal; font-weight:normal; font-size:612.0000" transform="matrix(0.0280,0.0000,-0.0000,-0.0280,587.3000,73.6800)">0.25</text>
   <text   style="font-family:'Times','Nimbus Roman'; font-style:normal; font-weight:normal; font-size:612.0000" transform="matrix(0.0280,0.0000,-0.0000,-0.0280,693.8000,74.6800)">0.3</text>
  </g>
  <g style="fill:none; stroke:#000000; stroke-width:  0.9180; stroke-linecap:butt; stroke-linejoin:miter; stroke-dasharray:none">
   <path d="M91.8000,91.8000L91.8000,520.2000"/>
   <path d="M703.8000,91.8000L703.8000,520.2000"/>
   <path d="M91.8000,91.8000L104.0400,91.8000"/>
   <path d="M703.8000,91.8000L691.5600,91.8000"/>
   <path d="M91.8000,177.4800L104.0400,177.4800"/>
   <path d="M703.8000,177.4800L691.5600,177.4800"/>
   <path d="M91.8000,263.1600L104.0400,263.1600"/>
   <path d="M703.8000,263.1600L691.5600,263.1600"/>
   <path d="M91.8000,348.8400L104.0400,348.8400"/>
   <path d="M703.8000,348.8400L691.5600,348.8400"/>
   <path d="M91.8000,434.5200L104.0400,434.5200"/>
   <path d="M703.8000,434.5200L691.5600,434.5200"/>
   <path d="M91.8000,520.2000L104.0400,520.2000"/>
   <path d="M703.8000,520.2000L691.5600,520.2000"/>
  </g>
  <g style="fill:#000000; fill-rule:nonzero">
   <text   style="font-family:'Times','Nimbus Roman'; font-style:normal; font-weight:normal; font-size:612.0000" transform="matrix(0.0280,0.0000,-0.0000,-0.0280,77.6800,86.3000)">0</text>
   <text   style="font-family:'Times','Nimbus Roman'; font-style:normal; font-weight:normal; font-size:612.0000" transform="matrix(0.0280,0.0000,-0.0000,-0.0280,68.6800,171.4800)">10</text>
   <text   style="font-family:'Times','Nimbus Roman'; font-style:normal; font-weight:normal; font-size:612.0000" transform="matrix(0.0280,0.0000,-0.0000,-0.0280,68.6800,257.6600)">20</text>
   <text   style="font-family:'Times','Nimbus Roman'; font-style:normal; font-weight:normal; font-size:612.0000" transform="matrix(0.0280,0.0000,-0.0000,-0.0280,68.6800,343.3400)">30</text>
   <text   style="font-family:'Times','Nimbus Roman'; font-style:normal; font-weight:normal; font-size:612.0000" transform="matrix(0.0280,0.0000,-0.0000,-0.0280,68.6800,429.0200)">40</text>
   <text   style="font-family:'Times','Nimbus Roman'; font-style:normal; font-weight:normal; font-size:612.0000" transform="matrix(0.0280,0.0000,-0.0000,-0.0280,68.6800,514.2000)">50</text>
  </g>
  <g style="fill:none; stroke:#000000; stroke-width:  0.9180; stroke-linecap:butt; stroke-linejoin:miter; stroke-dasharray:none">
   <path d="M91.8000,91.8000L91.8000,520.2000L703.8000,520.2000L703.8000,91.8000z"/>
  </g>
 </g>
</svg>
