<?xml version="1.0" encoding="ISO-8859-1"?>
<!DOCTYPE svg PUBLIC "-//W3C//DTD SVG 1.0//EN" "http://www.w3.org/TR/2001/REC-SVG-20010904/DTD/svg10.dtd">
<!-- generated by Grace-5.1.25 -->
<svg xml:space="preserve" width="11.0000in" height="8.5000in" viewBox="0.0000 0.0000 792.0000 612.0000">
 <g transform="translate(0,612.0000) scale(1,-1)">
  <g style="fill:#FFFFFF; fill-rule:nonzero">
   <path  d="M0.0000,0.0000L0.0000,612.0000L792.0000,612.0000L792.0000,0.0000z"/>
  </g>
  <g style="fill:#FF0000; fill-rule:nonzero">
   <path  d="M120.9877,91.8000L120.9877,511.4571L133.2277,511.4571L133.2277,91.8000z"/>
   <path  d="M226.9108,91.8000L226.9108,432.7714L239.1508,432.7714L239.1508,91.8000z"/>
   <path  d="M332.8338,91.8000L332.8338,354.0857L345.0738,354.0857L345.0738,91.8000z"/>
   <path  d="M438.7569,91.8000L438.7569,380.3143L450.9969,380.3143L450.9969,91.8000z"/>
  </g>
  <defs>
   <pattern id="pattern10" viewBox="0 0 16 16" width="16" height="16" patternUnits="userSpaceOnUse">
     <rect fill="#FFFFFF" x="0" y="0" width="16" height="16"/>
     <rect x="3" y="15" width="1" height="1"/>
     <rect x="4" y="15" width="1" height="1"/>
     <rect x="5" y="15" width="1" height="1"/>
     <rect x="6" y="15" width="1" height="1"/>
     <rect x="11" y="15" width="1" height="1"/>
     <rect x="12" y="15" width="1" height="1"/>
     <rect x="13" y="15" width="1" height="1"/>
     <rect x="14" y="15" width="1" height="1"/>
     <rect x="4" y="14" width="1" height="1"/>
     <rect x="5" y="14" width="1" height="1"/>
     <rect x="6" y="14" width="1" height="1"/>
     <rect x="7" y="14" width="1" height="1"/>
     <rect x="12" y="14" width="1" height="1"/>
     <rect x="13" y="14" width="1" height="1"/>
     <rect x="14" y="14" width="1" height="1"/>
     <rect x="15" y="14" width="1" height="1"/>
     <rect x="0" y="13" width="1" height="1"/>
     <rect x="5" y="13" width="1" height="1"/>
     <rect x="6" y="13" width="1" height="1"/>
     <rect x="7" y="13" width="1" height="1"/>
     <rect x="8" y="13" width="1" height="1"/>
     <rect x="13" y="13" width="1" height="1"/>
     <rect x="14" y="13" width="1" height="1"/>
     <rect x="15" y="13" width="1" height="1"/>
     <rect x="0" y="12" width="1" height="1"/>
     <rect x="1" y="12" width="1" height="1"/>
     <rect x="6" y="12" width="1" height="1"/>
     <rect x="7" y="12" width="1" height="1"/>
     <rect x="8" y="12" width="1" height="1"/>
     <rect x="9" y="12" width="1" height="1"/>
     <rect x="14" y="12" width="1" height="1"/>
     <rect x="15" y="12" width="1" height="1"/>
     <rect x="0" y="11" width="1" height="1"/>
     <rect x="1" y="11" width="1" height="1"/>
     <rect x="2" y="11" width="1" height="1"/>
     <rect x="7" y="11" width="1" height="1"/>
     <rect x="8" y="11" width="1" height="1"/>
     <rect x="9" y="11" width="1" height="1"/>
     <rect x="10" y="11" width="1" height="1"/>
     <rect x="15" y="11" width="1" height="1"/>
     <rect x="0" y="10" width="1" height="1"/>
     <rect x="1" y="10" width="1" height="1"/>
     <rect x="2" y="10" width="1" height="1"/>
     <rect x="3" y="10" width="1" height="1"/>
     <rect x="8" y="10" width="1" height="1"/>
     <rect x="9" y="10" width="1" height="1"/>
     <rect x="10" y="10" width="1" height="1"/>
     <rect x="11" y="10" width="1" height="1"/>
     <rect x="1" y="9" width="1" height="1"/>
     <rect x="2" y="9" width="1" height="1"/>
     <rect x="3" y="9" width="1" height="1"/>
     <rect x="4" y="9" width="1" height="1"/>
     <rect x="9" y="9" width="1" height="1"/>
     <rect x="10" y="9" width="1" height="1"/>
     <rect x="11" y="9" width="1" height="1"/>
     <rect x="12" y="9" width="1" height="1"/>
     <rect x="2" y="8" width="1" height="1"/>
     <rect x="3" y="8" width="1" height="1"/>
     <rect x="4" y="8" width="1" height="1"/>
     <rect x="5" y="8" width="1" height="1"/>
     <rect x="10" y="8" width="1" height="1"/>
     <rect x="11" y="8" width="1" height="1"/>
     <rect x="12" y="8" width="1" height="1"/>
     <rect x="13" y="8" width="1" height="1"/>
     <rect x="3" y="7" width="1" height="1"/>
     <rect x="4" y="7" width="1" height="1"/>
     <rect x="5" y="7" width="1" height="1"/>
     <rect x="6" y="7" width="1" height="1"/>
     <rect x="11" y="7" width="1" height="1"/>
     <rect x="12" y="7" width="1" height="1"/>
     <rect x="13" y="7" width="1" height="1"/>
     <rect x="14" y="7" width="1" height="1"/>
     <rect x="4" y="6" width="1" height="1"/>
     <rect x="5" y="6" width="1" height="1"/>
     <rect x="6" y="6" width="1" height="1"/>
     <rect x="7" y="6" width="1" height="1"/>
     <rect x="12" y="6" width="1" height="1"/>
     <rect x="13" y="6" width="1" height="1"/>
     <rect x="14" y="6" width="1" height="1"/>
     <rect x="15" y="6" width="1" height="1"/>
     <rect x="0" y="5" width="1" height="1"/>
     <rect x="5" y="5" width="1" height="1"/>
     <rect x="6" y="5" width="1" height="1"/>
     <rect x="7" y="5" width="1" height="1"/>
     <rect x="8" y="5" width="1" height="1"/>
     <rect x="13" y="5" width="1" height="1"/>
     <rect x="14" y="5" width="1" height="1"/>
     <rect x="15" y="5" width="1" height="1"/>
     <rect x="0" y="4" width="1" height="1"/>
     <rect x="1" y="4" width="1" height="1"/>
     <rect x="6" y="4" width="1" height="1"/>
     <rect x="7" y="4" width="1" height="1"/>
     <rect x="8" y="4" width="1" height="1"/>
     <rect x="9" y="4" width="1" height="1"/>
     <rect x="14" y="4" width="1" height="1"/>
     <rect x="15" y="4" width="1" height="1"/>
     <rect x="0" y="3" width="1" height="1"/>
     <rect x="1" y="3" width="1" height="1"/>
     <rect x="2" y="3" width="1" height="1"/>
     <rect x="7" y="3" width="1" height="1"/>
     <rect x="8" y="3" width="1" height="1"/>
     <rect x="9" y="3" width="1" height="1"/>
     <rect x="10" y="3" width="1" height="1"/>
     <rect x="15" y="3" width="1" height="1"/>
     <rect x="0" y="2" width="1" height="1"/>
     <rect x="1" y="2" width="1" height="1"/>
     <rect x="2" y="2" width="1" height="1"/>
     <rect x="3" y="2" width="1" height="1"/>
     <rect x="8" y="2" width="1" height="1"/>
     <rect x="9" y="2" width="1" height="1"/>
     <rect x="10" y="2" width="1" height="1"/>
     <rect x="11" y="2" width="1" height="1"/>
     <rect x="1" y="1" width="1" height="1"/>
     <rect x="2" y="1" width="1" height="1"/>
     <rect x="3" y="1" width="1" height="1"/>
     <rect x="4" y="1" width="1" height="1"/>
     <rect x="9" y="1" width="1" height="1"/>
     <rect x="10" y="1" width="1" height="1"/>
     <rect x="11" y="1" width="1" height="1"/>
     <rect x="12" y="1" width="1" height="1"/>
     <rect x="2" y="0" width="1" height="1"/>
     <rect x="3" y="0" width="1" height="1"/>
     <rect x="4" y="0" width="1" height="1"/>
     <rect x="5" y="0" width="1" height="1"/>
     <rect x="10" y="0" width="1" height="1"/>
     <rect x="11" y="0" width="1" height="1"/>
     <rect x="12" y="0" width="1" height="1"/>
     <rect x="13" y="0" width="1" height="1"/>
   </pattern>
   <filter id="tocolor15" filterUnits="objectBoundingBox"
    color-interpolation-filters="sRGB" x="0%" y="0%" width="100%" height="100%">
    <feComponentTransfer>
      <feFuncR type="discrete" tableValues="0.000000 1.000000"/>
      <feFuncG type="discrete" tableValues="0.545098 1.000000"/>
      <feFuncB type="discrete" tableValues="0.000000 1.000000"/>
    </feComponentTransfer>
   </filter>
  </defs>
  <g style="filter:url(#tocolor15); fill:url(#pattern10); fill-rule:nonzero">
   <path  d="M156.2954,91.8000L156.2954,401.6906L168.5354,401.6906L168.5354,91.8000z"/>
   <path  d="M262.2185,91.8000L262.2185,237.6309L274.4585,237.6309L274.4585,91.8000z"/>
   <path  d="M368.1415,91.8000L368.1415,227.7951L380.3815,227.7951L380.3815,91.8000z"/>
   <path  d="M474.0646,91.8000L474.0646,155.7977L486.3046,155.7977L486.3046,91.8000z"/>
  </g>
  <defs>
   <pattern id="pattern9" viewBox="0 0 16 16" width="16" height="16" patternUnits="userSpaceOnUse">
     <rect fill="#FFFFFF" x="0" y="0" width="16" height="16"/>
     <rect x="1" y="15" width="1" height="1"/>
     <rect x="2" y="15" width="1" height="1"/>
     <rect x="3" y="15" width="1" height="1"/>
     <rect x="4" y="15" width="1" height="1"/>
     <rect x="9" y="15" width="1" height="1"/>
     <rect x="10" y="15" width="1" height="1"/>
     <rect x="11" y="15" width="1" height="1"/>
     <rect x="12" y="15" width="1" height="1"/>
     <rect x="0" y="14" width="1" height="1"/>
     <rect x="1" y="14" width="1" height="1"/>
     <rect x="2" y="14" width="1" height="1"/>
     <rect x="3" y="14" width="1" height="1"/>
     <rect x="8" y="14" width="1" height="1"/>
     <rect x="9" y="14" width="1" height="1"/>
     <rect x="10" y="14" width="1" height="1"/>
     <rect x="11" y="14" width="1" height="1"/>
     <rect x="0" y="13" width="1" height="1"/>
     <rect x="1" y="13" width="1" height="1"/>
     <rect x="2" y="13" width="1" height="1"/>
     <rect x="7" y="13" width="1" height="1"/>
     <rect x="8" y="13" width="1" height="1"/>
     <rect x="9" y="13" width="1" height="1"/>
     <rect x="10" y="13" width="1" height="1"/>
     <rect x="15" y="13" width="1" height="1"/>
     <rect x="0" y="12" width="1" height="1"/>
     <rect x="1" y="12" width="1" height="1"/>
     <rect x="6" y="12" width="1" height="1"/>
     <rect x="7" y="12" width="1" height="1"/>
     <rect x="8" y="12" width="1" height="1"/>
     <rect x="9" y="12" width="1" height="1"/>
     <rect x="14" y="12" width="1" height="1"/>
     <rect x="15" y="12" width="1" height="1"/>
     <rect x="0" y="11" width="1" height="1"/>
     <rect x="5" y="11" width="1" height="1"/>
     <rect x="6" y="11" width="1" height="1"/>
     <rect x="7" y="11" width="1" height="1"/>
     <rect x="8" y="11" width="1" height="1"/>
     <rect x="13" y="11" width="1" height="1"/>
     <rect x="14" y="11" width="1" height="1"/>
     <rect x="15" y="11" width="1" height="1"/>
     <rect x="4" y="10" width="1" height="1"/>
     <rect x="5" y="10" width="1" height="1"/>
     <rect x="6" y="10" width="1" height="1"/>
     <rect x="7" y="10" width="1" height="1"/>
     <rect x="12" y="10" width="1" height="1"/>
     <rect x="13" y="10" width="1" height="1"/>
     <rect x="14" y="10" width="1" height="1"/>
     <rect x="15" y="10" width="1" height="1"/>
     <rect x="3" y="9" width="1" height="1"/>
     <rect x="4" y="9" width="1" height="1"/>
     <rect x="5" y="9" width="1" height="1"/>
     <rect x="6" y="9" width="1" height="1"/>
     <rect x="11" y="9" width="1" height="1"/>
     <rect x="12" y="9" width="1" height="1"/>
     <rect x="13" y="9" width="1" height="1"/>
     <rect x="14" y="9" width="1" height="1"/>
     <rect x="2" y="8" width="1" height="1"/>
     <rect x="3" y="8" width="1" height="1"/>
     <rect x="4" y="8" width="1" height="1"/>
     <rect x="5" y="8" width="1" height="1"/>
     <rect x="10" y="8" width="1" height="1"/>
     <rect x="11" y="8" width="1" height="1"/>
     <rect x="12" y="8" width="1" height="1"/>
     <rect x="13" y="8" width="1" height="1"/>
     <rect x="1" y="7" width="1" height="1"/>
     <rect x="2" y="7" width="1" height="1"/>
     <rect x="3" y="7" width="1" height="1"/>
     <rect x="4" y="7" width="1" height="1"/>
     <rect x="9" y="7" width="1" height="1"/>
     <rect x="10" y="7" width="1" height="1"/>
     <rect x="11" y="7" width="1" height="1"/>
     <rect x="12" y="7" width="1" height="1"/>
     <rect x="0" y="6" width="1" height="1"/>
     <rect x="1" y="6" width="1" height="1"/>
     <rect x="2" y="6" width="1" height="1"/>
     <rect x="3" y="6" width="1" height="1"/>
     <rect x="8" y="6" width="1" height="1"/>
     <rect x="9" y="6" width="1" height="1"/>
     <rect x="10" y="6" width="1" height="1"/>
     <rect x="11" y="6" width="1" height="1"/>
     <rect x="0" y="5" width="1" height="1"/>
     <rect x="1" y="5" width="1" height="1"/>
     <rect x="2" y="5" width="1" height="1"/>
     <rect x="7" y="5" width="1" height="1"/>
     <rect x="8" y="5" width="1" height="1"/>
     <rect x="9" y="5" width="1" height="1"/>
     <rect x="10" y="5" width="1" height="1"/>
     <rect x="15" y="5" width="1" height="1"/>
     <rect x="0" y="4" width="1" height="1"/>
     <rect x="1" y="4" width="1" height="1"/>
     <rect x="6" y="4" width="1" height="1"/>
     <rect x="7" y="4" width="1" height="1"/>
     <rect x="8" y="4" width="1" height="1"/>
     <rect x="9" y="4" width="1" height="1"/>
     <rect x="14" y="4" width="1" height="1"/>
     <rect x="15" y="4" width="1" height="1"/>
     <rect x="0" y="3" width="1" height="1"/>
     <rect x="5" y="3" width="1" height="1"/>
     <rect x="6" y="3" width="1" height="1"/>
     <rect x="7" y="3" width="1" height="1"/>
     <rect x="8" y="3" width="1" height="1"/>
     <rect x="13" y="3" width="1" height="1"/>
     <rect x="14" y="3" width="1" height="1"/>
     <rect x="15" y="3" width="1" height="1"/>
     <rect x="4" y="2" width="1" height="1"/>
     <rect x="5" y="2" width="1" height="1"/>
     <rect x="6" y="2" width="1" height="1"/>
     <rect x="7" y="2" width="1" height="1"/>
     <rect x="12" y="2" width="1" height="1"/>
     <rect x="13" y="2" width="1" height="1"/>
     <rect x="14" y="2" width="1" height="1"/>
     <rect x="15" y="2" width="1" height="1"/>
     <rect x="3" y="1" width="1" height="1"/>
     <rect x="4" y="1" width="1" height="1"/>
     <rect x="5" y="1" width="1" height="1"/>
     <rect x="6" y="1" width="1" height="1"/>
     <rect x="11" y="1" width="1" height="1"/>
     <rect x="12" y="1" width="1" height="1"/>
     <rect x="13" y="1" width="1" height="1"/>
     <rect x="14" y="1" width="1" height="1"/>
     <rect x="2" y="0" width="1" height="1"/>
     <rect x="3" y="0" width="1" height="1"/>
     <rect x="4" y="0" width="1" height="1"/>
     <rect x="5" y="0" width="1" height="1"/>
     <rect x="10" y="0" width="1" height="1"/>
     <rect x="11" y="0" width="1" height="1"/>
     <rect x="12" y="0" width="1" height="1"/>
     <rect x="13" y="0" width="1" height="1"/>
   </pattern>
   <filter id="tocolor4" filterUnits="objectBoundingBox"
    color-interpolation-filters="sRGB" x="0%" y="0%" width="100%" height="100%">
    <feComponentTransfer>
      <feFuncR type="discrete" tableValues="0.000000 1.000000"/>
      <feFuncG type="discrete" tableValues="0.000000 1.000000"/>
      <feFuncB type="discrete" tableValues="1.000000 1.000000"/>
    </feComponentTransfer>
   </filter>
  </defs>
  <g style="filter:url(#tocolor4); fill:url(#pattern9); fill-rule:nonzero">
   <path  d="M191.6031,91.8000L191.6031,201.5666L203.8431,201.5666L203.8431,91.8000z"/>
   <path  d="M297.5262,91.8000L297.5262,286.9406L309.7662,286.9406L309.7662,91.8000z"/>
   <path  d="M403.4492,91.8000L403.4492,218.0906L415.6892,218.0906L415.6892,91.8000z"/>
   <path  d="M509.3723,91.8000L509.3723,316.3166L521.6123,316.3166L521.6123,91.8000z"/>
  </g>
  <g style="fill:none; stroke:#000000; stroke-width:  0.9180; stroke-linecap:butt; stroke-linejoin:miter; stroke-dasharray:none">
   <path d="M91.8000,91.8000L104.0400,91.8000"/>
   <path d="M550.8000,91.8000L538.5600,91.8000"/>
   <path d="M91.8000,222.9429L104.0400,222.9429"/>
   <path d="M550.8000,222.9429L538.5600,222.9429"/>
   <path d="M91.8000,354.0857L104.0400,354.0857"/>
   <path d="M550.8000,354.0857L538.5600,354.0857"/>
   <path d="M91.8000,485.2286L104.0400,485.2286"/>
   <path d="M550.8000,485.2286L538.5600,485.2286"/>
   <path d="M91.8000,91.8000L91.8000,550.8000L550.8000,550.8000L550.8000,91.8000z"/>
  </g>
 </g>
</svg>
