<?xml version="1.0" encoding="UTF-8" standalone="no"?>
<!-- Created with Inkscape (http://www.inkscape.org/) -->

<svg
   width="177mm"
   height="238mm"
   viewBox="0 0 177 238"
   version="1.1"
   id="svg5"
   xml:space="preserve"
   inkscape:export-filename="Fig2.pdf"
   inkscape:export-xdpi="300"
   inkscape:export-ydpi="300"
   inkscape:version="1.2 (dc2aedaf03, 2022-05-15)"
   sodipodi:docname="Template.svg"
   xmlns:inkscape="http://www.inkscape.org/namespaces/inkscape"
   xmlns:sodipodi="http://sodipodi.sourceforge.net/DTD/sodipodi-0.dtd"
   xmlns="http://www.w3.org/2000/svg"
   xmlns:svg="http://www.w3.org/2000/svg"><sodipodi:namedview
     id="namedview7"
     pagecolor="#505050"
     bordercolor="#eeeeee"
     borderopacity="1"
     inkscape:showpageshadow="0"
     inkscape:pageopacity="0"
     inkscape:pagecheckerboard="0"
     inkscape:deskcolor="#505050"
     inkscape:document-units="mm"
     showgrid="false"
     inkscape:zoom="1.7045"
     inkscape:cx="334.40892"
     inkscape:cy="339.68906"
     inkscape:window-width="3840"
     inkscape:window-height="2054"
     inkscape:window-x="-11"
     inkscape:window-y="-11"
     inkscape:window-maximized="1"
     inkscape:current-layer="layer2" /><defs
     id="defs2"><clipPath
   id="clip-0">
      <path
   clip-rule="nonzero"
   d="m 115,19 h 4 v 6.066406 h -4 z m 0,0"
   id="path82" />
    </clipPath>
    <clipPath
   id="clip-1">
      <path
   clip-rule="nonzero"
   d="m 119,21 h 19 v 4.066406 h -19 z m 0,0"
   id="path85" />
    </clipPath>
  </defs><g
     inkscape:groupmode="layer"
     id="layer7"
     inkscape:label="BKG"
     transform="translate(88.5,119)"
     sodipodi:insensitive="true"
     style="display:inline"><rect
       style="display:inline;fill:#ffffff;fill-opacity:1;stroke:none;stroke-width:0.395947"
       id="rect2877"
       width="177"
       height="238"
       x="-88.5"
       y="-119" /></g><g
     inkscape:groupmode="layer"
     id="layer2"
     inkscape:label="B"
     style="display:inline"
     transform="translate(72.4056, 112.192)"><g
       inkscape:label=""
       transform="translate(-56.106854,-59.880953)"
       id="g1133"><g
   fill="#000000"
   fill-opacity="1"
   id="g94"
   transform="matrix(0.352778,0,0,0.352778,-0.42168,6.17358e-4)">
    <g
   id="use90"
   transform="translate(1.196,10.162)">
      <path
   d="m 6.015625,-8 c 0.015625,-0.046875 0.03125,-0.109375 0.03125,-0.171875 0,-0.125 -0.125,-0.125 -0.140625,-0.125 -0.015625,0 -0.59375,0.046875 -0.65625,0.0625 -0.203125,0.015625 -0.390625,0.03125 -0.59375,0.046875 -0.3125,0.03125 -0.390625,0.03125 -0.390625,0.25 0,0.125 0.09375,0.125 0.265625,0.125 0.578125,0 0.59375,0.109375 0.59375,0.21875 0,0.078125 -0.015625,0.171875 -0.03125,0.203125 l -0.734375,2.90625 c -0.125,-0.3125 -0.453125,-0.78125 -1.078125,-0.78125 -1.34375,0 -2.796875,1.734375 -2.796875,3.515625 0,1.171875 0.6875,1.875 1.5,1.875 0.65625,0 1.21875,-0.515625 1.546875,-0.90625 0.125,0.703125 0.6875,0.90625 1.046875,0.90625 0.359375,0 0.640625,-0.21875 0.859375,-0.65625 0.1875,-0.40625 0.359375,-1.125 0.359375,-1.171875 0,-0.0625 -0.046875,-0.109375 -0.125,-0.109375 C 5.5625,-1.8125 5.5625,-1.75 5.515625,-1.578125 5.328125,-0.875 5.109375,-0.125 4.609375,-0.125 4.265625,-0.125 4.25,-0.4375 4.25,-0.671875 c 0,-0.046875 0,-0.296875 0.078125,-0.625 z M 3.59375,-1.421875 C 3.53125,-1.21875 3.53125,-1.1875 3.375,-0.96875 3.109375,-0.640625 2.578125,-0.125 2.015625,-0.125 1.53125,-0.125 1.25,-0.5625 1.25,-1.265625 c 0,-0.65625 0.375,-2 0.609375,-2.5 0.40625,-0.84375 0.96875,-1.265625 1.421875,-1.265625 0.796875,0 0.953125,0.984375 0.953125,1.078125 0,0.015625 -0.03125,0.15625 -0.046875,0.1875 z m 0,0"
   id="path248" />
    </g>
    <g
   id="use92"
   transform="translate(7.2788062,10.162)">
      <path
   d="m 8.921875,-8.3125 c 0,-0.109375 -0.078125,-0.109375 -0.09375,-0.109375 -0.03125,0 -0.078125,0 -0.171875,0.125 l -0.828125,1 c -0.421875,-0.71875 -1.078125,-1.125 -1.96875,-1.125 -2.578125,0 -5.265625,2.625 -5.265625,5.4375 0,2 1.40625,3.234375 3.140625,3.234375 0.96875,0 1.796875,-0.40625 2.5,-0.984375 1.03125,-0.875 1.34375,-2.03125 1.34375,-2.140625 0,-0.09375 -0.09375,-0.09375 -0.125,-0.09375 -0.109375,0 -0.125,0.0625 -0.15625,0.109375 -0.546875,1.875 -2.15625,2.765625 -3.359375,2.765625 -1.265625,0 -2.359375,-0.8125 -2.359375,-2.515625 0,-0.375 0.125,-2.453125 1.46875,-4.03125 0.65625,-0.765625 1.78125,-1.421875 2.921875,-1.421875 1.3125,0 1.890625,1.078125 1.890625,2.296875 0,0.3125 -0.03125,0.578125 -0.03125,0.625 0,0.109375 0.125,0.109375 0.15625,0.109375 0.125,0 0.140625,-0.015625 0.1875,-0.234375 z m 0,0"
   id="path252" />
    </g>
  </g>
  <g
   fill="#000000"
   fill-opacity="1"
   id="g98"
   transform="matrix(0.352778,0,0,0.352778,-0.42168,6.17358e-4)">
    <g
   id="use96"
   transform="translate(15.653,11.955)">
      <path
   d="m 2.71875,-5.734375 c 0,-0.21875 0,-0.234375 -0.21875,-0.234375 -0.5625,0.5625 -1.390625,0.5625 -1.671875,0.5625 V -5.125 c 0.171875,0 0.71875,0 1.203125,-0.234375 v 4.640625 c 0,0.328125 -0.015625,0.4375 -0.859375,0.4375 H 0.890625 V 0 c 0.3125,-0.03125 1.125,-0.03125 1.484375,-0.03125 0.375,0 1.171875,0 1.5,0.03125 V -0.28125 H 3.59375 c -0.84375,0 -0.875,-0.109375 -0.875,-0.4375 z m 0,0"
   id="path256" />
    </g>
  </g>
  <path
   fill="none"
   stroke-width="0.717"
   stroke-linecap="butt"
   stroke-linejoin="miter"
   stroke="#000000"
   stroke-opacity="1"
   stroke-miterlimit="10"
   d="M 0,13.033 H 19.566406"
   id="path100"
   transform="scale(0.352778)" />
  <g
   fill="#000000"
   fill-opacity="1"
   id="g106"
   transform="matrix(0.352778,0,0,0.352778,-0.42168,6.17358e-4)">
    <g
   id="use102"
   transform="translate(5.822,23.271999)">
      <path
   d="m 6.015625,-8 c 0.015625,-0.046875 0.03125,-0.109375 0.03125,-0.171875 0,-0.125 -0.125,-0.125 -0.140625,-0.125 -0.015625,0 -0.59375,0.046875 -0.65625,0.0625 -0.203125,0.015625 -0.390625,0.03125 -0.59375,0.046875 -0.3125,0.03125 -0.390625,0.03125 -0.390625,0.25 0,0.125 0.09375,0.125 0.265625,0.125 0.578125,0 0.59375,0.109375 0.59375,0.21875 0,0.078125 -0.015625,0.171875 -0.03125,0.203125 l -0.734375,2.90625 c -0.125,-0.3125 -0.453125,-0.78125 -1.078125,-0.78125 -1.34375,0 -2.796875,1.734375 -2.796875,3.515625 0,1.171875 0.6875,1.875 1.5,1.875 0.65625,0 1.21875,-0.515625 1.546875,-0.90625 0.125,0.703125 0.6875,0.90625 1.046875,0.90625 0.359375,0 0.640625,-0.21875 0.859375,-0.65625 0.1875,-0.40625 0.359375,-1.125 0.359375,-1.171875 0,-0.0625 -0.046875,-0.109375 -0.125,-0.109375 C 5.5625,-1.8125 5.5625,-1.75 5.515625,-1.578125 5.328125,-0.875 5.109375,-0.125 4.609375,-0.125 4.265625,-0.125 4.25,-0.4375 4.25,-0.671875 c 0,-0.046875 0,-0.296875 0.078125,-0.625 z M 3.59375,-1.421875 C 3.53125,-1.21875 3.53125,-1.1875 3.375,-0.96875 3.109375,-0.640625 2.578125,-0.125 2.015625,-0.125 1.53125,-0.125 1.25,-0.5625 1.25,-1.265625 c 0,-0.65625 0.375,-2 0.609375,-2.5 0.40625,-0.84375 0.96875,-1.265625 1.421875,-1.265625 0.796875,0 0.953125,0.984375 0.953125,1.078125 0,0.015625 -0.03125,0.15625 -0.046875,0.1875 z m 0,0"
   id="path260" />
    </g>
    <g
   id="use104"
   transform="translate(11.904806,23.271999)">
      <path
   d="M 2.40625,-4.8125 H 3.5 c 0.234375,0 0.34375,0 0.34375,-0.203125 0,-0.140625 -0.0625,-0.140625 -0.3125,-0.140625 H 2.484375 l 0.4375,-1.734375 C 2.96875,-7.0625 2.96875,-7.09375 2.96875,-7.171875 c 0,-0.1875 -0.140625,-0.296875 -0.296875,-0.296875 -0.109375,0 -0.375,0.03125 -0.46875,0.421875 l -0.46875,1.890625 h -1.125 c -0.234375,0 -0.34375,0 -0.34375,0.234375 0,0.109375 0.078125,0.109375 0.3125,0.109375 h 1.0625 L 0.84375,-1.65625 c -0.09375,0.421875 -0.125,0.546875 -0.125,0.703125 0,0.5625 0.390625,1.078125 1.0625,1.078125 1.203125,0 1.859375,-1.75 1.859375,-1.828125 0,-0.078125 -0.0625,-0.109375 -0.125,-0.109375 -0.03125,0 -0.078125,0 -0.09375,0.046875 C 3.40625,-1.75 3.390625,-1.75 3.3125,-1.546875 c -0.25,0.59375 -0.796875,1.421875 -1.5,1.421875 -0.359375,0 -0.375,-0.296875 -0.375,-0.5625 0,0 0,-0.234375 0.03125,-0.375 z m 0,0"
   id="path264" />
    </g>
  </g>
  <g
   fill="#000000"
   fill-opacity="1"
   id="g110"
   transform="matrix(0.352778,0,0,0.352778,-0.42168,6.17358e-4)">
    <g
   id="use108"
   transform="translate(26.737,17.334999)">
      <path
   d="m 11.078125,-5.53125 c 0.25,0 0.515625,0 0.515625,-0.28125 C 11.59375,-6.125 11.296875,-6.125 11,-6.125 H 1.375 c -0.296875,0 -0.578125,0 -0.578125,0.3125 0,0.28125 0.25,0.28125 0.515625,0.28125 z M 11,-2.46875 c 0.296875,0 0.59375,0 0.59375,-0.296875 0,-0.296875 -0.265625,-0.296875 -0.515625,-0.296875 H 1.3125 c -0.265625,0 -0.515625,0 -0.515625,0.296875 0,0.296875 0.28125,0.296875 0.578125,0.296875 z m 0,0"
   id="path268" />
    </g>
  </g>
  <g
   fill="#000000"
   fill-opacity="1"
   id="g114"
   transform="matrix(0.352778,0,0,0.352778,-0.42168,6.17358e-4)">
    <g
   id="use112"
   transform="translate(43.910999,17.334999)">
      <path
   d="m 4.84375,-11.515625 c 0.015625,-0.07813 0.046875,-0.171875 0.046875,-0.265625 0,-0.171875 -0.171875,-0.171875 -0.203125,-0.171875 -0.015625,0 -0.640625,0.0625 -0.953125,0.09375 -0.296875,0.01563 -0.546875,0.04687 -0.859375,0.0625 -0.40625,0.03125 -0.53125,0.04687 -0.53125,0.359375 0,0.171875 0.171875,0.171875 0.34375,0.171875 0.875,0 0.875,0.15625 0.875,0.328125 0,0.07813 0,0.109375 -0.078125,0.421875 l -2.46875,9.84375 c -0.0625,0.265625 -0.0625,0.296875 -0.0625,0.390625 0,0.390625 0.28125,0.453125 0.453125,0.453125 0.484375,0 0.59375,-0.375 0.734375,-0.90625 L 2.9375,-3.953125 c 1.25,0.125 1.984375,0.640625 1.984375,1.46875 0,0.109375 0,0.171875 -0.046875,0.4375 -0.078125,0.25 -0.078125,0.46875 -0.078125,0.546875 0,1 0.65625,1.671875 1.546875,1.671875 0.78125,0 1.203125,-0.71875 1.328125,-0.96875 0.375,-0.625 0.59375,-1.59375 0.59375,-1.671875 0,-0.078125 -0.0625,-0.15625 -0.171875,-0.15625 -0.15625,0 -0.171875,0.078125 -0.234375,0.359375 C 7.609375,-1.375 7.25,-0.171875 6.375,-0.171875 6.03125,-0.171875 5.796875,-0.34375 5.796875,-1 5.796875,-1.328125 5.875,-1.703125 5.9375,-1.96875 6.015625,-2.265625 6.015625,-2.296875 6.015625,-2.5 c 0,-1.015625 -0.921875,-1.578125 -2.5,-1.78125 C 4.125,-4.671875 4.75,-5.34375 5,-5.59375 5.96875,-6.703125 6.640625,-7.25 7.4375,-7.25 c 0.390625,0 0.5,0.109375 0.625,0.203125 -0.640625,0.078125 -0.875,0.515625 -0.875,0.859375 0,0.421875 0.3125,0.5625 0.5625,0.5625 0.46875,0 0.875,-0.40625 0.875,-0.953125 0,-0.5 -0.390625,-1.015625 -1.171875,-1.015625 -0.9375,0 -1.71875,0.671875 -2.9375,2.046875 C 4.34375,-5.34375 3.703125,-4.6875 3.0625,-4.4375 Z m 0,0"
   id="path272" />
    </g>
  </g>
  <g
   fill="#000000"
   fill-opacity="1"
   id="g120"
   transform="matrix(0.352778,0,0,0.352778,-0.42168,6.17358e-4)">
    <g
   id="use116"
   transform="translate(52.678001,19.917)">
      <path
   d="M 4.765625,-2.765625 H 8.0625 c 0.171875,0 0.390625,0 0.390625,-0.203125 0,-0.234375 -0.203125,-0.234375 -0.390625,-0.234375 H 4.765625 V -6.5 c 0,-0.171875 0,-0.390625 -0.21875,-0.390625 -0.21875,0 -0.21875,0.203125 -0.21875,0.390625 v 3.296875 H 1.03125 c -0.171875,0 -0.390625,0 -0.390625,0.21875 0,0.21875 0.203125,0.21875 0.390625,0.21875 H 4.328125 V 0.53125 c 0,0.171875 0,0.390625 0.21875,0.390625 0.21875,0 0.21875,-0.203125 0.21875,-0.390625 z m 0,0"
   id="path276" />
    </g>
    <g
   id="use118"
   transform="translate(61.783081,19.917)">
      <path
   d="m 3.4375,-7.65625 c 0,-0.28125 0,-0.296875 -0.234375,-0.296875 C 2.921875,-7.625 2.3125,-7.1875 1.09375,-7.1875 v 0.34375 c 0.265625,0 0.859375,0 1.53125,-0.296875 v 6.21875 c 0,0.4375 -0.046875,0.578125 -1.09375,0.578125 h -0.375 V 0 c 0.328125,-0.03125 1.484375,-0.03125 1.875,-0.03125 0.40625,0 1.546875,0 1.875,0.03125 v -0.34375 h -0.375 c -1.046875,0 -1.09375,-0.140625 -1.09375,-0.578125 z m 0,0"
   id="path280" />
    </g>
  </g>
  <g
   fill="#000000"
   fill-opacity="1"
   id="g124"
   transform="matrix(0.352778,0,0,0.352778,-0.42168,6.17358e-4)">
    <g
   id="use122"
   transform="translate(68.134003,2.9890001)">
      <path
   d="M 7.40625,20.609375 C 7.40625,20.53125 7.375,20.5 7.34375,20.453125 6.515625,19.5625 5.296875,18.109375 4.53125,15.1875 4.125,13.5625 3.96875,11.71875 3.96875,10.046875 3.96875,5.328125 5.09375,2.03125 7.25,-0.3125 7.40625,-0.46875 7.40625,-0.5 7.40625,-0.53125 c 0,-0.1875 -0.140625,-0.1875 -0.21875,-0.1875 -0.265625,0 -1.234375,1.078125 -1.46875,1.34375 -1.828125,2.171875 -3,5.40625 -3,9.40625 0,2.546875 0.453125,6.140625 2.8125,9.1875 0.171875,0.203125 1.34375,1.578125 1.65625,1.578125 0.078125,0 0.21875,0 0.21875,-0.1875 z m 0,0"
   id="path284" />
    </g>
  </g>
  <g
   fill="#000000"
   fill-opacity="1"
   id="g128"
   transform="matrix(0.352778,0,0,0.352778,-0.42168,6.17358e-4)">
    <g
   id="use126"
   transform="translate(76.352997,17.334999)">
      <path
   d="m 4.578125,-11 c 0,-0.359375 -0.015625,-0.375 -0.25,-0.375 -0.671875,0.796875 -1.6875,1.0625 -2.65625,1.09375 -0.046875,0 -0.140625,0 -0.15625,0.03125 C 1.5,-10.203125 1.5,-10.171875 1.5,-9.8125 c 0.53125,0 1.421875,-0.109375 2.109375,-0.515625 V -1.25 c 0,0.59375 -0.03125,0.796875 -1.515625,0.796875 H 1.578125 V 0 c 0.828125,-0.015625 1.6875,-0.03125 2.515625,-0.03125 0.828125,0 1.6875,0.015625 2.515625,0.03125 V -0.453125 H 6.09375 c -1.484375,0 -1.515625,-0.1875 -1.515625,-0.796875 z m 0,0"
   id="path288" />
    </g>
  </g>
  <g
   fill="#000000"
   fill-opacity="1"
   id="g132"
   transform="matrix(0.352778,0,0,0.352778,-0.42168,6.17358e-4)">
    <g
   id="use130"
   transform="translate(88.073997,17.334999)">
      <path
   d="m 11.34375,-3.953125 c 0.296875,0 0.609375,0 0.609375,-0.359375 0,-0.34375 -0.3125,-0.34375 -0.609375,-0.34375 h -9.3125 c -0.296875,0 -0.609375,0 -0.609375,0.34375 0,0.359375 0.3125,0.359375 0.609375,0.359375 z m 0,0"
   id="path292" />
    </g>
  </g>
  <g
   fill="#000000"
   fill-opacity="1"
   id="g136"
   transform="matrix(0.352778,0,0,0.352778,-0.42168,6.17358e-4)">
    <g
   id="use134"
   transform="translate(112.345,8.967)">
      <path
   d="m 2.984375,2.984375 v -0.4375 h -1.15625 v -11.0625 h 1.15625 V -8.96875 H 1.390625 V 2.984375 Z m 0,0"
   id="path296" />
    </g>
  </g>
  <g
   fill="#000000"
   fill-opacity="1"
   id="g140"
   transform="matrix(0.352778,0,0,0.352778,-0.42168,6.17358e-4)">
    <g
   id="use138"
   transform="translate(115.597,8.967)">
      <path
   d="m 8.921875,-8.3125 c 0,-0.109375 -0.078125,-0.109375 -0.09375,-0.109375 -0.03125,0 -0.078125,0 -0.171875,0.125 l -0.828125,1 c -0.421875,-0.71875 -1.078125,-1.125 -1.96875,-1.125 -2.578125,0 -5.265625,2.625 -5.265625,5.4375 0,2 1.40625,3.234375 3.140625,3.234375 0.96875,0 1.796875,-0.40625 2.5,-0.984375 1.03125,-0.875 1.34375,-2.03125 1.34375,-2.140625 0,-0.09375 -0.09375,-0.09375 -0.125,-0.09375 -0.109375,0 -0.125,0.0625 -0.15625,0.109375 -0.546875,1.875 -2.15625,2.765625 -3.359375,2.765625 -1.265625,0 -2.359375,-0.8125 -2.359375,-2.515625 0,-0.375 0.125,-2.453125 1.46875,-4.03125 0.65625,-0.765625 1.78125,-1.421875 2.921875,-1.421875 1.3125,0 1.890625,1.078125 1.890625,2.296875 0,0.3125 -0.03125,0.578125 -0.03125,0.625 0,0.109375 0.125,0.109375 0.15625,0.109375 0.125,0 0.140625,-0.015625 0.1875,-0.234375 z m 0,0"
   id="path300" />
    </g>
  </g>
  <g
   fill="#000000"
   fill-opacity="1"
   id="g144"
   transform="matrix(0.352778,0,0,0.352778,-0.42168,6.17358e-4)">
    <g
   id="use142"
   transform="translate(123.972,10.76)">
      <path
   d="m 2.71875,-5.734375 c 0,-0.21875 0,-0.234375 -0.21875,-0.234375 -0.5625,0.5625 -1.390625,0.5625 -1.671875,0.5625 V -5.125 c 0.171875,0 0.71875,0 1.203125,-0.234375 v 4.640625 c 0,0.328125 -0.015625,0.4375 -0.859375,0.4375 H 0.890625 V 0 c 0.3125,-0.03125 1.125,-0.03125 1.484375,-0.03125 0.375,0 1.171875,0 1.5,0.03125 V -0.28125 H 3.59375 c -0.84375,0 -0.875,-0.109375 -0.875,-0.4375 z m 0,0"
   id="path304" />
    </g>
  </g>
  <g
   fill="#000000"
   fill-opacity="1"
   id="g148"
   transform="matrix(0.352778,0,0,0.352778,-0.42168,6.17358e-4)">
    <g
   id="use146"
   transform="translate(129.078,8.967)">
      <path
   d="M 1.859375,-8.96875 H 0.25 v 0.453125 h 1.15625 v 11.0625 H 0.25 v 0.4375 h 1.609375 z m 0,0"
   id="path308" />
    </g>
  </g>
  <path
   fill="none"
   stroke-width="0.717"
   stroke-linecap="butt"
   stroke-linejoin="miter"
   stroke="#000000"
   stroke-opacity="1"
   stroke-miterlimit="10"
   d="m 105.28906,13.033 h 31.70703"
   id="path150"
   transform="scale(0.352778)" />
  <g
   fill="#000000"
   fill-opacity="1"
   id="g154"
   transform="matrix(0.352778,0,0,0.352778,-0.42168,6.17358e-4)">
    <g
   id="use152"
   transform="translate(106.485,23.271999)">
      <path
   d="m 8.921875,-8.3125 c 0,-0.109375 -0.078125,-0.109375 -0.09375,-0.109375 -0.03125,0 -0.078125,0 -0.171875,0.125 l -0.828125,1 c -0.421875,-0.71875 -1.078125,-1.125 -1.96875,-1.125 -2.578125,0 -5.265625,2.625 -5.265625,5.4375 0,2 1.40625,3.234375 3.140625,3.234375 0.96875,0 1.796875,-0.40625 2.5,-0.984375 1.03125,-0.875 1.34375,-2.03125 1.34375,-2.140625 0,-0.09375 -0.09375,-0.09375 -0.125,-0.09375 -0.109375,0 -0.125,0.0625 -0.15625,0.109375 -0.546875,1.875 -2.15625,2.765625 -3.359375,2.765625 -1.265625,0 -2.359375,-0.8125 -2.359375,-2.515625 0,-0.375 0.125,-2.453125 1.46875,-4.03125 0.65625,-0.765625 1.78125,-1.421875 2.921875,-1.421875 1.3125,0 1.890625,1.078125 1.890625,2.296875 0,0.3125 -0.03125,0.578125 -0.03125,0.625 0,0.109375 0.125,0.109375 0.15625,0.109375 0.125,0 0.140625,-0.015625 0.1875,-0.234375 z m 0,0"
   id="path312" />
    </g>
  </g>
  <g
   clip-path="url(#clip-0)"
   id="g160"
   transform="matrix(0.352778,0,0,0.352778,-0.42168,6.17358e-4)">
    <g
   fill="#000000"
   fill-opacity="1"
   id="g158">
      <g
   id="use156"
   transform="translate(114.86,25.065001)">
        <path
   d="m 2.71875,-5.734375 c 0,-0.21875 0,-0.234375 -0.21875,-0.234375 -0.5625,0.5625 -1.390625,0.5625 -1.671875,0.5625 V -5.125 c 0.171875,0 0.71875,0 1.203125,-0.234375 v 4.640625 c 0,0.328125 -0.015625,0.4375 -0.859375,0.4375 H 0.890625 V 0 c 0.3125,-0.03125 1.125,-0.03125 1.484375,-0.03125 0.375,0 1.171875,0 1.5,0.03125 V -0.28125 H 3.59375 c -0.84375,0 -0.875,-0.109375 -0.875,-0.4375 z m 0,0"
   id="path316" />
      </g>
    </g>
  </g>
  <g
   clip-path="url(#clip-1)"
   id="g170"
   transform="matrix(0.352778,0,0,0.352778,-0.42168,6.17358e-4)">
    <g
   fill="#000000"
   fill-opacity="1"
   id="g168">
      <g
   id="use162"
   transform="translate(119.468,25.065001)">
        <path
   d="m 1.6875,-1.40625 c 0.109375,-0.421875 0.28125,-1.078125 0.28125,-1.15625 0.015625,-0.046875 0.25,-0.484375 0.5625,-0.796875 0.265625,-0.234375 0.609375,-0.375 0.953125,-0.375 0.484375,0 0.484375,0.46875 0.484375,0.625 0,0.109375 0,0.234375 -0.109375,0.671875 L 3.65625,-1.640625 c -0.28125,1.15625 -0.359375,1.4375 -0.359375,1.484375 0,0.109375 0.078125,0.25 0.28125,0.25 0.125,0 0.265625,-0.078125 0.328125,-0.1875 C 3.921875,-0.140625 4,-0.4375 4.046875,-0.609375 L 4.25,-1.40625 c 0.09375,-0.421875 0.265625,-1.078125 0.28125,-1.15625 0.015625,-0.046875 0.234375,-0.484375 0.5625,-0.796875 0.265625,-0.234375 0.59375,-0.375 0.953125,-0.375 0.484375,0 0.484375,0.46875 0.484375,0.625 0,0.546875 -0.421875,1.640625 -0.515625,1.921875 -0.109375,0.265625 -0.15625,0.359375 -0.15625,0.53125 0,0.484375 0.375,0.75 0.78125,0.75 0.859375,0 1.203125,-1.28125 1.203125,-1.375 0,-0.046875 -0.015625,-0.109375 -0.109375,-0.109375 C 7.625,-1.390625 7.625,-1.34375 7.59375,-1.234375 7.359375,-0.46875 6.984375,-0.125 6.65625,-0.125 c -0.0625,0 -0.21875,0 -0.21875,-0.28125 0,-0.234375 0.09375,-0.46875 0.15625,-0.65625 0.1875,-0.46875 0.546875,-1.40625 0.546875,-1.921875 0,-0.796875 -0.59375,-0.984375 -1.0625,-0.984375 C 5.21875,-3.96875 4.75,-3.328125 4.59375,-3.109375 4.5,-3.84375 3.890625,-3.96875 3.515625,-3.96875 2.6875,-3.96875 2.25,-3.375 2.09375,-3.1875 2.046875,-3.671875 1.671875,-3.96875 1.234375,-3.96875 c -0.375,0 -0.578125,0.28125 -0.703125,0.53125 -0.140625,0.3125 -0.265625,0.8125 -0.265625,0.859375 0,0.078125 0.0625,0.109375 0.125,0.109375 0.09375,0 0.109375,-0.046875 0.15625,-0.234375 0.171875,-0.703125 0.359375,-1.03125 0.65625,-1.03125 0.28125,0 0.28125,0.28125 0.28125,0.421875 0,0.1875 -0.078125,0.453125 -0.125,0.6875 -0.0625,0.234375 -0.15625,0.625 -0.1875,0.734375 L 0.8125,-0.421875 C 0.75,-0.203125 0.75,-0.1875 0.75,-0.15625 c 0,0.109375 0.078125,0.25 0.265625,0.25 0.125,0 0.265625,-0.078125 0.328125,-0.1875 C 1.375,-0.140625 1.4375,-0.4375 1.484375,-0.609375 Z m 0,0"
   id="path320" />
      </g>
      <g
   id="use164"
   transform="translate(127.58707,25.065001)">
        <path
   d="M 3.421875,-3.40625 C 3.25,-3.734375 2.984375,-3.96875 2.578125,-3.96875 1.53125,-3.96875 0.375,-2.71875 0.375,-1.359375 0.375,-0.375 1,0.09375 1.609375,0.09375 c 0.578125,0 1.046875,-0.484375 1.203125,-0.65625 0.09375,0.5 0.546875,0.65625 0.828125,0.65625 0.265625,0 0.484375,-0.109375 0.6875,-0.484375 0.15625,-0.296875 0.28125,-0.859375 0.28125,-0.890625 0,-0.046875 -0.03125,-0.109375 -0.109375,-0.109375 -0.109375,0 -0.125,0.046875 -0.15625,0.21875 C 4.140625,-0.390625 3.953125,-0.125 3.671875,-0.125 c -0.234375,0 -0.28125,-0.21875 -0.28125,-0.40625 0,-0.171875 0.046875,-0.359375 0.125,-0.671875 L 3.734375,-2.125 C 3.796875,-2.34375 3.96875,-3.015625 4,-3.15625 c 0.03125,-0.125 0.09375,-0.34375 0.09375,-0.375 0,-0.140625 -0.125,-0.25 -0.28125,-0.25 -0.125,0 -0.34375,0.0625 -0.390625,0.375 z M 2.84375,-1.09375 C 2.796875,-0.921875 2.796875,-0.921875 2.65625,-0.75 2.328125,-0.359375 1.96875,-0.125 1.625,-0.125 c -0.4375,0 -0.578125,-0.453125 -0.578125,-0.84375 0,-0.4375 0.25,-1.46875 0.46875,-1.90625 0.28125,-0.53125 0.703125,-0.859375 1.0625,-0.859375 0.59375,0 0.734375,0.71875 0.734375,0.78125 0,0.03125 -0.015625,0.09375 -0.03125,0.125 z m 0,0"
   id="path324" />
      </g>
      <g
   id="use166"
   transform="translate(132.46928,25.065001)">
        <path
   d="m 4.40625,-3.625 c -0.328125,0.0625 -0.421875,0.34375 -0.421875,0.484375 0,0.171875 0.125,0.328125 0.34375,0.328125 0.25,0 0.5,-0.21875 0.5,-0.53125 0,-0.421875 -0.453125,-0.625 -0.875,-0.625 -0.53125,0 -0.84375,0.484375 -0.953125,0.671875 -0.171875,-0.4375 -0.5625,-0.671875 -1,-0.671875 -0.953125,0 -1.484375,1.15625 -1.484375,1.390625 0,0.078125 0.0625,0.109375 0.125,0.109375 0.078125,0 0.109375,-0.046875 0.125,-0.109375 0.28125,-0.890625 0.875,-1.15625 1.21875,-1.15625 0.265625,0 0.484375,0.171875 0.484375,0.59375 0,0.3125 -0.375,1.75 -0.5,2.1875 C 1.90625,-0.6875 1.625,-0.125 1.140625,-0.125 c -0.1875,0 -0.375,-0.0625 -0.453125,-0.109375 C 0.921875,-0.28125 1.109375,-0.5 1.109375,-0.71875 c 0,-0.234375 -0.171875,-0.328125 -0.34375,-0.328125 -0.265625,0 -0.5,0.21875 -0.5,0.53125 0,0.4375 0.484375,0.609375 0.859375,0.609375 0.53125,0 0.828125,-0.421875 0.96875,-0.671875 0.21875,0.59375 0.75,0.671875 0.984375,0.671875 0.96875,0 1.484375,-1.15625 1.484375,-1.375 0,-0.046875 -0.03125,-0.109375 -0.109375,-0.109375 -0.109375,0 -0.109375,0.03125 -0.15625,0.171875 -0.203125,0.640625 -0.71875,1.09375 -1.1875,1.09375 -0.25,0 -0.5,-0.15625 -0.5,-0.59375 0,-0.203125 0.125,-0.6875 0.203125,-1.03125 0.046875,-0.15625 0.28125,-1.125 0.296875,-1.1875 0.109375,-0.328125 0.375,-0.796875 0.84375,-0.796875 0.15625,0 0.328125,0.015625 0.453125,0.109375 z m 0,0"
   id="path328" />
      </g>
    </g>
  </g>
  <g
   fill="#000000"
   fill-opacity="1"
   id="g174"
   transform="matrix(0.352778,0,0,0.352778,-0.42168,6.17358e-4)">
    <g
   id="use172"
   transform="translate(139.386,2.9890001)">
      <path
   d="M 5.46875,10.046875 C 5.46875,7.5 5.015625,3.890625 2.671875,0.859375 2.5,0.640625 1.328125,-0.71875 1,-0.71875 c -0.078125,0 -0.203125,0.03125 -0.203125,0.1875 0,0.0625 0.03125,0.125 0.09375,0.171875 0.875,0.9375 2.03125,2.390625 2.765625,5.234375 0.421875,1.640625 0.578125,3.484375 0.578125,5.15625 0,1.8125 -0.15625,3.640625 -0.625,5.390625 -0.6875,2.515625 -1.75,3.953125 -2.65625,4.953125 -0.15625,0.15625 -0.15625,0.203125 -0.15625,0.234375 0,0.140625 0.125,0.1875 0.203125,0.1875 0.28125,0 1.265625,-1.109375 1.46875,-1.359375 1.84375,-2.15625 3,-5.390625 3,-9.390625 z m 0,0"
   id="path332" />
    </g>
  </g>
  <g
   fill="#000000"
   fill-opacity="1"
   id="g178"
   transform="matrix(0.352778,0,0,0.352778,-0.42168,6.17358e-4)">
    <g
   id="use176"
   transform="translate(147.605,17.334999)">
      <path
   d="M 4.046875,4.28125 V 3.6875 h -1.625 v -15.984375 h 1.625 v -0.59375 H 1.828125 V 4.28125 Z m 0,0"
   id="path336" />
    </g>
  </g>
  <g
   fill="#000000"
   fill-opacity="1"
   id="g182"
   transform="matrix(0.352778,0,0,0.352778,-0.42168,6.17358e-4)">
    <g
   id="use180"
   transform="translate(151.90199,17.334999)">
      <path
   d="m 12.859375,-11.96875 c 0,-0.15625 -0.125,-0.15625 -0.15625,-0.15625 -0.03125,0 -0.09375,0 -0.234375,0.171875 L 11.28125,-10.5 c -0.609375,-1.03125 -1.546875,-1.625 -2.84375,-1.625 -3.71875,0 -7.578125,3.78125 -7.578125,7.8125 0,2.890625 2.015625,4.671875 4.53125,4.671875 1.375,0 2.578125,-0.578125 3.578125,-1.421875 1.5,-1.265625 1.953125,-2.9375 1.953125,-3.0625 0,-0.15625 -0.140625,-0.15625 -0.1875,-0.15625 -0.15625,0 -0.171875,0.09375 -0.21875,0.171875 -0.78125,2.6875 -3.109375,3.96875 -4.828125,3.96875 -1.828125,0 -3.421875,-1.171875 -3.421875,-3.609375 0,-0.5625 0.171875,-3.546875 2.125,-5.8125 0.953125,-1.09375 2.5625,-2.0625 4.203125,-2.0625 1.890625,0 2.734375,1.5625 2.734375,3.328125 0,0.4375 -0.04687,0.828125 -0.04687,0.890625 0,0.15625 0.171875,0.15625 0.21875,0.15625 0.1875,0 0.203125,-0.015625 0.28125,-0.328125 z m 0,0"
   id="path340" />
    </g>
  </g>
  <g
   fill="#000000"
   fill-opacity="1"
   id="g186"
   transform="matrix(0.352778,0,0,0.352778,-0.42168,6.17358e-4)">
    <g
   id="use184"
   transform="translate(163.963,19.917)">
      <path
   d="m 3.140625,1.34375 c -0.3125,0.453125 -0.78125,0.859375 -1.375,0.859375 C 1.625,2.203125 1.046875,2.171875 0.875,1.625 c 0.03125,0.015625 0.09375,0.015625 0.109375,0.015625 0.359375,0 0.609375,-0.3125 0.609375,-0.59375 C 1.59375,0.78125 1.359375,0.6875 1.1875,0.6875 c -0.203125,0 -0.609375,0.140625 -0.609375,0.71875 0,0.609375 0.515625,1.03125 1.1875,1.03125 C 2.96875,2.4375 4.171875,1.34375 4.5,0.015625 L 5.671875,-4.65625 C 5.6875,-4.703125 5.71875,-4.78125 5.71875,-4.859375 5.71875,-5.03125 5.5625,-5.15625 5.390625,-5.15625 5.28125,-5.15625 5.03125,-5.109375 4.9375,-4.75 L 4.046875,-1.234375 C 4,-1.015625 4,-0.984375 3.890625,-0.859375 3.65625,-0.53125 3.265625,-0.125 2.6875,-0.125 c -0.671875,0 -0.734375,-0.65625 -0.734375,-0.96875 0,-0.6875 0.328125,-1.609375 0.65625,-2.46875 0.125,-0.34375 0.203125,-0.515625 0.203125,-0.75 0,-0.5 -0.359375,-0.953125 -0.953125,-0.953125 -1.09375,0 -1.53125,1.734375 -1.53125,1.828125 0,0.046875 0.046875,0.109375 0.125,0.109375 0.109375,0 0.125,-0.046875 0.171875,-0.21875 0.28125,-1 0.734375,-1.484375 1.203125,-1.484375 0.109375,0 0.3125,0 0.3125,0.390625 0,0.3125 -0.125,0.65625 -0.3125,1.109375 C 1.25,-1.953125 1.25,-1.5625 1.25,-1.28125 1.25,-0.140625 2.0625,0.125 2.65625,0.125 3,0.125 3.4375,0.015625 3.84375,-0.4375 l 0.015625,0.015625 C 3.6875,0.28125 3.5625,0.75 3.140625,1.34375 Z m 0,0"
   id="path344" />
    </g>
  </g>
  <g
   fill="#000000"
   fill-opacity="1"
   id="g192"
   transform="matrix(0.352778,0,0,0.352778,-0.42168,6.17358e-4)">
    <g
   id="use188"
   transform="translate(170.597,17.334999)">
      <path
   d="M 2.46875,-12.890625 H 0.234375 v 0.59375 h 1.625 V 3.6875 h -1.625 V 4.28125 H 2.46875 Z m 0,0"
   id="path348" />
    </g>
    <g
   id="use190"
   transform="translate(174.89397,17.334999)">
      <path
   d="M 4.046875,4.28125 V 3.6875 h -1.625 v -15.984375 h 1.625 v -0.59375 H 1.828125 V 4.28125 Z m 0,0"
   id="path352" />
    </g>
  </g>
  <g
   fill="#000000"
   fill-opacity="1"
   id="g196"
   transform="matrix(0.352778,0,0,0.352778,-0.42168,6.17358e-4)">
    <g
   id="use194"
   transform="translate(179.19299,17.334999)">
      <path
   d="m 12.859375,-11.96875 c 0,-0.15625 -0.125,-0.15625 -0.15625,-0.15625 -0.03125,0 -0.09375,0 -0.234375,0.171875 L 11.28125,-10.5 c -0.609375,-1.03125 -1.546875,-1.625 -2.84375,-1.625 -3.71875,0 -7.578125,3.78125 -7.578125,7.8125 0,2.890625 2.015625,4.671875 4.53125,4.671875 1.375,0 2.578125,-0.578125 3.578125,-1.421875 1.5,-1.265625 1.953125,-2.9375 1.953125,-3.0625 0,-0.15625 -0.140625,-0.15625 -0.1875,-0.15625 -0.15625,0 -0.171875,0.09375 -0.21875,0.171875 -0.78125,2.6875 -3.109375,3.96875 -4.828125,3.96875 -1.828125,0 -3.421875,-1.171875 -3.421875,-3.609375 0,-0.5625 0.171875,-3.546875 2.125,-5.8125 0.953125,-1.09375 2.5625,-2.0625 4.203125,-2.0625 1.890625,0 2.734375,1.5625 2.734375,3.328125 0,0.4375 -0.04687,0.828125 -0.04687,0.890625 0,0.15625 0.171875,0.15625 0.21875,0.15625 0.1875,0 0.203125,-0.015625 0.28125,-0.328125 z m 0,0"
   id="path356" />
    </g>
  </g>
  <g
   fill="#000000"
   fill-opacity="1"
   id="g202"
   transform="matrix(0.352778,0,0,0.352778,-0.42168,6.17358e-4)">
    <g
   id="use198"
   transform="translate(192.489,17.334999)">
      <path
   d="m 4.578125,-11 c 0,-0.359375 -0.015625,-0.375 -0.25,-0.375 -0.671875,0.796875 -1.6875,1.0625 -2.65625,1.09375 -0.046875,0 -0.140625,0 -0.15625,0.03125 C 1.5,-10.203125 1.5,-10.171875 1.5,-9.8125 c 0.53125,0 1.421875,-0.109375 2.109375,-0.515625 V -1.25 c 0,0.59375 -0.03125,0.796875 -1.515625,0.796875 H 1.578125 V 0 c 0.828125,-0.015625 1.6875,-0.03125 2.515625,-0.03125 0.828125,0 1.6875,0.015625 2.515625,0.03125 V -0.453125 H 6.09375 c -1.484375,0 -1.515625,-0.1875 -1.515625,-0.796875 z m 0,0"
   id="path360" />
    </g>
    <g
   id="use200"
   transform="translate(200.38399,17.334999)">
      <path
   d="M 2.46875,-12.890625 H 0.234375 v 0.59375 h 1.625 V 3.6875 h -1.625 V 4.28125 H 2.46875 Z m 0,0"
   id="path364" />
    </g>
  </g>
  <g
   fill="#000000"
   fill-opacity="1"
   id="g206"
   transform="matrix(0.352778,0,0,0.352778,-0.42168,6.17358e-4)">
    <g
   id="use204"
   transform="translate(204.68201,11.088)">
      <path
   d="M 2.46875,-3.5 C 2.484375,-3.578125 2.78125,-4.171875 3.234375,-4.546875 3.53125,-4.84375 3.9375,-5.03125 4.40625,-5.03125 c 0.484375,0 0.65625,0.359375 0.65625,0.828125 0,0.6875 -0.5,2.046875 -0.734375,2.703125 -0.109375,0.28125 -0.171875,0.4375 -0.171875,0.65625 0,0.53125 0.375,0.96875 0.953125,0.96875 1.109375,0 1.53125,-1.765625 1.53125,-1.828125 0,-0.0625 -0.046875,-0.109375 -0.125,-0.109375 -0.109375,0 -0.125,0.03125 -0.1875,0.234375 C 6.0625,-0.59375 5.609375,-0.125 5.140625,-0.125 c -0.125,0 -0.3125,0 -0.3125,-0.390625 0,-0.296875 0.125,-0.65625 0.203125,-0.828125 C 5.265625,-2 5.765625,-3.328125 5.765625,-4.015625 c 0,-0.71875 -0.40625,-1.25 -1.3125,-1.25 -1.078125,0 -1.625,0.75 -1.84375,1.046875 -0.046875,-0.6875 -0.53125,-1.046875 -1.0625,-1.046875 -0.375,0 -0.640625,0.21875 -0.84375,0.625 -0.21875,0.4375 -0.375,1.15625 -0.375,1.203125 0,0.046875 0.046875,0.109375 0.125,0.109375 0.09375,0 0.109375,-0.015625 0.1875,-0.296875 0.1875,-0.71875 0.40625,-1.40625 0.875,-1.40625 0.28125,0 0.375,0.1875 0.375,0.546875 0,0.265625 -0.125,0.734375 -0.203125,1.109375 l -0.34375,1.28125 c -0.046875,0.234375 -0.171875,0.765625 -0.234375,0.984375 -0.078125,0.3125 -0.21875,0.875 -0.21875,0.9375 0,0.15625 0.140625,0.296875 0.3125,0.296875 0.140625,0 0.3125,-0.078125 0.40625,-0.25 C 1.640625,-0.1875 1.75,-0.609375 1.8125,-0.84375 l 0.25,-1.078125 z m 0,0"
   id="path368" />
    </g>
  </g>
  <g
   fill="#000000"
   fill-opacity="1"
   id="g210"
   transform="matrix(0.352778,0,0,0.352778,-0.42168,6.17358e-4)">
    <g
   id="use208"
   transform="translate(211.67,12.881)">
      <path
   d="m 2.71875,-5.734375 c 0,-0.21875 0,-0.234375 -0.21875,-0.234375 -0.5625,0.5625 -1.390625,0.5625 -1.671875,0.5625 V -5.125 c 0.171875,0 0.71875,0 1.203125,-0.234375 v 4.640625 c 0,0.328125 -0.015625,0.4375 -0.859375,0.4375 H 0.890625 V 0 c 0.3125,-0.03125 1.125,-0.03125 1.484375,-0.03125 0.375,0 1.171875,0 1.5,0.03125 V -0.28125 H 3.59375 c -0.84375,0 -0.875,-0.109375 -0.875,-0.4375 z m 0,0"
   id="path372" />
    </g>
  </g>
  <g
   fill="#000000"
   fill-opacity="1"
   id="g214"
   transform="matrix(0.352778,0,0,0.352778,-0.42168,6.17358e-4)">
    <g
   id="use212"
   transform="translate(221.099,17.334999)">
      <path
   d="m 11.34375,-3.953125 c 0.296875,0 0.609375,0 0.609375,-0.359375 0,-0.34375 -0.3125,-0.34375 -0.609375,-0.34375 h -9.3125 c -0.296875,0 -0.609375,0 -0.609375,0.34375 0,0.359375 0.3125,0.359375 0.609375,0.359375 z m 0,0"
   id="path376" />
    </g>
  </g>
  <g
   fill="#000000"
   fill-opacity="1"
   id="g218"
   transform="matrix(0.352778,0,0,0.352778,-0.42168,6.17358e-4)">
    <g
   id="use216"
   transform="translate(238.315,17.334999)">
      <path
   d="m 4.84375,-11.515625 c 0.015625,-0.07813 0.046875,-0.171875 0.046875,-0.265625 0,-0.171875 -0.171875,-0.171875 -0.203125,-0.171875 -0.015625,0 -0.640625,0.0625 -0.953125,0.09375 -0.296875,0.01563 -0.546875,0.04687 -0.859375,0.0625 -0.40625,0.03125 -0.53125,0.04687 -0.53125,0.359375 0,0.171875 0.171875,0.171875 0.34375,0.171875 0.875,0 0.875,0.15625 0.875,0.328125 0,0.07813 0,0.109375 -0.078125,0.421875 l -2.46875,9.84375 c -0.0625,0.265625 -0.0625,0.296875 -0.0625,0.390625 0,0.390625 0.28125,0.453125 0.453125,0.453125 0.484375,0 0.59375,-0.375 0.734375,-0.90625 L 2.9375,-3.953125 c 1.25,0.125 1.984375,0.640625 1.984375,1.46875 0,0.109375 0,0.171875 -0.046875,0.4375 -0.078125,0.25 -0.078125,0.46875 -0.078125,0.546875 0,1 0.65625,1.671875 1.546875,1.671875 0.78125,0 1.203125,-0.71875 1.328125,-0.96875 0.375,-0.625 0.59375,-1.59375 0.59375,-1.671875 0,-0.078125 -0.0625,-0.15625 -0.171875,-0.15625 -0.15625,0 -0.171875,0.078125 -0.234375,0.359375 C 7.609375,-1.375 7.25,-0.171875 6.375,-0.171875 6.03125,-0.171875 5.796875,-0.34375 5.796875,-1 5.796875,-1.328125 5.875,-1.703125 5.9375,-1.96875 6.015625,-2.265625 6.015625,-2.296875 6.015625,-2.5 c 0,-1.015625 -0.921875,-1.578125 -2.5,-1.78125 C 4.125,-4.671875 4.75,-5.34375 5,-5.59375 5.96875,-6.703125 6.640625,-7.25 7.4375,-7.25 c 0.390625,0 0.5,0.109375 0.625,0.203125 -0.640625,0.078125 -0.875,0.515625 -0.875,0.859375 0,0.421875 0.3125,0.5625 0.5625,0.5625 0.46875,0 0.875,-0.40625 0.875,-0.953125 0,-0.5 -0.390625,-1.015625 -1.171875,-1.015625 -0.9375,0 -1.71875,0.671875 -2.9375,2.046875 C 4.34375,-5.34375 3.703125,-4.6875 3.0625,-4.4375 Z m 0,0"
   id="path380" />
    </g>
  </g>
  <g
   fill="#000000"
   fill-opacity="1"
   id="g222"
   transform="matrix(0.352778,0,0,0.352778,-0.42168,6.17358e-4)">
    <g
   id="use220"
   transform="translate(247.082,19.917)">
      <path
   d="m 7.875,-2.75 c 0.203125,0 0.421875,0 0.421875,-0.234375 0,-0.25 -0.21875,-0.25 -0.421875,-0.25 H 1.40625 c -0.203125,0 -0.421875,0 -0.421875,0.25 0,0.234375 0.21875,0.234375 0.421875,0.234375 z m 0,0"
   id="path384" />
    </g>
  </g>
  <g
   fill="#000000"
   fill-opacity="1"
   id="g226"
   transform="matrix(0.352778,0,0,0.352778,-0.42168,6.17358e-4)">
    <g
   id="use224"
   transform="translate(256.38,19.917)">
      <path
   d="m 3.4375,-7.65625 c 0,-0.28125 0,-0.296875 -0.234375,-0.296875 C 2.921875,-7.625 2.3125,-7.1875 1.09375,-7.1875 v 0.34375 c 0.265625,0 0.859375,0 1.53125,-0.296875 v 6.21875 c 0,0.4375 -0.046875,0.578125 -1.09375,0.578125 h -0.375 V 0 c 0.328125,-0.03125 1.484375,-0.03125 1.875,-0.03125 0.40625,0 1.546875,0 1.875,0.03125 v -0.34375 h -0.375 c -1.046875,0 -1.09375,-0.140625 -1.09375,-0.578125 z m 0,0"
   id="path388" />
    </g>
  </g>
  <g
   fill="#000000"
   fill-opacity="1"
   id="g230"
   transform="matrix(0.352778,0,0,0.352778,-0.42168,6.17358e-4)">
    <g
   id="use228"
   transform="translate(262.73099,17.334999)">
      <path
   d="M 4.046875,4.28125 V 3.6875 h -1.625 v -15.984375 h 1.625 v -0.59375 H 1.828125 V 4.28125 Z m 0,0"
   id="path392" />
    </g>
  </g>
  <g
   fill="#000000"
   fill-opacity="1"
   id="g234"
   transform="matrix(0.352778,0,0,0.352778,-0.42168,6.17358e-4)">
    <g
   id="use232"
   transform="translate(267.02899,17.334999)">
      <path
   d="m 12.859375,-11.96875 c 0,-0.15625 -0.125,-0.15625 -0.15625,-0.15625 -0.03125,0 -0.09375,0 -0.234375,0.171875 L 11.28125,-10.5 c -0.609375,-1.03125 -1.546875,-1.625 -2.84375,-1.625 -3.71875,0 -7.578125,3.78125 -7.578125,7.8125 0,2.890625 2.015625,4.671875 4.53125,4.671875 1.375,0 2.578125,-0.578125 3.578125,-1.421875 1.5,-1.265625 1.953125,-2.9375 1.953125,-3.0625 0,-0.15625 -0.140625,-0.15625 -0.1875,-0.15625 -0.15625,0 -0.171875,0.09375 -0.21875,0.171875 -0.78125,2.6875 -3.109375,3.96875 -4.828125,3.96875 -1.828125,0 -3.421875,-1.171875 -3.421875,-3.609375 0,-0.5625 0.171875,-3.546875 2.125,-5.8125 0.953125,-1.09375 2.5625,-2.0625 4.203125,-2.0625 1.890625,0 2.734375,1.5625 2.734375,3.328125 0,0.4375 -0.04687,0.828125 -0.04687,0.890625 0,0.15625 0.171875,0.15625 0.21875,0.15625 0.1875,0 0.203125,-0.015625 0.28125,-0.328125 z m 0,0"
   id="path396" />
    </g>
  </g>
  <g
   fill="#000000"
   fill-opacity="1"
   id="g238"
   transform="matrix(0.352778,0,0,0.352778,-0.42168,6.17358e-4)">
    <g
   id="use236"
   transform="translate(279.08899,19.917)">
      <path
   d="m 3.4375,-7.65625 c 0,-0.28125 0,-0.296875 -0.234375,-0.296875 C 2.921875,-7.625 2.3125,-7.1875 1.09375,-7.1875 v 0.34375 c 0.265625,0 0.859375,0 1.53125,-0.296875 v 6.21875 c 0,0.4375 -0.046875,0.578125 -1.09375,0.578125 h -0.375 V 0 c 0.328125,-0.03125 1.484375,-0.03125 1.875,-0.03125 0.40625,0 1.546875,0 1.875,0.03125 v -0.34375 h -0.375 c -1.046875,0 -1.09375,-0.140625 -1.09375,-0.578125 z m 0,0"
   id="path400" />
    </g>
  </g>
  <g
   fill="#000000"
   fill-opacity="1"
   id="g242"
   transform="matrix(0.352778,0,0,0.352778,-0.42168,6.17358e-4)">
    <g
   id="use240"
   transform="translate(285.44,17.334999)">
      <path
   d="M 2.46875,-12.890625 H 0.234375 v 0.59375 h 1.625 V 3.6875 h -1.625 V 4.28125 H 2.46875 Z m 0,0"
   id="path404" />
    </g>
  </g>
</g></g><g
     inkscape:groupmode="layer"
     id="layer4"
     inkscape:label="Panels"
     transform="translate(88.5,119)"><text
       xml:space="preserve"
       style="font-style:normal;font-weight:normal;font-size:4.23333px;line-height:1.25;font-family:sans-serif;display:inline;fill:#000000;fill-opacity:1;stroke:none;stroke-width:0.264583"
       x="0.08452183"
       y="3.5861139"
       id="text557-8"
       inkscape:label="D"><tspan
         sodipodi:role="line"
         id="tspan555-7"
         style="font-size:4.23333px;stroke-width:0.264583"
         x="0.08452183"
         y="3.5861139">D</tspan></text><text
       xml:space="preserve"
       style="font-style:normal;font-weight:normal;font-size:4.23333px;line-height:1.25;font-family:sans-serif;display:inline;fill:#000000;fill-opacity:1;stroke:none;stroke-width:0.264583"
       x="-88.033073"
       y="3.5861139"
       id="text1858"
       inkscape:label="C"><tspan
         sodipodi:role="line"
         id="tspan1856"
         style="font-size:4.23333px;stroke-width:0.264583"
         x="-88.033073"
         y="3.5861139">C</tspan></text><text
       xml:space="preserve"
       style="font-style:normal;font-weight:normal;font-size:4.23333px;line-height:1.25;font-family:sans-serif;display:inline;fill:#000000;fill-opacity:1;stroke:none;stroke-width:0.264583"
       x="0.08452183"
       y="-115.41389"
       id="text557"
       inkscape:label="B"><tspan
         sodipodi:role="line"
         id="tspan555"
         style="font-size:4.23333px;stroke-width:0.264583"
         x="0.08452183"
         y="-115.41389">B</tspan></text><text
       xml:space="preserve"
       style="font-style:normal;font-weight:normal;font-size:4.23333px;line-height:1.25;font-family:sans-serif;display:inline;fill:#000000;fill-opacity:1;stroke:none;stroke-width:0.264583"
       x="-88.033073"
       y="-115.41389"
       id="text557-6"
       inkscape:label="A"><tspan
         sodipodi:role="line"
         id="tspan555-1"
         style="font-size:4.23333px;stroke-width:0.264583"
         x="-88.033073"
         y="-115.41389">A</tspan></text></g><g
     inkscape:groupmode="layer"
     id="layer3"
     inkscape:label="Colors"><g
       id="g1820"
       inkscape:label="Legend"
       style="display:inline"
       transform="translate(-75.446864,3.1833187)"><text
         xml:space="preserve"
         style="font-style:normal;font-weight:normal;font-size:2.82222px;line-height:1.45;font-family:sans-serif;fill:#000000;fill-opacity:1;stroke:none;stroke-width:0.264583"
         x="123.39391"
         y="24.588732"
         id="text813"><tspan
           sodipodi:role="line"
           id="tspan811"
           style="font-size:2.82222px;stroke-width:0.264583"
           x="123.39391"
           y="24.588732">Leading</tspan><tspan
           sodipodi:role="line"
           style="font-size:2.82222px;stroke-width:0.264583"
           x="123.39391"
           y="28.68095"
           id="tspan815">Lagging</tspan><tspan
           sodipodi:role="line"
           style="font-size:2.82222px;stroke-width:0.264583"
           x="123.39391"
           y="32.77317"
           id="tspan10453">Total</tspan><tspan
           sodipodi:role="line"
           style="font-size:2.82222px;stroke-width:0.264583"
           x="123.39391"
           y="36.865391"
           id="tspan10455">Cytoplasm</tspan><tspan
           sodipodi:role="line"
           style="font-size:2.82222px;stroke-width:0.264583"
           x="123.39391"
           y="40.957607"
           id="tspan10457">Simulation</tspan></text><path
         style="fill:#008b00;fill-opacity:1;stroke:none;stroke-width:0.023155"
         d="m 118.11858,27.521685 v -0.26855 h 1.8715 1.8715 v 0.26855 0.26856 h -1.8715 -1.8715 z"
         id="path2027-0" /><path
         style="fill:#ca6701;fill-opacity:1;stroke:none;stroke-width:0.023155"
         d="m 118.11858,23.562676 v -0.26855 h 1.8715 1.8715 v 0.26855 0.26856 h -1.8715 -1.8715 z"
         id="path2027" /><path
         style="display:inline;fill:#ff0000;fill-opacity:1;stroke:none;stroke-width:0.023155"
         d="m 118.03202,36.117803 v -0.26855 h 1.8715 1.8715 v 0.26855 0.26856 h -1.8715 -1.8715 z"
         id="path1830" /><path
         style="display:inline;fill:#ff00ff;fill-opacity:1;stroke:none;stroke-width:0.023155"
         d="m 118.03202,31.635699 v -0.26855 h 1.8715 1.8715 v 0.26855 0.26856 h -1.8715 -1.8715 z"
         id="path1832"
         inkscape:label="path1832" /><path
         style="display:inline;fill:#000000;fill-opacity:1;stroke:none;stroke-width:0.023155"
         d="m 118.03202,39.821972 v -0.26855 h 1.8715 1.8715 v 0.26855 0.26856 h -1.8715 -1.8715 z"
         id="path10446" /></g></g></svg>
